mtllib lidar_2d.mtl
o Deck_plate
usemtl metal
v -0.0790399909 -0.0740399957 -0.266619921
v -0.0790399909 -0.075000003 -0.265659928
v -0.0799999833 -0.0740399957 -0.265659928
v -0.0790399909 -0.074718833 -0.266338706
v -0.0795942545 -0.0745942593 -0.266214132
v -0.0797188282 -0.074718833 -0.265659928
v -0.0797188282 -0.0740399957 -0.266338706
v -0.0790399909 -0.075000003 -0.255579829
v -0.0790399909 -0.0740399957 -0.254619837
v -0.0799999833 -0.0740399957 -0.255579829
v -0.0790399909 -0.074718833 -0.254901052
v -0.0795942545 -0.0745942593 -0.255025625
v -0.0797188282 -0.0740399957 -0.254901052
v -0.0797188282 -0.074718833 -0.255579829
v -0.0790399909 0.0740399957 -0.266619921
v -0.0799999833 0.0740399957 -0.265659928
v -0.0790399909 0.0749999881 -0.265659928
v -0.0797188282 0.0740399957 -0.266338706
v -0.0795942545 0.0745942593 -0.266214132
v -0.0797188282 0.074718833 -0.265659928
v -0.0790399909 0.074718833 -0.266338706
v -0.0790399909 0.0740399957 -0.254619837
v -0.0790399909 0.0749999881 -0.255579829
v -0.0799999833 0.0740399957 -0.255579829
v -0.0790399909 0.074718833 -0.254901052
v -0.0795942545 0.0745942593 -0.255025625
v -0.0797188282 0.074718833 -0.255579829
v -0.0797188282 0.0740399957 -0.254901052
v 0.0790399909 -0.0740399957 -0.266619921
v 0.0799999833 -0.0740399957 -0.265659928
v 0.0790399909 -0.075000003 -0.265659928
v 0.0797188282 -0.0740399957 -0.266338706
v 0.0795942545 -0.0745942593 -0.266214132
v 0.0797188282 -0.074718833 -0.265659928
v 0.0790399909 -0.074718833 -0.266338706
v 0.0790399909 -0.0740399957 -0.254619837
v 0.0790399909 -0.075000003 -0.255579829
v 0.0799999833 -0.0740399957 -0.255579829
v 0.0790399909 -0.074718833 -0.254901052
v 0.0795942545 -0.0745942593 -0.255025625
v 0.0797188282 -0.074718833 -0.255579829
v 0.0797188282 -0.0740399957 -0.254901052
v 0.0790399909 0.0740399957 -0.266619921
v 0.0790399909 0.0749999881 -0.265659928
v 0.0799999833 0.0740399957 -0.265659928
v 0.0790399909 0.074718833 -0.266338706
v 0.0795942545 0.0745942593 -0.266214132
v 0.0797188282 0.074718833 -0.265659928
v 0.0797188282 0.0740399957 -0.266338706
v 0.0790399909 0.0740399957 -0.254619837
v 0.0799999833 0.0740399957 -0.255579829
v 0.0790399909 0.0749999881 -0.255579829
v 0.0797188282 0.0740399957 -0.254901052
v 0.0795942545 0.0745942593 -0.255025625
v 0.0797188282 0.074718833 -0.255579829
v 0.0790399909 0.074718833 -0.254901052
f 31 37 8 2
f 45 51 38 30
f 50 22 9 36
f 3 10 24 16
f 17 23 52 44
f 1 4 5 7
f 2 6 5 4
f 3 7 5 6
f 8 11 12 14
f 9 13 12 11
f 10 14 12 13
f 15 18 19 21
f 16 20 19 18
f 17 21 19 20
f 22 25 26 28
f 23 27 26 25
f 24 28 26 27
f 29 32 33 35
f 30 34 33 32
f 31 35 33 34
f 36 39 40 42
f 37 41 40 39
f 38 42 40 41
f 43 46 47 49
f 44 48 47 46
f 45 49 47 48
f 50 53 54 56
f 51 55 54 53
f 52 56 54 55
f 15 1 7 18
f 18 7 3 16
f 2 8 14 6
f 6 14 10 3
f 9 22 28 13
f 13 28 24 10
f 23 17 20 27
f 27 20 16 24
f 43 15 21 46
f 46 21 17 44
f 22 50 56 25
f 25 56 52 23
f 51 45 48 55
f 55 48 44 52
f 29 43 49 32
f 32 49 45 30
f 50 36 42 53
f 53 42 38 51
f 37 31 34 41
f 41 34 30 38
f 1 29 35 4
f 4 35 31 2
f 36 9 11 39
f 39 11 8 37
f 15 43 29 1
o Pedestal
usemtl metal
v -0.0151200294 -0.0181200057 -0.254619956
v -0.0151200294 -0.0209999979 -0.25173986
v -0.0180000067 -0.0181200057 -0.25173986
v -0.0151200294 -0.0201564729 -0.253776431
v -0.0167827606 -0.0197827667 -0.25340271
v -0.0171564817 -0.0201564729 -0.25173986
v -0.0171564817 -0.0181200057 -0.253776431
v -0.0151200294 -0.0209999979 -0.100880027
v -0.0151200294 -0.0181200057 -0.0979999304
v -0.0180000067 -0.0181200057 -0.100880027
v -0.0151200294 -0.0201564729 -0.0988434553
v -0.0167827606 -0.0197827667 -0.0992171764
v -0.0171564817 -0.0181200057 -0.0988434553
v -0.0171564817 -0.0201564729 -0.100880027
v -0.0151200294 0.0181199908 -0.254619956
v -0.0180000067 0.0181199908 -0.25173986
v -0.0151200294 0.0209999979 -0.25173986
v -0.0171564817 0.0181199908 -0.253776431
v -0.0167827606 0.0197827816 -0.25340271
v -0.0171564817 0.0201564729 -0.25173986
v -0.0151200294 0.0201564729 -0.253776431
v -0.0151200294 0.0181199908 -0.0979999304
v -0.0151200294 0.0209999979 -0.100880027
v -0.0180000067 0.0181199908 -0.100880027
v -0.0151200294 0.0201564729 -0.0988434553
v -0.0167827606 0.0197827816 -0.0992171764
v -0.0171564817 0.0201564729 -0.100880027
v -0.0171564817 0.0181199908 -0.0988434553
v 0.0151200294 -0.0181200057 -0.254619956
v 0.0180000067 -0.0181200057 -0.25173986
v 0.0151200294 -0.0209999979 -0.25173986
v 0.0171564817 -0.0181200057 -0.253776431
v 0.0167827606 -0.0197827667 -0.25340271
v 0.0171564817 -0.0201564729 -0.25173986
v 0.0151200294 -0.0201564729 -0.253776431
v 0.0151200294 -0.0181200057 -0.0979999304
v 0.0151200294 -0.0209999979 -0.100880027
v 0.0180000067 -0.0181200057 -0.100880027
v 0.0151200294 -0.0201564729 -0.0988434553
v 0.0167827606 -0.0197827667 -0.0992171764
v 0.0171564817 -0.0201564729 -0.100880027
v 0.0171564817 -0.0181200057 -0.0988434553
v 0.0151200294 0.0181199908 -0.254619956
v 0.0151200294 0.0209999979 -0.25173986
v 0.0180000067 0.0181199908 -0.25173986
v 0.0151200294 0.0201564729 -0.253776431
v 0.0167827606 0.0197827816 -0.25340271
v 0.0171564817 0.0201564729 -0.25173986
v 0.0171564817 0.0181199908 -0.253776431
v 0.0151200294 0.0181199908 -0.0979999304
v 0.0180000067 0.0181199908 -0.100880027
v 0.0151200294 0.0209999979 -0.100880027
v 0.0171564817 0.0181199908 -0.0988434553
v 0.0167827606 0.0197827816 -0.0992171764
v 0.0171564817 0.0201564729 -0.100880027
v 0.0151200294 0.0201564729 -0.0988434553
f 87 93 64 58
f 101 107 94 86
f 106 78 65 92
f 59 66 80 72
f 73 79 108 100
f 57 60 61 63
f 58 62 61 60
f 59 63 61 62
f 64 67 68 70
f 65 69 68 67
f 66 70 68 69
f 71 74 75 77
f 72 76 75 74
f 73 77 75 76
f 78 81 82 84
f 79 83 82 81
f 80 84 82 83
f 85 88 89 91
f 86 90 89 88
f 87 91 89 90
f 92 95 96 98
f 93 97 96 95
f 94 98 96 97
f 99 102 103 105
f 100 104 103 102
f 101 105 103 104
f 106 109 110 112
f 107 111 110 109
f 108 112 110 111
f 71 57 63 74
f 74 63 59 72
f 58 64 70 62
f 62 70 66 59
f 65 78 84 69
f 69 84 80 66
f 79 73 76 83
f 83 76 72 80
f 99 71 77 102
f 102 77 73 100
f 78 106 112 81
f 81 112 108 79
f 107 101 104 111
f 111 104 100 108
f 85 99 105 88
f 88 105 101 86
f 106 92 98 109
f 109 98 94 107
f 93 87 90 97
f 97 90 86 94
f 57 85 91 60
f 60 91 87 58
f 92 65 67 95
f 95 67 64 93
f 71 99 85 57
o Electronics
usemtl white
v -0.0401600003 -0.0361599922 -0.0980000496
v -0.0401600003 -0.0399999917 -0.0941599607
v -0.0440000296 -0.0361599922 -0.0941599607
v -0.0401600003 -0.0388752818 -0.0968753099
v -0.0423769951 -0.0383770168 -0.0963770151
v -0.0428752899 -0.0388752818 -0.0941599607
v -0.0428752899 -0.0361599922 -0.0968753099
v -0.0401600003 -0.0399999917 -0.0538400412
v -0.0401600003 -0.0361599922 -0.0499999523
v -0.0440000296 -0.0361599922 -0.0538400412
v -0.0401600003 -0.0388752818 -0.051124692
v -0.0423769951 -0.0383770168 -0.0516229868
v -0.0428752899 -0.0361599922 -0.051124692
v -0.0428752899 -0.0388752818 -0.0538400412
v -0.0401600003 0.0361599922 -0.0980000496
v -0.0440000296 0.0361599922 -0.0941599607
v -0.0401600003 0.0399999917 -0.0941599607
v -0.0428752899 0.0361599922 -0.0968753099
v -0.0423769951 0.0383770168 -0.0963770151
v -0.0428752899 0.0388752818 -0.0941599607
v -0.0401600003 0.0388752818 -0.0968753099
v -0.0401600003 0.0361599922 -0.0499999523
v -0.0401600003 0.0399999917 -0.0538400412
v -0.0440000296 0.0361599922 -0.0538400412
v -0.0401600003 0.0388752818 -0.051124692
v -0.0423769951 0.0383770168 -0.0516229868
v -0.0428752899 0.0388752818 -0.0538400412
v -0.0428752899 0.0361599922 -0.051124692
v 0.0401600003 -0.0361599922 -0.0980000496
v 0.0440000296 -0.0361599922 -0.0941599607
v 0.0401600003 -0.0399999917 -0.0941599607
v 0.0428752899 -0.0361599922 -0.0968753099
v 0.0423769951 -0.0383770168 -0.0963770151
v 0.0428752899 -0.0388752818 -0.0941599607
v 0.0401600003 -0.0388752818 -0.0968753099
v 0.0401600003 -0.0361599922 -0.0499999523
v 0.0401600003 -0.0399999917 -0.0538400412
v 0.0440000296 -0.0361599922 -0.0538400412
v 0.0401600003 -0.0388752818 -0.051124692
v 0.0423769951 -0.0383770168 -0.0516229868
v 0.0428752899 -0.0388752818 -0.0538400412
v 0.0428752899 -0.0361599922 -0.051124692
v 0.0401600003 0.0361599922 -0.0980000496
v 0.0401600003 0.0399999917 -0.0941599607
v 0.0440000296 0.0361599922 -0.0941599607
v 0.0401600003 0.0388752818 -0.0968753099
v 0.0423769951 0.0383770168 -0.0963770151
v 0.0428752899 0.0388752818 -0.0941599607
v 0.0428752899 0.0361599922 -0.0968753099
v 0.0401600003 0.0361599922 -0.0499999523
v 0.0440000296 0.0361599922 -0.0538400412
v 0.0401600003 0.0399999917 -0.0538400412
v 0.0428752899 0.0361599922 -0.051124692
v 0.0423769951 0.0383770168 -0.0516229868
v 0.0428752899 0.0388752818 -0.0538400412
v 0.0401600003 0.0388752818 -0.051124692
f 143 149 120 114
f 157 163 150 142
f 162 134 121 148
f 115 122 136 128
f 129 135 164 156
f 113 116 117 119
f 114 118 117 116
f 115 119 117 118
f 120 123 124 126
f 121 125 124 123
f 122 126 124 125
f 127 130 131 133
f 128 132 131 130
f 129 133 131 132
f 134 137 138 140
f 135 139 138 137
f 136 140 138 139
f 141 144 145 147
f 142 146 145 144
f 143 147 145 146
f 148 151 152 154
f 149 153 152 151
f 150 154 152 153
f 155 158 159 161
f 156 160 159 158
f 157 161 159 160
f 162 165 166 168
f 163 167 166 165
f 164 168 166 167
f 127 113 119 130
f 130 119 115 128
f 114 120 126 118
f 118 126 122 115
f 121 134 140 125
f 125 140 136 122
f 135 129 132 139
f 139 132 128 136
f 155 127 133 158
f 158 133 129 156
f 134 162 168 137
f 137 168 164 135
f 163 157 160 167
f 167 160 156 164
f 141 155 161 144
f 144 161 157 142
f 162 148 154 165
f 165 154 150 163
f 149 143 146 153
f 153 146 142 150
f 113 141 147 116
f 116 147 143 114
f 148 121 123 151
f 151 123 120 149
f 127 155 141 113
o Lower_ring
usemtl metal
v 0 0.0475569069 -0.0449999571
v 0 0.048999995 -0.0435600281
v 0 0.0485773385 -0.0445781946
v 0 0.0475569069 -0.0270000696
v 0 0.048999995 -0.0284399986
v 0 0.0485773385 -0.0274218321
v 0.00620740652 0.0471500456 -0.0449999571
v 0.0063957572 0.0485807955 -0.0435600281
v 0.0063406229 0.0481617451 -0.0445781946
v 0.00620740652 0.0471500456 -0.0270000696
v 0.0063957572 0.0485807955 -0.0284399986
v 0.0063406229 0.0481617451 -0.0274218321
v 0.0123086572 0.0459364355 -0.0449999571
v 0.0126821399 0.0473303795 -0.0435600281
v 0.0125727654 0.0469220877 -0.0445781946
v 0.0123086572 0.0459364355 -0.0270000696
v 0.0126821399 0.0473303795 -0.0284399986
v 0.0125727654 0.0469220877 -0.0274218321
v 0.0181992054 0.0439368486 -0.0449999571
v 0.018751502 0.0452700853 -0.0435600281
v 0.018589735 0.0448795855 -0.0445781946
v 0.0181992054 0.0439368486 -0.0270000696
v 0.018751502 0.0452700853 -0.0284399986
v 0.018589735 0.0448795855 -0.0274218321
v 0.0237784982 0.0411854982 -0.0449999571
v 0.0245000124 0.0424352288 -0.0435600281
v 0.0242886543 0.0420691967 -0.0445781946
v 0.0237784982 0.0411854982 -0.0270000696
v 0.0245000124 0.0424352288 -0.0284399986
v 0.0242886543 0.0420691967 -0.0274218321
v 0.0289508104 0.0377294421 -0.0449999571
v 0.0298293233 0.0388743281 -0.0435600281
v 0.02957201 0.0385389924 -0.0445781946
v 0.0289508104 0.0377294421 -0.0270000696
v 0.0298293233 0.0388743281 -0.0284399986
v 0.02957201 0.0385389924 -0.0274218321
v 0.0336278081 0.0336278081 -0.0449999571
v 0.0346482396 0.0346482396 -0.0435600281
v 0.0343493819 0.0343493521 -0.0445781946
v 0.0336278081 0.0336278081 -0.0270000696
v 0.0346482396 0.0346482396 -0.0284399986
v 0.0343493819 0.0343493521 -0.0274218321
v 0.0377294421 0.0289508104 -0.0449999571
v 0.0388743281 0.0298293233 -0.0435600281
v 0.0385389924 0.02957201 -0.0445781946
v 0.0377294421 0.0289508104 -0.0270000696
v 0.0388743281 0.0298293233 -0.0284399986
v 0.0385389924 0.02957201 -0.0274218321
v 0.0411854982 0.0237784684 -0.0449999571
v 0.0424352288 0.0245000124 -0.0435600281
v 0.0420691967 0.0242886543 -0.0445781946
v 0.0411854982 0.0237784684 -0.0270000696
v 0.0424352288 0.0245000124 -0.0284399986
v 0.0420691967 0.0242886543 -0.0274218321
v 0.0439368486 0.0181992352 -0.0449999571
v 0.0452700853 0.018751502 -0.0435600281
v 0.0448796153 0.018589735 -0.0445781946
v 0.0439368486 0.0181992352 -0.0270000696
v 0.0452700853 0.018751502 -0.0284399986
v 0.0448796153 0.018589735 -0.0274218321
v 0.0459364653 0.0123086572 -0.0449999571
v 0.0473303795 0.0126821399 -0.0435600281
v 0.0469220877 0.0125727355 -0.0445781946
v 0.0459364653 0.0123086572 -0.0270000696
v 0.0473303795 0.0126821399 -0.0284399986
v 0.0469220877 0.0125727355 -0.0274218321
v 0.0471500754 0.00620740652 -0.0449999571
v 0.0485808253 0.006395787 -0.0435600281
v 0.0481617451 0.0063405931 -0.0445781946
v 0.0471500754 0.00620740652 -0.0270000696
v 0.0485808253 0.006395787 -0.0284399986
v 0.0481617451 0.0063405931 -0.0274218321
v 0.0475569367 0 -0.0449999571
v 0.0490000248 0 -0.0435600281
v 0.0485773087 0 -0.0445781946
v 0.0475569367 0 -0.0270000696
v 0.0490000248 0 -0.0284399986
v 0.0485773087 0 -0.0274218321
v 0.0471500754 -0.00620740652 -0.0449999571
v 0.0485808253 -0.006395787 -0.0435600281
v 0.0481617451 -0.006340608 -0.0445781946
v 0.0471500754 -0.00620740652 -0.0270000696
v 0.0485808253 -0.006395787 -0.0284399986
v 0.0481617451 -0.006340608 -0.0274218321
v 0.0459364653 -0.0123086423 -0.0449999571
v 0.0473303795 -0.0126821399 -0.0435600281
v 0.0469220877 -0.0125727355 -0.0445781946
v 0.0459364653 -0.0123086423 -0.0270000696
v 0.0473303795 -0.0126821399 -0.0284399986
v 0.0469220877 -0.0125727355 -0.0274218321
v 0.0439368486 -0.0181992352 -0.0449999571
v 0.0452700853 -0.0187514871 -0.0435600281
v 0.0448796153 -0.018589735 -0.0445781946
v 0.0439368486 -0.0181992352 -0.0270000696
v 0.0452700853 -0.0187514871 -0.0284399986
v 0.0448796153 -0.018589735 -0.0274218321
v 0.0411854982 -0.0237784684 -0.0449999571
v 0.0424352288 -0.0244999975 -0.0435600281
v 0.0420691967 -0.0242886692 -0.0445781946
v 0.0411854982 -0.0237784684 -0.0270000696
v 0.0424352288 -0.0244999975 -0.0284399986
v 0.0420691967 -0.0242886692 -0.0274218321
v 0.0377294421 -0.0289507955 -0.0449999571
v 0.0388743281 -0.0298293084 -0.0435600281
v 0.0385389924 -0.02957201 -0.0445781946
v 0.0377294421 -0.0289507955 -0.0270000696
v 0.0388743281 -0.0298293084 -0.0284399986
v 0.0385389924 -0.02957201 -0.0274218321
v 0.0336278081 -0.0336278081 -0.0449999571
v 0.0346482396 -0.0346482396 -0.0435600281
v 0.0343493819 -0.034349367 -0.0445781946
v 0.0336278081 -0.0336278081 -0.0270000696
v 0.0346482396 -0.0346482396 -0.0284399986
v 0.0343493819 -0.034349367 -0.0274218321
v 0.0289508104 -0.0377294421 -0.0449999571
v 0.0298293233 -0.0388743132 -0.0435600281
v 0.02957201 -0.0385389924 -0.0445781946
v 0.0289508104 -0.0377294421 -0.0270000696
v 0.0298293233 -0.0388743132 -0.0284399986
v 0.02957201 -0.0385389924 -0.0274218321
v 0.0237784982 -0.0411854833 -0.0449999571
v 0.0245000124 -0.0424352437 -0.0435600281
v 0.0242886543 -0.0420691967 -0.0445781946
v 0.0237784982 -0.0411854833 -0.0270000696
v 0.0245000124 -0.0424352437 -0.0284399986
v 0.0242886543 -0.0420691967 -0.0274218321
v 0.0181992054 -0.0439368486 -0.0449999571
v 0.018751502 -0.0452700853 -0.0435600281
v 0.018589735 -0.0448796004 -0.0445781946
v 0.0181992054 -0.0439368486 -0.0270000696
v 0.018751502 -0.0452700853 -0.0284399986
v 0.018589735 -0.0448796004 -0.0274218321
v 0.0123086572 -0.0459364355 -0.0449999571
v 0.0126821399 -0.0473303646 -0.0435600281
v 0.0125727654 -0.0469220877 -0.0445781946
v 0.0123086572 -0.0459364355 -0.0270000696
v 0.0126821399 -0.0473303646 -0.0284399986
v 0.0125727654 -0.0469220877 -0.0274218321
v 0.00620740652 -0.0471500605 -0.0449999571
v 0.0063957572 -0.0485807955 -0.0435600281
v 0.0063406229 -0.0481617451 -0.0445781946
v 0.00620740652 -0.0471500605 -0.0270000696
v 0.0063957572 -0.0485807955 -0.0284399986
v 0.0063406229 -0.0481617451 -0.0274218321
v 0 -0.0475569069 -0.0449999571
v 0 -0.048999995 -0.0435600281
v 0 -0.0485773236 -0.0445781946
v 0 -0.0475569069 -0.0270000696
v 0 -0.048999995 -0.0284399986
v 0 -0.0485773236 -0.0274218321
v -0.00620740652 -0.0471500605 -0.0449999571
v -0.0063957572 -0.0485807955 -0.0435600281
v -0.0063406229 -0.0481617451 -0.0445781946
v -0.00620740652 -0.0471500605 -0.0270000696
v -0.0063957572 -0.0485807955 -0.0284399986
v -0.0063406229 -0.0481617451 -0.0274218321
v -0.0123086572 -0.0459364355 -0.0449999571
v -0.0126821399 -0.0473303646 -0.0435600281
v -0.0125727654 -0.0469220877 -0.0445781946
v -0.0123086572 -0.0459364355 -0.0270000696
v -0.0126821399 -0.0473303646 -0.0284399986
v -0.0125727654 -0.0469220877 -0.0274218321
v -0.0181992054 -0.0439368486 -0.0449999571
v -0.018751502 -0.0452700853 -0.0435600281
v -0.018589735 -0.0448796004 -0.0445781946
v -0.0181992054 -0.0439368486 -0.0270000696
v -0.018751502 -0.0452700853 -0.0284399986
v -0.018589735 -0.0448796004 -0.0274218321
v -0.0237784982 -0.0411854833 -0.0449999571
v -0.0245000124 -0.0424352437 -0.0435600281
v -0.0242886543 -0.0420691967 -0.0445781946
v -0.0237784982 -0.0411854833 -0.0270000696
v -0.0245000124 -0.0424352437 -0.0284399986
v -0.0242886543 -0.0420691967 -0.0274218321
v -0.0289508104 -0.0377294421 -0.0449999571
v -0.0298293233 -0.0388743132 -0.0435600281
v -0.02957201 -0.0385389924 -0.0445781946
v -0.0289508104 -0.0377294421 -0.0270000696
v -0.0298293233 -0.0388743132 -0.0284399986
v -0.02957201 -0.0385389924 -0.0274218321
v -0.0336278081 -0.0336278081 -0.0449999571
v -0.0346482396 -0.0346482396 -0.0435600281
v -0.0343493819 -0.034349367 -0.0445781946
v -0.0336278081 -0.0336278081 -0.0270000696
v -0.0346482396 -0.0346482396 -0.0284399986
v -0.0343493819 -0.034349367 -0.0274218321
v -0.0377294421 -0.0289507955 -0.0449999571
v -0.0388743281 -0.0298293084 -0.0435600281
v -0.0385389924 -0.02957201 -0.0445781946
v -0.0377294421 -0.0289507955 -0.0270000696
v -0.0388743281 -0.0298293084 -0.0284399986
v -0.0385389924 -0.02957201 -0.0274218321
v -0.0411854982 -0.0237784684 -0.0449999571
v -0.0424352288 -0.0244999975 -0.0435600281
v -0.0420691967 -0.0242886692 -0.0445781946
v -0.0411854982 -0.0237784684 -0.0270000696
v -0.0424352288 -0.0244999975 -0.0284399986
v -0.0420691967 -0.0242886692 -0.0274218321
v -0.0439368486 -0.0181992352 -0.0449999571
v -0.0452700853 -0.0187514871 -0.0435600281
v -0.0448796153 -0.018589735 -0.0445781946
v -0.0439368486 -0.0181992352 -0.0270000696
v -0.0452700853 -0.0187514871 -0.0284399986
v -0.0448796153 -0.018589735 -0.0274218321
v -0.0459364653 -0.0123086423 -0.0449999571
v -0.0473303795 -0.0126821399 -0.0435600281
v -0.0469220877 -0.0125727355 -0.0445781946
v -0.0459364653 -0.0123086423 -0.0270000696
v -0.0473303795 -0.0126821399 -0.0284399986
v -0.0469220877 -0.0125727355 -0.0274218321
v -0.0471500754 -0.00620740652 -0.0449999571
v -0.0485808253 -0.006395787 -0.0435600281
v -0.0481617451 -0.006340608 -0.0445781946
v -0.0471500754 -0.00620740652 -0.0270000696
v -0.0485808253 -0.006395787 -0.0284399986
v -0.0481617451 -0.006340608 -0.0274218321
v -0.0475569367 0 -0.0449999571
v -0.0490000248 0 -0.0435600281
v -0.0485773087 0 -0.0445781946
v -0.0475569367 0 -0.0270000696
v -0.0490000248 0 -0.0284399986
v -0.0485773087 0 -0.0274218321
v -0.0471500754 0.00620740652 -0.0449999571
v -0.0485808253 0.006395787 -0.0435600281
v -0.0481617451 0.0063405931 -0.0445781946
v -0.0471500754 0.00620740652 -0.0270000696
v -0.0485808253 0.006395787 -0.0284399986
v -0.0481617451 0.0063405931 -0.0274218321
v -0.0459364653 0.0123086572 -0.0449999571
v -0.0473303795 0.0126821399 -0.0435600281
v -0.0469220877 0.0125727355 -0.0445781946
v -0.0459364653 0.0123086572 -0.0270000696
v -0.0473303795 0.0126821399 -0.0284399986
v -0.0469220877 0.0125727355 -0.0274218321
v -0.0439368486 0.0181992352 -0.0449999571
v -0.0452700853 0.018751502 -0.0435600281
v -0.0448796153 0.018589735 -0.0445781946
v -0.0439368486 0.0181992352 -0.0270000696
v -0.0452700853 0.018751502 -0.0284399986
v -0.0448796153 0.018589735 -0.0274218321
v -0.0411854982 0.0237784684 -0.0449999571
v -0.0424352288 0.0245000124 -0.0435600281
v -0.0420691967 0.0242886543 -0.0445781946
v -0.0411854982 0.0237784684 -0.0270000696
v -0.0424352288 0.0245000124 -0.0284399986
v -0.0420691967 0.0242886543 -0.0274218321
v -0.0377294421 0.0289508104 -0.0449999571
v -0.0388743281 0.0298293233 -0.0435600281
v -0.0385389924 0.02957201 -0.0445781946
v -0.0377294421 0.0289508104 -0.0270000696
v -0.0388743281 0.0298293233 -0.0284399986
v -0.0385389924 0.02957201 -0.0274218321
v -0.0336278081 0.0336278081 -0.0449999571
v -0.0346482396 0.0346482396 -0.0435600281
v -0.0343493819 0.0343493521 -0.0445781946
v -0.0336278081 0.0336278081 -0.0270000696
v -0.0346482396 0.0346482396 -0.0284399986
v -0.0343493819 0.0343493521 -0.0274218321
v -0.0289508104 0.0377294421 -0.0449999571
v -0.0298293233 0.0388743281 -0.0435600281
v -0.02957201 0.0385389924 -0.0445781946
v -0.0289508104 0.0377294421 -0.0270000696
v -0.0298293233 0.0388743281 -0.0284399986
v -0.02957201 0.0385389924 -0.0274218321
v -0.0237784982 0.0411854982 -0.0449999571
v -0.0245000124 0.0424352288 -0.0435600281
v -0.0242886543 0.0420691967 -0.0445781946
v -0.0237784982 0.0411854982 -0.0270000696
v -0.0245000124 0.0424352288 -0.0284399986
v -0.0242886543 0.0420691967 -0.0274218321
v -0.0181992054 0.0439368486 -0.0449999571
v -0.018751502 0.0452700853 -0.0435600281
v -0.018589735 0.0448795855 -0.0445781946
v -0.0181992054 0.0439368486 -0.0270000696
v -0.018751502 0.0452700853 -0.0284399986
v -0.018589735 0.0448795855 -0.0274218321
v -0.0123086572 0.0459364355 -0.0449999571
v -0.0126821399 0.0473303795 -0.0435600281
v -0.0125727654 0.0469220877 -0.0445781946
v -0.0123086572 0.0459364355 -0.0270000696
v -0.0126821399 0.0473303795 -0.0284399986
v -0.0125727654 0.0469220877 -0.0274218321
v -0.00620740652 0.0471500456 -0.0449999571
v -0.0063957572 0.0485807955 -0.0435600281
v -0.0063406229 0.0481617451 -0.0445781946
v -0.00620740652 0.0471500456 -0.0270000696
v -0.0063957572 0.0485807955 -0.0284399986
v -0.0063406229 0.0481617451 -0.0274218321
f 452 455 173 170
f 182 185 191 188
f 188 191 197 194
f 194 197 203 200
f 200 203 209 206
f 206 209 215 212
f 212 215 221 218
f 218 221 227 224
f 224 227 233 230
f 230 233 239 236
f 236 239 245 242
f 242 245 251 248
f 248 251 257 254
f 254 257 263 260
f 260 263 269 266
f 266 269 275 272
f 272 275 281 278
f 278 281 287 284
f 284 287 293 290
f 290 293 299 296
f 296 299 305 302
f 302 305 311 308
f 308 311 317 314
f 314 317 323 320
f 320 323 329 326
f 326 329 335 332
f 332 335 341 338
f 338 341 347 344
f 344 347 353 350
f 350 353 359 356
f 356 359 365 362
f 362 365 371 368
f 368 371 377 374
f 374 377 383 380
f 380 383 389 386
f 386 389 395 392
f 392 395 401 398
f 398 401 407 404
f 404 407 413 410
f 410 413 419 416
f 416 419 425 422
f 422 425 431 428
f 428 431 437 434
f 434 437 443 440
f 440 443 449 446
f 446 449 455 452
f 176 179 185 182
f 178 172 454 448 442 436 430 424 418 412 406 400 394 388 382 376 370 364 358 352 346 340 334 328 322 316 310 304 298 292 286 280 274 268 262 256 250 244 238 232 226 220 214 208 202 196 190 184
f 170 173 179 176
f 170 176 177 171
f 171 177 175 169
f 179 173 174 180
f 180 174 172 178
f 176 182 183 177
f 177 183 181 175
f 185 179 180 186
f 186 180 178 184
f 182 188 189 183
f 183 189 187 181
f 191 185 186 192
f 192 186 184 190
f 188 194 195 189
f 189 195 193 187
f 197 191 192 198
f 198 192 190 196
f 194 200 201 195
f 195 201 199 193
f 203 197 198 204
f 204 198 196 202
f 200 206 207 201
f 201 207 205 199
f 209 203 204 210
f 210 204 202 208
f 206 212 213 207
f 207 213 211 205
f 215 209 210 216
f 216 210 208 214
f 212 218 219 213
f 213 219 217 211
f 221 215 216 222
f 222 216 214 220
f 218 224 225 219
f 219 225 223 217
f 227 221 222 228
f 228 222 220 226
f 224 230 231 225
f 225 231 229 223
f 233 227 228 234
f 234 228 226 232
f 230 236 237 231
f 231 237 235 229
f 239 233 234 240
f 240 234 232 238
f 236 242 243 237
f 237 243 241 235
f 245 239 240 246
f 246 240 238 244
f 242 248 249 243
f 243 249 247 241
f 251 245 246 252
f 252 246 244 250
f 248 254 255 249
f 249 255 253 247
f 257 251 252 258
f 258 252 250 256
f 254 260 261 255
f 255 261 259 253
f 263 257 258 264
f 264 258 256 262
f 260 266 267 261
f 261 267 265 259
f 269 263 264 270
f 270 264 262 268
f 266 272 273 267
f 267 273 271 265
f 275 269 270 276
f 276 270 268 274
f 272 278 279 273
f 273 279 277 271
f 281 275 276 282
f 282 276 274 280
f 278 284 285 279
f 279 285 283 277
f 287 281 282 288
f 288 282 280 286
f 284 290 291 285
f 285 291 289 283
f 293 287 288 294
f 294 288 286 292
f 290 296 297 291
f 291 297 295 289
f 299 293 294 300
f 300 294 292 298
f 296 302 303 297
f 297 303 301 295
f 305 299 300 306
f 306 300 298 304
f 302 308 309 303
f 303 309 307 301
f 311 305 306 312
f 312 306 304 310
f 308 314 315 309
f 309 315 313 307
f 317 311 312 318
f 318 312 310 316
f 314 320 321 315
f 315 321 319 313
f 323 317 318 324
f 324 318 316 322
f 320 326 327 321
f 321 327 325 319
f 329 323 324 330
f 330 324 322 328
f 326 332 333 327
f 327 333 331 325
f 335 329 330 336
f 336 330 328 334
f 332 338 339 333
f 333 339 337 331
f 341 335 336 342
f 342 336 334 340
f 338 344 345 339
f 339 345 343 337
f 347 341 342 348
f 348 342 340 346
f 344 350 351 345
f 345 351 349 343
f 353 347 348 354
f 354 348 346 352
f 350 356 357 351
f 351 357 355 349
f 359 353 354 360
f 360 354 352 358
f 356 362 363 357
f 357 363 361 355
f 365 359 360 366
f 366 360 358 364
f 362 368 369 363
f 363 369 367 361
f 371 365 366 372
f 372 366 364 370
f 368 374 375 369
f 369 375 373 367
f 377 371 372 378
f 378 372 370 376
f 374 380 381 375
f 375 381 379 373
f 383 377 378 384
f 384 378 376 382
f 380 386 387 381
f 381 387 385 379
f 389 383 384 390
f 390 384 382 388
f 386 392 393 387
f 387 393 391 385
f 395 389 390 396
f 396 390 388 394
f 392 398 399 393
f 393 399 397 391
f 401 395 396 402
f 402 396 394 400
f 398 404 405 399
f 399 405 403 397
f 407 401 402 408
f 408 402 400 406
f 404 410 411 405
f 405 411 409 403
f 413 407 408 414
f 414 408 406 412
f 410 416 417 411
f 411 417 415 409
f 419 413 414 420
f 420 414 412 418
f 416 422 423 417
f 417 423 421 415
f 425 419 420 426
f 426 420 418 424
f 422 428 429 423
f 423 429 427 421
f 431 425 426 432
f 432 426 424 430
f 428 434 435 429
f 429 435 433 427
f 437 431 432 438
f 438 432 430 436
f 434 440 441 435
f 435 441 439 433
f 443 437 438 444
f 444 438 436 442
f 440 446 447 441
f 441 447 445 439
f 449 443 444 450
f 450 444 442 448
f 446 452 453 447
f 447 453 451 445
f 455 449 450 456
f 456 450 448 454
f 452 170 171 453
f 453 171 169 451
f 173 455 456 174
f 174 456 454 172
f 169 175 181 187 193 199 205 211 217 223 229 235 241 247 253 259 265 271 277 283 289 295 301 307 313 319 325 331 337 343 349 355 361 367 373 379 385 391 397 403 409 415 421 427 433 439 445 451
o Optical_window
usemtl window
v 0 0.0436707437 -0.0269999504
v 0 0.0480000079 -0.0226800442
v 0 0.0467320085 -0.025734663
v 0 0.0436707437 0.0269999504
v 0 0.0480000079 0.0226800442
v 0 0.0467320085 0.025734663
v 0.00570017099 0.043297112 -0.0269999504
v 0.00626528263 0.0475893617 -0.0226800442
v 0.00609976053 0.0463321805 -0.025734663
v 0.00570017099 0.043297112 0.0269999504
v 0.00626528263 0.0475893617 0.0226800442
v 0.00609976053 0.0463321805 0.025734663
v 0.0113028288 0.0421826839 -0.0269999504
v 0.0124233365 0.0463644266 -0.0226800442
v 0.0120951533 0.0451396406 -0.025734663
v 0.0113028288 0.0421826839 0.0269999504
v 0.0124233365 0.0463644266 0.0226800442
v 0.0120951533 0.0451396406 0.025734663
v 0.0167120695 0.0403465033 -0.0269999504
v 0.0183687806 0.0443462133 -0.0226800442
v 0.0178835392 0.0431747437 -0.025734663
v 0.0167120695 0.0403465033 0.0269999504
v 0.0183687806 0.0443462133 0.0226800442
v 0.0178835392 0.0431747437 0.025734663
v 0.0218353868 0.0378199518 -0.0269999504
v 0.023999989 0.0415692329 -0.0226800442
v 0.0233659744 0.040471077 -0.025734663
v 0.0218353868 0.0378199518 0.0269999504
v 0.023999989 0.0415692329 0.0226800442
v 0.0233659744 0.040471077 0.025734663
v 0.0265850425 0.0346463323 -0.0269999504
v 0.0292205215 0.0380809605 -0.0226800442
v 0.0284486413 0.0370749831 -0.025734663
v 0.0265850425 0.0346463323 0.0269999504
v 0.0292205215 0.0380809605 0.0226800442
v 0.0284486413 0.0370749831 0.025734663
v 0.0308798552 0.0308798552 -0.0269999504
v 0.0339411497 0.0339411199 -0.0226800442
v 0.033044517 0.033044517 -0.025734663
v 0.0308798552 0.0308798552 0.0269999504
v 0.0339411497 0.0339411199 0.0226800442
v 0.033044517 0.033044517 0.025734663
v 0.0346463323 0.0265850425 -0.0269999504
v 0.0380809307 0.0292205513 -0.0226800442
v 0.0370749831 0.0284486413 -0.025734663
v 0.0346463323 0.0265850425 0.0269999504
v 0.0380809307 0.0292205513 0.0226800442
v 0.0370749831 0.0284486413 0.025734663
v 0.0378199816 0.021835357 -0.0269999504
v 0.0415692329 0.023999989 -0.0226800442
v 0.040471077 0.0233660042 -0.025734663
v 0.0378199816 0.021835357 0.0269999504
v 0.0415692329 0.023999989 0.0226800442
v 0.040471077 0.0233660042 0.025734663
v 0.0403465033 0.0167120695 -0.0269999504
v 0.0443462133 0.0183688104 -0.0226800442
v 0.0431747437 0.017883569 -0.025734663
v 0.0403465033 0.0167120695 0.0269999504
v 0.0443462133 0.0183688104 0.0226800442
v 0.0431747437 0.017883569 0.025734663
v 0.0421826839 0.0113028288 -0.0269999504
v 0.0463644266 0.0124233067 -0.0226800442
v 0.0451396108 0.0120951235 -0.025734663
v 0.0421826839 0.0113028288 0.0269999504
v 0.0463644266 0.0124233067 0.0226800442
v 0.0451396108 0.0120951235 0.025734663
v 0.043297112 0.00570017099 -0.0269999504
v 0.0475893617 0.00626525283 -0.0226800442
v 0.0463321805 0.00609973073 -0.025734663
v 0.043297112 0.00570017099 0.0269999504
v 0.0475893617 0.00626525283 0.0226800442
v 0.0463321805 0.00609973073 0.025734663
v 0.0436707139 0 -0.0269999504
v 0.0479999781 0 -0.0226800442
v 0.0467320085 0 -0.025734663
v 0.0436707139 0 0.0269999504
v 0.0479999781 0 0.0226800442
v 0.0467320085 0 0.025734663
v 0.043297112 -0.00570015609 -0.0269999504
v 0.0475893617 -0.00626525283 -0.0226800442
v 0.0463321805 -0.00609974563 -0.025734663
v 0.043297112 -0.00570015609 0.0269999504
v 0.0475893617 -0.00626525283 0.0226800442
v 0.0463321805 -0.00609974563 0.025734663
v 0.0421826839 -0.0113028288 -0.0269999504
v 0.0463644266 -0.0124233067 -0.0226800442
v 0.0451396108 -0.0120951384 -0.025734663
v 0.0421826839 -0.0113028288 0.0269999504
v 0.0463644266 -0.0124233067 0.0226800442
v 0.0451396108 -0.0120951384 0.025734663
v 0.0403465033 -0.0167120695 -0.0269999504
v 0.0443462133 -0.0183688104 -0.0226800442
v 0.0431747437 -0.017883569 -0.025734663
v 0.0403465033 -0.0167120695 0.0269999504
v 0.0443462133 -0.0183688104 0.0226800442
v 0.0431747437 -0.017883569 0.025734663
v 0.0378199816 -0.0218353719 -0.0269999504
v 0.0415692329 -0.0240000039 -0.0226800442
v 0.040471077 -0.0233660042 -0.025734663
v 0.0378199816 -0.0218353719 0.0269999504
v 0.0415692329 -0.0240000039 0.0226800442
v 0.040471077 -0.0233660042 0.025734663
v 0.0346463323 -0.0265850425 -0.0269999504
v 0.0380809307 -0.0292205513 -0.0226800442
v 0.0370749831 -0.0284486264 -0.025734663
v 0.0346463323 -0.0265850425 0.0269999504
v 0.0380809307 -0.0292205513 0.0226800442
v 0.0370749831 -0.0284486264 0.025734663
v 0.0308798552 -0.0308798701 -0.0269999504
v 0.0339411497 -0.0339411199 -0.0226800442
v 0.033044517 -0.0330445021 -0.025734663
v 0.0308798552 -0.0308798701 0.0269999504
v 0.0339411497 -0.0339411199 0.0226800442
v 0.033044517 -0.0330445021 0.025734663
v 0.0265850425 -0.0346463323 -0.0269999504
v 0.0292205215 -0.0380809605 -0.0226800442
v 0.0284486413 -0.0370749831 -0.025734663
v 0.0265850425 -0.0346463323 0.0269999504
v 0.0292205215 -0.0380809605 0.0226800442
v 0.0284486413 -0.0370749831 0.025734663
v 0.0218353868 -0.0378199667 -0.0269999504
v 0.023999989 -0.041569218 -0.0226800442
v 0.0233659744 -0.0404710919 -0.025734663
v 0.0218353868 -0.0378199667 0.0269999504
v 0.023999989 -0.041569218 0.0226800442
v 0.0233659744 -0.0404710919 0.025734663
v 0.0167120695 -0.0403465033 -0.0269999504
v 0.0183687806 -0.0443462133 -0.0226800442
v 0.0178835392 -0.0431747288 -0.025734663
v 0.0167120695 -0.0403465033 0.0269999504
v 0.0183687806 -0.0443462133 0.0226800442
v 0.0178835392 -0.0431747288 0.025734663
v 0.0113028288 -0.0421826839 -0.0269999504
v 0.0124233365 -0.0463644415 -0.0226800442
v 0.0120951533 -0.0451396406 -0.025734663
v 0.0113028288 -0.0421826839 0.0269999504
v 0.0124233365 -0.0463644415 0.0226800442
v 0.0120951533 -0.0451396406 0.025734663
v 0.00570017099 -0.0432971269 -0.0269999504
v 0.00626528263 -0.0475893617 -0.0226800442
v 0.00609976053 -0.0463321805 -0.025734663
v 0.00570017099 -0.0432971269 0.0269999504
v 0.00626528263 -0.0475893617 0.0226800442
v 0.00609976053 -0.0463321805 0.025734663
v 0 -0.0436707288 -0.0269999504
v 0 -0.0480000079 -0.0226800442
v 0 -0.0467319936 -0.025734663
v 0 -0.0436707288 0.0269999504
v 0 -0.0480000079 0.0226800442
v 0 -0.0467319936 0.025734663
v -0.00570017099 -0.0432971269 -0.0269999504
v -0.00626528263 -0.0475893617 -0.0226800442
v -0.00609976053 -0.0463321805 -0.025734663
v -0.00570017099 -0.0432971269 0.0269999504
v -0.00626528263 -0.0475893617 0.0226800442
v -0.00609976053 -0.0463321805 0.025734663
v -0.0113028288 -0.0421826839 -0.0269999504
v -0.0124233365 -0.0463644415 -0.0226800442
v -0.0120951533 -0.0451396406 -0.025734663
v -0.0113028288 -0.0421826839 0.0269999504
v -0.0124233365 -0.0463644415 0.0226800442
v -0.0120951533 -0.0451396406 0.025734663
v -0.0167120695 -0.0403465033 -0.0269999504
v -0.0183687806 -0.0443462133 -0.0226800442
v -0.0178835392 -0.0431747288 -0.025734663
v -0.0167120695 -0.0403465033 0.0269999504
v -0.0183687806 -0.0443462133 0.0226800442
v -0.0178835392 -0.0431747288 0.025734663
v -0.0218353868 -0.0378199667 -0.0269999504
v -0.023999989 -0.041569218 -0.0226800442
v -0.0233659744 -0.0404710919 -0.025734663
v -0.0218353868 -0.0378199667 0.0269999504
v -0.023999989 -0.041569218 0.0226800442
v -0.0233659744 -0.0404710919 0.025734663
v -0.0265850425 -0.0346463323 -0.0269999504
v -0.0292205215 -0.0380809605 -0.0226800442
v -0.0284486413 -0.0370749831 -0.025734663
v -0.0265850425 -0.0346463323 0.0269999504
v -0.0292205215 -0.0380809605 0.0226800442
v -0.0284486413 -0.0370749831 0.025734663
v -0.0308798552 -0.0308798701 -0.0269999504
v -0.0339411497 -0.0339411199 -0.0226800442
v -0.033044517 -0.0330445021 -0.025734663
v -0.0308798552 -0.0308798701 0.0269999504
v -0.0339411497 -0.0339411199 0.0226800442
v -0.033044517 -0.0330445021 0.025734663
v -0.0346463323 -0.0265850425 -0.0269999504
v -0.0380809307 -0.0292205513 -0.0226800442
v -0.0370749831 -0.0284486264 -0.025734663
v -0.0346463323 -0.0265850425 0.0269999504
v -0.0380809307 -0.0292205513 0.0226800442
v -0.0370749831 -0.0284486264 0.025734663
v -0.0378199816 -0.0218353719 -0.0269999504
v -0.0415692329 -0.0240000039 -0.0226800442
v -0.040471077 -0.0233660042 -0.025734663
v -0.0378199816 -0.0218353719 0.0269999504
v -0.0415692329 -0.0240000039 0.0226800442
v -0.040471077 -0.0233660042 0.025734663
v -0.0403465033 -0.0167120695 -0.0269999504
v -0.0443462133 -0.0183688104 -0.0226800442
v -0.0431747437 -0.017883569 -0.025734663
v -0.0403465033 -0.0167120695 0.0269999504
v -0.0443462133 -0.0183688104 0.0226800442
v -0.0431747437 -0.017883569 0.025734663
v -0.0421826839 -0.0113028288 -0.0269999504
v -0.0463644266 -0.0124233067 -0.0226800442
v -0.0451396108 -0.0120951384 -0.025734663
v -0.0421826839 -0.0113028288 0.0269999504
v -0.0463644266 -0.0124233067 0.0226800442
v -0.0451396108 -0.0120951384 0.025734663
v -0.043297112 -0.00570015609 -0.0269999504
v -0.0475893617 -0.00626525283 -0.0226800442
v -0.0463321805 -0.00609974563 -0.025734663
v -0.043297112 -0.00570015609 0.0269999504
v -0.0475893617 -0.00626525283 0.0226800442
v -0.0463321805 -0.00609974563 0.025734663
v -0.0436707139 0 -0.0269999504
v -0.0479999781 0 -0.0226800442
v -0.0467320085 0 -0.025734663
v -0.0436707139 0 0.0269999504
v -0.0479999781 0 0.0226800442
v -0.0467320085 0 0.025734663
v -0.043297112 0.00570017099 -0.0269999504
v -0.0475893617 0.00626525283 -0.0226800442
v -0.0463321805 0.00609973073 -0.025734663
v -0.043297112 0.00570017099 0.0269999504
v -0.0475893617 0.00626525283 0.0226800442
v -0.0463321805 0.00609973073 0.025734663
v -0.0421826839 0.0113028288 -0.0269999504
v -0.0463644266 0.0124233067 -0.0226800442
v -0.0451396108 0.0120951235 -0.025734663
v -0.0421826839 0.0113028288 0.0269999504
v -0.0463644266 0.0124233067 0.0226800442
v -0.0451396108 0.0120951235 0.025734663
v -0.0403465033 0.0167120695 -0.0269999504
v -0.0443462133 0.0183688104 -0.0226800442
v -0.0431747437 0.017883569 -0.025734663
v -0.0403465033 0.0167120695 0.0269999504
v -0.0443462133 0.0183688104 0.0226800442
v -0.0431747437 0.017883569 0.025734663
v -0.0378199816 0.021835357 -0.0269999504
v -0.0415692329 0.023999989 -0.0226800442
v -0.040471077 0.0233660042 -0.025734663
v -0.0378199816 0.021835357 0.0269999504
v -0.0415692329 0.023999989 0.0226800442
v -0.040471077 0.0233660042 0.025734663
v -0.0346463323 0.0265850425 -0.0269999504
v -0.0380809307 0.0292205513 -0.0226800442
v -0.0370749831 0.0284486413 -0.025734663
v -0.0346463323 0.0265850425 0.0269999504
v -0.0380809307 0.0292205513 0.0226800442
v -0.0370749831 0.0284486413 0.025734663
v -0.0308798552 0.0308798552 -0.0269999504
v -0.0339411497 0.0339411199 -0.0226800442
v -0.033044517 0.033044517 -0.025734663
v -0.0308798552 0.0308798552 0.0269999504
v -0.0339411497 0.0339411199 0.0226800442
v -0.033044517 0.033044517 0.025734663
v -0.0265850425 0.0346463323 -0.0269999504
v -0.0292205215 0.0380809605 -0.0226800442
v -0.0284486413 0.0370749831 -0.025734663
v -0.0265850425 0.0346463323 0.0269999504
v -0.0292205215 0.0380809605 0.0226800442
v -0.0284486413 0.0370749831 0.025734663
v -0.0218353868 0.0378199518 -0.0269999504
v -0.023999989 0.0415692329 -0.0226800442
v -0.0233659744 0.040471077 -0.025734663
v -0.0218353868 0.0378199518 0.0269999504
v -0.023999989 0.0415692329 0.0226800442
v -0.0233659744 0.040471077 0.025734663
v -0.0167120695 0.0403465033 -0.0269999504
v -0.0183687806 0.0443462133 -0.0226800442
v -0.0178835392 0.0431747437 -0.025734663
v -0.0167120695 0.0403465033 0.0269999504
v -0.0183687806 0.0443462133 0.0226800442
v -0.0178835392 0.0431747437 0.025734663
v -0.0113028288 0.0421826839 -0.0269999504
v -0.0124233365 0.0463644266 -0.0226800442
v -0.0120951533 0.0451396406 -0.025734663
v -0.0113028288 0.0421826839 0.0269999504
v -0.0124233365 0.0463644266 0.0226800442
v -0.0120951533 0.0451396406 0.025734663
v -0.00570017099 0.043297112 -0.0269999504
v -0.00626528263 0.0475893617 -0.0226800442
v -0.00609976053 0.0463321805 -0.025734663
v -0.00570017099 0.043297112 0.0269999504
v -0.00626528263 0.0475893617 0.0226800442
v -0.00609976053 0.0463321805 0.025734663
f 740 743 461 458
f 470 473 479 476
f 476 479 485 482
f 482 485 491 488
f 488 491 497 494
f 494 497 503 500
f 500 503 509 506
f 506 509 515 512
f 512 515 521 518
f 518 521 527 524
f 524 527 533 530
f 530 533 539 536
f 536 539 545 542
f 542 545 551 548
f 548 551 557 554
f 554 557 563 560
f 560 563 569 566
f 566 569 575 572
f 572 575 581 578
f 578 581 587 584
f 584 587 593 590
f 590 593 599 596
f 596 599 605 602
f 602 605 611 608
f 608 611 617 614
f 614 617 623 620
f 620 623 629 626
f 626 629 635 632
f 632 635 641 638
f 638 641 647 644
f 644 647 653 650
f 650 653 659 656
f 656 659 665 662
f 662 665 671 668
f 668 671 677 674
f 674 677 683 680
f 680 683 689 686
f 686 689 695 692
f 692 695 701 698
f 698 701 707 704
f 704 707 713 710
f 710 713 719 716
f 716 719 725 722
f 722 725 731 728
f 728 731 737 734
f 734 737 743 740
f 464 467 473 470
f 466 460 742 736 730 724 718 712 706 700 694 688 682 676 670 664 658 652 646 640 634 628 622 616 610 604 598 592 586 580 574 568 562 556 550 544 538 532 526 520 514 508 502 496 490 484 478 472
f 458 461 467 464
f 458 464 465 459
f 459 465 463 457
f 467 461 462 468
f 468 462 460 466
f 464 470 471 465
f 465 471 469 463
f 473 467 468 474
f 474 468 466 472
f 470 476 477 471
f 471 477 475 469
f 479 473 474 480
f 480 474 472 478
f 476 482 483 477
f 477 483 481 475
f 485 479 480 486
f 486 480 478 484
f 482 488 489 483
f 483 489 487 481
f 491 485 486 492
f 492 486 484 490
f 488 494 495 489
f 489 495 493 487
f 497 491 492 498
f 498 492 490 496
f 494 500 501 495
f 495 501 499 493
f 503 497 498 504
f 504 498 496 502
f 500 506 507 501
f 501 507 505 499
f 509 503 504 510
f 510 504 502 508
f 506 512 513 507
f 507 513 511 505
f 515 509 510 516
f 516 510 508 514
f 512 518 519 513
f 513 519 517 511
f 521 515 516 522
f 522 516 514 520
f 518 524 525 519
f 519 525 523 517
f 527 521 522 528
f 528 522 520 526
f 524 530 531 525
f 525 531 529 523
f 533 527 528 534
f 534 528 526 532
f 530 536 537 531
f 531 537 535 529
f 539 533 534 540
f 540 534 532 538
f 536 542 543 537
f 537 543 541 535
f 545 539 540 546
f 546 540 538 544
f 542 548 549 543
f 543 549 547 541
f 551 545 546 552
f 552 546 544 550
f 548 554 555 549
f 549 555 553 547
f 557 551 552 558
f 558 552 550 556
f 554 560 561 555
f 555 561 559 553
f 563 557 558 564
f 564 558 556 562
f 560 566 567 561
f 561 567 565 559
f 569 563 564 570
f 570 564 562 568
f 566 572 573 567
f 567 573 571 565
f 575 569 570 576
f 576 570 568 574
f 572 578 579 573
f 573 579 577 571
f 581 575 576 582
f 582 576 574 580
f 578 584 585 579
f 579 585 583 577
f 587 581 582 588
f 588 582 580 586
f 584 590 591 585
f 585 591 589 583
f 593 587 588 594
f 594 588 586 592
f 590 596 597 591
f 591 597 595 589
f 599 593 594 600
f 600 594 592 598
f 596 602 603 597
f 597 603 601 595
f 605 599 600 606
f 606 600 598 604
f 602 608 609 603
f 603 609 607 601
f 611 605 606 612
f 612 606 604 610
f 608 614 615 609
f 609 615 613 607
f 617 611 612 618
f 618 612 610 616
f 614 620 621 615
f 615 621 619 613
f 623 617 618 624
f 624 618 616 622
f 620 626 627 621
f 621 627 625 619
f 629 623 624 630
f 630 624 622 628
f 626 632 633 627
f 627 633 631 625
f 635 629 630 636
f 636 630 628 634
f 632 638 639 633
f 633 639 637 631
f 641 635 636 642
f 642 636 634 640
f 638 644 645 639
f 639 645 643 637
f 647 641 642 648
f 648 642 640 646
f 644 650 651 645
f 645 651 649 643
f 653 647 648 654
f 654 648 646 652
f 650 656 657 651
f 651 657 655 649
f 659 653 654 660
f 660 654 652 658
f 656 662 663 657
f 657 663 661 655
f 665 659 660 666
f 666 660 658 664
f 662 668 669 663
f 663 669 667 661
f 671 665 666 672
f 672 666 664 670
f 668 674 675 669
f 669 675 673 667
f 677 671 672 678
f 678 672 670 676
f 674 680 681 675
f 675 681 679 673
f 683 677 678 684
f 684 678 676 682
f 680 686 687 681
f 681 687 685 679
f 689 683 684 690
f 690 684 682 688
f 686 692 693 687
f 687 693 691 685
f 695 689 690 696
f 696 690 688 694
f 692 698 699 693
f 693 699 697 691
f 701 695 696 702
f 702 696 694 700
f 698 704 705 699
f 699 705 703 697
f 707 701 702 708
f 708 702 700 706
f 704 710 711 705
f 705 711 709 703
f 713 707 708 714
f 714 708 706 712
f 710 716 717 711
f 711 717 715 709
f 719 713 714 720
f 720 714 712 718
f 716 722 723 717
f 717 723 721 715
f 725 719 720 726
f 726 720 718 724
f 722 728 729 723
f 723 729 727 721
f 731 725 726 732
f 732 726 724 730
f 728 734 735 729
f 729 735 733 727
f 737 731 732 738
f 738 732 730 736
f 734 740 741 735
f 735 741 739 733
f 743 737 738 744
f 744 738 736 742
f 740 458 459 741
f 741 459 457 739
f 461 743 744 462
f 462 744 742 460
f 457 463 469 475 481 487 493 499 505 511 517 523 529 535 541 547 553 559 565 571 577 583 589 595 601 607 613 619 625 631 637 643 649 655 661 667 673 679 685 691 697 703 709 715 721 727 733 739
o Top_cap
usemtl white
v 0 0.0507172644 0.0269999504
v 0 0.0519999862 0.0282800198
v 0 0.0516242981 0.0273748636
v 0 0.0507172644 0.0429999828
v 0 0.0519999862 0.0417199135
v 0 0.0516242981 0.0426250696
v 0.00661993027 0.0502833724 0.0269999504
v 0.00678735971 0.0515551269 0.0282800198
v 0.00673830509 0.0511826277 0.0273748636
v 0.00661993027 0.0502833724 0.0429999828
v 0.00678735971 0.0515551269 0.0417199135
v 0.00673830509 0.0511826277 0.0426250696
v 0.0131265521 0.0489891171 0.0269999504
v 0.0134586096 0.0502281487 0.0282800198
v 0.0133613348 0.0498652458 0.0273748636
v 0.0131265521 0.0489891171 0.0429999828
v 0.0134586096 0.0502281487 0.0417199135
v 0.0133613348 0.0498652458 0.0426250696
v 0.0194086432 0.0468566418 0.0269999504
v 0.0198995471 0.0480417311 0.0282800198
v 0.0197557807 0.0476946235 0.0273748636
v 0.0194086432 0.0468566418 0.0429999828
v 0.0198995471 0.0480417311 0.0417199135
v 0.0197557807 0.0476946235 0.0426250696
v 0.0253586173 0.0439224243 0.0269999504
v 0.0260000229 0.0450333357 0.0282800198
v 0.025812149 0.0447079539 0.0273748636
v 0.0253586173 0.0439224243 0.0429999828
v 0.0260000229 0.0450333357 0.0417199135
v 0.025812149 0.0447079539 0.0426250696
v 0.0308747292 0.0402367115 0.0269999504
v 0.0316556096 0.0412543714 0.0282800198
v 0.0314269066 0.0409563184 0.0273748636
v 0.0308747292 0.0402367115 0.0429999828
v 0.0316556096 0.0412543714 0.0417199135
v 0.0314269066 0.0409563184 0.0426250696
v 0.0358625054 0.0358625054 0.0269999504
v 0.0367695689 0.0367695689 0.0282800198
v 0.036503911 0.0365038812 0.0273748636
v 0.0358625054 0.0358625054 0.0429999828
v 0.0367695689 0.0367695689 0.0417199135
v 0.036503911 0.0365038812 0.0426250696
v 0.0402367115 0.0308747292 0.0269999504
v 0.0412544012 0.0316556096 0.0282800198
v 0.0409563184 0.0314268768 0.0273748636
v 0.0402367115 0.0308747292 0.0429999828
v 0.0412544012 0.0316556096 0.0417199135
v 0.0409563184 0.0314268768 0.0426250696
v 0.0439224243 0.0253586173 0.0269999504
v 0.0450333357 0.0259999931 0.0282800198
v 0.0447079539 0.025812149 0.0273748636
v 0.0439224243 0.0253586173 0.0429999828
v 0.0450333357 0.0259999931 0.0417199135
v 0.0447079539 0.025812149 0.0426250696
v 0.0468566418 0.019408673 0.0269999504
v 0.0480417609 0.0198995471 0.0282800198
v 0.0476946235 0.0197557807 0.0273748636
v 0.0468566418 0.019408673 0.0429999828
v 0.0480417609 0.0198995471 0.0417199135
v 0.0476946235 0.0197557807 0.0426250696
v 0.0489891171 0.0131265819 0.0269999504
v 0.0502281189 0.0134585798 0.0282800198
v 0.0498652458 0.0133613348 0.0273748636
v 0.0489891171 0.0131265819 0.0429999828
v 0.0502281189 0.0134585798 0.0417199135
v 0.0498652458 0.0133613348 0.0426250696
v 0.0502833724 0.00661996007 0.0269999504
v 0.0515551567 0.00678735971 0.0282800198
v 0.0511826277 0.00673833489 0.0273748636
v 0.0502833724 0.00661996007 0.0429999828
v 0.0515551567 0.00678735971 0.0417199135
v 0.0511826277 0.00673833489 0.0426250696
v 0.0507172346 0 0.0269999504
v 0.0519999862 0 0.0282800198
v 0.0516242981 0 0.0273748636
v 0.0507172346 0 0.0429999828
v 0.0519999862 0 0.0417199135
v 0.0516242981 0 0.0426250696
v 0.0502833724 -0.00661994517 0.0269999504
v 0.0515551567 -0.00678735971 0.0282800198
v 0.0511826277 -0.00673833489 0.0273748636
v 0.0502833724 -0.00661994517 0.0429999828
v 0.0515551567 -0.00678735971 0.0417199135
v 0.0511826277 -0.00673833489 0.0426250696
v 0.0489891171 -0.0131265819 0.0269999504
v 0.0502281189 -0.0134585947 0.0282800198
v 0.0498652458 -0.0133613497 0.0273748636
v 0.0489891171 -0.0131265819 0.0429999828
v 0.0502281189 -0.0134585947 0.0417199135
v 0.0498652458 -0.0133613497 0.0426250696
v 0.0468566418 -0.019408673 0.0269999504
v 0.0480417609 -0.0198995471 0.0282800198
v 0.0476946235 -0.0197557658 0.0273748636
v 0.0468566418 -0.019408673 0.0429999828
v 0.0480417609 -0.0198995471 0.0417199135
v 0.0476946235 -0.0197557658 0.0426250696
v 0.0439224243 -0.0253586173 0.0269999504
v 0.0450333357 -0.0259999931 0.0282800198
v 0.0447079539 -0.025812149 0.0273748636
v 0.0439224243 -0.0253586173 0.0429999828
v 0.0450333357 -0.0259999931 0.0417199135
v 0.0447079539 -0.025812149 0.0426250696
v 0.0402367115 -0.0308747143 0.0269999504
v 0.0412544012 -0.0316555947 0.0282800198
v 0.0409563184 -0.0314268768 0.0273748636
v 0.0402367115 -0.0308747143 0.0429999828
v 0.0412544012 -0.0316555947 0.0417199135
v 0.0409563184 -0.0314268768 0.0426250696
v 0.0358625054 -0.0358625203 0.0269999504
v 0.0367695689 -0.036769554 0.0282800198
v 0.036503911 -0.0365038961 0.0273748636
v 0.0358625054 -0.0358625203 0.0429999828
v 0.0367695689 -0.036769554 0.0417199135
v 0.036503911 -0.0365038961 0.0426250696
v 0.0308747292 -0.0402366966 0.0269999504
v 0.0316556096 -0.0412543714 0.0282800198
v 0.0314269066 -0.0409563035 0.0273748636
v 0.0308747292 -0.0402366966 0.0429999828
v 0.0316556096 -0.0412543714 0.0417199135
v 0.0314269066 -0.0409563035 0.0426250696
v 0.0253586173 -0.0439224392 0.0269999504
v 0.0260000229 -0.0450333208 0.0282800198
v 0.025812149 -0.0447079539 0.0273748636
v 0.0253586173 -0.0439224392 0.0429999828
v 0.0260000229 -0.0450333208 0.0417199135
v 0.025812149 -0.0447079539 0.0426250696
v 0.0194086432 -0.0468566269 0.0269999504
v 0.0198995471 -0.0480417311 0.0282800198
v 0.0197557807 -0.0476946235 0.0273748636
v 0.0194086432 -0.0468566269 0.0429999828
v 0.0198995471 -0.0480417311 0.0417199135
v 0.0197557807 -0.0476946235 0.0426250696
v 0.0131265521 -0.0489891171 0.0269999504
v 0.0134586096 -0.0502281487 0.0282800198
v 0.0133613348 -0.0498652309 0.0273748636
v 0.0131265521 -0.0489891171 0.0429999828
v 0.0134586096 -0.0502281487 0.0417199135
v 0.0133613348 -0.0498652309 0.0426250696
v 0.00661993027 -0.0502833575 0.0269999504
v 0.00678735971 -0.0515551269 0.0282800198
v 0.00673830509 -0.0511826426 0.0273748636
v 0.00661993027 -0.0502833575 0.0429999828
v 0.00678735971 -0.0515551269 0.0417199135
v 0.00673830509 -0.0511826426 0.0426250696
v 0 -0.0507172495 0.0269999504
v 0 -0.0520000011 0.0282800198
v 0 -0.0516242981 0.0273748636
v 0 -0.0507172495 0.0429999828
v 0 -0.0520000011 0.0417199135
v 0 -0.0516242981 0.0426250696
v -0.00661993027 -0.0502833575 0.0269999504
v -0.00678735971 -0.0515551269 0.0282800198
v -0.00673830509 -0.0511826426 0.0273748636
v -0.00661993027 -0.0502833575 0.0429999828
v -0.00678735971 -0.0515551269 0.0417199135
v -0.00673830509 -0.0511826426 0.0426250696
v -0.0131265521 -0.0489891171 0.0269999504
v -0.0134586096 -0.0502281487 0.0282800198
v -0.0133613348 -0.0498652309 0.0273748636
v -0.0131265521 -0.0489891171 0.0429999828
v -0.0134586096 -0.0502281487 0.0417199135
v -0.0133613348 -0.0498652309 0.0426250696
v -0.0194086432 -0.0468566269 0.0269999504
v -0.0198995471 -0.0480417311 0.0282800198
v -0.0197557807 -0.0476946235 0.0273748636
v -0.0194086432 -0.0468566269 0.0429999828
v -0.0198995471 -0.0480417311 0.0417199135
v -0.0197557807 -0.0476946235 0.0426250696
v -0.0253586173 -0.0439224392 0.0269999504
v -0.0260000229 -0.0450333208 0.0282800198
v -0.025812149 -0.0447079539 0.0273748636
v -0.0253586173 -0.0439224392 0.0429999828
v -0.0260000229 -0.0450333208 0.0417199135
v -0.025812149 -0.0447079539 0.0426250696
v -0.0308747292 -0.0402366966 0.0269999504
v -0.0316556096 -0.0412543714 0.0282800198
v -0.0314269066 -0.0409563035 0.0273748636
v -0.0308747292 -0.0402366966 0.0429999828
v -0.0316556096 -0.0412543714 0.0417199135
v -0.0314269066 -0.0409563035 0.0426250696
v -0.0358625054 -0.0358625203 0.0269999504
v -0.0367695689 -0.036769554 0.0282800198
v -0.036503911 -0.0365038961 0.0273748636
v -0.0358625054 -0.0358625203 0.0429999828
v -0.0367695689 -0.036769554 0.0417199135
v -0.036503911 -0.0365038961 0.0426250696
v -0.0402367115 -0.0308747143 0.0269999504
v -0.0412544012 -0.0316555947 0.0282800198
v -0.0409563184 -0.0314268768 0.0273748636
v -0.0402367115 -0.0308747143 0.0429999828
v -0.0412544012 -0.0316555947 0.0417199135
v -0.0409563184 -0.0314268768 0.0426250696
v -0.0439224243 -0.0253586173 0.0269999504
v -0.0450333357 -0.0259999931 0.0282800198
v -0.0447079539 -0.025812149 0.0273748636
v -0.0439224243 -0.0253586173 0.0429999828
v -0.0450333357 -0.0259999931 0.0417199135
v -0.0447079539 -0.025812149 0.0426250696
v -0.0468566418 -0.019408673 0.0269999504
v -0.0480417609 -0.0198995471 0.0282800198
v -0.0476946235 -0.0197557658 0.0273748636
v -0.0468566418 -0.019408673 0.0429999828
v -0.0480417609 -0.0198995471 0.0417199135
v -0.0476946235 -0.0197557658 0.0426250696
v -0.0489891171 -0.0131265819 0.0269999504
v -0.0502281189 -0.0134585947 0.0282800198
v -0.0498652458 -0.0133613497 0.0273748636
v -0.0489891171 -0.0131265819 0.0429999828
v -0.0502281189 -0.0134585947 0.0417199135
v -0.0498652458 -0.0133613497 0.0426250696
v -0.0502833724 -0.00661994517 0.0269999504
v -0.0515551567 -0.00678735971 0.0282800198
v -0.0511826277 -0.00673833489 0.0273748636
v -0.0502833724 -0.00661994517 0.0429999828
v -0.0515551567 -0.00678735971 0.0417199135
v -0.0511826277 -0.00673833489 0.0426250696
v -0.0507172346 0 0.0269999504
v -0.0519999862 0 0.0282800198
v -0.0516242981 0 0.0273748636
v -0.0507172346 0 0.0429999828
v -0.0519999862 0 0.0417199135
v -0.0516242981 0 0.0426250696
v -0.0502833724 0.00661996007 0.0269999504
v -0.0515551567 0.00678735971 0.0282800198
v -0.0511826277 0.00673833489 0.0273748636
v -0.0502833724 0.00661996007 0.0429999828
v -0.0515551567 0.00678735971 0.0417199135
v -0.0511826277 0.00673833489 0.0426250696
v -0.0489891171 0.0131265819 0.0269999504
v -0.0502281189 0.0134585798 0.0282800198
v -0.0498652458 0.0133613348 0.0273748636
v -0.0489891171 0.0131265819 0.0429999828
v -0.0502281189 0.0134585798 0.0417199135
v -0.0498652458 0.0133613348 0.0426250696
v -0.0468566418 0.019408673 0.0269999504
v -0.0480417609 0.0198995471 0.0282800198
v -0.0476946235 0.0197557807 0.0273748636
v -0.0468566418 0.019408673 0.0429999828
v -0.0480417609 0.0198995471 0.0417199135
v -0.0476946235 0.0197557807 0.0426250696
v -0.0439224243 0.0253586173 0.0269999504
v -0.0450333357 0.0259999931 0.0282800198
v -0.0447079539 0.025812149 0.0273748636
v -0.0439224243 0.0253586173 0.0429999828
v -0.0450333357 0.0259999931 0.0417199135
v -0.0447079539 0.025812149 0.0426250696
v -0.0402367115 0.0308747292 0.0269999504
v -0.0412544012 0.0316556096 0.0282800198
v -0.0409563184 0.0314268768 0.0273748636
v -0.0402367115 0.0308747292 0.0429999828
v -0.0412544012 0.0316556096 0.0417199135
v -0.0409563184 0.0314268768 0.0426250696
v -0.0358625054 0.0358625054 0.0269999504
v -0.0367695689 0.0367695689 0.0282800198
v -0.036503911 0.0365038812 0.0273748636
v -0.0358625054 0.0358625054 0.0429999828
v -0.0367695689 0.0367695689 0.0417199135
v -0.036503911 0.0365038812 0.0426250696
v -0.0308747292 0.0402367115 0.0269999504
v -0.0316556096 0.0412543714 0.0282800198
v -0.0314269066 0.0409563184 0.0273748636
v -0.0308747292 0.0402367115 0.0429999828
v -0.0316556096 0.0412543714 0.0417199135
v -0.0314269066 0.0409563184 0.0426250696
v -0.0253586173 0.0439224243 0.0269999504
v -0.0260000229 0.0450333357 0.0282800198
v -0.025812149 0.0447079539 0.0273748636
v -0.0253586173 0.0439224243 0.0429999828
v -0.0260000229 0.0450333357 0.0417199135
v -0.025812149 0.0447079539 0.0426250696
v -0.0194086432 0.0468566418 0.0269999504
v -0.0198995471 0.0480417311 0.0282800198
v -0.0197557807 0.0476946235 0.0273748636
v -0.0194086432 0.0468566418 0.0429999828
v -0.0198995471 0.0480417311 0.0417199135
v -0.0197557807 0.0476946235 0.0426250696
v -0.0131265521 0.0489891171 0.0269999504
v -0.0134586096 0.0502281487 0.0282800198
v -0.0133613348 0.0498652458 0.0273748636
v -0.0131265521 0.0489891171 0.0429999828
v -0.0134586096 0.0502281487 0.0417199135
v -0.0133613348 0.0498652458 0.0426250696
v -0.00661993027 0.0502833724 0.0269999504
v -0.00678735971 0.0515551269 0.0282800198
v -0.00673830509 0.0511826277 0.0273748636
v -0.00661993027 0.0502833724 0.0429999828
v -0.00678735971 0.0515551269 0.0417199135
v -0.00673830509 0.0511826277 0.0426250696
f 1028 1031 749 746
f 758 761 767 764
f 764 767 773 770
f 770 773 779 776
f 776 779 785 782
f 782 785 791 788
f 788 791 797 794
f 794 797 803 800
f 800 803 809 806
f 806 809 815 812
f 812 815 821 818
f 818 821 827 824
f 824 827 833 830
f 830 833 839 836
f 836 839 845 842
f 842 845 851 848
f 848 851 857 854
f 854 857 863 860
f 860 863 869 866
f 866 869 875 872
f 872 875 881 878
f 878 881 887 884
f 884 887 893 890
f 890 893 899 896
f 896 899 905 902
f 902 905 911 908
f 908 911 917 914
f 914 917 923 920
f 920 923 929 926
f 926 929 935 932
f 932 935 941 938
f 938 941 947 944
f 944 947 953 950
f 950 953 959 956
f 956 959 965 962
f 962 965 971 968
f 968 971 977 974
f 974 977 983 980
f 980 983 989 986
f 986 989 995 992
f 992 995 1001 998
f 998 1001 1007 1004
f 1004 1007 1013 1010
f 1010 1013 1019 1016
f 1016 1019 1025 1022
f 1022 1025 1031 1028
f 752 755 761 758
f 754 748 1030 1024 1018 1012 1006 1000 994 988 982 976 970 964 958 952 946 940 934 928 922 916 910 904 898 892 886 880 874 868 862 856 850 844 838 832 826 820 814 808 802 796 790 784 778 772 766 760
f 746 749 755 752
f 746 752 753 747
f 747 753 751 745
f 755 749 750 756
f 756 750 748 754
f 752 758 759 753
f 753 759 757 751
f 761 755 756 762
f 762 756 754 760
f 758 764 765 759
f 759 765 763 757
f 767 761 762 768
f 768 762 760 766
f 764 770 771 765
f 765 771 769 763
f 773 767 768 774
f 774 768 766 772
f 770 776 777 771
f 771 777 775 769
f 779 773 774 780
f 780 774 772 778
f 776 782 783 777
f 777 783 781 775
f 785 779 780 786
f 786 780 778 784
f 782 788 789 783
f 783 789 787 781
f 791 785 786 792
f 792 786 784 790
f 788 794 795 789
f 789 795 793 787
f 797 791 792 798
f 798 792 790 796
f 794 800 801 795
f 795 801 799 793
f 803 797 798 804
f 804 798 796 802
f 800 806 807 801
f 801 807 805 799
f 809 803 804 810
f 810 804 802 808
f 806 812 813 807
f 807 813 811 805
f 815 809 810 816
f 816 810 808 814
f 812 818 819 813
f 813 819 817 811
f 821 815 816 822
f 822 816 814 820
f 818 824 825 819
f 819 825 823 817
f 827 821 822 828
f 828 822 820 826
f 824 830 831 825
f 825 831 829 823
f 833 827 828 834
f 834 828 826 832
f 830 836 837 831
f 831 837 835 829
f 839 833 834 840
f 840 834 832 838
f 836 842 843 837
f 837 843 841 835
f 845 839 840 846
f 846 840 838 844
f 842 848 849 843
f 843 849 847 841
f 851 845 846 852
f 852 846 844 850
f 848 854 855 849
f 849 855 853 847
f 857 851 852 858
f 858 852 850 856
f 854 860 861 855
f 855 861 859 853
f 863 857 858 864
f 864 858 856 862
f 860 866 867 861
f 861 867 865 859
f 869 863 864 870
f 870 864 862 868
f 866 872 873 867
f 867 873 871 865
f 875 869 870 876
f 876 870 868 874
f 872 878 879 873
f 873 879 877 871
f 881 875 876 882
f 882 876 874 880
f 878 884 885 879
f 879 885 883 877
f 887 881 882 888
f 888 882 880 886
f 884 890 891 885
f 885 891 889 883
f 893 887 888 894
f 894 888 886 892
f 890 896 897 891
f 891 897 895 889
f 899 893 894 900
f 900 894 892 898
f 896 902 903 897
f 897 903 901 895
f 905 899 900 906
f 906 900 898 904
f 902 908 909 903
f 903 909 907 901
f 911 905 906 912
f 912 906 904 910
f 908 914 915 909
f 909 915 913 907
f 917 911 912 918
f 918 912 910 916
f 914 920 921 915
f 915 921 919 913
f 923 917 918 924
f 924 918 916 922
f 920 926 927 921
f 921 927 925 919
f 929 923 924 930
f 930 924 922 928
f 926 932 933 927
f 927 933 931 925
f 935 929 930 936
f 936 930 928 934
f 932 938 939 933
f 933 939 937 931
f 941 935 936 942
f 942 936 934 940
f 938 944 945 939
f 939 945 943 937
f 947 941 942 948
f 948 942 940 946
f 944 950 951 945
f 945 951 949 943
f 953 947 948 954
f 954 948 946 952
f 950 956 957 951
f 951 957 955 949
f 959 953 954 960
f 960 954 952 958
f 956 962 963 957
f 957 963 961 955
f 965 959 960 966
f 966 960 958 964
f 962 968 969 963
f 963 969 967 961
f 971 965 966 972
f 972 966 964 970
f 968 974 975 969
f 969 975 973 967
f 977 971 972 978
f 978 972 970 976
f 974 980 981 975
f 975 981 979 973
f 983 977 978 984
f 984 978 976 982
f 980 986 987 981
f 981 987 985 979
f 989 983 984 990
f 990 984 982 988
f 986 992 993 987
f 987 993 991 985
f 995 989 990 996
f 996 990 988 994
f 992 998 999 993
f 993 999 997 991
f 1001 995 996 1002
f 1002 996 994 1000
f 998 1004 1005 999
f 999 1005 1003 997
f 1007 1001 1002 1008
f 1008 1002 1000 1006
f 1004 1010 1011 1005
f 1005 1011 1009 1003
f 1013 1007 1008 1014
f 1014 1008 1006 1012
f 1010 1016 1017 1011
f 1011 1017 1015 1009
f 1019 1013 1014 1020
f 1020 1014 1012 1018
f 1016 1022 1023 1017
f 1017 1023 1021 1015
f 1025 1019 1020 1026
f 1026 1020 1018 1024
f 1022 1028 1029 1023
f 1023 1029 1027 1021
f 1031 1025 1026 1032
f 1032 1026 1024 1030
f 1028 746 747 1029
f 1029 747 745 1027
f 749 1031 1032 750
f 750 1032 1030 748
f 745 751 757 763 769 775 781 787 793 799 805 811 817 823 829 835 841 847 853 859 865 871 877 883 889 895 901 907 913 919 925 931 937 943 949 955 961 967 973 979 985 991 997 1003 1009 1015 1021 1027
o Deck_bolt_0
usemtl bolt
v -0.0600000024 -0.0488313884 -0.253119946
v -0.0606235266 -0.048360005 -0.252399921
v -0.0593764782 -0.048360005 -0.252399921
v -0.0604408979 -0.0485211462 -0.252909064
v -0.0600000024 -0.0483278483 -0.252815604
v -0.0600000024 -0.0481878221 -0.252399921
v -0.0595591068 -0.0485211462 -0.252909064
v -0.0600000024 -0.0488313884 -0.244119883
v -0.0593764782 -0.048360005 -0.244839907
v -0.0606235266 -0.048360005 -0.244839907
v -0.0595591068 -0.0485211462 -0.244330764
v -0.0600000024 -0.0483278483 -0.244424224
v -0.0600000024 -0.0481878221 -0.244839907
v -0.0604408979 -0.0485211462 -0.244330764
v -0.0546578169 -0.0519157052 -0.253119946
v -0.0545613766 -0.0511400104 -0.252399921
v -0.0539378524 -0.0522200018 -0.252399921
v -0.0546095967 -0.0513787419 -0.252909064
v -0.0542217493 -0.0516639352 -0.252815604
v -0.0541004539 -0.0515939146 -0.252399921
v -0.0541687012 -0.0521424115 -0.252909064
v -0.0546578169 -0.0519157052 -0.244119883
v -0.0539378524 -0.0522200018 -0.244839907
v -0.0545613766 -0.0511400104 -0.244839907
v -0.0541687012 -0.0521424115 -0.244330764
v -0.0542217493 -0.0516639352 -0.244424224
v -0.0541004539 -0.0515939146 -0.244839907
v -0.0546095967 -0.0513787419 -0.244330764
v -0.0546578169 -0.0580843091 -0.253119946
v -0.0539378524 -0.0577800125 -0.252399921
v -0.0545613766 -0.0588600039 -0.252399921
v -0.0541687012 -0.0578576028 -0.252909064
v -0.0542217493 -0.0583360791 -0.252815604
v -0.0541004539 -0.0584060997 -0.252399921
v -0.0546095967 -0.0586212724 -0.252909064
v -0.0546578169 -0.0580843091 -0.244119883
v -0.0545613766 -0.0588600039 -0.244839907
v -0.0539378524 -0.0577800125 -0.244839907
v -0.0546095967 -0.0586212724 -0.244330764
v -0.0542217493 -0.0583360791 -0.244424224
v -0.0541004539 -0.0584060997 -0.244839907
v -0.0541687012 -0.0578576028 -0.244330764
v -0.0600000024 -0.061168626 -0.253119946
v -0.0593764782 -0.0616400093 -0.252399921
v -0.0606235266 -0.0616400093 -0.252399921
v -0.0595591068 -0.0614788681 -0.252909064
v -0.0600000024 -0.061672166 -0.252815604
v -0.0600000024 -0.0618121922 -0.252399921
v -0.0604408979 -0.0614788681 -0.252909064
v -0.0600000024 -0.061168626 -0.244119883
v -0.0606235266 -0.0616400093 -0.244839907
v -0.0593764782 -0.0616400093 -0.244839907
v -0.0604408979 -0.0614788681 -0.244330764
v -0.0600000024 -0.061672166 -0.244424224
v -0.0600000024 -0.0618121922 -0.244839907
v -0.0595591068 -0.0614788681 -0.244330764
v -0.0653421879 -0.0580843091 -0.253119946
v -0.0654386282 -0.0588600039 -0.252399921
v -0.0660621524 -0.0577800125 -0.252399921
v -0.065390408 -0.0586212724 -0.252909064
v -0.0657782555 -0.0583360791 -0.252815604
v -0.0658995509 -0.0584060997 -0.252399921
v -0.0658313036 -0.0578576028 -0.252909064
v -0.0653421879 -0.0580843091 -0.244119883
v -0.0660621524 -0.0577800125 -0.244839907
v -0.0654386282 -0.0588600039 -0.244839907
v -0.0658313036 -0.0578576028 -0.244330764
v -0.0657782555 -0.0583360791 -0.244424224
v -0.0658995509 -0.0584060997 -0.244839907
v -0.065390408 -0.0586212724 -0.244330764
v -0.0653421879 -0.0519157052 -0.253119946
v -0.0660621524 -0.0522200018 -0.252399921
v -0.0654386282 -0.0511400104 -0.252399921
v -0.0658313036 -0.0521424115 -0.252909064
v -0.0657782555 -0.0516639352 -0.252815604
v -0.0658995509 -0.0515939146 -0.252399921
v -0.065390408 -0.0513787419 -0.252909064
v -0.0653421879 -0.0519157052 -0.244119883
v -0.0654386282 -0.0511400104 -0.244839907
v -0.0660621524 -0.0522200018 -0.244839907
v -0.065390408 -0.0513787419 -0.244330764
v -0.0657782555 -0.0516639352 -0.244424224
v -0.0658995509 -0.0515939146 -0.244839907
v -0.0658313036 -0.0521424115 -0.244330764
f 1105 1111 1042 1034
f 1063 1069 1084 1076
f 1077 1083 1098 1090
f 1091 1097 1112 1104
f 1049 1055 1070 1062
f 1054 1040 1110 1096 1082 1068
f 1035 1041 1056 1048
f 1033 1036 1037 1039
f 1034 1038 1037 1036
f 1035 1039 1037 1038
f 1040 1043 1044 1046
f 1041 1045 1044 1043
f 1042 1046 1044 1045
f 1047 1050 1051 1053
f 1048 1052 1051 1050
f 1049 1053 1051 1052
f 1054 1057 1058 1060
f 1055 1059 1058 1057
f 1056 1060 1058 1059
f 1061 1064 1065 1067
f 1062 1066 1065 1064
f 1063 1067 1065 1066
f 1068 1071 1072 1074
f 1069 1073 1072 1071
f 1070 1074 1072 1073
f 1075 1078 1079 1081
f 1076 1080 1079 1078
f 1077 1081 1079 1080
f 1082 1085 1086 1088
f 1083 1087 1086 1085
f 1084 1088 1086 1087
f 1089 1092 1093 1095
f 1090 1094 1093 1092
f 1091 1095 1093 1094
f 1096 1099 1100 1102
f 1097 1101 1100 1099
f 1098 1102 1100 1101
f 1103 1106 1107 1109
f 1104 1108 1107 1106
f 1105 1109 1107 1108
f 1110 1113 1114 1116
f 1111 1115 1114 1113
f 1112 1116 1114 1115
f 1035 1048 1050 1039
f 1039 1050 1047 1033
f 1056 1041 1043 1060
f 1060 1043 1040 1054
f 1034 1042 1045 1038
f 1038 1045 1041 1035
f 1055 1049 1052 1059
f 1059 1052 1048 1056
f 1049 1062 1064 1053
f 1053 1064 1061 1047
f 1070 1055 1057 1074
f 1074 1057 1054 1068
f 1069 1063 1066 1073
f 1073 1066 1062 1070
f 1063 1076 1078 1067
f 1067 1078 1075 1061
f 1084 1069 1071 1088
f 1088 1071 1068 1082
f 1083 1077 1080 1087
f 1087 1080 1076 1084
f 1077 1090 1092 1081
f 1081 1092 1089 1075
f 1098 1083 1085 1102
f 1102 1085 1082 1096
f 1097 1091 1094 1101
f 1101 1094 1090 1098
f 1091 1104 1106 1095
f 1095 1106 1103 1089
f 1112 1097 1099 1116
f 1116 1099 1096 1110
f 1111 1105 1108 1115
f 1115 1108 1104 1112
f 1105 1034 1036 1109
f 1109 1036 1033 1103
f 1042 1111 1113 1046
f 1046 1113 1110 1040
f 1033 1047 1061 1075 1089 1103
o Deck_bolt_1
usemtl bolt
v -0.0600000024 0.061168611 -0.253119946
v -0.0606235266 0.0616399944 -0.252399921
v -0.0593764782 0.0616399944 -0.252399921
v -0.0604408979 0.061478883 -0.252909064
v -0.0600000024 0.0616721511 -0.252815604
v -0.0600000024 0.0618121922 -0.252399921
v -0.0595591068 0.061478883 -0.252909064
v -0.0600000024 0.061168611 -0.244119883
v -0.0593764782 0.0616399944 -0.244839907
v -0.0606235266 0.0616399944 -0.244839907
v -0.0595591068 0.061478883 -0.244330764
v -0.0600000024 0.0616721511 -0.244424224
v -0.0600000024 0.0618121922 -0.244839907
v -0.0604408979 0.061478883 -0.244330764
v -0.0546578169 0.0580843091 -0.253119946
v -0.0545613766 0.0588600039 -0.252399921
v -0.0539378524 0.0577799976 -0.252399921
v -0.0546095967 0.0586212873 -0.252909064
v -0.0542217493 0.0583360791 -0.252815604
v -0.0541004539 0.0584061146 -0.252399921
v -0.0541687012 0.0578576028 -0.252909064
v -0.0546578169 0.0580843091 -0.244119883
v -0.0539378524 0.0577799976 -0.244839907
v -0.0545613766 0.0588600039 -0.244839907
v -0.0541687012 0.0578576028 -0.244330764
v -0.0542217493 0.0583360791 -0.244424224
v -0.0541004539 0.0584061146 -0.244839907
v -0.0546095967 0.0586212873 -0.244330764
v -0.0546578169 0.0519157052 -0.253119946
v -0.0539378524 0.0522200167 -0.252399921
v -0.0545613766 0.0511400104 -0.252399921
v -0.0541687012 0.0521424115 -0.252909064
v -0.0542217493 0.0516639352 -0.252815604
v -0.0541004539 0.0515938997 -0.252399921
v -0.0546095967 0.051378727 -0.252909064
v -0.0546578169 0.0519157052 -0.244119883
v -0.0545613766 0.0511400104 -0.244839907
v -0.0539378524 0.0522200167 -0.244839907
v -0.0546095967 0.051378727 -0.244330764
v -0.0542217493 0.0516639352 -0.244424224
v -0.0541004539 0.0515938997 -0.244839907
v -0.0541687012 0.0521424115 -0.244330764
v -0.0600000024 0.0488314033 -0.253119946
v -0.0593764782 0.0483600199 -0.252399921
v -0.0606235266 0.0483600199 -0.252399921
v -0.0595591068 0.0485211313 -0.252909064
v -0.0600000024 0.0483278632 -0.252815604
v -0.0600000024 0.0481878221 -0.252399921
v -0.0604408979 0.0485211313 -0.252909064
v -0.0600000024 0.0488314033 -0.244119883
v -0.0606235266 0.0483600199 -0.244839907
v -0.0593764782 0.0483600199 -0.244839907
v -0.0604408979 0.0485211313 -0.244330764
v -0.0600000024 0.0483278632 -0.244424224
v -0.0600000024 0.0481878221 -0.244839907
v -0.0595591068 0.0485211313 -0.244330764
v -0.0653421879 0.0519157052 -0.253119946
v -0.0654386282 0.0511400104 -0.252399921
v -0.0660621524 0.0522200167 -0.252399921
v -0.065390408 0.051378727 -0.252909064
v -0.0657782555 0.0516639352 -0.252815604
v -0.0658995509 0.0515938997 -0.252399921
v -0.0658313036 0.0521424115 -0.252909064
v -0.0653421879 0.0519157052 -0.244119883
v -0.0660621524 0.0522200167 -0.244839907
v -0.0654386282 0.0511400104 -0.244839907
v -0.0658313036 0.0521424115 -0.244330764
v -0.0657782555 0.0516639352 -0.244424224
v -0.0658995509 0.0515938997 -0.244839907
v -0.065390408 0.051378727 -0.244330764
v -0.0653421879 0.0580843091 -0.253119946
v -0.0660621524 0.0577799976 -0.252399921
v -0.0654386282 0.0588600039 -0.252399921
v -0.0658313036 0.0578576028 -0.252909064
v -0.0657782555 0.0583360791 -0.252815604
v -0.0658995509 0.0584061146 -0.252399921
v -0.065390408 0.0586212873 -0.252909064
v -0.0653421879 0.0580843091 -0.244119883
v -0.0654386282 0.0588600039 -0.244839907
v -0.0660621524 0.0577799976 -0.244839907
v -0.065390408 0.0586212873 -0.244330764
v -0.0657782555 0.0583360791 -0.244424224
v -0.0658995509 0.0584061146 -0.244839907
v -0.0658313036 0.0578576028 -0.244330764
f 1189 1195 1126 1118
f 1147 1153 1168 1160
f 1161 1167 1182 1174
f 1175 1181 1196 1188
f 1133 1139 1154 1146
f 1138 1124 1194 1180 1166 1152
f 1119 1125 1140 1132
f 1117 1120 1121 1123
f 1118 1122 1121 1120
f 1119 1123 1121 1122
f 1124 1127 1128 1130
f 1125 1129 1128 1127
f 1126 1130 1128 1129
f 1131 1134 1135 1137
f 1132 1136 1135 1134
f 1133 1137 1135 1136
f 1138 1141 1142 1144
f 1139 1143 1142 1141
f 1140 1144 1142 1143
f 1145 1148 1149 1151
f 1146 1150 1149 1148
f 1147 1151 1149 1150
f 1152 1155 1156 1158
f 1153 1157 1156 1155
f 1154 1158 1156 1157
f 1159 1162 1163 1165
f 1160 1164 1163 1162
f 1161 1165 1163 1164
f 1166 1169 1170 1172
f 1167 1171 1170 1169
f 1168 1172 1170 1171
f 1173 1176 1177 1179
f 1174 1178 1177 1176
f 1175 1179 1177 1178
f 1180 1183 1184 1186
f 1181 1185 1184 1183
f 1182 1186 1184 1185
f 1187 1190 1191 1193
f 1188 1192 1191 1190
f 1189 1193 1191 1192
f 1194 1197 1198 1200
f 1195 1199 1198 1197
f 1196 1200 1198 1199
f 1119 1132 1134 1123
f 1123 1134 1131 1117
f 1140 1125 1127 1144
f 1144 1127 1124 1138
f 1118 1126 1129 1122
f 1122 1129 1125 1119
f 1139 1133 1136 1143
f 1143 1136 1132 1140
f 1133 1146 1148 1137
f 1137 1148 1145 1131
f 1154 1139 1141 1158
f 1158 1141 1138 1152
f 1153 1147 1150 1157
f 1157 1150 1146 1154
f 1147 1160 1162 1151
f 1151 1162 1159 1145
f 1168 1153 1155 1172
f 1172 1155 1152 1166
f 1167 1161 1164 1171
f 1171 1164 1160 1168
f 1161 1174 1176 1165
f 1165 1176 1173 1159
f 1182 1167 1169 1186
f 1186 1169 1166 1180
f 1181 1175 1178 1185
f 1185 1178 1174 1182
f 1175 1188 1190 1179
f 1179 1190 1187 1173
f 1196 1181 1183 1200
f 1200 1183 1180 1194
f 1195 1189 1192 1199
f 1199 1192 1188 1196
f 1189 1118 1120 1193
f 1193 1120 1117 1187
f 1126 1195 1197 1130
f 1130 1197 1194 1124
f 1117 1131 1145 1159 1173 1187
o Deck_bolt_2
usemtl bolt
v 0.0600000024 -0.0488313884 -0.253119946
v 0.0593764782 -0.048360005 -0.252399921
v 0.0606235266 -0.048360005 -0.252399921
v 0.0595591068 -0.0485211462 -0.252909064
v 0.0600000024 -0.0483278483 -0.252815604
v 0.0600000024 -0.0481878221 -0.252399921
v 0.0604408979 -0.0485211462 -0.252909064
v 0.0600000024 -0.0488313884 -0.244119883
v 0.0606235266 -0.048360005 -0.244839907
v 0.0593764782 -0.048360005 -0.244839907
v 0.0604408979 -0.0485211462 -0.244330764
v 0.0600000024 -0.0483278483 -0.244424224
v 0.0600000024 -0.0481878221 -0.244839907
v 0.0595591068 -0.0485211462 -0.244330764
v 0.0653421879 -0.0519157052 -0.253119946
v 0.0654386282 -0.0511400104 -0.252399921
v 0.0660621524 -0.0522200018 -0.252399921
v 0.065390408 -0.0513787419 -0.252909064
v 0.0657782555 -0.0516639352 -0.252815604
v 0.0658995509 -0.0515939146 -0.252399921
v 0.0658313036 -0.0521424115 -0.252909064
v 0.0653421879 -0.0519157052 -0.244119883
v 0.0660621524 -0.0522200018 -0.244839907
v 0.0654386282 -0.0511400104 -0.244839907
v 0.0658313036 -0.0521424115 -0.244330764
v 0.0657782555 -0.0516639352 -0.244424224
v 0.0658995509 -0.0515939146 -0.244839907
v 0.065390408 -0.0513787419 -0.244330764
v 0.0653421879 -0.0580843091 -0.253119946
v 0.0660621524 -0.0577800125 -0.252399921
v 0.0654386282 -0.0588600039 -0.252399921
v 0.0658313036 -0.0578576028 -0.252909064
v 0.0657782555 -0.0583360791 -0.252815604
v 0.0658995509 -0.0584060997 -0.252399921
v 0.065390408 -0.0586212724 -0.252909064
v 0.0653421879 -0.0580843091 -0.244119883
v 0.0654386282 -0.0588600039 -0.244839907
v 0.0660621524 -0.0577800125 -0.244839907
v 0.065390408 -0.0586212724 -0.244330764
v 0.0657782555 -0.0583360791 -0.244424224
v 0.0658995509 -0.0584060997 -0.244839907
v 0.0658313036 -0.0578576028 -0.244330764
v 0.0600000024 -0.061168626 -0.253119946
v 0.0606235266 -0.0616400093 -0.252399921
v 0.0593764782 -0.0616400093 -0.252399921
v 0.0604408979 -0.0614788681 -0.252909064
v 0.0600000024 -0.061672166 -0.252815604
v 0.0600000024 -0.0618121922 -0.252399921
v 0.0595591068 -0.0614788681 -0.252909064
v 0.0600000024 -0.061168626 -0.244119883
v 0.0593764782 -0.0616400093 -0.244839907
v 0.0606235266 -0.0616400093 -0.244839907
v 0.0595591068 -0.0614788681 -0.244330764
v 0.0600000024 -0.061672166 -0.244424224
v 0.0600000024 -0.0618121922 -0.244839907
v 0.0604408979 -0.0614788681 -0.244330764
v 0.0546578169 -0.0580843091 -0.253119946
v 0.0545613766 -0.0588600039 -0.252399921
v 0.0539378524 -0.0577800125 -0.252399921
v 0.0546095967 -0.0586212724 -0.252909064
v 0.0542217493 -0.0583360791 -0.252815604
v 0.0541004539 -0.0584060997 -0.252399921
v 0.0541687012 -0.0578576028 -0.252909064
v 0.0546578169 -0.0580843091 -0.244119883
v 0.0539378524 -0.0577800125 -0.244839907
v 0.0545613766 -0.0588600039 -0.244839907
v 0.0541687012 -0.0578576028 -0.244330764
v 0.0542217493 -0.0583360791 -0.244424224
v 0.0541004539 -0.0584060997 -0.244839907
v 0.0546095967 -0.0586212724 -0.244330764
v 0.0546578169 -0.0519157052 -0.253119946
v 0.0539378524 -0.0522200018 -0.252399921
v 0.0545613766 -0.0511400104 -0.252399921
v 0.0541687012 -0.0521424115 -0.252909064
v 0.0542217493 -0.0516639352 -0.252815604
v 0.0541004539 -0.0515939146 -0.252399921
v 0.0546095967 -0.0513787419 -0.252909064
v 0.0546578169 -0.0519157052 -0.244119883
v 0.0545613766 -0.0511400104 -0.244839907
v 0.0539378524 -0.0522200018 -0.244839907
v 0.0546095967 -0.0513787419 -0.244330764
v 0.0542217493 -0.0516639352 -0.244424224
v 0.0541004539 -0.0515939146 -0.244839907
v 0.0541687012 -0.0521424115 -0.244330764
f 1273 1279 1210 1202
f 1231 1237 1252 1244
f 1245 1251 1266 1258
f 1259 1265 1280 1272
f 1217 1223 1238 1230
f 1222 1208 1278 1264 1250 1236
f 1203 1209 1224 1216
f 1201 1204 1205 1207
f 1202 1206 1205 1204
f 1203 1207 1205 1206
f 1208 1211 1212 1214
f 1209 1213 1212 1211
f 1210 1214 1212 1213
f 1215 1218 1219 1221
f 1216 1220 1219 1218
f 1217 1221 1219 1220
f 1222 1225 1226 1228
f 1223 1227 1226 1225
f 1224 1228 1226 1227
f 1229 1232 1233 1235
f 1230 1234 1233 1232
f 1231 1235 1233 1234
f 1236 1239 1240 1242
f 1237 1241 1240 1239
f 1238 1242 1240 1241
f 1243 1246 1247 1249
f 1244 1248 1247 1246
f 1245 1249 1247 1248
f 1250 1253 1254 1256
f 1251 1255 1254 1253
f 1252 1256 1254 1255
f 1257 1260 1261 1263
f 1258 1262 1261 1260
f 1259 1263 1261 1262
f 1264 1267 1268 1270
f 1265 1269 1268 1267
f 1266 1270 1268 1269
f 1271 1274 1275 1277
f 1272 1276 1275 1274
f 1273 1277 1275 1276
f 1278 1281 1282 1284
f 1279 1283 1282 1281
f 1280 1284 1282 1283
f 1203 1216 1218 1207
f 1207 1218 1215 1201
f 1224 1209 1211 1228
f 1228 1211 1208 1222
f 1202 1210 1213 1206
f 1206 1213 1209 1203
f 1223 1217 1220 1227
f 1227 1220 1216 1224
f 1217 1230 1232 1221
f 1221 1232 1229 1215
f 1238 1223 1225 1242
f 1242 1225 1222 1236
f 1237 1231 1234 1241
f 1241 1234 1230 1238
f 1231 1244 1246 1235
f 1235 1246 1243 1229
f 1252 1237 1239 1256
f 1256 1239 1236 1250
f 1251 1245 1248 1255
f 1255 1248 1244 1252
f 1245 1258 1260 1249
f 1249 1260 1257 1243
f 1266 1251 1253 1270
f 1270 1253 1250 1264
f 1265 1259 1262 1269
f 1269 1262 1258 1266
f 1259 1272 1274 1263
f 1263 1274 1271 1257
f 1280 1265 1267 1284
f 1284 1267 1264 1278
f 1279 1273 1276 1283
f 1283 1276 1272 1280
f 1273 1202 1204 1277
f 1277 1204 1201 1271
f 1210 1279 1281 1214
f 1214 1281 1278 1208
f 1201 1215 1229 1243 1257 1271
o Deck_bolt_3
usemtl bolt
v 0.0600000024 0.061168611 -0.253119946
v 0.0593764782 0.0616399944 -0.252399921
v 0.0606235266 0.0616399944 -0.252399921
v 0.0595591068 0.061478883 -0.252909064
v 0.0600000024 0.0616721511 -0.252815604
v 0.0600000024 0.0618121922 -0.252399921
v 0.0604408979 0.061478883 -0.252909064
v 0.0600000024 0.061168611 -0.244119883
v 0.0606235266 0.0616399944 -0.244839907
v 0.0593764782 0.0616399944 -0.244839907
v 0.0604408979 0.061478883 -0.244330764
v 0.0600000024 0.0616721511 -0.244424224
v 0.0600000024 0.0618121922 -0.244839907
v 0.0595591068 0.061478883 -0.244330764
v 0.0653421879 0.0580843091 -0.253119946
v 0.0654386282 0.0588600039 -0.252399921
v 0.0660621524 0.0577799976 -0.252399921
v 0.065390408 0.0586212873 -0.252909064
v 0.0657782555 0.0583360791 -0.252815604
v 0.0658995509 0.0584061146 -0.252399921
v 0.0658313036 0.0578576028 -0.252909064
v 0.0653421879 0.0580843091 -0.244119883
v 0.0660621524 0.0577799976 -0.244839907
v 0.0654386282 0.0588600039 -0.244839907
v 0.0658313036 0.0578576028 -0.244330764
v 0.0657782555 0.0583360791 -0.244424224
v 0.0658995509 0.0584061146 -0.244839907
v 0.065390408 0.0586212873 -0.244330764
v 0.0653421879 0.0519157052 -0.253119946
v 0.0660621524 0.0522200167 -0.252399921
v 0.0654386282 0.0511400104 -0.252399921
v 0.0658313036 0.0521424115 -0.252909064
v 0.0657782555 0.0516639352 -0.252815604
v 0.0658995509 0.0515938997 -0.252399921
v 0.065390408 0.051378727 -0.252909064
v 0.0653421879 0.0519157052 -0.244119883
v 0.0654386282 0.0511400104 -0.244839907
v 0.0660621524 0.0522200167 -0.244839907
v 0.065390408 0.051378727 -0.244330764
v 0.0657782555 0.0516639352 -0.244424224
v 0.0658995509 0.0515938997 -0.244839907
v 0.0658313036 0.0521424115 -0.244330764
v 0.0600000024 0.0488314033 -0.253119946
v 0.0606235266 0.0483600199 -0.252399921
v 0.0593764782 0.0483600199 -0.252399921
v 0.0604408979 0.0485211313 -0.252909064
v 0.0600000024 0.0483278632 -0.252815604
v 0.0600000024 0.0481878221 -0.252399921
v 0.0595591068 0.0485211313 -0.252909064
v 0.0600000024 0.0488314033 -0.244119883
v 0.0593764782 0.0483600199 -0.244839907
v 0.0606235266 0.0483600199 -0.244839907
v 0.0595591068 0.0485211313 -0.244330764
v 0.0600000024 0.0483278632 -0.244424224
v 0.0600000024 0.0481878221 -0.244839907
v 0.0604408979 0.0485211313 -0.244330764
v 0.0546578169 0.0519157052 -0.253119946
v 0.0545613766 0.0511400104 -0.252399921
v 0.0539378524 0.0522200167 -0.252399921
v 0.0546095967 0.051378727 -0.252909064
v 0.0542217493 0.0516639352 -0.252815604
v 0.0541004539 0.0515938997 -0.252399921
v 0.0541687012 0.0521424115 -0.252909064
v 0.0546578169 0.0519157052 -0.244119883
v 0.0539378524 0.0522200167 -0.244839907
v 0.0545613766 0.0511400104 -0.244839907
v 0.0541687012 0.0521424115 -0.244330764
v 0.0542217493 0.0516639352 -0.244424224
v 0.0541004539 0.0515938997 -0.244839907
v 0.0546095967 0.051378727 -0.244330764
v 0.0546578169 0.0580843091 -0.253119946
v 0.0539378524 0.0577799976 -0.252399921
v 0.0545613766 0.0588600039 -0.252399921
v 0.0541687012 0.0578576028 -0.252909064
v 0.0542217493 0.0583360791 -0.252815604
v 0.0541004539 0.0584061146 -0.252399921
v 0.0546095967 0.0586212873 -0.252909064
v 0.0546578169 0.0580843091 -0.244119883
v 0.0545613766 0.0588600039 -0.244839907
v 0.0539378524 0.0577799976 -0.244839907
v 0.0546095967 0.0586212873 -0.244330764
v 0.0542217493 0.0583360791 -0.244424224
v 0.0541004539 0.0584061146 -0.244839907
v 0.0541687012 0.0578576028 -0.244330764
f 1357 1363 1294 1286
f 1315 1321 1336 1328
f 1329 1335 1350 1342
f 1343 1349 1364 1356
f 1301 1307 1322 1314
f 1306 1292 1362 1348 1334 1320
f 1287 1293 1308 1300
f 1285 1288 1289 1291
f 1286 1290 1289 1288
f 1287 1291 1289 1290
f 1292 1295 1296 1298
f 1293 1297 1296 1295
f 1294 1298 1296 1297
f 1299 1302 1303 1305
f 1300 1304 1303 1302
f 1301 1305 1303 1304
f 1306 1309 1310 1312
f 1307 1311 1310 1309
f 1308 1312 1310 1311
f 1313 1316 1317 1319
f 1314 1318 1317 1316
f 1315 1319 1317 1318
f 1320 1323 1324 1326
f 1321 1325 1324 1323
f 1322 1326 1324 1325
f 1327 1330 1331 1333
f 1328 1332 1331 1330
f 1329 1333 1331 1332
f 1334 1337 1338 1340
f 1335 1339 1338 1337
f 1336 1340 1338 1339
f 1341 1344 1345 1347
f 1342 1346 1345 1344
f 1343 1347 1345 1346
f 1348 1351 1352 1354
f 1349 1353 1352 1351
f 1350 1354 1352 1353
f 1355 1358 1359 1361
f 1356 1360 1359 1358
f 1357 1361 1359 1360
f 1362 1365 1366 1368
f 1363 1367 1366 1365
f 1364 1368 1366 1367
f 1287 1300 1302 1291
f 1291 1302 1299 1285
f 1308 1293 1295 1312
f 1312 1295 1292 1306
f 1286 1294 1297 1290
f 1290 1297 1293 1287
f 1307 1301 1304 1311
f 1311 1304 1300 1308
f 1301 1314 1316 1305
f 1305 1316 1313 1299
f 1322 1307 1309 1326
f 1326 1309 1306 1320
f 1321 1315 1318 1325
f 1325 1318 1314 1322
f 1315 1328 1330 1319
f 1319 1330 1327 1313
f 1336 1321 1323 1340
f 1340 1323 1320 1334
f 1335 1329 1332 1339
f 1339 1332 1328 1336
f 1329 1342 1344 1333
f 1333 1344 1341 1327
f 1350 1335 1337 1354
f 1354 1337 1334 1348
f 1349 1343 1346 1353
f 1353 1346 1342 1350
f 1343 1356 1358 1347
f 1347 1358 1355 1341
f 1364 1349 1351 1368
f 1368 1351 1348 1362
f 1363 1357 1360 1367
f 1367 1360 1356 1364
f 1357 1286 1288 1361
f 1361 1288 1285 1355
f 1294 1363 1365 1298
f 1298 1365 1362 1292
f 1285 1299 1313 1327 1341 1355
