# Blender 4.0.2
# www.blender.org
o rock_49
v 0.009584 -0.160479 -0.009131
v 0.200596 -0.081182 0.224371
v -0.081263 -0.152021 0.419806
v -0.281132 -0.061103 -0.015765
v -0.101621 -0.131378 -0.374696
v 0.165275 -0.035651 -0.206732
v 0.083358 0.097168 0.382167
v -0.257899 0.155698 0.242307
v -0.253671 0.073786 -0.229147
v 0.093901 0.101295 -0.370663
v 0.189505 0.032659 0.003220
v -0.007988 0.192032 0.000714
v -0.076557 -0.170600 0.394702
v -0.073487 -0.198932 0.352098
v -0.077716 -0.214056 0.296991
v -0.064861 -0.228608 0.225822
v -0.036080 -0.219365 0.149417
v -0.015408 -0.195348 0.091993
v -0.001105 -0.181393 0.039796
v 0.035703 -0.156475 0.021011
v 0.059222 -0.146325 0.053581
v 0.088549 -0.145301 0.088069
v 0.118170 -0.135567 0.124326
v 0.144988 -0.125535 0.157665
v 0.169676 -0.109804 0.186198
v 0.185912 -0.093967 0.208043
v 0.182595 -0.093825 0.261119
v 0.163435 -0.107801 0.301227
v 0.136994 -0.128019 0.347353
v 0.075010 -0.133757 0.385944
v 0.039726 -0.125914 0.403590
v -0.000939 -0.138446 0.414918
v -0.043543 -0.145340 0.415748
v 0.156769 -0.020242 -0.159526
v 0.154312 -0.009989 -0.110933
v 0.163698 -0.014113 -0.056436
v 0.182599 -0.034513 0.003406
v 0.195398 -0.049597 0.063361
v 0.202593 -0.063036 0.121692
v 0.203263 -0.072176 0.175771
v 0.036418 -0.135774 -0.034597
v 0.058245 -0.111415 -0.060978
v 0.080350 -0.096116 -0.088788
v 0.103977 -0.089586 -0.120935
v 0.128228 -0.075969 -0.151093
v 0.143741 -0.055930 -0.173505
v 0.155108 -0.045564 -0.191824
v -0.268923 -0.092510 -0.015249
v -0.239094 -0.129413 -0.017560
v -0.202581 -0.152744 -0.017050
v -0.167759 -0.166913 -0.017203
v -0.125026 -0.181306 -0.017725
v -0.069266 -0.188347 -0.014403
v -0.023467 -0.174644 -0.009617
v -0.125704 -0.167270 0.400296
v -0.177313 -0.187903 0.358158
v -0.225900 -0.187442 0.283656
v -0.252548 -0.170724 0.218457
v -0.276775 -0.142195 0.151801
v -0.282476 -0.113628 0.088337
v -0.281504 -0.086974 0.029980
v -0.092962 -0.141539 -0.345364
v -0.077206 -0.151322 -0.307381
v -0.061294 -0.153506 -0.268160
v -0.046759 -0.166559 -0.217427
v -0.027525 -0.159884 -0.156670
v -0.012645 -0.157373 -0.104484
v 0.000295 -0.159718 -0.052212
v -0.271369 -0.068788 -0.061706
v -0.236982 -0.090384 -0.118748
v -0.228249 -0.081406 -0.167290
v -0.221197 -0.078978 -0.204748
v -0.195811 -0.106097 -0.253070
v -0.164005 -0.125446 -0.303353
v -0.127685 -0.131443 -0.343504
v -0.058822 -0.138600 -0.383650
v -0.008083 -0.137042 -0.382524
v 0.037138 -0.126110 -0.371762
v 0.080690 -0.115003 -0.354236
v 0.119100 -0.093270 -0.321792
v 0.146380 -0.072845 -0.283616
v 0.158226 -0.050674 -0.242477
v 0.202596 0.026785 0.031780
v 0.216348 0.022713 0.063191
v 0.231205 0.015441 0.096587
v 0.240905 0.000797 0.129617
v 0.236569 -0.018472 0.159715
v 0.227248 -0.039337 0.185788
v 0.216776 -0.060713 0.207628
v 0.167807 -0.018255 -0.188539
v 0.164015 -0.006594 -0.165832
v 0.169265 -0.000775 -0.142432
v 0.170757 0.002505 -0.114505
v 0.170663 0.003675 -0.084444
v 0.177538 0.008638 -0.053896
v 0.181511 0.013945 -0.023887
v 0.069759 0.081666 0.414255
v 0.057801 0.054372 0.443486
v 0.042090 0.032364 0.465615
v 0.013984 0.001363 0.485293
v -0.017181 -0.045677 0.486784
v -0.041872 -0.085279 0.472660
v -0.063894 -0.124875 0.447850
v 0.206303 -0.073203 0.263702
v 0.204749 -0.053802 0.304321
v 0.199376 -0.029462 0.337627
v 0.188795 0.005806 0.370500
v 0.157988 0.037892 0.385204
v 0.133826 0.057781 0.392898
v 0.105806 0.081768 0.390602
v -0.302941 0.126375 0.216793
v -0.326988 0.082424 0.175675
v -0.336715 0.031538 0.142200
v -0.327351 -0.012137 0.106787
v -0.313376 -0.027910 0.071153
v -0.303007 -0.031336 0.040625
v -0.292413 -0.048596 0.009871
v -0.121085 -0.136427 0.436653
v -0.170381 -0.098951 0.451918
v -0.205947 -0.051611 0.450087
v -0.241072 -0.010524 0.436493
v -0.272552 0.046079 0.399386
v -0.281721 0.099971 0.344973
v -0.266111 0.136880 0.289301
v -0.251232 0.063903 -0.271134
v -0.240453 0.041405 -0.309743
v -0.233339 0.027084 -0.326021
v -0.231162 -0.009052 -0.354271
v -0.201498 -0.062436 -0.382688
v -0.162881 -0.093559 -0.390302
v -0.132436 -0.115185 -0.389268
v -0.280639 -0.039389 -0.038997
v -0.271093 -0.056841 -0.065006
v -0.270491 -0.060206 -0.099458
v -0.283779 -0.021740 -0.142447
v -0.273423 -0.019422 -0.174774
v -0.273085 0.007791 -0.197624
v -0.263890 0.052270 -0.209835
v 0.113021 0.076551 -0.379104
v 0.132537 0.054163 -0.378464
v 0.154396 0.023330 -0.369201
v 0.165564 -0.003799 -0.343014
v 0.167674 -0.025478 -0.309254
v 0.168976 -0.027758 -0.273102
v 0.166630 -0.030017 -0.238733
v -0.087287 -0.120416 -0.415547
v -0.059835 -0.100451 -0.457088
v -0.027223 -0.060297 -0.489581
v 0.006313 -0.010214 -0.501921
v 0.040881 0.042735 -0.483486
v 0.067013 0.069452 -0.449498
v 0.085063 0.087721 -0.412199
v 0.198449 0.040628 0.048001
v 0.208620 0.064146 0.100485
v 0.207945 0.084355 0.157419
v 0.195011 0.092249 0.215846
v 0.175536 0.100455 0.275154
v 0.141089 0.100914 0.322607
v 0.107734 0.099478 0.354782
v 0.053018 0.106670 0.391598
v 0.011322 0.118130 0.391220
v -0.030002 0.129338 0.389827
v -0.071451 0.138543 0.381634
v -0.126044 0.155714 0.365622
v -0.182760 0.163018 0.328206
v -0.230122 0.160028 0.283604
v -0.274858 0.141864 0.168125
v -0.272639 0.117029 0.106598
v -0.274920 0.113584 0.073320
v -0.288730 0.103372 -0.000595
v -0.282610 0.085796 -0.086678
v -0.269144 0.081796 -0.143840
v -0.259507 0.071936 -0.189972
v -0.219788 0.106777 -0.273907
v -0.188625 0.116788 -0.305600
v -0.148010 0.135985 -0.330079
v -0.098549 0.149212 -0.357609
v -0.035267 0.150184 -0.379737
v 0.014929 0.138036 -0.383558
v 0.061242 0.122833 -0.381893
v 0.110772 0.094574 -0.335057
v 0.128553 0.078030 -0.289994
v 0.141366 0.054412 -0.246503
v 0.159673 0.047269 -0.201434
v 0.172975 0.043407 -0.147379
v 0.172474 0.030749 -0.093205
v 0.177537 0.027821 -0.042198
v 0.005219 0.192856 0.046903
v 0.019868 0.193217 0.101286
v 0.031934 0.190479 0.163072
v 0.045916 0.178080 0.222372
v 0.059438 0.159652 0.279827
v 0.069760 0.132544 0.325565
v 0.079350 0.112987 0.356835
v 0.186429 0.048213 0.001865
v 0.174952 0.066465 0.000921
v 0.161278 0.095010 0.000205
v 0.135556 0.116100 -0.000612
v 0.107805 0.144155 -0.001161
v 0.075004 0.171406 -0.001929
v 0.033509 0.191842 -0.001225
v -0.030273 0.193214 0.027691
v -0.060465 0.200574 0.058698
v -0.092713 0.205836 0.095694
v -0.134471 0.204069 0.129634
v -0.180859 0.193814 0.159980
v -0.217083 0.177536 0.193064
v -0.237238 0.164943 0.218441
v -0.029752 0.195375 -0.028105
v -0.064628 0.203316 -0.069435
v -0.105327 0.183701 -0.110980
v -0.133244 0.173744 -0.138215
v -0.170631 0.165608 -0.173576
v -0.198088 0.141265 -0.202184
v -0.232332 0.114566 -0.219094
v 0.009353 0.194621 -0.053040
v 0.028960 0.176438 -0.109930
v 0.044412 0.161336 -0.165688
v 0.056854 0.136285 -0.217806
v 0.065183 0.124993 -0.258182
v 0.073811 0.120702 -0.297302
v 0.081506 0.112663 -0.332684
v 0.051047 0.178751 -0.058010
v 0.087370 0.156441 -0.057796
v 0.064808 0.154570 -0.114318
v 0.121137 0.131304 -0.056001
v 0.096536 0.128640 -0.114667
v 0.076533 0.133134 -0.169952
v 0.146913 0.098955 -0.053654
v 0.128977 0.107617 -0.112175
v 0.106433 0.109534 -0.170670
v 0.086891 0.110001 -0.219697
v 0.162847 0.067709 -0.050552
v 0.156358 0.084073 -0.107766
v 0.136300 0.086964 -0.166531
v 0.111525 0.084247 -0.217669
v 0.096035 0.099677 -0.258157
v 0.172060 0.042647 -0.046410
v 0.168289 0.053863 -0.101019
v 0.159193 0.063225 -0.157822
v 0.138452 0.067035 -0.212770
v 0.120052 0.076524 -0.254323
v 0.101990 0.098376 -0.295305
v -0.016869 0.196259 -0.091085
v -0.004703 0.185091 -0.151990
v -0.058841 0.190006 -0.133216
v 0.011274 0.167618 -0.212424
v -0.044054 0.175612 -0.193993
v -0.092530 0.180855 -0.167810
v 0.027908 0.147017 -0.257481
v -0.027010 0.163549 -0.248864
v -0.075874 0.170949 -0.231637
v -0.128643 0.171875 -0.206370
v 0.038389 0.138928 -0.298192
v -0.010157 0.159812 -0.293891
v -0.068428 0.159143 -0.278944
v -0.115460 0.159013 -0.261147
v -0.159843 0.149096 -0.232814
v 0.048414 0.133923 -0.339586
v 0.005165 0.149754 -0.340469
v -0.054294 0.159786 -0.326634
v -0.103234 0.152197 -0.302857
v -0.151293 0.146924 -0.283726
v -0.188366 0.137858 -0.253285
v -0.058618 0.198713 0.001698
v -0.101245 0.201749 -0.039227
v -0.092104 0.199724 0.031785
v -0.137801 0.183018 -0.086469
v -0.136121 0.202072 -0.004737
v -0.136646 0.203000 0.067737
v -0.168348 0.166542 -0.117356
v -0.179718 0.185482 -0.051242
v -0.188031 0.188568 0.037515
v -0.187732 0.183040 0.101088
v -0.209720 0.146383 -0.146028
v -0.211077 0.159239 -0.093080
v -0.226192 0.168216 0.000165
v -0.230170 0.153233 0.075156
v -0.222993 0.163463 0.121642
v -0.241612 0.111653 -0.174019
v -0.246430 0.121141 -0.121859
v -0.261668 0.142917 -0.047390
v -0.255699 0.134874 0.044151
v -0.249466 0.132761 0.095384
v -0.250416 0.154940 0.145266
v -0.021715 0.199812 0.080622
v -0.053503 0.202033 0.120716
v -0.009981 0.199034 0.144468
v -0.084076 0.204210 0.158845
v -0.039658 0.199239 0.187061
v 0.003659 0.185884 0.207323
v -0.124475 0.207227 0.199136
v -0.072904 0.199131 0.232258
v -0.027409 0.186978 0.256436
v 0.017141 0.175070 0.272301
v -0.171693 0.193067 0.239435
v -0.109733 0.191584 0.276638
v -0.057321 0.174357 0.302062
v -0.014206 0.157808 0.318948
v 0.028710 0.145938 0.325278
v -0.204838 0.172465 0.265349
v -0.150647 0.176995 0.307245
v -0.087901 0.165974 0.336328
v -0.041426 0.148526 0.351772
v -0.001067 0.134887 0.358194
v 0.040232 0.126869 0.362313
v 0.047745 0.186823 0.050793
v 0.060526 0.185028 0.107390
v 0.088617 0.166193 0.051217
v 0.076029 0.179740 0.171358
v 0.105536 0.169934 0.111371
v 0.123649 0.140469 0.052667
v 0.087643 0.162834 0.230290
v 0.119495 0.160894 0.173859
v 0.141371 0.139240 0.111842
v 0.153485 0.114102 0.053593
v 0.098975 0.143992 0.286881
v 0.130699 0.149059 0.233095
v 0.158305 0.136888 0.171662
v 0.171183 0.112627 0.110253
v 0.172363 0.082171 0.052195
v 0.103742 0.114471 0.326863
v 0.138871 0.124442 0.285469
v 0.171918 0.125903 0.228604
v 0.184778 0.105190 0.165275
v 0.191402 0.084505 0.105622
v 0.184934 0.055499 0.049820
v 0.174170 0.013831 -0.073846
v 0.175885 0.010932 -0.107335
v 0.176870 0.023437 -0.128743
v 0.174965 0.005235 -0.139637
v 0.177704 0.014548 -0.164199
v 0.171547 0.028598 -0.184856
v 0.174387 -0.000497 -0.170565
v 0.174126 0.006338 -0.197149
v 0.168067 0.019692 -0.219602
v 0.156513 0.036745 -0.236040
v 0.169941 -0.008688 -0.196629
v 0.175666 -0.002618 -0.227906
v 0.175707 0.013821 -0.255321
v 0.168380 0.036603 -0.277732
v 0.148381 0.058399 -0.287389
v 0.169461 -0.016239 -0.219929
v 0.171348 -0.015087 -0.251942
v 0.178446 -0.003098 -0.287826
v 0.171535 0.020546 -0.316542
v 0.154650 0.047597 -0.331836
v 0.135095 0.071904 -0.339257
v 0.041297 0.111090 -0.429909
v 0.014949 0.086128 -0.467159
v -0.013035 0.126689 -0.428564
v -0.020927 0.046228 -0.500202
v -0.051747 0.100211 -0.468405
v -0.079050 0.134028 -0.413735
v -0.060255 -0.012425 -0.505280
v -0.096566 0.049843 -0.489483
v -0.124812 0.102251 -0.437427
v -0.142251 0.121966 -0.377952
v -0.095647 -0.070345 -0.476047
v -0.137335 -0.015102 -0.479442
v -0.170194 0.049477 -0.445782
v -0.178990 0.093560 -0.382417
v -0.187518 0.100397 -0.340529
v -0.118376 -0.100334 -0.424909
v -0.155672 -0.072698 -0.431026
v -0.194938 -0.019496 -0.421352
v -0.217796 0.041311 -0.379773
v -0.217661 0.064694 -0.335654
v -0.218816 0.082697 -0.312487
v -0.273940 0.047293 -0.173030
v -0.284734 0.007909 -0.142676
v -0.287588 0.042678 -0.115462
v -0.286601 0.009671 -0.108045
v -0.292966 0.008957 -0.083492
v -0.300195 0.049731 -0.048226
v -0.287400 -0.029573 -0.075712
v -0.296105 -0.018384 -0.043988
v -0.305626 0.010529 -0.005756
v -0.306312 0.064816 0.037959
v -0.276851 -0.054110 -0.037928
v -0.287878 -0.037976 -0.004973
v -0.299817 -0.013578 0.028833
v -0.305341 0.034301 0.060492
v -0.294073 0.081589 0.089490
v -0.284797 -0.037507 -0.012794
v -0.293841 -0.025857 0.017308
v -0.302285 -0.013337 0.046238
v -0.316600 0.019091 0.075753
v -0.311008 0.071315 0.108614
v -0.296029 0.105673 0.134662
v -0.229011 0.145049 0.339076
v -0.220638 0.107119 0.402402
v -0.168073 0.137907 0.384649
v -0.198209 0.050239 0.449786
v -0.151486 0.098681 0.435259
v -0.106730 0.125829 0.409276
v -0.170570 0.004649 0.468075
v -0.136241 0.049573 0.465139
v -0.095743 0.093022 0.445992
v -0.059397 0.113659 0.418038
v -0.145801 -0.039800 0.479431
v -0.115870 0.007092 0.484566
v -0.079181 0.051962 0.480104
v -0.040408 0.087532 0.450799
v -0.012802 0.105220 0.423624
v -0.102918 -0.094645 0.471687
v -0.078818 -0.044916 0.491914
v -0.047898 0.000490 0.494720
v -0.014202 0.044946 0.480372
v 0.014229 0.072032 0.454714
v 0.035888 0.092886 0.424342
v 0.139448 0.080671 0.360228
v 0.165498 0.055910 0.351878
v 0.171894 0.075450 0.317034
v 0.190946 0.034699 0.337717
v 0.192598 0.052877 0.302947
v 0.196773 0.074352 0.262068
v 0.207740 0.003232 0.315892
v 0.214882 0.029086 0.285570
v 0.220996 0.052464 0.245917
v 0.213942 0.067866 0.200571
v 0.224014 -0.029378 0.288139
v 0.237732 0.001626 0.259701
v 0.235329 0.025277 0.220564
v 0.229722 0.043091 0.180075
v 0.226960 0.061541 0.140388
v 0.222886 -0.050644 0.246064
v 0.238514 -0.026306 0.222801
v 0.243005 -0.000264 0.191865
v 0.242840 0.020798 0.156497
v 0.236182 0.037614 0.119828
v 0.218899 0.042943 0.083398
v 0.104124 0.061209 -0.415420
v 0.125933 0.030593 -0.411241
v 0.089643 0.039315 -0.449038
v 0.142575 0.000091 -0.391106
v 0.112799 0.005926 -0.439186
v 0.064763 0.000119 -0.480845
v 0.156112 -0.029022 -0.360009
v 0.133322 -0.032355 -0.412339
v 0.087965 -0.043719 -0.459862
v 0.027737 -0.053558 -0.482699
v 0.153911 -0.041636 -0.316966
v 0.137538 -0.060521 -0.365307
v 0.102319 -0.081408 -0.410623
v 0.050087 -0.093432 -0.444833
v -0.004616 -0.096130 -0.460071
v 0.160549 -0.046606 -0.282285
v 0.143877 -0.065210 -0.325993
v 0.111192 -0.089177 -0.363420
v 0.065882 -0.108783 -0.391117
v 0.019344 -0.121884 -0.412466
v -0.033195 -0.125415 -0.422063
v -0.267607 0.016513 -0.241201
v -0.256900 -0.007144 -0.281474
v -0.257427 -0.031533 -0.215861
v -0.243099 -0.010966 -0.307945
v -0.240559 -0.059288 -0.230794
v -0.226404 -0.075837 -0.190524
v -0.232536 -0.039777 -0.330709
v -0.250980 -0.033771 -0.261777
v -0.223836 -0.067031 -0.197879
v -0.216524 -0.086931 -0.162997
v -0.200545 -0.083633 -0.344237
v -0.233526 -0.073310 -0.288873
v -0.239346 -0.052032 -0.214449
v -0.225536 -0.060777 -0.184612
v -0.258899 -0.063060 -0.134824
v -0.167532 -0.112872 -0.352671
v -0.192429 -0.107294 -0.297697
v -0.221001 -0.084305 -0.234292
v -0.238783 -0.046258 -0.192883
v -0.247649 -0.059562 -0.161937
v -0.269645 -0.059299 -0.094473
v -0.313778 0.100676 0.279249
v -0.349970 0.037731 0.239958
v -0.317190 0.038978 0.328820
v -0.345355 -0.021026 0.186567
v -0.336370 -0.018528 0.290335
v -0.301407 -0.013958 0.369158
v -0.326706 -0.055031 0.139469
v -0.334936 -0.068790 0.230427
v -0.316278 -0.064593 0.322290
v -0.263838 -0.063395 0.401272
v -0.310014 -0.065708 0.102480
v -0.312978 -0.097528 0.171731
v -0.304386 -0.116217 0.257147
v -0.281896 -0.117430 0.349690
v -0.221213 -0.106248 0.414121
v -0.300505 -0.075505 0.065263
v -0.299599 -0.100900 0.127903
v -0.290742 -0.132235 0.201120
v -0.269932 -0.152272 0.273854
v -0.230409 -0.157906 0.360402
v -0.174166 -0.144577 0.411151
v 0.090814 0.057484 0.426220
v 0.072742 0.028052 0.446118
v 0.116342 0.031858 0.425347
v 0.061834 0.002271 0.460910
v 0.091348 0.001924 0.444878
v 0.142113 0.006151 0.415833
v 0.038417 -0.038683 0.473232
v 0.074947 -0.033800 0.449002
v 0.113865 -0.032237 0.432510
v 0.172695 -0.033119 0.392163
v 0.007300 -0.081244 0.463134
v 0.056128 -0.072176 0.446547
v 0.084662 -0.064270 0.429128
v 0.146232 -0.072115 0.402612
v 0.181678 -0.061760 0.347621
v -0.020262 -0.117895 0.446189
v 0.029281 -0.107352 0.433664
v 0.062254 -0.095384 0.420283
v 0.111934 -0.104042 0.401863
v 0.160976 -0.092216 0.349062
v 0.187416 -0.085924 0.308366
v 0.193023 0.011683 0.004641
v 0.209284 0.009683 0.036049
v 0.182349 0.007052 -0.026486
v 0.222015 0.001572 0.068340
v 0.192486 0.002881 0.004424
v 0.171220 0.000784 -0.058157
v 0.230890 -0.013835 0.100507
v 0.206023 -0.006479 0.037100
v 0.179820 -0.000262 -0.027766
v 0.171014 -0.000019 -0.088900
v 0.228158 -0.033388 0.129798
v 0.214877 -0.022947 0.068530
v 0.188440 -0.009153 0.003901
v 0.172253 -0.000237 -0.059252
v 0.167683 -0.000934 -0.116607
v 0.216211 -0.052501 0.154998
v 0.212584 -0.043048 0.096827
v 0.194862 -0.028047 0.034948
v 0.176397 -0.013699 -0.027389
v 0.165735 -0.004713 -0.087426
v 0.160034 -0.007815 -0.140059
v 0.147179 -0.066705 -0.228862
v 0.130253 -0.089664 -0.209285
v 0.127606 -0.096683 -0.269144
v 0.102529 -0.101721 -0.180509
v 0.097816 -0.117062 -0.243398
v 0.090471 -0.119263 -0.303213
v 0.077382 -0.116752 -0.148369
v 0.067107 -0.129221 -0.211258
v 0.053574 -0.133659 -0.271055
v 0.045624 -0.134588 -0.326497
v 0.052413 -0.127504 -0.113405
v 0.039182 -0.137677 -0.175403
v 0.026149 -0.140170 -0.236761
v 0.013371 -0.143936 -0.289037
v 0.002851 -0.145854 -0.342429
v 0.027691 -0.143271 -0.081991
v 0.011990 -0.147226 -0.138356
v 0.002469 -0.154424 -0.198175
v -0.014256 -0.153032 -0.258132
v -0.031139 -0.151577 -0.301247
v -0.046667 -0.147787 -0.347075
v -0.123603 -0.138653 -0.312670
v -0.112587 -0.149846 -0.273980
v -0.161700 -0.129233 -0.267445
v -0.103333 -0.158187 -0.226803
v -0.154051 -0.136545 -0.223542
v -0.193182 -0.110047 -0.216419
v -0.080806 -0.165437 -0.168880
v -0.138708 -0.147480 -0.175104
v -0.179879 -0.121701 -0.172953
v -0.208668 -0.100341 -0.168783
v -0.056902 -0.172243 -0.112581
v -0.116888 -0.166157 -0.118521
v -0.167009 -0.141718 -0.123232
v -0.201275 -0.114746 -0.125007
v -0.218554 -0.100176 -0.123063
v -0.041431 -0.172076 -0.058437
v -0.093469 -0.172834 -0.062944
v -0.141432 -0.161465 -0.066394
v -0.181662 -0.146577 -0.071305
v -0.216269 -0.126021 -0.075364
v -0.244664 -0.102850 -0.072637
v -0.266421 -0.117517 0.036741
v -0.230570 -0.152476 0.039183
v -0.257244 -0.147569 0.096701
v -0.195614 -0.171415 0.039340
v -0.222193 -0.174607 0.103755
v -0.235701 -0.175923 0.164858
v -0.154779 -0.192356 0.039828
v -0.180734 -0.201422 0.109246
v -0.196691 -0.196574 0.176667
v -0.204332 -0.194151 0.226596
v -0.094392 -0.208808 0.042284
v -0.120231 -0.218745 0.108090
v -0.151127 -0.212358 0.178471
v -0.164995 -0.207580 0.236219
v -0.167703 -0.208057 0.291050
v -0.037824 -0.197237 0.042296
v -0.055810 -0.213069 0.100618
v -0.090755 -0.230210 0.168472
v -0.116932 -0.222158 0.240466
v -0.121147 -0.212401 0.297806
v -0.121450 -0.195328 0.356420
v 0.148073 -0.025636 -0.142297
v 0.149047 -0.020620 -0.089381
v 0.138560 -0.038625 -0.120946
v 0.160480 -0.031653 -0.029191
v 0.139244 -0.036642 -0.062982
v 0.124907 -0.061338 -0.094151
v 0.175512 -0.053423 0.033692
v 0.151593 -0.057072 0.000659
v 0.124203 -0.058378 -0.033365
v 0.100724 -0.070711 -0.063449
v 0.183986 -0.071405 0.095938
v 0.162211 -0.081311 0.065789
v 0.130152 -0.075091 0.031282
v 0.106825 -0.086975 -0.002805
v 0.081114 -0.097328 -0.035474
v 0.188297 -0.086090 0.155245
v 0.167521 -0.099108 0.128651
v 0.140074 -0.107201 0.096157
v 0.112200 -0.108138 0.060704
v 0.084643 -0.118103 0.026433
v 0.059053 -0.126267 -0.007024
v -0.037773 -0.163972 0.390867
v -0.030379 -0.188695 0.349484
v 0.007994 -0.162176 0.383433
v -0.023128 -0.224150 0.291524
v 0.024478 -0.186249 0.334091
v 0.050095 -0.156873 0.360503
v -0.009116 -0.229634 0.205379
v 0.042557 -0.207782 0.265424
v 0.069283 -0.176866 0.300975
v 0.099803 -0.157909 0.327816
v 0.009595 -0.203051 0.126413
v 0.051165 -0.211969 0.180080
v 0.088500 -0.185605 0.228990
v 0.115532 -0.163848 0.264383
v 0.146659 -0.131811 0.288027
v 0.025691 -0.175073 0.073926
v 0.053884 -0.171145 0.107663
v 0.091583 -0.170095 0.150555
v 0.120050 -0.155171 0.189342
v 0.152034 -0.140999 0.224744
v 0.172067 -0.110258 0.247937
vn 0.4419 -0.8557 -0.2692
vn 0.7094 -0.6990 -0.0906
vn 0.3804 -0.8775 -0.2920
vn 0.3932 -0.9139 -0.1009
vn 0.5941 -0.7917 -0.1421
vn 0.7487 -0.6579 -0.0808
vn 0.2012 -0.7632 0.6141
vn -0.9032 -0.3704 -0.2168
vn -0.3374 -0.8975 -0.2838
vn 0.9276 -0.3726 -0.0263
vn 0.7886 -0.6149 0.0103
vn 0.0102 -0.7216 0.6922
vn -0.9227 -0.2716 -0.2735
vn -0.3036 -0.8882 -0.3449
vn 0.9873 -0.1583 0.0139
vn 0.4125 0.8006 0.4347
vn -0.3031 0.9472 0.1045
vn -0.8699 0.4815 -0.1069
vn 0.5643 0.8232 -0.0622
vn 0.9494 0.1644 -0.2677
vn 0.0069 0.9987 0.0503
vn 0.4397 0.8953 -0.0706
vn 0.6386 0.7669 -0.0641
vn 0.7108 0.7033 0.0080
vn 0.6321 0.7666 -0.1124
vn 0.8859 0.4194 -0.1982
vn 0.8145 0.4967 -0.2997
vn 0.3422 0.9332 -0.1095
vn 0.3308 0.9260 -0.1820
vn 0.5206 0.8465 -0.1115
vn 0.5102 0.8284 -0.2311
vn 0.4833 0.8410 -0.2431
vn 0.5106 0.8551 -0.0901
vn 0.5980 0.8004 -0.0422
vn 0.5829 0.7631 -0.2791
vn 0.6080 0.7475 -0.2674
vn 0.6232 0.7648 -0.1633
vn 0.6401 0.7525 -0.1550
vn 0.6293 0.7484 -0.2095
vn 0.7828 0.6214 -0.0332
vn 0.7786 0.6097 -0.1484
vn 0.5389 0.8005 -0.2623
vn 0.5445 0.8185 -0.1830
vn 0.6095 0.7770 -0.1574
vn 0.5993 0.7663 -0.2316
vn 0.6359 0.7419 -0.2126
vn 0.6539 0.7528 -0.0756
vn 0.8803 0.4287 -0.2034
vn 0.8893 0.4564 0.0297
vn 0.6577 0.7478 -0.0909
vn 0.6576 0.7294 -0.1886
vn 0.6079 0.7660 -0.2092
vn 0.5980 0.7311 -0.3286
vn 0.7055 0.6532 -0.2750
vn 0.7231 0.6906 -0.0135
vn 0.6333 0.7718 -0.0566
vn 0.6333 0.7719 0.0550
vn 0.9282 0.3064 -0.2109
vn 0.9382 0.3460 0.0063
vn 0.9301 0.3672 -0.0004
vn 0.9330 0.3479 -0.0921
vn 0.7413 0.6335 -0.2219
vn 0.7413 0.6282 -0.2363
vn 0.5515 0.7751 -0.3084
vn 0.5443 0.8374 -0.0498
vn 0.6932 0.7207 0.0094
vn 0.6846 0.7241 0.0844
vn 0.6163 0.7843 0.0713
vn 0.6223 0.7816 -0.0423
vn 0.9188 0.2534 -0.3027
vn 0.9421 0.3268 -0.0748
vn 0.9854 0.1670 -0.0337
vn 0.9791 0.1958 0.0548
vn 0.8304 0.5557 -0.0414
vn 0.8490 0.4991 -0.1733
vn 0.7262 0.6482 -0.2292
vn 0.7212 0.6669 -0.1872
vn 0.7392 0.6492 -0.1791
vn 0.6723 0.7154 0.1904
vn 0.5773 0.7984 0.1713
vn 0.6000 0.7980 0.0562
vn 0.5275 0.8488 0.0353
vn 0.5189 0.8506 -0.0853
vn 0.0627 0.9957 0.0682
vn 0.3253 0.9275 -0.1843
vn 0.4008 0.9062 -0.1344
vn 0.5251 0.8092 -0.2636
vn 0.5021 0.8541 -0.1353
vn 0.4575 0.8892 0.0034
vn 0.5495 0.8326 -0.0697
vn 0.0324 0.9993 0.0207
vn 0.1673 0.9847 0.0480
vn 0.3608 0.9275 -0.0980
vn 0.0288 0.9842 -0.1747
vn 0.0542 0.9784 -0.1993
vn -0.2332 0.9475 -0.2189
vn 0.3940 0.9055 -0.1576
vn 0.0509 0.9629 -0.2650
vn 0.0092 0.9735 -0.2283
vn -0.0221 0.9716 -0.2355
vn -0.1754 0.9805 -0.0886
vn -0.2434 0.9644 -0.1031
vn 0.5437 0.8209 -0.1746
vn 0.2227 0.9151 -0.3362
vn 0.0778 0.9785 -0.1910
vn 0.0812 0.9784 -0.1899
vn 0.0280 0.9889 -0.1462
vn -0.0638 0.9835 -0.1693
vn -0.2003 0.9789 -0.0404
vn -0.1772 0.9834 -0.0389
vn 0.5077 0.8606 -0.0403
vn 0.3876 0.9181 -0.0826
vn 0.2924 0.9558 0.0301
vn -0.0360 0.9947 -0.0960
vn 0.0652 0.9705 -0.2319
vn -0.0994 0.9617 -0.2556
vn -0.1032 0.9625 -0.2509
vn -0.3853 0.8734 -0.2978
vn -0.3738 0.8736 -0.3116
vn -0.4253 0.8488 -0.3140
vn 0.4575 0.8892 0.0033
vn 0.3441 0.9384 -0.0301
vn 0.3889 0.9186 -0.0704
vn 0.1254 0.9775 -0.1698
vn -0.0087 0.9999 0.0109
vn -0.1708 0.9846 -0.0374
vn -0.0713 0.9809 -0.1812
vn -0.1897 0.9586 -0.2122
vn -0.2693 0.9592 -0.0861
vn -0.3072 0.9472 -0.0920
vn -0.2893 0.9499 -0.1184
vn -0.5565 0.8153 -0.1602
vn 0.5475 0.8351 -0.0529
vn 0.3132 0.9376 -0.1508
vn 0.3416 0.9236 -0.1738
vn 0.2148 0.9537 -0.2107
vn 0.1357 0.9823 -0.1290
vn -0.0875 0.9743 -0.2075
vn -0.1857 0.9802 -0.0693
vn -0.2975 0.9516 -0.0773
vn -0.1992 0.9505 -0.2384
vn -0.5259 0.8187 -0.2305
vn -0.4697 0.8197 -0.3278
vn -0.5597 0.7697 -0.3072
vn -0.5958 0.7649 -0.2450
vn -0.8277 0.4972 -0.2601
vn 0.1005 0.9942 0.0394
vn 0.1653 0.9850 0.0498
vn -0.2265 0.9476 -0.2255
vn -0.1622 0.9687 -0.1879
vn -0.2055 0.9786 -0.0079
vn -0.5361 0.8234 -0.1861
vn -0.5917 0.8031 -0.0699
vn 0.1551 0.9871 0.0397
vn 0.2124 0.9769 -0.0250
vn 0.0099 0.9979 0.0637
vn 0.0500 0.9985 0.0220
vn 0.0009 0.9995 -0.0326
vn 0.0537 0.9941 -0.0946
vn -0.1929 0.9541 -0.2290
vn -0.2069 0.9538 -0.2181
vn 0.0332 0.9992 0.0242
vn 0.0634 0.9979 -0.0123
vn -0.0037 0.9954 -0.0952
vn -0.0547 0.9984 -0.0153
vn -0.3065 0.9319 -0.1940
vn -0.1984 0.9327 -0.3013
vn -0.1303 0.9662 -0.2226
vn -0.2975 0.9528 -0.0610
vn -0.2626 0.9648 -0.0142
vn -0.3148 0.9455 0.0837
vn -0.3657 0.9307 -0.0032
vn -0.2989 0.9443 -0.1379
vn -0.4397 0.8982 0.0029
vn -0.2909 0.9280 -0.2328
vn -0.3295 0.8911 -0.3120
vn -0.4966 0.8526 -0.1626
vn -0.4149 0.9071 -0.0704
vn -0.5645 0.8147 0.1328
vn -0.6023 0.7950 0.0720
vn -0.5284 0.8426 -0.1039
vn -0.5244 0.8463 -0.0936
vn -0.5009 0.8561 -0.1272
vn -0.6362 0.7452 -0.1997
vn -0.6395 0.7439 -0.1944
vn -0.6402 0.7426 -0.1967
vn -0.5502 0.7644 -0.3361
vn -0.4274 0.8907 -0.1550
vn -0.6693 0.7351 0.1082
vn -0.6662 0.7373 0.1120
vn -0.6658 0.7377 0.1114
vn -0.7431 0.6684 -0.0324
vn -0.5398 0.7653 -0.3506
vn -0.4050 0.9029 -0.1444
vn -0.5447 0.8385 -0.0165
vn -0.8771 0.4559 -0.1511
vn -0.8295 0.4850 -0.2770
vn -0.8062 0.5644 -0.1771
vn -0.7840 0.5784 -0.2252
vn -0.8017 0.5092 -0.3130
vn -0.8900 0.4302 -0.1511
vn -0.7577 0.6439 0.1060
vn -0.7157 0.6974 0.0374
vn -0.6575 0.7453 0.1107
vn -0.5759 0.8163 -0.0450
vn -0.6337 0.7023 -0.3243
vn -0.6542 0.6928 -0.3033
vn -0.4932 0.8694 -0.0300
vn -0.4636 0.8841 -0.0589
vn 0.0234 0.9994 -0.0245
vn 0.0978 0.9855 -0.1387
vn 0.1197 0.9921 -0.0368
vn -0.0192 0.9994 0.0284
vn -0.2234 0.9746 -0.0122
vn -0.3699 0.9276 0.0514
vn -0.4009 0.9066 0.1315
vn 0.0839 0.9871 -0.1366
vn 0.1835 0.9814 -0.0559
vn 0.0352 0.9990 -0.0275
vn 0.0690 0.9976 -0.0005
vn 0.1655 0.9860 -0.0184
vn 0.1979 0.9802 0.0048
vn 0.0879 0.9960 0.0136
vn 0.0977 0.9950 0.0215
vn 0.0517 0.9982 0.0312
vn 0.2254 0.9623 0.1524
vn 0.1202 0.9766 0.1782
vn 0.1176 0.9772 0.1766
vn 0.0256 0.9985 -0.0491
vn 0.1236 0.9911 0.0498
vn 0.0749 0.9955 0.0575
vn 0.1859 0.9727 0.1391
vn 0.2369 0.9630 0.1284
vn 0.2177 0.9691 0.1161
vn 0.1329 0.9818 0.1358
vn 0.2975 0.9272 0.2274
vn -0.2566 0.9657 0.0387
vn -0.1066 0.9705 0.2162
vn 0.0306 0.9809 0.1922
vn 0.1651 0.9405 0.2969
vn 0.0842 0.9448 0.3165
vn 0.1981 0.9036 0.3798
vn 0.0995 0.9096 0.4034
vn 0.1774 0.8782 0.4442
vn 0.2418 0.8716 0.4265
vn 0.2752 0.8530 0.4434
vn -0.4433 0.8858 0.1372
vn -0.3149 0.8970 0.3103
vn -0.1387 0.9531 0.2689
vn -0.0256 0.9153 0.4021
vn 0.1360 0.9275 0.3482
vn 0.2028 0.8939 0.3997
vn 0.1845 0.8950 0.4061
vn 0.2257 0.8722 0.4339
vn 0.1752 0.8746 0.4521
vn 0.1323 0.8974 0.4209
vn 0.2863 0.8852 0.3667
vn 0.3553 0.8376 0.4149
vn -0.3734 0.9211 0.1102
vn -0.2839 0.9285 0.2393
vn -0.2573 0.9382 0.2314
vn -0.1408 0.9096 0.3909
vn 0.0078 0.9405 0.3396
vn 0.1331 0.8685 0.4775
vn 0.1722 0.8691 0.4637
vn 0.1172 0.9005 0.4189
vn 0.2419 0.8937 0.3780
vn 0.2316 0.8998 0.3697
vn 0.1347 0.9031 0.4077
vn 0.2279 0.8452 0.4834
vn 0.3551 0.8348 0.4207
vn 0.3904 0.8074 0.4424
vn 0.0037 0.9998 -0.0189
vn 0.1444 0.9885 -0.0455
vn 0.1967 0.9804 0.0050
vn 0.2065 0.9663 0.1533
vn 0.2957 0.9277 0.2280
vn 0.2588 0.8554 0.4486
vn 0.4221 0.8212 0.3841
vn 0.1350 0.9891 0.0585
vn 0.4411 0.8968 -0.0342
vn 0.1995 0.9798 -0.0140
vn 0.4500 0.8900 -0.0734
vn 0.4506 0.8923 -0.0279
vn 0.6378 0.7652 -0.0883
vn 0.2323 0.9724 0.0241
vn 0.3178 0.9481 0.0013
vn 0.3262 0.9333 -0.1498
vn 0.5840 0.7833 -0.2130
vn 0.5908 0.7979 -0.1193
vn 0.7034 0.6926 -0.1596
vn 0.3007 0.9308 0.2078
vn 0.3820 0.9056 0.1845
vn 0.3952 0.9175 0.0444
vn 0.6504 0.7588 -0.0355
vn 0.6416 0.7464 -0.1766
vn 0.6545 0.7342 -0.1807
vn 0.6536 0.7329 -0.1892
vn 0.6271 0.7579 -0.1795
vn 0.3199 0.9163 0.2410
vn 0.2799 0.9263 0.2523
vn 0.2941 0.9464 0.1335
vn 0.5276 0.8466 0.0694
vn 0.5180 0.8478 -0.1133
vn 0.6532 0.7410 -0.1558
vn 0.6492 0.7382 -0.1836
vn 0.8296 0.5012 -0.2461
vn 0.8583 0.5099 -0.0571
vn 0.8994 0.4287 -0.0859
vn 0.3863 0.7634 0.5177
vn 0.3916 0.7619 0.5159
vn 0.4248 0.8430 0.3300
vn 0.4914 0.8152 0.3065
vn 0.4933 0.8685 0.0496
vn 0.7606 0.6467 -0.0571
vn 0.7540 0.6495 -0.0985
vn 0.7971 0.5924 -0.1169
vn 0.7525 0.5894 -0.2939
vn 0.8457 0.4271 -0.3200
vn 0.8982 0.4310 -0.0867
vn 0.8466 0.5295 -0.0541
vn 0.4195 0.8234 0.3822
vn 0.3525 0.8445 0.4031
vn 0.3465 0.8016 0.4872
vn 0.5772 0.7050 0.4121
vn 0.5797 0.7331 0.3557
vn 0.8415 0.4989 0.2073
vn 0.8208 0.5708 -0.0200
vn 0.6773 0.7340 0.0508
vn 0.6184 0.7612 -0.1953
vn 0.7148 0.6617 -0.2264
vn 0.6424 0.6470 -0.4108
vn 0.6485 0.6398 -0.4124
vn 0.7328 0.6757 -0.0798
vn 0.9600 0.1705 -0.2221
vn 0.9670 -0.0520 -0.2493
vn 0.9860 0.0822 -0.1451
vn 0.7258 -0.6860 -0.0519
vn 0.6677 -0.7438 0.0310
vn 0.4744 -0.8769 0.0777
vn 0.3941 -0.9087 0.1376
vn 0.9790 0.1937 0.0640
vn 0.9853 0.0909 -0.1450
vn 0.9949 -0.0142 -0.0996
vn 0.8444 0.5357 -0.0031
vn 0.9987 0.0077 0.0505
vn 0.9781 0.1914 0.0816
vn 0.9655 0.2515 0.0677
vn 0.8858 -0.4607 0.0560
vn 0.9696 -0.2443 0.0155
vn 0.9992 -0.0270 0.0302
vn 0.9435 0.3259 -0.0595
vn 0.9898 0.1153 -0.0833
vn 0.8964 0.3995 -0.1920
vn 0.8419 -0.5332 0.0831
vn 0.9997 -0.0201 -0.0150
vn 0.9436 -0.3305 -0.0201
vn 0.9709 0.1855 -0.1516
vn 0.9674 0.2044 -0.1493
vn 0.8890 0.4142 -0.1952
vn 0.8976 0.3922 -0.2012
vn 0.8026 0.5463 -0.2394
vn 0.6723 -0.7313 0.1151
vn 0.8203 -0.5706 0.0394
vn 0.9939 0.1086 0.0182
vn 0.9979 0.0544 0.0341
vn 0.8398 0.5352 0.0917
vn 0.9021 0.4131 0.1251
vn 0.7108 0.6744 0.2000
vn 0.6796 0.7083 0.1910
vn 0.6886 0.7008 0.1865
vn 0.6789 0.7104 0.1857
vn 0.7552 -0.6280 0.1880
vn 0.9753 -0.2154 0.0497
vn 0.8888 -0.4522 0.0749
vn 0.9135 -0.4042 0.0456
vn 0.9962 0.0736 0.0456
vn 0.9712 0.2348 -0.0404
vn 0.9610 0.2743 -0.0354
vn 0.8719 0.4735 -0.1250
vn 0.7478 0.6616 -0.0553
vn 0.7844 0.6189 -0.0398
vn 0.7032 0.7110 0.0050
vn 0.6818 0.7316 -0.0004
vn 0.9684 -0.2470 0.0352
vn 0.9633 -0.2641 0.0484
vn 0.9645 -0.2599 0.0475
vn 0.9925 -0.1141 -0.0429
vn 0.8912 -0.4529 0.0250
vn 0.9445 -0.2465 -0.2173
vn 0.9738 0.0084 -0.2274
vn 0.9479 0.0974 -0.3034
vn 0.8782 0.3984 -0.2648
vn 0.8158 0.4825 -0.3189
vn 0.7863 0.5420 -0.2966
vn 0.7173 0.6160 -0.3255
vn 0.6324 0.7277 -0.2655
vn 0.7321 0.6427 -0.2256
vn 0.5968 0.7166 -0.3611
vn 0.5546 0.6092 -0.5668
vn 0.4196 0.5285 -0.7380
vn 0.2661 0.1574 -0.9510
vn 0.0576 -0.2750 -0.9597
vn -0.0720 -0.5914 -0.8031
vn -0.3162 -0.7564 -0.5725
vn 0.5529 0.7268 -0.4074
vn 0.3040 0.8885 -0.3436
vn 0.4223 0.5861 -0.6915
vn 0.1978 0.7439 -0.6384
vn 0.2468 0.8922 -0.3783
vn 0.1948 0.9156 -0.3519
vn 0.2551 0.4703 -0.8448
vn 0.1332 0.5584 -0.8188
vn 0.1680 0.7379 -0.6537
vn -0.0264 0.8442 -0.5354
vn 0.0031 0.9017 -0.4325
vn -0.1186 0.9473 -0.2975
vn 0.0485 0.0538 -0.9974
vn -0.1302 0.1718 -0.9765
vn -0.1029 0.4605 -0.8816
vn -0.3028 0.5845 -0.7528
vn -0.2296 0.7723 -0.5924
vn -0.3806 0.8386 -0.3896
vn -0.3673 0.8577 -0.3597
vn -0.3994 0.8658 -0.3016
vn -0.1242 -0.3855 -0.9143
vn -0.2964 -0.2798 -0.9132
vn -0.3190 0.0540 -0.9462
vn -0.5023 0.1847 -0.8447
vn -0.4440 0.4996 -0.7438
vn -0.6122 0.6067 -0.5071
vn -0.5288 0.7472 -0.4027
vn -0.5744 0.7813 -0.2445
vn -0.5968 0.7479 -0.2908
vn -0.5683 0.7378 -0.3642
vn -0.3210 -0.7478 -0.5812
vn -0.4157 -0.6918 -0.5905
vn -0.5270 -0.4423 -0.7257
vn -0.6495 -0.3574 -0.6711
vn -0.7103 0.0055 -0.7039
vn -0.8131 0.0879 -0.5755
vn -0.7243 0.5148 -0.4587
vn -0.7743 0.5602 -0.2945
vn -0.7561 0.6038 -0.2525
vn -0.7106 0.5380 -0.4535
vn -0.6719 0.6621 -0.3320
vn -0.6355 0.6477 -0.4203
vn -0.3705 -0.7964 -0.4780
vn -0.4926 -0.7171 -0.4931
vn -0.4760 -0.7457 -0.4662
vn -0.6139 -0.6532 -0.4433
vn -0.7030 -0.4136 -0.5786
vn -0.8671 -0.2536 -0.4287
vn -0.8803 -0.0066 -0.4743
vn -0.9610 0.1320 -0.2430
vn -0.9237 0.3397 -0.1772
vn -0.8186 0.2037 -0.5370
vn -0.8351 0.4135 -0.3630
vn -0.8023 0.3904 -0.4515
vn -0.7647 0.5378 -0.3550
vn -0.7985 0.5739 -0.1815
vn -0.9348 0.3331 -0.1235
vn -0.9607 0.1315 -0.2445
vn -0.9658 -0.1596 -0.2044
vn -0.9324 0.2256 -0.2825
vn -0.9015 -0.4214 -0.0984
vn -0.0163 -0.9952 0.0969
vn 0.9371 0.3258 0.1253
vn -0.8987 0.3943 -0.1921
vn -0.9004 0.3470 -0.2623
vn -0.9725 0.1075 -0.2064
vn -0.9703 0.0945 -0.2225
vn -0.9342 0.2971 -0.1977
vn -0.9337 0.2671 -0.2386
vn -0.9365 -0.3491 -0.0327
vn 0.3620 -0.9298 0.0668
vn -0.9900 0.0269 -0.1382
vn -0.9830 -0.0163 -0.1826
vn -0.9479 0.2453 -0.2035
vn -0.9391 0.3176 -0.1316
vn -0.9980 -0.0269 -0.0573
vn -0.9654 -0.1539 -0.2106
vn -0.9346 -0.2535 -0.2497
vn -0.9808 -0.1149 -0.1574
vn -0.9865 -0.0366 -0.1599
vn -0.9955 0.0516 -0.0797
vn -0.9433 0.3091 -0.1210
vn -0.8668 0.4896 0.0943
vn -0.8895 -0.4546 -0.0469
vn -0.8786 -0.4735 -0.0622
vn -0.8678 -0.4926 -0.0644
vn -0.9080 -0.4185 -0.0187
vn -0.9608 -0.2757 -0.0308
vn -0.9865 -0.1529 0.0591
vn -0.9997 -0.0226 0.0124
vn -0.9744 0.1128 0.1947
vn -0.8506 0.5249 0.0312
vn -0.8568 0.5156 0.0053
vn 0.9659 0.1786 0.1874
vn 0.9619 0.0552 0.2677
vn 0.5422 -0.6687 0.5088
vn 0.9140 -0.1996 0.3532
vn -0.9500 -0.2836 -0.1308
vn -0.9454 -0.2990 -0.1299
vn -0.8722 0.1958 -0.4483
vn -0.8861 0.3111 -0.3436
vn -0.7738 0.4548 -0.4409
vn -0.7385 0.5811 -0.3418
vn -0.7157 0.6030 -0.3525
vn -0.6801 0.6709 -0.2954
vn -0.9396 0.2969 -0.1704
vn -0.9468 -0.0076 -0.3219
vn -0.9323 0.1389 -0.3339
vn -0.9321 0.1434 -0.3327
vn -0.9324 0.1404 -0.3329
vn -0.9226 0.0475 -0.3829
vn -0.9227 -0.0607 -0.3808
vn -0.9547 0.0350 -0.2956
vn -0.8953 0.3020 -0.3276
vn -0.8965 0.3500 -0.2716
vn -0.7848 0.5535 -0.2787
vn -0.7548 0.6182 -0.2193
vn -0.7376 0.6374 -0.2227
vn -0.5306 0.8468 -0.0366
vn -0.4964 0.8324 0.2466
vn -0.5943 0.7370 0.3220
vn -0.6234 0.5005 0.6007
vn -0.5561 0.2167 0.8024
vn -0.4013 -0.0403 0.9151
vn -0.3834 -0.2537 0.8880
vn -0.1950 -0.5790 0.7917
vn -0.4992 0.8340 0.2352
vn -0.2977 0.9201 0.2544
vn -0.5365 0.6908 0.4847
vn -0.2944 0.8022 0.5194
vn -0.2315 0.8651 0.4451
vn -0.1753 0.8818 0.4379
vn -0.5271 0.4115 0.7435
vn -0.3088 0.5339 0.7871
vn -0.2148 0.7366 0.6413
vn -0.1013 0.7700 0.6300
vn -0.0764 0.8067 0.5861
vn 0.1101 0.8422 0.5278
vn -0.4250 0.1031 0.8993
vn -0.2311 0.2383 0.9433
vn -0.2088 0.4602 0.8629
vn -0.1167 0.4896 0.8641
vn -0.0551 0.7363 0.6744
vn 0.0732 0.7545 0.6522
vn 0.1165 0.8375 0.5339
vn 0.0777 0.8349 0.5449
vn -0.4363 -0.0133 0.8997
vn -0.2910 0.0814 0.9533
vn -0.2885 0.2803 0.9155
vn -0.2538 0.2990 0.9199
vn -0.2314 0.5648 0.7921
vn -0.0036 0.6382 0.7699
vn 0.0249 0.7885 0.6145
vn 0.0735 0.8000 0.5954
vn 0.0846 0.8309 0.5499
vn 0.2121 0.8433 0.4939
vn -0.2472 -0.3223 0.9138
vn -0.1966 -0.2861 0.9378
vn -0.1825 0.0089 0.9832
vn -0.1441 0.0370 0.9889
vn -0.1258 0.1995 0.9718
vn 0.0272 0.2883 0.9571
vn 0.0609 0.5943 0.8019
vn 0.1184 0.6145 0.7800
vn 0.1640 0.7423 0.6497
vn 0.1797 0.7465 0.6407
vn 0.2071 0.8460 0.4913
vn 0.2289 0.8486 0.4770
vn -0.0223 -0.6366 0.7708
vn 0.0725 -0.5582 0.8265
vn 0.0461 -0.3954 0.9173
vn 0.0723 -0.3747 0.9243
vn 0.0809 -0.1163 0.9899
vn 0.1512 -0.0689 0.9861
vn 0.1447 0.2029 0.9685
vn 0.3039 0.2987 0.9047
vn 0.3195 0.4531 0.8323
vn 0.3990 0.4927 0.7733
vn 0.4162 0.5835 0.6974
vn 0.4030 0.5809 0.7072
vn 0.4045 0.7478 0.5264
vn 0.3991 0.7479 0.5305
vn 0.3988 0.8133 0.4236
vn 0.5171 0.6566 0.5490
vn 0.6452 0.6017 0.4707
vn 0.7331 0.4857 0.4761
vn 0.9442 -0.0231 0.3287
vn 0.8281 -0.3805 0.4117
vn 0.8626 -0.4429 0.2445
vn 0.4076 0.8096 0.4223
vn 0.3978 0.8006 0.4481
vn 0.6761 0.5437 0.4973
vn 0.6874 0.5724 0.4471
vn 0.6276 0.6738 0.3900
vn 0.6177 0.6504 0.4421
vn 0.7059 0.5442 0.4533
vn 0.7071 0.6123 0.3537
vn 0.7855 0.4670 0.4061
vn 0.7890 0.5071 0.3470
vn 0.8044 0.4767 0.3546
vn 0.8058 0.5619 0.1869
vn 0.9119 0.2763 0.3034
vn 0.8971 0.2088 0.3893
vn 0.7963 0.5197 0.3096
vn 0.7967 0.4589 0.3934
vn 0.7464 0.5547 0.3677
vn 0.7098 0.6932 0.1250
vn 0.8278 0.5331 0.1749
vn 0.8161 0.5685 0.1038
vn 0.8931 0.0672 0.4448
vn 0.8820 0.0405 0.4696
vn 0.8484 0.2871 0.4447
vn 0.8449 0.4792 0.2377
vn 0.9320 0.2306 0.2796
vn 0.9050 0.4212 0.0600
vn 0.8577 0.5126 0.0407
vn 0.8844 0.4436 0.1447
vn 0.8029 0.5855 0.1121
vn 0.6444 0.7230 -0.2490
vn 0.8326 -0.5030 0.2319
vn 0.8969 -0.4038 0.1801
vn 0.9507 -0.2373 0.1998
vn 0.9939 -0.0771 0.0794
vn 0.9742 0.2144 0.0698
vn 0.9785 0.1793 0.1022
vn 0.8915 0.4471 0.0733
vn 0.8840 0.4646 0.0526
vn 0.9503 0.3023 0.0744
vn 0.7822 0.5511 -0.2905
vn 0.7402 0.6013 -0.3009
vn 0.6428 0.6448 -0.4135
vn 0.8139 -0.5806 0.0227
vn 0.8890 -0.4575 -0.0215
vn 0.8190 -0.5718 -0.0480
vn 0.8637 -0.4961 -0.0882
vn 0.9695 -0.2378 -0.0594
vn 0.9610 -0.2742 -0.0371
vn 0.9981 -0.0502 -0.0345
vn 0.9625 0.1797 -0.2030
vn 0.9818 -0.0227 -0.1886
vn 0.9127 0.1797 -0.3669
vn 0.8849 0.2685 -0.3805
vn 0.8989 0.2477 -0.3614
vn 0.6278 0.6640 -0.4061
vn 0.8015 0.5404 -0.2562
vn 0.6774 0.6444 -0.3547
vn 0.6905 0.5900 -0.4184
vn 0.7841 0.4181 -0.4587
vn 0.8996 -0.0486 -0.4340
vn 0.9540 -0.2215 -0.2019
vn 0.7752 -0.6280 -0.0675
vn 0.9061 -0.4217 0.0341
vn 0.7148 0.5641 -0.4134
vn 0.6358 0.5257 -0.5652
vn 0.7430 0.4634 -0.4829
vn 0.7009 0.4207 -0.5759
vn 0.6492 0.4785 -0.5912
vn 0.5474 0.3998 -0.7352
vn 0.8319 0.0927 -0.5472
vn 0.8501 0.1264 -0.5112
vn 0.7197 0.3168 -0.6179
vn 0.6255 0.2122 -0.7508
vn 0.5681 0.2702 -0.7773
vn 0.3179 0.1199 -0.9405
vn 0.8999 -0.0449 -0.4338
vn 0.9168 -0.0002 -0.3993
vn 0.8514 0.0947 -0.5158
vn 0.7308 -0.0834 -0.6775
vn 0.6561 -0.0139 -0.7546
vn 0.3776 -0.2295 -0.8971
vn 0.3651 -0.2206 -0.9044
vn 0.1574 -0.3343 -0.9292
vn 0.7854 -0.6037 -0.1368
vn 0.8643 -0.4928 -0.1002
vn 0.8350 -0.4359 -0.3359
vn 0.7786 -0.5051 -0.3723
vn 0.6950 -0.4586 -0.5537
vn 0.5331 -0.5896 -0.6067
vn 0.3759 -0.5186 -0.7680
vn 0.2431 -0.5928 -0.7678
vn 0.1702 -0.5602 -0.8107
vn 0.0077 -0.6328 -0.7743
vn 0.9259 -0.3063 -0.2211
vn 0.9250 -0.3090 -0.2213
vn 0.9276 -0.3228 -0.1881
vn 0.7155 -0.6707 -0.1954
vn 0.7062 -0.6653 -0.2422
vn 0.5021 -0.8333 -0.2315
vn 0.4280 -0.8279 -0.3625
vn 0.4018 -0.8425 -0.3589
vn 0.1908 -0.8200 -0.5396
vn 0.1527 -0.8350 -0.5286
vn 0.0306 -0.8028 -0.5955
vn -0.1394 -0.8534 -0.5023
vn 0.9252 -0.3792 0.0153
vn 0.8798 -0.4753 0.0028
vn 0.8746 -0.4654 -0.1355
vn 0.7273 -0.6667 -0.1631
vn 0.7189 -0.6651 -0.2020
vn 0.6003 -0.7767 -0.1904
vn 0.5430 -0.7647 -0.3470
vn 0.3441 -0.8934 -0.2888
vn 0.3682 -0.8944 -0.2538
vn 0.2782 -0.9353 -0.2187
vn 0.1268 -0.9269 -0.3531
vn 0.0360 -0.9523 -0.3029
vn -0.1320 -0.9072 -0.3994
vn -0.2230 -0.9191 -0.3249
vn -0.9360 0.3267 -0.1313
vn -0.9371 0.1159 -0.3292
vn -0.8982 0.0501 -0.4366
vn -0.9613 0.1315 -0.2423
vn -0.8739 -0.2706 -0.4039
vn -0.6269 -0.6888 -0.3641
vn -0.5095 -0.7384 -0.4419
vn -0.9599 0.2346 -0.1537
vn -0.9800 0.1786 -0.0875
vn -0.9371 0.1284 -0.3246
vn -0.9605 -0.2582 -0.1037
vn -0.9399 -0.2923 -0.1767
vn -0.9274 -0.2338 -0.2921
vn -0.8863 0.0073 -0.4631
vn -0.7689 -0.5530 -0.3210
vn -0.8802 -0.4426 -0.1716
vn -0.8354 -0.5452 0.0696
vn -0.7789 -0.6151 -0.1219
vn -0.7736 -0.5643 -0.2883
vn -0.9558 -0.1509 -0.2525
vn -0.9570 -0.1595 -0.2422
vn 0.4861 0.7477 0.4523
vn 0.8398 -0.2451 -0.4843
vn 0.6581 -0.5864 -0.4723
vn 0.6579 -0.5865 -0.4725
vn -0.7011 -0.7122 -0.0354
vn -0.7062 -0.6220 -0.3382
vn -0.8163 -0.5142 -0.2632
vn -0.7973 -0.4616 -0.3889
vn -0.9388 -0.2577 -0.2287
vn -0.8994 -0.4338 0.0537
vn 0.5936 0.7890 0.1585
vn 0.7777 0.6012 -0.1837
vn 0.9510 0.3083 -0.0235
vn 0.6482 0.6052 0.4621
vn 0.5426 0.8326 0.1107
vn 0.0543 -0.9937 0.0980
vn -0.6620 -0.6305 -0.4054
vn -0.6774 -0.6967 -0.2361
vn -0.6483 -0.7184 -0.2522
vn -0.6383 -0.7697 -0.0086
vn -0.8424 -0.5319 0.0862
vn -0.8071 -0.5647 0.1723
vn 0.7758 0.6042 -0.1820
vn 0.5105 0.7272 0.4589
vn 0.3005 0.9222 0.2436
vn 0.8018 -0.5363 0.2635
vn 0.0448 0.9957 -0.0809
vn 0.8795 0.4758 0.0035
vn -0.3516 -0.8930 -0.2808
vn -0.3747 -0.9045 -0.2038
vn -0.5541 -0.8153 -0.1682
vn -0.5407 -0.8410 -0.0184
vn -0.6669 -0.7445 -0.0306
vn -0.5861 -0.7981 0.1400
vn -0.8648 -0.4951 0.0835
vn -0.8917 -0.4088 -0.1944
vn -0.7230 -0.5350 -0.4371
vn -0.7537 -0.6086 -0.2481
vn -0.7577 -0.6051 -0.2447
vn -0.7532 -0.6202 -0.2192
vn -0.9694 -0.2176 -0.1140
vn -0.9696 -0.1683 -0.1779
vn -0.6116 0.7656 0.1997
vn -0.8895 0.4557 0.0331
vn -0.9494 0.2778 -0.1463
vn -0.9744 -0.0281 -0.2230
vn -0.9373 -0.2200 -0.2702
vn -0.9107 -0.3086 -0.2747
vn -0.9567 -0.1813 -0.2278
vn -0.6190 0.7583 0.2046
vn -0.6158 0.7252 0.3081
vn -0.8735 0.4862 0.0257
vn -0.8932 0.3106 0.3251
vn -0.8316 0.3751 0.4096
vn -0.8088 0.3440 0.4770
vn -0.9894 0.0469 -0.1371
vn -0.9834 -0.1581 0.0890
vn -0.9354 0.0818 0.3439
vn -0.9143 0.0349 0.4035
vn -0.8428 0.1439 0.5186
vn -0.7451 0.0225 0.6665
vn -0.9520 -0.1945 -0.2365
vn -0.9354 -0.3272 -0.1341
vn -0.9870 -0.1339 0.0887
vn -0.9413 -0.2694 0.2035
vn -0.9059 -0.1119 0.4083
vn -0.8024 -0.2611 0.5367
vn -0.7355 -0.1266 0.6655
vn -0.5928 -0.2539 0.7643
vn -0.8918 -0.3331 -0.3062
vn -0.8499 -0.4640 -0.2496
vn -0.9051 -0.4005 -0.1425
vn -0.8301 -0.5563 -0.0382
vn -0.8710 -0.4498 0.1975
vn -0.8655 -0.4572 0.2044
vn -0.8060 -0.2450 0.5388
vn -0.6225 -0.4215 0.6594
vn -0.5658 -0.3372 0.7524
vn -0.5221 -0.3624 0.7721
vn -0.9649 -0.1676 -0.2024
vn -0.9185 -0.3709 -0.1371
vn -0.8734 -0.4273 -0.2337
vn -0.7516 -0.6345 -0.1806
vn -0.8256 -0.5629 -0.0401
vn -0.7272 -0.6861 0.0191
vn -0.7510 -0.6369 0.1742
vn -0.6303 -0.7384 0.2398
vn -0.5597 -0.5474 0.6222
vn -0.4504 -0.6038 0.6577
vn -0.4301 -0.5814 0.6906
vn -0.2543 -0.6326 0.7316
vn -0.8514 -0.4121 -0.3246
vn -0.8035 -0.5363 -0.2584
vn -0.8352 -0.5137 -0.1962
vn -0.8152 -0.5520 -0.1752
vn -0.8347 -0.5356 -0.1282
vn -0.6968 -0.7153 -0.0529
vn -0.7121 -0.7020 0.0104
vn -0.6310 -0.7735 0.0596
vn -0.6378 -0.7306 0.2437
vn -0.4605 -0.8372 0.2951
vn -0.3740 -0.7070 0.6002
vn -0.2112 -0.7505 0.6262
vn -0.1988 -0.7347 0.6486
vn -0.0236 -0.7609 0.6485
vn 0.3403 0.7821 0.5221
vn 0.3141 0.6264 0.7134
vn 0.5341 0.3787 0.7559
vn 0.4462 0.1550 0.8814
vn 0.2507 -0.1357 0.9585
vn 0.2055 -0.4399 0.8742
vn 0.1228 -0.5751 0.8088
vn 0.4084 0.6650 0.6253
vn 0.4785 0.6186 0.6232
vn 0.4150 0.3207 0.8514
vn 0.3784 0.3477 0.8579
vn 0.5275 0.5021 0.6853
vn 0.5852 0.4498 0.6747
vn 0.5451 0.2317 0.8057
vn 0.4598 0.2876 0.8402
vn 0.3999 0.2428 0.8838
vn 0.4799 0.1620 0.8623
vn 0.6190 0.3627 0.6967
vn 0.6604 0.3236 0.6776
vn 0.4539 0.0085 0.8910
vn 0.5579 -0.0702 0.8269
vn 0.4730 -0.1164 0.8733
vn 0.3916 -0.0739 0.9172
vn 0.4958 0.0124 0.8684
vn 0.5641 -0.0572 0.8237
vn 0.6929 0.1100 0.7126
vn 0.8939 -0.1312 0.4286
vn 0.2643 -0.4013 0.8770
vn 0.3610 -0.4568 0.8130
vn 0.5530 -0.3204 0.7691
vn 0.5567 -0.3220 0.7658
vn 0.3679 -0.4229 0.8282
vn 0.3230 -0.3858 0.8642
vn 0.5567 -0.1594 0.8153
vn 0.7955 -0.4238 0.4330
vn 0.8520 -0.3451 0.3937
vn 0.8528 -0.3464 0.3907
vn 0.2029 -0.5325 0.8218
vn 0.3135 -0.5825 0.7499
vn 0.3584 -0.5499 0.7545
vn 0.4781 -0.5998 0.6416
vn 0.5382 -0.5653 0.6251
vn 0.2483 -0.4261 0.8699
vn 0.3269 -0.3715 0.8690
vn 0.6134 -0.6688 0.4200
vn 0.7668 -0.5023 0.3997
vn 0.7606 -0.4973 0.4173
vn 0.8359 -0.4044 0.3711
vn 0.8663 -0.4370 0.2419
vn 0.1488 -0.7884 0.5969
vn 0.1389 -0.7860 0.6024
vn 0.3117 -0.6942 0.6488
vn 0.3831 -0.7207 0.5778
vn 0.4752 -0.6654 0.5757
vn 0.2476 -0.5991 0.7614
vn 0.1737 -0.6240 0.7619
vn 0.3914 -0.7624 0.5153
vn 0.6912 -0.4884 0.5326
vn 0.8055 -0.5501 0.2206
vn 0.6019 -0.7496 0.2752
vn 0.6635 -0.7460 0.0570
vn 0.6514 -0.7564 0.0600
vn 0.6515 -0.7564 0.0589
vn 0.9089 0.1659 -0.3825
vn 0.9155 0.1135 -0.3861
vn 0.9054 0.2395 -0.3506
vn 0.9550 -0.0323 -0.2948
vn 0.9132 -0.3900 -0.1181
vn 0.8969 -0.4410 -0.0323
vn 0.8557 -0.5099 -0.0887
vn 0.9268 0.0740 -0.3681
vn 0.6708 0.7099 -0.2144
vn 0.8270 0.3917 -0.4033
vn 0.7266 0.5981 -0.3381
vn 0.7656 -0.6204 -0.1703
vn 0.9595 -0.2159 -0.1809
vn 0.9340 0.0868 -0.3465
vn 0.8753 -0.2570 -0.4097
vn 0.8159 -0.4738 -0.3315
vn 0.9454 -0.0666 -0.3190
vn 0.6789 -0.7281 -0.0945
vn 0.9869 0.1612 -0.0032
vn 0.9533 -0.0662 -0.2947
vn 0.8815 -0.2824 -0.3785
vn 0.8948 -0.1606 -0.4167
vn 0.9277 0.0502 -0.3699
vn 0.7459 -0.6241 -0.2326
vn 0.2140 0.9765 -0.0269
vn 0.9996 0.0268 -0.0074
vn 0.9800 -0.1966 -0.0292
vn 0.9459 -0.3037 -0.1145
vn 0.8183 -0.5104 -0.2644
vn 0.8934 -0.2419 -0.3785
vn 0.8407 -0.3447 -0.4175
vn 0.7602 -0.5415 -0.3590
vn 0.9664 0.1100 -0.2322
vn 0.0330 -0.9994 -0.0087
vn 0.4573 -0.8889 -0.0256
vn 0.2109 -0.9775 0.0069
vn 0.6653 -0.7457 0.0362
vn 0.8175 -0.5739 -0.0477
vn 0.7345 -0.6611 -0.1532
vn 0.8449 -0.4660 -0.2626
vn 0.7364 -0.5783 -0.3511
vn 0.8083 -0.4137 -0.4189
vn 0.9211 -0.2176 -0.3229
vn 0.8758 -0.3931 -0.2800
vn 0.9659 -0.1683 -0.1967
vn 0.6945 -0.7180 -0.0466
vn 0.7320 -0.6801 -0.0392
vn 0.5776 -0.8147 0.0507
vn 0.9879 0.0220 0.1537
vn 0.7760 -0.6219 -0.1054
vn 0.7692 -0.6284 -0.1157
vn 0.8016 -0.5802 -0.1443
vn 0.7160 -0.6557 -0.2394
vn 0.8337 -0.4322 -0.3436
vn 0.8967 -0.3443 -0.2781
vn 0.9267 -0.1971 -0.3199
vn 0.8759 -0.2992 -0.3786
vn 0.5213 -0.8255 -0.2161
vn 0.6811 -0.7119 -0.1712
vn 0.4014 -0.9158 0.0105
vn 0.8819 -0.4504 0.1396
vn 0.7651 -0.5933 0.2504
vn 0.8523 -0.4322 0.2947
vn 0.7722 -0.6256 0.1106
vn 0.7953 -0.5839 0.1631
vn 0.8549 -0.4976 0.1469
vn 0.6140 -0.7762 0.1432
vn 0.5558 -0.7937 0.2472
vn 0.6799 -0.7188 0.1450
vn 0.7301 -0.6828 -0.0264
vn 0.8579 -0.5032 0.1036
vn 0.8411 -0.5387 0.0481
vn 0.8526 -0.5004 0.1504
vn 0.8171 -0.5756 0.0314
vn 0.8004 -0.5969 0.0552
vn 0.7257 -0.6690 -0.1606
vn 0.5634 -0.7996 0.2078
vn 0.5309 -0.8316 0.1631
vn 0.6020 -0.7957 0.0667
vn 0.5430 -0.8390 -0.0358
vn 0.6099 -0.7783 -0.1490
vn 0.5949 -0.7835 -0.1795
vn 0.6334 -0.7611 0.1396
vn 0.5744 -0.8158 0.0679
vn 0.5096 -0.8439 0.1677
vn 0.3576 -0.9338 -0.0116
vn 0.3564 -0.9343 -0.0094
vn 0.3384 -0.9404 -0.0328
vn 0.3887 -0.9090 -0.1504
vn 0.3273 -0.9158 -0.2329
vn 0.6336 -0.7403 0.2248
vn 0.4527 -0.8903 0.0495
vn 0.4159 -0.9026 0.1110
vn 0.2686 -0.9631 -0.0179
vn 0.2492 -0.9683 0.0155
vn 0.2433 -0.9699 0.0104
vn 0.2562 -0.9664 -0.0205
vn 0.2604 -0.9653 -0.0167
vn 0.3279 -0.9155 -0.2330
vn 0.2880 -0.9158 -0.2798
vn 0.6614 -0.7345 0.1518
vn 0.4719 -0.8789 -0.0698
vn 0.4059 -0.9117 0.0630
vn 0.3894 -0.9198 0.0487
vn 0.4439 -0.8942 -0.0579
vn 0.3589 -0.9254 -0.1216
vn 0.3063 -0.9519 -0.0063
vn 0.1974 -0.9741 -0.1102
vn 0.1686 -0.9857 0.0022
vn 0.0480 -0.9940 -0.0985
vn 0.0595 -0.9714 -0.2297
vn 0.0353 -0.9664 -0.2545
vn 0.5408 -0.8405 0.0334
vn 0.3948 -0.9083 -0.1385
vn 0.3448 -0.9382 -0.0302
vn 0.3244 -0.9447 -0.0470
vn 0.2739 -0.9591 0.0718
vn 0.2261 -0.9735 0.0354
vn 0.2744 -0.9565 -0.0988
vn 0.0665 -0.9616 -0.2665
vn 0.0188 -0.9990 -0.0411
vn 0.0020 -0.9984 -0.0564
vn 0.0057 -0.9964 -0.0843
vn -0.1382 -0.9714 -0.1929
vn -0.1383 -0.9704 -0.1978
vn -0.2137 -0.9409 -0.2628
vn -0.2829 -0.9291 -0.2383
vn -0.2452 -0.9585 -0.1452
vn -0.0680 -0.9973 -0.0279
vn -0.1073 -0.9699 -0.2188
vn 0.0846 -0.9930 0.0823
vn 0.3259 -0.9442 -0.0475
vn 0.2980 -0.9475 -0.1163
vn -0.2835 -0.9414 -0.1826
vn -0.3415 -0.9242 -0.1709
vn -0.2356 -0.9494 -0.2076
vn -0.3994 -0.9047 -0.1480
vn -0.3260 -0.9421 -0.0784
vn -0.5748 -0.8168 -0.0493
vn -0.0517 -0.9851 -0.1640
vn -0.3956 -0.9145 -0.0841
vn -0.3951 -0.9148 -0.0835
vn -0.5651 -0.8241 -0.0388
vn -0.5742 -0.8174 -0.0469
vn -0.7459 -0.6658 -0.0182
vn -0.1344 -0.9883 -0.0714
vn -0.2957 -0.9553 -0.0045
vn -0.3956 -0.9148 -0.0812
vn -0.5314 -0.8468 -0.0228
vn -0.5660 -0.8230 -0.0475
vn -0.5985 -0.8005 -0.0315
vn -0.7589 -0.6407 -0.1162
vn -0.6912 -0.7010 -0.1756
vn 0.1423 -0.9737 -0.1781
vn -0.0927 -0.9924 -0.0806
vn -0.2695 -0.9406 -0.2065
vn -0.4244 -0.8958 -0.1320
vn -0.5277 -0.8264 -0.1961
vn -0.6058 -0.7799 -0.1572
vn -0.6030 -0.7824 -0.1556
vn -0.6475 -0.7496 -0.1373
vn -0.6933 -0.7054 -0.1474
vn -0.4990 -0.8317 -0.2436
vn 0.3322 -0.9387 -0.0920
vn 0.0147 -0.9999 -0.0011
vn -0.0928 -0.9925 -0.0802
vn -0.2292 -0.9732 -0.0203
vn -0.4260 -0.8968 -0.1199
vn -0.3224 -0.9297 -0.1780
vn -0.5929 -0.7689 -0.2392
vn -0.4544 -0.8292 -0.3256
vn -0.6270 -0.6972 -0.3477
vn -0.6114 -0.7076 -0.3541
vn -0.5015 -0.8105 -0.3027
vn -0.7973 -0.5360 -0.2777
vn 0.3023 -0.9396 -0.1606
vn 0.2982 -0.9411 -0.1592
vn 0.0417 -0.9455 -0.3230
vn -0.1062 -0.9613 -0.2542
vn -0.1978 -0.9292 -0.3121
vn -0.3105 -0.9122 -0.2672
vn -0.3060 -0.9144 -0.2651
vn -0.3665 -0.8980 -0.2434
vn -0.4668 -0.8403 -0.2755
vn -0.5185 -0.8169 -0.2527
vn -0.6219 -0.7281 -0.2883
vn -0.7661 -0.6058 -0.2147
vn -0.7999 -0.5505 -0.2390
vn -0.9227 -0.3609 -0.1357
vn -0.9102 -0.3573 -0.2094
vn -0.7604 -0.5989 -0.2515
vn -0.5183 -0.8166 -0.2541
vn -0.3657 -0.8961 -0.2515
vn -0.3050 -0.8936 -0.3293
vn -0.0942 -0.9224 -0.3747
vn 0.3021 -0.9018 -0.3089
vn -0.8647 -0.4676 -0.1833
vn -0.8516 -0.4713 -0.2295
vn -0.6794 -0.7097 -0.1864
vn -0.6673 -0.7017 -0.2496
vn -0.7645 -0.6155 -0.1915
vn -0.7594 -0.6161 -0.2091
vn -0.4632 -0.8568 -0.2265
vn -0.4624 -0.8554 -0.2332
vn -0.5734 -0.7950 -0.1981
vn -0.5855 -0.7973 -0.1466
vn -0.6023 -0.7864 -0.1368
vn -0.6083 -0.7853 -0.1150
vn -0.4351 -0.8550 -0.2824
vn -0.4361 -0.8568 -0.2750
vn -0.5026 -0.8280 -0.2484
vn -0.5357 -0.8418 -0.0663
vn -0.4371 -0.8919 -0.1158
vn -0.4611 -0.8869 -0.0275
vn -0.4300 -0.9016 -0.0477
vn -0.4287 -0.9017 -0.0560
vn -0.2393 -0.9231 -0.3009
vn -0.2462 -0.9394 -0.2385
vn -0.2722 -0.9358 -0.2240
vn -0.2757 -0.9606 -0.0338
vn -0.3270 -0.9450 -0.0094
vn -0.3273 -0.9449 -0.0004
vn -0.3223 -0.9466 -0.0034
vn -0.3177 -0.9479 -0.0239
vn -0.3322 -0.9431 -0.0147
vn -0.3505 -0.9096 0.2230
vn 0.1938 -0.9471 -0.2560
vn 0.1964 -0.9599 -0.2000
vn 0.0732 -0.9900 -0.1207
vn 0.0610 -0.9747 -0.2148
vn -0.2895 -0.9563 -0.0403
vn -0.2829 -0.9591 0.0044
vn -0.2910 -0.9567 0.0093
vn -0.2986 -0.9442 0.1387
vn -0.0910 -0.9958 -0.0132
vn -0.1290 -0.9523 0.2767
vn -0.1186 -0.9555 0.2700
vn -0.0956 -0.8428 0.5297
vn 0.3632 -0.8869 -0.2855
vn 0.3844 -0.9127 -0.1387
vn 0.3740 -0.9177 -0.1338
vn 0.3422 -0.9044 -0.2550
vn 0.1311 -0.9751 -0.1788
vn 0.1767 -0.9829 -0.0523
vn -0.1021 -0.9920 0.0738
vn -0.0685 -0.9798 0.1880
vn -0.0345 -0.9857 0.1652
vn -0.0317 -0.9632 0.2668
vn -0.0469 -0.9591 0.2791
vn -0.0128 -0.8330 0.5531
vn 0.0043 -0.8423 0.5390
vn 0.0135 -0.8025 0.5965
vn 0.8526 -0.4316 0.2945
vn 0.7442 -0.6450 0.1737
vn 0.6974 -0.6956 -0.1727
vn 0.5199 -0.7449 -0.4181
vn 0.6078 -0.7296 -0.3133
vn 0.6590 -0.7110 -0.2451
vn 0.7580 -0.6415 -0.1178
vn 0.8522 -0.4321 0.2949
vn 0.8574 -0.4237 0.2923
vn 0.9128 -0.4078 0.0218
vn 0.8341 -0.5504 0.0368
vn 0.9184 -0.3399 0.2024
vn 0.8763 -0.4252 0.2264
vn 0.8044 -0.5382 -0.2514
vn 0.5829 -0.7724 -0.2523
vn 0.8584 -0.5130 0.0074
vn 0.8608 -0.5089 0.0072
vn 0.9153 -0.3739 0.1495
vn 0.6717 -0.7071 0.2209
vn 0.4674 -0.7949 -0.3869
vn 0.6329 -0.6723 -0.3840
vn 0.6899 -0.6395 -0.3392
vn 0.4748 -0.8070 -0.3512
vn 0.8440 -0.5352 0.0358
vn 0.4145 -0.9087 0.0490
vn 0.6298 -0.7267 0.2742
vn 0.5918 -0.7554 0.2815
vn 0.5883 -0.7520 -0.2973
vn 0.6951 -0.6599 -0.2853
vn 0.6079 -0.7067 -0.3621
vn 0.2256 -0.9004 -0.3719
vn 0.3708 -0.8903 -0.2643
vn 0.6950 -0.6780 -0.2392
vn 0.6833 -0.6851 -0.2525
vn 0.6264 -0.7349 -0.2601
vn 0.7920 -0.6100 -0.0252
vn 0.5458 -0.8375 -0.0269
vn 0.6437 -0.7306 -0.2277
vn 0.7035 -0.6762 -0.2186
vn 0.6695 -0.6980 -0.2542
vn 0.5522 -0.7888 -0.2700
vn 0.3339 -0.8235 -0.4587
vn 0.5731 -0.6962 -0.4322
vn 0.7224 -0.6354 -0.2729
vn 0.6263 -0.7221 -0.2936
vn 0.6404 -0.7164 -0.2769
vn 0.6075 -0.7420 -0.2836
vn 0.6696 -0.7134 -0.2064
vn 0.5946 -0.7728 -0.2217
vn 0.7283 -0.6818 -0.0688
vn 0.7410 -0.6683 -0.0662
vn 0.6635 -0.7307 -0.1607
vn 0.6563 -0.7370 -0.1616
vn 0.5590 -0.7813 -0.2776
vn 0.6135 -0.7420 -0.2702
vn 0.5099 -0.7715 -0.3805
vn 0.6510 -0.6729 -0.3512
vn 0.6617 -0.6695 -0.3374
vn 0.4749 -0.7936 -0.3803
vn 0.5821 -0.7715 -0.2570
vn 0.6465 -0.7237 -0.2413
vn 0.6289 -0.7312 -0.2641
vn 0.4749 -0.8267 -0.3017
vn 0.2015 -0.7689 0.6068
vn 0.1932 -0.8105 0.5529
vn 0.2381 -0.9411 0.2400
vn -0.1628 -0.9720 0.1694
vn -0.0718 -0.9866 -0.1464
vn 0.1664 -0.9296 -0.3289
vn 0.3892 -0.9109 -0.1369
vn 0.1915 -0.7638 0.6164
vn 0.1377 -0.7772 0.6140
vn 0.2263 -0.8179 0.5290
vn 0.1183 -0.8430 0.5247
vn 0.1311 -0.7735 0.6201
vn 0.3836 -0.6819 0.6228
vn -0.1069 -0.8541 0.5091
vn 0.1855 -0.8278 0.5296
vn 0.1725 -0.8613 0.4779
vn 0.3729 -0.7787 0.5045
vn 0.4111 -0.6905 0.5951
vn 0.1233 -0.7916 0.5985
vn 0.0053 -0.9979 0.0644
vn 0.2800 -0.9541 0.1063
vn 0.3588 -0.8595 0.3640
vn 0.4458 -0.8139 0.3726
vn 0.4689 -0.7805 0.4133
vn 0.2281 -0.8984 0.3753
vn 0.2921 -0.8326 0.4705
vn 0.3766 -0.7875 0.4878
vn 0.2007 -0.9419 -0.2695
vn 0.1595 -0.9464 -0.2808
vn 0.3103 -0.9475 0.0778
vn 0.4911 -0.8662 0.0920
vn 0.5735 -0.7808 0.2479
vn 0.4212 -0.8801 0.2193
vn 0.3977 -0.8991 0.1828
vn 0.6119 -0.7589 0.2228
vn 0.5725 -0.8070 0.1448
vn 0.7639 -0.6241 0.1643
vn 0.2642 -0.8824 -0.3894
vn 0.4718 -0.8299 -0.2977
vn 0.3948 -0.8066 -0.4399
vn 0.4918 -0.7663 -0.4135
vn 0.6715 -0.7315 -0.1183
vn 0.5964 -0.7916 -0.1331
vn 0.6626 -0.7475 -0.0465
vn 0.4707 -0.8792 -0.0733
vn 0.6447 -0.7468 0.1632
vn 0.7700 -0.6189 0.1553
vn 0.7686 -0.6212 0.1531
vn 0.7716 -0.6174 0.1534
vn 0.4715 -0.8561 -0.2117
vn 0.5798 -0.7968 -0.1703
vn 0.4966 -0.8064 -0.3211
vn 0.4303 -0.8358 -0.3411
vn 0.4235 -0.8348 -0.3518
vn 0.6212 -0.7176 -0.3149
vn 0.6788 -0.6974 -0.2299
vn 0.5943 -0.7651 -0.2479
vn 0.6020 -0.7619 -0.2389
vn 0.6978 -0.6785 -0.2297
vn 0.8497 -0.5260 -0.0368
vn 0.7203 -0.6929 -0.0330
vn 0.8211 -0.5684 0.0528
vn 0.6295 -0.7759 0.0414
s 0
f 1//1 20//1 19//1
f 2//2 26//2 40//2
f 1//3 19//3 54//3
f 1//4 54//4 68//4
f 1//5 68//5 41//5
f 2//6 40//6 89//6
f 3//7 33//7 103//7
f 4//8 61//8 117//8
f 5//9 75//9 131//9
f 6//10 82//10 145//10
f 2//11 89//11 104//11
f 3//12 103//12 118//12
f 4//13 117//13 132//13
f 5//14 131//14 146//14
f 6//15 145//15 90//15
f 7//16 159//16 194//16
f 8//17 166//17 208//17
f 9//18 173//18 215//18
f 10//19 180//19 222//19
f 11//20 187//20 195//20
f 201//21 216//21 12//21
f 200//22 223//22 201//22
f 199//23 224//23 200//23
f 198//24 226//24 199//24
f 197//25 229//25 198//25
f 196//26 233//26 197//26
f 195//27 238//27 196//27
f 201//28 223//28 216//28
f 223//29 217//29 216//29
f 200//30 224//30 223//30
f 224//31 225//31 223//31
f 223//32 225//32 217//32
f 225//33 218//33 217//33
f 199//34 226//34 224//34
f 226//35 227//35 224//35
f 224//36 227//36 225//36
f 227//37 228//37 225//37
f 225//38 228//38 218//38
f 228//39 219//39 218//39
f 198//40 229//40 226//40
f 229//41 230//41 226//41
f 226//42 230//42 227//42
f 230//43 231//43 227//43
f 227//44 231//44 228//44
f 231//45 232//45 228//45
f 228//46 232//46 219//46
f 232//47 220//47 219//47
f 197//48 233//48 229//48
f 233//49 234//49 229//49
f 229//50 234//50 230//50
f 234//51 235//51 230//51
f 230//52 235//52 231//52
f 235//53 236//53 231//53
f 231//54 236//54 232//54
f 236//55 237//55 232//55
f 232//56 237//56 220//56
f 237//57 221//57 220//57
f 196//58 238//58 233//58
f 238//59 239//59 233//59
f 233//60 239//60 234//60
f 239//61 240//61 234//61
f 234//62 240//62 235//62
f 240//63 241//63 235//63
f 235//64 241//64 236//64
f 241//65 242//65 236//65
f 236//66 242//66 237//66
f 242//67 243//67 237//67
f 237//68 243//68 221//68
f 243//69 222//69 221//69
f 195//70 187//70 238//70
f 187//71 186//71 238//71
f 238//72 186//72 239//72
f 186//73 185//73 239//73
f 239//74 185//74 240//74
f 185//75 184//75 240//75
f 240//76 184//76 241//76
f 184//77 183//77 241//77
f 241//78 183//78 242//78
f 183//79 182//79 242//79
f 242//80 182//80 243//80
f 182//81 181//81 243//81
f 243//82 181//82 222//82
f 181//83 10//83 222//83
f 216//84 209//84 12//84
f 217//85 244//85 216//85
f 218//86 245//86 217//86
f 219//87 247//87 218//87
f 220//88 250//88 219//88
f 221//89 254//89 220//89
f 222//90 259//90 221//90
f 216//91 244//91 209//91
f 244//92 210//92 209//92
f 217//93 245//93 244//93
f 245//94 246//94 244//94
f 244//95 246//95 210//95
f 246//96 211//96 210//96
f 218//97 247//97 245//97
f 247//98 248//98 245//98
f 245//99 248//99 246//99
f 248//100 249//100 246//100
f 246//101 249//101 211//101
f 249//102 212//102 211//102
f 219//103 250//103 247//103
f 250//104 251//104 247//104
f 247//105 251//105 248//105
f 251//106 252//106 248//106
f 248//107 252//107 249//107
f 252//108 253//108 249//108
f 249//109 253//109 212//109
f 253//110 213//110 212//110
f 220//111 254//111 250//111
f 254//112 255//112 250//112
f 250//113 255//113 251//113
f 255//114 256//114 251//114
f 251//115 256//115 252//115
f 256//116 257//116 252//116
f 252//117 257//117 253//117
f 257//118 258//118 253//118
f 253//119 258//119 213//119
f 258//120 214//120 213//120
f 221//121 259//121 254//121
f 259//122 260//122 254//122
f 254//123 260//123 255//123
f 260//124 261//124 255//124
f 255//125 261//125 256//125
f 261//126 262//126 256//126
f 256//127 262//127 257//127
f 262//128 263//128 257//128
f 257//129 263//129 258//129
f 263//130 264//130 258//130
f 258//131 264//131 214//131
f 264//132 215//132 214//132
f 222//133 180//133 259//133
f 180//134 179//134 259//134
f 259//135 179//135 260//135
f 179//136 178//136 260//136
f 260//137 178//137 261//137
f 178//138 177//138 261//138
f 261//139 177//139 262//139
f 177//140 176//140 262//140
f 262//141 176//141 263//141
f 176//142 175//142 263//142
f 263//143 175//143 264//143
f 175//144 174//144 264//144
f 264//145 174//145 215//145
f 174//146 9//146 215//146
f 209//147 202//147 12//147
f 210//148 265//148 209//148
f 211//149 266//149 210//149
f 212//150 268//150 211//150
f 213//151 271//151 212//151
f 214//152 275//152 213//152
f 215//153 280//153 214//153
f 209//154 265//154 202//154
f 265//155 203//155 202//155
f 210//156 266//156 265//156
f 266//157 267//157 265//157
f 265//158 267//158 203//158
f 267//159 204//159 203//159
f 211//160 268//160 266//160
f 268//161 269//161 266//161
f 266//162 269//162 267//162
f 269//163 270//163 267//163
f 267//164 270//164 204//164
f 270//165 205//165 204//165
f 212//166 271//166 268//166
f 271//167 272//167 268//167
f 268//168 272//168 269//168
f 272//169 273//169 269//169
f 269//170 273//170 270//170
f 273//171 274//171 270//171
f 270//172 274//172 205//172
f 274//173 206//173 205//173
f 213//174 275//174 271//174
f 275//175 276//175 271//175
f 271//176 276//176 272//176
f 276//177 277//177 272//177
f 272//178 277//178 273//178
f 277//179 278//179 273//179
f 273//180 278//180 274//180
f 278//181 279//181 274//181
f 274//182 279//182 206//182
f 279//183 207//183 206//183
f 214//184 280//184 275//184
f 280//185 281//185 275//185
f 275//186 281//186 276//186
f 281//187 282//187 276//187
f 276//188 282//188 277//188
f 282//189 283//189 277//189
f 277//190 283//190 278//190
f 283//191 284//191 278//191
f 278//192 284//192 279//192
f 284//193 285//193 279//193
f 279//194 285//194 207//194
f 285//195 208//195 207//195
f 215//196 173//196 280//196
f 173//197 172//197 280//197
f 280//198 172//198 281//198
f 172//199 171//199 281//199
f 281//200 171//200 282//200
f 171//201 170//201 282//201
f 282//202 170//202 283//202
f 170//203 169//203 283//203
f 283//204 169//204 284//204
f 169//205 168//205 284//205
f 284//206 168//206 285//206
f 168//207 167//207 285//207
f 285//208 167//208 208//208
f 167//209 8//209 208//209
f 202//210 188//210 12//210
f 203//211 286//211 202//211
f 204//212 287//212 203//212
f 205//213 289//213 204//213
f 206//214 292//214 205//214
f 207//215 296//215 206//215
f 208//216 301//216 207//216
f 202//217 286//217 188//217
f 286//218 189//218 188//218
f 203//219 287//219 286//219
f 287//220 288//220 286//220
f 286//221 288//221 189//221
f 288//222 190//222 189//222
f 204//223 289//223 287//223
f 289//224 290//224 287//224
f 287//225 290//225 288//225
f 290//226 291//226 288//226
f 288//227 291//227 190//227
f 291//228 191//228 190//228
f 205//229 292//229 289//229
f 292//230 293//230 289//230
f 289//231 293//231 290//231
f 293//232 294//232 290//232
f 290//233 294//233 291//233
f 294//234 295//234 291//234
f 291//235 295//235 191//235
f 295//236 192//236 191//236
f 206//237 296//237 292//237
f 296//238 297//238 292//238
f 292//239 297//239 293//239
f 297//240 298//240 293//240
f 293//241 298//241 294//241
f 298//242 299//242 294//242
f 294//243 299//243 295//243
f 299//244 300//244 295//244
f 295//245 300//245 192//245
f 300//246 193//246 192//246
f 207//247 301//247 296//247
f 301//248 302//248 296//248
f 296//249 302//249 297//249
f 302//250 303//250 297//250
f 297//251 303//251 298//251
f 303//252 304//252 298//252
f 298//253 304//253 299//253
f 304//254 305//254 299//254
f 299//255 305//255 300//255
f 305//256 306//256 300//256
f 300//257 306//257 193//257
f 306//258 194//258 193//258
f 208//259 166//259 301//259
f 166//260 165//260 301//260
f 301//261 165//261 302//261
f 165//262 164//262 302//262
f 302//263 164//263 303//263
f 164//264 163//264 303//264
f 303//265 163//265 304//265
f 163//266 162//266 304//266
f 304//267 162//267 305//267
f 162//268 161//268 305//268
f 305//269 161//269 306//269
f 161//270 160//270 306//270
f 306//271 160//271 194//271
f 160//272 7//272 194//272
f 188//273 201//273 12//273
f 189//274 307//274 188//274
f 190//275 308//275 189//275
f 191//276 310//276 190//276
f 192//277 313//277 191//277
f 193//278 317//278 192//278
f 194//279 322//279 193//279
f 188//280 307//280 201//280
f 307//281 200//281 201//281
f 189//282 308//282 307//282
f 308//283 309//283 307//283
f 307//284 309//284 200//284
f 309//285 199//285 200//285
f 190//286 310//286 308//286
f 310//287 311//287 308//287
f 308//288 311//288 309//288
f 311//289 312//289 309//289
f 309//290 312//290 199//290
f 312//291 198//291 199//291
f 191//292 313//292 310//292
f 313//293 314//293 310//293
f 310//294 314//294 311//294
f 314//295 315//295 311//295
f 311//296 315//296 312//296
f 315//297 316//297 312//297
f 312//298 316//298 198//298
f 316//299 197//299 198//299
f 192//300 317//300 313//300
f 317//301 318//301 313//301
f 313//302 318//302 314//302
f 318//303 319//303 314//303
f 314//304 319//304 315//304
f 319//305 320//305 315//305
f 315//306 320//306 316//306
f 320//307 321//307 316//307
f 316//308 321//308 197//308
f 321//309 196//309 197//309
f 193//310 322//310 317//310
f 322//311 323//311 317//311
f 317//312 323//312 318//312
f 323//313 324//313 318//313
f 318//314 324//314 319//314
f 324//315 325//315 319//315
f 319//316 325//316 320//316
f 325//317 326//317 320//317
f 320//318 326//318 321//318
f 326//319 327//319 321//319
f 321//320 327//320 196//320
f 327//321 195//321 196//321
f 194//322 159//322 322//322
f 159//323 158//323 322//323
f 322//324 158//324 323//324
f 158//325 157//325 323//325
f 323//326 157//326 324//326
f 157//327 156//327 324//327
f 324//328 156//328 325//328
f 156//329 155//329 325//329
f 325//330 155//330 326//330
f 155//331 154//331 326//331
f 326//332 154//332 327//332
f 154//333 153//333 327//333
f 327//334 153//334 195//334
f 153//335 11//335 195//335
f 96//336 187//336 11//336
f 95//337 328//337 96//337
f 94//338 329//338 95//338
f 93//339 331//339 94//339
f 92//340 334//340 93//340
f 91//341 338//341 92//341
f 90//342 343//342 91//342
f 96//343 328//343 187//343
f 328//344 186//344 187//344
f 95//345 329//345 328//345
f 329//346 330//346 328//346
f 328//347 330//347 186//347
f 330//348 185//348 186//348
f 94//349 331//349 329//349
f 331//350 332//350 329//350
f 329//351 332//351 330//351
f 332//352 333//352 330//352
f 330//353 333//353 185//353
f 333//354 184//354 185//354
f 93//355 334//355 331//355
f 334//356 335//356 331//356
f 331//357 335//357 332//357
f 335//358 336//358 332//358
f 332//359 336//359 333//359
f 336//360 337//360 333//360
f 333//361 337//361 184//361
f 337//362 183//362 184//362
f 92//363 338//363 334//363
f 338//364 339//364 334//364
f 334//365 339//365 335//365
f 339//366 340//366 335//366
f 335//367 340//367 336//367
f 340//368 341//368 336//368
f 336//369 341//369 337//369
f 341//370 342//370 337//370
f 337//371 342//371 183//371
f 342//372 182//372 183//372
f 91//373 343//373 338//373
f 343//374 344//374 338//374
f 338//375 344//375 339//375
f 344//376 345//376 339//376
f 339//377 345//377 340//377
f 345//378 346//378 340//378
f 340//379 346//379 341//379
f 346//380 347//380 341//380
f 341//381 347//381 342//381
f 347//382 348//382 342//382
f 342//383 348//383 182//383
f 348//384 181//384 182//384
f 90//385 145//385 343//385
f 145//386 144//386 343//386
f 343//387 144//387 344//387
f 144//388 143//388 344//388
f 344//389 143//389 345//389
f 143//390 142//390 345//390
f 345//391 142//391 346//391
f 142//392 141//392 346//392
f 346//393 141//393 347//393
f 141//394 140//394 347//394
f 347//395 140//395 348//395
f 140//396 139//396 348//396
f 348//397 139//397 181//397
f 139//398 10//398 181//398
f 152//399 180//399 10//399
f 151//400 349//400 152//400
f 150//401 350//401 151//401
f 149//402 352//402 150//402
f 148//403 355//403 149//403
f 147//404 359//404 148//404
f 146//405 364//405 147//405
f 152//406 349//406 180//406
f 349//407 179//407 180//407
f 151//408 350//408 349//408
f 350//409 351//409 349//409
f 349//410 351//410 179//410
f 351//411 178//411 179//411
f 150//412 352//412 350//412
f 352//413 353//413 350//413
f 350//414 353//414 351//414
f 353//415 354//415 351//415
f 351//416 354//416 178//416
f 354//417 177//417 178//417
f 149//418 355//418 352//418
f 355//419 356//419 352//419
f 352//420 356//420 353//420
f 356//421 357//421 353//421
f 353//422 357//422 354//422
f 357//423 358//423 354//423
f 354//424 358//424 177//424
f 358//425 176//425 177//425
f 148//426 359//426 355//426
f 359//427 360//427 355//427
f 355//428 360//428 356//428
f 360//429 361//429 356//429
f 356//430 361//430 357//430
f 361//431 362//431 357//431
f 357//432 362//432 358//432
f 362//433 363//433 358//433
f 358//434 363//434 176//434
f 363//435 175//435 176//435
f 147//436 364//436 359//436
f 364//437 365//437 359//437
f 359//438 365//438 360//438
f 365//439 366//439 360//439
f 360//440 366//440 361//440
f 366//441 367//441 361//441
f 361//442 367//442 362//442
f 367//443 368//443 362//443
f 362//444 368//444 363//444
f 368//445 369//445 363//445
f 363//446 369//446 175//446
f 369//447 174//447 175//447
f 146//448 131//448 364//448
f 131//449 130//449 364//449
f 364//450 130//450 365//450
f 130//451 129//451 365//451
f 365//452 129//452 366//452
f 129//453 128//453 366//453
f 366//454 128//454 367//454
f 128//455 127//455 367//455
f 367//456 127//456 368//456
f 127//457 126//457 368//457
f 368//458 126//458 369//458
f 126//459 125//459 369//459
f 369//460 125//460 174//460
f 125//461 9//461 174//461
f 138//462 173//462 9//462
f 137//463 370//463 138//463
f 136//464 371//464 137//464
f 135//465 373//465 136//465
f 134//466 376//466 135//466
f 133//467 380//467 134//467
f 132//468 385//468 133//468
f 138//469 370//469 173//469
f 370//470 172//470 173//470
f 137//471 371//471 370//471
f 371//472 372//472 370//472
f 370//473 372//473 172//473
f 372//474 171//474 172//474
f 136//475 373//475 371//475
f 373//476 374//476 371//476
f 371//477 374//477 372//477
f 374//478 375//478 372//478
f 372//479 375//479 171//479
f 375//480 170//480 171//480
f 135//481 376//481 373//481
f 376//482 377//482 373//482
f 373//483 377//483 374//483
f 377//484 378//484 374//484
f 374//485 378//485 375//485
f 378//486 379//486 375//486
f 375//487 379//487 170//487
f 379//488 169//488 170//488
f 134//489 380//489 376//489
f 380//490 381//490 376//490
f 376//491 381//491 377//491
f 381//492 382//492 377//492
f 377//493 382//493 378//493
f 382//494 383//494 378//494
f 378//495 383//495 379//495
f 383//496 384//496 379//496
f 379//497 384//497 169//497
f 384//498 168//498 169//498
f 133//499 385//499 380//499
f 385//500 386//500 380//500
f 380//501 386//501 381//501
f 386//502 387//502 381//502
f 381//503 387//503 382//503
f 387//504 388//504 382//504
f 382//505 388//505 383//505
f 388//506 389//506 383//506
f 383//507 389//507 384//507
f 389//508 390//508 384//508
f 384//509 390//509 168//509
f 390//510 167//510 168//510
f 132//511 117//511 385//511
f 117//512 116//512 385//512
f 385//513 116//513 386//513
f 116//514 115//514 386//514
f 386//515 115//515 387//515
f 115//516 114//516 387//516
f 387//517 114//517 388//517
f 114//518 113//518 388//518
f 388//519 113//519 389//519
f 113//520 112//520 389//520
f 389//521 112//521 390//521
f 112//522 111//522 390//522
f 390//523 111//523 167//523
f 111//524 8//524 167//524
f 124//525 166//525 8//525
f 123//526 391//526 124//526
f 122//527 392//527 123//527
f 121//528 394//528 122//528
f 120//529 397//529 121//529
f 119//530 401//530 120//530
f 118//531 406//531 119//531
f 124//532 391//532 166//532
f 391//533 165//533 166//533
f 123//534 392//534 391//534
f 392//535 393//535 391//535
f 391//536 393//536 165//536
f 393//537 164//537 165//537
f 122//538 394//538 392//538
f 394//539 395//539 392//539
f 392//540 395//540 393//540
f 395//541 396//541 393//541
f 393//542 396//542 164//542
f 396//543 163//543 164//543
f 121//544 397//544 394//544
f 397//545 398//545 394//545
f 394//546 398//546 395//546
f 398//547 399//547 395//547
f 395//548 399//548 396//548
f 399//549 400//549 396//549
f 396//550 400//550 163//550
f 400//551 162//551 163//551
f 120//552 401//552 397//552
f 401//553 402//553 397//553
f 397//554 402//554 398//554
f 402//555 403//555 398//555
f 398//556 403//556 399//556
f 403//557 404//557 399//557
f 399//558 404//558 400//558
f 404//559 405//559 400//559
f 400//560 405//560 162//560
f 405//561 161//561 162//561
f 119//562 406//562 401//562
f 406//563 407//563 401//563
f 401//564 407//564 402//564
f 407//565 408//565 402//565
f 402//566 408//566 403//566
f 408//567 409//567 403//567
f 403//568 409//568 404//568
f 409//569 410//569 404//569
f 404//570 410//570 405//570
f 410//571 411//571 405//571
f 405//572 411//572 161//572
f 411//573 160//573 161//573
f 118//574 103//574 406//574
f 103//575 102//575 406//575
f 406//576 102//576 407//576
f 102//577 101//577 407//577
f 407//578 101//578 408//578
f 101//579 100//579 408//579
f 408//580 100//580 409//580
f 100//581 99//581 409//581
f 409//582 99//582 410//582
f 99//583 98//583 410//583
f 410//584 98//584 411//584
f 98//585 97//585 411//585
f 411//586 97//586 160//586
f 97//587 7//587 160//587
f 110//588 159//588 7//588
f 109//589 412//589 110//589
f 108//590 413//590 109//590
f 107//591 415//591 108//591
f 106//592 418//592 107//592
f 105//593 422//593 106//593
f 104//594 427//594 105//594
f 110//595 412//595 159//595
f 412//596 158//596 159//596
f 109//597 413//597 412//597
f 413//598 414//598 412//598
f 412//599 414//599 158//599
f 414//600 157//600 158//600
f 108//601 415//601 413//601
f 415//602 416//602 413//602
f 413//603 416//603 414//603
f 416//604 417//604 414//604
f 414//605 417//605 157//605
f 417//606 156//606 157//606
f 107//607 418//607 415//607
f 418//608 419//608 415//608
f 415//609 419//609 416//609
f 419//610 420//610 416//610
f 416//611 420//611 417//611
f 420//612 421//612 417//612
f 417//613 421//613 156//613
f 421//614 155//614 156//614
f 106//615 422//615 418//615
f 422//616 423//616 418//616
f 418//617 423//617 419//617
f 423//618 424//618 419//618
f 419//619 424//619 420//619
f 424//620 425//620 420//620
f 420//621 425//621 421//621
f 425//622 426//622 421//622
f 421//623 426//623 155//623
f 426//624 154//624 155//624
f 105//625 427//625 422//625
f 427//626 428//626 422//626
f 422//627 428//627 423//627
f 428//628 429//628 423//628
f 423//629 429//629 424//629
f 429//630 430//630 424//630
f 424//631 430//631 425//631
f 430//632 431//632 425//632
f 425//633 431//633 426//633
f 431//634 432//634 426//634
f 426//635 432//635 154//635
f 432//636 153//636 154//636
f 104//637 89//637 427//637
f 89//638 88//638 427//638
f 427//639 88//639 428//639
f 88//640 87//640 428//640
f 428//641 87//641 429//641
f 87//642 86//642 429//642
f 429//643 86//643 430//643
f 86//644 85//644 430//644
f 430//645 85//645 431//645
f 85//646 84//646 431//646
f 431//647 84//647 432//647
f 84//648 83//648 432//648
f 432//649 83//649 153//649
f 83//650 11//650 153//650
f 139//651 152//651 10//651
f 140//652 433//652 139//652
f 141//653 434//653 140//653
f 142//654 436//654 141//654
f 143//655 439//655 142//655
f 144//656 443//656 143//656
f 145//657 448//657 144//657
f 139//658 433//658 152//658
f 433//659 151//659 152//659
f 140//660 434//660 433//660
f 434//661 435//661 433//661
f 433//662 435//662 151//662
f 435//663 150//663 151//663
f 141//664 436//664 434//664
f 436//665 437//665 434//665
f 434//666 437//666 435//666
f 437//667 438//667 435//667
f 435//668 438//668 150//668
f 438//669 149//669 150//669
f 142//670 439//670 436//670
f 439//671 440//671 436//671
f 436//672 440//672 437//672
f 440//673 441//673 437//673
f 437//674 441//674 438//674
f 441//675 442//675 438//675
f 438//676 442//676 149//676
f 442//677 148//677 149//677
f 143//678 443//678 439//678
f 443//679 444//679 439//679
f 439//680 444//680 440//680
f 444//681 445//681 440//681
f 440//682 445//682 441//682
f 445//683 446//683 441//683
f 441//684 446//684 442//684
f 446//685 447//685 442//685
f 442//686 447//686 148//686
f 447//687 147//687 148//687
f 144//688 448//688 443//688
f 448//689 449//689 443//689
f 443//690 449//690 444//690
f 449//691 450//691 444//691
f 444//692 450//692 445//692
f 450//693 451//693 445//693
f 445//694 451//694 446//694
f 451//695 452//695 446//695
f 446//696 452//696 447//696
f 452//697 453//697 447//697
f 447//698 453//698 147//698
f 453//699 146//699 147//699
f 145//700 82//700 448//700
f 82//701 81//701 448//701
f 448//702 81//702 449//702
f 81//703 80//703 449//703
f 449//704 80//704 450//704
f 80//705 79//705 450//705
f 450//706 79//706 451//706
f 79//707 78//707 451//707
f 451//708 78//708 452//708
f 78//709 77//709 452//709
f 452//710 77//710 453//710
f 77//711 76//711 453//711
f 453//712 76//712 146//712
f 76//713 5//713 146//713
f 125//714 138//714 9//714
f 126//715 454//715 125//715
f 127//716 455//716 126//716
f 128//717 457//717 127//717
f 129//718 460//718 128//718
f 130//719 464//719 129//719
f 131//720 469//720 130//720
f 125//721 454//721 138//721
f 454//722 137//722 138//722
f 126//723 455//723 454//723
f 455//724 456//724 454//724
f 454//725 456//725 137//725
f 456//726 136//726 137//726
f 127//727 457//727 455//727
f 457//728 458//728 455//728
f 455//729 458//729 456//729
f 458//730 459//730 456//730
f 456//731 459//731 136//731
f 459//732 135//732 136//732
f 128//733 460//733 457//733
f 460//734 461//734 457//734
f 457//735 461//735 458//735
f 461//736 462//736 458//736
f 458//737 462//737 459//737
f 462//738 463//738 459//738
f 459//739 463//739 135//739
f 463//740 134//740 135//740
f 129//741 464//741 460//741
f 464//742 465//742 460//742
f 460//743 465//743 461//743
f 465//744 466//744 461//744
f 461//745 466//745 462//745
f 466//746 467//746 462//746
f 462//747 467//747 463//747
f 467//748 468//748 463//748
f 463//749 468//749 134//749
f 468//750 133//750 134//750
f 130//751 469//751 464//751
f 469//752 470//752 464//752
f 464//753 470//753 465//753
f 470//754 471//754 465//754
f 465//755 471//755 466//755
f 471//756 472//756 466//756
f 466//757 472//757 467//757
f 472//758 473//758 467//758
f 467//759 473//759 468//759
f 473//760 474//760 468//760
f 468//761 474//761 133//761
f 474//762 132//762 133//762
f 131//763 75//763 469//763
f 75//764 74//764 469//764
f 469//765 74//765 470//765
f 74//766 73//766 470//766
f 470//767 73//767 471//767
f 73//768 72//768 471//768
f 471//769 72//769 472//769
f 72//770 71//770 472//770
f 472//771 71//771 473//771
f 71//772 70//772 473//772
f 473//773 70//773 474//773
f 70//774 69//774 474//774
f 474//775 69//775 132//775
f 69//776 4//776 132//776
f 111//777 124//777 8//777
f 112//778 475//778 111//778
f 113//779 476//779 112//779
f 114//780 478//780 113//780
f 115//781 481//781 114//781
f 116//782 485//782 115//782
f 117//783 490//783 116//783
f 111//784 475//784 124//784
f 475//785 123//785 124//785
f 112//786 476//786 475//786
f 476//787 477//787 475//787
f 475//788 477//788 123//788
f 477//789 122//789 123//789
f 113//790 478//790 476//790
f 478//791 479//791 476//791
f 476//792 479//792 477//792
f 479//793 480//793 477//793
f 477//794 480//794 122//794
f 480//795 121//795 122//795
f 114//796 481//796 478//796
f 481//797 482//797 478//797
f 478//798 482//798 479//798
f 482//799 483//799 479//799
f 479//800 483//800 480//800
f 483//801 484//801 480//801
f 480//802 484//802 121//802
f 484//803 120//803 121//803
f 115//804 485//804 481//804
f 485//805 486//805 481//805
f 481//806 486//806 482//806
f 486//807 487//807 482//807
f 482//808 487//808 483//808
f 487//809 488//809 483//809
f 483//810 488//810 484//810
f 488//811 489//811 484//811
f 484//812 489//812 120//812
f 489//813 119//813 120//813
f 116//814 490//814 485//814
f 490//815 491//815 485//815
f 485//816 491//816 486//816
f 491//817 492//817 486//817
f 486//818 492//818 487//818
f 492//819 493//819 487//819
f 487//820 493//820 488//820
f 493//821 494//821 488//821
f 488//822 494//822 489//822
f 494//823 495//823 489//823
f 489//824 495//824 119//824
f 495//825 118//825 119//825
f 117//826 61//826 490//826
f 61//827 60//827 490//827
f 490//828 60//828 491//828
f 60//829 59//829 491//829
f 491//830 59//830 492//830
f 59//831 58//831 492//831
f 492//832 58//832 493//832
f 58//833 57//833 493//833
f 493//834 57//834 494//834
f 57//835 56//835 494//835
f 494//836 56//836 495//836
f 56//837 55//837 495//837
f 495//838 55//838 118//838
f 55//839 3//839 118//839
f 97//840 110//840 7//840
f 98//841 496//841 97//841
f 99//842 497//842 98//842
f 100//843 499//843 99//843
f 101//844 502//844 100//844
f 102//845 506//845 101//845
f 103//846 511//846 102//846
f 97//847 496//847 110//847
f 496//848 109//848 110//848
f 98//849 497//849 496//849
f 497//850 498//850 496//850
f 496//851 498//851 109//851
f 498//852 108//852 109//852
f 99//853 499//853 497//853
f 499//854 500//854 497//854
f 497//855 500//855 498//855
f 500//856 501//856 498//856
f 498//857 501//857 108//857
f 501//858 107//858 108//858
f 100//859 502//859 499//859
f 502//860 503//860 499//860
f 499//861 503//861 500//861
f 503//862 504//862 500//862
f 500//863 504//863 501//863
f 504//864 505//864 501//864
f 501//865 505//865 107//865
f 505//866 106//866 107//866
f 101//867 506//867 502//867
f 506//868 507//868 502//868
f 502//869 507//869 503//869
f 507//870 508//870 503//870
f 503//871 508//871 504//871
f 508//872 509//872 504//872
f 504//873 509//873 505//873
f 509//874 510//874 505//874
f 505//875 510//875 106//875
f 510//876 105//876 106//876
f 102//877 511//877 506//877
f 511//878 512//878 506//878
f 506//879 512//879 507//879
f 512//880 513//880 507//880
f 507//881 513//881 508//881
f 513//882 514//882 508//882
f 508//883 514//883 509//883
f 514//884 515//884 509//884
f 509//885 515//885 510//885
f 515//886 516//886 510//886
f 510//887 516//887 105//887
f 516//888 104//888 105//888
f 103//889 33//889 511//889
f 33//890 32//890 511//890
f 511//891 32//891 512//891
f 32//892 31//892 512//892
f 512//893 31//893 513//893
f 31//894 30//894 513//894
f 513//895 30//895 514//895
f 30//896 29//896 514//896
f 514//897 29//897 515//897
f 29//898 28//898 515//898
f 515//899 28//899 516//899
f 28//900 27//900 516//900
f 516//901 27//901 104//901
f 27//902 2//902 104//902
f 83//903 96//903 11//903
f 84//904 517//904 83//904
f 85//905 518//905 84//905
f 86//906 520//906 85//906
f 87//907 523//907 86//907
f 88//908 527//908 87//908
f 89//909 532//909 88//909
f 83//910 517//910 96//910
f 517//911 95//911 96//911
f 84//912 518//912 517//912
f 518//913 519//913 517//913
f 517//914 519//914 95//914
f 519//915 94//915 95//915
f 85//916 520//916 518//916
f 520//917 521//917 518//917
f 518//918 521//918 519//918
f 521//919 522//919 519//919
f 519//920 522//920 94//920
f 522//921 93//921 94//921
f 86//922 523//922 520//922
f 523//923 524//923 520//923
f 520//924 524//924 521//924
f 524//925 525//925 521//925
f 521//926 525//926 522//926
f 525//927 526//927 522//927
f 522//928 526//928 93//928
f 526//929 92//929 93//929
f 87//930 527//930 523//930
f 527//931 528//931 523//931
f 523//932 528//932 524//932
f 528//933 529//933 524//933
f 524//934 529//934 525//934
f 529//935 530//935 525//935
f 525//936 530//936 526//936
f 530//937 531//937 526//937
f 526//938 531//938 92//938
f 531//939 91//939 92//939
f 88//940 532//940 527//940
f 532//941 533//941 527//941
f 527//942 533//942 528//942
f 533//943 534//943 528//943
f 528//944 534//944 529//944
f 534//945 535//945 529//945
f 529//946 535//946 530//946
f 535//947 536//947 530//947
f 530//948 536//948 531//948
f 536//949 537//949 531//949
f 531//950 537//950 91//950
f 537//951 90//951 91//951
f 89//952 40//952 532//952
f 40//953 39//953 532//953
f 532//954 39//954 533//954
f 39//955 38//955 533//955
f 533//956 38//956 534//956
f 38//957 37//957 534//957
f 534//958 37//958 535//958
f 37//959 36//959 535//959
f 535//960 36//960 536//960
f 36//961 35//961 536//961
f 536//962 35//962 537//962
f 35//963 34//963 537//963
f 537//964 34//964 90//964
f 34//965 6//965 90//965
f 47//966 82//966 6//966
f 46//967 538//967 47//967
f 45//968 539//968 46//968
f 44//969 541//969 45//969
f 43//970 544//970 44//970
f 42//971 548//971 43//971
f 41//972 553//972 42//972
f 47//973 538//973 82//973
f 538//974 81//974 82//974
f 46//975 539//975 538//975
f 539//976 540//976 538//976
f 538//977 540//977 81//977
f 540//978 80//978 81//978
f 45//979 541//979 539//979
f 541//980 542//980 539//980
f 539//981 542//981 540//981
f 542//982 543//982 540//982
f 540//983 543//983 80//983
f 543//984 79//984 80//984
f 44//985 544//985 541//985
f 544//986 545//986 541//986
f 541//987 545//987 542//987
f 545//988 546//988 542//988
f 542//989 546//989 543//989
f 546//990 547//990 543//990
f 543//991 547//991 79//991
f 547//992 78//992 79//992
f 43//993 548//993 544//993
f 548//994 549//994 544//994
f 544//995 549//995 545//995
f 549//996 550//996 545//996
f 545//997 550//997 546//997
f 550//998 551//998 546//998
f 546//999 551//999 547//999
f 551//1000 552//1000 547//1000
f 547//1001 552//1001 78//1001
f 552//1002 77//1002 78//1002
f 42//1003 553//1003 548//1003
f 553//1004 554//1004 548//1004
f 548//1005 554//1005 549//1005
f 554//1006 555//1006 549//1006
f 549//1007 555//1007 550//1007
f 555//1008 556//1008 550//1008
f 550//1009 556//1009 551//1009
f 556//1010 557//1010 551//1010
f 551//1011 557//1011 552//1011
f 557//1012 558//1012 552//1012
f 552//1013 558//1013 77//1013
f 558//1014 76//1014 77//1014
f 41//1015 68//1015 553//1015
f 68//1016 67//1016 553//1016
f 553//1017 67//1017 554//1017
f 67//1018 66//1018 554//1018
f 554//1019 66//1019 555//1019
f 66//1020 65//1020 555//1020
f 555//1021 65//1021 556//1021
f 65//1022 64//1022 556//1022
f 556//1023 64//1023 557//1023
f 64//1024 63//1024 557//1024
f 557//1025 63//1025 558//1025
f 63//1026 62//1026 558//1026
f 558//1027 62//1027 76//1027
f 62//1028 5//1028 76//1028
f 62//1029 75//1029 5//1029
f 63//1030 559//1030 62//1030
f 64//1031 560//1031 63//1031
f 65//1032 562//1032 64//1032
f 66//1033 565//1033 65//1033
f 67//1034 569//1034 66//1034
f 68//1035 574//1035 67//1035
f 62//1036 559//1036 75//1036
f 559//1037 74//1037 75//1037
f 63//1038 560//1038 559//1038
f 560//1039 561//1039 559//1039
f 559//1040 561//1040 74//1040
f 561//1041 73//1041 74//1041
f 64//1042 562//1042 560//1042
f 562//1043 563//1043 560//1043
f 560//1044 563//1044 561//1044
f 563//1045 564//1045 561//1045
f 561//1046 564//1046 73//1046
f 564//1047 72//1047 73//1047
f 65//1048 565//1048 562//1048
f 565//1049 566//1049 562//1049
f 562//1050 566//1050 563//1050
f 566//1051 567//1051 563//1051
f 563//1052 567//1052 564//1052
f 567//1053 568//1053 564//1053
f 564//1054 568//1054 72//1054
f 568//1055 71//1055 72//1055
f 66//1056 569//1056 565//1056
f 569//1057 570//1057 565//1057
f 565//1058 570//1058 566//1058
f 570//1059 571//1059 566//1059
f 566//1060 571//1060 567//1060
f 571//1061 572//1061 567//1061
f 567//1062 572//1062 568//1062
f 572//1063 573//1063 568//1063
f 568//1064 573//1064 71//1064
f 573//1065 70//1065 71//1065
f 67//1066 574//1066 569//1066
f 574//1067 575//1067 569//1067
f 569//1068 575//1068 570//1068
f 575//1069 576//1069 570//1069
f 570//1070 576//1070 571//1070
f 576//1071 577//1071 571//1071
f 571//1072 577//1072 572//1072
f 577//1073 578//1073 572//1073
f 572//1074 578//1074 573//1074
f 578//1075 579//1075 573//1075
f 573//1076 579//1076 70//1076
f 579//1077 69//1077 70//1077
f 68//1078 54//1078 574//1078
f 54//1079 53//1079 574//1079
f 574//1080 53//1080 575//1080
f 53//1081 52//1081 575//1081
f 575//1082 52//1082 576//1082
f 52//1083 51//1083 576//1083
f 576//1084 51//1084 577//1084
f 51//1085 50//1085 577//1085
f 577//1086 50//1086 578//1086
f 50//1087 49//1087 578//1087
f 578//1088 49//1088 579//1088
f 49//1089 48//1089 579//1089
f 579//1090 48//1090 69//1090
f 48//1091 4//1091 69//1091
f 48//1092 61//1092 4//1092
f 49//1093 580//1093 48//1093
f 50//1094 581//1094 49//1094
f 51//1095 583//1095 50//1095
f 52//1096 586//1096 51//1096
f 53//1097 590//1097 52//1097
f 54//1098 595//1098 53//1098
f 48//1099 580//1099 61//1099
f 580//1100 60//1100 61//1100
f 49//1101 581//1101 580//1101
f 581//1102 582//1102 580//1102
f 580//1103 582//1103 60//1103
f 582//1104 59//1104 60//1104
f 50//1105 583//1105 581//1105
f 583//1106 584//1106 581//1106
f 581//1107 584//1107 582//1107
f 584//1108 585//1108 582//1108
f 582//1109 585//1109 59//1109
f 585//1110 58//1110 59//1110
f 51//1111 586//1111 583//1111
f 586//1112 587//1112 583//1112
f 583//1113 587//1113 584//1113
f 587//1114 588//1114 584//1114
f 584//1115 588//1115 585//1115
f 588//1116 589//1116 585//1116
f 585//1117 589//1117 58//1117
f 589//1118 57//1118 58//1118
f 52//1119 590//1119 586//1119
f 590//1120 591//1120 586//1120
f 586//1121 591//1121 587//1121
f 591//1122 592//1122 587//1122
f 587//1123 592//1123 588//1123
f 592//1124 593//1124 588//1124
f 588//1125 593//1125 589//1125
f 593//1126 594//1126 589//1126
f 589//1127 594//1127 57//1127
f 594//1128 56//1128 57//1128
f 53//1129 595//1129 590//1129
f 595//1130 596//1130 590//1130
f 590//1131 596//1131 591//1131
f 596//1132 597//1132 591//1132
f 591//1133 597//1133 592//1133
f 597//1134 598//1134 592//1134
f 592//1135 598//1135 593//1135
f 598//1136 599//1136 593//1136
f 593//1137 599//1137 594//1137
f 599//1138 600//1138 594//1138
f 594//1139 600//1139 56//1139
f 600//1140 55//1140 56//1140
f 54//1141 19//1141 595//1141
f 19//1142 18//1142 595//1142
f 595//1143 18//1143 596//1143
f 18//1144 17//1144 596//1144
f 596//1145 17//1145 597//1145
f 17//1146 16//1146 597//1146
f 597//1147 16//1147 598//1147
f 16//1148 15//1148 598//1148
f 598//1149 15//1149 599//1149
f 15//1150 14//1150 599//1150
f 599//1151 14//1151 600//1151
f 14//1152 13//1152 600//1152
f 600//1153 13//1153 55//1153
f 13//1154 3//1154 55//1154
f 34//1155 47//1155 6//1155
f 35//1156 601//1156 34//1156
f 36//1157 602//1157 35//1157
f 37//1158 604//1158 36//1158
f 38//1159 607//1159 37//1159
f 39//1160 611//1160 38//1160
f 40//1161 616//1161 39//1161
f 34//1162 601//1162 47//1162
f 601//1163 46//1163 47//1163
f 35//1164 602//1164 601//1164
f 602//1165 603//1165 601//1165
f 601//1166 603//1166 46//1166
f 603//1167 45//1167 46//1167
f 36//1168 604//1168 602//1168
f 604//1169 605//1169 602//1169
f 602//1170 605//1170 603//1170
f 605//1171 606//1171 603//1171
f 603//1172 606//1172 45//1172
f 606//1173 44//1173 45//1173
f 37//1174 607//1174 604//1174
f 607//1175 608//1175 604//1175
f 604//1176 608//1176 605//1176
f 608//1177 609//1177 605//1177
f 605//1178 609//1178 606//1178
f 609//1179 610//1179 606//1179
f 606//1180 610//1180 44//1180
f 610//1181 43//1181 44//1181
f 38//1182 611//1182 607//1182
f 611//1183 612//1183 607//1183
f 607//1184 612//1184 608//1184
f 612//1185 613//1185 608//1185
f 608//1186 613//1186 609//1186
f 613//1187 614//1187 609//1187
f 609//1188 614//1188 610//1188
f 614//1189 615//1189 610//1189
f 610//1190 615//1190 43//1190
f 615//1191 42//1191 43//1191
f 39//1192 616//1192 611//1192
f 616//1193 617//1193 611//1193
f 611//1194 617//1194 612//1194
f 617//1195 618//1195 612//1195
f 612//1196 618//1196 613//1196
f 618//1197 619//1197 613//1197
f 613//1198 619//1198 614//1198
f 619//1199 620//1199 614//1199
f 614//1200 620//1200 615//1200
f 620//1201 621//1201 615//1201
f 615//1202 621//1202 42//1202
f 621//1203 41//1203 42//1203
f 40//1204 26//1204 616//1204
f 26//1205 25//1205 616//1205
f 616//1206 25//1206 617//1206
f 25//1207 24//1207 617//1207
f 617//1208 24//1208 618//1208
f 24//1209 23//1209 618//1209
f 618//1210 23//1210 619//1210
f 23//1211 22//1211 619//1211
f 619//1212 22//1212 620//1212
f 22//1213 21//1213 620//1213
f 620//1214 21//1214 621//1214
f 21//1215 20//1215 621//1215
f 621//1216 20//1216 41//1216
f 20//1217 1//1217 41//1217
f 13//1218 33//1218 3//1218
f 14//1219 622//1219 13//1219
f 15//1220 623//1220 14//1220
f 16//1221 625//1221 15//1221
f 17//1222 628//1222 16//1222
f 18//1223 632//1223 17//1223
f 19//1224 637//1224 18//1224
f 13//1225 622//1225 33//1225
f 622//1226 32//1226 33//1226
f 14//1227 623//1227 622//1227
f 623//1228 624//1228 622//1228
f 622//1229 624//1229 32//1229
f 624//1230 31//1230 32//1230
f 15//1231 625//1231 623//1231
f 625//1232 626//1232 623//1232
f 623//1233 626//1233 624//1233
f 626//1234 627//1234 624//1234
f 624//1235 627//1235 31//1235
f 627//1236 30//1236 31//1236
f 16//1237 628//1237 625//1237
f 628//1238 629//1238 625//1238
f 625//1239 629//1239 626//1239
f 629//1240 630//1240 626//1240
f 626//1241 630//1241 627//1241
f 630//1242 631//1242 627//1242
f 627//1243 631//1243 30//1243
f 631//1244 29//1244 30//1244
f 17//1245 632//1245 628//1245
f 632//1246 633//1246 628//1246
f 628//1247 633//1247 629//1247
f 633//1248 634//1248 629//1248
f 629//1249 634//1249 630//1249
f 634//1250 635//1250 630//1250
f 630//1251 635//1251 631//1251
f 635//1252 636//1252 631//1252
f 631//1253 636//1253 29//1253
f 636//1254 28//1254 29//1254
f 18//1255 637//1255 632//1255
f 637//1256 638//1256 632//1256
f 632//1257 638//1257 633//1257
f 638//1258 639//1258 633//1258
f 633//1259 639//1259 634//1259
f 639//1260 640//1260 634//1260
f 634//1261 640//1261 635//1261
f 640//1262 641//1262 635//1262
f 635//1263 641//1263 636//1263
f 641//1264 642//1264 636//1264
f 636//1265 642//1265 28//1265
f 642//1266 27//1266 28//1266
f 19//1267 20//1267 637//1267
f 20//1268 21//1268 637//1268
f 637//1269 21//1269 638//1269
f 21//1270 22//1270 638//1270
f 638//1271 22//1271 639//1271
f 22//1272 23//1272 639//1272
f 639//1273 23//1273 640//1273
f 23//1274 24//1274 640//1274
f 640//1275 24//1275 641//1275
f 24//1276 25//1276 641//1276
f 641//1277 25//1277 642//1277
f 25//1278 26//1278 642//1278
f 642//1279 26//1279 27//1279
f 26//1280 2//1280 27//1280
