# Blender 4.0.2
# www.blender.org
o rock_48
v -0.004007 -0.354461 0.002365
v 0.351513 -0.141888 0.155878
v -0.126437 -0.158201 0.267253
v -0.481931 -0.173804 0.011969
v -0.144365 -0.161804 -0.305413
v 0.344505 -0.136115 -0.147439
v 0.135828 0.137237 0.247651
v -0.367665 0.161308 0.179389
v -0.373872 0.157681 -0.192258
v 0.134114 0.146864 -0.256853
v 0.429601 0.141243 0.000115
v 0.000822 0.332786 -0.004880
v -0.119299 -0.187290 0.247909
v -0.109743 -0.215421 0.218576
v -0.099614 -0.244808 0.187484
v -0.086542 -0.271233 0.154743
v -0.069116 -0.300913 0.121746
v -0.046784 -0.329107 0.083105
v -0.024460 -0.347545 0.042358
v 0.046192 -0.352220 0.024067
v 0.102945 -0.345226 0.048483
v 0.160474 -0.322919 0.075950
v 0.214085 -0.291233 0.100120
v 0.259445 -0.250026 0.118069
v 0.297045 -0.210122 0.132534
v 0.328268 -0.174750 0.145716
v 0.310515 -0.151522 0.179638
v 0.259415 -0.160190 0.204205
v 0.200241 -0.170891 0.234040
v 0.127102 -0.172935 0.252076
v 0.050117 -0.168512 0.258643
v -0.018760 -0.160847 0.253419
v -0.077361 -0.160303 0.261843
v 0.368613 -0.145935 -0.118171
v 0.391068 -0.156956 -0.084110
v 0.407369 -0.165350 -0.044938
v 0.412307 -0.167195 -0.001641
v 0.398498 -0.156614 0.041295
v 0.387057 -0.152616 0.083585
v 0.372232 -0.148939 0.122780
v 0.048383 -0.350453 -0.023650
v 0.102413 -0.331666 -0.049175
v 0.156258 -0.304906 -0.071713
v 0.208909 -0.276507 -0.094259
v 0.258625 -0.248733 -0.117954
v 0.296998 -0.211226 -0.133506
v 0.324863 -0.172538 -0.142516
v -0.455326 -0.218740 0.005444
v -0.409995 -0.264540 0.000678
v -0.347410 -0.302640 0.008887
v -0.280192 -0.330867 0.011742
v -0.201070 -0.350009 0.006244
v -0.128448 -0.349639 0.006021
v -0.064548 -0.349579 0.005661
v -0.185217 -0.179000 0.267090
v -0.248855 -0.190112 0.237982
v -0.300325 -0.193228 0.214630
v -0.353927 -0.196342 0.178315
v -0.403243 -0.194244 0.144684
v -0.447539 -0.190756 0.097042
v -0.469519 -0.180992 0.045848
v -0.137709 -0.203659 -0.286517
v -0.124115 -0.250086 -0.255624
v -0.104755 -0.282131 -0.209786
v -0.085506 -0.304641 -0.165345
v -0.064245 -0.326795 -0.126770
v -0.042099 -0.351001 -0.084969
v -0.021868 -0.356164 -0.035273
v -0.478777 -0.196989 -0.035999
v -0.456141 -0.211197 -0.090763
v -0.418608 -0.214228 -0.148636
v -0.371367 -0.205035 -0.197653
v -0.316662 -0.192203 -0.238181
v -0.259748 -0.179629 -0.262868
v -0.205636 -0.176020 -0.289649
v -0.085405 -0.169310 -0.306557
v -0.014697 -0.178452 -0.298717
v 0.059530 -0.181439 -0.280763
v 0.131277 -0.176501 -0.257295
v 0.200477 -0.171817 -0.235140
v 0.262431 -0.165732 -0.210989
v 0.306651 -0.149294 -0.175202
v 0.437749 0.108451 0.018188
v 0.437125 0.071542 0.036217
v 0.435029 0.035351 0.055857
v 0.433649 0.000256 0.078739
v 0.424900 -0.037199 0.101415
v 0.406229 -0.075207 0.121791
v 0.380534 -0.110352 0.140231
v 0.377938 -0.107255 -0.136692
v 0.409962 -0.075559 -0.124432
v 0.437236 -0.039420 -0.108877
v 0.450200 -0.000002 -0.087272
v 0.451183 0.038338 -0.062431
v 0.452161 0.075496 -0.041812
v 0.437494 0.106786 -0.020075
v 0.110013 0.109796 0.268934
v 0.077968 0.078160 0.286438
v 0.041813 0.042311 0.302170
v 0.002557 -0.003003 0.315954
v -0.036933 -0.049349 0.311204
v -0.075280 -0.092328 0.303710
v -0.105678 -0.128573 0.284627
v 0.344774 -0.112608 0.177430
v 0.331000 -0.078033 0.197468
v 0.308941 -0.039527 0.213754
v 0.278539 0.000293 0.224114
v 0.243653 0.038948 0.232679
v 0.205657 0.074715 0.237293
v 0.167690 0.104230 0.235722
v -0.406792 0.128369 0.171440
v -0.442388 0.088381 0.160492
v -0.473492 0.043250 0.141317
v -0.499778 -0.005073 0.115126
v -0.505748 -0.053088 0.083257
v -0.502210 -0.097045 0.055924
v -0.494321 -0.137388 0.033459
v -0.172632 -0.132943 0.298391
v -0.223638 -0.092445 0.301582
v -0.273629 -0.049549 0.296675
v -0.308292 -0.000850 0.273702
v -0.330294 0.043687 0.256304
v -0.348802 0.087635 0.236318
v -0.362926 0.128019 0.209375
v -0.364754 0.126497 -0.212141
v -0.353873 0.090580 -0.241744
v -0.329649 0.045056 -0.262728
v -0.298930 -0.001442 -0.277668
v -0.265916 -0.043761 -0.281496
v -0.234772 -0.081634 -0.296088
v -0.191390 -0.125763 -0.311514
v -0.505618 -0.143876 -0.015832
v -0.521510 -0.104470 -0.049525
v -0.529508 -0.055291 -0.090058
v -0.513456 -0.001650 -0.126672
v -0.481510 0.048659 -0.152822
v -0.445124 0.090959 -0.168943
v -0.407215 0.124604 -0.178755
v 0.175265 0.119873 -0.269302
v 0.215774 0.083066 -0.268842
v 0.252140 0.041989 -0.255788
v 0.281470 0.000401 -0.232400
v 0.307681 -0.039940 -0.212804
v 0.327690 -0.076673 -0.192529
v 0.338601 -0.107713 -0.168849
v -0.113919 -0.122931 -0.316228
v -0.081427 -0.083420 -0.321740
v -0.043339 -0.041656 -0.328467
v -0.002295 0.002109 -0.323113
v 0.037807 0.045210 -0.319757
v 0.075375 0.087192 -0.303566
v 0.106841 0.120098 -0.278767
v 0.419705 0.150544 0.031669
v 0.398053 0.155446 0.067047
v 0.370044 0.161389 0.106136
v 0.329961 0.161598 0.141629
v 0.277388 0.151881 0.166455
v 0.227562 0.146723 0.194000
v 0.180032 0.142231 0.221492
v 0.079788 0.156359 0.268243
v 0.011110 0.161986 0.262884
v -0.058317 0.162334 0.248292
v -0.126062 0.167606 0.244869
v -0.197378 0.170913 0.240912
v -0.266275 0.169176 0.224689
v -0.321307 0.166403 0.202412
v -0.391622 0.172636 0.144450
v -0.413300 0.182452 0.106747
v -0.434831 0.196464 0.057854
v -0.442557 0.203397 0.001705
v -0.439680 0.203708 -0.055559
v -0.426391 0.194034 -0.112259
v -0.402683 0.175274 -0.158917
v -0.318975 0.168887 -0.214533
v -0.250439 0.168097 -0.221297
v -0.192410 0.165352 -0.220140
v -0.133666 0.172151 -0.236394
v -0.060286 0.175979 -0.255392
v 0.013461 0.166020 -0.257970
v 0.076929 0.156653 -0.260372
v 0.182543 0.151290 -0.233048
v 0.232751 0.155073 -0.206722
v 0.279605 0.153890 -0.170285
v 0.327977 0.158350 -0.138470
v 0.369539 0.160970 -0.104970
v 0.398881 0.156583 -0.067873
v 0.417677 0.148626 -0.031938
v 0.019132 0.331851 0.035567
v 0.039629 0.317555 0.073713
v 0.060472 0.298743 0.112578
v 0.080488 0.272477 0.150355
v 0.098194 0.239643 0.182411
v 0.113746 0.208708 0.212016
v 0.127044 0.174873 0.236068
v 0.407786 0.178088 0.000208
v 0.367687 0.209960 -0.000320
v 0.320260 0.248719 -0.000348
v 0.255053 0.268263 -0.000031
v 0.188858 0.291721 -0.000119
v 0.122576 0.310354 -0.001268
v 0.058900 0.321229 -0.002993
v -0.048174 0.336733 0.020392
v -0.101337 0.332699 0.046256
v -0.157193 0.321486 0.073737
v -0.216295 0.307020 0.105983
v -0.272945 0.274214 0.135575
v -0.314099 0.226817 0.151758
v -0.341677 0.191563 0.162829
v -0.047101 0.325581 -0.028652
v -0.099429 0.319653 -0.053317
v -0.152167 0.298976 -0.077792
v -0.205730 0.281912 -0.104827
v -0.254930 0.259645 -0.127813
v -0.301917 0.236438 -0.154384
v -0.343778 0.202646 -0.178455
v 0.018062 0.318170 -0.040099
v 0.036245 0.301268 -0.074621
v 0.056258 0.281073 -0.107659
v 0.076323 0.259670 -0.141691
v 0.095211 0.235680 -0.175491
v 0.111688 0.206897 -0.207696
v 0.124404 0.175926 -0.233382
v 0.080439 0.309336 -0.039231
v 0.146875 0.290639 -0.038239
v 0.102672 0.288429 -0.074835
v 0.217783 0.276199 -0.038204
v 0.171547 0.270191 -0.075159
v 0.124067 0.262869 -0.108721
v 0.287299 0.255299 -0.038579
v 0.243027 0.251619 -0.076004
v 0.191868 0.238858 -0.107937
v 0.143658 0.237031 -0.141566
v 0.345471 0.223670 -0.037920
v 0.310915 0.228670 -0.076968
v 0.260417 0.216857 -0.109158
v 0.211334 0.215027 -0.144659
v 0.161075 0.211701 -0.177261
v 0.390613 0.188414 -0.035978
v 0.365832 0.198467 -0.075725
v 0.326548 0.198147 -0.112970
v 0.275338 0.189069 -0.144425
v 0.223400 0.183076 -0.174921
v 0.173441 0.180753 -0.206349
v -0.030006 0.306989 -0.065482
v -0.012667 0.285591 -0.098033
v -0.082329 0.297139 -0.091100
v 0.005206 0.267349 -0.134691
v -0.064747 0.274204 -0.128456
v -0.138195 0.281770 -0.117794
v 0.023748 0.242534 -0.167279
v -0.046546 0.242406 -0.157823
v -0.119292 0.250683 -0.154065
v -0.189389 0.256322 -0.144256
v 0.044166 0.221358 -0.205242
v -0.028216 0.222742 -0.188448
v -0.100454 0.226175 -0.182952
v -0.169374 0.223129 -0.175972
v -0.236703 0.233286 -0.170663
v 0.062546 0.188901 -0.236675
v -0.007523 0.200187 -0.230995
v -0.081902 0.204177 -0.217921
v -0.152847 0.197171 -0.204595
v -0.211598 0.194493 -0.198739
v -0.278886 0.203599 -0.194173
v -0.101952 0.328537 -0.004823
v -0.159077 0.319437 -0.031630
v -0.160792 0.326927 0.021345
v -0.218560 0.305160 -0.059900
v -0.225989 0.316068 -0.004693
v -0.225399 0.319373 0.051120
v -0.274036 0.279473 -0.085956
v -0.288440 0.294050 -0.030150
v -0.289870 0.291839 0.023470
v -0.288428 0.294328 0.082669
v -0.325957 0.254710 -0.110954
v -0.344744 0.266722 -0.056776
v -0.347698 0.264180 -0.000056
v -0.346992 0.263491 0.055346
v -0.333765 0.245052 0.110740
v -0.371937 0.221443 -0.136556
v -0.390953 0.232283 -0.083195
v -0.397522 0.233695 -0.026381
v -0.397667 0.232174 0.028090
v -0.387326 0.222093 0.086283
v -0.362094 0.201629 0.126977
v -0.030987 0.324879 0.060799
v -0.085767 0.320060 0.090350
v -0.012167 0.318466 0.104664
v -0.143815 0.308135 0.122398
v -0.068058 0.299535 0.136038
v 0.008345 0.291974 0.146935
v -0.202058 0.282595 0.155704
v -0.124900 0.278589 0.169644
v -0.047923 0.267230 0.176695
v 0.028934 0.262328 0.187446
v -0.254598 0.243453 0.179841
v -0.178858 0.243702 0.196317
v -0.102057 0.236144 0.203842
v -0.027310 0.229860 0.208822
v 0.047378 0.220921 0.212510
v -0.293660 0.199709 0.191351
v -0.228004 0.206845 0.216432
v -0.151973 0.201952 0.224283
v -0.079690 0.196429 0.229283
v -0.007353 0.197247 0.238902
v 0.063894 0.189659 0.239964
v 0.082401 0.317859 0.036960
v 0.105015 0.297762 0.074823
v 0.148602 0.296353 0.037789
v 0.127769 0.278829 0.115013
v 0.174220 0.278305 0.076269
v 0.217313 0.274362 0.037793
v 0.146666 0.246216 0.149923
v 0.197608 0.255473 0.116351
v 0.243700 0.253647 0.076859
v 0.285803 0.252615 0.038174
v 0.162029 0.211643 0.179286
v 0.214622 0.222733 0.151297
v 0.264354 0.226280 0.114842
v 0.311178 0.230506 0.078283
v 0.342515 0.219152 0.036719
v 0.173493 0.177189 0.203754
v 0.222785 0.181692 0.173911
v 0.275681 0.190961 0.145899
v 0.326538 0.199351 0.114481
v 0.363346 0.195114 0.074488
v 0.393195 0.190594 0.035924
v 0.430677 0.116504 -0.055195
v 0.434897 0.079240 -0.077774
v 0.405811 0.120264 -0.091861
v 0.436388 0.041115 -0.103892
v 0.411036 0.083676 -0.119814
v 0.373867 0.124417 -0.131890
v 0.422920 -0.000170 -0.123375
v 0.402815 0.042660 -0.142412
v 0.368653 0.083904 -0.155683
v 0.327496 0.122618 -0.167013
v 0.401608 -0.040660 -0.142822
v 0.381930 0.000251 -0.159509
v 0.354709 0.042189 -0.178145
v 0.318821 0.083047 -0.193640
v 0.277406 0.121599 -0.203703
v 0.374521 -0.077714 -0.160964
v 0.355526 -0.040284 -0.175490
v 0.331748 0.000489 -0.194320
v 0.305980 0.043123 -0.221378
v 0.269880 0.084743 -0.237061
v 0.226332 0.121040 -0.238003
v 0.044340 0.129083 -0.282313
v 0.006156 0.091986 -0.305359
v -0.026600 0.140102 -0.289801
v -0.036695 0.047965 -0.318610
v -0.074133 0.097098 -0.307579
v -0.107919 0.141385 -0.270975
v -0.079753 0.004260 -0.326263
v -0.117041 0.052024 -0.308983
v -0.152653 0.101954 -0.285039
v -0.177826 0.138883 -0.248002
v -0.119161 -0.042405 -0.322994
v -0.159922 0.004764 -0.317747
v -0.197844 0.056553 -0.299386
v -0.220629 0.101224 -0.262989
v -0.235466 0.135038 -0.240183
v -0.155778 -0.083463 -0.321371
v -0.200521 -0.040687 -0.310228
v -0.236480 0.002624 -0.293899
v -0.261946 0.052926 -0.276399
v -0.282495 0.095976 -0.258160
v -0.302890 0.133863 -0.236443
v -0.441803 0.141071 -0.147132
v -0.483654 0.100359 -0.128467
v -0.476581 0.161185 -0.096977
v -0.523288 0.051047 -0.099671
v -0.519757 0.110333 -0.067832
v -0.491860 0.168563 -0.030641
v -0.536767 -0.004118 -0.060989
v -0.535803 0.050182 -0.029792
v -0.523822 0.109967 0.002466
v -0.485714 0.163927 0.033854
v -0.533336 -0.058025 -0.023162
v -0.538289 -0.005774 0.005664
v -0.527775 0.047522 0.035155
v -0.509034 0.105533 0.066078
v -0.464858 0.154483 0.091705
v -0.516106 -0.101669 0.009611
v -0.520644 -0.055907 0.035575
v -0.517341 -0.006406 0.061351
v -0.507666 0.045036 0.092098
v -0.479537 0.097933 0.121756
v -0.433963 0.140219 0.136628
v -0.308674 0.132017 0.231565
v -0.292249 0.093620 0.255103
v -0.248618 0.137766 0.251990
v -0.272686 0.052605 0.285292
v -0.225248 0.100833 0.281474
v -0.173427 0.139058 0.263739
v -0.238764 0.002240 0.310165
v -0.195516 0.056815 0.304942
v -0.148146 0.102359 0.287675
v -0.100692 0.138060 0.267719
v -0.192146 -0.054110 0.312931
v -0.159678 -0.001809 0.327857
v -0.115971 0.054842 0.323759
v -0.068986 0.100279 0.302180
v -0.027241 0.131742 0.275536
v -0.145086 -0.092531 0.302816
v -0.114518 -0.055001 0.319206
v -0.073615 -0.004096 0.326505
v -0.031232 0.047315 0.316376
v 0.008264 0.088348 0.296836
v 0.044384 0.121115 0.280256
v 0.217724 0.110181 0.213649
v 0.258898 0.077013 0.210316
v 0.269471 0.113873 0.186635
v 0.300391 0.040305 0.208128
v 0.313382 0.079173 0.182140
v 0.322200 0.118409 0.158785
v 0.334665 -0.000082 0.197746
v 0.357187 0.042051 0.180801
v 0.369863 0.084082 0.157099
v 0.372409 0.123490 0.130407
v 0.358067 -0.040209 0.179752
v 0.384476 0.000171 0.163779
v 0.401214 0.041952 0.142105
v 0.409991 0.083780 0.119420
v 0.405359 0.120235 0.091699
v 0.373297 -0.077639 0.160578
v 0.397879 -0.039109 0.140770
v 0.422393 0.000370 0.125252
v 0.428232 0.039983 0.099931
v 0.428710 0.078062 0.075792
v 0.427276 0.115776 0.053259
v 0.147931 0.085999 -0.292174
v 0.188385 0.044191 -0.287495
v 0.113663 0.044590 -0.305188
v 0.225887 -0.000092 -0.274963
v 0.153746 0.000098 -0.302467
v 0.074616 0.001246 -0.317031
v 0.255263 -0.043240 -0.249247
v 0.189761 -0.046316 -0.283399
v 0.113424 -0.047057 -0.313894
v 0.032638 -0.044013 -0.325590
v 0.279689 -0.083543 -0.225629
v 0.219517 -0.089544 -0.258848
v 0.149547 -0.095931 -0.295224
v 0.069463 -0.094957 -0.314849
v -0.010373 -0.090450 -0.326482
v 0.295881 -0.118494 -0.199191
v 0.243518 -0.129087 -0.233801
v 0.176836 -0.135150 -0.260969
v 0.103711 -0.141761 -0.290135
v 0.026041 -0.142167 -0.312768
v -0.050394 -0.132742 -0.317578
v -0.402959 0.089653 -0.202914
v -0.386323 0.043888 -0.224087
v -0.434790 0.048123 -0.191863
v -0.361447 -0.001513 -0.246497
v -0.416372 0.000952 -0.215103
v -0.467663 0.000396 -0.176727
v -0.323819 -0.048118 -0.261332
v -0.385351 -0.048082 -0.232697
v -0.440124 -0.049591 -0.196754
v -0.493873 -0.053076 -0.152833
v -0.285701 -0.086007 -0.268564
v -0.345690 -0.093899 -0.248517
v -0.405619 -0.097670 -0.216291
v -0.463182 -0.103975 -0.175752
v -0.508473 -0.110326 -0.114205
v -0.251232 -0.128521 -0.279245
v -0.303005 -0.134127 -0.258119
v -0.362109 -0.145489 -0.228660
v -0.421288 -0.159446 -0.193210
v -0.473154 -0.167395 -0.136398
v -0.498517 -0.157944 -0.070969
v -0.402298 0.088973 0.198922
v -0.434540 0.044567 0.182742
v -0.385818 0.042725 0.224857
v -0.461027 -0.002262 0.162424
v -0.413973 -0.002495 0.207321
v -0.357879 -0.004523 0.240281
v -0.478618 -0.053911 0.134750
v -0.439910 -0.052953 0.185703
v -0.380960 -0.048829 0.225514
v -0.330022 -0.047977 0.255156
v -0.486217 -0.103160 0.104765
v -0.449773 -0.105592 0.153950
v -0.403801 -0.103254 0.204445
v -0.345147 -0.096868 0.240954
v -0.292935 -0.099134 0.271214
v -0.480010 -0.144901 0.073969
v -0.449018 -0.149219 0.124811
v -0.409312 -0.154876 0.170223
v -0.357094 -0.154976 0.216198
v -0.299577 -0.147392 0.244092
v -0.244402 -0.145960 0.278286
v 0.142536 0.074256 0.252285
v 0.112822 0.042174 0.275459
v 0.178839 0.040621 0.250844
v 0.076090 -0.000366 0.297591
v 0.148523 0.002464 0.276045
v 0.218403 0.001717 0.251934
v 0.034131 -0.046502 0.298677
v 0.107728 -0.041850 0.282999
v 0.186205 -0.041864 0.274101
v 0.254409 -0.041410 0.246083
v -0.007882 -0.088651 0.295607
v 0.064707 -0.086265 0.288109
v 0.144569 -0.090526 0.287444
v 0.220935 -0.089970 0.263210
v 0.282882 -0.084844 0.231479
v -0.046457 -0.131941 0.280512
v 0.020239 -0.132501 0.280848
v 0.096797 -0.134983 0.276671
v 0.176671 -0.136831 0.264277
v 0.242673 -0.127814 0.231066
v 0.300378 -0.121545 0.206208
v 0.448556 0.073716 -0.002604
v 0.448091 0.037041 0.016740
v 0.461711 0.040273 -0.023478
v 0.446042 0.000280 0.038496
v 0.452001 0.001013 -0.002408
v 0.456680 0.000970 -0.044273
v 0.434574 -0.036579 0.059477
v 0.445236 -0.037175 0.018474
v 0.453297 -0.039269 -0.023586
v 0.448755 -0.039209 -0.066596
v 0.424435 -0.077479 0.084232
v 0.428887 -0.075623 0.039769
v 0.439529 -0.078964 -0.002257
v 0.442773 -0.081621 -0.045212
v 0.429537 -0.078688 -0.086517
v 0.402811 -0.116082 0.105626
v 0.414527 -0.117244 0.063472
v 0.426164 -0.122263 0.020092
v 0.431531 -0.126045 -0.023711
v 0.422506 -0.122933 -0.066161
v 0.402670 -0.115588 -0.104209
v 0.283514 -0.192414 -0.175073
v 0.246779 -0.232567 -0.162967
v 0.227558 -0.207376 -0.205186
v 0.199161 -0.269349 -0.143149
v 0.180937 -0.246428 -0.189185
v 0.157021 -0.213361 -0.227885
v 0.143437 -0.295724 -0.116280
v 0.126267 -0.279621 -0.165143
v 0.104923 -0.248461 -0.206711
v 0.083425 -0.218119 -0.249589
v 0.087303 -0.321326 -0.092236
v 0.069116 -0.307234 -0.136805
v 0.050357 -0.287975 -0.185968
v 0.029224 -0.262015 -0.235625
v 0.006916 -0.222066 -0.274808
v 0.032345 -0.347545 -0.068325
v 0.012928 -0.326875 -0.110270
v -0.009218 -0.317807 -0.156206
v -0.032362 -0.294479 -0.205527
v -0.052351 -0.260262 -0.249161
v -0.070547 -0.218494 -0.289192
v -0.195359 -0.222249 -0.266034
v -0.179382 -0.268397 -0.229276
v -0.252823 -0.233588 -0.237002
v -0.157134 -0.302490 -0.180704
v -0.237475 -0.282158 -0.193032
v -0.312344 -0.248865 -0.199886
v -0.133926 -0.321620 -0.133559
v -0.213351 -0.312485 -0.142295
v -0.293870 -0.291538 -0.150295
v -0.364208 -0.252536 -0.151823
v -0.113130 -0.341231 -0.087427
v -0.186732 -0.337262 -0.093749
v -0.266770 -0.320074 -0.099750
v -0.346487 -0.292333 -0.101729
v -0.409167 -0.253024 -0.097072
v -0.088982 -0.352883 -0.037532
v -0.156763 -0.345421 -0.042746
v -0.236129 -0.340683 -0.047642
v -0.317010 -0.320085 -0.047202
v -0.384513 -0.280400 -0.044648
v -0.435628 -0.238946 -0.041759
v -0.438139 -0.232266 0.050304
v -0.375997 -0.281343 0.056757
v -0.397324 -0.240941 0.108164
v -0.302932 -0.297957 0.061514
v -0.323830 -0.272948 0.105486
v -0.343985 -0.235626 0.147777
v -0.232970 -0.324939 0.063893
v -0.256784 -0.293442 0.103935
v -0.274203 -0.262904 0.142426
v -0.290911 -0.232179 0.182106
v -0.154963 -0.334354 0.057311
v -0.178704 -0.304521 0.099442
v -0.202692 -0.282149 0.137972
v -0.221671 -0.249337 0.172057
v -0.235883 -0.220382 0.203957
v -0.087106 -0.338797 0.047630
v -0.110589 -0.317419 0.092649
v -0.129842 -0.289161 0.128430
v -0.147813 -0.268897 0.164320
v -0.166182 -0.244930 0.203965
v -0.178541 -0.212716 0.238856
v 0.346464 -0.183212 -0.107462
v 0.368391 -0.197802 -0.070106
v 0.313820 -0.220837 -0.092942
v 0.376243 -0.199950 -0.024936
v 0.326336 -0.228389 -0.048846
v 0.267657 -0.251960 -0.071687
v 0.371686 -0.194764 0.022029
v 0.326717 -0.225500 -0.000574
v 0.271981 -0.252703 -0.023815
v 0.215970 -0.284358 -0.048422
v 0.361755 -0.189843 0.067322
v 0.322316 -0.223761 0.046963
v 0.273927 -0.257835 0.024688
v 0.219462 -0.290038 -0.000004
v 0.161643 -0.318400 -0.025512
v 0.346102 -0.181976 0.108200
v 0.312037 -0.218652 0.091719
v 0.271036 -0.260401 0.073748
v 0.220310 -0.297052 0.050673
v 0.162529 -0.322036 0.024317
v 0.103722 -0.339792 -0.001622
v -0.066181 -0.187410 0.242329
v -0.055899 -0.224092 0.221024
v -0.002087 -0.191172 0.241624
v -0.039888 -0.261181 0.189145
v 0.019054 -0.240760 0.224870
v 0.076247 -0.205698 0.241226
v -0.018901 -0.300947 0.156794
v 0.043379 -0.281184 0.188329
v 0.103385 -0.249376 0.212488
v 0.155560 -0.209438 0.225707
v 0.004424 -0.330944 0.111673
v 0.066974 -0.315379 0.146769
v 0.126687 -0.282534 0.170300
v 0.180268 -0.243552 0.189047
v 0.225667 -0.202076 0.200911
v 0.026308 -0.342423 0.065662
v 0.087061 -0.340306 0.098158
v 0.146164 -0.307929 0.124098
v 0.201215 -0.274736 0.147558
v 0.247898 -0.233545 0.164202
v 0.281278 -0.186990 0.170046
vn -0.0244 -0.9871 0.1582
vn 0.6176 -0.5957 0.5135
vn -0.0724 -0.9884 0.1339
vn -0.0757 -0.9938 0.0809
vn 0.0798 -0.9968 0.0072
vn 0.7339 -0.4047 0.5456
vn 0.0693 -0.5403 0.8386
vn -0.8727 -0.4316 0.2282
vn -0.1542 -0.3571 -0.9213
vn 0.6294 -0.3801 -0.6778
vn 0.6933 -0.3169 0.6473
vn 0.1989 -0.5957 0.7782
vn -0.8594 -0.4430 0.2553
vn -0.0507 -0.2306 -0.9717
vn 0.5801 -0.4100 -0.7038
vn 0.4456 0.3567 0.8211
vn -0.3862 0.6755 0.6281
vn -0.4793 0.5345 -0.6962
vn 0.1572 0.6518 -0.7420
vn 0.8431 0.4997 -0.1985
vn 0.1958 0.9360 -0.2926
vn 0.1701 0.9618 -0.2146
vn 0.2619 0.9124 -0.3144
vn 0.3314 0.9346 -0.1292
vn 0.2858 0.9548 -0.0821
vn 0.6302 0.7711 -0.0912
vn 0.6212 0.7803 -0.0721
vn 0.1395 0.9624 -0.2329
vn 0.1350 0.9161 -0.3774
vn 0.2615 0.9125 -0.3147
vn 0.2573 0.8948 -0.3648
vn 0.1712 0.8925 -0.4172
vn 0.1693 0.8832 -0.4373
vn 0.1938 0.9511 -0.2404
vn 0.1849 0.9069 -0.3787
vn 0.2389 0.9083 -0.3434
vn 0.2202 0.8405 -0.4950
vn 0.2178 0.8404 -0.4963
vn 0.2295 0.8792 -0.4176
vn 0.2866 0.9546 -0.0813
vn 0.2623 0.8796 -0.3968
vn 0.2233 0.8786 -0.4222
vn 0.1918 0.7661 -0.6134
vn 0.2809 0.7747 -0.5664
vn 0.2989 0.8285 -0.4735
vn 0.2795 0.8286 -0.4851
vn 0.2865 0.8496 -0.4429
vn 0.4642 0.8485 -0.2542
vn 0.4585 0.8370 -0.2986
vn 0.2850 0.8608 -0.4218
vn 0.2377 0.7300 -0.6408
vn 0.2224 0.7288 -0.6475
vn 0.2707 0.8667 -0.4190
vn 0.2625 0.8670 -0.4235
vn 0.2524 0.8430 -0.4751
vn 0.2941 0.8413 -0.4535
vn 0.2698 0.7824 -0.5613
vn 0.6157 0.7841 -0.0779
vn 0.6098 0.7706 -0.1853
vn 0.4643 0.8317 -0.3044
vn 0.4347 0.7712 -0.4651
vn 0.1892 0.7880 -0.5859
vn 0.1969 0.8089 -0.5540
vn 0.3281 0.8045 -0.4951
vn 0.2917 0.7135 -0.6370
vn 0.3493 0.7105 -0.6109
vn 0.3499 0.7120 -0.6088
vn 0.3158 0.7138 -0.6252
vn 0.3021 0.6790 -0.6691
vn 0.8146 0.5302 -0.2353
vn 0.8015 0.5142 -0.3054
vn 0.7679 0.5419 -0.3417
vn 0.7182 0.4707 -0.5125
vn 0.5783 0.5365 -0.6146
vn 0.5362 0.4690 -0.7019
vn 0.3837 0.5079 -0.7712
vn 0.4136 0.5713 -0.7089
vn 0.3615 0.5803 -0.7298
vn 0.4261 0.7374 -0.5240
vn 0.3234 0.7553 -0.5700
vn 0.2946 0.6901 -0.6611
vn 0.2962 0.6900 -0.6604
vn 0.2829 0.6581 -0.6978
vn 0.0415 0.9299 -0.3656
vn 0.0183 0.9018 -0.4319
vn -0.0184 0.8481 -0.5295
vn 0.0419 0.8567 -0.5141
vn 0.0125 0.8187 -0.5741
vn 0.1431 0.7732 -0.6178
vn 0.1790 0.6706 -0.7199
vn 0.0245 0.8970 -0.4414
vn 0.0926 0.9055 -0.4141
vn -0.0039 0.8347 -0.5508
vn 0.0905 0.8536 -0.5130
vn 0.0738 0.8710 -0.4856
vn -0.0802 0.8399 -0.5368
vn -0.0038 0.8945 -0.4470
vn 0.0507 0.9038 -0.4250
vn 0.0953 0.8677 -0.4879
vn 0.0127 0.8548 -0.5188
vn -0.0543 0.9103 -0.4105
vn -0.0781 0.9056 -0.4168
vn 0.0281 0.8029 -0.5954
vn -0.0867 0.7682 -0.6343
vn 0.0011 0.6788 -0.7343
vn 0.0413 0.6905 -0.7221
vn -0.0175 0.7546 -0.6559
vn -0.0320 0.7506 -0.6600
vn -0.1082 0.8128 -0.5724
vn -0.1019 0.8146 -0.5709
vn 0.0298 0.8797 -0.4746
vn -0.1062 0.8430 -0.5273
vn -0.0783 0.8169 -0.5714
vn -0.0012 0.8411 -0.5408
vn 0.0564 0.7792 -0.6243
vn -0.1010 0.7252 -0.6811
vn -0.0488 0.6745 -0.7367
vn 0.0507 0.7058 -0.7066
vn -0.0962 0.8290 -0.5509
vn -0.0975 0.8286 -0.5512
vn 0.1312 0.7270 -0.6740
vn 0.0578 0.7112 -0.7006
vn -0.1005 0.8580 -0.5037
vn -0.0378 0.8752 -0.4823
vn -0.0003 0.8464 -0.5326
vn -0.1887 0.7830 -0.5927
vn -0.1021 0.7068 -0.7000
vn -0.1020 0.7069 -0.7000
vn 0.0269 0.5975 -0.8014
vn 0.0264 0.5973 -0.8016
vn -0.1336 0.7250 -0.6757
vn -0.1764 0.7066 -0.6853
vn 0.1728 0.6321 -0.7553
vn 0.0598 0.6083 -0.7915
vn 0.0395 0.6340 -0.7723
vn 0.0598 0.6409 -0.7653
vn -0.0681 0.7779 -0.6247
vn -0.2090 0.7197 -0.6621
vn -0.1972 0.7092 -0.6769
vn -0.2688 0.6715 -0.6905
vn -0.1078 0.5414 -0.8338
vn 0.0446 0.6102 -0.7910
vn 0.0312 0.6225 -0.7820
vn -0.0744 0.5671 -0.8203
vn -0.1880 0.6494 -0.7369
vn -0.4109 0.5075 -0.7574
vn -0.0362 0.9743 -0.2223
vn -0.0258 0.9831 -0.1814
vn -0.1558 0.8942 -0.4197
vn -0.0442 0.8820 -0.4691
vn -0.1640 0.8604 -0.4824
vn -0.1699 0.8712 -0.4606
vn -0.3068 0.7743 -0.5535
vn -0.0441 0.9739 -0.2224
vn -0.1137 0.9903 -0.0793
vn -0.0702 0.9806 -0.1833
vn -0.0902 0.9857 -0.1423
vn -0.0629 0.9948 -0.0803
vn -0.1424 0.9835 0.1119
vn -0.0250 0.9125 -0.4082
vn -0.1331 0.9688 -0.2093
vn -0.1070 0.9840 -0.1426
vn -0.1418 0.9882 -0.0570
vn -0.0664 0.9920 0.1076
vn -0.1080 0.9659 0.2354
vn -0.1660 0.8557 -0.4902
vn -0.2762 0.9100 -0.3090
vn -0.2436 0.9447 -0.2194
vn -0.3431 0.9389 0.0296
vn -0.3737 0.9261 -0.0509
vn -0.3818 0.9238 -0.0295
vn -0.2460 0.9360 0.2516
vn -0.2855 0.8651 0.4125
vn -0.1748 0.8566 -0.4855
vn -0.2883 0.9088 -0.3015
vn -0.2916 0.9044 -0.3115
vn -0.4431 0.8963 0.0171
vn -0.4397 0.8978 0.0253
vn -0.4370 0.8993 0.0168
vn -0.4561 0.8895 -0.0263
vn -0.5634 0.7342 0.3789
vn -0.5273 0.7314 0.4324
vn -0.5329 0.6484 0.5437
vn -0.3020 0.8074 -0.5068
vn -0.4293 0.8429 -0.3242
vn -0.4321 0.8371 -0.3355
vn -0.5635 0.8217 -0.0856
vn -0.5260 0.8504 0.0107
vn -0.5303 0.8475 0.0222
vn -0.5323 0.8463 0.0173
vn -0.6002 0.7633 0.2389
vn -0.5053 0.7754 0.3788
vn -0.5308 0.5780 0.6198
vn -0.5927 0.5912 0.5470
vn -0.5913 0.6233 0.5117
vn -0.4913 0.6223 -0.6094
vn -0.5580 0.6320 -0.5377
vn -0.5408 0.7657 -0.3483
vn -0.5961 0.7566 -0.2688
vn -0.5388 0.8383 -0.0831
vn -0.5683 0.8224 -0.0241
vn -0.5486 0.8358 0.0219
vn -0.6034 0.7771 0.1790
vn -0.5674 0.7884 0.2374
vn -0.6182 0.6404 0.4558
vn -0.4778 0.6294 0.6128
vn -0.4655 0.7537 0.4639
vn -0.4590 0.7523 0.4726
vn -0.4649 0.6977 0.5450
vn 0.0748 0.9971 -0.0108
vn 0.0534 0.9641 0.2601
vn -0.0486 0.9555 0.2910
vn -0.0790 0.9556 0.2839
vn -0.2366 0.8435 0.4821
vn -0.4697 0.6218 0.6267
vn -0.4855 0.5841 0.6505
vn 0.0068 0.9603 0.2788
vn 0.0368 0.9421 0.3333
vn 0.0540 0.9648 0.2575
vn -0.0073 0.9890 0.1477
vn 0.0827 0.9906 0.1093
vn 0.2136 0.9193 0.3304
vn -0.0450 0.9602 0.2758
vn 0.0321 0.9163 0.3992
vn -0.0640 0.9008 0.4295
vn 0.0087 0.8492 0.5280
vn 0.1868 0.8707 0.4550
vn 0.2072 0.8513 0.4821
vn -0.1188 0.8773 0.4650
vn -0.0551 0.8365 0.5452
vn 0.0008 0.8480 0.5300
vn 0.0624 0.7962 0.6018
vn -0.0121 0.7800 0.6257
vn -0.0332 0.7984 0.6012
vn 0.2019 0.8364 0.5095
vn 0.2875 0.7440 0.6032
vn -0.2638 0.7374 0.6218
vn -0.1608 0.6653 0.7290
vn -0.0934 0.6919 0.7160
vn -0.0155 0.6223 0.7827
vn 0.0229 0.6347 0.7724
vn 0.0045 0.6533 0.7571
vn -0.0683 0.6285 0.7748
vn 0.0207 0.5245 0.8512
vn 0.2464 0.5798 0.7766
vn 0.1376 0.7201 0.6801
vn -0.4732 0.5938 0.6508
vn -0.3535 0.5202 0.7774
vn -0.1664 0.6340 0.7552
vn -0.0530 0.5320 0.8451
vn -0.0287 0.5435 0.8389
vn -0.0179 0.5322 0.8465
vn -0.0113 0.5348 0.8449
vn -0.1087 0.6372 0.7630
vn 0.0474 0.6927 0.7196
vn 0.0611 0.6767 0.7337
vn 0.1327 0.6927 0.7089
vn 0.1917 0.6176 0.7628
vn -0.4792 0.6080 0.6330
vn -0.3394 0.5380 0.7716
vn -0.3526 0.5276 0.7729
vn -0.2184 0.4154 0.8830
vn -0.0532 0.5309 0.8458
vn -0.0248 0.5001 0.8656
vn -0.0214 0.5020 0.8646
vn -0.0066 0.4838 0.8751
vn -0.1242 0.4227 0.8977
vn -0.1771 0.4884 0.8545
vn 0.0496 0.5793 0.8136
vn -0.0067 0.6454 0.7638
vn 0.2041 0.6884 0.6960
vn 0.4269 0.3555 0.8315
vn 0.1968 0.9782 -0.0665
vn 0.2042 0.9477 0.2454
vn 0.2720 0.9153 0.2971
vn 0.2352 0.8520 0.4678
vn 0.2993 0.7443 0.5971
vn 0.3503 0.7335 0.5825
vn 0.4223 0.6296 0.6522
vn 0.2167 0.9752 -0.0452
vn 0.1688 0.9855 -0.0161
vn 0.2694 0.9079 0.3210
vn 0.2905 0.9061 0.3074
vn 0.3046 0.9429 0.1350
vn 0.2643 0.9503 0.1645
vn 0.2624 0.9217 0.2856
vn 0.2533 0.9225 0.2912
vn 0.2558 0.9295 0.2657
vn 0.2961 0.9253 0.2368
vn 0.2985 0.9326 0.2030
vn 0.3285 0.9276 0.1782
vn 0.3102 0.7726 0.5539
vn 0.2466 0.7712 0.5869
vn 0.2926 0.8943 0.3387
vn 0.3138 0.8921 0.3250
vn 0.3204 0.9092 0.2657
vn 0.2882 0.9128 0.2893
vn 0.2986 0.9431 0.1459
vn 0.2842 0.9456 0.1586
vn 0.3348 0.6920 0.6396
vn 0.2233 0.6867 0.6917
vn 0.2521 0.7644 0.5934
vn 0.3460 0.7628 0.5462
vn 0.3750 0.8368 0.3990
vn 0.2800 0.8446 0.4563
vn 0.3031 0.9026 0.3058
vn 0.5054 0.8500 0.1488
vn 0.4826 0.8026 0.3505
vn 0.6156 0.7534 0.2314
vn 0.4168 0.6144 0.6699
vn 0.3657 0.6167 0.6971
vn 0.3200 0.5052 0.8015
vn 0.3332 0.5050 0.7962
vn 0.4051 0.6736 0.6182
vn 0.2994 0.6824 0.6668
vn 0.3405 0.7792 0.5262
vn 0.5321 0.7401 0.4113
vn 0.5598 0.8035 0.2026
vn 0.4759 0.8370 0.2702
vn 0.4889 0.8644 0.1177
vn 0.6223 0.7826 -0.0198
vn 0.4896 0.4657 0.7372
vn 0.4073 0.4727 0.7814
vn 0.4165 0.4950 0.7626
vn 0.3790 0.4994 0.7791
vn 0.3562 0.4471 0.8205
vn 0.3108 0.4531 0.8355
vn 0.3640 0.5653 0.7402
vn 0.5706 0.5129 0.6414
vn 0.6198 0.5989 0.5070
vn 0.7176 0.5470 0.4310
vn 0.7022 0.5240 0.4821
vn 0.7795 0.4722 0.4116
vn 0.8315 0.5342 0.1526
vn 0.8545 0.5056 0.1189
vn 0.9001 0.3545 -0.2532
vn 0.8911 0.4512 -0.0481
vn 0.8909 0.2022 -0.4066
vn 0.9297 0.1832 -0.3195
vn 0.7958 0.0680 -0.6017
vn 0.6784 -0.2088 -0.7044
vn 0.6607 -0.4294 -0.6157
vn 0.9087 0.4128 -0.0622
vn 0.7917 0.5345 -0.2958
vn 0.8643 0.3286 -0.3807
vn 0.7815 0.3857 -0.4904
vn 0.7585 0.4537 -0.4678
vn 0.7169 0.4743 -0.5110
vn 0.9174 0.2487 -0.3107
vn 0.8347 0.3331 -0.4386
vn 0.8043 0.4290 -0.4112
vn 0.7049 0.4915 -0.5115
vn 0.7137 0.4682 -0.5210
vn 0.5026 0.5505 -0.6666
vn 0.7976 0.0243 -0.6028
vn 0.7536 0.0629 -0.6543
vn 0.7422 0.2031 -0.6387
vn 0.6212 0.2789 -0.7323
vn 0.6080 0.3424 -0.7163
vn 0.5523 0.3682 -0.7480
vn 0.4956 0.5380 -0.6819
vn 0.4169 0.5639 -0.7129
vn 0.6900 -0.0156 -0.7237
vn 0.6613 0.0122 -0.7500
vn 0.6610 -0.0231 -0.7501
vn 0.5958 0.0301 -0.8025
vn 0.5792 0.2279 -0.7827
vn 0.5884 0.2220 -0.7775
vn 0.5574 0.3759 -0.7403
vn 0.5402 0.3851 -0.7482
vn 0.4523 0.6263 -0.6349
vn 0.4972 0.6074 -0.6196
vn 0.7105 -0.1873 -0.6783
vn 0.5781 -0.0232 -0.8157
vn 0.5772 -0.0547 -0.8148
vn 0.5692 -0.0471 -0.8208
vn 0.5700 0.0048 -0.8216
vn 0.6610 -0.0744 -0.7467
vn 0.6382 0.2901 -0.7131
vn 0.6411 0.2880 -0.7114
vn 0.5952 0.4691 -0.6525
vn 0.4652 0.5399 -0.7015
vn 0.4607 0.5519 -0.6950
vn 0.3344 0.6028 -0.7244
vn 0.5557 -0.4885 -0.6728
vn 0.5050 -0.4042 -0.7626
vn 0.5579 -0.0386 -0.8290
vn 0.6114 -0.1002 -0.7849
vn 0.6149 -0.0055 -0.7886
vn 0.6038 0.0050 -0.7972
vn 0.5980 -0.1395 -0.7893
vn 0.5376 -0.0922 -0.8381
vn 0.5306 0.1456 -0.8350
vn 0.4954 0.1678 -0.8523
vn 0.4287 0.4947 -0.7559
vn 0.4490 0.4848 -0.7506
vn 0.3820 0.6591 -0.6478
vn 0.2610 0.7030 -0.6616
vn 0.1429 0.5357 -0.8322
vn 0.1227 0.5198 -0.8454
vn 0.0468 0.3227 -0.9453
vn -0.0121 0.0888 -0.9960
vn 0.0428 0.0817 -0.9957
vn -0.0707 -0.0954 -0.9929
vn -0.0048 -0.1343 -0.9909
vn 0.1232 0.5247 -0.8423
vn 0.0550 0.5811 -0.8120
vn 0.0562 0.4845 -0.8730
vn 0.1573 0.3992 -0.9033
vn 0.1784 0.6411 -0.7465
vn 0.0741 0.7256 -0.6841
vn -0.0039 0.2917 -0.9565
vn 0.0426 0.2497 -0.9674
vn 0.0474 0.3364 -0.9405
vn -0.1817 0.5404 -0.8215
vn -0.1728 0.5924 -0.7869
vn -0.2238 0.6395 -0.7355
vn 0.0439 0.1302 -0.9905
vn -0.1013 0.2676 -0.9582
vn -0.1111 0.1364 -0.9844
vn -0.2505 0.2675 -0.9304
vn -0.2044 0.5263 -0.8254
vn -0.2725 0.5824 -0.7659
vn -0.2664 0.6131 -0.7438
vn -0.2750 0.6211 -0.7339
vn -0.0719 -0.0091 -0.9974
vn -0.1055 0.0194 -0.9942
vn -0.1001 0.2685 -0.9581
vn -0.0989 0.2674 -0.9585
vn -0.0882 0.3789 -0.9212
vn -0.2681 0.5226 -0.8093
vn -0.2542 0.5930 -0.7640
vn -0.1490 0.5071 -0.8489
vn -0.1430 0.6791 -0.7200
vn 0.0412 0.5096 -0.8594
vn -0.0049 -0.0351 -0.9994
vn -0.1523 0.0969 -0.9836
vn -0.1555 -0.0245 -0.9875
vn -0.2984 0.1097 -0.9481
vn -0.2983 0.1174 -0.9472
vn -0.3412 0.1501 -0.9279
vn -0.3178 0.4962 -0.8079
vn -0.1022 0.3463 -0.9325
vn -0.1103 0.5220 -0.8458
vn -0.0570 0.4732 -0.8791
vn -0.0570 0.4757 -0.8778
vn -0.0792 0.5023 -0.8611
vn -0.0530 -0.1841 -0.9815
vn -0.3039 0.0340 -0.9521
vn -0.3056 -0.0723 -0.9494
vn -0.4030 0.0211 -0.9150
vn -0.4027 0.0108 -0.9153
vn -0.2439 -0.1031 -0.9643
vn -0.2586 0.1980 -0.9455
vn -0.2138 0.1679 -0.9623
vn -0.2216 0.2888 -0.9314
vn -0.2353 0.3008 -0.9242
vn -0.2344 0.3854 -0.8925
vn -0.3648 0.5239 -0.7697
vn -0.3779 0.3600 -0.8530
vn -0.4135 0.4005 -0.8177
vn -0.6190 0.3337 -0.7110
vn -0.5256 0.3686 -0.7668
vn -0.6554 0.2995 -0.6934
vn -0.7709 0.1706 -0.6136
vn -0.9416 0.0551 -0.3321
vn -0.9752 -0.2117 -0.0645
vn -0.9496 -0.2968 0.1008
vn -0.5365 0.3488 -0.7684
vn -0.6393 0.5439 -0.5435
vn -0.6397 0.3420 -0.6884
vn -0.6693 0.4015 -0.6251
vn -0.5552 0.5640 -0.6112
vn -0.5834 0.7669 -0.2676
vn -0.7549 0.2536 -0.6048
vn -0.7872 0.3275 -0.5226
vn -0.7746 0.3595 -0.5203
vn -0.8038 0.5419 -0.2454
vn -0.6161 0.7546 -0.2258
vn -0.5663 0.8238 -0.0240
vn -0.9423 -0.0044 -0.3346
vn -0.9778 0.1171 -0.1737
vn -0.9734 0.1506 -0.1725
vn -0.9729 0.2247 -0.0551
vn -0.8882 0.4568 -0.0490
vn -0.8422 0.5261 0.1181
vn -0.6224 0.7742 0.1150
vn -0.5884 0.7886 0.1783
vn -0.9925 -0.1061 -0.0611
vn -0.9964 -0.0808 -0.0248
vn -0.9993 0.0304 -0.0221
vn -0.9842 0.1240 0.1267
vn -0.9835 0.1287 0.1268
vn -0.9546 0.1833 0.2347
vn -0.8530 0.4681 0.2309
vn -0.7782 0.5117 0.3641
vn -0.6150 0.7124 0.3380
vn -0.5240 0.7294 0.4398
vn -0.9489 -0.2989 0.1009
vn -0.9528 -0.2157 0.2137
vn -0.9544 -0.2084 0.2137
vn -0.9297 -0.1194 0.3484
vn -0.9360 -0.0101 0.3520
vn -0.9430 -0.0211 0.3321
vn -0.9341 0.1231 0.3352
vn -0.8573 0.1869 0.4797
vn -0.7643 0.4459 0.4658
vn -0.6423 0.4830 0.5951
vn -0.5153 0.6485 0.5603
vn -0.5825 0.6398 0.5014
vn -0.8918 -0.3745 0.2537
vn -0.8902 -0.3418 0.3012
vn -0.9169 -0.2618 0.3012
vn -0.9168 -0.2615 0.3019
vn -0.9487 -0.0939 0.3019
vn -0.9462 -0.0889 0.3112
vn -0.9505 -0.0069 0.3106
vn -0.8118 0.1335 0.5685
vn -0.8142 0.1137 0.5694
vn -0.6885 0.1756 0.7036
vn -0.6047 0.4120 0.6816
vn -0.6502 0.4024 0.6445
vn -0.5465 0.5645 0.6187
vn -0.5887 0.5582 0.5847
vn -0.4135 0.5762 0.7050
vn -0.3696 0.4228 0.8274
vn -0.3292 0.2725 0.9041
vn -0.4607 0.1161 0.8799
vn -0.4657 0.0841 0.8809
vn -0.2008 -0.1228 0.9719
vn -0.0157 -0.0982 0.9950
vn -0.3550 0.5252 0.7734
vn -0.3406 0.5321 0.7752
vn -0.3273 0.3881 0.8615
vn -0.3299 0.3868 0.8611
vn -0.3200 0.5126 0.7967
vn -0.2011 0.5758 0.7925
vn -0.4626 0.3718 0.8049
vn -0.3704 0.4295 0.8236
vn -0.3708 0.4247 0.8259
vn -0.1370 0.5636 0.8146
vn -0.1418 0.5039 0.8520
vn -0.0189 0.5729 0.8194
vn -0.4653 0.1198 0.8770
vn -0.2510 0.2874 0.9243
vn -0.2502 0.3185 0.9143
vn -0.0809 0.4258 0.9012
vn -0.0791 0.5058 0.8590
vn -0.0392 0.5268 0.8491
vn -0.0359 0.5919 0.8052
vn 0.0081 0.6161 0.7876
vn -0.2006 -0.1183 0.9725
vn -0.2229 -0.1371 0.9652
vn -0.1993 0.2487 0.9479
vn -0.2181 0.2367 0.9468
vn -0.1858 0.5114 0.8390
vn -0.1383 0.5379 0.8316
vn -0.1277 0.6078 0.7838
vn -0.0225 0.6633 0.7480
vn -0.0248 0.6507 0.7590
vn -0.1685 0.5546 0.8149
vn -0.0154 -0.2722 0.9621
vn -0.0796 -0.3438 0.9357
vn -0.0811 -0.2267 0.9706
vn 0.0115 -0.1510 0.9885
vn 0.0172 0.0589 0.9981
vn 0.0964 0.1153 0.9886
vn 0.1110 0.3304 0.9373
vn 0.1162 0.3336 0.9355
vn 0.1393 0.5258 0.8391
vn 0.0071 0.4453 0.8954
vn -0.0030 0.3891 0.9212
vn -0.0431 0.3609 0.9316
vn 0.2106 -0.2471 0.9458
vn -0.0100 -0.4593 0.8882
vn -0.0106 -0.3929 0.9195
vn 0.1183 -0.2721 0.9550
vn 0.1165 -0.2321 0.9657
vn 0.1370 -0.2158 0.9668
vn 0.1356 0.0828 0.9873
vn 0.1976 0.1246 0.9723
vn 0.2014 0.2563 0.9454
vn 0.1774 0.2399 0.9544
vn 0.1813 0.2775 0.9435
vn 0.2122 0.2997 0.9301
vn 0.1916 0.1387 0.9716
vn 0.4142 0.2817 0.8655
vn 0.4889 0.1622 0.8571
vn 0.3151 0.4499 0.8356
vn 0.4150 0.3316 0.8473
vn 0.3896 0.1503 0.9087
vn 0.4240 0.0892 0.9013
vn 0.5688 -0.0219 0.8222
vn 0.6485 -0.1715 0.7417
vn 0.3723 0.2170 0.9024
vn 0.4501 0.3259 0.8314
vn 0.3978 0.4114 0.8201
vn 0.3984 0.4122 0.8194
vn 0.4157 0.3414 0.8430
vn 0.4241 0.3542 0.8335
vn 0.3633 0.3595 0.8595
vn 0.4060 0.4103 0.8166
vn 0.4065 0.4085 0.8173
vn 0.4008 0.4004 0.8240
vn 0.4116 0.3590 0.8377
vn 0.3654 0.2862 0.8858
vn 0.4224 0.1278 0.8973
vn 0.4265 0.1319 0.8948
vn 0.3826 0.4218 0.8220
vn 0.3473 0.3789 0.8578
vn 0.3358 0.4249 0.8407
vn 0.3873 0.4997 0.7748
vn 0.4557 0.2567 0.8523
vn 0.5895 0.4614 0.6630
vn 0.5684 -0.0371 0.8219
vn 0.5630 -0.0418 0.8254
vn 0.5630 0.0312 0.8259
vn 0.6552 0.1241 0.7452
vn 0.6445 0.2188 0.7327
vn 0.6649 0.2435 0.7061
vn 0.6263 0.4091 0.6637
vn 0.6814 0.4959 0.5383
vn 0.7113 0.4100 0.5710
vn 0.7466 0.4785 0.4622
vn 0.6534 -0.1173 0.7479
vn 0.6985 -0.0801 0.7111
vn 0.6913 -0.1748 0.7011
vn 0.7034 -0.1650 0.6914
vn 0.7103 0.0783 0.6995
vn 0.8276 0.2106 0.5203
vn 0.8390 0.1126 0.5323
vn 0.9070 0.2173 0.3607
vn 0.8735 0.3601 0.3276
vn 0.8435 0.2987 0.4463
vn 0.7981 0.4478 0.4031
vn 0.7931 0.4365 0.4249
vn 0.7046 -0.2558 0.6619
vn 0.7502 -0.2216 0.6230
vn 0.7576 -0.1577 0.6334
vn 0.8223 -0.1040 0.5595
vn 0.7966 -0.2851 0.5331
vn 0.9684 -0.0842 0.2346
vn 0.9719 0.0071 0.2352
vn 0.9876 0.0566 0.1464
vn 0.9865 0.0788 0.1439
vn 0.9785 0.0516 0.1996
vn 0.9723 0.1461 0.1827
vn 0.9583 0.1122 0.2628
vn 0.9215 0.3289 0.2065
vn 0.9229 0.3345 0.1908
vn 0.1157 0.5560 -0.8231
vn 0.3189 0.3400 -0.8847
vn 0.4456 0.1122 -0.8882
vn 0.6080 -0.0176 -0.7938
vn 0.5718 -0.0268 -0.8200
vn 0.5755 -0.1320 -0.8071
vn 0.6000 -0.3411 -0.7236
vn 0.1213 0.4864 -0.8653
vn 0.1419 0.5056 -0.8510
vn 0.3260 0.2123 -0.9212
vn 0.2295 0.1139 -0.9666
vn 0.1555 0.1768 -0.9719
vn 0.1863 0.2040 -0.9611
vn 0.4452 0.1262 -0.8865
vn 0.3561 0.0373 -0.9337
vn 0.2286 0.1471 -0.9623
vn 0.1815 0.1037 -0.9779
vn 0.1885 0.0972 -0.9772
vn 0.0789 0.0042 -0.9969
vn 0.6072 -0.0588 -0.7923
vn 0.4602 -0.2019 -0.8645
vn 0.3539 -0.1071 -0.9291
vn 0.3702 -0.0925 -0.9244
vn 0.1816 0.0822 -0.9799
vn 0.1450 0.0523 -0.9880
vn 0.0796 0.1135 -0.9904
vn 0.0403 0.0840 -0.9957
vn 0.5715 -0.1285 -0.8104
vn 0.4887 -0.2013 -0.8489
vn 0.4616 -0.1761 -0.8694
vn 0.4667 -0.1715 -0.8676
vn 0.3705 -0.0797 -0.9254
vn 0.2313 -0.1933 -0.9535
vn 0.1385 -0.1075 -0.9845
vn 0.1374 -0.1083 -0.9846
vn 0.0374 -0.0154 -0.9992
vn -0.0753 -0.0913 -0.9930
vn 0.5692 -0.3118 -0.7608
vn 0.5669 -0.3136 -0.7617
vn 0.4876 -0.2364 -0.8405
vn 0.3824 -0.3175 -0.8677
vn 0.4530 -0.3865 -0.8034
vn 0.3651 -0.4553 -0.8121
vn 0.2215 -0.3237 -0.9199
vn 0.2693 -0.2882 -0.9189
vn 0.1330 -0.1654 -0.9772
vn 0.0322 -0.2350 -0.9715
vn -0.0791 -0.1331 -0.9879
vn -0.0377 -0.1076 -0.9935
vn 0.5995 -0.3507 -0.7194
vn 0.6650 -0.3001 -0.6839
vn 0.5682 -0.2032 -0.7974
vn 0.3701 -0.3458 -0.8623
vn 0.3802 -0.3562 -0.8536
vn 0.3031 -0.4104 -0.8601
vn 0.3632 -0.4715 -0.8036
vn 0.2976 -0.5204 -0.8004
vn 0.2483 -0.4758 -0.8437
vn 0.1802 -0.5245 -0.8321
vn 0.0124 -0.3731 -0.9277
vn 0.0600 -0.3403 -0.9384
vn -0.0573 -0.2374 -0.9697
vn -0.0484 -0.2323 -0.9714
vn -0.5980 0.2993 -0.7435
vn -0.5698 0.4130 -0.7105
vn -0.5627 0.0799 -0.8228
vn -0.4462 -0.0072 -0.8949
vn -0.3139 -0.1602 -0.9359
vn -0.4717 -0.0486 -0.8804
vn -0.4638 -0.1508 -0.8730
vn -0.5731 0.4176 -0.7051
vn -0.5603 0.4237 -0.7117
vn -0.6163 0.1349 -0.7759
vn -0.5323 0.1883 -0.8253
vn -0.6010 0.2595 -0.7559
vn -0.6193 0.2490 -0.7446
vn -0.5620 0.0975 -0.8214
vn -0.4845 0.1591 -0.8602
vn -0.5305 0.1989 -0.8240
vn -0.5927 0.1577 -0.7898
vn -0.6278 0.1933 -0.7540
vn -0.7349 0.1197 -0.6675
vn -0.4449 -0.0751 -0.8924
vn -0.4214 -0.0520 -0.9054
vn -0.4963 -0.0025 -0.8681
vn -0.5471 -0.0463 -0.8358
vn -0.5990 -0.0092 -0.8007
vn -0.6309 -0.0371 -0.7750
vn -0.7377 0.0611 -0.6724
vn -0.8658 -0.0783 -0.4942
vn -0.3163 -0.1391 -0.9384
vn -0.3002 -0.1214 -0.9461
vn -0.4214 -0.0521 -0.9054
vn -0.4663 -0.1002 -0.8789
vn -0.5468 -0.0529 -0.8356
vn -0.5686 -0.0752 -0.8191
vn -0.6312 -0.0317 -0.7750
vn -0.7787 -0.2021 -0.5939
vn -0.8624 -0.1131 -0.4935
vn -0.9433 -0.2886 -0.1640
vn -0.4597 -0.1529 -0.8748
vn -0.3706 -0.0678 -0.9263
vn -0.3040 -0.0964 -0.9478
vn -0.4024 -0.2145 -0.8900
vn -0.4557 -0.1897 -0.8697
vn -0.4675 -0.2029 -0.8604
vn -0.5560 -0.1635 -0.8149
vn -0.6816 -0.3055 -0.6650
vn -0.7684 -0.2458 -0.5908
vn -0.8620 -0.4275 -0.2724
vn -0.9286 -0.3364 -0.1567
vn -0.9213 -0.3883 -0.0196
vn -0.4513 -0.2453 -0.8580
vn -0.4221 -0.2121 -0.8814
vn -0.3456 -0.2337 -0.9088
vn -0.3436 -0.2317 -0.9101
vn -0.4033 -0.2109 -0.8904
vn -0.5093 -0.3338 -0.7932
vn -0.4118 -0.3697 -0.8329
vn -0.5518 -0.5424 -0.6335
vn -0.5897 -0.5269 -0.6121
vn -0.6492 -0.6550 -0.3867
vn -0.8013 -0.5518 -0.2309
vn -0.8013 -0.5694 -0.1835
vn -0.8925 -0.4511 0.0001
vn -0.8470 -0.4983 0.1852
vn -0.5609 0.5086 0.6533
vn -0.6405 0.3889 0.6622
vn -0.7156 0.2101 0.6662
vn -0.7734 0.0798 0.6289
vn -0.8692 -0.1938 0.4549
vn -0.9300 -0.2451 0.2738
vn -0.9095 -0.3234 0.2613
vn -0.5936 0.4138 0.6902
vn -0.5350 0.3314 0.7772
vn -0.6745 0.2347 0.7000
vn -0.6377 0.1912 0.7462
vn -0.5505 0.2504 0.7964
vn -0.4869 0.1833 0.8540
vn -0.7254 0.1160 0.6785
vn -0.6881 0.0761 0.7216
vn -0.6475 0.1108 0.7540
vn -0.5070 -0.0185 0.8617
vn -0.4927 -0.0073 0.8702
vn -0.5606 0.0460 0.8268
vn -0.7689 -0.0781 0.6346
vn -0.7947 -0.0533 0.6047
vn -0.6895 0.0447 0.7229
vn -0.5549 -0.0699 0.8290
vn -0.5071 -0.0230 0.8616
vn -0.5025 -0.0263 0.8642
vn -0.5539 -0.0711 0.8296
vn -0.5931 -0.0429 0.8040
vn -0.8764 -0.1445 0.4594
vn -0.7878 -0.2270 0.5725
vn -0.7761 -0.2127 0.5936
vn -0.7073 -0.2633 0.6561
vn -0.5532 -0.0885 0.8283
vn -0.5163 -0.1120 0.8491
vn -0.4995 -0.0956 0.8610
vn -0.5023 -0.0943 0.8596
vn -0.5867 -0.1773 0.7902
vn -0.3556 -0.3136 0.8805
vn -0.9100 -0.3251 0.2573
vn -0.7826 -0.4407 0.4396
vn -0.7540 -0.3738 0.5402
vn -0.7149 -0.3969 0.5757
vn -0.6843 -0.3508 0.6393
vn -0.6082 -0.3925 0.6900
vn -0.4910 -0.2541 0.8333
vn -0.3856 -0.2934 0.8748
vn -0.4761 -0.3802 0.7930
vn -0.4805 -0.3785 0.7911
vn -0.3689 -0.2470 0.8961
vn -0.2000 -0.3248 0.9244
vn -0.8727 -0.4316 0.2283
vn -0.8445 -0.4597 0.2749
vn -0.8151 -0.3418 0.4678
vn -0.6782 -0.4249 0.5995
vn -0.6948 -0.4637 0.5497
vn -0.4945 -0.5254 0.6924
vn -0.5325 -0.5935 0.6035
vn -0.4085 -0.6333 0.6573
vn -0.3205 -0.5085 0.7992
vn -0.3306 -0.5065 0.7963
vn -0.4140 -0.5906 0.6927
vn -0.2218 -0.6451 0.7312
vn -0.1380 -0.5306 0.8363
vn 0.2058 -0.5879 0.7823
vn 0.5038 0.1811 0.8446
vn 0.4682 0.0146 0.8835
vn 0.3516 0.0555 0.9345
vn 0.2384 0.0877 0.9672
vn 0.1778 -0.2491 0.9520
vn 0.1297 -0.2815 0.9508
vn 0.0329 -0.4871 0.8727
vn 0.5022 0.0553 0.8630
vn 0.2161 0.3270 0.9200
vn 0.4680 0.1900 0.8631
vn 0.3370 0.3259 0.8833
vn 0.2249 0.2019 0.9532
vn 0.2701 0.1646 0.9487
vn 0.3467 0.1796 0.9206
vn 0.2667 0.2535 0.9298
vn 0.3379 0.3169 0.8862
vn 0.3100 0.3401 0.8878
vn 0.2649 0.2951 0.9180
vn 0.4166 0.1785 0.8914
vn 0.2441 -0.1997 0.9490
vn 0.2157 -0.1735 0.9609
vn 0.2874 -0.1153 0.9509
vn 0.1125 0.0521 0.9923
vn 0.3195 0.2313 0.9189
vn 0.3722 0.1874 0.9090
vn 0.4134 0.2255 0.8822
vn 0.4993 0.1597 0.8516
vn 0.1778 -0.2466 0.9527
vn 0.1069 -0.1778 0.9782
vn 0.2131 -0.0946 0.9724
vn 0.0137 0.1012 0.9948
vn 0.1110 0.1734 0.9786
vn 0.3025 0.0026 0.9532
vn 0.3788 0.0645 0.9232
vn 0.4559 -0.0004 0.8900
vn 0.5083 0.0441 0.8600
vn 0.5784 -0.0136 0.8156
vn 0.1309 -0.4284 0.8941
vn -0.0075 -0.3233 0.9463
vn 0.1076 -0.2545 0.9611
vn 0.0470 -0.1989 0.9789
vn -0.0042 -0.2312 0.9729
vn 0.1343 -0.3673 0.9203
vn 0.2940 -0.2568 0.9207
vn 0.4540 -0.4108 0.7907
vn 0.4410 -0.4203 0.7930
vn 0.4003 -0.3826 0.8327
vn 0.5820 -0.2544 0.7724
vn 0.5616 -0.2359 0.7931
vn 0.0248 -0.5684 0.8224
vn 0.1055 -0.6244 0.7740
vn -0.0094 -0.6886 0.7250
vn -0.1264 -0.5945 0.7941
vn 0.0306 -0.5061 0.8619
vn 0.0430 -0.5189 0.8537
vn 0.1250 -0.4674 0.8752
vn 0.2128 -0.5622 0.7992
vn 0.4555 -0.3936 0.7985
vn 0.4688 -0.4077 0.7836
vn 0.3932 -0.4581 0.7972
vn 0.4419 -0.5067 0.7403
vn 0.5488 -0.4429 0.7090
vn 0.5268 -0.4219 0.7379
vn 0.9725 0.2325 -0.0166
vn 0.9500 0.1240 0.2867
vn 0.9403 0.1187 0.3191
vn 0.9445 0.1525 0.2909
vn 0.9706 -0.0920 0.2225
vn 0.8776 -0.1967 0.4373
vn 0.7842 -0.2838 0.5518
vn 0.9512 0.3078 -0.0197
vn 0.9260 0.3635 0.1016
vn 0.9478 0.1393 0.2869
vn 0.9308 0.1613 0.3282
vn 0.9457 0.3090 0.1010
vn 0.9567 0.1217 -0.2646
vn 0.9379 0.1365 0.3190
vn 0.9890 0.0305 0.1446
vn 0.9467 -0.0649 0.3154
vn 0.9770 -0.1829 0.1094
vn 0.9651 0.0149 -0.2616
vn 0.9860 0.0721 -0.1502
vn 0.9478 -0.1288 0.2918
vn 0.9556 -0.1546 0.2508
vn 0.9851 -0.0970 0.1418
vn 0.9791 -0.0690 0.1911
vn 0.9935 -0.0264 0.1111
vn 0.9852 -0.1364 -0.1042
vn 0.9829 -0.1130 -0.1456
vn 0.9508 -0.1712 -0.2582
vn 0.9693 -0.1059 0.2220
vn 0.9780 -0.1879 0.0901
vn 0.9335 -0.2604 0.2465
vn 0.9325 -0.2545 0.2564
vn 0.9544 -0.2267 0.1942
vn 0.9549 -0.2831 0.0896
vn 0.9764 -0.1898 -0.1034
vn 0.9069 -0.2846 -0.3108
vn 0.9144 -0.3202 -0.2475
vn 0.7964 -0.4095 -0.4450
vn 0.8667 -0.2445 0.4349
vn 0.8968 -0.3587 0.2591
vn 0.9557 -0.2820 0.0839
vn 0.9465 -0.1707 0.2737
vn 0.9533 -0.1630 0.2543
vn 0.9642 -0.2265 0.1377
vn 0.9750 -0.2049 0.0863
vn 0.9153 -0.3378 -0.2194
vn 0.9061 -0.2870 -0.3107
vn 0.8010 -0.3506 -0.4853
vn 0.8108 -0.3748 -0.4495
vn 0.6614 -0.4307 -0.6140
vn 0.7375 -0.4036 0.5415
vn 0.7703 -0.5384 0.3418
vn 0.8282 -0.5044 0.2441
vn 0.8288 -0.4898 0.2705
vn 0.8247 -0.4925 0.2782
vn 0.8216 -0.4328 0.3709
vn 0.9239 -0.3545 0.1438
vn 0.8733 -0.4722 -0.1197
vn 0.8795 -0.4230 -0.2180
vn 0.7658 -0.4847 -0.4226
vn 0.7559 -0.4452 -0.4800
vn 0.6594 -0.4700 -0.5868
vn 0.6513 -0.4497 -0.6112
vn 0.6047 -0.4578 -0.6517
vn 0.6268 -0.4262 -0.6523
vn 0.6566 -0.5840 -0.4773
vn 0.5489 -0.7302 -0.4067
vn 0.3986 -0.8927 -0.2102
vn 0.3572 -0.8892 -0.2859
vn 0.3092 -0.8944 -0.3232
vn 0.2584 -0.9535 -0.1548
vn 0.6779 -0.3657 -0.6378
vn 0.6642 -0.3583 -0.6561
vn 0.5674 -0.6654 -0.4852
vn 0.4917 -0.6308 -0.6003
vn 0.5083 -0.5212 -0.6856
vn 0.3650 -0.4214 -0.8302
vn 0.4478 -0.7975 -0.4043
vn 0.3709 -0.7644 -0.5274
vn 0.3856 -0.7045 -0.5959
vn 0.2850 -0.6346 -0.7184
vn 0.3066 -0.4657 -0.8301
vn 0.2989 -0.4588 -0.8367
vn 0.3377 -0.9193 -0.2020
vn 0.2403 -0.8937 -0.3789
vn 0.2695 -0.8152 -0.5126
vn 0.1687 -0.7452 -0.6452
vn 0.1801 -0.6901 -0.7009
vn 0.2354 -0.7338 -0.6373
vn 0.2772 -0.4735 -0.8361
vn 0.3006 -0.4964 -0.8144
vn 0.2993 -0.9139 -0.2744
vn 0.2434 -0.8918 -0.3813
vn 0.2431 -0.8927 -0.3796
vn 0.2136 -0.8792 -0.4259
vn 0.2588 -0.7044 -0.6609
vn 0.3452 -0.7634 -0.5460
vn 0.3679 -0.6620 -0.6529
vn 0.2805 -0.5877 -0.7589
vn 0.2942 -0.5004 -0.8143
vn 0.2013 -0.3923 -0.8975
vn 0.2915 -0.9019 -0.3188
vn 0.1847 -0.8450 -0.5019
vn 0.1548 -0.9221 -0.3547
vn 0.1962 -0.9397 -0.2801
vn 0.2243 -0.8753 -0.4285
vn 0.1827 -0.8529 -0.4891
vn 0.1878 -0.8353 -0.5166
vn 0.0897 -0.7634 -0.6397
vn 0.1084 -0.6646 -0.7393
vn 0.1070 -0.6633 -0.7407
vn 0.1471 -0.4184 -0.8963
vn 0.0643 -0.3149 -0.9469
vn 0.0969 -0.9903 -0.0992
vn 0.0757 -0.9882 -0.1335
vn 0.1498 -0.8576 -0.4920
vn 0.1152 -0.8319 -0.5428
vn 0.0448 -0.9758 -0.2142
vn -0.0984 -0.8854 -0.4543
vn -0.1127 -0.9176 -0.3811
vn -0.1309 -0.9061 -0.4023
vn -0.1030 -0.8051 -0.5842
vn -0.0681 -0.8310 -0.5522
vn -0.0349 -0.6994 -0.7139
vn -0.1597 -0.5789 -0.7996
vn -0.1168 -0.3618 -0.9249
vn -0.0710 -0.4198 -0.9048
vn -0.1317 -0.4252 -0.8955
vn -0.1046 -0.5720 -0.8136
vn -0.0013 -0.8198 -0.5726
vn 0.0759 -0.8759 -0.4765
vn -0.0169 -0.8710 -0.4909
vn -0.1058 -0.8838 -0.4557
vn -0.0458 -0.9953 -0.0848
vn -0.1539 -0.4764 -0.8656
vn -0.3612 -0.4866 -0.7954
vn -0.1431 -0.6465 -0.7494
vn -0.2343 -0.6540 -0.7193
vn -0.3335 -0.4420 -0.8327
vn -0.2722 -0.4441 -0.8536
vn -0.0007 -0.8186 -0.5743
vn -0.1311 -0.8387 -0.5286
vn -0.2570 -0.6920 -0.6746
vn -0.2456 -0.6921 -0.6787
vn -0.3388 -0.5444 -0.7674
vn -0.4212 -0.5297 -0.7362
vn 0.0583 -0.9147 -0.3999
vn -0.0696 -0.9358 -0.3455
vn -0.1529 -0.8786 -0.4524
vn -0.1854 -0.8798 -0.4377
vn -0.2939 -0.7759 -0.5582
vn -0.4111 -0.7611 -0.5018
vn -0.4974 -0.6400 -0.5856
vn -0.4875 -0.6432 -0.5905
vn -0.0318 -0.9249 -0.3789
vn -0.0167 -0.9229 -0.3848
vn -0.0565 -0.9015 -0.4291
vn -0.1679 -0.9123 -0.3735
vn -0.1929 -0.8951 -0.4019
vn -0.3014 -0.8904 -0.3411
vn -0.4206 -0.7769 -0.4684
vn -0.5042 -0.7541 -0.4208
vn -0.5331 -0.7201 -0.4442
vn -0.6427 -0.6641 -0.3820
vn -0.1287 -0.9777 -0.1660
vn -0.0936 -0.9786 -0.1832
vn -0.0419 -0.9901 -0.1338
vn -0.0512 -0.9904 -0.1283
vn -0.1832 -0.9463 -0.2665
vn -0.2413 -0.9426 -0.2309
vn -0.3076 -0.9049 -0.2943
vn -0.5048 -0.8485 -0.1589
vn -0.5321 -0.8270 -0.1816
vn -0.6300 -0.7694 -0.1055
vn -0.6690 -0.7311 -0.1340
vn -0.7004 -0.7057 -0.1064
vn -0.0521 -0.9931 0.1054
vn 0.0014 -0.9971 0.0755
vn -0.1076 -0.9939 -0.0235
vn 0.0048 -0.9960 -0.0889
vn -0.0505 -0.9891 -0.1383
vn -0.2361 -0.9716 -0.0146
vn -0.2469 -0.9688 -0.0230
vn -0.3888 -0.9183 0.0749
vn -0.5070 -0.8619 -0.0067
vn -0.5206 -0.8538 0.0061
vn -0.6305 -0.7716 -0.0845
vn -0.7105 -0.7037 0.0047
vn -0.6959 -0.7180 0.0169
vn -0.8308 -0.5205 0.1969
vn -0.8315 -0.5205 0.1942
vn -0.7065 -0.7053 0.0580
vn -0.5250 -0.8487 0.0640
vn -0.3708 -0.8436 0.3884
vn -0.2056 -0.9339 0.2924
vn 0.0058 -0.9575 0.2883
vn 0.0023 -0.9682 0.2500
vn -0.8467 -0.5032 0.1727
vn -0.8326 -0.4865 0.2647
vn -0.6224 -0.7688 0.1470
vn -0.6075 -0.7272 0.3195
vn -0.6913 -0.6037 0.3971
vn -0.6441 -0.5202 0.5608
vn -0.2302 -0.9327 0.2775
vn -0.2280 -0.8889 0.3972
vn -0.3320 -0.8037 0.4939
vn -0.3205 -0.7808 0.5363
vn -0.4446 -0.5861 0.6774
vn -0.4623 -0.6142 0.6396
vn -0.3409 -0.8483 0.4051
vn -0.3344 -0.8271 0.4518
vn -0.2624 -0.8871 0.3798
vn -0.2353 -0.8104 0.5365
vn -0.2624 -0.7821 0.5652
vn -0.2784 -0.8126 0.5120
vn -0.3954 -0.6240 0.6740
vn -0.4042 -0.6418 0.6517
vn -0.0819 -0.9297 0.3590
vn -0.0530 -0.8288 0.5570
vn -0.0807 -0.8062 0.5862
vn -0.0997 -0.8862 0.4525
vn -0.1828 -0.8088 0.5589
vn -0.1635 -0.7547 0.6354
vn -0.1166 -0.8085 0.5769
vn -0.0940 -0.7577 0.6458
vn -0.1534 -0.6549 0.7400
vn -0.2249 -0.7690 0.5984
vn -0.0238 -0.9614 0.2742
vn 0.0022 -0.9029 0.4299
vn -0.1055 -0.8386 0.5344
vn -0.0941 -0.8053 0.5853
vn -0.0191 -0.8698 0.4931
vn -0.0209 -0.8750 0.4836
vn -0.1305 -0.7496 0.6489
vn -0.1857 -0.8766 0.4439
vn -0.2712 -0.7698 0.5779
vn -0.2654 -0.7534 0.6016
vn -0.2544 -0.7687 0.5868
vn -0.2185 -0.6516 0.7264
vn -0.1206 -0.9752 0.1857
vn -0.0986 -0.9258 0.3649
vn -0.1118 -0.9190 0.3781
vn -0.0668 -0.8240 0.5626
vn -0.0912 -0.8048 0.5865
vn -0.0764 -0.7610 0.6442
vn 0.0468 -0.8596 0.5088
vn 0.0715 -0.7620 0.6436
vn 0.1399 -0.8173 0.5589
vn 0.1760 -0.6861 0.7059
vn 0.1795 -0.6903 0.7009
vn 0.1828 -0.6791 0.7109
vn 0.1471 -0.6178 0.7725
vn 0.1795 -0.5138 0.8389
vn 0.6235 -0.4250 -0.6562
vn 0.6169 -0.5329 -0.5791
vn 0.7253 -0.5463 -0.4189
vn 0.7063 -0.6992 -0.1103
vn 0.6600 -0.6522 0.3730
vn 0.7424 -0.6178 0.2592
vn 0.6710 -0.6704 0.3167
vn 0.6353 -0.5370 -0.5550
vn 0.6116 -0.5686 -0.5501
vn 0.6173 -0.5392 -0.5729
vn 0.5098 -0.6567 -0.5557
vn 0.6035 -0.6826 -0.4120
vn 0.5515 -0.7309 -0.4019
vn 0.6889 -0.7084 -0.1535
vn 0.5381 -0.8323 -0.1331
vn 0.4697 -0.8383 -0.2769
vn 0.4482 -0.8512 -0.2730
vn 0.5013 -0.8509 -0.1572
vn 0.4286 -0.8916 -0.1459
vn 0.6122 -0.7773 0.1452
vn 0.5084 -0.8491 0.1431
vn 0.4768 -0.8777 0.0488
vn 0.4272 -0.9028 0.0507
vn 0.3888 -0.9200 -0.0494
vn 0.5108 -0.8576 -0.0594
vn 0.4463 -0.8681 -0.2174
vn 0.3913 -0.8951 -0.2136
vn 0.7375 -0.6348 0.2307
vn 0.5722 -0.7923 0.2115
vn 0.5346 -0.8413 0.0803
vn 0.5486 -0.8321 0.0812
vn 0.4798 -0.8703 -0.1113
vn 0.5423 -0.8330 -0.1099
vn 0.5322 -0.8356 -0.1364
vn 0.4841 -0.8643 -0.1363
vn 0.4128 -0.8602 -0.2994
vn 0.3210 -0.8984 -0.2998
vn 0.6789 -0.6278 0.3808
vn 0.5944 -0.7163 0.3655
vn 0.5679 -0.7929 0.2209
vn 0.6426 -0.7305 0.2310
vn 0.5784 -0.8157 -0.0086
vn 0.5879 -0.8089 -0.0077
vn 0.5460 -0.8286 -0.1238
vn 0.4429 -0.8871 -0.1302
vn 0.4649 -0.8824 -0.0727
vn 0.3183 -0.9451 -0.0746
vn 0.2793 -0.9452 -0.1692
vn 0.2512 -0.9529 -0.1698
vn 0.6124 -0.6697 0.4201
vn 0.5990 -0.6839 0.4165
vn 0.5932 -0.7162 0.3676
vn 0.6056 -0.7047 0.3697
vn 0.5997 -0.7300 0.3277
vn 0.5622 -0.7604 0.3251
vn 0.5274 -0.8335 0.1645
vn 0.4478 -0.8797 0.1599
vn 0.3968 -0.9179 0.0001
vn 0.3622 -0.9321 -0.0015
vn 0.3266 -0.9402 -0.0969
vn 0.1655 -0.9807 -0.1038
vn 0.1995 -0.9795 -0.0271
vn 0.0593 -0.9977 -0.0342
vn 0.0693 -0.5406 0.8384
vn 0.0722 -0.7080 0.7025
vn -0.1492 -0.7424 0.6531
vn -0.2347 -0.8001 0.5521
vn -0.3583 -0.7803 0.5126
vn -0.2831 -0.8453 0.4531
vn -0.0788 -0.9237 0.3748
vn 0.0854 -0.5587 0.8250
vn 0.1139 -0.5491 0.8280
vn -0.1227 -0.5239 0.8429
vn -0.0202 -0.5064 0.8621
vn -0.0114 -0.3679 0.9298
vn -0.1146 -0.4142 0.9030
vn -0.2079 -0.6876 0.6957
vn -0.1886 -0.6857 0.7031
vn -0.1287 -0.3663 0.9216
vn -0.0586 -0.3419 0.9379
vn -0.0826 -0.4697 0.8789
vn 0.0559 -0.3910 0.9187
vn -0.3244 -0.6941 0.6427
vn -0.1541 -0.6712 0.7251
vn -0.1649 -0.7142 0.6803
vn 0.0438 -0.6553 0.7541
vn 0.0725 -0.5164 0.8533
vn 0.1468 -0.4784 0.8658
vn 0.1429 -0.5039 0.8518
vn 0.2258 -0.4486 0.8647
vn -0.2933 -0.8591 0.4195
vn -0.0817 -0.8489 0.5221
vn -0.0607 -0.7874 0.6134
vn 0.1341 -0.7266 0.6739
vn 0.1299 -0.7434 0.6561
vn 0.2596 -0.6844 0.6813
vn 0.2738 -0.6051 0.7476
vn 0.3262 -0.5723 0.7524
vn 0.3295 -0.5481 0.7688
vn 0.4667 -0.4366 0.7691
vn -0.1348 -0.9746 0.1790
vn -0.0767 -0.9754 0.2069
vn -0.0282 -0.8942 0.4469
vn 0.2256 -0.8259 0.5167
vn 0.2311 -0.8082 0.5416
vn 0.2501 -0.8001 0.5452
vn 0.2751 -0.6967 0.6625
vn 0.3433 -0.6593 0.6689
vn 0.3534 -0.5937 0.7229
vn 0.5227 -0.4645 0.7148
vn 0.5220 -0.4762 0.7077
vn 0.4356 -0.5515 0.7114
vn -0.0058 -0.9740 0.2266
vn 0.0177 -0.9713 0.2372
vn -0.0154 -0.9955 0.0937
vn 0.2785 -0.9429 0.1825
vn 0.3180 -0.8743 0.3667
vn 0.3430 -0.8631 0.3707
vn 0.3475 -0.8524 0.3907
vn 0.5229 -0.7511 0.4031
vn 0.5222 -0.7533 0.3998
vn 0.5910 -0.7014 0.3985
vn 0.6238 -0.5204 0.5831
vn 0.4773 -0.6441 0.5978
vn 0.4887 -0.5793 0.6524
vn 0.5096 -0.5620 0.6515
s 0
f 1//1 20//1 19//1
f 2//2 26//2 40//2
f 1//3 19//3 54//3
f 1//4 54//4 68//4
f 1//5 68//5 41//5
f 2//6 40//6 89//6
f 3//7 33//7 103//7
f 4//8 61//8 117//8
f 5//9 75//9 131//9
f 6//10 82//10 145//10
f 2//11 89//11 104//11
f 3//12 103//12 118//12
f 4//13 117//13 132//13
f 5//14 131//14 146//14
f 6//15 145//15 90//15
f 7//16 159//16 194//16
f 8//17 166//17 208//17
f 9//18 173//18 215//18
f 10//19 180//19 222//19
f 11//20 187//20 195//20
f 201//21 216//21 12//21
f 200//22 223//22 201//22
f 199//23 224//23 200//23
f 198//24 226//24 199//24
f 197//25 229//25 198//25
f 196//26 233//26 197//26
f 195//27 238//27 196//27
f 201//28 223//28 216//28
f 223//29 217//29 216//29
f 200//30 224//30 223//30
f 224//31 225//31 223//31
f 223//32 225//32 217//32
f 225//33 218//33 217//33
f 199//34 226//34 224//34
f 226//35 227//35 224//35
f 224//36 227//36 225//36
f 227//37 228//37 225//37
f 225//38 228//38 218//38
f 228//39 219//39 218//39
f 198//40 229//40 226//40
f 229//41 230//41 226//41
f 226//42 230//42 227//42
f 230//43 231//43 227//43
f 227//44 231//44 228//44
f 231//45 232//45 228//45
f 228//46 232//46 219//46
f 232//47 220//47 219//47
f 197//48 233//48 229//48
f 233//49 234//49 229//49
f 229//50 234//50 230//50
f 234//51 235//51 230//51
f 230//52 235//52 231//52
f 235//53 236//53 231//53
f 231//54 236//54 232//54
f 236//55 237//55 232//55
f 232//56 237//56 220//56
f 237//57 221//57 220//57
f 196//58 238//58 233//58
f 238//59 239//59 233//59
f 233//60 239//60 234//60
f 239//61 240//61 234//61
f 234//62 240//62 235//62
f 240//63 241//63 235//63
f 235//64 241//64 236//64
f 241//65 242//65 236//65
f 236//66 242//66 237//66
f 242//67 243//67 237//67
f 237//68 243//68 221//68
f 243//69 222//69 221//69
f 195//70 187//70 238//70
f 187//71 186//71 238//71
f 238//72 186//72 239//72
f 186//73 185//73 239//73
f 239//74 185//74 240//74
f 185//75 184//75 240//75
f 240//76 184//76 241//76
f 184//77 183//77 241//77
f 241//78 183//78 242//78
f 183//79 182//79 242//79
f 242//80 182//80 243//80
f 182//81 181//81 243//81
f 243//82 181//82 222//82
f 181//83 10//83 222//83
f 216//84 209//84 12//84
f 217//85 244//85 216//85
f 218//86 245//86 217//86
f 219//87 247//87 218//87
f 220//88 250//88 219//88
f 221//89 254//89 220//89
f 222//90 259//90 221//90
f 216//91 244//91 209//91
f 244//92 210//92 209//92
f 217//93 245//93 244//93
f 245//94 246//94 244//94
f 244//95 246//95 210//95
f 246//96 211//96 210//96
f 218//97 247//97 245//97
f 247//98 248//98 245//98
f 245//99 248//99 246//99
f 248//100 249//100 246//100
f 246//101 249//101 211//101
f 249//102 212//102 211//102
f 219//103 250//103 247//103
f 250//104 251//104 247//104
f 247//105 251//105 248//105
f 251//106 252//106 248//106
f 248//107 252//107 249//107
f 252//108 253//108 249//108
f 249//109 253//109 212//109
f 253//110 213//110 212//110
f 220//111 254//111 250//111
f 254//112 255//112 250//112
f 250//113 255//113 251//113
f 255//114 256//114 251//114
f 251//115 256//115 252//115
f 256//116 257//116 252//116
f 252//117 257//117 253//117
f 257//118 258//118 253//118
f 253//119 258//119 213//119
f 258//120 214//120 213//120
f 221//121 259//121 254//121
f 259//122 260//122 254//122
f 254//123 260//123 255//123
f 260//124 261//124 255//124
f 255//125 261//125 256//125
f 261//126 262//126 256//126
f 256//127 262//127 257//127
f 262//128 263//128 257//128
f 257//129 263//129 258//129
f 263//130 264//130 258//130
f 258//131 264//131 214//131
f 264//132 215//132 214//132
f 222//133 180//133 259//133
f 180//134 179//134 259//134
f 259//135 179//135 260//135
f 179//136 178//136 260//136
f 260//137 178//137 261//137
f 178//138 177//138 261//138
f 261//139 177//139 262//139
f 177//140 176//140 262//140
f 262//141 176//141 263//141
f 176//142 175//142 263//142
f 263//143 175//143 264//143
f 175//144 174//144 264//144
f 264//145 174//145 215//145
f 174//146 9//146 215//146
f 209//147 202//147 12//147
f 210//148 265//148 209//148
f 211//149 266//149 210//149
f 212//150 268//150 211//150
f 213//151 271//151 212//151
f 214//152 275//152 213//152
f 215//153 280//153 214//153
f 209//154 265//154 202//154
f 265//155 203//155 202//155
f 210//156 266//156 265//156
f 266//157 267//157 265//157
f 265//158 267//158 203//158
f 267//159 204//159 203//159
f 211//160 268//160 266//160
f 268//161 269//161 266//161
f 266//162 269//162 267//162
f 269//163 270//163 267//163
f 267//164 270//164 204//164
f 270//165 205//165 204//165
f 212//166 271//166 268//166
f 271//167 272//167 268//167
f 268//168 272//168 269//168
f 272//169 273//169 269//169
f 269//170 273//170 270//170
f 273//171 274//171 270//171
f 270//172 274//172 205//172
f 274//173 206//173 205//173
f 213//174 275//174 271//174
f 275//175 276//175 271//175
f 271//176 276//176 272//176
f 276//177 277//177 272//177
f 272//178 277//178 273//178
f 277//179 278//179 273//179
f 273//180 278//180 274//180
f 278//181 279//181 274//181
f 274//182 279//182 206//182
f 279//183 207//183 206//183
f 214//184 280//184 275//184
f 280//185 281//185 275//185
f 275//186 281//186 276//186
f 281//187 282//187 276//187
f 276//188 282//188 277//188
f 282//189 283//189 277//189
f 277//190 283//190 278//190
f 283//191 284//191 278//191
f 278//192 284//192 279//192
f 284//193 285//193 279//193
f 279//194 285//194 207//194
f 285//195 208//195 207//195
f 215//196 173//196 280//196
f 173//197 172//197 280//197
f 280//198 172//198 281//198
f 172//199 171//199 281//199
f 281//200 171//200 282//200
f 171//201 170//201 282//201
f 282//202 170//202 283//202
f 170//203 169//203 283//203
f 283//204 169//204 284//204
f 169//205 168//205 284//205
f 284//206 168//206 285//206
f 168//207 167//207 285//207
f 285//208 167//208 208//208
f 167//209 8//209 208//209
f 202//210 188//210 12//210
f 203//211 286//211 202//211
f 204//212 287//212 203//212
f 205//213 289//213 204//213
f 206//214 292//214 205//214
f 207//215 296//215 206//215
f 208//216 301//216 207//216
f 202//217 286//217 188//217
f 286//218 189//218 188//218
f 203//219 287//219 286//219
f 287//220 288//220 286//220
f 286//221 288//221 189//221
f 288//222 190//222 189//222
f 204//223 289//223 287//223
f 289//224 290//224 287//224
f 287//225 290//225 288//225
f 290//226 291//226 288//226
f 288//227 291//227 190//227
f 291//228 191//228 190//228
f 205//229 292//229 289//229
f 292//230 293//230 289//230
f 289//231 293//231 290//231
f 293//232 294//232 290//232
f 290//233 294//233 291//233
f 294//234 295//234 291//234
f 291//235 295//235 191//235
f 295//236 192//236 191//236
f 206//237 296//237 292//237
f 296//238 297//238 292//238
f 292//239 297//239 293//239
f 297//240 298//240 293//240
f 293//241 298//241 294//241
f 298//242 299//242 294//242
f 294//243 299//243 295//243
f 299//244 300//244 295//244
f 295//245 300//245 192//245
f 300//246 193//246 192//246
f 207//247 301//247 296//247
f 301//248 302//248 296//248
f 296//249 302//249 297//249
f 302//250 303//250 297//250
f 297//251 303//251 298//251
f 303//252 304//252 298//252
f 298//253 304//253 299//253
f 304//254 305//254 299//254
f 299//255 305//255 300//255
f 305//256 306//256 300//256
f 300//257 306//257 193//257
f 306//258 194//258 193//258
f 208//259 166//259 301//259
f 166//260 165//260 301//260
f 301//261 165//261 302//261
f 165//262 164//262 302//262
f 302//263 164//263 303//263
f 164//264 163//264 303//264
f 303//265 163//265 304//265
f 163//266 162//266 304//266
f 304//267 162//267 305//267
f 162//268 161//268 305//268
f 305//269 161//269 306//269
f 161//270 160//270 306//270
f 306//271 160//271 194//271
f 160//272 7//272 194//272
f 188//273 201//273 12//273
f 189//274 307//274 188//274
f 190//275 308//275 189//275
f 191//276 310//276 190//276
f 192//277 313//277 191//277
f 193//278 317//278 192//278
f 194//279 322//279 193//279
f 188//280 307//280 201//280
f 307//281 200//281 201//281
f 189//282 308//282 307//282
f 308//283 309//283 307//283
f 307//284 309//284 200//284
f 309//285 199//285 200//285
f 190//286 310//286 308//286
f 310//287 311//287 308//287
f 308//288 311//288 309//288
f 311//289 312//289 309//289
f 309//290 312//290 199//290
f 312//291 198//291 199//291
f 191//292 313//292 310//292
f 313//293 314//293 310//293
f 310//294 314//294 311//294
f 314//295 315//295 311//295
f 311//296 315//296 312//296
f 315//297 316//297 312//297
f 312//298 316//298 198//298
f 316//299 197//299 198//299
f 192//300 317//300 313//300
f 317//301 318//301 313//301
f 313//302 318//302 314//302
f 318//303 319//303 314//303
f 314//304 319//304 315//304
f 319//305 320//305 315//305
f 315//306 320//306 316//306
f 320//307 321//307 316//307
f 316//308 321//308 197//308
f 321//309 196//309 197//309
f 193//310 322//310 317//310
f 322//311 323//311 317//311
f 317//312 323//312 318//312
f 323//313 324//313 318//313
f 318//314 324//314 319//314
f 324//315 325//315 319//315
f 319//316 325//316 320//316
f 325//317 326//317 320//317
f 320//318 326//318 321//318
f 326//319 327//319 321//319
f 321//320 327//320 196//320
f 327//321 195//321 196//321
f 194//322 159//322 322//322
f 159//323 158//323 322//323
f 322//324 158//324 323//324
f 158//325 157//325 323//325
f 323//326 157//326 324//326
f 157//327 156//327 324//327
f 324//328 156//328 325//328
f 156//329 155//329 325//329
f 325//330 155//330 326//330
f 155//331 154//331 326//331
f 326//332 154//332 327//332
f 154//333 153//333 327//333
f 327//334 153//334 195//334
f 153//335 11//335 195//335
f 96//336 187//336 11//336
f 95//337 328//337 96//337
f 94//338 329//338 95//338
f 93//339 331//339 94//339
f 92//340 334//340 93//340
f 91//341 338//341 92//341
f 90//342 343//342 91//342
f 96//343 328//343 187//343
f 328//344 186//344 187//344
f 95//345 329//345 328//345
f 329//346 330//346 328//346
f 328//347 330//347 186//347
f 330//348 185//348 186//348
f 94//349 331//349 329//349
f 331//350 332//350 329//350
f 329//351 332//351 330//351
f 332//352 333//352 330//352
f 330//353 333//353 185//353
f 333//354 184//354 185//354
f 93//355 334//355 331//355
f 334//356 335//356 331//356
f 331//357 335//357 332//357
f 335//358 336//358 332//358
f 332//359 336//359 333//359
f 336//360 337//360 333//360
f 333//361 337//361 184//361
f 337//362 183//362 184//362
f 92//363 338//363 334//363
f 338//364 339//364 334//364
f 334//365 339//365 335//365
f 339//366 340//366 335//366
f 335//367 340//367 336//367
f 340//368 341//368 336//368
f 336//369 341//369 337//369
f 341//370 342//370 337//370
f 337//371 342//371 183//371
f 342//372 182//372 183//372
f 91//373 343//373 338//373
f 343//374 344//374 338//374
f 338//375 344//375 339//375
f 344//376 345//376 339//376
f 339//377 345//377 340//377
f 345//378 346//378 340//378
f 340//379 346//379 341//379
f 346//380 347//380 341//380
f 341//381 347//381 342//381
f 347//382 348//382 342//382
f 342//383 348//383 182//383
f 348//384 181//384 182//384
f 90//385 145//385 343//385
f 145//386 144//386 343//386
f 343//387 144//387 344//387
f 144//388 143//388 344//388
f 344//389 143//389 345//389
f 143//390 142//390 345//390
f 345//391 142//391 346//391
f 142//392 141//392 346//392
f 346//393 141//393 347//393
f 141//394 140//394 347//394
f 347//395 140//395 348//395
f 140//396 139//396 348//396
f 348//397 139//397 181//397
f 139//398 10//398 181//398
f 152//399 180//399 10//399
f 151//400 349//400 152//400
f 150//401 350//401 151//401
f 149//402 352//402 150//402
f 148//403 355//403 149//403
f 147//404 359//404 148//404
f 146//405 364//405 147//405
f 152//406 349//406 180//406
f 349//407 179//407 180//407
f 151//408 350//408 349//408
f 350//409 351//409 349//409
f 349//410 351//410 179//410
f 351//411 178//411 179//411
f 150//412 352//412 350//412
f 352//413 353//413 350//413
f 350//414 353//414 351//414
f 353//415 354//415 351//415
f 351//416 354//416 178//416
f 354//417 177//417 178//417
f 149//418 355//418 352//418
f 355//419 356//419 352//419
f 352//420 356//420 353//420
f 356//421 357//421 353//421
f 353//422 357//422 354//422
f 357//423 358//423 354//423
f 354//424 358//424 177//424
f 358//425 176//425 177//425
f 148//426 359//426 355//426
f 359//427 360//427 355//427
f 355//428 360//428 356//428
f 360//429 361//429 356//429
f 356//430 361//430 357//430
f 361//431 362//431 357//431
f 357//432 362//432 358//432
f 362//433 363//433 358//433
f 358//434 363//434 176//434
f 363//435 175//435 176//435
f 147//436 364//436 359//436
f 364//437 365//437 359//437
f 359//438 365//438 360//438
f 365//439 366//439 360//439
f 360//440 366//440 361//440
f 366//441 367//441 361//441
f 361//442 367//442 362//442
f 367//443 368//443 362//443
f 362//444 368//444 363//444
f 368//445 369//445 363//445
f 363//446 369//446 175//446
f 369//447 174//447 175//447
f 146//448 131//448 364//448
f 131//449 130//449 364//449
f 364//450 130//450 365//450
f 130//451 129//451 365//451
f 365//452 129//452 366//452
f 129//453 128//453 366//453
f 366//454 128//454 367//454
f 128//455 127//455 367//455
f 367//456 127//456 368//456
f 127//457 126//457 368//457
f 368//458 126//458 369//458
f 126//459 125//459 369//459
f 369//460 125//460 174//460
f 125//461 9//461 174//461
f 138//462 173//462 9//462
f 137//463 370//463 138//463
f 136//464 371//464 137//464
f 135//465 373//465 136//465
f 134//466 376//466 135//466
f 133//467 380//467 134//467
f 132//468 385//468 133//468
f 138//469 370//469 173//469
f 370//470 172//470 173//470
f 137//471 371//471 370//471
f 371//472 372//472 370//472
f 370//473 372//473 172//473
f 372//474 171//474 172//474
f 136//475 373//475 371//475
f 373//476 374//476 371//476
f 371//477 374//477 372//477
f 374//478 375//478 372//478
f 372//479 375//479 171//479
f 375//480 170//480 171//480
f 135//481 376//481 373//481
f 376//482 377//482 373//482
f 373//483 377//483 374//483
f 377//484 378//484 374//484
f 374//485 378//485 375//485
f 378//486 379//486 375//486
f 375//487 379//487 170//487
f 379//488 169//488 170//488
f 134//489 380//489 376//489
f 380//490 381//490 376//490
f 376//491 381//491 377//491
f 381//492 382//492 377//492
f 377//493 382//493 378//493
f 382//494 383//494 378//494
f 378//495 383//495 379//495
f 383//496 384//496 379//496
f 379//497 384//497 169//497
f 384//498 168//498 169//498
f 133//499 385//499 380//499
f 385//500 386//500 380//500
f 380//501 386//501 381//501
f 386//502 387//502 381//502
f 381//503 387//503 382//503
f 387//504 388//504 382//504
f 382//505 388//505 383//505
f 388//506 389//506 383//506
f 383//507 389//507 384//507
f 389//508 390//508 384//508
f 384//509 390//509 168//509
f 390//510 167//510 168//510
f 132//511 117//511 385//511
f 117//512 116//512 385//512
f 385//513 116//513 386//513
f 116//514 115//514 386//514
f 386//515 115//515 387//515
f 115//516 114//516 387//516
f 387//517 114//517 388//517
f 114//518 113//518 388//518
f 388//519 113//519 389//519
f 113//520 112//520 389//520
f 389//521 112//521 390//521
f 112//522 111//522 390//522
f 390//523 111//523 167//523
f 111//524 8//524 167//524
f 124//525 166//525 8//525
f 123//526 391//526 124//526
f 122//527 392//527 123//527
f 121//528 394//528 122//528
f 120//529 397//529 121//529
f 119//530 401//530 120//530
f 118//531 406//531 119//531
f 124//532 391//532 166//532
f 391//533 165//533 166//533
f 123//534 392//534 391//534
f 392//535 393//535 391//535
f 391//536 393//536 165//536
f 393//537 164//537 165//537
f 122//538 394//538 392//538
f 394//539 395//539 392//539
f 392//540 395//540 393//540
f 395//541 396//541 393//541
f 393//542 396//542 164//542
f 396//543 163//543 164//543
f 121//544 397//544 394//544
f 397//545 398//545 394//545
f 394//546 398//546 395//546
f 398//547 399//547 395//547
f 395//548 399//548 396//548
f 399//549 400//549 396//549
f 396//550 400//550 163//550
f 400//551 162//551 163//551
f 120//552 401//552 397//552
f 401//553 402//553 397//553
f 397//554 402//554 398//554
f 402//555 403//555 398//555
f 398//556 403//556 399//556
f 403//557 404//557 399//557
f 399//558 404//558 400//558
f 404//559 405//559 400//559
f 400//560 405//560 162//560
f 405//561 161//561 162//561
f 119//562 406//562 401//562
f 406//563 407//563 401//563
f 401//564 407//564 402//564
f 407//565 408//565 402//565
f 402//566 408//566 403//566
f 408//567 409//567 403//567
f 403//568 409//568 404//568
f 409//569 410//569 404//569
f 404//570 410//570 405//570
f 410//571 411//571 405//571
f 405//572 411//572 161//572
f 411//573 160//573 161//573
f 118//574 103//574 406//574
f 103//575 102//575 406//575
f 406//576 102//576 407//576
f 102//577 101//577 407//577
f 407//578 101//578 408//578
f 101//579 100//579 408//579
f 408//580 100//580 409//580
f 100//581 99//581 409//581
f 409//582 99//582 410//582
f 99//583 98//583 410//583
f 410//584 98//584 411//584
f 98//585 97//585 411//585
f 411//586 97//586 160//586
f 97//587 7//587 160//587
f 110//588 159//588 7//588
f 109//589 412//589 110//589
f 108//590 413//590 109//590
f 107//591 415//591 108//591
f 106//592 418//592 107//592
f 105//593 422//593 106//593
f 104//594 427//594 105//594
f 110//595 412//595 159//595
f 412//596 158//596 159//596
f 109//597 413//597 412//597
f 413//598 414//598 412//598
f 412//599 414//599 158//599
f 414//600 157//600 158//600
f 108//601 415//601 413//601
f 415//602 416//602 413//602
f 413//603 416//603 414//603
f 416//604 417//604 414//604
f 414//605 417//605 157//605
f 417//606 156//606 157//606
f 107//607 418//607 415//607
f 418//608 419//608 415//608
f 415//609 419//609 416//609
f 419//610 420//610 416//610
f 416//611 420//611 417//611
f 420//612 421//612 417//612
f 417//613 421//613 156//613
f 421//614 155//614 156//614
f 106//615 422//615 418//615
f 422//616 423//616 418//616
f 418//617 423//617 419//617
f 423//618 424//618 419//618
f 419//619 424//619 420//619
f 424//620 425//620 420//620
f 420//621 425//621 421//621
f 425//622 426//622 421//622
f 421//623 426//623 155//623
f 426//624 154//624 155//624
f 105//625 427//625 422//625
f 427//626 428//626 422//626
f 422//627 428//627 423//627
f 428//628 429//628 423//628
f 423//629 429//629 424//629
f 429//630 430//630 424//630
f 424//631 430//631 425//631
f 430//632 431//632 425//632
f 425//633 431//633 426//633
f 431//634 432//634 426//634
f 426//635 432//635 154//635
f 432//636 153//636 154//636
f 104//637 89//637 427//637
f 89//638 88//638 427//638
f 427//639 88//639 428//639
f 88//640 87//640 428//640
f 428//641 87//641 429//641
f 87//642 86//642 429//642
f 429//643 86//643 430//643
f 86//644 85//644 430//644
f 430//645 85//645 431//645
f 85//646 84//646 431//646
f 431//647 84//647 432//647
f 84//648 83//648 432//648
f 432//649 83//649 153//649
f 83//650 11//650 153//650
f 139//651 152//651 10//651
f 140//652 433//652 139//652
f 141//653 434//653 140//653
f 142//654 436//654 141//654
f 143//655 439//655 142//655
f 144//656 443//656 143//656
f 145//657 448//657 144//657
f 139//658 433//658 152//658
f 433//659 151//659 152//659
f 140//660 434//660 433//660
f 434//661 435//661 433//661
f 433//662 435//662 151//662
f 435//663 150//663 151//663
f 141//664 436//664 434//664
f 436//665 437//665 434//665
f 434//666 437//666 435//666
f 437//667 438//667 435//667
f 435//668 438//668 150//668
f 438//669 149//669 150//669
f 142//670 439//670 436//670
f 439//671 440//671 436//671
f 436//672 440//672 437//672
f 440//673 441//673 437//673
f 437//674 441//674 438//674
f 441//675 442//675 438//675
f 438//676 442//676 149//676
f 442//677 148//677 149//677
f 143//678 443//678 439//678
f 443//679 444//679 439//679
f 439//680 444//680 440//680
f 444//681 445//681 440//681
f 440//682 445//682 441//682
f 445//683 446//683 441//683
f 441//684 446//684 442//684
f 446//685 447//685 442//685
f 442//686 447//686 148//686
f 447//687 147//687 148//687
f 144//688 448//688 443//688
f 448//689 449//689 443//689
f 443//690 449//690 444//690
f 449//691 450//691 444//691
f 444//692 450//692 445//692
f 450//693 451//693 445//693
f 445//694 451//694 446//694
f 451//695 452//695 446//695
f 446//696 452//696 447//696
f 452//697 453//697 447//697
f 447//698 453//698 147//698
f 453//699 146//699 147//699
f 145//700 82//700 448//700
f 82//701 81//701 448//701
f 448//702 81//702 449//702
f 81//703 80//703 449//703
f 449//704 80//704 450//704
f 80//705 79//705 450//705
f 450//706 79//706 451//706
f 79//707 78//707 451//707
f 451//708 78//708 452//708
f 78//709 77//709 452//709
f 452//710 77//710 453//710
f 77//711 76//711 453//711
f 453//712 76//712 146//712
f 76//713 5//713 146//713
f 125//714 138//714 9//714
f 126//715 454//715 125//715
f 127//716 455//716 126//716
f 128//717 457//717 127//717
f 129//718 460//718 128//718
f 130//719 464//719 129//719
f 131//720 469//720 130//720
f 125//721 454//721 138//721
f 454//722 137//722 138//722
f 126//723 455//723 454//723
f 455//724 456//724 454//724
f 454//725 456//725 137//725
f 456//726 136//726 137//726
f 127//727 457//727 455//727
f 457//728 458//728 455//728
f 455//729 458//729 456//729
f 458//730 459//730 456//730
f 456//731 459//731 136//731
f 459//732 135//732 136//732
f 128//733 460//733 457//733
f 460//734 461//734 457//734
f 457//735 461//735 458//735
f 461//736 462//736 458//736
f 458//737 462//737 459//737
f 462//738 463//738 459//738
f 459//739 463//739 135//739
f 463//740 134//740 135//740
f 129//741 464//741 460//741
f 464//742 465//742 460//742
f 460//743 465//743 461//743
f 465//744 466//744 461//744
f 461//745 466//745 462//745
f 466//746 467//746 462//746
f 462//747 467//747 463//747
f 467//748 468//748 463//748
f 463//749 468//749 134//749
f 468//750 133//750 134//750
f 130//751 469//751 464//751
f 469//752 470//752 464//752
f 464//753 470//753 465//753
f 470//754 471//754 465//754
f 465//755 471//755 466//755
f 471//756 472//756 466//756
f 466//757 472//757 467//757
f 472//758 473//758 467//758
f 467//759 473//759 468//759
f 473//760 474//760 468//760
f 468//761 474//761 133//761
f 474//762 132//762 133//762
f 131//763 75//763 469//763
f 75//764 74//764 469//764
f 469//765 74//765 470//765
f 74//766 73//766 470//766
f 470//767 73//767 471//767
f 73//768 72//768 471//768
f 471//769 72//769 472//769
f 72//770 71//770 472//770
f 472//771 71//771 473//771
f 71//772 70//772 473//772
f 473//773 70//773 474//773
f 70//774 69//774 474//774
f 474//775 69//775 132//775
f 69//776 4//776 132//776
f 111//777 124//777 8//777
f 112//778 475//778 111//778
f 113//779 476//779 112//779
f 114//780 478//780 113//780
f 115//781 481//781 114//781
f 116//782 485//782 115//782
f 117//783 490//783 116//783
f 111//784 475//784 124//784
f 475//785 123//785 124//785
f 112//786 476//786 475//786
f 476//787 477//787 475//787
f 475//788 477//788 123//788
f 477//789 122//789 123//789
f 113//790 478//790 476//790
f 478//791 479//791 476//791
f 476//792 479//792 477//792
f 479//793 480//793 477//793
f 477//794 480//794 122//794
f 480//795 121//795 122//795
f 114//796 481//796 478//796
f 481//797 482//797 478//797
f 478//798 482//798 479//798
f 482//799 483//799 479//799
f 479//800 483//800 480//800
f 483//801 484//801 480//801
f 480//802 484//802 121//802
f 484//803 120//803 121//803
f 115//804 485//804 481//804
f 485//805 486//805 481//805
f 481//806 486//806 482//806
f 486//807 487//807 482//807
f 482//808 487//808 483//808
f 487//809 488//809 483//809
f 483//810 488//810 484//810
f 488//811 489//811 484//811
f 484//812 489//812 120//812
f 489//813 119//813 120//813
f 116//814 490//814 485//814
f 490//815 491//815 485//815
f 485//816 491//816 486//816
f 491//817 492//817 486//817
f 486//818 492//818 487//818
f 492//819 493//819 487//819
f 487//820 493//820 488//820
f 493//821 494//821 488//821
f 488//822 494//822 489//822
f 494//823 495//823 489//823
f 489//824 495//824 119//824
f 495//825 118//825 119//825
f 117//826 61//826 490//826
f 61//827 60//827 490//827
f 490//828 60//828 491//828
f 60//829 59//829 491//829
f 491//830 59//830 492//830
f 59//831 58//831 492//831
f 492//832 58//832 493//832
f 58//833 57//833 493//833
f 493//834 57//834 494//834
f 57//835 56//835 494//835
f 494//836 56//836 495//836
f 56//837 55//837 495//837
f 495//838 55//838 118//838
f 55//839 3//839 118//839
f 97//840 110//840 7//840
f 98//841 496//841 97//841
f 99//842 497//842 98//842
f 100//843 499//843 99//843
f 101//844 502//844 100//844
f 102//845 506//845 101//845
f 103//846 511//846 102//846
f 97//847 496//847 110//847
f 496//848 109//848 110//848
f 98//849 497//849 496//849
f 497//850 498//850 496//850
f 496//851 498//851 109//851
f 498//852 108//852 109//852
f 99//853 499//853 497//853
f 499//854 500//854 497//854
f 497//855 500//855 498//855
f 500//856 501//856 498//856
f 498//857 501//857 108//857
f 501//858 107//858 108//858
f 100//859 502//859 499//859
f 502//860 503//860 499//860
f 499//861 503//861 500//861
f 503//862 504//862 500//862
f 500//863 504//863 501//863
f 504//864 505//864 501//864
f 501//865 505//865 107//865
f 505//866 106//866 107//866
f 101//867 506//867 502//867
f 506//868 507//868 502//868
f 502//869 507//869 503//869
f 507//870 508//870 503//870
f 503//871 508//871 504//871
f 508//872 509//872 504//872
f 504//873 509//873 505//873
f 509//874 510//874 505//874
f 505//875 510//875 106//875
f 510//876 105//876 106//876
f 102//877 511//877 506//877
f 511//878 512//878 506//878
f 506//879 512//879 507//879
f 512//880 513//880 507//880
f 507//881 513//881 508//881
f 513//882 514//882 508//882
f 508//883 514//883 509//883
f 514//884 515//884 509//884
f 509//885 515//885 510//885
f 515//886 516//886 510//886
f 510//887 516//887 105//887
f 516//888 104//888 105//888
f 103//889 33//889 511//889
f 33//890 32//890 511//890
f 511//891 32//891 512//891
f 32//892 31//892 512//892
f 512//893 31//893 513//893
f 31//894 30//894 513//894
f 513//895 30//895 514//895
f 30//896 29//896 514//896
f 514//897 29//897 515//897
f 29//898 28//898 515//898
f 515//899 28//899 516//899
f 28//900 27//900 516//900
f 516//901 27//901 104//901
f 27//902 2//902 104//902
f 83//903 96//903 11//903
f 84//904 517//904 83//904
f 85//905 518//905 84//905
f 86//906 520//906 85//906
f 87//907 523//907 86//907
f 88//908 527//908 87//908
f 89//909 532//909 88//909
f 83//910 517//910 96//910
f 517//911 95//911 96//911
f 84//912 518//912 517//912
f 518//913 519//913 517//913
f 517//914 519//914 95//914
f 519//915 94//915 95//915
f 85//916 520//916 518//916
f 520//917 521//917 518//917
f 518//918 521//918 519//918
f 521//919 522//919 519//919
f 519//920 522//920 94//920
f 522//921 93//921 94//921
f 86//922 523//922 520//922
f 523//923 524//923 520//923
f 520//924 524//924 521//924
f 524//925 525//925 521//925
f 521//926 525//926 522//926
f 525//927 526//927 522//927
f 522//928 526//928 93//928
f 526//929 92//929 93//929
f 87//930 527//930 523//930
f 527//931 528//931 523//931
f 523//932 528//932 524//932
f 528//933 529//933 524//933
f 524//934 529//934 525//934
f 529//935 530//935 525//935
f 525//936 530//936 526//936
f 530//937 531//937 526//937
f 526//938 531//938 92//938
f 531//939 91//939 92//939
f 88//940 532//940 527//940
f 532//941 533//941 527//941
f 527//942 533//942 528//942
f 533//943 534//943 528//943
f 528//944 534//944 529//944
f 534//945 535//945 529//945
f 529//946 535//946 530//946
f 535//947 536//947 530//947
f 530//948 536//948 531//948
f 536//949 537//949 531//949
f 531//950 537//950 91//950
f 537//951 90//951 91//951
f 89//952 40//952 532//952
f 40//953 39//953 532//953
f 532//954 39//954 533//954
f 39//955 38//955 533//955
f 533//956 38//956 534//956
f 38//957 37//957 534//957
f 534//958 37//958 535//958
f 37//959 36//959 535//959
f 535//960 36//960 536//960
f 36//961 35//961 536//961
f 536//962 35//962 537//962
f 35//963 34//963 537//963
f 537//964 34//964 90//964
f 34//965 6//965 90//965
f 47//966 82//966 6//966
f 46//967 538//967 47//967
f 45//968 539//968 46//968
f 44//969 541//969 45//969
f 43//970 544//970 44//970
f 42//971 548//971 43//971
f 41//972 553//972 42//972
f 47//973 538//973 82//973
f 538//974 81//974 82//974
f 46//975 539//975 538//975
f 539//976 540//976 538//976
f 538//977 540//977 81//977
f 540//978 80//978 81//978
f 45//979 541//979 539//979
f 541//980 542//980 539//980
f 539//981 542//981 540//981
f 542//982 543//982 540//982
f 540//983 543//983 80//983
f 543//984 79//984 80//984
f 44//985 544//985 541//985
f 544//986 545//986 541//986
f 541//987 545//987 542//987
f 545//988 546//988 542//988
f 542//989 546//989 543//989
f 546//990 547//990 543//990
f 543//991 547//991 79//991
f 547//992 78//992 79//992
f 43//993 548//993 544//993
f 548//994 549//994 544//994
f 544//995 549//995 545//995
f 549//996 550//996 545//996
f 545//997 550//997 546//997
f 550//998 551//998 546//998
f 546//999 551//999 547//999
f 551//1000 552//1000 547//1000
f 547//1001 552//1001 78//1001
f 552//1002 77//1002 78//1002
f 42//1003 553//1003 548//1003
f 553//1004 554//1004 548//1004
f 548//1005 554//1005 549//1005
f 554//1006 555//1006 549//1006
f 549//1007 555//1007 550//1007
f 555//1008 556//1008 550//1008
f 550//1009 556//1009 551//1009
f 556//1010 557//1010 551//1010
f 551//1011 557//1011 552//1011
f 557//1012 558//1012 552//1012
f 552//1013 558//1013 77//1013
f 558//1014 76//1014 77//1014
f 41//1015 68//1015 553//1015
f 68//1016 67//1016 553//1016
f 553//1017 67//1017 554//1017
f 67//1018 66//1018 554//1018
f 554//1019 66//1019 555//1019
f 66//1020 65//1020 555//1020
f 555//1021 65//1021 556//1021
f 65//1022 64//1022 556//1022
f 556//1023 64//1023 557//1023
f 64//1024 63//1024 557//1024
f 557//1025 63//1025 558//1025
f 63//1026 62//1026 558//1026
f 558//1027 62//1027 76//1027
f 62//1028 5//1028 76//1028
f 62//1029 75//1029 5//1029
f 63//1030 559//1030 62//1030
f 64//1031 560//1031 63//1031
f 65//1032 562//1032 64//1032
f 66//1033 565//1033 65//1033
f 67//1034 569//1034 66//1034
f 68//1035 574//1035 67//1035
f 62//1036 559//1036 75//1036
f 559//1037 74//1037 75//1037
f 63//1038 560//1038 559//1038
f 560//1039 561//1039 559//1039
f 559//1040 561//1040 74//1040
f 561//1041 73//1041 74//1041
f 64//1042 562//1042 560//1042
f 562//1043 563//1043 560//1043
f 560//1044 563//1044 561//1044
f 563//1045 564//1045 561//1045
f 561//1046 564//1046 73//1046
f 564//1047 72//1047 73//1047
f 65//1048 565//1048 562//1048
f 565//1049 566//1049 562//1049
f 562//1050 566//1050 563//1050
f 566//1051 567//1051 563//1051
f 563//1052 567//1052 564//1052
f 567//1053 568//1053 564//1053
f 564//1054 568//1054 72//1054
f 568//1055 71//1055 72//1055
f 66//1056 569//1056 565//1056
f 569//1057 570//1057 565//1057
f 565//1058 570//1058 566//1058
f 570//1059 571//1059 566//1059
f 566//1060 571//1060 567//1060
f 571//1061 572//1061 567//1061
f 567//1062 572//1062 568//1062
f 572//1063 573//1063 568//1063
f 568//1064 573//1064 71//1064
f 573//1065 70//1065 71//1065
f 67//1066 574//1066 569//1066
f 574//1067 575//1067 569//1067
f 569//1068 575//1068 570//1068
f 575//1069 576//1069 570//1069
f 570//1070 576//1070 571//1070
f 576//1071 577//1071 571//1071
f 571//1072 577//1072 572//1072
f 577//1073 578//1073 572//1073
f 572//1074 578//1074 573//1074
f 578//1075 579//1075 573//1075
f 573//1076 579//1076 70//1076
f 579//1077 69//1077 70//1077
f 68//1078 54//1078 574//1078
f 54//1079 53//1079 574//1079
f 574//1080 53//1080 575//1080
f 53//1081 52//1081 575//1081
f 575//1082 52//1082 576//1082
f 52//1083 51//1083 576//1083
f 576//1084 51//1084 577//1084
f 51//1085 50//1085 577//1085
f 577//1086 50//1086 578//1086
f 50//1087 49//1087 578//1087
f 578//1088 49//1088 579//1088
f 49//1089 48//1089 579//1089
f 579//1090 48//1090 69//1090
f 48//1091 4//1091 69//1091
f 48//1092 61//1092 4//1092
f 49//1093 580//1093 48//1093
f 50//1094 581//1094 49//1094
f 51//1095 583//1095 50//1095
f 52//1096 586//1096 51//1096
f 53//1097 590//1097 52//1097
f 54//1098 595//1098 53//1098
f 48//1099 580//1099 61//1099
f 580//1100 60//1100 61//1100
f 49//1101 581//1101 580//1101
f 581//1102 582//1102 580//1102
f 580//1103 582//1103 60//1103
f 582//1104 59//1104 60//1104
f 50//1105 583//1105 581//1105
f 583//1106 584//1106 581//1106
f 581//1107 584//1107 582//1107
f 584//1108 585//1108 582//1108
f 582//1109 585//1109 59//1109
f 585//1110 58//1110 59//1110
f 51//1111 586//1111 583//1111
f 586//1112 587//1112 583//1112
f 583//1113 587//1113 584//1113
f 587//1114 588//1114 584//1114
f 584//1115 588//1115 585//1115
f 588//1116 589//1116 585//1116
f 585//1117 589//1117 58//1117
f 589//1118 57//1118 58//1118
f 52//1119 590//1119 586//1119
f 590//1120 591//1120 586//1120
f 586//1121 591//1121 587//1121
f 591//1122 592//1122 587//1122
f 587//1123 592//1123 588//1123
f 592//1124 593//1124 588//1124
f 588//1125 593//1125 589//1125
f 593//1126 594//1126 589//1126
f 589//1127 594//1127 57//1127
f 594//1128 56//1128 57//1128
f 53//1129 595//1129 590//1129
f 595//1130 596//1130 590//1130
f 590//1131 596//1131 591//1131
f 596//1132 597//1132 591//1132
f 591//1133 597//1133 592//1133
f 597//1134 598//1134 592//1134
f 592//1135 598//1135 593//1135
f 598//1136 599//1136 593//1136
f 593//1137 599//1137 594//1137
f 599//1138 600//1138 594//1138
f 594//1139 600//1139 56//1139
f 600//1140 55//1140 56//1140
f 54//1141 19//1141 595//1141
f 19//1142 18//1142 595//1142
f 595//1143 18//1143 596//1143
f 18//1144 17//1144 596//1144
f 596//1145 17//1145 597//1145
f 17//1146 16//1146 597//1146
f 597//1147 16//1147 598//1147
f 16//1148 15//1148 598//1148
f 598//1149 15//1149 599//1149
f 15//1150 14//1150 599//1150
f 599//1151 14//1151 600//1151
f 14//1152 13//1152 600//1152
f 600//1153 13//1153 55//1153
f 13//1154 3//1154 55//1154
f 34//1155 47//1155 6//1155
f 35//1156 601//1156 34//1156
f 36//1157 602//1157 35//1157
f 37//1158 604//1158 36//1158
f 38//1159 607//1159 37//1159
f 39//1160 611//1160 38//1160
f 40//1161 616//1161 39//1161
f 34//1162 601//1162 47//1162
f 601//1163 46//1163 47//1163
f 35//1164 602//1164 601//1164
f 602//1165 603//1165 601//1165
f 601//1166 603//1166 46//1166
f 603//1167 45//1167 46//1167
f 36//1168 604//1168 602//1168
f 604//1169 605//1169 602//1169
f 602//1170 605//1170 603//1170
f 605//1171 606//1171 603//1171
f 603//1172 606//1172 45//1172
f 606//1173 44//1173 45//1173
f 37//1174 607//1174 604//1174
f 607//1175 608//1175 604//1175
f 604//1176 608//1176 605//1176
f 608//1177 609//1177 605//1177
f 605//1178 609//1178 606//1178
f 609//1179 610//1179 606//1179
f 606//1180 610//1180 44//1180
f 610//1181 43//1181 44//1181
f 38//1182 611//1182 607//1182
f 611//1183 612//1183 607//1183
f 607//1184 612//1184 608//1184
f 612//1185 613//1185 608//1185
f 608//1186 613//1186 609//1186
f 613//1187 614//1187 609//1187
f 609//1188 614//1188 610//1188
f 614//1189 615//1189 610//1189
f 610//1190 615//1190 43//1190
f 615//1191 42//1191 43//1191
f 39//1192 616//1192 611//1192
f 616//1193 617//1193 611//1193
f 611//1194 617//1194 612//1194
f 617//1195 618//1195 612//1195
f 612//1196 618//1196 613//1196
f 618//1197 619//1197 613//1197
f 613//1198 619//1198 614//1198
f 619//1199 620//1199 614//1199
f 614//1200 620//1200 615//1200
f 620//1201 621//1201 615//1201
f 615//1202 621//1202 42//1202
f 621//1203 41//1203 42//1203
f 40//1204 26//1204 616//1204
f 26//1205 25//1205 616//1205
f 616//1206 25//1206 617//1206
f 25//1207 24//1207 617//1207
f 617//1208 24//1208 618//1208
f 24//1209 23//1209 618//1209
f 618//1210 23//1210 619//1210
f 23//1211 22//1211 619//1211
f 619//1212 22//1212 620//1212
f 22//1213 21//1213 620//1213
f 620//1214 21//1214 621//1214
f 21//1215 20//1215 621//1215
f 621//1216 20//1216 41//1216
f 20//1217 1//1217 41//1217
f 13//1218 33//1218 3//1218
f 14//1219 622//1219 13//1219
f 15//1220 623//1220 14//1220
f 16//1221 625//1221 15//1221
f 17//1222 628//1222 16//1222
f 18//1223 632//1223 17//1223
f 19//1224 637//1224 18//1224
f 13//1225 622//1225 33//1225
f 622//1226 32//1226 33//1226
f 14//1227 623//1227 622//1227
f 623//1228 624//1228 622//1228
f 622//1229 624//1229 32//1229
f 624//1230 31//1230 32//1230
f 15//1231 625//1231 623//1231
f 625//1232 626//1232 623//1232
f 623//1233 626//1233 624//1233
f 626//1234 627//1234 624//1234
f 624//1235 627//1235 31//1235
f 627//1236 30//1236 31//1236
f 16//1237 628//1237 625//1237
f 628//1238 629//1238 625//1238
f 625//1239 629//1239 626//1239
f 629//1240 630//1240 626//1240
f 626//1241 630//1241 627//1241
f 630//1242 631//1242 627//1242
f 627//1243 631//1243 30//1243
f 631//1244 29//1244 30//1244
f 17//1245 632//1245 628//1245
f 632//1246 633//1246 628//1246
f 628//1247 633//1247 629//1247
f 633//1248 634//1248 629//1248
f 629//1249 634//1249 630//1249
f 634//1250 635//1250 630//1250
f 630//1251 635//1251 631//1251
f 635//1252 636//1252 631//1252
f 631//1253 636//1253 29//1253
f 636//1254 28//1254 29//1254
f 18//1255 637//1255 632//1255
f 637//1256 638//1256 632//1256
f 632//1257 638//1257 633//1257
f 638//1258 639//1258 633//1258
f 633//1259 639//1259 634//1259
f 639//1260 640//1260 634//1260
f 634//1261 640//1261 635//1261
f 640//1262 641//1262 635//1262
f 635//1263 641//1263 636//1263
f 641//1264 642//1264 636//1264
f 636//1265 642//1265 28//1265
f 642//1266 27//1266 28//1266
f 19//1267 20//1267 637//1267
f 20//1268 21//1268 637//1268
f 637//1269 21//1269 638//1269
f 21//1270 22//1270 638//1270
f 638//1271 22//1271 639//1271
f 22//1272 23//1272 639//1272
f 639//1273 23//1273 640//1273
f 23//1274 24//1274 640//1274
f 640//1275 24//1275 641//1275
f 24//1276 25//1276 641//1276
f 641//1277 25//1277 642//1277
f 25//1278 26//1278 642//1278
f 642//1279 26//1279 27//1279
f 26//1280 2//1280 27//1280
