# Blender 4.0.2
# www.blender.org
o rock_43
v 0.002686 -0.112058 0.000801
v 0.153276 -0.056306 0.253792
v -0.060518 -0.084019 0.427663
v -0.207727 -0.075030 -0.001316
v -0.080461 -0.104415 -0.437011
v 0.165893 -0.069645 -0.258088
v 0.069226 0.075135 0.423630
v -0.208893 0.104355 0.272775
v -0.185259 0.088194 -0.266573
v 0.070389 0.084530 -0.427634
v 0.186306 0.052562 -0.001524
v -0.002660 0.111738 -0.002029
v -0.055295 -0.102419 0.400906
v -0.049001 -0.125354 0.362198
v -0.043141 -0.142437 0.305792
v -0.032542 -0.137971 0.237254
v -0.017117 -0.115971 0.172692
v -0.008728 -0.110701 0.115034
v -0.003426 -0.113495 0.055598
v 0.022185 -0.103932 0.034343
v 0.040488 -0.090670 0.071208
v 0.057096 -0.078955 0.107933
v 0.078205 -0.081334 0.144237
v 0.104683 -0.088283 0.180460
v 0.127516 -0.082849 0.212402
v 0.142850 -0.069718 0.236614
v 0.137313 -0.062539 0.292766
v 0.115887 -0.066488 0.331505
v 0.090857 -0.069128 0.365267
v 0.061696 -0.076545 0.394121
v 0.027349 -0.079858 0.414726
v -0.004446 -0.079059 0.425584
v -0.032442 -0.080183 0.428880
v 0.177534 -0.074020 -0.206471
v 0.186816 -0.077012 -0.144926
v 0.186665 -0.072938 -0.074804
v 0.182519 -0.068003 -0.000901
v 0.172330 -0.059533 0.072860
v 0.163690 -0.055514 0.141046
v 0.160380 -0.057925 0.202116
v 0.020491 -0.107733 -0.031539
v 0.040718 -0.110709 -0.067803
v 0.066502 -0.122344 -0.108769
v 0.093785 -0.123904 -0.150155
v 0.118561 -0.115058 -0.187055
v 0.138589 -0.100063 -0.217314
v 0.153682 -0.083886 -0.240628
v -0.194336 -0.089730 0.000203
v -0.169952 -0.105801 0.001064
v -0.139873 -0.114710 0.001825
v -0.111162 -0.117545 0.002364
v -0.082722 -0.121653 0.002177
v -0.051344 -0.123236 0.001480
v -0.021767 -0.119201 0.000975
v -0.091287 -0.099152 0.406044
v -0.129232 -0.114021 0.369716
v -0.162429 -0.120159 0.313945
v -0.183906 -0.114134 0.249321
v -0.198944 -0.111375 0.185244
v -0.209287 -0.104373 0.114763
v -0.208946 -0.088054 0.049543
v -0.071568 -0.123563 -0.402867
v -0.060807 -0.137217 -0.359037
v -0.049280 -0.146674 -0.307516
v -0.035607 -0.154139 -0.247409
v -0.023740 -0.154720 -0.179620
v -0.014017 -0.139184 -0.110969
v -0.005243 -0.118190 -0.051313
v -0.212153 -0.083589 -0.048811
v -0.210019 -0.102500 -0.114448
v -0.203627 -0.108376 -0.182633
v -0.187681 -0.114713 -0.252682
v -0.159737 -0.114639 -0.313691
v -0.132651 -0.113058 -0.364534
v -0.105607 -0.108530 -0.405713
v -0.047017 -0.113207 -0.444089
v -0.009300 -0.118106 -0.443373
v 0.030914 -0.121125 -0.433339
v 0.071916 -0.120369 -0.411258
v 0.107938 -0.110890 -0.377092
v 0.133021 -0.093477 -0.336471
v 0.149420 -0.077118 -0.296015
v 0.186571 0.037019 0.032088
v 0.186006 0.023762 0.069520
v 0.189242 0.012964 0.108873
v 0.193004 0.000055 0.147805
v 0.188753 -0.014954 0.183483
v 0.178149 -0.029525 0.213323
v 0.165968 -0.043326 0.236474
v 0.183773 -0.056540 -0.241246
v 0.202951 -0.040897 -0.218332
v 0.218603 -0.021584 -0.188667
v 0.225328 -0.000068 -0.152985
v 0.220878 0.019471 -0.113113
v 0.212808 0.034971 -0.072741
v 0.202520 0.047296 -0.035244
v 0.053588 0.056686 0.451027
v 0.035327 0.035038 0.471277
v 0.017034 0.014246 0.482356
v 0.000487 -0.002410 0.484604
v -0.015188 -0.018545 0.482120
v -0.031509 -0.040105 0.471901
v -0.047018 -0.063463 0.452213
v 0.152313 -0.044881 0.292071
v 0.147105 -0.030612 0.329796
v 0.136302 -0.015855 0.362490
v 0.125001 -0.001490 0.388806
v 0.113700 0.013176 0.408350
v 0.102116 0.032103 0.421947
v 0.086834 0.054399 0.427068
v -0.231463 0.082240 0.252911
v -0.249280 0.055034 0.225364
v -0.257901 0.025426 0.190446
v -0.257591 -0.001739 0.152183
v -0.254052 -0.027576 0.111797
v -0.243746 -0.050749 0.067808
v -0.223568 -0.064862 0.027901
v -0.085425 -0.073054 0.438933
v -0.113963 -0.052792 0.443140
v -0.137445 -0.025684 0.435202
v -0.157619 0.000917 0.417946
v -0.178216 0.028549 0.391445
v -0.193386 0.055515 0.355315
v -0.203922 0.080172 0.315454
v -0.178677 0.072147 -0.306917
v -0.168787 0.054700 -0.343813
v -0.162836 0.033171 -0.379328
v -0.154418 0.007673 -0.410713
v -0.141480 -0.021362 -0.433834
v -0.123901 -0.052239 -0.445056
v -0.103419 -0.081152 -0.445564
v -0.220153 -0.060307 -0.029868
v -0.239313 -0.044155 -0.064624
v -0.254478 -0.021153 -0.108643
v -0.252907 0.005957 -0.152733
v -0.242470 0.031973 -0.190106
v -0.227151 0.054694 -0.221969
v -0.206806 0.073659 -0.247131
v 0.089667 0.068164 -0.434280
v 0.112355 0.051138 -0.436373
v 0.138664 0.029469 -0.430897
v 0.160856 0.001511 -0.411840
v 0.171389 -0.025995 -0.378799
v 0.170762 -0.046084 -0.338210
v 0.166717 -0.059030 -0.296955
v -0.066678 -0.086277 -0.471316
v -0.046881 -0.060473 -0.500312
v -0.022491 -0.027432 -0.515196
v 0.001225 0.003256 -0.511867
v 0.021514 0.026348 -0.499395
v 0.039440 0.046263 -0.480289
v 0.055919 0.066386 -0.456200
v 0.168620 0.045066 0.053168
v 0.160288 0.048182 0.113152
v 0.156095 0.057537 0.177134
v 0.143432 0.059542 0.240320
v 0.126846 0.059486 0.296743
v 0.112456 0.067600 0.347580
v 0.093447 0.075661 0.391711
v 0.040291 0.082740 0.431880
v 0.007136 0.088882 0.432938
v -0.029691 0.092555 0.424384
v -0.066081 0.092490 0.405884
v -0.102004 0.097055 0.382068
v -0.141892 0.105455 0.352408
v -0.180166 0.108263 0.314873
v -0.216770 0.108899 0.208749
v -0.202629 0.096432 0.136255
v -0.190476 0.088530 0.070365
v -0.188524 0.084833 -0.000074
v -0.195768 0.087269 -0.071384
v -0.201203 0.092635 -0.142619
v -0.197499 0.092952 -0.209158
v -0.156015 0.087923 -0.306446
v -0.124834 0.081163 -0.339660
v -0.098277 0.080051 -0.370323
v -0.068647 0.087136 -0.399721
v -0.032542 0.095588 -0.423182
v 0.006157 0.096981 -0.435163
v 0.041272 0.091307 -0.435193
v 0.095854 0.089138 -0.397613
v 0.119464 0.087921 -0.356108
v 0.142132 0.088555 -0.306508
v 0.166206 0.090949 -0.247949
v 0.179573 0.082751 -0.182467
v 0.188808 0.075243 -0.117418
v 0.190426 0.064380 -0.056121
v 0.006186 0.123951 0.051102
v 0.017540 0.139254 0.113073
v 0.029701 0.146265 0.180476
v 0.040699 0.140144 0.245690
v 0.050698 0.131187 0.305569
v 0.059107 0.116139 0.356125
v 0.065533 0.096914 0.395603
v 0.172117 0.062985 -0.001270
v 0.154128 0.074403 -0.000937
v 0.133146 0.087292 -0.000342
v 0.109455 0.101891 0.000360
v 0.082454 0.116423 0.000522
v 0.051030 0.121707 -0.000265
v 0.020650 0.116952 -0.001342
v -0.019742 0.117735 0.029250
v -0.042906 0.132897 0.065393
v -0.071754 0.144925 0.106680
v -0.101147 0.146157 0.146448
v -0.132758 0.148519 0.183581
v -0.165042 0.145599 0.219528
v -0.191173 0.128890 0.250073
v -0.018724 0.108456 -0.033528
v -0.037806 0.115530 -0.067793
v -0.065797 0.128286 -0.105843
v -0.096797 0.132446 -0.145544
v -0.123846 0.131185 -0.183785
v -0.150088 0.123001 -0.218540
v -0.170827 0.106670 -0.246556
v 0.004533 0.107935 -0.054146
v 0.015247 0.110707 -0.111648
v 0.027074 0.127559 -0.175588
v 0.037623 0.131551 -0.240843
v 0.048813 0.136630 -0.303575
v 0.060041 0.128166 -0.359377
v 0.066289 0.105613 -0.399283
v 0.029619 0.113074 -0.058424
v 0.062154 0.120111 -0.061373
v 0.041100 0.110093 -0.120118
v 0.097851 0.121820 -0.062821
v 0.073091 0.112137 -0.126459
v 0.056020 0.121042 -0.186042
v 0.130573 0.113674 -0.063152
v 0.109722 0.113790 -0.129398
v 0.088099 0.115927 -0.192837
v 0.068788 0.126308 -0.251471
v 0.156220 0.097865 -0.062123
v 0.143950 0.107068 -0.128447
v 0.123588 0.110855 -0.194916
v 0.104099 0.120633 -0.257959
v 0.083716 0.125972 -0.313123
v 0.175546 0.080401 -0.059661
v 0.170402 0.092716 -0.124123
v 0.155408 0.099172 -0.191120
v 0.138723 0.109060 -0.256944
v 0.115261 0.107685 -0.313988
v 0.092702 0.109505 -0.362330
v -0.010537 0.112505 -0.090435
v -0.002776 0.129042 -0.154876
v -0.033871 0.129884 -0.131326
v 0.006313 0.139518 -0.226107
v -0.029560 0.145180 -0.204362
v -0.065955 0.142184 -0.176435
v 0.013947 0.141306 -0.293505
v -0.023629 0.144342 -0.277150
v -0.062369 0.144268 -0.252594
v -0.096487 0.139018 -0.219836
v 0.023560 0.135755 -0.356039
v -0.016532 0.136162 -0.343436
v -0.055978 0.130499 -0.322054
v -0.091701 0.127014 -0.293823
v -0.123200 0.127433 -0.258386
v 0.033063 0.113417 -0.402228
v -0.005428 0.116044 -0.395699
v -0.045194 0.110809 -0.378288
v -0.080924 0.102592 -0.352629
v -0.111753 0.100528 -0.322672
v -0.142839 0.106979 -0.287726
v -0.039468 0.111325 -0.002302
v -0.063902 0.114502 -0.036034
v -0.066842 0.121699 0.031925
v -0.094010 0.119865 -0.073267
v -0.092872 0.111097 -0.001817
v -0.100716 0.131427 0.071074
v -0.121661 0.120756 -0.111862
v -0.118919 0.108310 -0.036867
v -0.123056 0.108979 0.034508
v -0.131010 0.129047 0.110411
v -0.150541 0.120676 -0.148919
v -0.145900 0.110231 -0.074424
v -0.141935 0.098631 0.000014
v -0.150820 0.107103 0.072237
v -0.158981 0.125479 0.145022
v -0.178181 0.110484 -0.182386
v -0.175763 0.105745 -0.110540
v -0.168472 0.097244 -0.035900
v -0.166252 0.093984 0.035992
v -0.175224 0.102467 0.106508
v -0.189594 0.122732 0.177948
v -0.013377 0.137840 0.090157
v -0.039170 0.149144 0.134673
v -0.005121 0.150810 0.159934
v -0.067595 0.153710 0.179103
v -0.031976 0.154781 0.208270
v 0.005200 0.150919 0.231052
v -0.099960 0.160223 0.222510
v -0.061054 0.157280 0.255449
v -0.022454 0.150360 0.280821
v 0.015422 0.142215 0.297520
v -0.134037 0.155520 0.262532
v -0.093813 0.153326 0.298999
v -0.051882 0.142121 0.325945
v -0.012549 0.133044 0.344206
v 0.024825 0.126170 0.354415
v -0.161144 0.134999 0.293887
v -0.121161 0.130746 0.331480
v -0.079539 0.120433 0.360022
v -0.040975 0.114868 0.381012
v -0.002788 0.112778 0.395037
v 0.033539 0.106561 0.399670
v 0.034311 0.124781 0.056481
v 0.048838 0.134500 0.121296
v 0.065500 0.117052 0.060387
v 0.062450 0.131754 0.189389
v 0.080493 0.120521 0.126522
v 0.092851 0.099234 0.062046
v 0.073389 0.122814 0.253482
v 0.091791 0.109694 0.193137
v 0.107459 0.099715 0.127689
v 0.115562 0.080468 0.061700
v 0.083076 0.110475 0.310483
v 0.101937 0.099980 0.254913
v 0.116777 0.089514 0.191966
v 0.129672 0.079822 0.125323
v 0.135985 0.066067 0.059865
v 0.089824 0.094263 0.356684
v 0.108596 0.082954 0.306790
v 0.125241 0.078558 0.250430
v 0.139091 0.073343 0.186491
v 0.147010 0.062153 0.120141
v 0.153824 0.054608 0.056858
v 0.202394 0.054792 -0.096150
v 0.213615 0.041468 -0.139645
v 0.199044 0.063109 -0.163220
v 0.218779 0.022645 -0.183138
v 0.205110 0.046069 -0.210257
v 0.187446 0.069372 -0.232333
v 0.214490 0.000178 -0.222992
v 0.205310 0.024423 -0.254769
v 0.187688 0.048429 -0.280032
v 0.164951 0.069371 -0.297064
v 0.202889 -0.022698 -0.256341
v 0.196439 -0.000091 -0.292091
v 0.181207 0.024506 -0.320936
v 0.161131 0.047556 -0.340811
v 0.139844 0.068054 -0.352000
v 0.184361 -0.042398 -0.280633
v 0.182472 -0.023513 -0.319291
v 0.176992 0.000530 -0.354104
v 0.162833 0.027663 -0.380284
v 0.140493 0.051824 -0.394627
v 0.117178 0.071311 -0.399377
v 0.023846 0.072203 -0.463830
v 0.004182 0.050913 -0.486088
v -0.014626 0.076444 -0.461126
v -0.017494 0.029766 -0.502473
v -0.037005 0.054902 -0.479673
v -0.054721 0.074233 -0.443153
v -0.043061 0.003752 -0.510390
v -0.062274 0.031959 -0.489646
v -0.077112 0.052603 -0.454402
v -0.088356 0.066950 -0.412471
v -0.069333 -0.027918 -0.501561
v -0.087386 0.004418 -0.485598
v -0.099379 0.030257 -0.456093
v -0.107458 0.049816 -0.418653
v -0.115321 0.065525 -0.378428
v -0.089603 -0.056865 -0.476982
v -0.107751 -0.023702 -0.468896
v -0.120262 0.006189 -0.448646
v -0.130277 0.031762 -0.419284
v -0.136706 0.052437 -0.382043
v -0.144017 0.069192 -0.344205
v -0.217068 0.075050 -0.184062
v -0.232188 0.054114 -0.152503
v -0.217329 0.071012 -0.111970
v -0.242775 0.030635 -0.114868
v -0.227742 0.048294 -0.076671
v -0.211507 0.068557 -0.038382
v -0.243676 0.004289 -0.073381
v -0.233370 0.024658 -0.040079
v -0.226950 0.049118 -0.003044
v -0.211679 0.073326 0.036613
v -0.234718 -0.022309 -0.035688
v -0.239808 -0.000975 -0.004457
v -0.245716 0.027457 0.036122
v -0.233849 0.055642 0.077331
v -0.216023 0.076832 0.109589
v -0.227121 -0.043947 -0.003252
v -0.245374 -0.026795 0.032275
v -0.254679 0.000179 0.076568
v -0.249485 0.028662 0.116247
v -0.243321 0.056014 0.149796
v -0.233474 0.083531 0.181068
v -0.168449 0.082470 0.358143
v -0.152511 0.055661 0.397225
v -0.126009 0.077041 0.393274
v -0.134346 0.027918 0.428353
v -0.109910 0.050180 0.428731
v -0.087781 0.070330 0.421147
v -0.116534 0.002047 0.451367
v -0.093364 0.025619 0.458114
v -0.071116 0.045833 0.455175
v -0.050849 0.068064 0.444209
v -0.095721 -0.024690 0.465263
v -0.072950 0.000895 0.476334
v -0.051030 0.020908 0.477254
v -0.031841 0.040344 0.470754
v -0.012702 0.064253 0.456439
v -0.069978 -0.048419 0.463954
v -0.050922 -0.022174 0.479952
v -0.031428 -0.001159 0.484804
v -0.014097 0.015973 0.483284
v 0.003363 0.036225 0.474728
v 0.022115 0.060003 0.457515
v 0.109804 0.051928 0.389711
v 0.122289 0.030381 0.380082
v 0.126118 0.045983 0.341095
v 0.133500 0.015303 0.363492
v 0.137928 0.029047 0.327713
v 0.140041 0.041485 0.285831
v 0.146206 0.002142 0.339905
v 0.148836 0.016114 0.306648
v 0.151277 0.026755 0.267849
v 0.156673 0.042310 0.224430
v 0.156844 -0.012226 0.308881
v 0.159428 0.003578 0.279429
v 0.162710 0.014960 0.244045
v 0.169911 0.028843 0.203087
v 0.170435 0.042567 0.157865
v 0.163638 -0.028445 0.273651
v 0.170804 -0.012204 0.248195
v 0.177957 0.001493 0.215852
v 0.185663 0.015571 0.177288
v 0.182460 0.027739 0.134659
v 0.173121 0.035281 0.092371
v 0.074701 0.047901 -0.462911
v 0.097895 0.028198 -0.464939
v 0.057925 0.025747 -0.484983
v 0.125863 0.001879 -0.457717
v 0.079844 0.002525 -0.483894
v 0.040636 0.002884 -0.501818
v 0.150283 -0.030929 -0.433397
v 0.106904 -0.029747 -0.473028
v 0.062025 -0.026635 -0.495726
v 0.020378 -0.027120 -0.511342
v 0.159147 -0.058005 -0.390601
v 0.129862 -0.066765 -0.441476
v 0.084705 -0.064746 -0.475246
v 0.040159 -0.062943 -0.495187
v -0.003906 -0.062679 -0.503693
v 0.155238 -0.071396 -0.341549
v 0.136841 -0.088852 -0.390154
v 0.102171 -0.098870 -0.433319
v 0.058415 -0.098386 -0.461503
v 0.014389 -0.096224 -0.475980
v -0.027791 -0.093313 -0.478964
v -0.204956 0.056845 -0.288970
v -0.198913 0.034623 -0.329107
v -0.228416 0.033337 -0.262594
v -0.188807 0.006810 -0.362900
v -0.224207 0.004378 -0.301426
v -0.245078 0.003823 -0.228021
v -0.176474 -0.023905 -0.389804
v -0.209475 -0.027884 -0.332688
v -0.235912 -0.029530 -0.261463
v -0.250735 -0.026836 -0.186954
v -0.157608 -0.057374 -0.407233
v -0.188372 -0.059796 -0.353139
v -0.217850 -0.061980 -0.288566
v -0.236468 -0.059450 -0.214973
v -0.248959 -0.056756 -0.140047
v -0.131978 -0.086584 -0.411582
v -0.162887 -0.089989 -0.363950
v -0.190960 -0.091299 -0.305984
v -0.215443 -0.089377 -0.236780
v -0.227180 -0.086388 -0.164992
v -0.232736 -0.075965 -0.090277
v -0.226988 0.055400 0.296408
v -0.244753 0.025381 0.267951
v -0.217144 0.028290 0.335616
v -0.253445 -0.006918 0.230451
v -0.233988 -0.004611 0.303922
v -0.201459 -0.001212 0.370670
v -0.252643 -0.034712 0.186957
v -0.237288 -0.037965 0.261838
v -0.217900 -0.036211 0.335253
v -0.178226 -0.031517 0.396000
v -0.246749 -0.058275 0.140429
v -0.233438 -0.065345 0.216073
v -0.219184 -0.068016 0.286521
v -0.192172 -0.067996 0.357773
v -0.151524 -0.059777 0.408935
v -0.231227 -0.078865 0.092184
v -0.227249 -0.088067 0.166696
v -0.209496 -0.090668 0.235929
v -0.193818 -0.096997 0.304834
v -0.161121 -0.093647 0.368277
v -0.122249 -0.083739 0.411727
v 0.071336 0.036558 0.454381
v 0.052154 0.015966 0.473102
v 0.088145 0.015371 0.447692
v 0.032126 -0.002673 0.480469
v 0.069652 -0.002984 0.464240
v 0.101737 -0.003072 0.429700
v 0.014222 -0.018534 0.479750
v 0.049964 -0.020594 0.470398
v 0.086527 -0.020696 0.443168
v 0.112624 -0.018777 0.403642
v -0.002382 -0.037772 0.471350
v 0.030538 -0.040270 0.465808
v 0.068606 -0.041583 0.445997
v 0.098791 -0.036886 0.410295
v 0.122756 -0.034098 0.371727
v -0.018327 -0.059897 0.453364
v 0.011756 -0.060713 0.449413
v 0.047704 -0.063031 0.435358
v 0.081820 -0.057484 0.407015
v 0.107234 -0.051435 0.372122
v 0.132209 -0.049740 0.334360
v 0.205953 0.031389 -0.001757
v 0.199797 0.014227 0.035954
v 0.219071 0.018347 -0.039233
v 0.192838 0.000039 0.075784
v 0.214593 0.000100 -0.001743
v 0.221864 -0.000054 -0.079173
v 0.189552 -0.013997 0.114488
v 0.199321 -0.015406 0.038182
v 0.217910 -0.019339 -0.041233
v 0.222611 -0.021290 -0.118951
v 0.184883 -0.029781 0.149579
v 0.188752 -0.029436 0.077107
v 0.204021 -0.035688 -0.001382
v 0.212882 -0.040003 -0.080136
v 0.215300 -0.043186 -0.154450
v 0.174093 -0.044841 0.179003
v 0.177529 -0.042999 0.111961
v 0.187754 -0.048288 0.037633
v 0.200206 -0.056649 -0.039885
v 0.202339 -0.059888 -0.115375
v 0.198054 -0.060920 -0.183585
v 0.133220 -0.092167 -0.278360
v 0.112657 -0.106729 -0.253186
v 0.109722 -0.106377 -0.315438
v 0.088570 -0.117705 -0.219874
v 0.084808 -0.117129 -0.286669
v 0.080299 -0.123105 -0.351121
v 0.063705 -0.128745 -0.180055
v 0.059488 -0.127547 -0.249939
v 0.052570 -0.131280 -0.317243
v 0.042207 -0.132237 -0.379816
v 0.038098 -0.132892 -0.134836
v 0.032934 -0.136526 -0.206721
v 0.025472 -0.141181 -0.276297
v 0.013890 -0.139374 -0.340753
v 0.001746 -0.133039 -0.397216
v 0.014645 -0.124480 -0.089902
v 0.008348 -0.143810 -0.159054
v -0.000049 -0.146467 -0.229314
v -0.012527 -0.146591 -0.295878
v -0.024727 -0.140117 -0.354201
v -0.036529 -0.130146 -0.404192
v -0.096896 -0.127414 -0.365518
v -0.086399 -0.140463 -0.316779
v -0.123325 -0.130212 -0.318811
v -0.074457 -0.153993 -0.259838
v -0.114151 -0.146673 -0.265213
v -0.153271 -0.134284 -0.262589
v -0.060473 -0.162307 -0.190147
v -0.102873 -0.162072 -0.196812
v -0.145059 -0.150096 -0.196992
v -0.178898 -0.129081 -0.191045
v -0.046254 -0.147190 -0.117689
v -0.083942 -0.149272 -0.121910
v -0.122108 -0.142533 -0.123238
v -0.154932 -0.130275 -0.122502
v -0.182894 -0.117838 -0.119969
v -0.031947 -0.126125 -0.054353
v -0.064714 -0.131201 -0.056303
v -0.099200 -0.129587 -0.057184
v -0.130698 -0.124274 -0.057657
v -0.161506 -0.117502 -0.057201
v -0.190551 -0.103875 -0.054216
v -0.185058 -0.104322 0.054476
v -0.154328 -0.114490 0.058377
v -0.177442 -0.120892 0.120692
v -0.123137 -0.116977 0.060563
v -0.141644 -0.127396 0.123503
v -0.166575 -0.128815 0.190521
v -0.095127 -0.119201 0.061240
v -0.108218 -0.128494 0.124608
v -0.127460 -0.139239 0.192265
v -0.148648 -0.134841 0.256753
v -0.064017 -0.122861 0.060784
v -0.074091 -0.129093 0.124483
v -0.086094 -0.138171 0.190240
v -0.105604 -0.143532 0.256383
v -0.123114 -0.137354 0.319742
v -0.031493 -0.120812 0.058837
v -0.038404 -0.122381 0.121202
v -0.048485 -0.129000 0.183486
v -0.066740 -0.142497 0.249520
v -0.080395 -0.143816 0.316304
v -0.087848 -0.123959 0.370822
v 0.164900 -0.090324 -0.183006
v 0.168585 -0.088328 -0.114635
v 0.146715 -0.104969 -0.153011
v 0.169092 -0.085107 -0.039414
v 0.146178 -0.097292 -0.079022
v 0.122236 -0.113928 -0.116825
v 0.161541 -0.075509 0.038064
v 0.143279 -0.089550 -0.000368
v 0.118367 -0.099453 -0.039598
v 0.091704 -0.109541 -0.076292
v 0.150362 -0.066104 0.112092
v 0.132975 -0.076334 0.077636
v 0.111944 -0.086171 0.039487
v 0.086865 -0.091623 0.000538
v 0.062412 -0.098335 -0.035845
v 0.147140 -0.068973 0.178408
v 0.127295 -0.075443 0.148517
v 0.103247 -0.075494 0.113789
v 0.081196 -0.079541 0.076447
v 0.060435 -0.087538 0.037972
v 0.040268 -0.096342 0.001130
v -0.024925 -0.098507 0.398278
v -0.016138 -0.119869 0.355440
v 0.005861 -0.096645 0.389533
v -0.008964 -0.138906 0.294579
v 0.016490 -0.116293 0.341442
v 0.039844 -0.094923 0.373264
v 0.001278 -0.127202 0.219127
v 0.026845 -0.131220 0.272836
v 0.052218 -0.114143 0.318332
v 0.074108 -0.089548 0.347899
v 0.010429 -0.099583 0.154046
v 0.031213 -0.107247 0.196284
v 0.057314 -0.114482 0.243488
v 0.083407 -0.104581 0.285275
v 0.102561 -0.084565 0.314032
v 0.017050 -0.099512 0.094410
v 0.034735 -0.086898 0.132270
v 0.055244 -0.090997 0.171185
v 0.081973 -0.099487 0.212599
v 0.106776 -0.092119 0.248845
v 0.124702 -0.077646 0.275241
vn 0.3613 -0.9323 0.0158
vn 0.7045 -0.6997 0.1188
vn 0.2804 -0.9599 0.0061
vn 0.2802 -0.9574 0.0700
vn 0.3363 -0.9399 0.0594
vn 0.7887 -0.6014 0.1273
vn 0.0807 -0.7856 0.6134
vn -0.7463 -0.6402 -0.1818
vn -0.5145 -0.6933 -0.5046
vn 0.7074 -0.6855 -0.1722
vn 0.8145 -0.5500 0.1846
vn -0.0371 -0.7560 0.6535
vn -0.6590 -0.7458 -0.0978
vn -0.4824 -0.6794 -0.5530
vn 0.6854 -0.7060 -0.1783
vn 0.5796 0.6787 0.4510
vn -0.5898 0.7352 0.3342
vn -0.6552 0.7285 -0.2000
vn 0.3208 0.7817 -0.5349
vn 0.5808 0.7855 0.2139
vn -0.2144 0.9716 -0.1005
vn -0.1509 0.9844 -0.0906
vn 0.1657 0.9862 0.0044
vn 0.4664 0.8646 0.1870
vn 0.5044 0.8033 0.3167
vn 0.5018 0.8018 0.3246
vn 0.5193 0.8101 0.2721
vn -0.2160 0.9713 -0.0999
vn -0.1990 0.9799 0.0102
vn -0.2166 0.9741 -0.0649
vn -0.2182 0.9720 -0.0876
vn 0.0084 0.9989 -0.0467
vn 0.1120 0.9556 0.2726
vn -0.0447 0.9963 0.0740
vn -0.0527 0.9901 -0.1302
vn -0.0900 0.9866 -0.1360
vn -0.0320 0.9871 0.1567
vn 0.2892 0.9316 0.2202
vn 0.2527 0.9624 0.0997
vn 0.2361 0.9383 0.2526
vn 0.2402 0.9679 -0.0739
vn -0.0550 0.9901 -0.1292
vn -0.0412 0.9980 0.0477
vn 0.1765 0.9796 0.0958
vn 0.1799 0.9771 0.1137
vn 0.2037 0.9719 0.1180
vn 0.2028 0.9725 0.1149
vn 0.4876 0.8119 0.3211
vn 0.5240 0.8515 0.0212
vn 0.1940 0.9792 -0.0593
vn 0.1928 0.9812 -0.0031
vn 0.1406 0.9900 -0.0146
vn 0.1468 0.9833 0.1071
vn 0.1781 0.9773 0.1144
vn 0.1647 0.9857 0.0345
vn 0.3087 0.9486 0.0696
vn 0.2678 0.9591 -0.0916
vn 0.6183 0.7265 0.2997
vn 0.6615 0.7446 0.0895
vn 0.4722 0.8808 0.0349
vn 0.4796 0.8772 -0.0228
vn 0.3498 0.9353 -0.0539
vn 0.3383 0.9394 0.0554
vn 0.3153 0.9477 0.0495
vn 0.3173 0.9359 -0.1531
vn 0.4969 0.8620 -0.1002
vn 0.4878 0.8507 -0.1956
vn 0.4722 0.8583 -0.2010
vn 0.4293 0.8134 -0.3925
vn 0.6827 0.6883 0.2454
vn 0.7173 0.6891 0.1032
vn 0.6689 0.7382 0.0877
vn 0.6912 0.7225 -0.0147
vn 0.5734 0.8178 -0.0495
vn 0.5649 0.8251 -0.0120
vn 0.5536 0.8326 -0.0153
vn 0.5901 0.7596 -0.2736
vn 0.6071 0.7481 -0.2677
vn 0.6073 0.7408 -0.2870
vn 0.6416 0.7170 -0.2724
vn 0.6368 0.6910 -0.3420
vn 0.4611 0.7857 -0.4123
vn 0.4448 0.7483 -0.4922
vn -0.0480 0.9957 -0.0793
vn 0.1278 0.9892 0.0715
vn 0.2468 0.9249 0.2894
vn 0.2915 0.9508 0.1053
vn 0.1629 0.9807 0.1085
vn 0.1929 0.9751 -0.1091
vn 0.2419 0.8605 -0.4484
vn 0.0971 0.9917 0.0845
vn 0.1887 0.9773 0.0967
vn 0.2865 0.9191 0.2704
vn 0.2281 0.9361 0.2677
vn 0.2923 0.9288 0.2279
vn 0.1323 0.9651 0.2262
vn 0.1620 0.9731 0.1638
vn 0.2547 0.9515 0.1724
vn 0.1865 0.9593 0.2119
vn 0.0800 0.9747 0.2089
vn 0.1043 0.9759 0.1919
vn -0.1153 0.9746 0.1921
vn 0.2710 0.9609 0.0562
vn 0.0966 0.9946 0.0373
vn 0.1567 0.9876 0.0014
vn -0.0097 0.9999 -0.0123
vn -0.0635 0.9977 0.0243
vn -0.1324 0.9910 0.0209
vn -0.2216 0.9714 0.0850
vn -0.1676 0.9821 0.0862
vn 0.1125 0.9911 -0.0707
vn -0.0186 0.9957 -0.0912
vn 0.0282 0.9924 -0.1194
vn -0.2158 0.9660 -0.1423
vn -0.1314 0.9700 -0.2044
vn -0.2584 0.9428 -0.2107
vn -0.3088 0.9355 -0.1717
vn -0.1770 0.9696 -0.1688
vn -0.3355 0.9407 -0.0502
vn -0.2354 0.9706 -0.0509
vn 0.1505 0.9018 -0.4051
vn -0.0128 0.8991 -0.4375
vn -0.1092 0.9197 -0.3772
vn -0.2884 0.8714 -0.3967
vn -0.3243 0.8717 -0.3674
vn -0.4527 0.8109 -0.3707
vn -0.4059 0.8153 -0.4130
vn -0.4528 0.7910 -0.4115
vn -0.4526 0.7910 -0.4116
vn -0.2845 0.8653 -0.4128
vn -0.4997 0.8309 -0.2448
vn -0.3721 0.8949 -0.2462
vn 0.2398 0.8328 -0.4989
vn 0.1350 0.8381 -0.5285
vn -0.0129 0.8989 -0.4380
vn -0.1765 0.8650 -0.4697
vn -0.2817 0.8817 -0.3784
vn -0.4461 0.8018 -0.3976
vn -0.4593 0.8016 -0.3828
vn -0.5589 0.7337 -0.3865
vn -0.4940 0.7394 -0.4574
vn -0.4973 0.7372 -0.4574
vn -0.4271 0.7419 -0.5169
vn -0.3810 0.7685 -0.5141
vn -0.5531 0.7463 -0.3704
vn -0.4954 0.7865 -0.3687
vn 0.0817 0.9861 -0.1444
vn 0.2368 0.9692 0.0682
vn 0.1876 0.9646 0.1854
vn -0.0915 0.9805 0.1742
vn -0.2515 0.9567 0.1464
vn -0.3328 0.9425 0.0293
vn -0.5191 0.8476 -0.1099
vn -0.0850 0.9855 -0.1470
vn 0.1611 0.9427 -0.2922
vn 0.0399 0.9971 0.0650
vn 0.2512 0.9636 -0.0912
vn -0.0198 0.9523 -0.3045
vn -0.0292 0.9540 -0.2983
vn -0.0669 0.9785 0.1950
vn 0.0267 0.9923 0.1213
vn -0.2461 0.9627 -0.1126
vn -0.0386 0.9614 -0.2723
vn -0.0740 0.9510 -0.3003
vn -0.2149 0.9583 -0.1885
vn -0.2140 0.9609 0.1755
vn -0.2028 0.9648 0.1675
vn -0.2659 0.9563 0.1216
vn -0.0872 0.9961 -0.0144
vn -0.4049 0.8685 -0.2858
vn -0.4222 0.8645 -0.2728
vn -0.3121 0.9321 -0.1839
vn -0.2299 0.9391 -0.2554
vn -0.1907 0.9706 0.1465
vn -0.1926 0.9701 0.1480
vn -0.1637 0.9722 0.1673
vn -0.1535 0.9751 0.1601
vn -0.4326 0.9010 -0.0335
vn -0.2602 0.9548 -0.1440
vn -0.4287 0.8613 -0.2727
vn -0.4385 0.8585 -0.2659
vn -0.4131 0.8776 -0.2434
vn -0.3804 0.8846 -0.2698
vn -0.3760 0.9262 0.0285
vn -0.4225 0.9034 0.0738
vn -0.3231 0.9342 0.1511
vn -0.3075 0.9416 0.1373
vn -0.2692 0.9493 0.1623
vn -0.1176 0.9919 0.0486
vn -0.4022 0.9023 -0.1553
vn -0.3953 0.9046 -0.1591
vn -0.5237 0.8102 -0.2633
vn -0.4255 0.8445 -0.3252
vn -0.3703 0.8888 -0.2701
vn -0.6024 0.7941 -0.0810
vn -0.5763 0.8093 -0.1141
vn -0.6467 0.7620 -0.0324
vn -0.5286 0.8457 0.0736
vn -0.5566 0.8242 0.1046
vn -0.5016 0.8527 0.1461
vn -0.4258 0.9018 0.0741
vn -0.4535 0.8896 0.0544
vn -0.2972 0.9530 -0.0583
vn -0.4292 0.8886 -0.1615
vn -0.3946 0.9009 -0.1808
vn -0.5288 0.7827 -0.3284
vn -0.6492 0.7183 -0.2502
vn -0.5258 0.8465 -0.0838
vn -0.7381 0.6605 0.1377
vn -0.0522 0.9751 -0.2155
vn 0.1127 0.9400 -0.3221
vn 0.0732 0.9701 -0.2314
vn -0.1119 0.9872 -0.1133
vn -0.1364 0.9745 -0.1781
vn -0.1884 0.9780 -0.0898
vn -0.4023 0.9031 0.1498
vn 0.0400 0.9476 -0.3170
vn 0.1514 0.9528 -0.2630
vn 0.0298 0.9728 -0.2297
vn 0.0953 0.9766 -0.1928
vn 0.0985 0.9762 -0.1931
vn 0.2080 0.9683 -0.1382
vn -0.0264 0.9926 -0.1189
vn 0.0353 0.9962 -0.0798
vn 0.0085 0.9970 -0.0772
vn 0.1143 0.9933 -0.0181
vn 0.1423 0.9896 -0.0222
vn 0.2735 0.9609 0.0441
vn -0.0450 0.9825 -0.1810
vn 0.1231 0.9908 -0.0569
vn 0.0088 0.9988 -0.0475
vn 0.1505 0.9878 0.0404
vn 0.0721 0.9961 0.0512
vn 0.1655 0.9808 0.1030
vn 0.2565 0.9627 0.0866
vn 0.2768 0.9560 0.0968
vn -0.2387 0.9669 -0.0896
vn -0.0292 0.9953 0.0921
vn -0.0007 0.9960 0.0899
vn 0.1369 0.9720 0.1912
vn 0.0406 0.9779 0.2050
vn 0.1079 0.9632 0.2463
vn 0.0979 0.9638 0.2480
vn 0.1076 0.9614 0.2533
vn 0.2434 0.9433 0.2258
vn 0.2622 0.9360 0.2350
vn -0.4821 0.8635 0.1484
vn -0.2513 0.8950 0.3685
vn -0.2882 0.8828 0.3710
vn -0.1250 0.8609 0.4933
vn -0.0810 0.8693 0.4875
vn -0.1233 0.8795 0.4597
vn 0.0010 0.8963 0.4434
vn -0.0907 0.9190 0.3838
vn 0.0737 0.9312 0.3571
vn 0.1092 0.9196 0.3774
vn 0.2478 0.9055 0.3446
vn 0.3110 0.8734 0.3747
vn -0.6265 0.7056 0.3310
vn -0.4527 0.7272 0.5160
vn -0.4034 0.7566 0.5147
vn -0.2935 0.7407 0.6044
vn -0.2179 0.7722 0.5968
vn -0.2699 0.7851 0.5575
vn -0.1817 0.8152 0.5500
vn -0.2525 0.8321 0.4938
vn -0.1288 0.8678 0.4799
vn -0.0418 0.8402 0.5407
vn 0.0800 0.8525 0.5166
vn 0.1678 0.8091 0.5632
vn 0.3063 0.7949 0.5237
vn 0.3549 0.7603 0.5440
vn -0.2093 0.9600 -0.1858
vn 0.0178 0.9699 -0.2428
vn 0.1832 0.9738 -0.1343
vn 0.4009 0.9160 0.0184
vn 0.4571 0.8876 0.0564
vn 0.5136 0.8420 0.1652
vn 0.5515 0.7818 0.2910
vn -0.0037 0.9911 -0.1333
vn -0.1505 0.9838 -0.0976
vn 0.1956 0.9625 -0.1882
vn 0.2592 0.9449 -0.1998
vn 0.2384 0.9710 0.0176
vn 0.1648 0.9857 0.0363
vn 0.4152 0.9085 -0.0464
vn 0.4098 0.9111 -0.0452
vn 0.4194 0.8966 -0.1421
vn 0.5453 0.8215 -0.1667
vn 0.5342 0.8333 0.1425
vn 0.4683 0.8683 0.1635
vn 0.4594 0.8871 0.0453
vn 0.6002 0.7998 0.0091
vn 0.5983 0.8007 0.0287
vn 0.6100 0.7920 0.0253
vn 0.6086 0.7808 -0.1412
vn 0.6289 0.7638 -0.1455
vn 0.6258 0.7537 0.2009
vn 0.5148 0.8240 0.2365
vn 0.5264 0.8451 0.0935
vn 0.6214 0.7809 0.0634
vn 0.6239 0.7813 0.0204
vn 0.6287 0.7774 0.0190
vn 0.6289 0.7768 0.0321
vn 0.6682 0.7436 0.0212
vn 0.6527 0.7451 -0.1372
vn 0.5653 0.8166 -0.1171
vn 0.5730 0.7810 0.2483
vn 0.5102 0.8184 0.2644
vn 0.5662 0.8001 0.1981
vn 0.7358 0.6654 0.1260
vn 0.7358 0.6657 0.1240
vn 0.6846 0.7141 0.1465
vn 0.6803 0.7319 0.0387
vn 0.5958 0.8006 0.0638
vn 0.5861 0.8102 -0.0044
vn 0.7083 0.7051 -0.0344
vn 0.6993 0.7102 -0.0818
vn 0.5348 0.8439 -0.0430
vn 0.5521 0.7879 0.2728
vn 0.5182 0.8083 0.2796
vn 0.6011 0.7299 0.3254
vn 0.7793 0.5833 0.2291
vn 0.7786 0.6080 0.1552
vn 0.8096 0.5705 0.1381
vn 0.8130 0.5477 0.1974
vn 0.7610 0.6087 0.2243
vn 0.7465 0.6566 0.1081
vn 0.7106 0.6932 0.1204
vn 0.6664 0.7442 -0.0460
vn 0.7095 0.7025 -0.0562
vn 0.7237 0.6901 -0.0043
vn 0.5474 0.8362 0.0326
vn 0.5687 0.7698 0.2899
vn 0.5700 0.7689 0.2897
vn 0.6622 0.7204 0.2059
vn 0.8513 0.5209 0.0624
vn 0.9305 0.3633 0.0465
vn 0.9666 0.2556 -0.0174
vn 0.9867 -0.0547 -0.1530
vn 0.8884 -0.4136 -0.1995
vn 0.7567 -0.6188 -0.2109
vn 0.7671 0.6369 0.0768
vn 0.7852 0.6130 0.0879
vn 0.8523 0.5195 0.0607
vn 0.8128 0.5816 0.0315
vn 0.8177 0.5749 0.0304
vn 0.7209 0.6927 -0.0224
vn 0.9548 0.2970 -0.0152
vn 0.8985 0.4316 -0.0801
vn 0.8615 0.5027 -0.0710
vn 0.8330 0.5459 -0.0903
vn 0.7391 0.6707 -0.0633
vn 0.7344 0.6756 -0.0653
vn 0.9849 0.0820 -0.1522
vn 0.9746 0.1332 -0.1800
vn 0.9230 0.3477 -0.1649
vn 0.8794 0.4297 -0.2050
vn 0.8626 0.4647 -0.1997
vn 0.7526 0.6044 -0.2615
vn 0.7767 0.5692 -0.2699
vn 0.6837 0.6615 -0.3081
vn 0.9612 -0.1660 -0.2204
vn 0.9604 -0.1220 -0.2504
vn 0.9669 0.0349 -0.2527
vn 0.9247 0.1779 -0.3366
vn 0.8924 0.3134 -0.3247
vn 0.8347 0.4075 -0.3706
vn 0.7622 0.5503 -0.3410
vn 0.7386 0.5753 -0.3514
vn 0.6838 0.6518 -0.3281
vn 0.6929 0.6436 -0.3249
vn 0.8365 -0.4936 -0.2377
vn 0.8444 -0.4639 -0.2679
vn 0.9313 -0.2077 -0.2994
vn 0.9315 -0.2138 -0.2943
vn 0.9279 0.2362 -0.2886
vn 0.9351 0.2199 -0.2778
vn 0.8229 0.5209 -0.2270
vn 0.7807 0.5710 -0.2541
vn 0.7352 0.6372 -0.2314
vn 0.6498 0.7136 -0.2618
vn 0.6975 0.6559 -0.2886
vn 0.5931 0.7407 -0.3157
vn 0.7657 -0.6090 -0.2072
vn 0.7423 -0.6567 -0.1333
vn 0.9281 -0.3146 -0.1991
vn 0.9244 -0.3474 -0.1577
vn 0.9826 -0.0387 -0.1814
vn 0.9623 0.0464 -0.2681
vn 0.9360 0.2400 -0.2575
vn 0.8327 0.3996 -0.3834
vn 0.7820 0.5122 -0.3551
vn 0.6252 0.6499 -0.4321
vn 0.6282 0.6458 -0.4340
vn 0.5042 0.7288 -0.4632
vn 0.5368 0.6901 -0.4853
vn 0.4545 0.7380 -0.4988
vn 0.3269 0.7140 -0.6191
vn 0.2860 0.6300 -0.7220
vn 0.2061 0.5745 -0.7922
vn 0.1068 0.3982 -0.9110
vn -0.0316 0.1319 -0.9908
vn -0.2704 -0.2224 -0.9367
vn -0.4486 -0.4933 -0.7453
vn 0.2823 0.7098 -0.6453
vn 0.1268 0.7878 -0.6027
vn 0.2063 0.6096 -0.7654
vn 0.0287 0.7096 -0.7041
vn 0.0397 0.7680 -0.6393
vn -0.1886 0.8381 -0.5119
vn 0.1129 0.5337 -0.8381
vn -0.0559 0.6467 -0.7607
vn -0.0481 0.6799 -0.7317
vn -0.2914 0.7798 -0.5541
vn -0.2838 0.7955 -0.5354
vn -0.4388 0.8132 -0.3823
vn -0.0281 0.3162 -0.9483
vn -0.2206 0.4759 -0.8514
vn -0.2008 0.5681 -0.7981
vn -0.4077 0.7026 -0.5832
vn -0.4020 0.7142 -0.5730
vn -0.5260 0.7515 -0.3982
vn -0.5219 0.7574 -0.3923
vn -0.5416 0.7582 -0.3631
vn -0.2790 -0.0361 -0.9596
vn -0.4802 0.1578 -0.8628
vn -0.4624 0.2989 -0.8348
vn -0.6075 0.4586 -0.6486
vn -0.5536 0.5957 -0.5820
vn -0.6086 0.6418 -0.4666
vn -0.5376 0.7431 -0.3984
vn -0.5389 0.7436 -0.3957
vn -0.4988 0.7874 -0.3622
vn -0.4603 0.7783 -0.4269
vn -0.4709 -0.3557 -0.8073
vn -0.6489 -0.1745 -0.7406
vn -0.6467 0.0154 -0.7626
vn -0.7364 0.1402 -0.6619
vn -0.6768 0.3951 -0.6211
vn -0.6889 0.4136 -0.5952
vn -0.5366 0.6949 -0.4788
vn -0.5367 0.6950 -0.4785
vn -0.4283 0.8102 -0.4001
vn -0.4157 0.7992 -0.4342
vn -0.4043 0.8095 -0.4257
vn -0.3680 0.7811 -0.5044
vn -0.5322 -0.5404 -0.6518
vn -0.6419 -0.4438 -0.6253
vn -0.6818 -0.2016 -0.7032
vn -0.7166 -0.1613 -0.6786
vn -0.7042 0.1719 -0.6889
vn -0.7237 0.2027 -0.6596
vn -0.6578 0.4423 -0.6096
vn -0.6742 0.4743 -0.5661
vn -0.5536 0.6839 -0.4752
vn -0.5473 0.6719 -0.4990
vn -0.4604 0.7753 -0.4323
vn -0.4493 0.7551 -0.4775
vn -0.4852 0.7121 -0.5074
vn -0.5213 0.7603 -0.3875
vn -0.6662 0.7180 -0.2015
vn -0.7612 0.6337 -0.1378
vn -0.8638 0.5004 -0.0585
vn -0.9266 0.3759 0.0029
vn -0.9621 0.2462 0.1171
vn -0.9564 -0.1390 0.2568
vn -0.7886 -0.5940 0.1587
vn -0.7588 0.6367 -0.1375
vn -0.6990 0.7143 -0.0355
vn -0.8482 0.5265 -0.0571
vn -0.7870 0.6161 0.0317
vn -0.7788 0.6265 0.0323
vn -0.7187 0.6871 0.1066
vn -0.9094 0.4160 0.0037
vn -0.8459 0.5256 0.0899
vn -0.8450 0.5271 0.0900
vn -0.8495 0.5208 0.0846
vn -0.6903 0.7193 0.0786
vn -0.6745 0.7323 0.0935
vn -0.9689 0.2178 0.1173
vn -0.9569 0.2542 0.1406
vn -0.8869 0.4381 0.1465
vn -0.9700 0.2429 0.0077
vn -0.7817 0.6236 0.0014
vn -0.8154 0.5776 -0.0386
vn -0.5136 0.8562 -0.0556
vn -0.5178 0.8534 -0.0592
vn -0.9640 0.0464 0.2618
vn -0.9603 -0.2770 0.0327
vn -0.9355 0.3445 0.0788
vn -0.9867 0.0244 -0.1608
vn -0.8697 0.4676 -0.1581
vn -0.8442 0.5235 -0.1150
vn -0.7419 0.6601 -0.1173
vn -0.7032 0.7070 -0.0758
vn -0.5038 0.8609 -0.0713
vn -0.6526 0.7286 -0.2078
vn -0.9795 -0.0520 0.1948
vn -0.8267 -0.5378 -0.1651
vn -0.9878 -0.0082 -0.1554
vn -0.9827 -0.0439 -0.1797
vn -0.9820 0.0543 -0.1810
vn -0.9682 0.2451 -0.0492
vn -0.8931 0.4473 -0.0487
vn -0.9252 0.3591 -0.1228
vn -0.6872 0.7205 -0.0935
vn -0.7900 0.5617 -0.2455
vn -0.6351 0.7392 -0.2243
vn -0.6602 0.7081 -0.2505
vn -0.9569 -0.2796 -0.0786
vn -0.8303 -0.5019 -0.2423
vn -0.8729 -0.4222 -0.2446
vn -0.9682 -0.2258 -0.1079
vn -0.9811 -0.1600 -0.1086
vn -0.9965 -0.0736 -0.0402
vn -0.9745 0.2221 -0.0319
vn -0.9848 0.1376 -0.1057
vn -0.9410 0.3255 -0.0925
vn -0.9331 0.3530 -0.0690
vn -0.9129 0.4026 -0.0668
vn -0.8512 0.5238 0.0332
vn -0.8510 0.5241 0.0332
vn -0.7526 0.6438 0.1383
vn -0.6901 0.5922 0.4159
vn -0.6555 0.5524 0.5149
vn -0.6331 0.4690 0.6158
vn -0.6214 0.2493 0.7428
vn -0.6313 0.0241 0.7752
vn -0.5611 -0.2556 0.7873
vn -0.3005 -0.5804 0.7569
vn -0.6512 0.5612 0.5109
vn -0.4803 0.6901 0.5414
vn -0.6174 0.5082 0.6004
vn -0.4326 0.6514 0.6233
vn -0.4313 0.6535 0.6220
vn -0.3102 0.7198 0.6210
vn -0.5852 0.4051 0.7025
vn -0.4706 0.5043 0.7240
vn -0.4085 0.6287 0.6617
vn -0.3679 0.6532 0.6618
vn -0.3186 0.7244 0.6114
vn -0.3127 0.7271 0.6111
vn -0.6162 0.2423 0.7494
vn -0.5461 0.3146 0.7764
vn -0.4832 0.5184 0.7055
vn -0.4202 0.5657 0.7095
vn -0.3732 0.6566 0.6555
vn -0.3687 0.6593 0.6552
vn -0.3279 0.7322 0.5970
vn -0.3038 0.7441 0.5950
vn -0.5837 -0.0327 0.8113
vn -0.4947 0.0653 0.8666
vn -0.4793 0.2286 0.8473
vn -0.3539 0.3477 0.8683
vn -0.3193 0.4711 0.8223
vn -0.2509 0.5207 0.8160
vn -0.2257 0.5886 0.7763
vn -0.1860 0.6100 0.7702
vn -0.1542 0.6987 0.6986
vn -0.0869 0.7235 0.6848
vn -0.3516 -0.4274 0.8329
vn -0.2745 -0.3473 0.8967
vn -0.3014 -0.1399 0.9432
vn -0.2016 -0.0390 0.9787
vn -0.1895 0.1630 0.9683
vn -0.1291 0.2165 0.9677
vn -0.0955 0.3993 0.9118
vn -0.0521 0.4264 0.9030
vn -0.0331 0.5328 0.8456
vn 0.0432 0.5632 0.8252
vn 0.0581 0.6643 0.7452
vn 0.1496 0.6847 0.7133
vn -0.0790 -0.6855 0.7237
vn -0.0220 -0.6358 0.7716
vn -0.0777 -0.4772 0.8754
vn -0.0123 -0.4207 0.9071
vn -0.0403 -0.1891 0.9811
vn 0.0002 -0.1524 0.9883
vn 0.0094 0.0790 0.9968
vn 0.0351 0.0993 0.9944
vn 0.0475 0.3537 0.9342
vn 0.1132 0.3879 0.9147
vn 0.1107 0.5241 0.8445
vn 0.2235 0.5586 0.7988
vn 0.2187 0.6479 0.7297
vn 0.3612 0.6648 0.6539
vn 0.6255 0.6114 0.4847
vn 0.7809 0.4315 0.4516
vn 0.8782 0.2406 0.4133
vn 0.9011 0.1546 0.4051
vn 0.9176 -0.0062 0.3974
vn 0.9317 -0.0947 0.3506
vn 0.9057 -0.3398 0.2536
vn 0.7584 0.4861 0.4342
vn 0.8070 0.5351 0.2499
vn 0.8590 0.3186 0.4008
vn 0.8822 0.4008 0.2471
vn 0.8525 0.4702 0.2286
vn 0.8554 0.4915 0.1637
vn 0.8890 0.2179 0.4028
vn 0.8891 0.3796 0.2559
vn 0.8758 0.4123 0.2510
vn 0.8681 0.4623 0.1811
vn 0.8411 0.5134 0.1701
vn 0.8469 0.4696 0.2494
vn 0.9030 0.1500 0.4027
vn 0.8780 0.4125 0.2428
vn 0.9010 0.3557 0.2482
vn 0.8758 0.4485 0.1781
vn 0.8750 0.4503 0.1779
vn 0.8918 0.3792 0.2467
vn 0.8640 0.4426 0.2400
vn 0.8469 0.5091 0.1536
vn 0.9330 -0.0708 0.3527
vn 0.9468 0.2417 0.2127
vn 0.9223 0.3247 0.2094
vn 0.9168 0.3474 0.1968
vn 0.8643 0.4686 0.1829
vn 0.9043 0.3300 0.2708
vn 0.8627 0.4325 0.2622
vn 0.8253 0.5376 0.1727
vn 0.8117 0.5588 0.1700
vn 0.6794 0.7311 -0.0624
vn 0.9434 -0.1921 0.2704
vn 0.9716 -0.0784 0.2235
vn 0.9435 0.2504 0.2171
vn 0.9510 0.1465 0.2724
vn 0.8486 0.4756 0.2317
vn 0.8823 0.3570 0.3066
vn 0.8510 0.4335 0.2966
vn 0.7530 0.6455 0.1277
vn 0.8706 0.4680 0.1521
vn 0.7410 0.6701 -0.0442
vn 0.6612 0.7481 -0.0561
vn 0.7632 0.6421 0.0727
vn 0.8991 -0.3841 0.2101
vn 0.8845 -0.4114 0.2201
vn 0.9702 -0.0606 0.2345
vn 0.9526 -0.1400 0.2702
vn 0.9584 0.1156 0.2609
vn 0.9534 0.2201 0.2062
vn 0.9752 0.0538 0.2145
vn 0.9270 0.3735 0.0343
vn 0.9299 0.3663 0.0347
vn 0.9257 0.3772 0.0274
vn 0.6561 0.7546 -0.0104
vn 0.8256 0.5279 0.1994
vn 0.5412 0.8284 0.1446
vn 0.6665 0.6786 0.3086
vn 0.3692 0.6884 -0.6243
vn 0.4111 0.6289 -0.6600
vn 0.5479 0.4947 -0.6746
vn 0.7775 0.2141 -0.5913
vn 0.9326 -0.0685 -0.3543
vn 0.9410 -0.3089 -0.1384
vn 0.8544 -0.5138 -0.0775
vn 0.3944 0.6402 -0.6593
vn 0.3309 0.6005 -0.7280
vn 0.4344 0.5821 -0.6873
vn 0.3616 0.5062 -0.7829
vn 0.3624 0.5057 -0.7829
vn 0.3292 0.4824 -0.8117
vn 0.5747 0.4175 -0.7038
vn 0.4777 0.2791 -0.8330
vn 0.4044 0.3419 -0.8483
vn 0.3946 0.3323 -0.8566
vn 0.3470 0.3717 -0.8611
vn 0.2390 0.2905 -0.9266
vn 0.7876 0.1418 -0.5996
vn 0.6731 -0.0462 -0.7381
vn 0.4920 0.1223 -0.8619
vn 0.4543 0.0823 -0.8870
vn 0.4139 0.1135 -0.9032
vn 0.3498 0.0606 -0.9349
vn 0.2459 0.1385 -0.9593
vn 0.0892 0.0390 -0.9952
vn 0.9151 -0.2271 -0.3332
vn 0.8286 -0.3794 -0.4116
vn 0.6562 -0.2106 -0.7246
vn 0.5611 -0.3072 -0.7686
vn 0.4286 -0.2163 -0.8772
vn 0.3876 -0.2466 -0.8882
vn 0.3447 -0.2211 -0.9123
vn 0.1776 -0.3214 -0.9301
vn 0.0882 -0.2667 -0.9597
vn -0.0914 -0.3521 -0.9315
vn 0.8544 -0.5145 -0.0724
vn 0.8060 -0.5842 -0.0953
vn 0.7592 -0.5539 -0.3416
vn 0.6539 -0.6586 -0.3724
vn 0.4725 -0.5768 -0.6663
vn 0.4256 -0.6069 -0.6712
vn 0.3191 -0.5613 -0.7636
vn 0.2204 -0.6099 -0.7612
vn 0.1512 -0.5793 -0.8010
vn 0.0110 -0.6333 -0.7738
vn -0.0934 -0.5803 -0.8091
vn -0.2580 -0.6275 -0.7346
vn 0.7229 -0.6910 0.0055
vn 0.7050 -0.7092 0.0010
vn 0.7036 -0.7105 -0.0111
vn 0.5986 -0.8006 -0.0264
vn 0.5226 -0.8212 -0.2291
vn 0.4463 -0.8647 -0.2306
vn 0.2784 -0.8502 -0.4468
vn 0.2551 -0.8588 -0.4443
vn 0.1362 -0.8316 -0.5384
vn 0.0665 -0.8502 -0.5222
vn -0.0169 -0.8245 -0.5656
vn -0.0989 -0.8399 -0.5337
vn -0.2542 -0.7731 -0.5811
vn -0.3190 -0.7789 -0.5400
vn -0.7213 0.5951 -0.3544
vn -0.6598 0.5954 -0.4584
vn -0.6367 0.6075 -0.4750
vn -0.7457 0.4050 -0.5290
vn -0.7791 0.1395 -0.6112
vn -0.7242 -0.1694 -0.6684
vn -0.6478 -0.4481 -0.6161
vn -0.6286 0.7116 -0.3138
vn -0.8075 0.5341 -0.2503
vn -0.6368 0.6299 -0.4446
vn -0.8306 0.4247 -0.3602
vn -0.8115 0.5272 -0.2519
vn -0.9108 0.3764 -0.1695
vn -0.7418 0.3917 -0.5443
vn -0.8392 0.2693 -0.4726
vn -0.8509 0.3727 -0.3702
vn -0.9389 0.2193 -0.2653
vn -0.9308 0.3211 -0.1744
vn -0.9664 0.2338 -0.1071
vn -0.8001 0.1799 -0.5722
vn -0.8653 0.0853 -0.4940
vn -0.8649 0.0845 -0.4947
vn -0.9332 -0.0885 -0.3484
vn -0.9618 0.0098 -0.2734
vn -0.9784 -0.0765 -0.1919
vn -0.9936 0.0433 -0.1046
vn -0.9988 -0.0177 -0.0465
vn -0.7747 -0.1127 -0.6222
vn -0.8436 -0.2205 -0.4896
vn -0.8350 -0.2326 -0.4987
vn -0.8607 -0.3106 -0.4034
vn -0.9127 -0.2208 -0.3439
vn -0.9189 -0.3267 -0.2212
vn -0.9486 -0.2610 -0.1793
vn -0.9464 -0.2874 -0.1475
vn -0.9921 -0.1196 -0.0387
vn -0.9402 -0.2953 0.1696
vn -0.6307 -0.4604 -0.6246
vn -0.6913 -0.5341 -0.4867
vn -0.7551 -0.4760 -0.4508
vn -0.7688 -0.5115 -0.3839
vn -0.7834 -0.4961 -0.3744
vn -0.7837 -0.5633 -0.2616
vn -0.8646 -0.4596 -0.2029
vn -0.8509 -0.5119 -0.1178
vn -0.8461 -0.5188 -0.1224
vn -0.7952 -0.6058 0.0254
vn -0.9271 -0.3320 0.1740
vn -0.8658 -0.4102 0.2867
vn -0.4776 -0.7117 -0.5152
vn -0.5217 -0.7403 -0.4240
vn -0.5574 -0.7201 -0.4132
vn -0.5765 -0.7473 -0.3304
vn -0.6169 -0.7212 -0.3151
vn -0.6181 -0.7330 -0.2840
vn -0.7257 -0.6453 -0.2388
vn -0.7003 -0.7074 -0.0954
vn -0.7141 -0.6945 -0.0878
vn -0.6828 -0.7306 -0.0011
vn -0.7416 -0.6698 0.0383
vn -0.6537 -0.7325 0.1898
vn -0.7994 -0.5198 0.3012
vn -0.8857 -0.4354 0.1610
vn -0.7954 0.4828 0.3662
vn -0.9082 0.3078 0.2834
vn -0.9820 0.0894 0.1666
vn -0.9958 -0.0783 0.0476
vn -0.9897 -0.1433 0.0050
vn -0.9539 -0.2919 -0.0697
vn -0.8089 -0.5470 -0.2155
vn -0.8045 0.4649 0.3696
vn -0.7987 0.3940 0.4548
vn -0.9186 0.2717 0.2868
vn -0.9111 0.1947 0.3634
vn -0.8067 0.3716 0.4595
vn -0.7856 0.2902 0.5464
vn -0.9834 0.0709 0.1669
vn -0.9657 -0.0384 0.2569
vn -0.9215 0.1143 0.3711
vn -0.8990 0.0402 0.4361
vn -0.7977 0.2355 0.5551
vn -0.7318 0.1010 0.6740
vn -0.9939 -0.1007 0.0460
vn -0.9351 -0.3062 0.1784
vn -0.9390 -0.2300 0.2559
vn -0.9402 -0.2271 0.2537
vn -0.8983 -0.0222 0.4389
vn -0.8190 -0.1698 0.5480
vn -0.7334 0.0060 0.6798
vn -0.6882 -0.0524 0.7237
vn -0.9720 -0.2351 -0.0041
vn -0.8870 -0.4475 0.1142
vn -0.8989 -0.4051 0.1667
vn -0.8991 -0.4048 0.1666
vn -0.9063 -0.3427 0.2475
vn -0.8344 -0.4512 0.3165
vn -0.7985 -0.2625 0.5418
vn -0.6950 -0.3763 0.6127
vn -0.6435 -0.2824 0.7114
vn -0.6073 -0.3121 0.7306
vn -0.8809 -0.4656 -0.0847
vn -0.8260 -0.5631 -0.0254
vn -0.8731 -0.4752 0.1092
vn -0.7808 -0.5989 0.1777
vn -0.7699 -0.6243 0.1321
vn -0.7839 -0.6087 0.1224
vn -0.8038 -0.5109 0.3049
vn -0.6625 -0.6481 0.3756
vn -0.6261 -0.5200 0.5810
vn -0.5352 -0.5826 0.6117
vn -0.5081 -0.5428 0.6688
vn -0.3392 -0.6239 0.7041
vn -0.7124 -0.6632 -0.2293
vn -0.6574 -0.7302 -0.1861
vn -0.7379 -0.6735 -0.0438
vn -0.6427 -0.7659 0.0182
vn -0.6849 -0.7133 0.1488
vn -0.7073 -0.6937 0.1361
vn -0.6991 -0.7088 0.0940
vn -0.6130 -0.7792 0.1311
vn -0.6195 -0.6995 0.3562
vn -0.5087 -0.7689 0.3874
vn -0.4612 -0.6817 0.5680
vn -0.2693 -0.7595 0.5922
vn -0.2510 -0.7360 0.6287
vn -0.0584 -0.7769 0.6269
vn 0.5141 0.5462 0.6613
vn 0.3624 0.4551 0.8134
vn 0.2303 0.2921 0.9283
vn 0.1296 0.0050 0.9915
vn 0.0783 -0.2256 0.9711
vn 0.0536 -0.4606 0.8860
vn 0.0525 -0.6638 0.7461
vn 0.5099 0.5586 0.6542
vn 0.7050 0.3403 0.6223
vn 0.3734 0.4092 0.8326
vn 0.5675 0.1980 0.7992
vn 0.7006 0.3616 0.6152
vn 0.8351 0.1265 0.5354
vn 0.2479 0.1138 0.9621
vn 0.3957 -0.0631 0.9162
vn 0.5718 0.1509 0.8064
vn 0.7269 -0.1233 0.6756
vn 0.8374 0.0915 0.5388
vn 0.8690 0.0103 0.4948
vn 0.1258 -0.1861 0.9744
vn 0.2257 -0.2968 0.9279
vn 0.3932 -0.1209 0.9115
vn 0.5565 -0.3604 0.7486
vn 0.7280 -0.1113 0.6765
vn 0.8030 -0.2989 0.5156
vn 0.8547 -0.2014 0.4784
vn 0.8550 -0.2023 0.4776
vn 0.0719 -0.4506 0.8898
vn 0.1107 -0.4764 0.8722
vn 0.2083 -0.4125 0.8868
vn 0.3727 -0.5434 0.7522
vn 0.5533 -0.3739 0.7443
vn 0.6853 -0.5188 0.5111
vn 0.7705 -0.4090 0.4889
vn 0.7806 -0.4295 0.4540
vn 0.8130 -0.3805 0.4408
vn 0.8131 -0.3807 0.4405
vn 0.0669 -0.6580 0.7501
vn 0.0798 -0.6628 0.7446
vn 0.0747 -0.6647 0.7433
vn 0.2110 -0.7222 0.6588
vn 0.3299 -0.6575 0.6774
vn 0.5061 -0.7250 0.4673
vn 0.6451 -0.6057 0.4658
vn 0.6802 -0.6222 0.3876
vn 0.6917 -0.6105 0.3857
vn 0.6799 -0.5991 0.4228
vn 0.7661 -0.5004 0.4033
vn 0.7844 -0.5366 0.3112
vn 0.0734 -0.7883 0.6108
vn 0.1024 -0.7942 0.5990
vn 0.0549 -0.8089 0.5854
vn 0.1605 -0.8318 0.5313
vn 0.1532 -0.8344 0.5294
vn 0.3178 -0.8638 0.3909
vn 0.4713 -0.7783 0.4150
vn 0.5276 -0.7818 0.3323
vn 0.6245 -0.7068 0.3323
vn 0.5969 -0.7026 0.3875
vn 0.6274 -0.6771 0.3846
vn 0.6590 -0.6924 0.2939
vn 0.7371 -0.6152 0.2797
vn 0.7497 -0.6287 0.2065
vn 0.7555 0.5969 0.2701
vn 0.6589 0.7059 0.2599
vn 0.7443 0.6571 0.1191
vn 0.9619 0.2734 -0.0023
vn 0.9667 -0.2557 0.0076
vn 0.8877 -0.4503 0.0956
vn 0.8431 -0.5211 0.1329
vn 0.6643 0.6993 0.2641
vn 0.9001 0.4221 0.1082
vn 0.9084 0.3043 0.2868
vn 0.9422 0.2191 0.2535
vn 0.8388 0.5336 0.1079
vn 0.9151 0.4022 0.0285
vn 0.9861 -0.0872 0.1412
vn 0.9254 0.2757 0.2599
vn 0.9224 0.2923 0.2525
vn 0.9943 -0.0520 0.0935
vn 0.9951 0.0950 0.0258
vn 0.9903 0.1307 0.0465
vn 0.9723 -0.2337 -0.0022
vn 0.9860 0.1116 0.1242
vn 0.9334 -0.2454 0.2617
vn 0.9214 -0.3123 0.2312
vn 0.9954 -0.0201 0.0935
vn 0.9947 -0.0815 0.0622
vn 0.9975 -0.0526 0.0468
vn 0.9754 -0.2134 -0.0552
vn 0.9633 -0.2684 0.0074
vn 0.9830 -0.1760 0.0516
vn 0.9278 -0.3514 0.1253
vn 0.9649 -0.1688 0.2012
vn 0.9438 -0.2350 0.2326
vn 0.8848 -0.4491 0.1242
vn 0.9344 -0.3503 0.0653
vn 0.9225 -0.3833 0.0464
vn 0.9704 -0.2352 -0.0548
vn 0.8834 -0.4300 -0.1862
vn 0.8882 -0.4495 0.0956
vn 0.8376 -0.5455 0.0279
vn 0.8190 -0.5723 0.0410
vn 0.9174 -0.3676 0.1524
vn 0.8569 -0.4733 0.2044
vn 0.8438 -0.5020 0.1897
vn 0.9109 -0.3936 0.1241
vn 0.8459 -0.5313 0.0467
vn 0.8427 -0.5361 0.0504
vn 0.7460 -0.6650 -0.0368
vn 0.8365 -0.5174 -0.1802
vn 0.7675 -0.5962 -0.2354
vn 0.7886 -0.6016 0.1274
vn 0.6987 -0.7153 0.0096
vn 0.6882 -0.7254 0.0153
vn 0.8064 -0.5755 0.1361
vn 0.7836 -0.6027 0.1507
vn 0.8100 -0.5593 0.1761
vn 0.7914 -0.5811 0.1898
vn 0.6666 -0.7403 0.0868
vn 0.7125 -0.6998 0.0502
vn 0.7024 -0.7105 0.0428
vn 0.7729 -0.6333 -0.0390
vn 0.6342 -0.7617 -0.1327
vn 0.6890 -0.6896 -0.2230
vn 0.7013 -0.6795 -0.2157
vn 0.6595 -0.7384 -0.1410
vn 0.6017 -0.7837 -0.1543
vn 0.4365 -0.8870 -0.1507
vn 0.1971 -0.9751 -0.1014
vn 0.0741 -0.9935 0.0863
vn 0.0665 -0.9480 0.3111
vn 0.2888 -0.9275 0.2372
vn 0.5858 -0.7978 -0.1426
vn 0.6887 -0.7249 0.0140
vn 0.4394 -0.8852 -0.1531
vn 0.5523 -0.8331 -0.0308
vn 0.4966 -0.8678 0.0179
vn 0.5164 -0.8550 0.0476
vn 0.2406 -0.9601 -0.1424
vn 0.3805 -0.9243 -0.0294
vn 0.3738 -0.9272 -0.0229
vn 0.4455 -0.8938 0.0517
vn 0.4446 -0.8942 0.0526
vn 0.3315 -0.9392 -0.0889
vn 0.2586 -0.9603 -0.1047
vn 0.3548 -0.9342 -0.0374
vn 0.3459 -0.9379 -0.0276
vn 0.3935 -0.9193 0.0105
vn 0.3512 -0.9342 0.0621
vn 0.2522 -0.9673 -0.0270
vn 0.2917 -0.9528 -0.0840
vn 0.1415 -0.9629 -0.2298
vn 0.2863 -0.9552 0.0745
vn 0.2175 -0.9755 0.0337
vn 0.2717 -0.9618 -0.0329
vn 0.3556 -0.9343 0.0244
vn 0.3623 -0.9319 0.0144
vn 0.2456 -0.9668 -0.0712
vn 0.2170 -0.9759 -0.0210
vn 0.0742 -0.9891 -0.1269
vn 0.1161 -0.9673 -0.2253
vn 0.0057 -0.9510 -0.3091
vn 0.2370 -0.9250 0.2969
vn 0.1440 -0.9564 0.2542
vn 0.3270 -0.9447 0.0243
vn 0.2874 -0.9578 0.0019
vn 0.2657 -0.9634 0.0360
vn 0.1546 -0.9876 -0.0271
vn 0.1700 -0.9837 -0.0581
vn 0.0618 -0.9905 -0.1229
vn 0.0624 -0.9902 -0.1245
vn -0.0402 -0.9817 -0.1863
vn -0.0166 -0.9525 -0.3042
vn -0.1132 -0.9249 -0.3629
vn 0.1910 -0.9484 0.2530
vn 0.2628 -0.9216 0.2857
vn 0.3046 -0.9241 0.2306
vn 0.2059 -0.9603 0.1882
vn 0.3236 -0.9462 -0.0029
vn 0.2346 -0.9708 -0.0494
vn 0.2308 -0.9721 -0.0415
vn 0.0443 -0.9901 -0.1331
vn 0.0397 -0.9922 -0.1184
vn -0.0566 -0.9842 -0.1680
vn -0.0544 -0.9816 -0.1830
vn -0.1879 -0.9499 -0.2498
vn -0.1860 -0.9211 -0.3421
vn -0.3114 -0.8611 -0.4018
vn -0.3447 -0.8542 -0.3893
vn -0.2135 -0.9464 -0.2424
vn -0.1262 -0.9803 -0.1517
vn 0.0384 -0.9905 -0.1318
vn 0.2147 -0.9756 -0.0459
vn 0.1993 -0.9615 0.1894
vn 0.2421 -0.9258 0.2902
vn -0.3576 -0.8727 -0.3325
vn -0.3593 -0.8722 -0.3319
vn -0.2216 -0.9528 -0.2074
vn -0.2519 -0.9470 -0.1993
vn -0.3659 -0.8934 -0.2606
vn -0.4102 -0.8782 -0.2458
vn -0.1108 -0.9719 -0.2077
vn -0.1517 -0.9683 -0.1983
vn -0.2467 -0.9374 -0.2457
vn -0.3078 -0.9230 -0.2308
vn -0.4105 -0.8673 -0.2815
vn -0.5316 -0.8109 -0.2445
vn 0.0364 -0.9914 -0.1256
vn 0.0135 -0.9925 -0.1211
vn -0.1526 -0.9693 -0.1930
vn -0.2685 -0.9483 -0.1692
vn -0.3080 -0.9330 -0.1863
vn -0.5396 -0.8314 -0.1328
vn -0.5173 -0.8468 -0.1237
vn -0.6560 -0.7504 -0.0814
vn 0.1513 -0.9732 0.1733
vn 0.0319 -0.9797 0.1981
vn -0.0332 -0.9837 0.1765
vn -0.1771 -0.9617 0.2091
vn -0.2693 -0.9459 0.1808
vn -0.3389 -0.9194 0.1997
vn -0.5003 -0.8509 0.1601
vn -0.3941 -0.9109 0.1219
vn -0.6217 -0.7783 0.0882
vn -0.4874 -0.8727 0.0295
vn 0.1776 -0.9451 0.2742
vn 0.1300 -0.9493 0.2864
vn 0.0243 -0.9656 0.2588
vn -0.0520 -0.9588 0.2793
vn -0.1768 -0.9525 0.2480
vn -0.1649 -0.9555 0.2444
vn -0.3378 -0.9172 0.2111
vn -0.2093 -0.9634 0.1674
vn -0.3920 -0.9095 0.1384
vn -0.4082 -0.9015 0.1439
vn -0.4676 -0.8742 0.1312
vn -0.6459 -0.7389 0.1919
vn 0.2769 -0.9584 0.0690
vn 0.1362 -0.9858 0.0983
vn 0.1464 -0.9840 0.1018
vn -0.0466 -0.9880 0.1470
vn -0.0500 -0.9880 0.1459
vn -0.1398 -0.9756 0.1692
vn -0.1665 -0.9724 0.1632
vn -0.0999 -0.9847 0.1429
vn -0.2113 -0.9696 0.1233
vn -0.2843 -0.9471 0.1490
vn -0.4113 -0.9033 0.1218
vn -0.5461 -0.8192 0.1750
vn -0.6575 -0.7391 0.1464
vn -0.7358 -0.6511 0.1859
vn -0.7161 -0.6719 -0.1892
vn -0.5424 -0.8299 -0.1304
vn -0.2817 -0.9571 -0.0683
vn -0.0981 -0.9951 -0.0105
vn -0.1429 -0.9897 0.0111
vn -0.0505 -0.9987 -0.0045
vn 0.1351 -0.9908 -0.0049
vn -0.5393 -0.8318 -0.1314
vn -0.5204 -0.8278 -0.2098
vn -0.3067 -0.9499 -0.0604
vn -0.2845 -0.9372 -0.2018
vn -0.4280 -0.8871 -0.1728
vn -0.4572 -0.8891 -0.0212
vn -0.0783 -0.9968 -0.0161
vn -0.0655 -0.9812 -0.1817
vn -0.1642 -0.9732 -0.1609
vn -0.1717 -0.9815 -0.0847
vn -0.4708 -0.8818 -0.0268
vn -0.4825 -0.8726 0.0757
vn -0.0790 -0.9969 -0.0065
vn -0.0743 -0.9844 -0.1597
vn -0.0267 -0.9849 -0.1709
vn -0.0270 -0.9860 -0.1643
vn -0.2511 -0.9613 -0.1138
vn -0.2567 -0.9663 -0.0184
vn -0.5151 -0.8549 0.0616
vn -0.5188 -0.8498 0.0932
vn -0.1166 -0.9930 0.0167
vn -0.1177 -0.9864 -0.1151
vn -0.0179 -0.9887 -0.1487
vn -0.0179 -0.9900 -0.1399
vn 0.0181 -0.9882 -0.1518
vn 0.0221 -0.9970 -0.0743
vn -0.1979 -0.9802 0.0018
vn -0.1974 -0.9795 0.0409
vn -0.4135 -0.9009 0.1317
vn -0.4184 -0.8415 0.3417
vn 0.0640 -0.9977 0.0200
vn 0.0617 -0.9979 -0.0183
vn 0.1784 -0.9816 -0.0678
vn 0.1776 -0.9812 -0.0755
vn 0.2199 -0.9710 -0.0939
vn 0.2109 -0.9675 -0.1394
vn 0.0130 -0.9969 -0.0770
vn 0.0240 -0.9996 -0.0148
vn -0.1449 -0.9878 0.0563
vn -0.1157 -0.9383 0.3259
vn -0.2249 -0.8932 0.3895
vn -0.2089 -0.8090 0.5494
vn 0.2539 -0.9671 0.0157
vn 0.2591 -0.9634 0.0684
vn 0.3694 -0.9291 0.0176
vn 0.3601 -0.9323 -0.0328
vn 0.3720 -0.9274 -0.0383
vn 0.2997 -0.9226 -0.2428
vn 0.0643 -0.9811 -0.1827
vn 0.1145 -0.9923 -0.0470
vn 0.0333 -0.9994 -0.0129
vn 0.1194 -0.9467 0.2991
vn 0.0434 -0.9368 0.3471
vn 0.0844 -0.8512 0.5181
vn 0.0081 -0.8172 0.5763
vn 0.0063 -0.8234 0.5674
vn 0.6072 -0.7684 -0.2021
vn 0.6775 -0.7226 -0.1373
vn 0.5835 -0.8107 0.0484
vn 0.6793 -0.7287 0.0868
vn 0.6000 -0.7811 0.1726
vn 0.4604 -0.8809 0.1103
vn 0.6364 -0.7713 0.0040
vn 0.6094 -0.7661 -0.2042
vn 0.5574 -0.8062 -0.1986
vn 0.5233 -0.8521 -0.0033
vn 0.6169 -0.7870 -0.0103
vn 0.4861 -0.8645 -0.1274
vn 0.4659 -0.8759 -0.1257
vn 0.6089 -0.7926 0.0298
vn 0.4200 -0.9068 0.0360
vn 0.4941 -0.8644 0.0933
vn 0.4627 -0.8814 0.0948
vn 0.3402 -0.9404 -0.0027
vn 0.3333 -0.9428 -0.0023
vn 0.5760 -0.8025 0.1556
vn 0.3841 -0.9110 0.1503
vn 0.3201 -0.9416 0.1045
vn 0.2222 -0.9695 0.1036
vn 0.3404 -0.9209 0.1897
vn 0.1099 -0.9759 0.1884
vn 0.1159 -0.9744 0.1927
vn 0.2366 -0.9525 0.1919
vn 0.5740 -0.7970 0.1879
vn 0.2476 -0.9558 0.1588
vn 0.3010 -0.9329 0.1978
vn 0.1262 -0.9752 0.1819
vn 0.1154 -0.9780 0.1736
vn -0.0380 -0.9860 0.1625
vn 0.0513 -0.9719 0.2299
vn -0.0645 -0.9727 0.2228
vn 0.0739 -0.9460 0.3156
vn 0.0746 -0.9459 0.3156
vn 0.6265 -0.7794 -0.0033
vn 0.3424 -0.9393 -0.0240
vn 0.4368 -0.8984 0.0463
vn -0.0144 -0.9998 0.0114
vn 0.1662 -0.9731 0.1593
vn -0.0494 -0.9894 0.1364
vn -0.0264 -0.9875 0.1552
vn 0.0780 -0.9836 0.1624
vn 0.0540 -0.9878 0.1459
vn 0.1576 -0.9765 0.1470
vn 0.2474 -0.9482 0.1992
vn 0.2189 -0.9549 0.2005
vn 0.6034 -0.7967 0.0343
vn 0.6172 -0.7860 0.0354
vn 0.4471 -0.8884 -0.1045
vn 0.3709 -0.9224 -0.1082
vn 0.2720 -0.9440 -0.1869
vn -0.0000 -0.9821 -0.1884
vn 0.2078 -0.9780 -0.0167
vn -0.0624 -0.9976 -0.0291
vn 0.1423 -0.9816 0.1272
vn 0.3624 -0.9228 0.1305
vn 0.2780 -0.9575 0.0766
vn 0.4909 -0.8685 0.0688
vn 0.4483 -0.8930 0.0400
vn 0.3149 -0.9480 0.0466
vn 0.0861 -0.8130 0.5759
vn 0.1532 -0.8390 0.5221
vn 0.2173 -0.9277 0.3035
vn 0.0859 -0.9950 -0.0516
vn 0.1474 -0.9464 -0.2873
vn 0.5090 -0.8608 -0.0046
vn 0.4513 -0.8886 0.0820
vn 0.1533 -0.8308 0.5351
vn 0.0961 -0.8434 0.5286
vn 0.2387 -0.8486 0.4721
vn 0.1854 -0.8637 0.4687
vn 0.1865 -0.8609 0.4733
vn 0.1371 -0.8743 0.4657
vn 0.1989 -0.9284 0.3138
vn 0.2360 -0.9192 0.3153
vn 0.2731 -0.8679 0.4149
vn 0.2419 -0.8783 0.4123
vn 0.2334 -0.8892 0.3934
vn 0.3271 -0.8523 0.4082
vn 0.2443 -0.9627 -0.1162
vn 0.1290 -0.9824 -0.1349
vn 0.3454 -0.9048 0.2490
vn 0.2111 -0.9480 0.2381
vn 0.2949 -0.8793 0.3741
vn 0.4127 -0.8268 0.3822
vn 0.3892 -0.8542 0.3448
vn 0.5479 -0.7553 0.3596
vn 0.3033 -0.8918 -0.3358
vn 0.3388 -0.8823 -0.3268
vn 0.3948 -0.8830 -0.2540
vn 0.2436 -0.9294 -0.2772
vn 0.5094 -0.8597 0.0386
vn 0.3180 -0.9477 0.0259
vn 0.5334 -0.8011 0.2715
vn 0.4702 -0.8398 0.2714
vn 0.5530 -0.7544 0.3536
vn 0.5564 -0.7519 0.3536
vn 0.4288 -0.9022 0.0465
vn 0.4999 -0.8644 0.0545
vn 0.2321 -0.9306 -0.2831
vn 0.3303 -0.9046 -0.2694
vn 0.2964 -0.9058 -0.3027
vn 0.1814 -0.9338 -0.3085
vn 0.4516 -0.8894 -0.0713
vn 0.3794 -0.9224 -0.0721
vn 0.6165 -0.7765 0.1299
vn 0.4983 -0.8570 0.1315
vn 0.6525 -0.7173 0.2445
vn 0.5854 -0.7729 0.2450
vn 0.4214 -0.9011 0.1023
vn 0.4389 -0.8926 0.1032
vn 0.4333 -0.8961 0.0962
vn 0.4240 -0.9006 0.0956
vn 0.1486 -0.9722 -0.1807
vn 0.1971 -0.9641 -0.1778
vn 0.0985 -0.9604 -0.2605
vn 0.1047 -0.9597 -0.2606
vn 0.3681 -0.9276 -0.0633
vn 0.3133 -0.9476 -0.0627
vn 0.5385 -0.8374 0.0935
vn 0.5585 -0.8242 0.0933
vn 0.6593 -0.7348 0.1590
vn 0.6706 -0.7246 0.1588
s 0
f 1//1 20//1 19//1
f 2//2 26//2 40//2
f 1//3 19//3 54//3
f 1//4 54//4 68//4
f 1//5 68//5 41//5
f 2//6 40//6 89//6
f 3//7 33//7 103//7
f 4//8 61//8 117//8
f 5//9 75//9 131//9
f 6//10 82//10 145//10
f 2//11 89//11 104//11
f 3//12 103//12 118//12
f 4//13 117//13 132//13
f 5//14 131//14 146//14
f 6//15 145//15 90//15
f 7//16 159//16 194//16
f 8//17 166//17 208//17
f 9//18 173//18 215//18
f 10//19 180//19 222//19
f 11//20 187//20 195//20
f 201//21 216//21 12//21
f 200//22 223//22 201//22
f 199//23 224//23 200//23
f 198//24 226//24 199//24
f 197//25 229//25 198//25
f 196//26 233//26 197//26
f 195//27 238//27 196//27
f 201//28 223//28 216//28
f 223//29 217//29 216//29
f 200//30 224//30 223//30
f 224//31 225//31 223//31
f 223//32 225//32 217//32
f 225//33 218//33 217//33
f 199//34 226//34 224//34
f 226//35 227//35 224//35
f 224//36 227//36 225//36
f 227//37 228//37 225//37
f 225//38 228//38 218//38
f 228//39 219//39 218//39
f 198//40 229//40 226//40
f 229//41 230//41 226//41
f 226//42 230//42 227//42
f 230//43 231//43 227//43
f 227//44 231//44 228//44
f 231//45 232//45 228//45
f 228//46 232//46 219//46
f 232//47 220//47 219//47
f 197//48 233//48 229//48
f 233//49 234//49 229//49
f 229//50 234//50 230//50
f 234//51 235//51 230//51
f 230//52 235//52 231//52
f 235//53 236//53 231//53
f 231//54 236//54 232//54
f 236//55 237//55 232//55
f 232//56 237//56 220//56
f 237//57 221//57 220//57
f 196//58 238//58 233//58
f 238//59 239//59 233//59
f 233//60 239//60 234//60
f 239//61 240//61 234//61
f 234//62 240//62 235//62
f 240//63 241//63 235//63
f 235//64 241//64 236//64
f 241//65 242//65 236//65
f 236//66 242//66 237//66
f 242//67 243//67 237//67
f 237//68 243//68 221//68
f 243//69 222//69 221//69
f 195//70 187//70 238//70
f 187//71 186//71 238//71
f 238//72 186//72 239//72
f 186//73 185//73 239//73
f 239//74 185//74 240//74
f 185//75 184//75 240//75
f 240//76 184//76 241//76
f 184//77 183//77 241//77
f 241//78 183//78 242//78
f 183//79 182//79 242//79
f 242//80 182//80 243//80
f 182//81 181//81 243//81
f 243//82 181//82 222//82
f 181//83 10//83 222//83
f 216//84 209//84 12//84
f 217//85 244//85 216//85
f 218//86 245//86 217//86
f 219//87 247//87 218//87
f 220//88 250//88 219//88
f 221//89 254//89 220//89
f 222//90 259//90 221//90
f 216//91 244//91 209//91
f 244//92 210//92 209//92
f 217//93 245//93 244//93
f 245//94 246//94 244//94
f 244//95 246//95 210//95
f 246//96 211//96 210//96
f 218//97 247//97 245//97
f 247//98 248//98 245//98
f 245//99 248//99 246//99
f 248//100 249//100 246//100
f 246//101 249//101 211//101
f 249//102 212//102 211//102
f 219//103 250//103 247//103
f 250//104 251//104 247//104
f 247//105 251//105 248//105
f 251//106 252//106 248//106
f 248//107 252//107 249//107
f 252//108 253//108 249//108
f 249//109 253//109 212//109
f 253//110 213//110 212//110
f 220//111 254//111 250//111
f 254//112 255//112 250//112
f 250//113 255//113 251//113
f 255//114 256//114 251//114
f 251//115 256//115 252//115
f 256//116 257//116 252//116
f 252//117 257//117 253//117
f 257//118 258//118 253//118
f 253//119 258//119 213//119
f 258//120 214//120 213//120
f 221//121 259//121 254//121
f 259//122 260//122 254//122
f 254//123 260//123 255//123
f 260//124 261//124 255//124
f 255//125 261//125 256//125
f 261//126 262//126 256//126
f 256//127 262//127 257//127
f 262//128 263//128 257//128
f 257//129 263//129 258//129
f 263//130 264//130 258//130
f 258//131 264//131 214//131
f 264//132 215//132 214//132
f 222//133 180//133 259//133
f 180//134 179//134 259//134
f 259//135 179//135 260//135
f 179//136 178//136 260//136
f 260//137 178//137 261//137
f 178//138 177//138 261//138
f 261//139 177//139 262//139
f 177//140 176//140 262//140
f 262//141 176//141 263//141
f 176//142 175//142 263//142
f 263//143 175//143 264//143
f 175//144 174//144 264//144
f 264//145 174//145 215//145
f 174//146 9//146 215//146
f 209//147 202//147 12//147
f 210//148 265//148 209//148
f 211//149 266//149 210//149
f 212//150 268//150 211//150
f 213//151 271//151 212//151
f 214//152 275//152 213//152
f 215//153 280//153 214//153
f 209//154 265//154 202//154
f 265//155 203//155 202//155
f 210//156 266//156 265//156
f 266//157 267//157 265//157
f 265//158 267//158 203//158
f 267//159 204//159 203//159
f 211//160 268//160 266//160
f 268//161 269//161 266//161
f 266//162 269//162 267//162
f 269//163 270//163 267//163
f 267//164 270//164 204//164
f 270//165 205//165 204//165
f 212//166 271//166 268//166
f 271//167 272//167 268//167
f 268//168 272//168 269//168
f 272//169 273//169 269//169
f 269//170 273//170 270//170
f 273//171 274//171 270//171
f 270//172 274//172 205//172
f 274//173 206//173 205//173
f 213//174 275//174 271//174
f 275//175 276//175 271//175
f 271//176 276//176 272//176
f 276//177 277//177 272//177
f 272//178 277//178 273//178
f 277//179 278//179 273//179
f 273//180 278//180 274//180
f 278//181 279//181 274//181
f 274//182 279//182 206//182
f 279//183 207//183 206//183
f 214//184 280//184 275//184
f 280//185 281//185 275//185
f 275//186 281//186 276//186
f 281//187 282//187 276//187
f 276//188 282//188 277//188
f 282//189 283//189 277//189
f 277//190 283//190 278//190
f 283//191 284//191 278//191
f 278//192 284//192 279//192
f 284//193 285//193 279//193
f 279//194 285//194 207//194
f 285//195 208//195 207//195
f 215//196 173//196 280//196
f 173//197 172//197 280//197
f 280//198 172//198 281//198
f 172//199 171//199 281//199
f 281//200 171//200 282//200
f 171//201 170//201 282//201
f 282//202 170//202 283//202
f 170//203 169//203 283//203
f 283//204 169//204 284//204
f 169//205 168//205 284//205
f 284//206 168//206 285//206
f 168//207 167//207 285//207
f 285//208 167//208 208//208
f 167//209 8//209 208//209
f 202//210 188//210 12//210
f 203//211 286//211 202//211
f 204//212 287//212 203//212
f 205//213 289//213 204//213
f 206//214 292//214 205//214
f 207//215 296//215 206//215
f 208//216 301//216 207//216
f 202//217 286//217 188//217
f 286//218 189//218 188//218
f 203//219 287//219 286//219
f 287//220 288//220 286//220
f 286//221 288//221 189//221
f 288//222 190//222 189//222
f 204//223 289//223 287//223
f 289//224 290//224 287//224
f 287//225 290//225 288//225
f 290//226 291//226 288//226
f 288//227 291//227 190//227
f 291//228 191//228 190//228
f 205//229 292//229 289//229
f 292//230 293//230 289//230
f 289//231 293//231 290//231
f 293//232 294//232 290//232
f 290//233 294//233 291//233
f 294//234 295//234 291//234
f 291//235 295//235 191//235
f 295//236 192//236 191//236
f 206//237 296//237 292//237
f 296//238 297//238 292//238
f 292//239 297//239 293//239
f 297//240 298//240 293//240
f 293//241 298//241 294//241
f 298//242 299//242 294//242
f 294//243 299//243 295//243
f 299//244 300//244 295//244
f 295//245 300//245 192//245
f 300//246 193//246 192//246
f 207//247 301//247 296//247
f 301//248 302//248 296//248
f 296//249 302//249 297//249
f 302//250 303//250 297//250
f 297//251 303//251 298//251
f 303//252 304//252 298//252
f 298//253 304//253 299//253
f 304//254 305//254 299//254
f 299//255 305//255 300//255
f 305//256 306//256 300//256
f 300//257 306//257 193//257
f 306//258 194//258 193//258
f 208//259 166//259 301//259
f 166//260 165//260 301//260
f 301//261 165//261 302//261
f 165//262 164//262 302//262
f 302//263 164//263 303//263
f 164//264 163//264 303//264
f 303//265 163//265 304//265
f 163//266 162//266 304//266
f 304//267 162//267 305//267
f 162//268 161//268 305//268
f 305//269 161//269 306//269
f 161//270 160//270 306//270
f 306//271 160//271 194//271
f 160//272 7//272 194//272
f 188//273 201//273 12//273
f 189//274 307//274 188//274
f 190//275 308//275 189//275
f 191//276 310//276 190//276
f 192//277 313//277 191//277
f 193//278 317//278 192//278
f 194//279 322//279 193//279
f 188//280 307//280 201//280
f 307//281 200//281 201//281
f 189//282 308//282 307//282
f 308//283 309//283 307//283
f 307//284 309//284 200//284
f 309//285 199//285 200//285
f 190//286 310//286 308//286
f 310//287 311//287 308//287
f 308//288 311//288 309//288
f 311//289 312//289 309//289
f 309//290 312//290 199//290
f 312//291 198//291 199//291
f 191//292 313//292 310//292
f 313//293 314//293 310//293
f 310//294 314//294 311//294
f 314//295 315//295 311//295
f 311//296 315//296 312//296
f 315//297 316//297 312//297
f 312//298 316//298 198//298
f 316//299 197//299 198//299
f 192//300 317//300 313//300
f 317//301 318//301 313//301
f 313//302 318//302 314//302
f 318//303 319//303 314//303
f 314//304 319//304 315//304
f 319//305 320//305 315//305
f 315//306 320//306 316//306
f 320//307 321//307 316//307
f 316//308 321//308 197//308
f 321//309 196//309 197//309
f 193//310 322//310 317//310
f 322//311 323//311 317//311
f 317//312 323//312 318//312
f 323//313 324//313 318//313
f 318//314 324//314 319//314
f 324//315 325//315 319//315
f 319//316 325//316 320//316
f 325//317 326//317 320//317
f 320//318 326//318 321//318
f 326//319 327//319 321//319
f 321//320 327//320 196//320
f 327//321 195//321 196//321
f 194//322 159//322 322//322
f 159//323 158//323 322//323
f 322//324 158//324 323//324
f 158//325 157//325 323//325
f 323//326 157//326 324//326
f 157//327 156//327 324//327
f 324//328 156//328 325//328
f 156//329 155//329 325//329
f 325//330 155//330 326//330
f 155//331 154//331 326//331
f 326//332 154//332 327//332
f 154//333 153//333 327//333
f 327//334 153//334 195//334
f 153//335 11//335 195//335
f 96//336 187//336 11//336
f 95//337 328//337 96//337
f 94//338 329//338 95//338
f 93//339 331//339 94//339
f 92//340 334//340 93//340
f 91//341 338//341 92//341
f 90//342 343//342 91//342
f 96//343 328//343 187//343
f 328//344 186//344 187//344
f 95//345 329//345 328//345
f 329//346 330//346 328//346
f 328//347 330//347 186//347
f 330//348 185//348 186//348
f 94//349 331//349 329//349
f 331//350 332//350 329//350
f 329//351 332//351 330//351
f 332//352 333//352 330//352
f 330//353 333//353 185//353
f 333//354 184//354 185//354
f 93//355 334//355 331//355
f 334//356 335//356 331//356
f 331//357 335//357 332//357
f 335//358 336//358 332//358
f 332//359 336//359 333//359
f 336//360 337//360 333//360
f 333//361 337//361 184//361
f 337//362 183//362 184//362
f 92//363 338//363 334//363
f 338//364 339//364 334//364
f 334//365 339//365 335//365
f 339//366 340//366 335//366
f 335//367 340//367 336//367
f 340//368 341//368 336//368
f 336//369 341//369 337//369
f 341//370 342//370 337//370
f 337//371 342//371 183//371
f 342//372 182//372 183//372
f 91//373 343//373 338//373
f 343//374 344//374 338//374
f 338//375 344//375 339//375
f 344//376 345//376 339//376
f 339//377 345//377 340//377
f 345//378 346//378 340//378
f 340//379 346//379 341//379
f 346//380 347//380 341//380
f 341//381 347//381 342//381
f 347//382 348//382 342//382
f 342//383 348//383 182//383
f 348//384 181//384 182//384
f 90//385 145//385 343//385
f 145//386 144//386 343//386
f 343//387 144//387 344//387
f 144//388 143//388 344//388
f 344//389 143//389 345//389
f 143//390 142//390 345//390
f 345//391 142//391 346//391
f 142//392 141//392 346//392
f 346//393 141//393 347//393
f 141//394 140//394 347//394
f 347//395 140//395 348//395
f 140//396 139//396 348//396
f 348//397 139//397 181//397
f 139//398 10//398 181//398
f 152//399 180//399 10//399
f 151//400 349//400 152//400
f 150//401 350//401 151//401
f 149//402 352//402 150//402
f 148//403 355//403 149//403
f 147//404 359//404 148//404
f 146//405 364//405 147//405
f 152//406 349//406 180//406
f 349//407 179//407 180//407
f 151//408 350//408 349//408
f 350//409 351//409 349//409
f 349//410 351//410 179//410
f 351//411 178//411 179//411
f 150//412 352//412 350//412
f 352//413 353//413 350//413
f 350//414 353//414 351//414
f 353//415 354//415 351//415
f 351//416 354//416 178//416
f 354//417 177//417 178//417
f 149//418 355//418 352//418
f 355//419 356//419 352//419
f 352//420 356//420 353//420
f 356//421 357//421 353//421
f 353//422 357//422 354//422
f 357//423 358//423 354//423
f 354//424 358//424 177//424
f 358//425 176//425 177//425
f 148//426 359//426 355//426
f 359//427 360//427 355//427
f 355//428 360//428 356//428
f 360//429 361//429 356//429
f 356//430 361//430 357//430
f 361//431 362//431 357//431
f 357//432 362//432 358//432
f 362//433 363//433 358//433
f 358//434 363//434 176//434
f 363//435 175//435 176//435
f 147//436 364//436 359//436
f 364//437 365//437 359//437
f 359//438 365//438 360//438
f 365//439 366//439 360//439
f 360//440 366//440 361//440
f 366//441 367//441 361//441
f 361//442 367//442 362//442
f 367//443 368//443 362//443
f 362//444 368//444 363//444
f 368//445 369//445 363//445
f 363//446 369//446 175//446
f 369//447 174//447 175//447
f 146//448 131//448 364//448
f 131//449 130//449 364//449
f 364//450 130//450 365//450
f 130//451 129//451 365//451
f 365//452 129//452 366//452
f 129//453 128//453 366//453
f 366//454 128//454 367//454
f 128//455 127//455 367//455
f 367//456 127//456 368//456
f 127//457 126//457 368//457
f 368//458 126//458 369//458
f 126//459 125//459 369//459
f 369//460 125//460 174//460
f 125//461 9//461 174//461
f 138//462 173//462 9//462
f 137//463 370//463 138//463
f 136//464 371//464 137//464
f 135//465 373//465 136//465
f 134//466 376//466 135//466
f 133//467 380//467 134//467
f 132//468 385//468 133//468
f 138//469 370//469 173//469
f 370//470 172//470 173//470
f 137//471 371//471 370//471
f 371//472 372//472 370//472
f 370//473 372//473 172//473
f 372//474 171//474 172//474
f 136//475 373//475 371//475
f 373//476 374//476 371//476
f 371//477 374//477 372//477
f 374//478 375//478 372//478
f 372//479 375//479 171//479
f 375//480 170//480 171//480
f 135//481 376//481 373//481
f 376//482 377//482 373//482
f 373//483 377//483 374//483
f 377//484 378//484 374//484
f 374//485 378//485 375//485
f 378//486 379//486 375//486
f 375//487 379//487 170//487
f 379//488 169//488 170//488
f 134//489 380//489 376//489
f 380//490 381//490 376//490
f 376//491 381//491 377//491
f 381//492 382//492 377//492
f 377//493 382//493 378//493
f 382//494 383//494 378//494
f 378//495 383//495 379//495
f 383//496 384//496 379//496
f 379//497 384//497 169//497
f 384//498 168//498 169//498
f 133//499 385//499 380//499
f 385//500 386//500 380//500
f 380//501 386//501 381//501
f 386//502 387//502 381//502
f 381//503 387//503 382//503
f 387//504 388//504 382//504
f 382//505 388//505 383//505
f 388//506 389//506 383//506
f 383//507 389//507 384//507
f 389//508 390//508 384//508
f 384//509 390//509 168//509
f 390//510 167//510 168//510
f 132//511 117//511 385//511
f 117//512 116//512 385//512
f 385//513 116//513 386//513
f 116//514 115//514 386//514
f 386//515 115//515 387//515
f 115//516 114//516 387//516
f 387//517 114//517 388//517
f 114//518 113//518 388//518
f 388//519 113//519 389//519
f 113//520 112//520 389//520
f 389//521 112//521 390//521
f 112//522 111//522 390//522
f 390//523 111//523 167//523
f 111//524 8//524 167//524
f 124//525 166//525 8//525
f 123//526 391//526 124//526
f 122//527 392//527 123//527
f 121//528 394//528 122//528
f 120//529 397//529 121//529
f 119//530 401//530 120//530
f 118//531 406//531 119//531
f 124//532 391//532 166//532
f 391//533 165//533 166//533
f 123//534 392//534 391//534
f 392//535 393//535 391//535
f 391//536 393//536 165//536
f 393//537 164//537 165//537
f 122//538 394//538 392//538
f 394//539 395//539 392//539
f 392//540 395//540 393//540
f 395//541 396//541 393//541
f 393//542 396//542 164//542
f 396//543 163//543 164//543
f 121//544 397//544 394//544
f 397//545 398//545 394//545
f 394//546 398//546 395//546
f 398//547 399//547 395//547
f 395//548 399//548 396//548
f 399//549 400//549 396//549
f 396//550 400//550 163//550
f 400//551 162//551 163//551
f 120//552 401//552 397//552
f 401//553 402//553 397//553
f 397//554 402//554 398//554
f 402//555 403//555 398//555
f 398//556 403//556 399//556
f 403//557 404//557 399//557
f 399//558 404//558 400//558
f 404//559 405//559 400//559
f 400//560 405//560 162//560
f 405//561 161//561 162//561
f 119//562 406//562 401//562
f 406//563 407//563 401//563
f 401//564 407//564 402//564
f 407//565 408//565 402//565
f 402//566 408//566 403//566
f 408//567 409//567 403//567
f 403//568 409//568 404//568
f 409//569 410//569 404//569
f 404//570 410//570 405//570
f 410//571 411//571 405//571
f 405//572 411//572 161//572
f 411//573 160//573 161//573
f 118//574 103//574 406//574
f 103//575 102//575 406//575
f 406//576 102//576 407//576
f 102//577 101//577 407//577
f 407//578 101//578 408//578
f 101//579 100//579 408//579
f 408//580 100//580 409//580
f 100//581 99//581 409//581
f 409//582 99//582 410//582
f 99//583 98//583 410//583
f 410//584 98//584 411//584
f 98//585 97//585 411//585
f 411//586 97//586 160//586
f 97//587 7//587 160//587
f 110//588 159//588 7//588
f 109//589 412//589 110//589
f 108//590 413//590 109//590
f 107//591 415//591 108//591
f 106//592 418//592 107//592
f 105//593 422//593 106//593
f 104//594 427//594 105//594
f 110//595 412//595 159//595
f 412//596 158//596 159//596
f 109//597 413//597 412//597
f 413//598 414//598 412//598
f 412//599 414//599 158//599
f 414//600 157//600 158//600
f 108//601 415//601 413//601
f 415//602 416//602 413//602
f 413//603 416//603 414//603
f 416//604 417//604 414//604
f 414//605 417//605 157//605
f 417//606 156//606 157//606
f 107//607 418//607 415//607
f 418//608 419//608 415//608
f 415//609 419//609 416//609
f 419//610 420//610 416//610
f 416//611 420//611 417//611
f 420//612 421//612 417//612
f 417//613 421//613 156//613
f 421//614 155//614 156//614
f 106//615 422//615 418//615
f 422//616 423//616 418//616
f 418//617 423//617 419//617
f 423//618 424//618 419//618
f 419//619 424//619 420//619
f 424//620 425//620 420//620
f 420//621 425//621 421//621
f 425//622 426//622 421//622
f 421//623 426//623 155//623
f 426//624 154//624 155//624
f 105//625 427//625 422//625
f 427//626 428//626 422//626
f 422//627 428//627 423//627
f 428//628 429//628 423//628
f 423//629 429//629 424//629
f 429//630 430//630 424//630
f 424//631 430//631 425//631
f 430//632 431//632 425//632
f 425//633 431//633 426//633
f 431//634 432//634 426//634
f 426//635 432//635 154//635
f 432//636 153//636 154//636
f 104//637 89//637 427//637
f 89//638 88//638 427//638
f 427//639 88//639 428//639
f 88//640 87//640 428//640
f 428//641 87//641 429//641
f 87//642 86//642 429//642
f 429//643 86//643 430//643
f 86//644 85//644 430//644
f 430//645 85//645 431//645
f 85//646 84//646 431//646
f 431//647 84//647 432//647
f 84//648 83//648 432//648
f 432//649 83//649 153//649
f 83//650 11//650 153//650
f 139//651 152//651 10//651
f 140//652 433//652 139//652
f 141//653 434//653 140//653
f 142//654 436//654 141//654
f 143//655 439//655 142//655
f 144//656 443//656 143//656
f 145//657 448//657 144//657
f 139//658 433//658 152//658
f 433//659 151//659 152//659
f 140//660 434//660 433//660
f 434//661 435//661 433//661
f 433//662 435//662 151//662
f 435//663 150//663 151//663
f 141//664 436//664 434//664
f 436//665 437//665 434//665
f 434//666 437//666 435//666
f 437//667 438//667 435//667
f 435//668 438//668 150//668
f 438//669 149//669 150//669
f 142//670 439//670 436//670
f 439//671 440//671 436//671
f 436//672 440//672 437//672
f 440//673 441//673 437//673
f 437//674 441//674 438//674
f 441//675 442//675 438//675
f 438//676 442//676 149//676
f 442//677 148//677 149//677
f 143//678 443//678 439//678
f 443//679 444//679 439//679
f 439//680 444//680 440//680
f 444//681 445//681 440//681
f 440//682 445//682 441//682
f 445//683 446//683 441//683
f 441//684 446//684 442//684
f 446//685 447//685 442//685
f 442//686 447//686 148//686
f 447//687 147//687 148//687
f 144//688 448//688 443//688
f 448//689 449//689 443//689
f 443//690 449//690 444//690
f 449//691 450//691 444//691
f 444//692 450//692 445//692
f 450//693 451//693 445//693
f 445//694 451//694 446//694
f 451//695 452//695 446//695
f 446//696 452//696 447//696
f 452//697 453//697 447//697
f 447//698 453//698 147//698
f 453//699 146//699 147//699
f 145//700 82//700 448//700
f 82//701 81//701 448//701
f 448//702 81//702 449//702
f 81//703 80//703 449//703
f 449//704 80//704 450//704
f 80//705 79//705 450//705
f 450//706 79//706 451//706
f 79//707 78//707 451//707
f 451//708 78//708 452//708
f 78//709 77//709 452//709
f 452//710 77//710 453//710
f 77//711 76//711 453//711
f 453//712 76//712 146//712
f 76//713 5//713 146//713
f 125//714 138//714 9//714
f 126//715 454//715 125//715
f 127//716 455//716 126//716
f 128//717 457//717 127//717
f 129//718 460//718 128//718
f 130//719 464//719 129//719
f 131//720 469//720 130//720
f 125//721 454//721 138//721
f 454//722 137//722 138//722
f 126//723 455//723 454//723
f 455//724 456//724 454//724
f 454//725 456//725 137//725
f 456//726 136//726 137//726
f 127//727 457//727 455//727
f 457//728 458//728 455//728
f 455//729 458//729 456//729
f 458//730 459//730 456//730
f 456//731 459//731 136//731
f 459//732 135//732 136//732
f 128//733 460//733 457//733
f 460//734 461//734 457//734
f 457//735 461//735 458//735
f 461//736 462//736 458//736
f 458//737 462//737 459//737
f 462//738 463//738 459//738
f 459//739 463//739 135//739
f 463//740 134//740 135//740
f 129//741 464//741 460//741
f 464//742 465//742 460//742
f 460//743 465//743 461//743
f 465//744 466//744 461//744
f 461//745 466//745 462//745
f 466//746 467//746 462//746
f 462//747 467//747 463//747
f 467//748 468//748 463//748
f 463//749 468//749 134//749
f 468//750 133//750 134//750
f 130//751 469//751 464//751
f 469//752 470//752 464//752
f 464//753 470//753 465//753
f 470//754 471//754 465//754
f 465//755 471//755 466//755
f 471//756 472//756 466//756
f 466//757 472//757 467//757
f 472//758 473//758 467//758
f 467//759 473//759 468//759
f 473//760 474//760 468//760
f 468//761 474//761 133//761
f 474//762 132//762 133//762
f 131//763 75//763 469//763
f 75//764 74//764 469//764
f 469//765 74//765 470//765
f 74//766 73//766 470//766
f 470//767 73//767 471//767
f 73//768 72//768 471//768
f 471//769 72//769 472//769
f 72//770 71//770 472//770
f 472//771 71//771 473//771
f 71//772 70//772 473//772
f 473//773 70//773 474//773
f 70//774 69//774 474//774
f 474//775 69//775 132//775
f 69//776 4//776 132//776
f 111//777 124//777 8//777
f 112//778 475//778 111//778
f 113//779 476//779 112//779
f 114//780 478//780 113//780
f 115//781 481//781 114//781
f 116//782 485//782 115//782
f 117//783 490//783 116//783
f 111//784 475//784 124//784
f 475//785 123//785 124//785
f 112//786 476//786 475//786
f 476//787 477//787 475//787
f 475//788 477//788 123//788
f 477//789 122//789 123//789
f 113//790 478//790 476//790
f 478//791 479//791 476//791
f 476//792 479//792 477//792
f 479//793 480//793 477//793
f 477//794 480//794 122//794
f 480//795 121//795 122//795
f 114//796 481//796 478//796
f 481//797 482//797 478//797
f 478//798 482//798 479//798
f 482//799 483//799 479//799
f 479//800 483//800 480//800
f 483//801 484//801 480//801
f 480//802 484//802 121//802
f 484//803 120//803 121//803
f 115//804 485//804 481//804
f 485//805 486//805 481//805
f 481//806 486//806 482//806
f 486//807 487//807 482//807
f 482//808 487//808 483//808
f 487//809 488//809 483//809
f 483//810 488//810 484//810
f 488//811 489//811 484//811
f 484//812 489//812 120//812
f 489//813 119//813 120//813
f 116//814 490//814 485//814
f 490//815 491//815 485//815
f 485//816 491//816 486//816
f 491//817 492//817 486//817
f 486//818 492//818 487//818
f 492//819 493//819 487//819
f 487//820 493//820 488//820
f 493//821 494//821 488//821
f 488//822 494//822 489//822
f 494//823 495//823 489//823
f 489//824 495//824 119//824
f 495//825 118//825 119//825
f 117//826 61//826 490//826
f 61//827 60//827 490//827
f 490//828 60//828 491//828
f 60//829 59//829 491//829
f 491//830 59//830 492//830
f 59//831 58//831 492//831
f 492//832 58//832 493//832
f 58//833 57//833 493//833
f 493//834 57//834 494//834
f 57//835 56//835 494//835
f 494//836 56//836 495//836
f 56//837 55//837 495//837
f 495//838 55//838 118//838
f 55//839 3//839 118//839
f 97//840 110//840 7//840
f 98//841 496//841 97//841
f 99//842 497//842 98//842
f 100//843 499//843 99//843
f 101//844 502//844 100//844
f 102//845 506//845 101//845
f 103//846 511//846 102//846
f 97//847 496//847 110//847
f 496//848 109//848 110//848
f 98//849 497//849 496//849
f 497//850 498//850 496//850
f 496//851 498//851 109//851
f 498//852 108//852 109//852
f 99//853 499//853 497//853
f 499//854 500//854 497//854
f 497//855 500//855 498//855
f 500//856 501//856 498//856
f 498//857 501//857 108//857
f 501//858 107//858 108//858
f 100//859 502//859 499//859
f 502//860 503//860 499//860
f 499//861 503//861 500//861
f 503//862 504//862 500//862
f 500//863 504//863 501//863
f 504//864 505//864 501//864
f 501//865 505//865 107//865
f 505//866 106//866 107//866
f 101//867 506//867 502//867
f 506//868 507//868 502//868
f 502//869 507//869 503//869
f 507//870 508//870 503//870
f 503//871 508//871 504//871
f 508//872 509//872 504//872
f 504//873 509//873 505//873
f 509//874 510//874 505//874
f 505//875 510//875 106//875
f 510//876 105//876 106//876
f 102//877 511//877 506//877
f 511//878 512//878 506//878
f 506//879 512//879 507//879
f 512//880 513//880 507//880
f 507//881 513//881 508//881
f 513//882 514//882 508//882
f 508//883 514//883 509//883
f 514//884 515//884 509//884
f 509//885 515//885 510//885
f 515//886 516//886 510//886
f 510//887 516//887 105//887
f 516//888 104//888 105//888
f 103//889 33//889 511//889
f 33//890 32//890 511//890
f 511//891 32//891 512//891
f 32//892 31//892 512//892
f 512//893 31//893 513//893
f 31//894 30//894 513//894
f 513//895 30//895 514//895
f 30//896 29//896 514//896
f 514//897 29//897 515//897
f 29//898 28//898 515//898
f 515//899 28//899 516//899
f 28//900 27//900 516//900
f 516//901 27//901 104//901
f 27//902 2//902 104//902
f 83//903 96//903 11//903
f 84//904 517//904 83//904
f 85//905 518//905 84//905
f 86//906 520//906 85//906
f 87//907 523//907 86//907
f 88//908 527//908 87//908
f 89//909 532//909 88//909
f 83//910 517//910 96//910
f 517//911 95//911 96//911
f 84//912 518//912 517//912
f 518//913 519//913 517//913
f 517//914 519//914 95//914
f 519//915 94//915 95//915
f 85//916 520//916 518//916
f 520//917 521//917 518//917
f 518//918 521//918 519//918
f 521//919 522//919 519//919
f 519//920 522//920 94//920
f 522//921 93//921 94//921
f 86//922 523//922 520//922
f 523//923 524//923 520//923
f 520//924 524//924 521//924
f 524//925 525//925 521//925
f 521//926 525//926 522//926
f 525//927 526//927 522//927
f 522//928 526//928 93//928
f 526//929 92//929 93//929
f 87//930 527//930 523//930
f 527//931 528//931 523//931
f 523//932 528//932 524//932
f 528//933 529//933 524//933
f 524//934 529//934 525//934
f 529//935 530//935 525//935
f 525//936 530//936 526//936
f 530//937 531//937 526//937
f 526//938 531//938 92//938
f 531//939 91//939 92//939
f 88//940 532//940 527//940
f 532//941 533//941 527//941
f 527//942 533//942 528//942
f 533//943 534//943 528//943
f 528//944 534//944 529//944
f 534//945 535//945 529//945
f 529//946 535//946 530//946
f 535//947 536//947 530//947
f 530//948 536//948 531//948
f 536//949 537//949 531//949
f 531//950 537//950 91//950
f 537//951 90//951 91//951
f 89//952 40//952 532//952
f 40//953 39//953 532//953
f 532//954 39//954 533//954
f 39//955 38//955 533//955
f 533//956 38//956 534//956
f 38//957 37//957 534//957
f 534//958 37//958 535//958
f 37//959 36//959 535//959
f 535//960 36//960 536//960
f 36//961 35//961 536//961
f 536//962 35//962 537//962
f 35//963 34//963 537//963
f 537//964 34//964 90//964
f 34//965 6//965 90//965
f 47//966 82//966 6//966
f 46//967 538//967 47//967
f 45//968 539//968 46//968
f 44//969 541//969 45//969
f 43//970 544//970 44//970
f 42//971 548//971 43//971
f 41//972 553//972 42//972
f 47//973 538//973 82//973
f 538//974 81//974 82//974
f 46//975 539//975 538//975
f 539//976 540//976 538//976
f 538//977 540//977 81//977
f 540//978 80//978 81//978
f 45//979 541//979 539//979
f 541//980 542//980 539//980
f 539//981 542//981 540//981
f 542//982 543//982 540//982
f 540//983 543//983 80//983
f 543//984 79//984 80//984
f 44//985 544//985 541//985
f 544//986 545//986 541//986
f 541//987 545//987 542//987
f 545//988 546//988 542//988
f 542//989 546//989 543//989
f 546//990 547//990 543//990
f 543//991 547//991 79//991
f 547//992 78//992 79//992
f 43//993 548//993 544//993
f 548//994 549//994 544//994
f 544//995 549//995 545//995
f 549//996 550//996 545//996
f 545//997 550//997 546//997
f 550//998 551//998 546//998
f 546//999 551//999 547//999
f 551//1000 552//1000 547//1000
f 547//1001 552//1001 78//1001
f 552//1002 77//1002 78//1002
f 42//1003 553//1003 548//1003
f 553//1004 554//1004 548//1004
f 548//1005 554//1005 549//1005
f 554//1006 555//1006 549//1006
f 549//1007 555//1007 550//1007
f 555//1008 556//1008 550//1008
f 550//1009 556//1009 551//1009
f 556//1010 557//1010 551//1010
f 551//1011 557//1011 552//1011
f 557//1012 558//1012 552//1012
f 552//1013 558//1013 77//1013
f 558//1014 76//1014 77//1014
f 41//1015 68//1015 553//1015
f 68//1016 67//1016 553//1016
f 553//1017 67//1017 554//1017
f 67//1018 66//1018 554//1018
f 554//1019 66//1019 555//1019
f 66//1020 65//1020 555//1020
f 555//1021 65//1021 556//1021
f 65//1022 64//1022 556//1022
f 556//1023 64//1023 557//1023
f 64//1024 63//1024 557//1024
f 557//1025 63//1025 558//1025
f 63//1026 62//1026 558//1026
f 558//1027 62//1027 76//1027
f 62//1028 5//1028 76//1028
f 62//1029 75//1029 5//1029
f 63//1030 559//1030 62//1030
f 64//1031 560//1031 63//1031
f 65//1032 562//1032 64//1032
f 66//1033 565//1033 65//1033
f 67//1034 569//1034 66//1034
f 68//1035 574//1035 67//1035
f 62//1036 559//1036 75//1036
f 559//1037 74//1037 75//1037
f 63//1038 560//1038 559//1038
f 560//1039 561//1039 559//1039
f 559//1040 561//1040 74//1040
f 561//1041 73//1041 74//1041
f 64//1042 562//1042 560//1042
f 562//1043 563//1043 560//1043
f 560//1044 563//1044 561//1044
f 563//1045 564//1045 561//1045
f 561//1046 564//1046 73//1046
f 564//1047 72//1047 73//1047
f 65//1048 565//1048 562//1048
f 565//1049 566//1049 562//1049
f 562//1050 566//1050 563//1050
f 566//1051 567//1051 563//1051
f 563//1052 567//1052 564//1052
f 567//1053 568//1053 564//1053
f 564//1054 568//1054 72//1054
f 568//1055 71//1055 72//1055
f 66//1056 569//1056 565//1056
f 569//1057 570//1057 565//1057
f 565//1058 570//1058 566//1058
f 570//1059 571//1059 566//1059
f 566//1060 571//1060 567//1060
f 571//1061 572//1061 567//1061
f 567//1062 572//1062 568//1062
f 572//1063 573//1063 568//1063
f 568//1064 573//1064 71//1064
f 573//1065 70//1065 71//1065
f 67//1066 574//1066 569//1066
f 574//1067 575//1067 569//1067
f 569//1068 575//1068 570//1068
f 575//1069 576//1069 570//1069
f 570//1070 576//1070 571//1070
f 576//1071 577//1071 571//1071
f 571//1072 577//1072 572//1072
f 577//1073 578//1073 572//1073
f 572//1074 578//1074 573//1074
f 578//1075 579//1075 573//1075
f 573//1076 579//1076 70//1076
f 579//1077 69//1077 70//1077
f 68//1078 54//1078 574//1078
f 54//1079 53//1079 574//1079
f 574//1080 53//1080 575//1080
f 53//1081 52//1081 575//1081
f 575//1082 52//1082 576//1082
f 52//1083 51//1083 576//1083
f 576//1084 51//1084 577//1084
f 51//1085 50//1085 577//1085
f 577//1086 50//1086 578//1086
f 50//1087 49//1087 578//1087
f 578//1088 49//1088 579//1088
f 49//1089 48//1089 579//1089
f 579//1090 48//1090 69//1090
f 48//1091 4//1091 69//1091
f 48//1092 61//1092 4//1092
f 49//1093 580//1093 48//1093
f 50//1094 581//1094 49//1094
f 51//1095 583//1095 50//1095
f 52//1096 586//1096 51//1096
f 53//1097 590//1097 52//1097
f 54//1098 595//1098 53//1098
f 48//1099 580//1099 61//1099
f 580//1100 60//1100 61//1100
f 49//1101 581//1101 580//1101
f 581//1102 582//1102 580//1102
f 580//1103 582//1103 60//1103
f 582//1104 59//1104 60//1104
f 50//1105 583//1105 581//1105
f 583//1106 584//1106 581//1106
f 581//1107 584//1107 582//1107
f 584//1108 585//1108 582//1108
f 582//1109 585//1109 59//1109
f 585//1110 58//1110 59//1110
f 51//1111 586//1111 583//1111
f 586//1112 587//1112 583//1112
f 583//1113 587//1113 584//1113
f 587//1114 588//1114 584//1114
f 584//1115 588//1115 585//1115
f 588//1116 589//1116 585//1116
f 585//1117 589//1117 58//1117
f 589//1118 57//1118 58//1118
f 52//1119 590//1119 586//1119
f 590//1120 591//1120 586//1120
f 586//1121 591//1121 587//1121
f 591//1122 592//1122 587//1122
f 587//1123 592//1123 588//1123
f 592//1124 593//1124 588//1124
f 588//1125 593//1125 589//1125
f 593//1126 594//1126 589//1126
f 589//1127 594//1127 57//1127
f 594//1128 56//1128 57//1128
f 53//1129 595//1129 590//1129
f 595//1130 596//1130 590//1130
f 590//1131 596//1131 591//1131
f 596//1132 597//1132 591//1132
f 591//1133 597//1133 592//1133
f 597//1134 598//1134 592//1134
f 592//1135 598//1135 593//1135
f 598//1136 599//1136 593//1136
f 593//1137 599//1137 594//1137
f 599//1138 600//1138 594//1138
f 594//1139 600//1139 56//1139
f 600//1140 55//1140 56//1140
f 54//1141 19//1141 595//1141
f 19//1142 18//1142 595//1142
f 595//1143 18//1143 596//1143
f 18//1144 17//1144 596//1144
f 596//1145 17//1145 597//1145
f 17//1146 16//1146 597//1146
f 597//1147 16//1147 598//1147
f 16//1148 15//1148 598//1148
f 598//1149 15//1149 599//1149
f 15//1150 14//1150 599//1150
f 599//1151 14//1151 600//1151
f 14//1152 13//1152 600//1152
f 600//1153 13//1153 55//1153
f 13//1154 3//1154 55//1154
f 34//1155 47//1155 6//1155
f 35//1156 601//1156 34//1156
f 36//1157 602//1157 35//1157
f 37//1158 604//1158 36//1158
f 38//1159 607//1159 37//1159
f 39//1160 611//1160 38//1160
f 40//1161 616//1161 39//1161
f 34//1162 601//1162 47//1162
f 601//1163 46//1163 47//1163
f 35//1164 602//1164 601//1164
f 602//1165 603//1165 601//1165
f 601//1166 603//1166 46//1166
f 603//1167 45//1167 46//1167
f 36//1168 604//1168 602//1168
f 604//1169 605//1169 602//1169
f 602//1170 605//1170 603//1170
f 605//1171 606//1171 603//1171
f 603//1172 606//1172 45//1172
f 606//1173 44//1173 45//1173
f 37//1174 607//1174 604//1174
f 607//1175 608//1175 604//1175
f 604//1176 608//1176 605//1176
f 608//1177 609//1177 605//1177
f 605//1178 609//1178 606//1178
f 609//1179 610//1179 606//1179
f 606//1180 610//1180 44//1180
f 610//1181 43//1181 44//1181
f 38//1182 611//1182 607//1182
f 611//1183 612//1183 607//1183
f 607//1184 612//1184 608//1184
f 612//1185 613//1185 608//1185
f 608//1186 613//1186 609//1186
f 613//1187 614//1187 609//1187
f 609//1188 614//1188 610//1188
f 614//1189 615//1189 610//1189
f 610//1190 615//1190 43//1190
f 615//1191 42//1191 43//1191
f 39//1192 616//1192 611//1192
f 616//1193 617//1193 611//1193
f 611//1194 617//1194 612//1194
f 617//1195 618//1195 612//1195
f 612//1196 618//1196 613//1196
f 618//1197 619//1197 613//1197
f 613//1198 619//1198 614//1198
f 619//1199 620//1199 614//1199
f 614//1200 620//1200 615//1200
f 620//1201 621//1201 615//1201
f 615//1202 621//1202 42//1202
f 621//1203 41//1203 42//1203
f 40//1204 26//1204 616//1204
f 26//1205 25//1205 616//1205
f 616//1206 25//1206 617//1206
f 25//1207 24//1207 617//1207
f 617//1208 24//1208 618//1208
f 24//1209 23//1209 618//1209
f 618//1210 23//1210 619//1210
f 23//1211 22//1211 619//1211
f 619//1212 22//1212 620//1212
f 22//1213 21//1213 620//1213
f 620//1214 21//1214 621//1214
f 21//1215 20//1215 621//1215
f 621//1216 20//1216 41//1216
f 20//1217 1//1217 41//1217
f 13//1218 33//1218 3//1218
f 14//1219 622//1219 13//1219
f 15//1220 623//1220 14//1220
f 16//1221 625//1221 15//1221
f 17//1222 628//1222 16//1222
f 18//1223 632//1223 17//1223
f 19//1224 637//1224 18//1224
f 13//1225 622//1225 33//1225
f 622//1226 32//1226 33//1226
f 14//1227 623//1227 622//1227
f 623//1228 624//1228 622//1228
f 622//1229 624//1229 32//1229
f 624//1230 31//1230 32//1230
f 15//1231 625//1231 623//1231
f 625//1232 626//1232 623//1232
f 623//1233 626//1233 624//1233
f 626//1234 627//1234 624//1234
f 624//1235 627//1235 31//1235
f 627//1236 30//1236 31//1236
f 16//1237 628//1237 625//1237
f 628//1238 629//1238 625//1238
f 625//1239 629//1239 626//1239
f 629//1240 630//1240 626//1240
f 626//1241 630//1241 627//1241
f 630//1242 631//1242 627//1242
f 627//1243 631//1243 30//1243
f 631//1244 29//1244 30//1244
f 17//1245 632//1245 628//1245
f 632//1246 633//1246 628//1246
f 628//1247 633//1247 629//1247
f 633//1248 634//1248 629//1248
f 629//1249 634//1249 630//1249
f 634//1250 635//1250 630//1250
f 630//1251 635//1251 631//1251
f 635//1252 636//1252 631//1252
f 631//1253 636//1253 29//1253
f 636//1254 28//1254 29//1254
f 18//1255 637//1255 632//1255
f 637//1256 638//1256 632//1256
f 632//1257 638//1257 633//1257
f 638//1258 639//1258 633//1258
f 633//1259 639//1259 634//1259
f 639//1260 640//1260 634//1260
f 634//1261 640//1261 635//1261
f 640//1262 641//1262 635//1262
f 635//1263 641//1263 636//1263
f 641//1264 642//1264 636//1264
f 636//1265 642//1265 28//1265
f 642//1266 27//1266 28//1266
f 19//1267 20//1267 637//1267
f 20//1268 21//1268 637//1268
f 637//1269 21//1269 638//1269
f 21//1270 22//1270 638//1270
f 638//1271 22//1271 639//1271
f 22//1272 23//1272 639//1272
f 639//1273 23//1273 640//1273
f 23//1274 24//1274 640//1274
f 640//1275 24//1275 641//1275
f 24//1276 25//1276 641//1276
f 641//1277 25//1277 642//1277
f 25//1278 26//1278 642//1278
f 642//1279 26//1279 27//1279
f 26//1280 2//1280 27//1280
