# Blender 4.0.2
# www.blender.org
o rock_45
v -0.016013 -0.189524 0.012988
v 0.277260 -0.098975 0.253523
v -0.086709 -0.140505 0.397890
v -0.368782 -0.141643 0.018161
v -0.115967 -0.098797 -0.423936
v 0.266358 -0.084901 -0.241862
v 0.102593 0.045258 0.375269
v -0.289311 0.116121 0.225288
v -0.286447 0.127853 -0.276731
v 0.099321 0.087352 -0.391993
v 0.322524 0.073175 -0.001470
v -0.003081 0.154504 -0.008281
v -0.070258 -0.156139 0.363467
v -0.057357 -0.173071 0.322273
v -0.052987 -0.186552 0.272463
v -0.044496 -0.187659 0.218736
v -0.048634 -0.184906 0.175585
v -0.055350 -0.174551 0.120102
v -0.039541 -0.173686 0.067341
v 0.023174 -0.170943 0.039810
v 0.065385 -0.161592 0.071176
v 0.106484 -0.154994 0.108348
v 0.146907 -0.152518 0.147722
v 0.187773 -0.145628 0.183633
v 0.225594 -0.136415 0.212378
v 0.255678 -0.120356 0.236213
v 0.235024 -0.108063 0.302521
v 0.186623 -0.092697 0.340246
v 0.146088 -0.079117 0.361501
v 0.098724 -0.076844 0.372402
v 0.051727 -0.083063 0.382779
v 0.005174 -0.097030 0.388179
v -0.039549 -0.119226 0.391519
v 0.271644 -0.074875 -0.188528
v 0.285260 -0.072885 -0.130009
v 0.300140 -0.076150 -0.068155
v 0.306085 -0.084339 -0.000449
v 0.303636 -0.089993 0.069046
v 0.294497 -0.087729 0.136281
v 0.288731 -0.093139 0.196170
v 0.026360 -0.184455 -0.027657
v 0.070697 -0.172644 -0.067305
v 0.112554 -0.150902 -0.103406
v 0.151909 -0.139323 -0.139570
v 0.189666 -0.131882 -0.173465
v 0.222963 -0.122242 -0.202835
v 0.248472 -0.104820 -0.225509
v -0.344406 -0.174160 0.019908
v -0.290411 -0.205174 0.021362
v -0.221000 -0.213717 0.023791
v -0.178333 -0.206621 0.031859
v -0.145988 -0.202682 0.035452
v -0.110401 -0.190672 0.027988
v -0.072023 -0.188485 0.018576
v -0.126114 -0.167877 0.384039
v -0.179244 -0.194363 0.359899
v -0.256375 -0.208647 0.294724
v -0.305646 -0.188746 0.201924
v -0.301525 -0.174309 0.158511
v -0.318797 -0.157631 0.119326
v -0.346701 -0.144110 0.068031
v -0.102011 -0.128736 -0.400777
v -0.089540 -0.163244 -0.370122
v -0.081557 -0.208545 -0.311044
v -0.063428 -0.225028 -0.225533
v -0.042571 -0.211591 -0.152458
v -0.040897 -0.198710 -0.105981
v -0.033827 -0.199562 -0.049705
v -0.371365 -0.175242 -0.040791
v -0.360243 -0.194305 -0.119604
v -0.328399 -0.175866 -0.206813
v -0.290610 -0.133191 -0.265120
v -0.256675 -0.104789 -0.305971
v -0.212810 -0.104798 -0.358024
v -0.156960 -0.102814 -0.402594
v -0.080456 -0.117036 -0.422120
v -0.032388 -0.134531 -0.422756
v 0.035880 -0.145209 -0.418018
v 0.106758 -0.152246 -0.398963
v 0.166917 -0.145653 -0.365572
v 0.210916 -0.121752 -0.327640
v 0.244440 -0.102857 -0.286817
v 0.344151 0.068351 0.031671
v 0.364423 0.055988 0.070327
v 0.361533 0.027302 0.110416
v 0.345229 0.001944 0.145305
v 0.334497 -0.019853 0.177969
v 0.321194 -0.045674 0.207090
v 0.302156 -0.073162 0.231742
v 0.283674 -0.060004 -0.221614
v 0.297665 -0.035557 -0.196484
v 0.309743 -0.016203 -0.164445
v 0.327507 -0.000881 -0.129774
v 0.345685 0.021797 -0.097792
v 0.348724 0.045687 -0.065931
v 0.338125 0.062340 -0.032965
v 0.085108 0.040748 0.390417
v 0.065464 0.034680 0.414991
v 0.042542 0.020082 0.445856
v 0.014143 -0.006505 0.468259
v -0.016933 -0.043108 0.471953
v -0.046060 -0.080501 0.456638
v -0.070016 -0.113470 0.428066
v 0.273854 -0.081622 0.299189
v 0.256052 -0.049876 0.341093
v 0.223676 -0.014022 0.363146
v 0.192124 0.032674 0.362160
v 0.154248 0.049626 0.347726
v 0.141095 0.042712 0.367761
v 0.124608 0.039340 0.376512
v -0.321726 0.101347 0.214455
v -0.354926 0.075826 0.207236
v -0.380741 0.041430 0.188034
v -0.392651 0.007146 0.159614
v -0.398063 -0.035000 0.123819
v -0.389820 -0.077878 0.079726
v -0.373746 -0.111204 0.044579
v -0.130498 -0.136701 0.425079
v -0.179294 -0.117728 0.452189
v -0.235157 -0.075557 0.471410
v -0.287475 -0.002935 0.456921
v -0.303673 0.063576 0.395184
v -0.295859 0.091657 0.324883
v -0.292223 0.104796 0.267261
v -0.280686 0.099155 -0.306606
v -0.275167 0.053110 -0.340798
v -0.249430 -0.001969 -0.366986
v -0.218542 -0.021996 -0.377525
v -0.201665 -0.010466 -0.395501
v -0.180275 -0.025818 -0.417387
v -0.148410 -0.064440 -0.428590
v -0.393928 -0.127097 -0.016255
v -0.422303 -0.105700 -0.064872
v -0.444479 -0.069081 -0.125296
v -0.448787 -0.016034 -0.189100
v -0.421697 0.043587 -0.238907
v -0.377176 0.090547 -0.258834
v -0.335120 0.112404 -0.269076
v 0.131040 0.078853 -0.403716
v 0.168251 0.065745 -0.413154
v 0.209929 0.039063 -0.415237
v 0.243704 0.000187 -0.397071
v 0.256054 -0.032275 -0.359002
v 0.260282 -0.052508 -0.320044
v 0.266030 -0.070825 -0.281862
v -0.103140 -0.078612 -0.446822
v -0.083506 -0.051553 -0.472793
v -0.054631 -0.021111 -0.490067
v -0.016132 0.007611 -0.495682
v 0.023925 0.039129 -0.480867
v 0.054953 0.062881 -0.453218
v 0.079356 0.078027 -0.423140
v 0.314656 0.079770 0.049885
v 0.294472 0.077846 0.106250
v 0.264605 0.067429 0.164929
v 0.229235 0.058593 0.220601
v 0.199128 0.065339 0.273390
v 0.169016 0.060567 0.324685
v 0.135042 0.049539 0.357546
v 0.064014 0.053944 0.377711
v 0.016273 0.066669 0.378141
v -0.035332 0.082878 0.376593
v -0.091197 0.101967 0.367757
v -0.146075 0.116146 0.346455
v -0.198799 0.123939 0.313128
v -0.249833 0.122561 0.269006
v -0.294919 0.117366 0.183887
v -0.295177 0.110675 0.137748
v -0.297495 0.102073 0.077920
v -0.304799 0.108726 0.009941
v -0.315173 0.139076 -0.066680
v -0.314722 0.155188 -0.156206
v -0.312327 0.146470 -0.226485
v -0.237036 0.119857 -0.293517
v -0.202572 0.108104 -0.315137
v -0.153517 0.103475 -0.350884
v -0.098786 0.094458 -0.375802
v -0.047851 0.091677 -0.389333
v 0.005967 0.089251 -0.394305
v 0.054773 0.088841 -0.395198
v 0.136263 0.087890 -0.365266
v 0.175645 0.089968 -0.328206
v 0.216904 0.098964 -0.280994
v 0.246807 0.095065 -0.228796
v 0.262259 0.071665 -0.166099
v 0.289736 0.070152 -0.102274
v 0.312070 0.074996 -0.051402
v 0.007988 0.157206 0.050011
v 0.022654 0.141900 0.109891
v 0.040178 0.125052 0.165601
v 0.057494 0.115219 0.219353
v 0.072930 0.109374 0.275217
v 0.085674 0.087682 0.323746
v 0.095602 0.061690 0.356655
v 0.297776 0.082723 -0.002208
v 0.266270 0.089726 -0.002598
v 0.226959 0.096377 -0.002731
v 0.181678 0.102992 -0.001762
v 0.134485 0.117526 -0.000443
v 0.085282 0.132708 -0.000001
v 0.036088 0.142469 -0.003367
v -0.040739 0.167707 0.028912
v -0.082907 0.163575 0.073953
v -0.121155 0.152572 0.114897
v -0.143709 0.149759 0.136896
v -0.180579 0.147393 0.154217
v -0.226040 0.139563 0.180439
v -0.260563 0.129421 0.206729
v -0.036111 0.162142 -0.036360
v -0.072814 0.174123 -0.058261
v -0.103731 0.191889 -0.088564
v -0.150281 0.198401 -0.142621
v -0.196285 0.181307 -0.194815
v -0.226375 0.164218 -0.230432
v -0.256332 0.148362 -0.256173
v 0.005243 0.147754 -0.048448
v 0.015443 0.167103 -0.096006
v 0.033194 0.179030 -0.162029
v 0.053271 0.167296 -0.228348
v 0.069576 0.142330 -0.285123
v 0.081423 0.114552 -0.329000
v 0.090970 0.096989 -0.363570
v 0.049920 0.141793 -0.050924
v 0.105882 0.135629 -0.055510
v 0.070024 0.160238 -0.108925
v 0.158587 0.120330 -0.059489
v 0.127178 0.141060 -0.117296
v 0.091444 0.164218 -0.174885
v 0.207755 0.111002 -0.061803
v 0.182172 0.128909 -0.121468
v 0.147258 0.141811 -0.181151
v 0.108720 0.148195 -0.236799
v 0.248553 0.096153 -0.059422
v 0.225769 0.111068 -0.120050
v 0.198775 0.122951 -0.182315
v 0.163531 0.133935 -0.240721
v 0.122604 0.129494 -0.290836
v 0.284806 0.085205 -0.054937
v 0.259162 0.087120 -0.112493
v 0.235452 0.098172 -0.177343
v 0.213095 0.119093 -0.238396
v 0.172996 0.114875 -0.289533
v 0.130427 0.103675 -0.332380
v -0.028452 0.167870 -0.076388
v -0.020614 0.183837 -0.138499
v -0.064081 0.186423 -0.115078
v -0.004856 0.175973 -0.211493
v -0.057997 0.182205 -0.187686
v -0.104470 0.190116 -0.167389
v 0.014820 0.148641 -0.276600
v -0.042313 0.156931 -0.258968
v -0.102635 0.167700 -0.237313
v -0.154603 0.170774 -0.220524
v 0.031307 0.116646 -0.325607
v -0.023456 0.126657 -0.317169
v -0.083232 0.133947 -0.299514
v -0.145404 0.140239 -0.273560
v -0.187052 0.147544 -0.254256
v 0.043843 0.098607 -0.363454
v -0.007096 0.103503 -0.360596
v -0.063565 0.107752 -0.349608
v -0.119336 0.116785 -0.327474
v -0.175129 0.122825 -0.294858
v -0.209641 0.134512 -0.274494
v -0.082470 0.168842 -0.005686
v -0.114596 0.169410 -0.027462
v -0.125582 0.165496 0.037144
v -0.150635 0.182364 -0.052784
v -0.155114 0.159814 0.007069
v -0.156510 0.154878 0.080011
v -0.205588 0.185908 -0.100941
v -0.198807 0.158145 -0.022501
v -0.196477 0.144856 0.043044
v -0.190099 0.145841 0.112228
v -0.245755 0.175869 -0.149917
v -0.240477 0.157641 -0.062305
v -0.234334 0.130771 0.008865
v -0.233568 0.127962 0.078455
v -0.229944 0.136184 0.137997
v -0.278645 0.164414 -0.191845
v -0.276522 0.160334 -0.108458
v -0.270525 0.132389 -0.026909
v -0.266788 0.112766 0.043988
v -0.264998 0.117946 0.110373
v -0.263618 0.127642 0.161173
v -0.030466 0.149814 0.094095
v -0.071889 0.145111 0.131973
v -0.015045 0.134613 0.147724
v -0.107908 0.142861 0.154633
v -0.054639 0.135001 0.179672
v 0.005907 0.125768 0.204348
v -0.134988 0.144218 0.177760
v -0.090821 0.136290 0.215414
v -0.033534 0.129334 0.249192
v 0.022426 0.116653 0.266259
v -0.180049 0.144256 0.219013
v -0.128006 0.138069 0.258859
v -0.072700 0.126903 0.291062
v -0.015302 0.108312 0.309904
v 0.036318 0.095794 0.319155
v -0.219751 0.134784 0.250600
v -0.166210 0.131358 0.292615
v -0.110830 0.120362 0.323227
v -0.052286 0.102212 0.341594
v 0.001277 0.081693 0.349348
v 0.050366 0.071204 0.355155
v 0.056253 0.144967 0.053570
v 0.073616 0.131366 0.114362
v 0.105792 0.127638 0.056181
v 0.090095 0.115022 0.173858
v 0.124363 0.120362 0.117477
v 0.156255 0.116595 0.057120
v 0.108264 0.107293 0.229458
v 0.139970 0.101567 0.178624
v 0.175570 0.112424 0.118422
v 0.203639 0.103767 0.056519
v 0.124112 0.095556 0.283490
v 0.155712 0.086606 0.232842
v 0.186500 0.088435 0.178336
v 0.221253 0.098426 0.115984
v 0.247005 0.094030 0.054522
v 0.132246 0.070803 0.328817
v 0.167023 0.077612 0.282238
v 0.193503 0.069181 0.229300
v 0.229307 0.079138 0.173368
v 0.261616 0.088351 0.111870
v 0.284278 0.087072 0.052149
v 0.321464 0.059290 -0.083550
v 0.318498 0.036152 -0.118022
v 0.289375 0.049633 -0.142380
v 0.306329 0.015748 -0.157799
v 0.289016 0.036370 -0.187850
v 0.270570 0.065852 -0.212565
v 0.303129 0.000904 -0.198861
v 0.295097 0.023572 -0.229919
v 0.276241 0.049963 -0.253517
v 0.249189 0.076474 -0.270491
v 0.300031 -0.021122 -0.232912
v 0.290541 0.000900 -0.265223
v 0.271170 0.025120 -0.293311
v 0.244112 0.049718 -0.314088
v 0.211496 0.072800 -0.325672
v 0.285530 -0.046177 -0.259926
v 0.276818 -0.024941 -0.296639
v 0.263797 -0.000768 -0.330347
v 0.244213 0.030005 -0.357780
v 0.210454 0.058917 -0.370918
v 0.171362 0.076679 -0.370818
v 0.028904 0.077698 -0.424497
v -0.004335 0.062515 -0.453262
v -0.027844 0.077768 -0.423283
v -0.044071 0.038145 -0.472398
v -0.063935 0.058609 -0.445156
v -0.081979 0.075427 -0.414235
v -0.075655 0.009614 -0.475225
v -0.095034 0.033382 -0.458439
v -0.116121 0.055200 -0.431636
v -0.135143 0.076803 -0.396891
v -0.103082 -0.017752 -0.468125
v -0.127389 0.002727 -0.455779
v -0.154348 0.018774 -0.435190
v -0.176156 0.045582 -0.407354
v -0.194431 0.079812 -0.366893
v -0.128520 -0.042831 -0.449607
v -0.156555 -0.013541 -0.437036
v -0.181081 -0.011337 -0.414515
v -0.204333 -0.003107 -0.396701
v -0.227438 0.043746 -0.373550
v -0.237414 0.088229 -0.330753
v -0.352057 0.132973 -0.214070
v -0.404009 0.100152 -0.188839
v -0.362643 0.133992 -0.124133
v -0.441618 0.043066 -0.136241
v -0.401513 0.087773 -0.076628
v -0.350309 0.104065 -0.028050
v -0.439628 -0.014043 -0.076622
v -0.409187 0.034469 -0.029437
v -0.369624 0.065297 0.010382
v -0.333274 0.086605 0.047030
v -0.417351 -0.055096 -0.024612
v -0.401774 -0.008697 0.011443
v -0.385872 0.031235 0.049233
v -0.360437 0.064747 0.087749
v -0.327323 0.091437 0.117203
v -0.392635 -0.083576 0.014077
v -0.395942 -0.043659 0.046324
v -0.396417 -0.002673 0.088421
v -0.381389 0.037318 0.128016
v -0.357293 0.072748 0.154535
v -0.327795 0.098604 0.174116
v -0.244172 0.115013 0.321693
v -0.243445 0.103763 0.386155
v -0.188435 0.114707 0.365465
v -0.235109 0.066213 0.454899
v -0.177253 0.095851 0.422936
v -0.131004 0.100851 0.392780
v -0.205746 -0.002240 0.493242
v -0.160657 0.055162 0.473482
v -0.113894 0.078791 0.438550
v -0.072032 0.084456 0.407318
v -0.163482 -0.063448 0.488128
v -0.133139 -0.001840 0.497978
v -0.090976 0.044580 0.479456
v -0.048951 0.064864 0.446490
v -0.013295 0.067564 0.410040
v -0.116232 -0.101504 0.461826
v -0.091580 -0.054435 0.491346
v -0.056088 -0.003277 0.496620
v -0.018523 0.032990 0.471604
v 0.014145 0.047785 0.436132
v 0.041710 0.051285 0.401623
v 0.158678 0.043052 0.357600
v 0.176824 0.045503 0.347770
v 0.192395 0.055141 0.320237
v 0.206422 0.040563 0.343323
v 0.225934 0.049673 0.312084
v 0.231540 0.055630 0.264450
v 0.251726 0.014563 0.339445
v 0.264853 0.034762 0.294050
v 0.262386 0.039927 0.247446
v 0.261726 0.045655 0.206621
v 0.287202 -0.015895 0.311081
v 0.290584 0.012408 0.267228
v 0.287079 0.023540 0.226187
v 0.290795 0.032844 0.187898
v 0.296804 0.055072 0.147839
v 0.301071 -0.048666 0.272497
v 0.311614 -0.015904 0.240091
v 0.314565 0.006185 0.204012
v 0.318382 0.020378 0.166772
v 0.328348 0.042991 0.129302
v 0.329682 0.069322 0.089037
v 0.112584 0.065783 -0.439634
v 0.152888 0.042995 -0.455331
v 0.089121 0.040766 -0.473044
v 0.195012 0.002575 -0.453199
v 0.126402 0.004795 -0.483837
v 0.058143 0.005400 -0.495769
v 0.226704 -0.043103 -0.423261
v 0.165245 -0.043928 -0.474153
v 0.092524 -0.038679 -0.495184
v 0.018350 -0.033845 -0.502022
v 0.240067 -0.071749 -0.375093
v 0.194478 -0.088783 -0.433162
v 0.125052 -0.087741 -0.471107
v 0.051494 -0.080728 -0.487053
v -0.025147 -0.070289 -0.489542
v 0.241575 -0.086257 -0.329141
v 0.209464 -0.112812 -0.378469
v 0.152005 -0.126110 -0.424388
v 0.081478 -0.123005 -0.451698
v 0.007439 -0.113436 -0.460130
v -0.061323 -0.098934 -0.457301
v -0.329566 0.069450 -0.305181
v -0.308402 0.013186 -0.330077
v -0.371308 0.034344 -0.294785
v -0.269393 -0.029324 -0.344157
v -0.334636 -0.018078 -0.315274
v -0.405543 -0.009030 -0.271848
v -0.240724 -0.023876 -0.362249
v -0.292770 -0.044249 -0.323372
v -0.363922 -0.049876 -0.294699
v -0.427974 -0.064266 -0.226574
v -0.221985 -0.025370 -0.377683
v -0.265739 -0.044549 -0.336776
v -0.314210 -0.075603 -0.301925
v -0.381741 -0.106747 -0.252493
v -0.424154 -0.120156 -0.161033
v -0.197231 -0.061956 -0.394546
v -0.241827 -0.062689 -0.346290
v -0.282074 -0.085917 -0.303719
v -0.325271 -0.126764 -0.264114
v -0.379449 -0.160210 -0.188131
v -0.399479 -0.158837 -0.094494
v -0.334568 0.081656 0.247915
v -0.368267 0.048019 0.234617
v -0.343334 0.052150 0.300242
v -0.387605 0.005882 0.219518
v -0.374289 0.002554 0.262597
v -0.347634 -0.001569 0.367171
v -0.395600 -0.030795 0.188846
v -0.383302 -0.041381 0.235993
v -0.362860 -0.061683 0.308113
v -0.310881 -0.080464 0.411608
v -0.386635 -0.083931 0.147896
v -0.382729 -0.083275 0.207521
v -0.368474 -0.098340 0.253105
v -0.317397 -0.131623 0.344941
v -0.242933 -0.135910 0.419243
v -0.361072 -0.124391 0.102433
v -0.352433 -0.136054 0.161106
v -0.352556 -0.140695 0.206107
v -0.325326 -0.161694 0.277952
v -0.249446 -0.174905 0.361824
v -0.179728 -0.159098 0.406500
v 0.105562 0.036962 0.389528
v 0.087466 0.026490 0.414720
v 0.116245 0.043963 0.371465
v 0.066082 -0.007659 0.437288
v 0.113929 0.014968 0.412907
v 0.139276 0.046905 0.363769
v 0.037007 -0.034742 0.438090
v 0.084232 -0.029083 0.419319
v 0.139210 -0.006955 0.404140
v 0.181010 -0.005418 0.382939
v 0.010001 -0.058155 0.431695
v 0.055758 -0.045750 0.411470
v 0.106355 -0.043725 0.399117
v 0.153644 -0.043151 0.378199
v 0.194284 -0.045387 0.363502
v -0.015941 -0.088459 0.417111
v 0.031754 -0.066279 0.405718
v 0.077570 -0.059099 0.391838
v 0.126182 -0.059349 0.375612
v 0.169345 -0.061082 0.360955
v 0.215451 -0.077465 0.342720
v 0.360683 0.050516 -0.000298
v 0.388834 0.033417 0.038037
v 0.372188 0.027740 -0.036500
v 0.395055 0.000111 0.082334
v 0.391589 -0.000220 0.000064
v 0.370462 -0.000517 -0.073076
v 0.367849 -0.030236 0.119630
v 0.396596 -0.038693 0.041505
v 0.380045 -0.032571 -0.038933
v 0.349091 -0.025332 -0.104854
v 0.337046 -0.051168 0.148467
v 0.366364 -0.066723 0.080331
v 0.364909 -0.061554 -0.000019
v 0.351952 -0.054224 -0.073720
v 0.318959 -0.039233 -0.134096
v 0.311278 -0.070830 0.173466
v 0.325953 -0.077099 0.110460
v 0.337284 -0.080695 0.036879
v 0.333230 -0.073245 -0.036972
v 0.317005 -0.062655 -0.102417
v 0.293110 -0.053793 -0.163532
v 0.219561 -0.130059 -0.269271
v 0.184396 -0.145845 -0.241647
v 0.175130 -0.145633 -0.305843
v 0.146543 -0.156730 -0.208147
v 0.136028 -0.160835 -0.276082
v 0.124601 -0.161893 -0.336557
v 0.104145 -0.168100 -0.169810
v 0.092204 -0.173649 -0.238822
v 0.080645 -0.174084 -0.302924
v 0.059516 -0.166764 -0.365862
v 0.057797 -0.176581 -0.130121
v 0.044836 -0.179992 -0.193505
v 0.037616 -0.186319 -0.260591
v 0.015022 -0.176836 -0.330680
v -0.012673 -0.154130 -0.382195
v 0.010467 -0.189205 -0.091462
v -0.000439 -0.188424 -0.147651
v -0.003045 -0.202259 -0.206963
v -0.019735 -0.203444 -0.289885
v -0.044756 -0.167374 -0.357615
v -0.063451 -0.139364 -0.392159
v -0.152425 -0.146527 -0.373194
v -0.147327 -0.196211 -0.318628
v -0.213707 -0.153174 -0.314564
v -0.132172 -0.220647 -0.240586
v -0.198450 -0.197728 -0.251747
v -0.256529 -0.156314 -0.260691
v -0.101234 -0.231608 -0.163422
v -0.169906 -0.230765 -0.180961
v -0.236390 -0.211299 -0.196720
v -0.288504 -0.187640 -0.207626
v -0.079049 -0.220188 -0.096558
v -0.135118 -0.239030 -0.095271
v -0.200508 -0.242843 -0.104160
v -0.265409 -0.232576 -0.117299
v -0.318995 -0.213045 -0.123736
v -0.082647 -0.202616 -0.043665
v -0.119730 -0.216593 -0.029299
v -0.167829 -0.227487 -0.021850
v -0.213713 -0.230890 -0.026582
v -0.273743 -0.227582 -0.040218
v -0.332940 -0.206213 -0.045651
v -0.311790 -0.170357 0.077707
v -0.253174 -0.195121 0.080890
v -0.276247 -0.179381 0.124638
v -0.186259 -0.198848 0.076491
v -0.223183 -0.196805 0.119660
v -0.258289 -0.193424 0.147553
v -0.151477 -0.188673 0.072789
v -0.178176 -0.200745 0.101984
v -0.215478 -0.213123 0.139151
v -0.239695 -0.226103 0.207551
v -0.120710 -0.181031 0.071495
v -0.133041 -0.204833 0.098176
v -0.141533 -0.231125 0.149518
v -0.144951 -0.241467 0.221425
v -0.162054 -0.225963 0.302397
v -0.087174 -0.170704 0.072610
v -0.087843 -0.191246 0.112306
v -0.073930 -0.211535 0.167746
v -0.068211 -0.211911 0.227076
v -0.080746 -0.205206 0.287104
v -0.104096 -0.189621 0.341391
v 0.253856 -0.092729 -0.167791
v 0.264156 -0.084149 -0.105634
v 0.228544 -0.107301 -0.142161
v 0.271950 -0.083689 -0.035307
v 0.231460 -0.090287 -0.073010
v 0.191886 -0.111863 -0.108715
v 0.274122 -0.098316 0.036019
v 0.235579 -0.098327 0.002348
v 0.193899 -0.107832 -0.035101
v 0.153280 -0.128254 -0.071276
v 0.271449 -0.104389 0.106927
v 0.240537 -0.123350 0.073513
v 0.200241 -0.127682 0.038714
v 0.156679 -0.131869 0.000634
v 0.115597 -0.155477 -0.035381
v 0.266832 -0.110559 0.174126
v 0.237516 -0.127760 0.146254
v 0.201728 -0.148662 0.111132
v 0.158865 -0.150395 0.072679
v 0.114255 -0.149360 0.035353
v 0.069871 -0.164696 0.002571
v -0.029851 -0.134674 0.360327
v -0.027590 -0.158044 0.323989
v 0.013380 -0.118076 0.361264
v -0.022722 -0.178546 0.264027
v 0.018774 -0.150497 0.319881
v 0.064498 -0.109706 0.358705
v -0.014001 -0.169181 0.212039
v 0.023009 -0.161968 0.248843
v 0.068732 -0.153286 0.308190
v 0.116182 -0.112550 0.349981
v -0.011656 -0.170483 0.169255
v 0.031918 -0.153440 0.202495
v 0.072857 -0.158127 0.234176
v 0.124770 -0.155869 0.284853
v 0.165968 -0.122487 0.324818
v 0.002772 -0.174920 0.100172
v 0.049339 -0.163127 0.143222
v 0.088356 -0.147769 0.179630
v 0.129770 -0.148177 0.213413
v 0.174548 -0.147321 0.251009
v 0.209916 -0.129583 0.282992
vn 0.1941 -0.9160 0.3510
vn 0.6774 -0.7331 0.0609
vn 0.0105 -0.9588 0.2839
vn -0.0025 -0.9873 0.1588
vn 0.2089 -0.9732 0.0965
vn 0.7516 -0.6543 0.0838
vn 0.4151 -0.7797 0.4689
vn -0.8307 -0.4360 0.3462
vn -0.3736 -0.4617 -0.8045
vn 0.8273 -0.5278 -0.1925
vn 0.7962 -0.5435 0.2659
vn 0.2749 -0.7867 0.5527
vn -0.7969 -0.4648 0.3858
vn -0.4542 -0.5263 -0.7188
vn 0.8686 -0.4652 -0.1708
vn 0.2240 0.7708 0.5963
vn -0.3281 0.9311 0.1591
vn -0.2691 0.8497 -0.4534
vn 0.0538 0.9504 -0.3064
vn 0.3607 0.9318 -0.0416
vn 0.3034 0.9480 -0.0964
vn 0.1917 0.9806 0.0418
vn 0.2924 0.9431 0.1582
vn 0.2945 0.9413 0.1649
vn 0.1459 0.9703 0.1928
vn 0.1663 0.9843 0.0595
vn 0.2171 0.9761 -0.0074
vn 0.1336 0.9907 0.0248
vn 0.1430 0.9057 0.3991
vn 0.1167 0.9886 0.0953
vn 0.1305 0.9309 0.3413
vn 0.1997 0.9117 0.3591
vn 0.1728 0.9601 0.2199
vn 0.2863 0.9444 0.1617
vn 0.2868 0.9406 0.1815
vn 0.3377 0.9203 0.1973
vn 0.3354 0.9275 0.1649
vn 0.2740 0.9505 0.1463
vn 0.2235 0.9692 -0.1038
vn 0.1918 0.9585 0.2112
vn 0.1918 0.9596 0.2058
vn 0.2263 0.9495 0.2175
vn 0.2209 0.9719 0.0809
vn 0.3820 0.9149 0.1309
vn 0.3553 0.9242 -0.1400
vn 0.2997 0.9406 -0.1598
vn 0.2636 0.9086 -0.3238
vn 0.3330 0.9348 0.1232
vn 0.3347 0.9365 0.1046
vn 0.3729 0.9205 0.1164
vn 0.3784 0.9256 0.0126
vn 0.3438 0.9390 0.0019
vn 0.3430 0.9388 -0.0304
vn 0.2473 0.9671 -0.0603
vn 0.2248 0.9372 -0.2666
vn 0.1982 0.9409 -0.2747
vn 0.1528 0.8531 -0.4989
vn 0.2869 0.9578 0.0189
vn 0.2991 0.9488 -0.1017
vn 0.5858 0.8102 -0.0208
vn 0.5928 0.8013 -0.0802
vn 0.5659 0.8197 -0.0889
vn 0.5501 0.8309 0.0833
vn 0.2865 0.9580 0.0073
vn 0.2865 0.9100 -0.2998
vn 0.2727 0.9129 -0.3036
vn 0.2565 0.8418 -0.4749
vn 0.1546 0.8519 -0.5004
vn 0.1709 0.8967 -0.4084
vn 0.3553 0.9337 -0.0434
vn 0.3677 0.8966 -0.2468
vn 0.5268 0.8243 -0.2073
vn 0.5268 0.8244 -0.2072
vn 0.7264 0.6704 -0.1513
vn 0.6765 0.7288 0.1053
vn 0.5645 0.8220 0.0750
vn 0.6089 0.7369 -0.2938
vn 0.3792 0.8493 -0.3674
vn 0.3798 0.7893 -0.4824
vn 0.2929 0.8129 -0.5035
vn 0.3007 0.8795 -0.3688
vn 0.1658 0.9002 -0.4027
vn 0.1801 0.9464 -0.2680
vn 0.3017 0.9485 -0.0969
vn 0.1968 0.8927 0.4054
vn 0.1827 0.9577 0.2221
vn 0.1057 0.9842 -0.1421
vn 0.0450 0.9192 -0.3913
vn -0.0009 0.8448 -0.5351
vn 0.0296 0.8944 -0.4462
vn 0.3738 0.9054 0.2011
vn 0.2081 0.9619 0.1775
vn 0.1341 0.9556 0.2626
vn 0.2002 0.9425 0.2676
vn 0.2308 0.9430 0.2396
vn 0.2913 0.9247 0.2450
vn 0.0464 0.9942 -0.0971
vn 0.0758 0.9930 -0.0906
vn 0.0295 0.9980 -0.0555
vn 0.1485 0.9879 -0.0449
vn 0.1211 0.9924 -0.0234
vn 0.1655 0.9859 -0.0237
vn 0.0279 0.9247 -0.3797
vn 0.0158 0.9236 -0.3830
vn -0.0433 0.9386 -0.3423
vn 0.0526 0.9448 -0.3234
vn 0.0291 0.9521 -0.3045
vn -0.0426 0.9511 -0.3060
vn -0.0100 0.9426 -0.3337
vn 0.0309 0.9415 -0.3356
vn 0.0121 0.8391 -0.5438
vn 0.0734 0.8462 -0.5278
vn -0.0152 0.8850 -0.4653
vn -0.0309 0.8826 -0.4691
vn -0.0161 0.8767 -0.4808
vn -0.1233 0.8556 -0.5027
vn -0.1145 0.8522 -0.5105
vn -0.0852 0.8570 -0.5082
vn -0.0928 0.8595 -0.5026
vn 0.0769 0.8720 -0.4834
vn 0.0088 0.9038 -0.4279
vn 0.0642 0.9089 -0.4120
vn 0.0954 0.8929 -0.4401
vn -0.0270 0.8778 -0.4782
vn -0.0324 0.8804 -0.4731
vn -0.0474 0.8774 -0.4774
vn -0.0903 0.8965 -0.4337
vn -0.1768 0.8684 -0.4633
vn -0.1033 0.8358 -0.5392
vn -0.0212 0.8512 -0.5244
vn 0.0168 0.8320 -0.5545
vn 0.0314 0.8342 -0.5505
vn 0.0322 0.9584 -0.2838
vn 0.0027 0.9560 -0.2932
vn 0.0687 0.9282 -0.3658
vn 0.0058 0.9218 -0.3875
vn -0.0035 0.9265 -0.3763
vn -0.0543 0.9180 -0.3929
vn -0.0233 0.9038 -0.4274
vn -0.0508 0.8982 -0.4366
vn -0.1119 0.9252 -0.3627
vn -0.1971 0.9007 -0.3871
vn -0.0416 0.8345 -0.5494
vn -0.0622 0.8319 -0.5514
vn -0.0029 0.7942 -0.6077
vn -0.0909 0.7684 -0.6335
vn 0.2748 0.9595 -0.0623
vn 0.2313 0.9629 0.1392
vn 0.1669 0.9154 0.3664
vn -0.0659 0.9823 0.1751
vn -0.2725 0.9593 -0.0740
vn -0.2887 0.9353 -0.2048
vn -0.2242 0.9244 -0.3085
vn 0.0918 0.9927 -0.0781
vn -0.0274 0.9975 0.0658
vn -0.0446 0.9948 0.0917
vn -0.0209 0.9982 0.0569
vn -0.0120 0.9978 0.0659
vn -0.1014 0.9804 0.1687
vn 0.0835 0.9303 0.3571
vn 0.0837 0.9304 0.3568
vn -0.2116 0.9771 0.0232
vn -0.2478 0.9669 0.0607
vn -0.1026 0.9803 0.1688
vn -0.0302 0.9949 0.0963
vn -0.0898 0.9805 0.1747
vn -0.2414 0.9081 0.3423
vn -0.2543 0.9112 0.3243
vn -0.1733 0.9640 0.2016
vn -0.2938 0.9541 0.0589
vn -0.2514 0.9678 0.0094
vn -0.1475 0.9816 0.1215
vn -0.0735 0.9971 -0.0202
vn -0.1669 0.9838 -0.0648
vn -0.4672 0.8596 0.2070
vn -0.3354 0.8786 0.3400
vn -0.3515 0.8654 0.3571
vn -0.4884 0.8517 0.1900
vn -0.3811 0.9236 0.0415
vn -0.3958 0.9180 0.0234
vn -0.3021 0.9466 -0.1123
vn -0.2262 0.9740 0.0153
vn -0.2025 0.9775 -0.0592
vn -0.1225 0.9776 -0.1710
vn -0.3901 0.9191 0.0549
vn -0.1988 0.9570 0.2111
vn -0.3525 0.8770 0.3265
vn -0.3155 0.8785 0.3589
vn -0.2259 0.9357 0.2709
vn -0.4504 0.8919 0.0410
vn -0.3604 0.9307 -0.0629
vn -0.3946 0.9131 -0.1021
vn -0.3486 0.9223 -0.1666
vn -0.2782 0.9592 -0.0508
vn -0.2941 0.9556 -0.0176
vn -0.1903 0.9350 -0.2993
vn -0.3616 0.9237 -0.1269
vn -0.1980 0.9788 0.0529
vn -0.3319 0.9287 0.1655
vn -0.1549 0.9310 0.3304
vn -0.2077 0.8995 0.3844
vn -0.3357 0.9031 0.2677
vn -0.2084 0.9710 0.1174
vn -0.3880 0.9196 -0.0613
vn -0.3352 0.9343 -0.1214
vn -0.3696 0.9145 -0.1645
vn -0.3931 0.9103 -0.1298
vn -0.3219 0.9466 -0.0154
vn -0.3763 0.9232 0.0787
vn 0.2476 0.9645 -0.0917
vn 0.1601 0.9580 0.2377
vn 0.0420 0.9543 0.2957
vn 0.0835 0.9741 0.2102
vn -0.0004 0.9909 0.1345
vn -0.1420 0.9887 0.0490
vn -0.2200 0.9717 0.0859
vn 0.0999 0.9634 0.2487
vn 0.0764 0.9704 0.2293
vn 0.1437 0.9506 0.2752
vn 0.1112 0.9641 0.2413
vn 0.0682 0.9648 0.2539
vn 0.0805 0.9608 0.2653
vn 0.0735 0.9742 0.2136
vn 0.0566 0.9807 0.1874
vn 0.1369 0.9779 0.1578
vn 0.1033 0.9879 0.1161
vn 0.1372 0.9852 0.1031
vn 0.1633 0.9784 0.1264
vn 0.1382 0.9849 0.1041
vn 0.1138 0.9907 0.0751
vn 0.1105 0.9910 0.0761
vn 0.0889 0.9946 0.0541
vn 0.1348 0.9901 0.0398
vn 0.1932 0.9768 0.0923
vn 0.1718 0.9802 0.0985
vn 0.1306 0.9891 0.0674
vn 0.0447 0.9978 0.0479
vn 0.0648 0.9954 0.0699
vn 0.1228 0.9903 0.0645
vn 0.1484 0.9851 0.0867
vn 0.0558 0.9924 0.1098
vn 0.2193 0.9404 0.2598
vn 0.1264 0.9485 0.2905
vn 0.1679 0.9313 0.3232
vn 0.0727 0.9342 0.3493
vn 0.1155 0.9178 0.3799
vn -0.1690 0.9822 0.0821
vn -0.0844 0.9787 0.1874
vn -0.0176 0.9843 0.1758
vn 0.0527 0.9663 0.2518
vn 0.0477 0.9663 0.2531
vn 0.1635 0.9108 0.3790
vn 0.1717 0.9107 0.3757
vn 0.2576 0.8477 0.4638
vn 0.1111 0.8448 0.5234
vn 0.1171 0.8408 0.5286
vn 0.0877 0.8382 0.5383
vn 0.1483 0.7974 0.5850
vn -0.2896 0.9447 0.1540
vn -0.2345 0.9415 0.2419
vn -0.0954 0.9749 0.2011
vn -0.0386 0.9577 0.2851
vn 0.0516 0.9659 0.2536
vn 0.1106 0.9348 0.3374
vn 0.1955 0.9338 0.2996
vn 0.2462 0.8939 0.3745
vn 0.2902 0.8902 0.3512
vn 0.2740 0.9037 0.3289
vn 0.1467 0.9062 0.3965
vn 0.2270 0.8349 0.5015
vn 0.1562 0.8278 0.5389
vn 0.2116 0.7708 0.6009
vn 0.3038 0.9473 -0.1016
vn 0.2283 0.9552 0.1882
vn 0.1772 0.9561 0.2334
vn 0.1761 0.9768 0.1220
vn 0.1414 0.9879 0.0643
vn 0.1887 0.9141 0.3590
vn 0.2276 0.7964 0.5603
vn 0.2528 0.9585 -0.1316
vn 0.2008 0.9730 -0.1138
vn 0.1859 0.9688 0.1637
vn 0.3223 0.9392 0.1181
vn 0.3317 0.9427 -0.0360
vn 0.2946 0.9554 -0.0213
vn 0.1569 0.9626 0.2210
vn 0.1949 0.9582 0.2092
vn 0.2085 0.9766 0.0527
vn 0.2126 0.9758 0.0514
vn 0.2145 0.9745 -0.0654
vn 0.2906 0.9522 -0.0945
vn 0.1355 0.9864 0.0928
vn 0.2556 0.9655 0.0507
vn 0.2328 0.9447 0.2310
vn 0.1434 0.9557 0.2572
vn 0.1528 0.9881 0.0191
vn 0.2611 0.9652 -0.0166
vn 0.2584 0.9597 -0.1101
vn 0.1428 0.9875 -0.0670
vn 0.2370 0.9615 0.1393
vn 0.3932 0.9156 0.0835
vn 0.3874 0.9114 0.1390
vn 0.2681 0.9458 0.1832
vn 0.2594 0.9120 0.3178
vn 0.2937 0.9047 0.3087
vn 0.2929 0.9561 -0.0009
vn 0.2200 0.9752 0.0224
vn 0.2174 0.9754 -0.0361
vn 0.1668 0.9858 -0.0180
vn 0.2673 0.8651 0.4245
vn 0.3642 0.8433 0.3952
vn 0.3866 0.9189 0.0788
vn 0.4230 0.9036 0.0677
vn 0.4240 0.8649 0.2685
vn 0.2362 0.9193 0.3149
vn 0.2347 0.9309 0.2800
vn 0.2591 0.9259 0.2748
vn 0.2452 0.9689 0.0335
vn 0.1863 0.9812 0.0497
vn 0.1827 0.9831 -0.0124
vn 0.2172 0.9758 -0.0241
vn 0.2315 0.7926 0.5641
vn 0.2805 0.7844 0.5532
vn 0.2875 0.8934 0.3452
vn 0.4142 0.8512 0.3223
vn 0.3651 0.9303 0.0345
vn 0.2940 0.9547 0.0457
vn 0.3461 0.8602 0.3747
vn 0.3711 0.8513 0.3709
vn 0.3667 0.8724 0.3233
vn 0.3382 0.8818 0.3287
vn 0.3186 0.9425 0.1007
vn 0.2404 0.9633 0.1190
vn 0.2323 0.9724 -0.0201
vn 0.3609 0.9304 -0.0642
vn 0.4740 0.8779 -0.0672
vn 0.5492 0.8036 -0.2293
vn 0.6630 0.5672 -0.4885
vn 0.8248 0.1186 -0.5529
vn 0.8955 -0.3053 -0.3239
vn 0.9101 -0.4021 -0.1002
vn 0.9057 -0.4110 -0.1044
vn 0.5521 0.8014 -0.2302
vn 0.4547 0.8454 -0.2801
vn 0.6189 0.6265 -0.4738
vn 0.6590 0.5970 -0.4575
vn 0.4986 0.7699 -0.3984
vn 0.7475 0.5886 -0.3079
vn 0.6636 0.5635 -0.4920
vn 0.9022 0.2033 -0.3803
vn 0.5635 0.7919 -0.2354
vn 0.8871 0.4413 -0.1357
vn 0.6233 0.7819 0.0137
vn 0.7595 0.6482 0.0548
vn 0.7867 0.5584 -0.2632
vn 0.9776 0.1618 -0.1347
vn 0.8071 0.5872 -0.0620
vn 0.8324 0.5521 -0.0476
vn 0.8706 0.4873 -0.0685
vn 0.7389 0.6564 -0.1524
vn 0.8114 0.5496 -0.1987
vn 0.9854 0.0872 -0.1460
vn 0.9716 0.1483 -0.1843
vn 0.9783 0.0923 -0.1856
vn 0.8858 0.3300 -0.3263
vn 0.8825 0.3401 -0.3248
vn 0.7655 0.4974 -0.4081
vn 0.7569 0.5140 -0.4036
vn 0.6157 0.6376 -0.4630
vn 0.6038 0.6538 -0.4560
vn 0.4028 0.7677 -0.4983
vn 0.9054 -0.4116 -0.1043
vn 0.9270 -0.1843 -0.3266
vn 0.9376 -0.0892 -0.3362
vn 0.9249 -0.0304 -0.3790
vn 0.8860 0.2784 -0.3709
vn 0.8990 0.2542 -0.3566
vn 0.7528 0.6007 -0.2693
vn 0.6852 0.6645 -0.2982
vn 0.6164 0.7487 -0.2439
vn 0.3968 0.8749 -0.2776
vn 0.4285 0.8494 -0.3080
vn 0.2442 0.9185 -0.3110
vn 0.8360 -0.5279 -0.1500
vn 0.8606 -0.3964 -0.3197
vn 0.9035 -0.2414 -0.3540
vn 0.9094 -0.3204 -0.2651
vn 0.9449 0.0604 -0.3217
vn 0.9573 0.0266 -0.2879
vn 0.9030 0.3366 -0.2671
vn 0.7780 0.4955 -0.3861
vn 0.6852 0.6617 -0.3045
vn 0.4899 0.7934 -0.3612
vn 0.3993 0.8802 -0.2567
vn 0.2617 0.9297 -0.2593
vn 0.2576 0.9323 -0.2541
vn 0.1647 0.9550 -0.2468
vn 0.0545 0.9464 -0.3183
vn 0.0064 0.8910 -0.4539
vn -0.0042 0.7609 -0.6489
vn -0.1120 0.5357 -0.8369
vn -0.3090 0.2339 -0.9219
vn -0.4164 -0.1166 -0.9017
vn -0.4797 -0.4010 -0.7804
vn 0.0035 0.9336 -0.3582
vn 0.0013 0.9343 -0.3565
vn -0.0051 0.8868 -0.4621
vn -0.0087 0.8885 -0.4589
vn -0.0066 0.9323 -0.3617
vn 0.0071 0.9268 -0.3755
vn -0.0974 0.7080 -0.6995
vn -0.1380 0.7410 -0.6572
vn -0.1268 0.8404 -0.5270
vn -0.1248 0.8392 -0.5293
vn -0.1109 0.8950 -0.4320
vn -0.0766 0.8798 -0.4691
vn -0.2854 0.4022 -0.8699
vn -0.2769 0.3934 -0.8767
vn -0.2528 0.6761 -0.6921
vn -0.2286 0.6591 -0.7164
vn -0.1965 0.8087 -0.5545
vn -0.1707 0.7922 -0.5860
vn -0.1365 0.8627 -0.4869
vn -0.1021 0.8424 -0.5291
vn -0.3975 0.1642 -0.9028
vn -0.3636 0.1249 -0.9231
vn -0.3704 0.3151 -0.8738
vn -0.4164 0.3674 -0.8316
vn -0.4198 0.5136 -0.7483
vn -0.3933 0.4887 -0.7788
vn -0.3640 0.6884 -0.6273
vn -0.3172 0.6486 -0.6919
vn -0.2415 0.7945 -0.5571
vn -0.2823 0.8224 -0.4940
vn -0.4761 -0.1562 -0.8654
vn -0.5060 -0.1176 -0.8544
vn -0.5058 -0.0826 -0.8587
vn -0.6293 0.3043 -0.7151
vn -0.6086 -0.0045 -0.7934
vn -0.6090 -0.0039 -0.7931
vn -0.6538 0.2199 -0.7240
vn -0.5486 0.1370 -0.8248
vn -0.4708 0.5572 -0.6840
vn -0.4686 0.5556 -0.6868
vn -0.2528 0.8317 -0.4944
vn -0.1439 0.7550 -0.6398
vn -0.4453 -0.3790 -0.8112
vn -0.5688 -0.2412 -0.7863
vn -0.5638 -0.1952 -0.8025
vn -0.6685 0.1159 -0.7346
vn -0.6781 -0.0839 -0.7302
vn 0.6750 0.1411 0.7242
vn -0.6431 -0.2508 -0.7236
vn -0.5135 -0.3897 -0.7645
vn -0.5421 0.1419 -0.8282
vn -0.5411 0.1413 -0.8290
vn -0.3693 0.6000 -0.7097
vn -0.2992 0.5455 -0.7829
vn -0.1657 0.7525 -0.6374
vn -0.1239 0.7036 -0.6997
vn -0.3332 0.8152 -0.4737
vn -0.4964 0.7518 -0.4340
vn -0.7482 0.5553 -0.3630
vn -0.9436 0.2769 -0.1817
vn -0.9966 0.0163 0.0809
vn -0.9535 -0.1249 0.2743
vn -0.8798 -0.2539 0.4018
vn -0.4077 0.8070 -0.4273
vn -0.3544 0.9264 -0.1270
vn -0.6140 0.7154 -0.3335
vn -0.5584 0.8262 -0.0751
vn -0.4380 0.8969 -0.0617
vn -0.3030 0.9382 0.1673
vn -0.8876 0.4281 -0.1701
vn -0.7948 0.6010 0.0840
vn -0.7132 0.6949 0.0925
vn -0.5441 0.7787 0.3124
vn -0.4716 0.8229 0.3169
vn -0.4052 0.8299 0.3836
vn -0.9956 0.0490 0.0802
vn -0.9118 0.2809 0.2995
vn -0.8728 0.3879 0.2963
vn -0.7802 0.4738 0.4083
vn -0.5993 0.6940 0.3989
vn -0.6931 0.6514 0.3087
vn -0.3294 0.9004 0.2841
vn -0.4903 0.8607 0.1369
vn -0.9469 -0.1621 0.2777
vn -0.9188 0.0016 0.3948
vn -0.9043 0.2013 0.3765
vn -0.9520 0.1079 0.2866
vn -0.7370 0.6302 0.2443
vn -0.8462 0.5225 0.1042
vn -0.5575 0.8271 0.0721
vn -0.6273 0.7788 -0.0004
vn -0.3730 0.9273 -0.0322
vn -0.4582 0.8821 -0.1091
vn -0.8881 -0.2298 0.3981
vn -0.8865 -0.3330 0.3212
vn -0.9563 0.1106 0.2708
vn -0.9931 -0.0897 0.0761
vn -0.9405 0.3376 0.0390
vn -0.9447 0.3267 0.0285
vn -0.7957 0.6057 -0.0015
vn -0.8156 0.5778 -0.0308
vn -0.5882 0.8058 -0.0688
vn -0.6159 0.7810 -0.1035
vn -0.4550 0.8830 -0.1150
vn -0.4636 0.8772 -0.1246
vn -0.9063 -0.2233 0.3590
vn -0.8620 -0.5005 0.0804
vn -0.9907 -0.1252 0.0533
vn -0.9832 -0.1823 -0.0065
vn -0.9994 0.0187 -0.0294
vn -0.9948 0.0941 0.0396
vn -0.9365 0.3508 0.0012
vn -0.9412 0.3377 -0.0130
vn -0.8156 0.5777 -0.0308
vn -0.8000 0.5999 0.0009
vn -0.6535 0.7568 -0.0149
vn -0.6143 0.7881 0.0388
vn -0.4992 0.8663 0.0162
vn -0.4369 0.8954 0.0861
vn -0.3850 0.8974 0.2154
vn -0.3958 0.9005 0.1804
vn -0.5058 0.8190 0.2709
vn -0.5910 0.4668 0.6579
vn -0.4029 -0.1090 0.9087
vn -0.1076 -0.5269 0.8431
vn 0.0868 -0.7361 0.6713
vn -0.3868 0.9061 0.1714
vn -0.1620 0.9742 0.1570
vn -0.3980 0.9029 0.1621
vn -0.1296 0.9766 0.1719
vn -0.1524 0.9677 0.2009
vn 0.0409 0.9853 0.1657
vn -0.4397 0.7647 0.4710
vn -0.1689 0.8562 0.4882
vn -0.0665 0.9442 0.3227
vn 0.0893 0.9514 0.2948
vn 0.0951 0.9541 0.2841
vn 0.1420 0.9528 0.2684
vn -0.3872 0.3185 0.8652
vn -0.1580 0.4301 0.8888
vn -0.0441 0.7711 0.6352
vn 0.0607 0.7872 0.6137
vn 0.1511 0.9114 0.3828
vn 0.1598 0.9113 0.3795
vn 0.1781 0.9288 0.3248
vn 0.2712 0.9219 0.2766
vn -0.1883 -0.2102 0.9594
vn -0.0639 -0.1268 0.9899
vn -0.0625 0.3684 0.9276
vn -0.0204 0.3864 0.9221
vn 0.0660 0.7833 0.6181
vn 0.0951 0.7892 0.6068
vn 0.1515 0.9169 0.3693
vn 0.2492 0.9169 0.3117
vn 0.2560 0.9316 0.2579
vn 0.2846 0.9287 0.2377
vn 0.0157 -0.5552 0.8316
vn 0.0304 -0.5424 0.8395
vn -0.0260 -0.1453 0.9890
vn 0.0154 -0.1131 0.9935
vn 0.0231 0.3524 0.9356
vn 0.1658 0.4378 0.8837
vn 0.1872 0.7120 0.6768
vn 0.2998 0.7504 0.5891
vn 0.2982 0.8851 0.3573
vn 0.3144 0.8860 0.3410
vn 0.3105 0.9137 0.2622
vn 0.2458 0.9112 0.3306
vn 0.2561 -0.7458 0.6149
vn 0.2660 -0.7344 0.6244
vn 0.2366 -0.6021 0.7625
vn 0.2873 -0.5461 0.7869
vn 0.2816 -0.2897 0.9148
vn 0.3576 -0.2118 0.9096
vn 0.3733 0.2327 0.8980
vn 0.4224 0.2763 0.8633
vn 0.4086 0.6453 0.6455
vn 0.4248 0.6548 0.6251
vn 0.3739 0.8441 0.3842
vn 0.3199 0.8281 0.4602
vn 0.3106 0.8685 0.3863
vn 0.2200 0.8359 0.5028
vn 0.1891 0.8177 0.5437
vn -0.4918 0.2147 -0.8438
vn -0.1626 -0.8949 -0.4156
vn 0.1890 0.8464 0.4979
vn 0.4180 0.3006 0.8573
vn 0.6325 0.0987 0.7682
vn 0.8130 -0.2427 0.5293
vn 0.2193 0.8039 0.5529
vn 0.2262 0.8287 0.5120
vn -0.4869 0.2602 -0.8338
vn 0.0730 0.9277 0.3660
vn 0.2857 0.8059 0.5186
vn 0.2627 0.9343 0.2411
vn -0.1785 -0.9788 -0.1008
vn 0.2084 0.8962 0.3916
vn 0.2480 0.8621 0.4420
vn 0.1933 0.9705 0.1441
vn 0.3398 0.9076 0.2464
vn 0.2989 0.9530 0.0487
vn 0.4338 0.6652 0.6078
vn 0.4695 0.7482 0.4687
vn 0.5045 0.6916 0.5168
vn 0.3892 0.9176 0.0811
vn 0.5185 0.8388 0.1659
vn 0.4993 0.8591 0.1125
vn 0.3852 0.9219 0.0420
vn 0.4877 0.7596 0.4304
vn 0.6341 0.0187 0.7730
vn 0.7594 0.5184 0.3931
vn 0.8038 0.4214 0.4199
vn 0.7210 0.6819 0.1234
vn 0.5865 0.8079 0.0585
vn 0.6702 0.7037 0.2360
vn 0.4621 0.8792 0.1159
vn 0.5886 0.6662 0.4580
vn 0.5121 0.7463 0.4251
vn 0.5038 0.7693 0.3930
vn 0.8058 -0.2759 0.5240
vn 0.9455 0.0173 0.3251
vn 0.8808 0.3640 0.3028
vn 0.8806 0.3687 0.2978
vn 0.6148 0.7729 0.1571
vn 0.6773 0.6617 0.3216
vn 0.5498 0.7978 0.2472
vn 0.6474 0.5640 0.5126
vn 0.5424 0.6975 0.4684
vn 0.5433 0.6943 0.4720
vn 0.4029 0.8121 0.4221
vn 0.2964 0.9450 0.1384
vn 0.8403 -0.4545 0.2956
vn 0.8868 -0.3853 0.2552
vn 0.9559 -0.0175 0.2933
vn 0.9330 -0.0868 0.3492
vn 0.8783 0.3724 0.2999
vn 0.8697 0.2279 0.4378
vn 0.6959 0.6444 0.3169
vn 0.7204 0.3559 0.5953
vn 0.5893 0.6127 0.5265
vn 0.5859 0.6385 0.4991
vn 0.5270 0.7032 0.4773
vn 0.3964 0.9142 0.0845
vn 0.4059 0.9097 0.0870
vn 0.3211 0.9443 -0.0721
vn 0.1180 0.9280 -0.3535
vn 0.2029 0.8821 -0.4252
vn 0.4326 0.7182 -0.5450
vn 0.7177 0.3393 -0.6081
vn 0.9106 -0.1180 -0.3960
vn 0.9293 -0.2767 -0.2446
vn 0.8629 -0.3925 -0.3182
vn 0.1357 0.9066 -0.3996
vn 0.0731 0.8657 -0.4953
vn 0.2522 0.8103 -0.5289
vn 0.1578 0.7341 -0.6605
vn 0.1141 0.7551 -0.6456
vn 0.0649 0.7198 -0.6911
vn 0.5194 0.5049 -0.6894
vn 0.3899 0.3616 -0.8469
vn 0.2189 0.4815 -0.8487
vn 0.1591 0.4313 -0.8881
vn 0.0927 0.4795 -0.8726
vn 0.0112 0.4136 -0.9104
vn 0.7538 0.0971 -0.6498
vn 0.6371 -0.0616 -0.7683
vn 0.4073 0.1455 -0.9016
vn 0.2798 0.0324 -0.9595
vn 0.1720 0.1212 -0.9776
vn 0.0956 0.0614 -0.9935
vn 0.0034 0.1540 -0.9881
vn -0.1583 0.0193 -0.9872
vn 0.9020 -0.2119 -0.3763
vn 0.7652 -0.4374 -0.4724
vn 0.6155 -0.2741 -0.7389
vn 0.4245 -0.4443 -0.7889
vn 0.2465 -0.2904 -0.9246
vn 0.1677 -0.3425 -0.9244
vn 0.0721 -0.2568 -0.9638
vn -0.0116 -0.3116 -0.9502
vn -0.1807 -0.1187 -0.9764
vn -0.3310 -0.2083 -0.9204
vn 0.8807 -0.4427 -0.1687
vn 0.7925 -0.5736 -0.2071
vn 0.7405 -0.5166 -0.4299
vn 0.5313 -0.7123 -0.4586
vn 0.3780 -0.5965 -0.7080
vn 0.2392 -0.6781 -0.6949
vn 0.1178 -0.5866 -0.8013
vn 0.0049 -0.6394 -0.7688
vn -0.0542 -0.5901 -0.8055
vn -0.1654 -0.6378 -0.7523
vn -0.3757 -0.4422 -0.8144
vn -0.4176 -0.4530 -0.7877
vn 0.8194 -0.5126 -0.2565
vn 0.7166 -0.6315 -0.2962
vn 0.7469 -0.6509 -0.1358
vn 0.5729 -0.8043 -0.1578
vn 0.4883 -0.7835 -0.3842
vn 0.3010 -0.8795 -0.3685
vn 0.1727 -0.8240 -0.5397
vn 0.0493 -0.8633 -0.5023
vn -0.0380 -0.8099 -0.5854
vn -0.0899 -0.8233 -0.5605
vn -0.1856 -0.7579 -0.6255
vn -0.2903 -0.7775 -0.5579
vn -0.4674 -0.6565 -0.5920
vn -0.2880 -0.6323 -0.7192
vn -0.3156 0.6532 -0.6883
vn -0.3460 0.5323 -0.7726
vn -0.4889 0.1776 -0.8541
vn -0.4863 -0.3227 -0.8120
vn 0.4737 0.4689 0.7455
vn -0.6872 0.0729 -0.7228
vn -0.5639 -0.2357 -0.7915
vn -0.3678 0.5700 -0.7347
vn -0.4529 0.5386 -0.7105
vn -0.4981 0.1873 -0.8467
vn -0.4150 0.2330 -0.8795
vn -0.5331 0.4157 -0.7369
vn -0.6656 0.3516 -0.6583
vn -0.5591 -0.2513 -0.7901
vn -0.4151 -0.0808 -0.9062
vn -0.4898 -0.0019 -0.8719
vn -0.5252 -0.0351 -0.8502
vn -0.7100 0.2040 -0.6740
vn -0.8867 0.0170 -0.4620
vn 0.5419 -0.4034 0.7373
vn -0.4120 -0.4545 -0.7897
vn -0.4261 -0.4363 -0.7925
vn -0.3418 -0.2680 -0.9007
vn -0.5271 -0.0629 -0.8475
vn -0.6649 -0.2931 -0.6870
vn -0.8853 -0.0212 -0.4645
vn -0.9459 -0.2781 -0.1674
vn -0.6373 -0.0503 -0.7689
vn -0.6350 -0.1622 -0.7553
vn -0.3924 -0.4868 -0.7804
vn -0.4274 -0.2929 -0.8553
vn -0.3207 -0.3755 -0.8696
vn -0.3639 -0.4789 -0.7989
vn -0.6619 -0.3018 -0.6861
vn -0.7305 -0.5401 -0.4179
vn -0.9507 -0.2612 -0.1673
vn -0.9057 -0.4164 0.0800
vn -0.6842 -0.1323 -0.7172
vn -0.7211 -0.1795 -0.6692
vn -0.5587 -0.3395 -0.7567
vn -0.5694 -0.3641 -0.7370
vn -0.2225 -0.5535 -0.8026
vn -0.2210 -0.5483 -0.8066
vn -0.3429 -0.5092 -0.7894
vn -0.3753 -0.7195 -0.5843
vn -0.7335 -0.5355 -0.4187
vn -0.7067 -0.6934 -0.1410
vn -0.8983 -0.4317 0.0822
vn -0.8254 -0.5003 0.2615
vn -0.5408 -0.3858 -0.7474
vn -0.5600 -0.4101 -0.7199
vn -0.6983 -0.3001 -0.6499
vn -0.7224 -0.3282 -0.6087
vn -0.4552 -0.5269 -0.7178
vn -0.4479 -0.5156 -0.7305
vn -0.1360 -0.6117 -0.7793
vn -0.1571 -0.7457 -0.6475
vn -0.4272 -0.6749 -0.6017
vn -0.3835 -0.8652 -0.3230
vn -0.7123 -0.6873 -0.1423
vn -0.6327 -0.7683 0.0965
vn -0.8129 -0.5173 0.2675
vn -0.7736 -0.5353 0.3390
vn -0.4611 0.8642 0.2012
vn -0.6241 0.7542 0.2043
vn -0.8286 0.5407 0.1454
vn -0.9611 0.2622 0.0865
vn -0.9944 0.1013 0.0311
vn -0.9763 -0.2150 0.0265
vn -0.8644 -0.4971 0.0760
vn -0.5510 0.7943 0.2560
vn -0.5279 0.8347 0.1570
vn -0.7314 0.6233 0.2767
vn -0.7316 0.6389 0.2377
vn -0.6940 0.6706 0.2619
vn -0.6864 0.6984 0.2027
vn -0.9160 0.3502 0.1958
vn -0.9027 0.3058 0.3027
vn -0.8936 0.3151 0.3197
vn -0.8950 0.3742 0.2429
vn -0.8456 0.4416 0.3001
vn -0.7894 0.3032 0.5338
vn -0.9860 0.1429 0.0861
vn -0.9676 -0.0001 0.2524
vn -0.9549 0.0164 0.2964
vn -0.9597 0.0275 0.2798
vn -0.9690 0.0027 0.2471
vn -0.8916 -0.1817 0.4148
vn -0.8289 -0.0738 0.5545
vn -0.5860 -0.2697 0.7641
vn -0.9778 -0.2037 0.0502
vn -0.9743 -0.2154 0.0662
vn -0.9634 -0.1596 0.2154
vn -0.9546 -0.1763 0.2402
vn -0.9581 -0.1833 0.2200
vn -0.8601 -0.3796 0.3408
vn -0.8568 -0.3652 0.3640
vn -0.5695 -0.6243 0.5347
vn -0.5059 -0.5258 0.6838
vn -0.2116 -0.6234 0.7527
vn -0.8490 -0.5283 -0.0072
vn -0.8377 -0.5459 0.0148
vn -0.8415 -0.5367 0.0610
vn -0.8846 -0.4636 -0.0502
vn -0.8775 -0.4641 0.1210
vn -0.8443 -0.5077 0.1716
vn -0.8388 -0.4527 0.3025
vn -0.5615 -0.7281 0.3933
vn -0.5484 -0.6615 0.5115
vn -0.1807 -0.8040 0.5665
vn -0.1350 -0.7338 0.6658
vn 0.0840 -0.7390 0.6684
vn -0.7825 -0.6220 0.0296
vn -0.6483 -0.7451 0.1563
vn -0.5990 -0.7976 -0.0704
vn -0.6015 -0.7955 -0.0734
vn -0.6014 -0.7946 -0.0836
vn -0.6982 -0.6568 -0.2847
vn -0.7112 -0.7000 0.0650
vn -0.5800 -0.8032 0.1357
vn -0.5791 -0.7028 0.4132
vn -0.2261 -0.8607 0.4562
vn -0.2006 -0.7822 0.5898
vn 0.1218 -0.7909 0.5997
vn 0.1267 -0.7833 0.6086
vn 0.3059 -0.7421 0.5964
vn 0.2013 0.8507 0.4856
vn 0.1845 0.9096 0.3722
vn 0.2911 0.7630 0.5771
vn 0.5075 0.1697 0.8448
vn 0.5337 -0.3767 0.7571
vn 0.5109 -0.6352 0.5792
vn 0.4457 -0.7489 0.4904
vn 0.1824 0.8849 0.4286
vn -0.3927 0.8152 -0.4257
vn 0.2991 0.7857 0.5415
vn 0.2099 -0.9471 -0.2429
vn -0.1072 -0.9041 -0.4138
vn -0.1035 -0.9173 -0.3845
vn 0.5379 0.2038 0.8180
vn 0.2442 0.4236 0.8723
vn 0.3654 0.7530 0.5473
vn 0.0880 0.8139 0.5743
vn -0.1024 0.9921 0.0727
vn 0.2509 0.8882 0.3848
vn 0.4478 -0.4580 0.7680
vn 0.3805 -0.3835 0.8415
vn 0.5277 -0.2370 0.8157
vn 0.2856 -0.0533 0.9569
vn 0.6234 0.4685 0.6260
vn 0.3584 0.5596 0.7472
vn 0.1456 0.4407 0.8858
vn 0.4511 0.3224 0.8322
vn 0.4605 -0.6853 0.5642
vn 0.4439 -0.6735 0.5911
vn 0.3088 -0.7823 0.5410
vn 0.2002 -0.6760 0.7092
vn 0.4055 -0.4695 0.7843
vn 0.3677 -0.4404 0.8191
vn 0.4246 -0.4094 0.8075
vn 0.3044 -0.3329 0.8925
vn 0.3465 -0.3147 0.8837
vn 0.3094 -0.2796 0.9089
vn 0.5061 -0.6853 0.5236
vn 0.4523 -0.6703 0.5883
vn 0.4425 -0.6809 0.5835
vn 0.3180 -0.5816 0.7488
vn 0.1966 -0.6954 0.6912
vn 0.2168 -0.7187 0.6606
vn 0.3154 -0.6458 0.6953
vn 0.2488 -0.5493 0.7977
vn 0.2593 -0.5418 0.7995
vn 0.1892 -0.4429 0.8764
vn 0.2915 -0.3772 0.8791
vn 0.4433 -0.6138 0.6533
vn 0.4458 -0.7493 0.4897
vn 0.4103 -0.7483 0.5212
vn 0.4573 -0.7047 0.5425
vn 0.2762 -0.6451 0.7125
vn 0.3154 -0.6137 0.7237
vn 0.2485 -0.5653 0.7866
vn 0.2609 -0.5545 0.7902
vn 0.1806 -0.4444 0.8774
vn 0.2892 -0.3459 0.8926
vn 0.3221 -0.3893 0.8630
vn 0.1746 -0.4710 0.8647
vn 0.3029 -0.6815 0.6662
vn 0.4568 -0.5865 0.6688
vn 0.5502 -0.7661 0.3322
vn 0.3894 0.9130 -0.1212
vn 0.6416 0.7614 -0.0930
vn 0.8426 0.4074 0.3522
vn 0.7474 0.3203 0.5821
vn 0.8595 0.2472 0.4474
vn 0.9452 -0.1797 0.2724
vn 0.8620 -0.4937 0.1152
vn 0.6008 0.7888 -0.1294
vn 0.6409 0.7481 -0.1718
vn 0.6066 0.7895 -0.0933
vn 0.6990 0.6841 -0.2082
vn 0.7309 0.6579 -0.1816
vn 0.8167 0.4216 -0.3940
vn 0.7459 0.5785 0.3302
vn 0.9908 0.1289 -0.0423
vn 0.9142 0.3341 -0.2296
vn 0.9194 0.2891 -0.2667
vn 0.7999 0.4561 -0.3901
vn 0.7787 0.2097 -0.5913
vn 0.7837 0.0575 0.6184
vn 0.8697 -0.3410 0.3569
vn 0.9956 0.0840 -0.0423
vn 0.9734 -0.0970 -0.2077
vn 0.9607 -0.0083 -0.2775
vn 0.8782 -0.2001 -0.4344
vn 0.7938 0.0872 -0.6019
vn 0.8308 0.2065 -0.5169
vn 0.7560 -0.4152 0.5061
vn 0.7481 -0.5001 0.4361
vn 0.8385 -0.4148 0.3534
vn 0.6354 -0.7698 -0.0610
vn 0.7321 -0.6511 -0.2002
vn 0.7382 -0.6461 -0.1940
vn 0.8210 -0.3790 -0.4271
vn 0.7152 -0.4783 -0.5096
vn 0.7236 -0.4261 -0.5431
vn 0.9443 -0.0508 -0.3253
vn 0.7313 -0.6318 0.2570
vn 0.7226 -0.6507 0.2331
vn 0.4903 -0.7799 0.3890
vn 0.3130 -0.9450 0.0944
vn 0.5088 -0.8585 -0.0644
vn 0.4584 -0.8814 -0.1141
vn 0.5130 -0.8406 -0.1738
vn 0.4123 -0.8777 -0.2442
vn 0.5536 -0.6856 -0.4727
vn 0.7389 -0.5628 -0.3705
vn 0.6902 -0.6693 -0.2750
vn 0.9052 -0.4122 -0.1030
vn 0.7449 -0.6611 0.0901
vn 0.7053 -0.7089 0.0039
vn 0.4520 -0.8711 0.1920
vn 0.3792 -0.9216 0.0826
vn 0.3525 -0.9305 0.0998
vn 0.2008 -0.9770 -0.0724
vn 0.2449 -0.9632 -0.1106
vn 0.2129 -0.9676 -0.1357
vn 0.2917 -0.9302 -0.2228
vn 0.4174 -0.8967 -0.1477
vn 0.5319 -0.7833 -0.3216
vn 0.7807 -0.6038 -0.1611
vn 0.7259 -0.6863 -0.0445
vn 0.8089 -0.5872 0.0302
vn 0.7134 -0.6974 -0.0693
vn 0.6005 -0.7972 0.0630
vn 0.3980 -0.9043 0.1544
vn 0.3614 -0.9101 0.2027
vn 0.4236 -0.8885 0.1765
vn 0.4377 -0.8985 -0.0336
vn 0.2627 -0.9648 0.0064
vn 0.7135 -0.6972 -0.0693
vn 0.6550 -0.7285 -0.2007
vn 0.4601 -0.8842 0.0805
vn 0.3715 -0.9267 -0.0567
vn 0.4614 -0.8663 -0.1916
vn 0.5231 -0.8493 -0.0717
vn 0.3970 -0.9047 0.1546
vn 0.2873 -0.9578 0.0134
vn 0.3283 -0.9432 -0.0505
vn 0.3313 -0.9424 -0.0461
vn 0.3308 -0.9426 -0.0452
vn 0.2212 -0.9523 -0.2104
vn 0.4135 -0.8897 0.1935
vn 0.2826 -0.9588 0.0282
vn 0.2906 -0.9567 0.0128
vn 0.2501 -0.9674 -0.0385
vn 0.2461 -0.9688 -0.0295
vn 0.1462 -0.9758 -0.1626
vn 0.1604 -0.9675 -0.1954
vn 0.0124 -0.9221 -0.3867
vn 0.3364 -0.9211 0.1960
vn 0.1913 -0.9814 0.0137
vn 0.1778 -0.9829 0.0483
vn 0.1987 -0.9775 0.0708
vn 0.2398 -0.9701 -0.0367
vn 0.1124 -0.9792 -0.1687
vn 0.1044 -0.9832 -0.1494
vn -0.0795 -0.9272 -0.3660
vn -0.0848 -0.9338 -0.3475
vn -0.1164 -0.9153 -0.3857
vn 0.2627 -0.9649 0.0065
vn 0.2149 -0.9751 -0.0553
vn 0.1956 -0.9806 0.0128
vn 0.3677 -0.9091 0.1959
vn 0.4117 -0.9104 0.0415
vn 0.3084 -0.9500 -0.0485
vn 0.3905 -0.8871 -0.2459
vn 0.0849 -0.8661 -0.4926
vn 0.0481 -0.9042 -0.4244
vn -0.1181 -0.8016 -0.5861
vn -0.1986 -0.9168 -0.3465
vn -0.3110 -0.8381 -0.4481
vn 0.2390 -0.9709 0.0127
vn 0.1925 -0.9805 -0.0390
vn 0.1958 -0.9793 -0.0516
vn 0.4499 -0.8647 0.2234
vn 0.4576 -0.8702 0.1829
vn 0.3305 -0.9405 0.0786
vn 0.3685 -0.9276 -0.0609
vn 0.1543 -0.9636 -0.2184
vn 0.2469 -0.8145 -0.5250
vn 0.0992 -0.7831 -0.6139
vn 0.1169 -0.7395 -0.6629
vn -0.0177 -0.6676 -0.7443
vn -0.1030 -0.8247 -0.5561
vn -0.3083 -0.6678 -0.6775
vn -0.2918 -0.6666 -0.6859
vn -0.1476 -0.6861 -0.7123
vn -0.0802 -0.7962 -0.5997
vn -0.0222 -0.9825 -0.1847
vn 0.3072 -0.9477 0.0866
vn 0.5186 -0.8286 0.2110
vn 0.0596 -0.9980 -0.0226
vn -0.2374 -0.5590 -0.7945
vn -0.5246 -0.5119 -0.6802
vn -0.1639 -0.7370 -0.6557
vn -0.4715 -0.6735 -0.5692
vn -0.5424 -0.5559 -0.6299
vn -0.6659 -0.4917 -0.5611
vn -0.1474 -0.9517 -0.2694
vn -0.2817 -0.9299 -0.2365
vn -0.5138 -0.7537 -0.4098
vn -0.4806 -0.7661 -0.4267
vn -0.6669 -0.4930 -0.5588
vn -0.3309 -0.6235 -0.7084
vn -0.0354 -0.9913 -0.1266
vn 0.0264 -0.9882 -0.1510
vn -0.2611 -0.9108 -0.3198
vn -0.1847 -0.9170 -0.3535
vn -0.4527 -0.7417 -0.4950
vn -0.2268 -0.7728 -0.5928
vn -0.3788 -0.6788 -0.6290
vn -0.2236 -0.7118 -0.6659
vn 0.3126 -0.9481 0.0582
vn 0.3192 -0.9461 0.0557
vn 0.0137 -0.9947 -0.1015
vn 0.0748 -0.9892 -0.1258
vn -0.2209 -0.9461 -0.2368
vn -0.0922 -0.9529 -0.2890
vn -0.3243 -0.8774 -0.3536
vn -0.2786 -0.8864 -0.3697
vn -0.2701 -0.8899 -0.3677
vn -0.4176 -0.8461 -0.3314
vn 0.5232 -0.7975 0.3005
vn 0.4381 -0.8437 0.3101
vn 0.3142 -0.9187 0.2392
vn 0.2513 -0.9327 0.2586
vn 0.0343 -0.9848 0.1701
vn 0.0564 -0.9853 0.1614
vn -0.1788 -0.9765 0.1200
vn -0.0679 -0.9961 0.0572
vn -0.3448 -0.9384 0.0235
vn -0.3412 -0.9397 0.0213
vn -0.4131 -0.9106 0.0059
vn -0.6164 -0.7808 0.1019
vn 0.0865 -0.9746 0.2065
vn 0.1053 -0.9735 0.2030
vn 0.4382 -0.8436 0.3103
vn 0.3636 -0.8695 0.3342
vn 0.2547 -0.9190 0.3008
vn 0.0712 -0.9250 0.3733
vn 0.0311 -0.9296 0.3672
vn 0.0930 -0.9382 0.3333
vn -0.1212 -0.9447 0.3046
vn -0.1268 -0.9427 0.3087
vn -0.3490 -0.9070 0.2356
vn -0.4788 -0.8188 0.3166
vn -0.5827 -0.7657 0.2724
vn -0.7593 -0.5505 0.3470
vn -0.7681 -0.5590 0.3124
vn -0.4778 -0.8168 0.3234
vn -0.1269 -0.9620 0.2418
vn 0.1256 -0.9734 0.1918
vn 0.0733 -0.9302 0.3598
vn 0.3594 -0.8895 0.2823
vn 0.1373 -0.9288 0.3442
vn -0.6196 -0.6787 0.3943
vn -0.6188 -0.7743 0.1325
vn -0.3776 -0.8449 0.3789
vn -0.3919 -0.9120 0.1214
vn -0.4655 -0.8652 0.1862
vn -0.4284 -0.8839 -0.1874
vn -0.0340 -0.9558 0.2921
vn -0.0556 -0.9985 -0.0003
vn -0.2910 -0.9388 0.1843
vn -0.3229 -0.8984 -0.2975
vn -0.4375 -0.8778 -0.1951
vn -0.4498 -0.8339 -0.3200
vn 0.2952 -0.9310 0.2146
vn 0.2623 -0.9526 -0.1541
vn -0.1032 -0.9938 -0.0412
vn -0.2838 -0.7875 -0.5471
vn -0.4437 -0.7657 -0.4656
vn -0.4471 -0.8364 -0.3170
vn -0.4468 -0.8365 -0.3172
vn -0.4964 -0.8646 0.0781
vn 0.2385 -0.8972 0.3717
vn 0.1662 -0.7728 -0.6126
vn -0.1189 -0.8745 -0.4703
vn -0.1188 -0.8757 -0.4681
vn -0.1521 -0.8818 -0.4463
vn -0.2141 -0.9654 -0.1490
vn -0.1234 -0.9660 -0.2270
vn -0.1794 -0.9725 0.1483
vn -0.1907 -0.9689 0.1575
vn -0.1968 -0.8829 0.4264
vn 0.2752 -0.9228 0.2697
vn 0.2779 -0.8551 -0.4378
vn 0.3896 -0.7694 -0.5063
vn 0.3763 -0.8356 -0.4002
vn 0.3505 -0.8559 -0.3803
vn 0.2865 -0.9575 -0.0337
vn 0.3644 -0.9240 -0.1156
vn 0.3427 -0.9231 0.1747
vn 0.2820 -0.9295 0.2375
vn 0.2952 -0.8772 0.3788
vn 0.1796 -0.8385 0.5145
vn 0.1806 -0.8354 0.5192
vn -0.0257 -0.9517 0.3060
vn -0.0664 -0.9971 -0.0363
vn 0.4931 -0.7760 -0.3933
vn 0.4868 -0.8462 -0.2169
vn 0.7222 -0.5711 -0.3902
vn 0.7368 -0.6666 -0.1132
vn 0.7006 -0.7099 -0.0720
vn 0.7308 -0.6702 0.1293
vn 0.6200 -0.7549 0.2138
vn 0.6282 -0.7354 0.2542
vn 0.4507 -0.7877 0.4200
vn 0.4571 -0.7631 0.4568
vn 0.3638 -0.7404 0.5653
vn 0.3552 -0.7755 0.5220
vn 0.7618 -0.6462 0.0460
vn 0.6298 -0.7674 -0.1204
vn 0.3440 -0.9297 -0.1318
vn 0.1131 -0.9852 -0.1291
vn 0.3371 -0.9393 -0.0645
vn 0.4991 -0.8611 0.0968
vn 0.6285 -0.7778 -0.0097
vn 0.7458 -0.6626 0.0692
vn 0.6225 -0.7756 0.1044
vn 0.5026 -0.8638 0.0360
vn 0.5221 -0.8523 0.0311
vn 0.5965 -0.7903 0.1398
vn 0.4174 -0.8905 0.1809
vn 0.2366 -0.9714 -0.0199
vn 0.1723 -0.9850 -0.0127
vn 0.3756 -0.9035 0.2065
vn 0.3111 -0.9258 0.2147
vn 0.3536 -0.8970 0.2652
vn 0.4041 -0.8777 0.2575
vn 0.1888 -0.9609 -0.2028
vn 0.1775 -0.9630 -0.2029
vn 0.2646 -0.9573 -0.1166
vn 0.3202 -0.9400 -0.1178
vn 0.4529 -0.8908 0.0364
vn 0.4216 -0.9060 0.0381
vn 0.4914 -0.8612 0.1297
vn 0.3951 -0.9080 0.1392
vn 0.3401 -0.9380 -0.0675
vn 0.5607 -0.8266 -0.0497
vn 0.2931 -0.8954 -0.3353
vn 0.3783 -0.8647 -0.3304
vn 0.4369 -0.8585 -0.2684
vn 0.3245 -0.9061 -0.2715
vn 0.4951 -0.8662 -0.0669
vn 0.5411 -0.8383 -0.0677
vn 0.5322 -0.8428 -0.0805
vn 0.4047 -0.9110 -0.0794
vn 0.6109 -0.7911 -0.0307
vn 0.5342 -0.8444 -0.0408
vn 0.5446 -0.8382 -0.0282
vn 0.5257 -0.8502 -0.0297
vn 0.3296 -0.9050 -0.2690
vn 0.2815 -0.9201 -0.2723
vn 0.3035 -0.9206 -0.2459
vn 0.1871 -0.9500 -0.2500
vn 0.4389 -0.8944 0.0857
vn 0.2666 -0.9598 0.0881
vn 0.2846 -0.9521 0.1117
vn 0.3466 -0.9315 0.1100
vn 0.6285 -0.7777 -0.0098
vn 0.4991 -0.8653 -0.0469
vn 0.5189 -0.8547 -0.0183
vn 0.2881 -0.9548 -0.0730
vn 0.4126 -0.9034 0.1172
vn 0.1118 -0.9917 0.0630
vn 0.0575 -0.9982 -0.0191
vn 0.0766 -0.9969 -0.0160
vn 0.0379 -0.9966 -0.0729
vn 0.2053 -0.9772 -0.0536
vn 0.2848 -0.9566 0.0619
vn 0.1761 -0.9828 0.0560
vn 0.2857 -0.9370 0.2011
vn 0.3041 -0.9312 0.2009
vn 0.4069 -0.7427 0.5318
vn 0.4449 -0.7707 0.4561
vn 0.4213 -0.8654 0.2712
vn 0.2715 -0.9604 0.0627
vn 0.4989 -0.8606 -0.1027
vn 0.3236 -0.9223 -0.2113
vn -0.0133 -0.9997 -0.0204
vn 0.4353 -0.7456 0.5046
vn 0.4139 -0.7580 0.5041
vn 0.3608 -0.7741 0.5203
vn 0.2939 -0.7955 0.5299
vn 0.2624 -0.7197 0.6428
vn 0.2876 -0.7100 0.6428
vn 0.3262 -0.8860 0.3294
vn 0.1801 -0.9262 0.3313
vn 0.1792 -0.7630 0.6211
vn 0.1568 -0.7674 0.6217
vn 0.1409 -0.6257 0.7672
vn 0.2481 -0.5813 0.7749
vn 0.5056 -0.8599 -0.0701
vn 0.3031 -0.9455 -0.1195
vn 0.3851 -0.9072 0.1695
vn -0.0181 -0.9872 0.1583
vn 0.1114 -0.7478 0.6545
vn 0.0692 -0.7525 0.6550
vn 0.1195 -0.4854 0.8661
vn 0.1782 -0.4593 0.8702
vn 0.3702 -0.9277 0.0485
vn 0.3326 -0.9419 0.0469
vn 0.3003 -0.9467 -0.1165
vn 0.0239 -0.9840 -0.1765
vn 0.0972 -0.9928 0.0703
vn -0.0193 -0.9978 0.0642
vn 0.1965 -0.8043 0.5608
vn 0.1199 -0.8193 0.5607
vn 0.2934 -0.5354 0.7920
vn 0.2256 -0.5668 0.7924
vn 0.0169 -0.9976 0.0676
vn 0.1596 -0.9825 0.0964
vn 0.2076 -0.9539 0.2169
vn 0.1818 -0.9606 0.2104
vn 0.0262 -0.9834 -0.1793
vn 0.1156 -0.9814 -0.1535
vn 0.1371 -0.9858 -0.0966
vn 0.1024 -0.9898 -0.0994
vn 0.3758 -0.8642 0.3345
vn 0.1658 -0.9287 0.3317
vn 0.4724 -0.6409 0.6051
vn 0.2110 -0.7804 0.5886
vn 0.0174 -0.9981 -0.0599
vn 0.2113 -0.9774 0.0070
vn 0.2207 -0.9749 0.0284
vn 0.1480 -0.9889 0.0119
vn 0.2320 -0.9601 0.1563
vn -0.0299 -0.9952 0.0933
vn -0.0524 -0.9973 0.0522
vn 0.0892 -0.9920 0.0888
vn 0.0345 -0.9992 -0.0183
vn 0.2228 -0.9747 0.0192
vn 0.3217 -0.9329 0.1617
vn 0.3572 -0.9188 0.1682
vn 0.4746 -0.8271 0.3012
vn 0.5309 -0.7881 0.3115
s 0
f 1//1 20//1 19//1
f 2//2 26//2 40//2
f 1//3 19//3 54//3
f 1//4 54//4 68//4
f 1//5 68//5 41//5
f 2//6 40//6 89//6
f 3//7 33//7 103//7
f 4//8 61//8 117//8
f 5//9 75//9 131//9
f 6//10 82//10 145//10
f 2//11 89//11 104//11
f 3//12 103//12 118//12
f 4//13 117//13 132//13
f 5//14 131//14 146//14
f 6//15 145//15 90//15
f 7//16 159//16 194//16
f 8//17 166//17 208//17
f 9//18 173//18 215//18
f 10//19 180//19 222//19
f 11//20 187//20 195//20
f 201//21 216//21 12//21
f 200//22 223//22 201//22
f 199//23 224//23 200//23
f 198//24 226//24 199//24
f 197//25 229//25 198//25
f 196//26 233//26 197//26
f 195//27 238//27 196//27
f 201//28 223//28 216//28
f 223//29 217//29 216//29
f 200//30 224//30 223//30
f 224//31 225//31 223//31
f 223//32 225//32 217//32
f 225//33 218//33 217//33
f 199//34 226//34 224//34
f 226//35 227//35 224//35
f 224//36 227//36 225//36
f 227//37 228//37 225//37
f 225//38 228//38 218//38
f 228//39 219//39 218//39
f 198//40 229//40 226//40
f 229//41 230//41 226//41
f 226//42 230//42 227//42
f 230//43 231//43 227//43
f 227//44 231//44 228//44
f 231//45 232//45 228//45
f 228//46 232//46 219//46
f 232//47 220//47 219//47
f 197//48 233//48 229//48
f 233//49 234//49 229//49
f 229//50 234//50 230//50
f 234//51 235//51 230//51
f 230//52 235//52 231//52
f 235//53 236//53 231//53
f 231//54 236//54 232//54
f 236//55 237//55 232//55
f 232//56 237//56 220//56
f 237//57 221//57 220//57
f 196//58 238//58 233//58
f 238//59 239//59 233//59
f 233//60 239//60 234//60
f 239//61 240//61 234//61
f 234//62 240//62 235//62
f 240//63 241//63 235//63
f 235//64 241//64 236//64
f 241//65 242//65 236//65
f 236//66 242//66 237//66
f 242//67 243//67 237//67
f 237//68 243//68 221//68
f 243//69 222//69 221//69
f 195//70 187//70 238//70
f 187//71 186//71 238//71
f 238//72 186//72 239//72
f 186//73 185//73 239//73
f 239//74 185//74 240//74
f 185//75 184//75 240//75
f 240//76 184//76 241//76
f 184//77 183//77 241//77
f 241//78 183//78 242//78
f 183//79 182//79 242//79
f 242//80 182//80 243//80
f 182//81 181//81 243//81
f 243//82 181//82 222//82
f 181//83 10//83 222//83
f 216//84 209//84 12//84
f 217//85 244//85 216//85
f 218//86 245//86 217//86
f 219//87 247//87 218//87
f 220//88 250//88 219//88
f 221//89 254//89 220//89
f 222//90 259//90 221//90
f 216//91 244//91 209//91
f 244//92 210//92 209//92
f 217//93 245//93 244//93
f 245//94 246//94 244//94
f 244//95 246//95 210//95
f 246//96 211//96 210//96
f 218//97 247//97 245//97
f 247//98 248//98 245//98
f 245//99 248//99 246//99
f 248//100 249//100 246//100
f 246//101 249//101 211//101
f 249//102 212//102 211//102
f 219//103 250//103 247//103
f 250//104 251//104 247//104
f 247//105 251//105 248//105
f 251//106 252//106 248//106
f 248//107 252//107 249//107
f 252//108 253//108 249//108
f 249//109 253//109 212//109
f 253//110 213//110 212//110
f 220//111 254//111 250//111
f 254//112 255//112 250//112
f 250//113 255//113 251//113
f 255//114 256//114 251//114
f 251//115 256//115 252//115
f 256//116 257//116 252//116
f 252//117 257//117 253//117
f 257//118 258//118 253//118
f 253//119 258//119 213//119
f 258//120 214//120 213//120
f 221//121 259//121 254//121
f 259//122 260//122 254//122
f 254//123 260//123 255//123
f 260//124 261//124 255//124
f 255//125 261//125 256//125
f 261//126 262//126 256//126
f 256//127 262//127 257//127
f 262//128 263//128 257//128
f 257//129 263//129 258//129
f 263//130 264//130 258//130
f 258//131 264//131 214//131
f 264//132 215//132 214//132
f 222//133 180//133 259//133
f 180//134 179//134 259//134
f 259//135 179//135 260//135
f 179//136 178//136 260//136
f 260//137 178//137 261//137
f 178//138 177//138 261//138
f 261//139 177//139 262//139
f 177//140 176//140 262//140
f 262//141 176//141 263//141
f 176//142 175//142 263//142
f 263//143 175//143 264//143
f 175//144 174//144 264//144
f 264//145 174//145 215//145
f 174//146 9//146 215//146
f 209//147 202//147 12//147
f 210//148 265//148 209//148
f 211//149 266//149 210//149
f 212//150 268//150 211//150
f 213//151 271//151 212//151
f 214//152 275//152 213//152
f 215//153 280//153 214//153
f 209//154 265//154 202//154
f 265//155 203//155 202//155
f 210//156 266//156 265//156
f 266//157 267//157 265//157
f 265//158 267//158 203//158
f 267//159 204//159 203//159
f 211//160 268//160 266//160
f 268//161 269//161 266//161
f 266//162 269//162 267//162
f 269//163 270//163 267//163
f 267//164 270//164 204//164
f 270//165 205//165 204//165
f 212//166 271//166 268//166
f 271//167 272//167 268//167
f 268//168 272//168 269//168
f 272//169 273//169 269//169
f 269//170 273//170 270//170
f 273//171 274//171 270//171
f 270//172 274//172 205//172
f 274//173 206//173 205//173
f 213//174 275//174 271//174
f 275//175 276//175 271//175
f 271//176 276//176 272//176
f 276//177 277//177 272//177
f 272//178 277//178 273//178
f 277//179 278//179 273//179
f 273//180 278//180 274//180
f 278//181 279//181 274//181
f 274//182 279//182 206//182
f 279//183 207//183 206//183
f 214//184 280//184 275//184
f 280//185 281//185 275//185
f 275//186 281//186 276//186
f 281//187 282//187 276//187
f 276//188 282//188 277//188
f 282//189 283//189 277//189
f 277//190 283//190 278//190
f 283//191 284//191 278//191
f 278//192 284//192 279//192
f 284//193 285//193 279//193
f 279//194 285//194 207//194
f 285//195 208//195 207//195
f 215//196 173//196 280//196
f 173//197 172//197 280//197
f 280//198 172//198 281//198
f 172//199 171//199 281//199
f 281//200 171//200 282//200
f 171//201 170//201 282//201
f 282//202 170//202 283//202
f 170//203 169//203 283//203
f 283//204 169//204 284//204
f 169//205 168//205 284//205
f 284//206 168//206 285//206
f 168//207 167//207 285//207
f 285//208 167//208 208//208
f 167//209 8//209 208//209
f 202//210 188//210 12//210
f 203//211 286//211 202//211
f 204//212 287//212 203//212
f 205//213 289//213 204//213
f 206//214 292//214 205//214
f 207//215 296//215 206//215
f 208//216 301//216 207//216
f 202//217 286//217 188//217
f 286//218 189//218 188//218
f 203//219 287//219 286//219
f 287//220 288//220 286//220
f 286//221 288//221 189//221
f 288//222 190//222 189//222
f 204//223 289//223 287//223
f 289//224 290//224 287//224
f 287//225 290//225 288//225
f 290//226 291//226 288//226
f 288//227 291//227 190//227
f 291//228 191//228 190//228
f 205//229 292//229 289//229
f 292//230 293//230 289//230
f 289//231 293//231 290//231
f 293//232 294//232 290//232
f 290//233 294//233 291//233
f 294//234 295//234 291//234
f 291//235 295//235 191//235
f 295//236 192//236 191//236
f 206//237 296//237 292//237
f 296//238 297//238 292//238
f 292//239 297//239 293//239
f 297//240 298//240 293//240
f 293//241 298//241 294//241
f 298//242 299//242 294//242
f 294//243 299//243 295//243
f 299//244 300//244 295//244
f 295//245 300//245 192//245
f 300//246 193//246 192//246
f 207//247 301//247 296//247
f 301//248 302//248 296//248
f 296//249 302//249 297//249
f 302//250 303//250 297//250
f 297//251 303//251 298//251
f 303//252 304//252 298//252
f 298//253 304//253 299//253
f 304//254 305//254 299//254
f 299//255 305//255 300//255
f 305//256 306//256 300//256
f 300//257 306//257 193//257
f 306//258 194//258 193//258
f 208//259 166//259 301//259
f 166//260 165//260 301//260
f 301//261 165//261 302//261
f 165//262 164//262 302//262
f 302//263 164//263 303//263
f 164//264 163//264 303//264
f 303//265 163//265 304//265
f 163//266 162//266 304//266
f 304//267 162//267 305//267
f 162//268 161//268 305//268
f 305//269 161//269 306//269
f 161//270 160//270 306//270
f 306//271 160//271 194//271
f 160//272 7//272 194//272
f 188//273 201//273 12//273
f 189//274 307//274 188//274
f 190//275 308//275 189//275
f 191//276 310//276 190//276
f 192//277 313//277 191//277
f 193//278 317//278 192//278
f 194//279 322//279 193//279
f 188//280 307//280 201//280
f 307//281 200//281 201//281
f 189//282 308//282 307//282
f 308//283 309//283 307//283
f 307//284 309//284 200//284
f 309//285 199//285 200//285
f 190//286 310//286 308//286
f 310//287 311//287 308//287
f 308//288 311//288 309//288
f 311//289 312//289 309//289
f 309//290 312//290 199//290
f 312//291 198//291 199//291
f 191//292 313//292 310//292
f 313//293 314//293 310//293
f 310//294 314//294 311//294
f 314//295 315//295 311//295
f 311//296 315//296 312//296
f 315//297 316//297 312//297
f 312//298 316//298 198//298
f 316//299 197//299 198//299
f 192//300 317//300 313//300
f 317//301 318//301 313//301
f 313//302 318//302 314//302
f 318//303 319//303 314//303
f 314//304 319//304 315//304
f 319//305 320//305 315//305
f 315//306 320//306 316//306
f 320//307 321//307 316//307
f 316//308 321//308 197//308
f 321//309 196//309 197//309
f 193//310 322//310 317//310
f 322//311 323//311 317//311
f 317//312 323//312 318//312
f 323//313 324//313 318//313
f 318//314 324//314 319//314
f 324//315 325//315 319//315
f 319//316 325//316 320//316
f 325//317 326//317 320//317
f 320//318 326//318 321//318
f 326//319 327//319 321//319
f 321//320 327//320 196//320
f 327//321 195//321 196//321
f 194//322 159//322 322//322
f 159//323 158//323 322//323
f 322//324 158//324 323//324
f 158//325 157//325 323//325
f 323//326 157//326 324//326
f 157//327 156//327 324//327
f 324//328 156//328 325//328
f 156//329 155//329 325//329
f 325//330 155//330 326//330
f 155//331 154//331 326//331
f 326//332 154//332 327//332
f 154//333 153//333 327//333
f 327//334 153//334 195//334
f 153//335 11//335 195//335
f 96//336 187//336 11//336
f 95//337 328//337 96//337
f 94//338 329//338 95//338
f 93//339 331//339 94//339
f 92//340 334//340 93//340
f 91//341 338//341 92//341
f 90//342 343//342 91//342
f 96//343 328//343 187//343
f 328//344 186//344 187//344
f 95//345 329//345 328//345
f 329//346 330//346 328//346
f 328//347 330//347 186//347
f 330//348 185//348 186//348
f 94//349 331//349 329//349
f 331//350 332//350 329//350
f 329//351 332//351 330//351
f 332//352 333//352 330//352
f 330//353 333//353 185//353
f 333//354 184//354 185//354
f 93//355 334//355 331//355
f 334//356 335//356 331//356
f 331//357 335//357 332//357
f 335//358 336//358 332//358
f 332//359 336//359 333//359
f 336//360 337//360 333//360
f 333//361 337//361 184//361
f 337//77 183//77 184//77
f 92//362 338//362 334//362
f 338//363 339//363 334//363
f 334//364 339//364 335//364
f 339//365 340//365 335//365
f 335//366 340//366 336//366
f 340//367 341//367 336//367
f 336//368 341//368 337//368
f 341//369 342//369 337//369
f 337//370 342//370 183//370
f 342//371 182//371 183//371
f 91//372 343//372 338//372
f 343//373 344//373 338//373
f 338//374 344//374 339//374
f 344//375 345//375 339//375
f 339//376 345//376 340//376
f 345//377 346//377 340//377
f 340//378 346//378 341//378
f 346//379 347//379 341//379
f 341//380 347//380 342//380
f 347//381 348//381 342//381
f 342//382 348//382 182//382
f 348//383 181//383 182//383
f 90//384 145//384 343//384
f 145//385 144//385 343//385
f 343//386 144//386 344//386
f 144//387 143//387 344//387
f 344//388 143//388 345//388
f 143//389 142//389 345//389
f 345//390 142//390 346//390
f 142//391 141//391 346//391
f 346//392 141//392 347//392
f 141//393 140//393 347//393
f 347//394 140//394 348//394
f 140//395 139//395 348//395
f 348//396 139//396 181//396
f 139//397 10//397 181//397
f 152//398 180//398 10//398
f 151//399 349//399 152//399
f 150//400 350//400 151//400
f 149//401 352//401 150//401
f 148//402 355//402 149//402
f 147//403 359//403 148//403
f 146//404 364//404 147//404
f 152//405 349//405 180//405
f 349//406 179//406 180//406
f 151//407 350//407 349//407
f 350//408 351//408 349//408
f 349//409 351//409 179//409
f 351//410 178//410 179//410
f 150//411 352//411 350//411
f 352//412 353//412 350//412
f 350//413 353//413 351//413
f 353//414 354//414 351//414
f 351//415 354//415 178//415
f 354//416 177//416 178//416
f 149//417 355//417 352//417
f 355//418 356//418 352//418
f 352//419 356//419 353//419
f 356//420 357//420 353//420
f 353//421 357//421 354//421
f 357//422 358//422 354//422
f 354//423 358//423 177//423
f 358//424 176//424 177//424
f 148//425 359//425 355//425
f 359//426 360//426 355//426
f 355//427 360//427 356//427
f 360//428 361//428 356//428
f 356//429 361//429 357//429
f 361//430 362//430 357//430
f 357//431 362//431 358//431
f 362//432 363//432 358//432
f 358//433 363//433 176//433
f 363//434 175//434 176//434
f 147//435 364//435 359//435
f 364//436 365//436 359//436
f 359//437 365//437 360//437
f 365//438 366//438 360//438
f 360//439 366//439 361//439
f 366//440 367//440 361//440
f 361//441 367//441 362//441
f 367//442 368//442 362//442
f 362//443 368//443 363//443
f 368//444 369//444 363//444
f 363//445 369//445 175//445
f 369//446 174//446 175//446
f 146//447 131//447 364//447
f 131//448 130//448 364//448
f 364//449 130//449 365//449
f 130//450 129//450 365//450
f 365//451 129//451 366//451
f 129//452 128//452 366//452
f 366//453 128//453 367//453
f 128//454 127//454 367//454
f 367//455 127//455 368//455
f 127//456 126//456 368//456
f 368//457 126//457 369//457
f 126//458 125//458 369//458
f 369//459 125//459 174//459
f 125//460 9//460 174//460
f 138//461 173//461 9//461
f 137//462 370//462 138//462
f 136//463 371//463 137//463
f 135//464 373//464 136//464
f 134//465 376//465 135//465
f 133//466 380//466 134//466
f 132//467 385//467 133//467
f 138//468 370//468 173//468
f 370//469 172//469 173//469
f 137//470 371//470 370//470
f 371//471 372//471 370//471
f 370//472 372//472 172//472
f 372//473 171//473 172//473
f 136//474 373//474 371//474
f 373//475 374//475 371//475
f 371//476 374//476 372//476
f 374//477 375//477 372//477
f 372//478 375//478 171//478
f 375//479 170//479 171//479
f 135//480 376//480 373//480
f 376//481 377//481 373//481
f 373//482 377//482 374//482
f 377//483 378//483 374//483
f 374//484 378//484 375//484
f 378//485 379//485 375//485
f 375//486 379//486 170//486
f 379//487 169//487 170//487
f 134//488 380//488 376//488
f 380//489 381//489 376//489
f 376//490 381//490 377//490
f 381//491 382//491 377//491
f 377//492 382//492 378//492
f 382//493 383//493 378//493
f 378//494 383//494 379//494
f 383//495 384//495 379//495
f 379//496 384//496 169//496
f 384//497 168//497 169//497
f 133//498 385//498 380//498
f 385//499 386//499 380//499
f 380//500 386//500 381//500
f 386//501 387//501 381//501
f 381//502 387//502 382//502
f 387//503 388//503 382//503
f 382//504 388//504 383//504
f 388//505 389//505 383//505
f 383//506 389//506 384//506
f 389//507 390//507 384//507
f 384//508 390//508 168//508
f 390//509 167//509 168//509
f 132//510 117//510 385//510
f 117//511 116//511 385//511
f 385//512 116//512 386//512
f 116//513 115//513 386//513
f 386//514 115//514 387//514
f 115//515 114//515 387//515
f 387//516 114//516 388//516
f 114//517 113//517 388//517
f 388//518 113//518 389//518
f 113//519 112//519 389//519
f 389//520 112//520 390//520
f 112//521 111//521 390//521
f 390//522 111//522 167//522
f 111//523 8//523 167//523
f 124//524 166//524 8//524
f 123//525 391//525 124//525
f 122//526 392//526 123//526
f 121//527 394//527 122//527
f 120//528 397//528 121//528
f 119//529 401//529 120//529
f 118//530 406//530 119//530
f 124//531 391//531 166//531
f 391//532 165//532 166//532
f 123//533 392//533 391//533
f 392//534 393//534 391//534
f 391//535 393//535 165//535
f 393//536 164//536 165//536
f 122//537 394//537 392//537
f 394//538 395//538 392//538
f 392//539 395//539 393//539
f 395//540 396//540 393//540
f 393//541 396//541 164//541
f 396//542 163//542 164//542
f 121//543 397//543 394//543
f 397//544 398//544 394//544
f 394//545 398//545 395//545
f 398//546 399//546 395//546
f 395//547 399//547 396//547
f 399//548 400//548 396//548
f 396//549 400//549 163//549
f 400//550 162//550 163//550
f 120//551 401//551 397//551
f 401//552 402//552 397//552
f 397//553 402//553 398//553
f 402//554 403//554 398//554
f 398//555 403//555 399//555
f 403//556 404//556 399//556
f 399//557 404//557 400//557
f 404//558 405//558 400//558
f 400//559 405//559 162//559
f 405//560 161//560 162//560
f 119//561 406//561 401//561
f 406//562 407//562 401//562
f 401//563 407//563 402//563
f 407//564 408//564 402//564
f 402//565 408//565 403//565
f 408//566 409//566 403//566
f 403//567 409//567 404//567
f 409//568 410//568 404//568
f 404//569 410//569 405//569
f 410//570 411//570 405//570
f 405//571 411//571 161//571
f 411//572 160//572 161//572
f 118//573 103//573 406//573
f 103//574 102//574 406//574
f 406//575 102//575 407//575
f 102//576 101//576 407//576
f 407//577 101//577 408//577
f 101//578 100//578 408//578
f 408//579 100//579 409//579
f 100//580 99//580 409//580
f 409//581 99//581 410//581
f 99//582 98//582 410//582
f 410//583 98//583 411//583
f 98//584 97//584 411//584
f 411//585 97//585 160//585
f 97//586 7//586 160//586
f 110//587 159//587 7//587
f 109//588 412//588 110//588
f 108//589 413//589 109//589
f 107//590 415//590 108//590
f 106//591 418//591 107//591
f 105//592 422//592 106//592
f 104//593 427//593 105//593
f 110//594 412//594 159//594
f 412//595 158//595 159//595
f 109//596 413//596 412//596
f 413//597 414//597 412//597
f 412//598 414//598 158//598
f 414//599 157//599 158//599
f 108//600 415//600 413//600
f 415//601 416//601 413//601
f 413//602 416//602 414//602
f 416//603 417//603 414//603
f 414//604 417//604 157//604
f 417//605 156//605 157//605
f 107//606 418//606 415//606
f 418//607 419//607 415//607
f 415//608 419//608 416//608
f 419//609 420//609 416//609
f 416//610 420//610 417//610
f 420//611 421//611 417//611
f 417//612 421//612 156//612
f 421//613 155//613 156//613
f 106//614 422//614 418//614
f 422//615 423//615 418//615
f 418//616 423//616 419//616
f 423//617 424//617 419//617
f 419//618 424//618 420//618
f 424//619 425//619 420//619
f 420//620 425//620 421//620
f 425//621 426//621 421//621
f 421//622 426//622 155//622
f 426//623 154//623 155//623
f 105//624 427//624 422//624
f 427//625 428//625 422//625
f 422//626 428//626 423//626
f 428//627 429//627 423//627
f 423//628 429//628 424//628
f 429//629 430//629 424//629
f 424//630 430//630 425//630
f 430//631 431//631 425//631
f 425//632 431//632 426//632
f 431//633 432//633 426//633
f 426//634 432//634 154//634
f 432//635 153//635 154//635
f 104//636 89//636 427//636
f 89//637 88//637 427//637
f 427//638 88//638 428//638
f 88//639 87//639 428//639
f 428//640 87//640 429//640
f 87//641 86//641 429//641
f 429//642 86//642 430//642
f 86//643 85//643 430//643
f 430//644 85//644 431//644
f 85//645 84//645 431//645
f 431//646 84//646 432//646
f 84//647 83//647 432//647
f 432//648 83//648 153//648
f 83//649 11//649 153//649
f 139//650 152//650 10//650
f 140//651 433//651 139//651
f 141//652 434//652 140//652
f 142//653 436//653 141//653
f 143//654 439//654 142//654
f 144//655 443//655 143//655
f 145//656 448//656 144//656
f 139//657 433//657 152//657
f 433//658 151//658 152//658
f 140//659 434//659 433//659
f 434//660 435//660 433//660
f 433//661 435//661 151//661
f 435//662 150//662 151//662
f 141//663 436//663 434//663
f 436//664 437//664 434//664
f 434//665 437//665 435//665
f 437//666 438//666 435//666
f 435//667 438//667 150//667
f 438//668 149//668 150//668
f 142//669 439//669 436//669
f 439//670 440//670 436//670
f 436//671 440//671 437//671
f 440//672 441//672 437//672
f 437//673 441//673 438//673
f 441//674 442//674 438//674
f 438//675 442//675 149//675
f 442//676 148//676 149//676
f 143//677 443//677 439//677
f 443//678 444//678 439//678
f 439//679 444//679 440//679
f 444//680 445//680 440//680
f 440//681 445//681 441//681
f 445//682 446//682 441//682
f 441//683 446//683 442//683
f 446//684 447//684 442//684
f 442//685 447//685 148//685
f 447//686 147//686 148//686
f 144//687 448//687 443//687
f 448//688 449//688 443//688
f 443//689 449//689 444//689
f 449//690 450//690 444//690
f 444//691 450//691 445//691
f 450//692 451//692 445//692
f 445//693 451//693 446//693
f 451//694 452//694 446//694
f 446//695 452//695 447//695
f 452//696 453//696 447//696
f 447//697 453//697 147//697
f 453//698 146//698 147//698
f 145//699 82//699 448//699
f 82//700 81//700 448//700
f 448//701 81//701 449//701
f 81//702 80//702 449//702
f 449//703 80//703 450//703
f 80//704 79//704 450//704
f 450//705 79//705 451//705
f 79//706 78//706 451//706
f 451//707 78//707 452//707
f 78//708 77//708 452//708
f 452//709 77//709 453//709
f 77//710 76//710 453//710
f 453//711 76//711 146//711
f 76//712 5//712 146//712
f 125//713 138//713 9//713
f 126//714 454//714 125//714
f 127//715 455//715 126//715
f 128//716 457//716 127//716
f 129//717 460//717 128//717
f 130//718 464//718 129//718
f 131//719 469//719 130//719
f 125//720 454//720 138//720
f 454//721 137//721 138//721
f 126//722 455//722 454//722
f 455//723 456//723 454//723
f 454//724 456//724 137//724
f 456//725 136//725 137//725
f 127//726 457//726 455//726
f 457//727 458//727 455//727
f 455//728 458//728 456//728
f 458//729 459//729 456//729
f 456//730 459//730 136//730
f 459//731 135//731 136//731
f 128//732 460//732 457//732
f 460//733 461//733 457//733
f 457//734 461//734 458//734
f 461//735 462//735 458//735
f 458//736 462//736 459//736
f 462//737 463//737 459//737
f 459//738 463//738 135//738
f 463//739 134//739 135//739
f 129//740 464//740 460//740
f 464//741 465//741 460//741
f 460//742 465//742 461//742
f 465//743 466//743 461//743
f 461//744 466//744 462//744
f 466//745 467//745 462//745
f 462//746 467//746 463//746
f 467//747 468//747 463//747
f 463//748 468//748 134//748
f 468//749 133//749 134//749
f 130//750 469//750 464//750
f 469//751 470//751 464//751
f 464//752 470//752 465//752
f 470//753 471//753 465//753
f 465//754 471//754 466//754
f 471//755 472//755 466//755
f 466//756 472//756 467//756
f 472//757 473//757 467//757
f 467//758 473//758 468//758
f 473//759 474//759 468//759
f 468//760 474//760 133//760
f 474//761 132//761 133//761
f 131//762 75//762 469//762
f 75//763 74//763 469//763
f 469//764 74//764 470//764
f 74//765 73//765 470//765
f 470//766 73//766 471//766
f 73//767 72//767 471//767
f 471//768 72//768 472//768
f 72//769 71//769 472//769
f 472//770 71//770 473//770
f 71//771 70//771 473//771
f 473//772 70//772 474//772
f 70//773 69//773 474//773
f 474//774 69//774 132//774
f 69//775 4//775 132//775
f 111//776 124//776 8//776
f 112//777 475//777 111//777
f 113//778 476//778 112//778
f 114//779 478//779 113//779
f 115//780 481//780 114//780
f 116//781 485//781 115//781
f 117//782 490//782 116//782
f 111//783 475//783 124//783
f 475//784 123//784 124//784
f 112//785 476//785 475//785
f 476//786 477//786 475//786
f 475//787 477//787 123//787
f 477//788 122//788 123//788
f 113//789 478//789 476//789
f 478//790 479//790 476//790
f 476//791 479//791 477//791
f 479//792 480//792 477//792
f 477//793 480//793 122//793
f 480//794 121//794 122//794
f 114//795 481//795 478//795
f 481//796 482//796 478//796
f 478//797 482//797 479//797
f 482//798 483//798 479//798
f 479//799 483//799 480//799
f 483//800 484//800 480//800
f 480//801 484//801 121//801
f 484//802 120//802 121//802
f 115//803 485//803 481//803
f 485//804 486//804 481//804
f 481//805 486//805 482//805
f 486//806 487//806 482//806
f 482//807 487//807 483//807
f 487//808 488//808 483//808
f 483//809 488//809 484//809
f 488//810 489//810 484//810
f 484//811 489//811 120//811
f 489//812 119//812 120//812
f 116//813 490//813 485//813
f 490//814 491//814 485//814
f 485//815 491//815 486//815
f 491//816 492//816 486//816
f 486//817 492//817 487//817
f 492//818 493//818 487//818
f 487//819 493//819 488//819
f 493//820 494//820 488//820
f 488//821 494//821 489//821
f 494//822 495//822 489//822
f 489//823 495//823 119//823
f 495//824 118//824 119//824
f 117//825 61//825 490//825
f 61//826 60//826 490//826
f 490//827 60//827 491//827
f 60//828 59//828 491//828
f 491//829 59//829 492//829
f 59//830 58//830 492//830
f 492//831 58//831 493//831
f 58//832 57//832 493//832
f 493//833 57//833 494//833
f 57//834 56//834 494//834
f 494//835 56//835 495//835
f 56//836 55//836 495//836
f 495//837 55//837 118//837
f 55//838 3//838 118//838
f 97//839 110//839 7//839
f 98//840 496//840 97//840
f 99//841 497//841 98//841
f 100//842 499//842 99//842
f 101//843 502//843 100//843
f 102//844 506//844 101//844
f 103//845 511//845 102//845
f 97//846 496//846 110//846
f 496//847 109//847 110//847
f 98//848 497//848 496//848
f 497//849 498//849 496//849
f 496//850 498//850 109//850
f 498//851 108//851 109//851
f 99//852 499//852 497//852
f 499//853 500//853 497//853
f 497//854 500//854 498//854
f 500//855 501//855 498//855
f 498//856 501//856 108//856
f 501//857 107//857 108//857
f 100//858 502//858 499//858
f 502//859 503//859 499//859
f 499//860 503//860 500//860
f 503//861 504//861 500//861
f 500//862 504//862 501//862
f 504//863 505//863 501//863
f 501//864 505//864 107//864
f 505//865 106//865 107//865
f 101//866 506//866 502//866
f 506//867 507//867 502//867
f 502//868 507//868 503//868
f 507//869 508//869 503//869
f 503//870 508//870 504//870
f 508//871 509//871 504//871
f 504//872 509//872 505//872
f 509//873 510//873 505//873
f 505//874 510//874 106//874
f 510//875 105//875 106//875
f 102//876 511//876 506//876
f 511//877 512//877 506//877
f 506//878 512//878 507//878
f 512//879 513//879 507//879
f 507//880 513//880 508//880
f 513//881 514//881 508//881
f 508//882 514//882 509//882
f 514//883 515//883 509//883
f 509//884 515//884 510//884
f 515//885 516//885 510//885
f 510//886 516//886 105//886
f 516//887 104//887 105//887
f 103//888 33//888 511//888
f 33//889 32//889 511//889
f 511//890 32//890 512//890
f 32//891 31//891 512//891
f 512//892 31//892 513//892
f 31//893 30//893 513//893
f 513//894 30//894 514//894
f 30//895 29//895 514//895
f 514//896 29//896 515//896
f 29//897 28//897 515//897
f 515//898 28//898 516//898
f 28//899 27//899 516//899
f 516//900 27//900 104//900
f 27//901 2//901 104//901
f 83//902 96//902 11//902
f 84//903 517//903 83//903
f 85//904 518//904 84//904
f 86//905 520//905 85//905
f 87//906 523//906 86//906
f 88//907 527//907 87//907
f 89//908 532//908 88//908
f 83//909 517//909 96//909
f 517//910 95//910 96//910
f 84//911 518//911 517//911
f 518//912 519//912 517//912
f 517//913 519//913 95//913
f 519//914 94//914 95//914
f 85//915 520//915 518//915
f 520//916 521//916 518//916
f 518//917 521//917 519//917
f 521//918 522//918 519//918
f 519//919 522//919 94//919
f 522//920 93//920 94//920
f 86//921 523//921 520//921
f 523//922 524//922 520//922
f 520//923 524//923 521//923
f 524//924 525//924 521//924
f 521//925 525//925 522//925
f 525//926 526//926 522//926
f 522//927 526//927 93//927
f 526//928 92//928 93//928
f 87//929 527//929 523//929
f 527//930 528//930 523//930
f 523//931 528//931 524//931
f 528//932 529//932 524//932
f 524//933 529//933 525//933
f 529//934 530//934 525//934
f 525//935 530//935 526//935
f 530//936 531//936 526//936
f 526//937 531//937 92//937
f 531//938 91//938 92//938
f 88//939 532//939 527//939
f 532//940 533//940 527//940
f 527//941 533//941 528//941
f 533//942 534//942 528//942
f 528//943 534//943 529//943
f 534//944 535//944 529//944
f 529//945 535//945 530//945
f 535//946 536//946 530//946
f 530//947 536//947 531//947
f 536//948 537//948 531//948
f 531//949 537//949 91//949
f 537//950 90//950 91//950
f 89//951 40//951 532//951
f 40//952 39//952 532//952
f 532//953 39//953 533//953
f 39//954 38//954 533//954
f 533//955 38//955 534//955
f 38//956 37//956 534//956
f 534//957 37//957 535//957
f 37//958 36//958 535//958
f 535//959 36//959 536//959
f 36//960 35//960 536//960
f 536//961 35//961 537//961
f 35//962 34//962 537//962
f 537//963 34//963 90//963
f 34//964 6//964 90//964
f 47//965 82//965 6//965
f 46//966 538//966 47//966
f 45//967 539//967 46//967
f 44//968 541//968 45//968
f 43//969 544//969 44//969
f 42//970 548//970 43//970
f 41//971 553//971 42//971
f 47//972 538//972 82//972
f 538//973 81//973 82//973
f 46//974 539//974 538//974
f 539//975 540//975 538//975
f 538//976 540//976 81//976
f 540//977 80//977 81//977
f 45//978 541//978 539//978
f 541//979 542//979 539//979
f 539//980 542//980 540//980
f 542//981 543//981 540//981
f 540//982 543//982 80//982
f 543//983 79//983 80//983
f 44//984 544//984 541//984
f 544//985 545//985 541//985
f 541//986 545//986 542//986
f 545//987 546//987 542//987
f 542//988 546//988 543//988
f 546//989 547//989 543//989
f 543//990 547//990 79//990
f 547//991 78//991 79//991
f 43//992 548//992 544//992
f 548//993 549//993 544//993
f 544//994 549//994 545//994
f 549//995 550//995 545//995
f 545//996 550//996 546//996
f 550//997 551//997 546//997
f 546//998 551//998 547//998
f 551//999 552//999 547//999
f 547//1000 552//1000 78//1000
f 552//1001 77//1001 78//1001
f 42//1002 553//1002 548//1002
f 553//1003 554//1003 548//1003
f 548//1004 554//1004 549//1004
f 554//1005 555//1005 549//1005
f 549//1006 555//1006 550//1006
f 555//1007 556//1007 550//1007
f 550//1008 556//1008 551//1008
f 556//1009 557//1009 551//1009
f 551//1010 557//1010 552//1010
f 557//1011 558//1011 552//1011
f 552//1012 558//1012 77//1012
f 558//1013 76//1013 77//1013
f 41//1014 68//1014 553//1014
f 68//1015 67//1015 553//1015
f 553//1016 67//1016 554//1016
f 67//1017 66//1017 554//1017
f 554//1018 66//1018 555//1018
f 66//1019 65//1019 555//1019
f 555//1020 65//1020 556//1020
f 65//1021 64//1021 556//1021
f 556//1022 64//1022 557//1022
f 64//1023 63//1023 557//1023
f 557//1024 63//1024 558//1024
f 63//1025 62//1025 558//1025
f 558//1026 62//1026 76//1026
f 62//1027 5//1027 76//1027
f 62//1028 75//1028 5//1028
f 63//1029 559//1029 62//1029
f 64//1030 560//1030 63//1030
f 65//1031 562//1031 64//1031
f 66//1032 565//1032 65//1032
f 67//1033 569//1033 66//1033
f 68//1034 574//1034 67//1034
f 62//1035 559//1035 75//1035
f 559//1036 74//1036 75//1036
f 63//1037 560//1037 559//1037
f 560//1038 561//1038 559//1038
f 559//1039 561//1039 74//1039
f 561//1040 73//1040 74//1040
f 64//1041 562//1041 560//1041
f 562//1042 563//1042 560//1042
f 560//1043 563//1043 561//1043
f 563//1044 564//1044 561//1044
f 561//1045 564//1045 73//1045
f 564//1046 72//1046 73//1046
f 65//1047 565//1047 562//1047
f 565//1048 566//1048 562//1048
f 562//1049 566//1049 563//1049
f 566//1050 567//1050 563//1050
f 563//1051 567//1051 564//1051
f 567//1052 568//1052 564//1052
f 564//1053 568//1053 72//1053
f 568//1054 71//1054 72//1054
f 66//1055 569//1055 565//1055
f 569//1056 570//1056 565//1056
f 565//1057 570//1057 566//1057
f 570//1058 571//1058 566//1058
f 566//1059 571//1059 567//1059
f 571//1060 572//1060 567//1060
f 567//1061 572//1061 568//1061
f 572//1062 573//1062 568//1062
f 568//1063 573//1063 71//1063
f 573//1064 70//1064 71//1064
f 67//1065 574//1065 569//1065
f 574//1066 575//1066 569//1066
f 569//1067 575//1067 570//1067
f 575//1068 576//1068 570//1068
f 570//1069 576//1069 571//1069
f 576//1070 577//1070 571//1070
f 571//1071 577//1071 572//1071
f 577//1072 578//1072 572//1072
f 572//1073 578//1073 573//1073
f 578//1074 579//1074 573//1074
f 573//1075 579//1075 70//1075
f 579//1076 69//1076 70//1076
f 68//1077 54//1077 574//1077
f 54//1078 53//1078 574//1078
f 574//1079 53//1079 575//1079
f 53//1080 52//1080 575//1080
f 575//1081 52//1081 576//1081
f 52//1082 51//1082 576//1082
f 576//1083 51//1083 577//1083
f 51//1084 50//1084 577//1084
f 577//1085 50//1085 578//1085
f 50//1086 49//1086 578//1086
f 578//1087 49//1087 579//1087
f 49//1088 48//1088 579//1088
f 579//1089 48//1089 69//1089
f 48//1090 4//1090 69//1090
f 48//1091 61//1091 4//1091
f 49//1092 580//1092 48//1092
f 50//1093 581//1093 49//1093
f 51//1094 583//1094 50//1094
f 52//1095 586//1095 51//1095
f 53//1096 590//1096 52//1096
f 54//1097 595//1097 53//1097
f 48//1098 580//1098 61//1098
f 580//1099 60//1099 61//1099
f 49//1100 581//1100 580//1100
f 581//1101 582//1101 580//1101
f 580//1102 582//1102 60//1102
f 582//1103 59//1103 60//1103
f 50//1104 583//1104 581//1104
f 583//1105 584//1105 581//1105
f 581//1106 584//1106 582//1106
f 584//1107 585//1107 582//1107
f 582//1108 585//1108 59//1108
f 585//1109 58//1109 59//1109
f 51//1110 586//1110 583//1110
f 586//1111 587//1111 583//1111
f 583//1112 587//1112 584//1112
f 587//1113 588//1113 584//1113
f 584//1114 588//1114 585//1114
f 588//1115 589//1115 585//1115
f 585//1116 589//1116 58//1116
f 589//1117 57//1117 58//1117
f 52//1118 590//1118 586//1118
f 590//1119 591//1119 586//1119
f 586//1120 591//1120 587//1120
f 591//1121 592//1121 587//1121
f 587//1122 592//1122 588//1122
f 592//1123 593//1123 588//1123
f 588//1124 593//1124 589//1124
f 593//1125 594//1125 589//1125
f 589//1126 594//1126 57//1126
f 594//1127 56//1127 57//1127
f 53//1128 595//1128 590//1128
f 595//1129 596//1129 590//1129
f 590//1130 596//1130 591//1130
f 596//1131 597//1131 591//1131
f 591//1132 597//1132 592//1132
f 597//1133 598//1133 592//1133
f 592//1134 598//1134 593//1134
f 598//1135 599//1135 593//1135
f 593//1136 599//1136 594//1136
f 599//1137 600//1137 594//1137
f 594//1138 600//1138 56//1138
f 600//1139 55//1139 56//1139
f 54//1140 19//1140 595//1140
f 19//1141 18//1141 595//1141
f 595//1142 18//1142 596//1142
f 18//1143 17//1143 596//1143
f 596//1144 17//1144 597//1144
f 17//1145 16//1145 597//1145
f 597//1146 16//1146 598//1146
f 16//1147 15//1147 598//1147
f 598//1148 15//1148 599//1148
f 15//1149 14//1149 599//1149
f 599//1150 14//1150 600//1150
f 14//1151 13//1151 600//1151
f 600//1152 13//1152 55//1152
f 13//1153 3//1153 55//1153
f 34//1154 47//1154 6//1154
f 35//1155 601//1155 34//1155
f 36//1156 602//1156 35//1156
f 37//1157 604//1157 36//1157
f 38//1158 607//1158 37//1158
f 39//1159 611//1159 38//1159
f 40//1160 616//1160 39//1160
f 34//1161 601//1161 47//1161
f 601//1162 46//1162 47//1162
f 35//1163 602//1163 601//1163
f 602//1164 603//1164 601//1164
f 601//1165 603//1165 46//1165
f 603//1166 45//1166 46//1166
f 36//1167 604//1167 602//1167
f 604//1168 605//1168 602//1168
f 602//1169 605//1169 603//1169
f 605//1170 606//1170 603//1170
f 603//1171 606//1171 45//1171
f 606//1172 44//1172 45//1172
f 37//1173 607//1173 604//1173
f 607//1174 608//1174 604//1174
f 604//1175 608//1175 605//1175
f 608//1176 609//1176 605//1176
f 605//1177 609//1177 606//1177
f 609//1178 610//1178 606//1178
f 606//1179 610//1179 44//1179
f 610//1180 43//1180 44//1180
f 38//1181 611//1181 607//1181
f 611//1182 612//1182 607//1182
f 607//1183 612//1183 608//1183
f 612//1184 613//1184 608//1184
f 608//1185 613//1185 609//1185
f 613//1186 614//1186 609//1186
f 609//1187 614//1187 610//1187
f 614//1188 615//1188 610//1188
f 610//1189 615//1189 43//1189
f 615//1190 42//1190 43//1190
f 39//1191 616//1191 611//1191
f 616//1192 617//1192 611//1192
f 611//1193 617//1193 612//1193
f 617//1194 618//1194 612//1194
f 612//1195 618//1195 613//1195
f 618//1196 619//1196 613//1196
f 613//1197 619//1197 614//1197
f 619//1198 620//1198 614//1198
f 614//1199 620//1199 615//1199
f 620//1200 621//1200 615//1200
f 615//1201 621//1201 42//1201
f 621//1202 41//1202 42//1202
f 40//1203 26//1203 616//1203
f 26//1204 25//1204 616//1204
f 616//1205 25//1205 617//1205
f 25//1206 24//1206 617//1206
f 617//1207 24//1207 618//1207
f 24//1208 23//1208 618//1208
f 618//1209 23//1209 619//1209
f 23//1210 22//1210 619//1210
f 619//1211 22//1211 620//1211
f 22//1212 21//1212 620//1212
f 620//1213 21//1213 621//1213
f 21//1214 20//1214 621//1214
f 621//1215 20//1215 41//1215
f 20//1216 1//1216 41//1216
f 13//1217 33//1217 3//1217
f 14//1218 622//1218 13//1218
f 15//1219 623//1219 14//1219
f 16//1220 625//1220 15//1220
f 17//1221 628//1221 16//1221
f 18//1222 632//1222 17//1222
f 19//1223 637//1223 18//1223
f 13//1224 622//1224 33//1224
f 622//1225 32//1225 33//1225
f 14//1226 623//1226 622//1226
f 623//1227 624//1227 622//1227
f 622//1228 624//1228 32//1228
f 624//1229 31//1229 32//1229
f 15//1230 625//1230 623//1230
f 625//1231 626//1231 623//1231
f 623//1232 626//1232 624//1232
f 626//1233 627//1233 624//1233
f 624//1234 627//1234 31//1234
f 627//1235 30//1235 31//1235
f 16//1236 628//1236 625//1236
f 628//1237 629//1237 625//1237
f 625//1238 629//1238 626//1238
f 629//1239 630//1239 626//1239
f 626//1240 630//1240 627//1240
f 630//1241 631//1241 627//1241
f 627//1242 631//1242 30//1242
f 631//1243 29//1243 30//1243
f 17//1244 632//1244 628//1244
f 632//1245 633//1245 628//1245
f 628//1246 633//1246 629//1246
f 633//1247 634//1247 629//1247
f 629//1248 634//1248 630//1248
f 634//1249 635//1249 630//1249
f 630//1250 635//1250 631//1250
f 635//1251 636//1251 631//1251
f 631//1252 636//1252 29//1252
f 636//1253 28//1253 29//1253
f 18//1254 637//1254 632//1254
f 637//1255 638//1255 632//1255
f 632//1256 638//1256 633//1256
f 638//1257 639//1257 633//1257
f 633//1258 639//1258 634//1258
f 639//1259 640//1259 634//1259
f 634//1260 640//1260 635//1260
f 640//1261 641//1261 635//1261
f 635//1262 641//1262 636//1262
f 641//1263 642//1263 636//1263
f 636//1264 642//1264 28//1264
f 642//1265 27//1265 28//1265
f 19//1266 20//1266 637//1266
f 20//1267 21//1267 637//1267
f 637//1268 21//1268 638//1268
f 21//1269 22//1269 638//1269
f 638//1270 22//1270 639//1270
f 22//1271 23//1271 639//1271
f 639//1272 23//1272 640//1272
f 23//1273 24//1273 640//1273
f 640//1274 24//1274 641//1274
f 24//1275 25//1275 641//1275
f 641//1276 25//1276 642//1276
f 25//1277 26//1277 642//1277
f 642//1278 26//1278 27//1278
f 26//1279 2//1279 27//1279
