# Blender 4.0.2
# www.blender.org
o rock_42
v -0.002309 -0.210352 0.003837
v 0.309907 -0.041348 0.077397
v -0.137926 -0.073835 0.195734
v -0.441279 -0.125433 -0.018901
v -0.135928 -0.078592 -0.202432
v 0.322948 -0.062680 -0.095516
v 0.125826 0.077871 0.187602
v -0.341347 0.096229 0.141235
v -0.316275 0.062990 -0.116833
v 0.121735 0.060801 -0.156109
v 0.412393 0.086647 -0.000007
v -0.000385 0.148021 -0.004714
v -0.131363 -0.100534 0.188827
v -0.121056 -0.131483 0.176479
v -0.104724 -0.161425 0.153771
v -0.083642 -0.181334 0.125455
v -0.059861 -0.199471 0.093623
v -0.036388 -0.204426 0.057461
v -0.018198 -0.202371 0.028562
v 0.044514 -0.212279 0.019070
v 0.094435 -0.200290 0.035822
v 0.149580 -0.202805 0.057566
v 0.200138 -0.176918 0.075127
v 0.237496 -0.125737 0.079504
v 0.267640 -0.086740 0.080267
v 0.289942 -0.056076 0.076491
v 0.275345 -0.052483 0.100091
v 0.242549 -0.085183 0.144965
v 0.192267 -0.108684 0.184899
v 0.123996 -0.111426 0.204361
v 0.054181 -0.114238 0.218042
v -0.020968 -0.107436 0.220287
v -0.083260 -0.088156 0.203228
v 0.348588 -0.072203 -0.081759
v 0.370731 -0.081722 -0.059026
v 0.392150 -0.098546 -0.033172
v 0.398770 -0.102318 -0.001663
v 0.385362 -0.086594 0.028890
v 0.362991 -0.068328 0.052329
v 0.338212 -0.054737 0.068932
v 0.045768 -0.214360 -0.017022
v 0.096351 -0.196053 -0.035692
v 0.146082 -0.170532 -0.051823
v 0.192783 -0.139438 -0.063756
v 0.236133 -0.115657 -0.074223
v 0.272775 -0.095015 -0.083744
v 0.301945 -0.078645 -0.091535
v -0.404228 -0.146826 -0.016789
v -0.358713 -0.162925 -0.012709
v -0.307791 -0.175286 -0.008011
v -0.250794 -0.190412 0.006695
v -0.185225 -0.189505 0.013507
v -0.123992 -0.208228 0.002932
v -0.057608 -0.214409 -0.000076
v -0.183708 -0.076876 0.163532
v -0.213955 -0.076363 0.144843
v -0.259087 -0.089185 0.145389
v -0.310211 -0.107061 0.136319
v -0.365125 -0.136292 0.116944
v -0.407678 -0.148232 0.075101
v -0.433900 -0.146420 0.026916
v -0.127907 -0.108351 -0.193375
v -0.114932 -0.134955 -0.173639
v -0.099044 -0.154571 -0.149452
v -0.081048 -0.174471 -0.121645
v -0.061662 -0.190803 -0.091735
v -0.041276 -0.209522 -0.061440
v -0.019860 -0.215689 -0.026829
v -0.416825 -0.111799 -0.051950
v -0.391345 -0.100272 -0.076400
v -0.361362 -0.100409 -0.098463
v -0.320769 -0.101483 -0.121020
v -0.277992 -0.095701 -0.144134
v -0.230583 -0.090717 -0.174150
v -0.179092 -0.082920 -0.186351
v -0.080685 -0.093111 -0.211915
v -0.016459 -0.101981 -0.210952
v 0.054492 -0.107714 -0.205928
v 0.123537 -0.098440 -0.183169
v 0.179601 -0.070851 -0.140160
v 0.234820 -0.066001 -0.122523
v 0.281519 -0.062224 -0.105682
v 0.422138 0.062674 0.012854
v 0.424293 0.035882 0.024824
v 0.425132 0.014981 0.038662
v 0.421845 -0.001941 0.054422
v 0.403213 -0.016389 0.064996
v 0.376023 -0.028667 0.072332
v 0.345611 -0.038776 0.077843
v 0.359652 -0.054016 -0.094803
v 0.396699 -0.043373 -0.094767
v 0.423536 -0.024869 -0.086010
v 0.434280 -0.002188 -0.066375
v 0.437062 0.019243 -0.046722
v 0.432770 0.040508 -0.029610
v 0.423755 0.063167 -0.014419
v 0.100112 0.057323 0.195101
v 0.070464 0.037171 0.198372
v 0.038037 0.020936 0.207468
v -0.000136 0.003461 0.220339
v -0.039928 -0.017286 0.219701
v -0.078710 -0.038318 0.219607
v -0.110288 -0.058730 0.205505
v 0.302322 -0.030056 0.086983
v 0.292077 -0.021834 0.101915
v 0.279632 -0.013897 0.125901
v 0.261834 0.000157 0.154968
v 0.234054 0.021046 0.175184
v 0.199405 0.042720 0.187114
v 0.161434 0.060410 0.187805
v -0.374419 0.085609 0.138663
v -0.416574 0.075370 0.138782
v -0.470136 0.047345 0.140079
v -0.506632 -0.003082 0.120523
v -0.513067 -0.054539 0.084284
v -0.497806 -0.091844 0.044566
v -0.471959 -0.113646 0.009003
v -0.173082 -0.052816 0.184006
v -0.199883 -0.041997 0.168647
v -0.227839 -0.023414 0.174645
v -0.261361 -0.010052 0.175694
v -0.291749 0.010706 0.175364
v -0.318558 0.040554 0.171981
v -0.334720 0.070712 0.157492
v -0.307787 0.045981 -0.126843
v -0.288750 0.029849 -0.132384
v -0.267388 0.032172 -0.125729
v -0.254339 0.029588 -0.134513
v -0.235922 0.005055 -0.172014
v -0.203378 -0.030213 -0.189750
v -0.169738 -0.058638 -0.195914
v -0.453103 -0.095803 -0.039534
v -0.460000 -0.069851 -0.058847
v -0.459924 -0.038107 -0.080549
v -0.443194 -0.005487 -0.095789
v -0.419764 0.021882 -0.104626
v -0.389517 0.044596 -0.111600
v -0.351282 0.055516 -0.115015
v 0.157337 0.048712 -0.160125
v 0.189798 0.029264 -0.147715
v 0.219421 0.011678 -0.127089
v 0.249988 -0.000746 -0.116550
v 0.278376 -0.012744 -0.113952
v 0.298848 -0.027323 -0.108021
v 0.313596 -0.044514 -0.101804
v -0.108699 -0.062333 -0.212255
v -0.078962 -0.044581 -0.221862
v -0.043069 -0.019673 -0.236090
v -0.003380 0.011329 -0.224813
v 0.034795 0.032431 -0.209726
v 0.068414 0.043493 -0.182585
v 0.096933 0.051768 -0.167101
v 0.402344 0.092376 0.023984
v 0.381221 0.092418 0.050546
v 0.351930 0.092823 0.079085
v 0.316407 0.094930 0.109342
v 0.267383 0.083759 0.126974
v 0.223105 0.091611 0.159673
v 0.174294 0.089025 0.180944
v 0.072784 0.082707 0.189376
v 0.014652 0.089940 0.192189
v -0.055654 0.098243 0.194489
v -0.123055 0.089760 0.181898
v -0.181574 0.094173 0.185566
v -0.251838 0.108602 0.183396
v -0.308757 0.102561 0.158025
v -0.366652 0.114049 0.117344
v -0.389021 0.126428 0.082135
v -0.401813 0.132305 0.040157
v -0.405750 0.132512 -0.004180
v -0.397344 0.121664 -0.049900
v -0.373876 0.098591 -0.085629
v -0.343748 0.075225 -0.106065
v -0.269869 0.060981 -0.122169
v -0.224775 0.047173 -0.118503
v -0.188285 0.068338 -0.131123
v -0.117482 0.075733 -0.139485
v -0.052870 0.071967 -0.150825
v 0.012646 0.068103 -0.162174
v 0.069909 0.062384 -0.152721
v 0.166606 0.062324 -0.144222
v 0.211379 0.059821 -0.121954
v 0.261729 0.070045 -0.109578
v 0.311661 0.085476 -0.098438
v 0.349606 0.088701 -0.075809
v 0.378796 0.088404 -0.048480
v 0.401271 0.090172 -0.023256
v 0.015278 0.148805 0.018320
v 0.032722 0.155120 0.044804
v 0.053453 0.158833 0.078694
v 0.073265 0.142443 0.106920
v 0.089974 0.125778 0.128856
v 0.104897 0.115169 0.153813
v 0.117250 0.099601 0.176095
v 0.389015 0.111084 0.000204
v 0.352157 0.132470 -0.000291
v 0.303291 0.151761 -0.001070
v 0.246572 0.171792 -0.000330
v 0.178014 0.158251 -0.000015
v 0.112190 0.152293 -0.002267
v 0.051247 0.143483 -0.004285
v -0.046608 0.151060 0.008800
v -0.091359 0.142231 0.016128
v -0.141147 0.159327 0.034732
v -0.194702 0.166893 0.059768
v -0.246910 0.163516 0.086233
v -0.289397 0.144014 0.106587
v -0.320469 0.121501 0.126440
v -0.046703 0.142850 -0.019027
v -0.093379 0.123850 -0.029192
v -0.138848 0.111649 -0.048348
v -0.184569 0.096246 -0.068535
v -0.218799 0.082175 -0.076239
v -0.252928 0.085666 -0.091131
v -0.290058 0.079704 -0.108014
v 0.015987 0.134055 -0.025273
v 0.033121 0.126698 -0.042570
v 0.052333 0.128480 -0.067462
v 0.072174 0.119957 -0.095973
v 0.088707 0.098563 -0.113636
v 0.101803 0.082603 -0.127517
v 0.112866 0.071559 -0.142530
v 0.071865 0.134892 -0.024707
v 0.136710 0.138347 -0.025253
v 0.094354 0.132633 -0.047586
v 0.209228 0.163278 -0.028929
v 0.162221 0.134327 -0.051944
v 0.116931 0.129252 -0.076217
v 0.276125 0.164011 -0.030883
v 0.235770 0.154860 -0.059507
v 0.183926 0.120842 -0.077485
v 0.134677 0.105720 -0.096043
v 0.329293 0.139466 -0.029168
v 0.297406 0.142645 -0.059590
v 0.252676 0.127451 -0.083618
v 0.198923 0.098274 -0.096784
v 0.148868 0.088317 -0.113274
v 0.371685 0.114939 -0.026134
v 0.344160 0.115182 -0.054782
v 0.309469 0.115397 -0.083440
v 0.261104 0.097402 -0.100565
v 0.208241 0.078758 -0.112737
v 0.159897 0.076144 -0.131322
v -0.029813 0.137382 -0.038398
v -0.011930 0.133854 -0.058844
v -0.082749 0.126442 -0.047521
v 0.006690 0.133542 -0.089935
v -0.066717 0.132759 -0.078250
v -0.133461 0.106595 -0.063106
v 0.026600 0.117771 -0.119657
v -0.047932 0.122924 -0.113711
v -0.120174 0.108399 -0.094427
v -0.177541 0.085723 -0.075290
v 0.044366 0.091910 -0.134141
v -0.026928 0.103499 -0.138028
v -0.097312 0.089991 -0.119634
v -0.165760 0.090404 -0.096260
v -0.210161 0.076032 -0.080817
v 0.058448 0.073682 -0.142800
v -0.005658 0.084879 -0.152890
v -0.075794 0.079056 -0.135246
v -0.141707 0.084778 -0.124324
v -0.203774 0.074671 -0.099355
v -0.238069 0.071024 -0.103076
v -0.093076 0.131543 -0.008604
v -0.140478 0.127565 -0.027412
v -0.141810 0.143843 0.001605
v -0.192850 0.120088 -0.045114
v -0.197449 0.136622 -0.014256
v -0.197946 0.152468 0.018936
v -0.233451 0.103289 -0.059428
v -0.245106 0.124008 -0.031260
v -0.252008 0.145287 0.002586
v -0.253129 0.159518 0.044435
v -0.275729 0.109082 -0.076096
v -0.294639 0.132080 -0.045493
v -0.305976 0.145684 -0.009333
v -0.308887 0.155834 0.033746
v -0.300161 0.149362 0.073993
v -0.317584 0.098223 -0.095507
v -0.342283 0.123722 -0.066898
v -0.357522 0.139856 -0.026406
v -0.362113 0.145242 0.015795
v -0.356457 0.146176 0.060492
v -0.338263 0.135258 0.098263
v -0.029570 0.156369 0.033295
v -0.079238 0.160175 0.047047
v -0.011583 0.160141 0.063879
v -0.132261 0.168562 0.075588
v -0.063666 0.170313 0.089988
v 0.008411 0.158149 0.101413
v -0.183458 0.164448 0.103923
v -0.117621 0.159376 0.119406
v -0.044605 0.158618 0.130744
v 0.028153 0.137290 0.128881
v -0.233823 0.156384 0.129371
v -0.164488 0.144264 0.142655
v -0.098479 0.135319 0.150049
v -0.023515 0.136104 0.158635
v 0.045042 0.119811 0.150867
v -0.278184 0.134814 0.146863
v -0.209194 0.131588 0.165493
v -0.142472 0.114646 0.166996
v -0.078105 0.116293 0.173729
v -0.003527 0.112268 0.177567
v 0.059827 0.103232 0.172689
v 0.072847 0.158838 0.021617
v 0.097132 0.168258 0.054642
v 0.139908 0.165111 0.026385
v 0.119484 0.155888 0.085932
v 0.167289 0.169234 0.059961
v 0.209778 0.169348 0.029963
v 0.138586 0.138206 0.112180
v 0.189903 0.155150 0.091320
v 0.234217 0.153502 0.059947
v 0.271755 0.149248 0.028254
v 0.155259 0.126634 0.140009
v 0.205653 0.130151 0.116052
v 0.251135 0.126177 0.084870
v 0.294080 0.130840 0.057412
v 0.328682 0.134890 0.027974
v 0.167435 0.110666 0.164672
v 0.216703 0.109926 0.139145
v 0.261725 0.101310 0.106245
v 0.310453 0.115739 0.086323
v 0.345819 0.116014 0.056150
v 0.373043 0.116432 0.026865
v 0.409682 0.064048 -0.038279
v 0.414164 0.039653 -0.054695
v 0.383929 0.062184 -0.063966
v 0.416031 0.019139 -0.075618
v 0.385645 0.039558 -0.081489
v 0.352324 0.064246 -0.091737
v 0.411006 -0.001971 -0.097521
v 0.382237 0.019818 -0.100441
v 0.348373 0.040674 -0.105965
v 0.305748 0.056389 -0.105890
v 0.387174 -0.022373 -0.105797
v 0.362964 -0.000344 -0.108711
v 0.333574 0.018376 -0.114366
v 0.292150 0.030662 -0.108655
v 0.251312 0.045090 -0.113819
v 0.350861 -0.035045 -0.103681
v 0.333032 -0.015801 -0.109972
v 0.309149 0.000418 -0.116760
v 0.273255 0.012361 -0.112199
v 0.236435 0.025374 -0.117671
v 0.201176 0.042029 -0.131485
v 0.040779 0.055318 -0.166491
v 0.005178 0.049084 -0.182532
v -0.024276 0.058547 -0.164940
v -0.032935 0.034566 -0.197689
v -0.060745 0.050119 -0.177990
v -0.091194 0.068906 -0.165632
v -0.073548 0.011092 -0.217582
v -0.105279 0.036792 -0.202852
v -0.140652 0.053995 -0.179072
v -0.166768 0.062337 -0.148859
v -0.111694 -0.018393 -0.214647
v -0.150274 0.008419 -0.206507
v -0.181875 0.035551 -0.165274
v -0.204652 0.043371 -0.131221
v -0.218885 0.038029 -0.120413
v -0.144766 -0.039711 -0.209056
v -0.181867 -0.009993 -0.193573
v -0.209300 0.024434 -0.158684
v -0.229434 0.037217 -0.125693
v -0.241440 0.029586 -0.122229
v -0.256393 0.032353 -0.130222
v -0.385529 0.068604 -0.101535
v -0.423777 0.053936 -0.093416
v -0.417545 0.088247 -0.074730
v -0.463930 0.032864 -0.084455
v -0.462532 0.075073 -0.060545
v -0.442003 0.110502 -0.032092
v -0.494334 -0.004272 -0.065175
v -0.507212 0.045075 -0.038966
v -0.488122 0.091254 -0.007640
v -0.447494 0.120582 0.020779
v -0.499992 -0.047190 -0.038879
v -0.526586 -0.003516 -0.010074
v -0.525404 0.052313 0.024208
v -0.487835 0.097433 0.053624
v -0.432706 0.116246 0.070481
v -0.487845 -0.082648 -0.014636
v -0.520554 -0.052685 0.018564
v -0.535155 -0.002858 0.057773
v -0.513524 0.053904 0.091298
v -0.459106 0.090447 0.105803
v -0.406104 0.102938 0.109829
v -0.294630 0.071228 0.181447
v -0.266497 0.032138 0.187656
v -0.227193 0.065169 0.195260
v -0.234249 0.006192 0.182438
v -0.200436 0.030264 0.189083
v -0.162413 0.061985 0.189106
v -0.205600 -0.005960 0.180384
v -0.176361 0.011686 0.188408
v -0.141736 0.043096 0.198907
v -0.099902 0.072655 0.199270
v -0.178242 -0.022901 0.186590
v -0.147718 -0.002386 0.196355
v -0.111230 0.020515 0.213920
v -0.067275 0.048581 0.217662
v -0.023393 0.074211 0.211591
v -0.144734 -0.036965 0.195848
v -0.113750 -0.019237 0.208844
v -0.073973 -0.001886 0.220521
v -0.031660 0.022748 0.219933
v 0.008953 0.043207 0.212896
v 0.043171 0.062461 0.199139
v 0.214594 0.069230 0.178438
v 0.249389 0.041367 0.158523
v 0.261492 0.063443 0.144537
v 0.281440 0.019345 0.140500
v 0.301349 0.043408 0.136227
v 0.313077 0.069660 0.125647
v 0.304855 0.001930 0.116333
v 0.329763 0.019661 0.114439
v 0.344163 0.040284 0.104651
v 0.350978 0.064786 0.092396
v 0.322327 -0.010336 0.096217
v 0.353900 0.001984 0.099533
v 0.371981 0.018509 0.090044
v 0.380337 0.038305 0.076634
v 0.383825 0.064098 0.064287
v 0.336736 -0.023882 0.085685
v 0.368298 -0.013396 0.084657
v 0.391402 0.000305 0.076981
v 0.401806 0.015984 0.062608
v 0.405194 0.035810 0.048680
v 0.407679 0.064224 0.037492
v 0.134340 0.039846 -0.180314
v 0.169509 0.019090 -0.173909
v 0.105497 0.026997 -0.203332
v 0.198199 -0.000254 -0.148915
v 0.142679 0.001048 -0.204170
v 0.071219 0.005276 -0.232203
v 0.225054 -0.014159 -0.130291
v 0.172073 -0.020542 -0.177914
v 0.107287 -0.026246 -0.224178
v 0.030307 -0.024834 -0.243505
v 0.249356 -0.028236 -0.120356
v 0.195586 -0.034166 -0.149038
v 0.138371 -0.050573 -0.202029
v 0.065866 -0.057663 -0.232006
v -0.011133 -0.054636 -0.235735
v 0.268184 -0.044773 -0.112999
v 0.217155 -0.048990 -0.133066
v 0.162027 -0.064251 -0.169911
v 0.097073 -0.080009 -0.207746
v 0.022505 -0.083724 -0.224739
v -0.048402 -0.074751 -0.222757
v -0.342878 0.044186 -0.123784
v -0.325282 0.033326 -0.134296
v -0.384084 0.029609 -0.122304
v -0.301096 0.021923 -0.140776
v -0.370233 0.010438 -0.140925
v -0.411029 -0.001675 -0.110169
v -0.280278 0.006266 -0.151022
v -0.339036 -0.014071 -0.155314
v -0.398217 -0.027787 -0.123837
v -0.420119 -0.030168 -0.096734
v -0.258291 -0.029878 -0.177599
v -0.304893 -0.035009 -0.160792
v -0.363266 -0.056738 -0.137773
v -0.400279 -0.055359 -0.101050
v -0.424006 -0.055859 -0.084419
v -0.217789 -0.059957 -0.187653
v -0.272086 -0.068445 -0.165687
v -0.319143 -0.076479 -0.144155
v -0.366304 -0.080114 -0.112266
v -0.396960 -0.074323 -0.089075
v -0.423527 -0.081992 -0.069179
v -0.363511 0.059030 0.156909
v -0.406450 0.039669 0.163708
v -0.343941 0.026786 0.170492
v -0.450201 -0.002582 0.161344
v -0.378661 -0.001542 0.174740
v -0.314085 -0.004532 0.171991
v -0.471359 -0.053437 0.135722
v -0.407442 -0.044971 0.163976
v -0.337609 -0.032460 0.169885
v -0.281447 -0.026870 0.168525
v -0.471041 -0.094919 0.100359
v -0.418655 -0.083775 0.138168
v -0.356698 -0.066820 0.159108
v -0.296712 -0.049820 0.161437
v -0.243826 -0.043466 0.170111
v -0.458669 -0.126257 0.063308
v -0.420054 -0.118225 0.110567
v -0.366333 -0.099776 0.141845
v -0.306901 -0.076919 0.151444
v -0.254524 -0.068387 0.158557
v -0.209044 -0.057831 0.157652
v 0.134053 0.037375 0.187372
v 0.103461 0.020023 0.192328
v 0.170582 0.020636 0.186392
v 0.069498 0.004613 0.203168
v 0.138510 0.002307 0.192241
v 0.208769 0.000470 0.189758
v 0.031402 -0.016678 0.222220
v 0.103379 -0.018176 0.208667
v 0.175198 -0.022377 0.198555
v 0.239510 -0.022622 0.176651
v -0.010751 -0.042424 0.230178
v 0.064652 -0.046838 0.225328
v 0.137724 -0.050138 0.213095
v 0.207548 -0.050694 0.193267
v 0.259168 -0.039603 0.151042
v -0.051678 -0.071319 0.223073
v 0.022321 -0.081438 0.234956
v 0.096347 -0.080909 0.218978
v 0.168402 -0.082850 0.205185
v 0.229742 -0.072481 0.171743
v 0.269705 -0.048013 0.123027
v 0.436082 0.040887 -0.001593
v 0.443789 0.018074 0.013136
v 0.448251 0.020133 -0.016708
v 0.448698 -0.003229 0.030867
v 0.461222 -0.003206 -0.000694
v 0.452465 -0.002329 -0.034258
v 0.439172 -0.024805 0.047556
v 0.464845 -0.031675 0.018376
v 0.462183 -0.030789 -0.018630
v 0.442984 -0.026635 -0.052872
v 0.408587 -0.038960 0.056523
v 0.442746 -0.055078 0.034662
v 0.456627 -0.063073 -0.000431
v 0.443663 -0.057157 -0.036753
v 0.421437 -0.048883 -0.068949
v 0.374790 -0.049855 0.064611
v 0.403974 -0.065378 0.045009
v 0.427929 -0.083646 0.016581
v 0.430586 -0.087702 -0.019088
v 0.412283 -0.075633 -0.051031
v 0.387444 -0.062945 -0.077358
v 0.256528 -0.080436 -0.104713
v 0.221188 -0.097610 -0.096613
v 0.201288 -0.080660 -0.116999
v 0.180004 -0.125208 -0.090885
v 0.163100 -0.111127 -0.117635
v 0.144596 -0.105721 -0.149702
v 0.134794 -0.166867 -0.085183
v 0.118335 -0.150315 -0.116405
v 0.099031 -0.135926 -0.146196
v 0.077612 -0.125065 -0.177969
v 0.083228 -0.195306 -0.069179
v 0.066583 -0.185668 -0.105346
v 0.047715 -0.168740 -0.138518
v 0.026381 -0.152784 -0.171578
v 0.003539 -0.128113 -0.196015
v 0.030055 -0.213855 -0.049441
v 0.011076 -0.206782 -0.084281
v -0.009588 -0.195916 -0.119469
v -0.031143 -0.177666 -0.155068
v -0.050516 -0.146272 -0.178926
v -0.066203 -0.120623 -0.198162
v -0.173617 -0.109404 -0.174770
v -0.161106 -0.135751 -0.158146
v -0.227816 -0.117585 -0.160041
v -0.142754 -0.164378 -0.136137
v -0.219789 -0.149692 -0.143104
v -0.276075 -0.116176 -0.125039
v -0.120476 -0.188101 -0.101323
v -0.202388 -0.190324 -0.116078
v -0.270288 -0.140691 -0.103112
v -0.313499 -0.123127 -0.098071
v -0.100841 -0.195990 -0.062934
v -0.173148 -0.217697 -0.069663
v -0.256033 -0.179871 -0.072679
v -0.301048 -0.140667 -0.072230
v -0.350563 -0.128309 -0.077010
v -0.082078 -0.206142 -0.031816
v -0.144931 -0.208586 -0.024788
v -0.221332 -0.203697 -0.024492
v -0.284975 -0.168610 -0.040882
v -0.331656 -0.153834 -0.047590
v -0.381286 -0.135076 -0.050354
v -0.387001 -0.162659 0.028204
v -0.332973 -0.173590 0.032075
v -0.353744 -0.163432 0.075126
v -0.274202 -0.179457 0.040741
v -0.293126 -0.160882 0.076592
v -0.305193 -0.137492 0.110251
v -0.207148 -0.172874 0.043162
v -0.227192 -0.160910 0.074995
v -0.244144 -0.139649 0.106370
v -0.254498 -0.112914 0.130717
v -0.154031 -0.187773 0.038243
v -0.175278 -0.156410 0.069333
v -0.189604 -0.128413 0.094650
v -0.200691 -0.108266 0.113427
v -0.209747 -0.092634 0.130470
v -0.080873 -0.216383 0.030896
v -0.110368 -0.205738 0.067263
v -0.136743 -0.173738 0.099162
v -0.156088 -0.138688 0.118665
v -0.169398 -0.114061 0.133613
v -0.178072 -0.095548 0.149024
v 0.323974 -0.088528 -0.072191
v 0.342956 -0.099745 -0.046767
v 0.291055 -0.107227 -0.060856
v 0.355358 -0.108098 -0.018097
v 0.304640 -0.117839 -0.033384
v 0.250270 -0.130608 -0.048719
v 0.349901 -0.096298 0.012893
v 0.306564 -0.113586 -0.002103
v 0.257406 -0.137763 -0.017321
v 0.201616 -0.152819 -0.033852
v 0.333299 -0.077818 0.039222
v 0.297399 -0.099751 0.028079
v 0.255627 -0.134147 0.016476
v 0.206321 -0.167028 0.000562
v 0.150190 -0.180953 -0.018582
v 0.312642 -0.064294 0.059771
v 0.283061 -0.089109 0.054718
v 0.248436 -0.129954 0.049199
v 0.205719 -0.175781 0.037972
v 0.152079 -0.196902 0.018261
v 0.096799 -0.201074 -0.000591
v -0.069230 -0.114596 0.193984
v -0.051664 -0.143718 0.176529
v -0.000030 -0.136633 0.203432
v -0.032003 -0.169111 0.149799
v 0.022316 -0.164513 0.178814
v 0.076359 -0.137725 0.192791
v -0.009978 -0.191857 0.118006
v 0.044724 -0.183746 0.142489
v 0.098573 -0.161072 0.163332
v 0.150785 -0.143539 0.185578
v 0.011164 -0.200284 0.080848
v 0.063905 -0.188281 0.102511
v 0.118901 -0.177284 0.128308
v 0.173337 -0.162405 0.150689
v 0.212901 -0.118832 0.148999
v 0.028258 -0.203930 0.048555
v 0.079994 -0.193405 0.068012
v 0.136472 -0.194262 0.094071
v 0.189472 -0.171207 0.112018
v 0.226810 -0.119902 0.111068
v 0.256287 -0.084164 0.109224
vn -0.1166 -0.9646 0.2364
vn 0.1563 -0.2703 0.9500
vn 0.0455 -0.9418 0.3332
vn 0.0629 -0.9887 0.1361
vn -0.0062 -0.9846 0.1749
vn 0.0249 -0.4961 0.8679
vn -0.1963 -0.2536 0.9472
vn -0.5509 -0.7888 -0.2726
vn -0.3179 -0.2389 -0.9175
vn 0.2308 -0.2100 -0.9501
vn 0.0359 -0.6326 0.7736
vn -0.3252 -0.0164 0.9455
vn -0.6555 -0.5899 -0.4715
vn -0.2639 -0.1351 -0.9551
vn 0.0861 -0.2860 -0.9544
vn 0.0125 0.4718 0.8816
vn -0.4317 0.6940 0.5762
vn -0.0765 0.5565 -0.8273
vn -0.0173 0.7782 -0.6278
vn 0.7016 0.6732 -0.2336
vn 0.0792 0.8528 -0.5162
vn -0.1102 0.8715 -0.4778
vn -0.0556 0.8262 -0.5606
vn -0.1938 0.9803 -0.0388
vn 0.3328 0.9394 0.0827
vn 0.3673 0.9278 -0.0661
vn 0.4936 0.8461 -0.2010
vn -0.0097 0.9182 -0.3961
vn -0.0097 0.9167 -0.3995
vn -0.0489 0.8299 -0.5557
vn -0.0539 0.9872 -0.1504
vn -0.1111 0.9724 -0.2052
vn -0.0968 0.9953 -0.0034
vn -0.3277 0.9248 -0.1930
vn -0.3133 0.8482 -0.4271
vn -0.0363 0.9825 -0.1826
vn -0.0339 0.9891 -0.1435
vn -0.0310 0.9895 -0.1413
vn -0.0548 0.9456 -0.3208
vn -0.0183 0.9645 -0.2633
vn -0.0187 0.9597 -0.2804
vn -0.2816 0.8342 -0.4741
vn -0.2696 0.7379 -0.6187
vn 0.1073 0.9140 -0.3913
vn 0.0706 0.6733 -0.7360
vn 0.1595 0.7037 -0.6924
vn 0.1583 0.6985 -0.6979
vn 0.4194 0.9078 -0.0091
vn 0.4039 0.8515 -0.3344
vn 0.1670 0.8462 -0.5060
vn 0.1379 0.7008 -0.6999
vn -0.1284 0.6092 -0.7826
vn -0.1279 0.5941 -0.7942
vn 0.0697 0.6747 -0.7348
vn 0.0771 0.7325 -0.6763
vn 0.1316 0.7496 -0.6487
vn 0.1247 0.7074 -0.6957
vn 0.5017 0.8432 -0.1929
vn 0.4718 0.7601 -0.4468
vn 0.4891 0.7568 -0.4336
vn 0.4629 0.6909 -0.5552
vn 0.1482 0.6877 -0.7107
vn 0.1113 0.5117 -0.8519
vn -0.0465 0.4808 -0.8756
vn -0.0389 0.6212 -0.7827
vn 0.1131 0.6607 -0.7421
vn 0.1427 0.8588 -0.4920
vn 0.0589 0.8439 -0.5332
vn 0.0545 0.8231 -0.5653
vn 0.6280 0.7144 -0.3087
vn 0.5674 0.6141 -0.5486
vn 0.5727 0.6124 -0.5450
vn 0.5583 0.5833 -0.5900
vn 0.5137 0.5958 -0.6174
vn 0.4356 0.4287 -0.7915
vn 0.1436 0.4519 -0.8805
vn 0.1136 0.3132 -0.9429
vn 0.1068 0.3133 -0.9436
vn 0.1256 0.4509 -0.8837
vn 0.2975 0.4572 -0.8381
vn 0.3389 0.7246 -0.6001
vn 0.0989 0.7042 -0.7031
vn 0.1223 0.8153 -0.5660
vn 0.0670 0.8493 -0.5236
vn 0.1446 0.9540 -0.2626
vn 0.1023 0.9835 0.1493
vn 0.1863 0.9694 -0.1601
vn 0.2863 0.7318 -0.6184
vn 0.1939 0.7295 -0.6559
vn 0.0347 0.8171 -0.5755
vn 0.1201 0.9779 -0.1713
vn -0.2480 0.8540 -0.4573
vn 0.1657 0.9859 -0.0252
vn -0.1454 0.9458 -0.2904
vn -0.2055 0.9785 0.0192
vn -0.2548 0.9669 -0.0110
vn 0.0890 0.9951 0.0433
vn -0.0135 0.9997 -0.0181
vn -0.0771 0.9838 0.1621
vn -0.3648 0.9311 0.0011
vn -0.2295 0.8921 -0.3893
vn -0.1468 0.9181 -0.3680
vn 0.1541 0.9118 -0.3806
vn 0.0252 0.8900 -0.4553
vn -0.0571 0.9539 -0.2948
vn -0.2807 0.8762 -0.3917
vn -0.3843 0.9166 -0.1102
vn -0.3985 0.9097 -0.1167
vn -0.0177 0.5317 -0.8467
vn -0.0259 0.5278 -0.8490
vn 0.2593 0.6014 -0.7557
vn 0.1347 0.5530 -0.8222
vn 0.0046 0.7832 -0.6217
vn -0.3082 0.5955 -0.7419
vn -0.3166 0.6060 -0.7297
vn -0.2362 0.6702 -0.7036
vn -0.3672 0.9301 0.0013
vn -0.2921 0.9551 0.0491
vn -0.0301 0.5698 -0.8213
vn 0.3040 0.8060 -0.5078
vn 0.1817 0.5329 -0.8264
vn 0.2230 0.5535 -0.8025
vn 0.1537 0.7177 -0.6792
vn -0.2544 0.4089 -0.8764
vn -0.3081 0.5257 -0.7929
vn -0.0303 0.7986 -0.6011
vn -0.0848 0.9605 -0.2652
vn -0.3132 0.8429 -0.4375
vn -0.3620 0.9123 -0.1917
vn -0.0939 0.9900 -0.1051
vn 0.3083 0.7693 -0.5596
vn 0.1842 0.7267 -0.6618
vn 0.0300 0.6765 -0.7358
vn 0.1804 0.7459 -0.6412
vn 0.2276 0.6497 -0.7253
vn -0.1387 0.3594 -0.9228
vn -0.2252 0.7183 -0.6583
vn -0.0260 0.8949 -0.4455
vn -0.0139 0.8488 -0.5286
vn -0.1551 0.7194 -0.6770
vn -0.2747 0.9085 -0.3150
vn -0.5596 0.7169 -0.4158
vn 0.0312 0.5550 -0.8312
vn 0.2504 0.6203 -0.7433
vn 0.1832 0.7109 -0.6790
vn -0.0717 0.5512 -0.8313
vn -0.0196 0.9590 -0.2829
vn -0.2931 0.8970 -0.3309
vn 0.0401 0.7969 -0.6027
vn 0.0693 0.7112 -0.6995
vn -0.0638 0.5942 -0.8018
vn 0.3384 0.7191 -0.6069
vn 0.1856 0.7243 -0.6640
vn -0.2850 0.9196 -0.2704
vn -0.2379 0.8975 -0.3714
vn 0.0605 0.9347 -0.3502
vn 0.1183 0.8683 -0.4817
vn 0.1443 0.9046 -0.4010
vn 0.1498 0.8945 -0.4211
vn 0.0886 0.7963 -0.5984
vn 0.0322 0.8830 -0.4683
vn 0.0259 0.8724 -0.4882
vn 0.0057 0.9025 -0.4308
vn 0.0084 0.9058 -0.4236
vn -0.0217 0.9432 -0.3315
vn -0.0339 0.6944 -0.7188
vn -0.1051 0.7798 -0.6171
vn -0.0611 0.8760 -0.4785
vn -0.0317 0.8432 -0.5366
vn 0.0104 0.9024 -0.4307
vn -0.0281 0.9462 -0.3225
vn -0.0323 0.9432 -0.3307
vn -0.1043 0.9914 -0.0793
vn 0.3381 0.7185 -0.6078
vn 0.2935 0.8425 -0.4517
vn 0.2761 0.8252 -0.4928
vn 0.2318 0.9322 -0.2780
vn 0.1191 0.8513 -0.5109
vn 0.0569 0.9726 -0.2253
vn -0.0008 0.9468 -0.3220
vn -0.0990 0.9789 0.1789
vn -0.2444 0.9680 -0.0562
vn -0.3021 0.9197 0.2507
vn 0.1759 0.6474 -0.7415
vn 0.0856 0.7794 -0.6207
vn 0.1047 0.8251 -0.5553
vn 0.0029 0.9293 -0.3692
vn 0.0098 0.9369 -0.3494
vn -0.0676 0.9887 -0.1335
vn -0.1128 0.9654 -0.2351
vn -0.1966 0.9805 0.0044
vn -0.0983 0.9790 0.1787
vn -0.1329 0.9332 0.3338
vn -0.2089 0.9517 0.2251
vn -0.2369 0.8057 0.5429
vn -0.0719 0.4826 -0.8729
vn -0.1418 0.5417 -0.8285
vn -0.1213 0.6867 -0.7167
vn -0.2216 0.7464 -0.6275
vn -0.1623 0.8941 -0.4173
vn -0.2648 0.9262 -0.2684
vn -0.2146 0.9656 -0.1466
vn -0.2927 0.9557 0.0305
vn -0.2998 0.9538 0.0180
vn -0.3811 0.8926 0.2411
vn -0.2761 0.8797 0.3873
vn -0.2959 0.8267 0.4786
vn -0.2369 0.8056 0.5430
vn -0.2467 0.6332 0.7336
vn 0.0464 0.9968 -0.0655
vn -0.2040 0.9765 -0.0697
vn 0.0932 0.8448 -0.5268
vn 0.0315 0.9734 -0.2269
vn -0.0323 0.9975 0.0635
vn -0.3052 0.9203 0.2447
vn -0.4190 0.8529 0.3115
vn 0.0752 0.9624 -0.2609
vn 0.0700 0.9590 -0.2748
vn -0.0663 0.8741 -0.4813
vn 0.0361 0.9890 -0.1432
vn 0.0475 0.9876 -0.1497
vn 0.0518 0.9888 -0.1400
vn 0.0318 0.9734 -0.2269
vn 0.0253 0.9708 -0.2384
vn 0.0629 0.9660 -0.2509
vn 0.1724 0.9842 -0.0396
vn 0.0091 0.9988 0.0482
vn 0.1847 0.9007 0.3933
vn -0.0434 0.9969 0.0663
vn 0.0295 0.9802 0.1956
vn -0.0726 0.9710 0.2278
vn -0.0352 0.9561 0.2908
vn 0.1288 0.9675 0.2174
vn 0.2609 0.8499 0.4579
vn 0.1586 0.8379 0.5223
vn 0.1567 0.8403 0.5190
vn -0.0652 0.9811 0.1820
vn 0.0743 0.8988 0.4320
vn -0.0451 0.8767 0.4790
vn 0.0408 0.7981 0.6011
vn -0.0931 0.7541 0.6502
vn -0.0838 0.7435 0.6635
vn 0.2579 0.8378 0.4812
vn 0.2541 0.8427 0.4747
vn 0.1543 0.8277 0.5395
vn 0.0543 0.9302 0.3630
vn -0.3212 0.8999 0.2950
vn -0.1314 0.7732 0.6204
vn 0.0417 0.8368 0.5460
vn 0.1608 0.6953 0.7006
vn -0.0006 0.6347 0.7728
vn -0.0889 0.7377 0.6692
vn -0.0842 0.7402 0.6671
vn -0.0071 0.6183 0.7859
vn 0.2448 0.7205 0.6488
vn 0.1596 0.8351 0.5263
vn 0.0335 0.8066 0.5901
vn 0.0186 0.8244 0.5657
vn -0.4851 0.6588 0.5750
vn -0.3776 0.6016 0.7039
vn -0.1378 0.7550 0.6411
vn 0.0797 0.5163 0.8527
vn 0.1171 0.5352 0.8366
vn 0.0940 0.5644 0.8201
vn -0.1043 0.4498 0.8870
vn -0.2191 0.6065 0.7643
vn 0.0074 0.7586 0.6515
vn 0.0968 0.5992 0.7947
vn 0.1480 0.6233 0.7678
vn 0.1189 0.6704 0.7324
vn -0.0064 0.6284 0.7779
vn 0.0737 0.4892 0.8690
vn 0.0879 0.9917 -0.0936
vn -0.1633 0.9785 -0.1258
vn -0.2022 0.9792 0.0164
vn -0.0177 0.8592 0.5114
vn 0.0031 0.7974 0.6034
vn -0.0857 0.8974 0.4328
vn -0.0441 0.8073 0.5885
vn -0.1322 0.8971 -0.4216
vn -0.1148 0.8936 -0.4340
vn -0.1759 0.9732 -0.1483
vn -0.0752 0.9721 -0.2221
vn -0.0618 0.9320 -0.3572
vn -0.0727 0.9347 -0.3478
vn 0.0013 0.9303 0.3669
vn -0.0426 0.9183 0.3935
vn -0.0049 0.9930 -0.1180
vn -0.0565 0.9955 -0.0762
vn -0.0419 0.9506 -0.3075
vn -0.1921 0.9690 -0.1552
vn 0.0094 0.8325 0.5540
vn -0.0355 0.8167 0.5760
vn -0.0229 0.9057 0.4233
vn 0.2208 0.9393 0.2626
vn 0.2175 0.9250 0.3116
vn 0.3056 0.9219 0.2382
vn 0.2902 0.8590 0.4218
vn 0.3090 0.8600 0.4060
vn -0.0845 0.9011 0.4253
vn 0.0934 0.9379 0.3341
vn 0.0460 0.7170 0.6955
vn 0.4121 0.7587 0.5044
vn 0.4066 0.7402 0.5355
vn 0.3048 0.7379 0.6021
vn 0.3492 0.8896 0.2942
vn 0.2270 0.8925 0.3897
vn 0.2325 0.9154 0.3285
vn 0.3554 0.9091 0.2174
vn -0.0367 0.8305 0.5558
vn 0.2413 0.8646 0.4406
vn 0.2213 0.7836 0.5805
vn 0.4701 0.7631 0.4435
vn 0.4520 0.6843 0.5722
vn 0.1004 0.6728 0.7330
vn 0.1504 0.9087 0.3895
vn 0.2680 0.9079 0.3224
vn 0.2590 0.8679 0.4239
vn 0.3669 0.8605 0.3534
vn 0.3782 0.8947 0.2375
vn 0.4966 0.8589 0.1252
vn 0.0457 0.6096 0.7914
vn 0.2812 0.6321 0.7221
vn 0.3104 0.7554 0.5771
vn 0.4899 0.7208 0.4903
vn 0.4906 0.7265 0.4812
vn 0.0537 0.7693 0.6367
vn 0.0497 0.7473 0.6627
vn 0.4815 0.7085 0.5159
vn 0.4732 0.6794 0.5608
vn 0.5266 0.6639 0.5310
vn 0.5326 0.6792 0.5049
vn 0.5882 0.6605 0.4667
vn 0.6310 0.7411 0.2294
vn 0.7164 0.6842 0.1367
vn 0.7801 0.5549 -0.2890
vn 0.7228 0.5595 -0.4056
vn 0.6642 0.5454 -0.5112
vn 0.7405 0.3995 -0.5404
vn 0.7940 0.1367 -0.5924
vn 0.4501 -0.2467 -0.8582
vn 0.1098 -0.3791 -0.9188
vn 0.7582 0.4909 -0.4291
vn 0.6129 0.5329 -0.5834
vn 0.6943 0.4852 -0.5315
vn 0.5817 0.5250 -0.6213
vn 0.5969 0.4914 -0.6342
vn 0.5980 0.4911 -0.6334
vn 0.6691 0.5596 -0.4890
vn 0.5318 0.6280 -0.5682
vn 0.5818 0.5252 -0.6211
vn 0.5806 0.5256 -0.6218
vn 0.5952 0.4839 -0.6415
vn 0.4003 0.5309 -0.7469
vn 0.7377 0.3935 -0.5485
vn 0.4955 0.5659 -0.6590
vn 0.5004 0.5531 -0.6661
vn 0.4624 0.5712 -0.6781
vn 0.5162 0.3775 -0.7688
vn 0.1779 0.4865 -0.8554
vn 0.2558 0.1908 -0.9477
vn 0.1482 0.2171 -0.9648
vn 0.4599 -0.1849 -0.8685
vn 0.2291 0.1241 -0.9655
vn 0.2290 0.1740 -0.9578
vn 0.2690 0.1341 -0.9538
vn 0.2656 0.1805 -0.9470
vn -0.0203 0.3643 -0.9311
vn 0.0315 0.0903 -0.9954
vn 0.1372 0.0339 -0.9900
vn 0.1192 0.1178 -0.9859
vn 0.2244 0.0715 -0.9719
vn 0.0970 -0.4280 -0.8986
vn 0.0405 -0.2764 -0.9602
vn 0.0702 -0.0546 -0.9960
vn 0.1423 -0.1965 -0.9701
vn 0.1466 -0.0679 -0.9869
vn -0.0556 0.2059 -0.9770
vn -0.0595 0.2487 -0.9668
vn 0.1570 0.0291 -0.9872
vn 0.1521 0.0777 -0.9853
vn 0.3353 -0.0695 -0.9396
vn 0.2988 0.3118 -0.9019
vn 0.4447 0.2113 -0.8704
vn 0.0560 -0.4018 -0.9140
vn 0.0323 -0.3153 -0.9484
vn 0.0388 -0.2778 -0.9599
vn 0.0515 -0.3134 -0.9482
vn 0.0509 -0.3208 -0.9458
vn 0.0007 -0.2101 -0.9777
vn -0.0099 0.3308 -0.9437
vn 0.2652 -0.1548 -0.9517
vn 0.2488 0.3196 -0.9143
vn 0.5345 -0.0858 -0.8408
vn 0.5055 0.4697 -0.7238
vn 0.5376 0.4374 -0.7209
vn 0.5330 0.4638 -0.7076
vn 0.1601 0.7019 -0.6941
vn -0.0160 0.7899 -0.6131
vn 0.0474 0.8420 -0.5373
vn 0.0779 0.8858 -0.4575
vn -0.1043 0.6963 -0.7101
vn -0.0933 0.4437 -0.8913
vn -0.2983 -0.1116 -0.9479
vn -0.2009 -0.1842 -0.9621
vn 0.0476 0.8442 -0.5338
vn 0.1862 0.6566 -0.7309
vn 0.0757 0.8611 -0.5027
vn 0.0346 0.9032 -0.4278
vn -0.0076 0.3049 -0.9524
vn -0.0997 0.6123 -0.7843
vn -0.0777 0.8103 -0.5808
vn -0.0326 0.7615 -0.6473
vn -0.0209 0.8655 -0.5005
vn 0.1106 0.6651 -0.7385
vn 0.1355 0.8405 -0.5246
vn 0.0147 0.9710 -0.2388
vn -0.0739 0.7161 -0.6941
vn 0.0760 0.5648 -0.8217
vn 0.0654 0.8260 -0.5599
vn 0.0481 0.8419 -0.5375
vn 0.0397 0.5932 -0.8041
vn -0.1659 0.9044 -0.3931
vn -0.1677 0.8995 -0.4035
vn -0.1465 0.8694 -0.4720
vn -0.2822 0.2736 -0.9195
vn -0.1454 0.0900 -0.9853
vn -0.1458 0.3503 -0.9252
vn -0.3471 0.6389 -0.6865
vn -0.4230 0.3081 -0.8521
vn -0.4874 0.7216 -0.4917
vn -0.5615 0.5333 -0.6326
vn -0.5409 0.7736 -0.3300
vn -0.5592 0.2901 -0.7766
vn -0.3219 -0.0095 -0.9467
vn -0.1884 0.0349 -0.9815
vn -0.2658 0.1632 -0.9501
vn -0.3006 -0.1463 -0.9425
vn -0.5258 0.3614 -0.7700
vn -0.4065 0.5885 -0.6988
vn -0.4244 0.7265 -0.5405
vn -0.3041 0.8638 -0.4018
vn 0.1757 0.1642 0.9706
vn -0.3506 0.9365 0.0011
vn 0.2859 -0.6039 -0.7440
vn 0.1943 0.3190 -0.9276
vn 0.1803 0.3441 -0.9215
vn -0.2638 -0.2906 -0.9198
vn -0.3354 -0.1972 -0.9212
vn -0.2910 0.1305 -0.9478
vn -0.3242 0.1689 -0.9308
vn -0.1111 0.6623 -0.7409
vn -0.2420 0.7532 -0.6116
vn -0.1247 0.8971 -0.4238
vn -0.1181 0.8914 -0.4376
vn -0.0670 0.4979 0.8646
vn -0.1650 -0.6378 0.7523
vn 0.0997 -0.8678 -0.4869
vn 0.0344 0.3607 -0.9320
vn 0.0097 0.2750 -0.9614
vn -0.0801 0.4756 -0.8760
vn -0.1426 0.4539 -0.8796
vn -0.1958 0.4067 -0.8923
vn -0.3970 0.2583 -0.8807
vn -0.4043 0.0512 -0.9132
vn -0.5113 -0.1343 -0.8488
vn -0.5905 -0.4545 -0.6669
vn -0.6100 -0.5710 -0.5494
vn -0.1674 0.4600 -0.8720
vn -0.1725 0.5130 -0.8409
vn -0.3374 0.4111 -0.8469
vn -0.3581 0.4959 -0.7911
vn -0.3219 0.5382 -0.7789
vn -0.3251 0.6827 -0.6544
vn -0.3431 0.2715 -0.8992
vn -0.4159 0.4586 -0.7853
vn -0.3897 0.4941 -0.7772
vn -0.3928 0.7034 -0.5924
vn -0.4101 0.6906 -0.5957
vn -0.3350 0.9011 -0.2754
vn -0.5139 -0.0245 -0.8575
vn -0.6839 0.1949 -0.7030
vn -0.6043 0.4078 -0.6845
vn -0.6365 0.5956 -0.4900
vn -0.5412 0.6944 -0.4742
vn -0.4701 0.8568 -0.2122
vn -0.3833 0.8992 -0.2112
vn -0.2594 0.9654 0.0275
vn -0.6405 -0.3380 -0.6896
vn -0.8483 -0.1908 -0.4939
vn -0.8620 0.0433 -0.5051
vn -0.9354 0.1992 -0.2922
vn -0.7986 0.5271 -0.2904
vn -0.7462 0.6626 -0.0633
vn -0.5452 0.8343 -0.0816
vn -0.3684 0.9102 0.1890
vn -0.3136 0.9333 0.1747
vn -0.2758 0.9368 0.2152
vn -0.6025 -0.5807 -0.5475
vn -0.7982 -0.5016 -0.3337
vn -0.8852 -0.3104 -0.3466
vn -0.9743 -0.1901 -0.1212
vn -0.9872 0.0981 -0.1256
vn -0.9502 0.2665 0.1619
vn -0.8016 0.5840 0.1281
vn -0.5810 0.7009 0.4137
vn -0.3939 0.8572 0.3317
vn -0.2370 0.8604 0.4512
vn -0.3198 0.8107 0.4904
vn -0.3215 0.8107 0.4893
vn -0.5867 -0.6593 -0.4703
vn -0.7887 -0.5733 -0.2218
vn -0.7716 -0.5959 -0.2224
vn -0.8856 -0.4560 0.0880
vn -0.9322 -0.3490 0.0963
vn -0.8966 -0.1745 0.4069
vn -0.9055 0.1018 0.4120
vn -0.7055 0.2540 0.6616
vn -0.5561 0.5998 0.5753
vn -0.3172 0.6387 0.7011
vn -0.2233 0.7450 0.6286
vn -0.1789 0.7440 0.6438
vn -0.3121 0.6229 0.7173
vn -0.2576 0.6236 0.7380
vn -0.4810 0.3788 0.7907
vn -0.5095 0.1352 0.8498
vn -0.3094 -0.1719 0.9353
vn -0.1341 -0.1808 0.9743
vn -0.0641 -0.2370 0.9694
vn -0.1903 -0.5490 0.8138
vn -0.4483 0.1424 0.8825
vn -0.4787 0.3769 0.7930
vn -0.4060 0.4226 0.8103
vn -0.2970 -0.0624 0.9528
vn -0.1996 0.0120 0.9798
vn -0.1842 0.1604 0.9697
vn 0.0274 0.2778 0.9602
vn -0.1418 -0.3615 0.9215
vn -0.0275 -0.2299 0.9728
vn -0.0267 -0.1940 0.9806
vn 0.0888 -0.1072 0.9903
vn 0.1014 0.1682 0.9805
vn 0.0732 0.1520 0.9857
vn -0.0582 -0.2984 0.9527
vn -0.0673 -0.3185 0.9455
vn -0.0874 -0.1491 0.9850
vn -0.1210 -0.1921 0.9739
vn -0.2136 0.2554 0.9429
vn -0.1993 0.2705 0.9419
vn -0.2234 0.5290 0.8187
vn -0.2197 0.5327 0.8173
vn -0.2339 -0.0216 0.9720
vn -0.2614 -0.0694 0.9627
vn -0.2661 0.0026 0.9639
vn -0.3396 -0.1687 0.9253
vn -0.3751 0.1056 0.9210
vn -0.2538 0.2739 0.9277
vn -0.2530 0.3470 0.9031
vn -0.1500 0.4637 0.8732
vn -0.1521 0.4294 0.8902
vn 0.1027 0.6646 0.7401
vn -0.3859 -0.3605 0.8492
vn -0.3163 -0.1355 0.9389
vn -0.3279 0.0386 0.9439
vn -0.3110 0.0753 0.9474
vn -0.3017 -0.2291 0.9255
vn -0.0788 0.1589 0.9841
vn -0.0749 -0.0156 0.9971
vn 0.0745 0.1888 0.9792
vn 0.0700 0.1148 0.9909
vn 0.2232 0.2722 0.9360
vn 0.2415 0.4659 0.8512
vn 0.0863 0.3275 0.9409
vn -0.3311 -0.1081 0.9374
vn -0.3383 -0.1214 0.9332
vn -0.3388 -0.0942 0.9361
vn -0.1471 0.2670 0.9524
vn -0.1285 -0.3338 0.9338
vn 0.0055 -0.0412 0.9991
vn 0.0008 0.0224 0.9997
vn 0.1753 0.3062 0.9357
vn 0.1758 -0.0104 0.9844
vn 0.2359 0.0719 0.9691
vn 0.2452 0.2361 0.9403
vn 0.0752 0.0510 0.9959
vn 0.0954 0.3157 0.9441
vn 0.0574 0.2781 0.9588
vn 0.0895 0.1940 0.9769
vn 0.1296 0.2406 0.9619
vn 0.4780 0.3123 0.8209
vn 0.5907 0.0048 0.8068
vn 0.5734 -0.5429 0.6136
vn 0.3897 -0.7948 0.4652
vn 0.1667 -0.8109 0.5609
vn 0.1437 0.1692 0.9750
vn 0.3127 0.5376 0.7830
vn 0.4965 -0.0004 0.8680
vn 0.5909 0.1750 0.7876
vn 0.5707 0.3892 0.7230
vn 0.5850 0.4266 0.6897
vn 0.5829 0.2048 0.7863
vn 0.3944 -0.1658 0.9039
vn 0.3574 0.3521 0.8651
vn 0.3095 0.2333 0.9218
vn 0.2088 0.6042 0.7690
vn 0.1835 0.5158 0.8369
vn 0.6657 -0.1256 0.7355
vn 0.4137 -0.4998 0.7610
vn 0.4630 -0.2311 0.8557
vn 0.5918 -0.0309 0.8055
vn 0.5953 0.0571 0.8015
vn 0.6617 0.1800 0.7279
vn 0.6421 0.3541 0.6800
vn 0.6258 0.3171 0.7126
vn 0.5409 -0.4223 0.7273
vn 0.2200 -0.7362 0.6400
vn 0.3058 -0.3343 0.8915
vn 0.4987 -0.0488 0.8654
vn 0.5006 0.0603 0.8636
vn 0.6002 0.2592 0.7567
vn 0.6053 0.2149 0.7664
vn 0.6303 0.2642 0.7300
vn 0.6200 0.3192 0.7167
vn 0.6483 0.3798 0.6599
vn 0.3037 -0.3622 0.8812
vn 0.1852 -0.4729 0.8615
vn 0.1554 -0.6078 0.7788
vn 0.4729 -0.3426 0.8118
vn 0.5119 -0.0684 0.8563
vn 0.6719 0.2063 0.7114
vn 0.6726 0.1989 0.7128
vn 0.7242 0.3092 0.6164
vn 0.7403 0.2062 0.6399
vn 0.7324 0.1931 0.6529
vn 0.6946 0.3647 0.6201
vn 0.7149 0.4079 0.5679
vn 0.1081 -0.4120 0.9048
vn 0.2702 -0.3175 0.9089
vn 0.2085 -0.5482 0.8099
vn 0.4128 -0.4364 0.7995
vn 0.4511 -0.2874 0.8449
vn 0.5796 -0.1631 0.7984
vn 0.5814 0.3056 0.7541
vn 0.6503 0.4463 0.6148
vn 0.6808 0.3395 0.6490
vn 0.7125 0.4070 0.5716
vn 0.7683 0.1752 0.6156
vn 0.8358 0.2786 0.4730
vn 0.8109 0.3708 0.4526
vn 0.8468 0.4738 0.2415
vn 0.1211 0.6153 -0.7789
vn 0.5213 0.3837 -0.7623
vn 0.6670 0.3556 -0.6547
vn 0.4586 0.5124 -0.7260
vn 0.2561 0.4172 -0.8720
vn 0.2424 -0.0537 -0.9687
vn 0.2377 -0.1436 -0.9607
vn 0.1007 0.8636 -0.4940
vn 0.0650 0.8254 -0.5608
vn 0.4808 0.6248 -0.6151
vn 0.4166 0.4647 -0.7814
vn 0.0650 0.8344 -0.5472
vn 0.1108 0.8649 -0.4897
vn 0.6885 0.0916 -0.7195
vn 0.7007 0.1336 -0.7009
vn 0.3962 0.5904 -0.7032
vn 0.3397 0.5123 -0.7888
vn 0.1172 0.7218 -0.6821
vn -0.0282 0.6146 -0.7883
vn 0.5258 -0.1137 -0.8430
vn 0.6335 0.2370 -0.7365
vn 0.7030 0.1010 -0.7040
vn 0.5824 -0.1730 -0.7943
vn 0.3683 0.1897 -0.9102
vn 0.2439 0.0324 -0.9693
vn -0.0561 0.4167 -0.9073
vn -0.0630 0.4114 -0.9093
vn 0.2931 -0.1594 -0.9427
vn 0.4510 0.1587 -0.8783
vn 0.6541 -0.3220 -0.6845
vn 0.6959 -0.2364 -0.6781
vn 0.5811 0.0015 -0.8139
vn 0.3895 -0.2963 -0.8721
vn 0.2414 -0.0773 -0.9673
vn 0.0345 -0.2968 -0.9543
vn -0.1075 -0.1082 -0.9883
vn -0.2263 -0.2164 -0.9497
vn 0.2417 -0.1512 -0.9585
vn 0.3658 0.0024 -0.9307
vn 0.4779 -0.2207 -0.8502
vn 0.5663 -0.0615 -0.8219
vn 0.6913 -0.3226 -0.6466
vn 0.5082 -0.5914 -0.6261
vn 0.3851 -0.3768 -0.8424
vn 0.2095 -0.5700 -0.7945
vn 0.0333 -0.3195 -0.9470
vn -0.0798 -0.4319 -0.8984
vn -0.2246 -0.1992 -0.9539
vn -0.2044 -0.1785 -0.9625
vn 0.2348 -0.2178 -0.9473
vn 0.3455 -0.1259 -0.9299
vn 0.3728 -0.1773 -0.9108
vn 0.3144 -0.2423 -0.9178
vn 0.5097 -0.7257 -0.4621
vn 0.6622 -0.5468 -0.5124
vn 0.5333 -0.2926 -0.7937
vn 0.3269 -0.5527 -0.7665
vn 0.2225 -0.4003 -0.8889
vn 0.0066 -0.6116 -0.7912
vn -0.0850 -0.4786 -0.8739
vn -0.0479 -0.4441 -0.8947
vn -0.2079 -0.1998 -0.9575
vn -0.2187 -0.2096 -0.9530
vn -0.1416 0.4486 -0.8824
vn -0.0959 0.2203 -0.9707
vn -0.1066 -0.7814 0.6148
vn -0.0944 0.9084 -0.4074
vn -0.2717 0.7388 -0.6167
vn -0.2057 0.2815 -0.9372
vn -0.1698 0.0128 -0.9854
vn -0.1003 0.5614 -0.8214
vn -0.2159 0.4924 -0.8431
vn 0.1064 0.7751 -0.6228
vn -0.2038 0.4900 -0.8475
vn -0.2123 0.5158 -0.8300
vn -0.4752 0.3907 -0.7884
vn 0.1214 0.6725 -0.7301
vn -0.0627 0.3893 -0.9190
vn -0.1955 0.6070 -0.7703
vn -0.6293 0.2576 -0.7333
vn -0.4509 0.0426 -0.8915
vn -0.4134 0.0605 -0.9086
vn 0.0181 0.5642 -0.8254
vn -0.0930 0.4556 -0.8853
vn -0.0706 0.4367 -0.8968
vn -0.4575 -0.0616 -0.8871
vn -0.6183 0.1044 -0.7790
vn -0.7747 -0.0501 -0.6304
vn -0.3591 -0.3019 -0.8831
vn -0.3181 -0.2625 -0.9110
vn -0.3868 0.3819 -0.8394
vn -0.3492 0.4079 -0.8436
vn -0.0109 0.2365 -0.9716
vn -0.2853 -0.2213 -0.9325
vn -0.4464 -0.1115 -0.8879
vn -0.6322 -0.4649 -0.6198
vn -0.6811 -0.4355 -0.5886
vn -0.5444 -0.2942 -0.7855
vn -0.2825 -0.3795 -0.8810
vn -0.3451 -0.5292 -0.7752
vn -0.2157 0.0357 -0.9758
vn -0.3485 -0.1606 -0.9235
vn -0.3170 -0.1746 -0.9322
vn -0.3715 -0.2329 -0.8988
vn -0.2595 -0.2814 -0.9238
vn -0.3873 -0.6563 -0.6476
vn -0.5961 -0.5553 -0.5799
vn -0.5793 -0.5053 -0.6396
vn -0.4804 -0.5269 -0.7012
vn -0.4447 -0.4573 -0.7701
vn -0.3820 -0.4708 -0.7953
vn -0.3975 -0.6135 -0.6824
vn -0.1528 -0.3106 -0.9382
vn -0.1686 -0.3366 -0.9265
vn -0.3262 -0.2629 -0.9080
vn -0.4238 -0.5036 -0.7529
vn -0.2625 -0.5629 -0.7837
vn -0.2976 -0.6379 -0.7103
vn -0.4142 -0.6035 -0.6814
vn -0.4076 -0.5793 -0.7059
vn -0.5665 -0.5533 -0.6107
vn -0.5269 -0.4624 -0.7132
vn -0.4385 -0.4693 -0.7665
vn -0.4572 -0.5199 -0.7216
vn -0.4725 -0.5183 -0.7128
vn -0.4847 -0.6218 -0.6152
vn -0.2209 0.4826 0.8475
vn -0.1254 0.5260 0.8412
vn -0.2454 0.5072 0.8261
vn -0.5832 0.1099 0.8049
vn -0.7296 -0.3304 0.5987
vn -0.7177 -0.6236 0.3099
vn -0.6563 -0.7543 -0.0146
vn -0.2162 0.4907 0.8441
vn -0.1627 0.3551 0.9206
vn -0.1151 0.5465 0.8295
vn -0.0230 0.3762 0.9262
vn -0.2032 0.2728 0.9404
vn -0.0805 0.0406 0.9959
vn -0.3069 0.2666 0.9136
vn -0.1843 0.1363 0.9734
vn -0.0603 0.2200 0.9736
vn 0.0466 0.0921 0.9947
vn -0.1104 -0.0578 0.9922
vn -0.0803 -0.1018 0.9916
vn -0.5773 -0.1629 0.8001
vn -0.3521 -0.3001 0.8865
vn -0.1810 -0.1219 0.9759
vn -0.0445 -0.2124 0.9762
vn 0.0374 -0.1064 0.9936
vn 0.0344 -0.1040 0.9940
vn -0.0972 -0.2898 0.9522
vn -0.0892 -0.2985 0.9502
vn -0.6759 -0.4811 0.5583
vn -0.3791 -0.6020 0.7028
vn -0.3059 -0.4644 0.8311
vn -0.1427 -0.5192 0.8426
vn -0.0302 -0.2838 0.9584
vn 0.0561 -0.3270 0.9434
vn 0.0555 -0.3282 0.9430
vn -0.1336 -0.2103 0.9685
vn -0.1034 -0.1402 0.9847
vn 0.0406 -0.2511 0.9671
vn -0.7070 -0.6385 0.3040
vn -0.4417 -0.7523 0.4888
vn -0.4018 -0.5626 0.7225
vn -0.2375 -0.6015 0.7628
vn -0.1886 -0.4119 0.8915
vn 0.0396 -0.4727 0.8803
vn 0.0682 -0.3677 0.9275
vn -0.0762 -0.3196 0.9445
vn -0.1049 -0.3809 0.9187
vn 0.1244 -0.4608 0.8787
vn 0.0466 -0.5878 0.8077
vn -0.5530 -0.2351 0.7993
vn -0.6474 -0.7619 -0.0185
vn -0.4263 -0.8825 0.1988
vn -0.4382 -0.7558 0.4865
vn -0.3184 -0.7756 0.5451
vn -0.2721 -0.5483 0.7908
vn 0.0083 -0.5632 0.8263
vn 0.0293 -0.4509 0.8921
vn -0.0018 -0.4483 0.8939
vn -0.0287 -0.5302 0.8474
vn 0.1671 -0.5533 0.8160
vn 0.1525 -0.5890 0.7936
vn -0.4852 -0.4065 0.7741
vn -0.4956 -0.4255 0.7572
vn -0.5032 -0.4203 0.7551
vn 0.1040 0.2235 0.9691
vn 0.1700 -0.0909 0.9812
vn 0.2257 0.0925 0.9698
vn 0.2317 0.1956 0.9529
vn -0.0356 0.0376 0.9987
vn -0.1346 0.2440 0.9604
vn -0.3147 -0.1595 0.9357
vn 0.1248 -0.1667 0.9781
vn 0.0061 -0.0260 0.9996
vn 0.1705 -0.0192 0.9852
vn 0.0862 0.1302 0.9877
vn 0.0074 -0.0423 0.9991
vn 0.1698 -0.2528 0.9525
vn 0.2242 0.1797 0.9578
vn 0.1588 0.3096 0.9375
vn 0.0854 0.1642 0.9827
vn 0.0405 0.2387 0.9702
vn 0.1535 0.4385 0.8855
vn 0.5462 -0.0806 0.8338
vn 0.2115 0.4139 0.8854
vn 0.1730 0.4666 0.8674
vn 0.1546 0.4430 0.8831
vn 0.1503 0.4487 0.8809
vn 0.0416 0.3052 0.9514
vn 0.3202 -0.1080 0.9412
vn 0.5320 0.2489 0.8093
vn 0.7839 -0.2132 0.5831
vn -0.0360 0.3485 0.9366
vn 0.0737 0.1823 0.9805
vn 0.1826 0.2979 0.9370
vn 0.1706 0.3127 0.9344
vn 0.1501 0.2921 0.9445
vn 0.2717 0.1324 0.9532
vn 0.3173 0.1889 0.9293
vn 0.6406 -0.3148 0.7004
vn 0.7861 -0.0216 0.6177
vn 0.8461 -0.1845 0.5000
vn -0.1550 -0.0233 0.9876
vn -0.1606 -0.0152 0.9869
vn 0.0737 0.1826 0.9804
vn 0.2109 0.0140 0.9774
vn 0.1637 -0.0315 0.9860
vn 0.1860 -0.0626 0.9805
vn 0.2733 0.0237 0.9616
vn 0.4952 -0.3008 0.8151
vn 0.6425 -0.0964 0.7602
vn 0.7904 -0.4376 0.4287
vn 0.8286 -0.3677 0.4221
vn 0.7703 -0.1607 0.6171
vn -0.3394 -0.3784 0.8612
vn -0.3490 -0.3634 0.8638
vn -0.1850 -0.2310 0.9552
vn -0.0163 -0.4707 0.8821
vn 0.2042 -0.2846 0.9366
vn 0.1956 -0.2739 0.9417
vn 0.1720 -0.2944 0.9401
vn 0.2631 -0.4337 0.8618
vn 0.4950 -0.2056 0.8442
vn 0.6707 -0.4927 0.5545
vn 0.8064 -0.2824 0.5196
vn 0.8461 -0.4442 0.2946
vn 0.6917 -0.6577 0.2983
vn 0.5869 -0.2574 0.7676
vn 0.9127 0.4040 0.0614
vn 0.8614 0.2633 0.4343
vn 0.7135 0.4065 0.5707
vn 0.5892 0.4864 0.6451
vn 0.4490 0.0728 0.8906
vn 0.3568 -0.2527 0.8994
vn 0.2767 -0.3432 0.8976
vn 0.8584 0.5095 0.0601
vn 0.8954 0.4311 -0.1117
vn 0.7359 0.5248 0.4278
vn 0.8983 0.4084 0.1624
vn 0.8227 0.5587 -0.1048
vn 0.8407 0.4322 -0.3262
vn 0.6223 0.5805 0.5252
vn 0.8241 0.4623 0.3273
vn 0.8121 0.5612 0.1601
vn 0.9090 0.3487 -0.2281
vn 0.8481 0.4158 -0.3285
vn 0.8250 0.3200 -0.4657
vn 0.6420 0.2712 0.7171
vn 0.7595 0.1536 0.6321
vn 0.8729 0.3433 0.3466
vn 0.9944 0.0799 -0.0696
vn 0.9510 0.1912 -0.2431
vn 0.8734 0.0314 -0.4859
vn 0.8697 0.0377 -0.4922
vn 0.8628 0.0283 -0.5048
vn 0.3758 -0.2459 0.8935
vn 0.3996 -0.3189 0.8595
vn 0.7110 -0.2028 0.6733
vn 0.7878 -0.4549 0.4153
vn 0.9748 -0.2101 -0.0751
vn 0.8611 -0.3539 -0.3650
vn 0.8330 -0.2437 -0.4967
vn 0.7486 -0.2965 -0.5930
vn 0.7778 -0.4078 -0.4782
vn 0.5638 -0.5105 -0.6492
vn 0.3213 -0.3407 0.8836
vn 0.3380 -0.4250 0.8397
vn 0.3371 -0.4250 0.8401
vn 0.3520 -0.6241 0.6976
vn 0.6792 -0.6103 0.4077
vn 0.6286 -0.7661 0.1339
vn 0.7641 -0.5353 -0.3599
vn 0.5946 -0.5779 -0.5590
vn 0.4171 -0.6000 -0.6827
vn 0.4310 -0.7049 -0.5634
vn 0.2025 -0.7026 -0.6822
vn 0.1694 -0.5392 0.8250
vn 0.1731 -0.6196 0.7656
vn 0.1808 -0.6220 0.7618
vn 0.1753 -0.6884 0.7038
vn 0.2401 -0.7120 0.6599
vn 0.2073 -0.8299 0.5180
vn 0.4734 -0.8705 0.1343
vn 0.3276 -0.9275 -0.1799
vn 0.4025 -0.7560 -0.5162
vn 0.2316 -0.7164 -0.6581
vn 0.2269 -0.7762 -0.5882
vn 0.2509 -0.7813 -0.5715
vn 0.2376 -0.6574 -0.7151
vn 0.1655 -0.6393 -0.7510
vn 0.2039 -0.4809 -0.8527
vn 0.2215 -0.7119 -0.6665
vn 0.2079 -0.6891 -0.6942
vn 0.2960 -0.7814 -0.5493
vn 0.4892 -0.8334 -0.2571
vn 0.4030 -0.8977 -0.1780
vn 0.2858 -0.9460 -0.1532
vn 0.2686 -0.4149 -0.8693
vn 0.3299 -0.4954 -0.8036
vn 0.2009 -0.7245 -0.6594
vn 0.1629 -0.6747 -0.7199
vn 0.1662 -0.6572 -0.7352
vn 0.2499 -0.7852 -0.5666
vn 0.3181 -0.6231 -0.7145
vn 0.3820 -0.6962 -0.6078
vn 0.3951 -0.4789 -0.7839
vn 0.5637 -0.6973 -0.4428
vn 0.5835 -0.3909 -0.7119
vn 0.6657 -0.5226 -0.5326
vn 0.5136 -0.6362 -0.5757
vn 0.5019 -0.6263 -0.5966
vn 0.5020 -0.5932 -0.6294
vn 0.5078 -0.5995 -0.6186
vn 0.4822 -0.7748 -0.4089
vn 0.4358 -0.7201 -0.5399
vn 0.4144 -0.7996 -0.4347
vn 0.3121 -0.6698 -0.6737
vn 0.4121 -0.8800 -0.2361
vn 0.3498 -0.8526 -0.3882
vn 0.3713 -0.7250 -0.5801
vn 0.3709 -0.7247 -0.5808
vn 0.3716 -0.7186 -0.5879
vn 0.3720 -0.7190 -0.5871
vn 0.3594 -0.7818 -0.5095
vn 0.2154 -0.5793 -0.7861
vn 0.1831 -0.7603 -0.6232
vn 0.0230 -0.4828 -0.8754
vn 0.2825 -0.9502 -0.1319
vn 0.2113 -0.9290 -0.3037
vn 0.2172 -0.9137 -0.3435
vn 0.1936 -0.8996 -0.3915
vn 0.2095 -0.8176 -0.5363
vn 0.2060 -0.8145 -0.5423
vn 0.2043 -0.8235 -0.5293
vn 0.0265 -0.5945 -0.8037
vn 0.0090 -0.6995 -0.7146
vn -0.0419 -0.6157 -0.7868
vn -0.0286 -0.5125 -0.8582
vn -0.0514 -0.4681 -0.8822
vn 0.0243 -0.9993 -0.0274
vn -0.0339 -0.9873 -0.1549
vn -0.0288 -0.9825 -0.1838
vn -0.1483 -0.8828 -0.4457
vn -0.1928 -0.9638 -0.1844
vn -0.2627 -0.9083 -0.3257
vn -0.2648 -0.9137 -0.3081
vn -0.3244 -0.8560 -0.4026
vn -0.2885 -0.6858 -0.6682
vn -0.1884 -0.8196 -0.5410
vn -0.1756 -0.6572 -0.7330
vn -0.1854 -0.6422 -0.7438
vn -0.1669 -0.5097 -0.8440
vn -0.2456 -0.3422 -0.9069
vn -0.2960 -0.3502 -0.8887
vn -0.2718 -0.6554 -0.7047
vn -0.1707 -0.8171 -0.5506
vn 0.0043 -0.8119 -0.5838
vn 0.0417 -0.8653 -0.4995
vn -0.1911 -0.8873 -0.4197
vn -0.1443 -0.9858 -0.0863
vn -0.3309 -0.4347 -0.8376
vn -0.1481 -0.4218 -0.8945
vn -0.2457 -0.5980 -0.7629
vn -0.1332 -0.5733 -0.8084
vn -0.1642 -0.4718 -0.8663
vn -0.4427 -0.4522 -0.7743
vn -0.0880 -0.6420 -0.7617
vn -0.0496 -0.6286 -0.7762
vn -0.1074 -0.4847 -0.8681
vn -0.5190 -0.4967 -0.6956
vn -0.4702 -0.6251 -0.6231
vn -0.2816 -0.6684 -0.6884
vn -0.0034 -0.8274 -0.5616
vn 0.1318 -0.7779 -0.6144
vn -0.0327 -0.5632 -0.8257
vn -0.5551 -0.6122 -0.5631
vn -0.5500 -0.6252 -0.5538
vn -0.3486 -0.6692 -0.6562
vn -0.2975 -0.7398 -0.6035
vn -0.3441 -0.7350 -0.5842
vn -0.0133 -0.9808 -0.1947
vn 0.2994 -0.8928 -0.3366
vn 0.1232 -0.8189 -0.5606
vn -0.3913 -0.8792 -0.2720
vn -0.5608 -0.6254 -0.5425
vn -0.5519 -0.6274 -0.5493
vn -0.3858 -0.8390 -0.3836
vn -0.1643 -0.8511 -0.4986
vn -0.3037 -0.6519 -0.6949
vn -0.4539 -0.6469 -0.6128
vn -0.2133 -0.9594 -0.1843
vn 0.0021 -0.9503 -0.3113
vn 0.2863 -0.9580 0.0145
vn -0.0612 -0.9700 0.2354
vn -0.4056 -0.9011 -0.1534
vn -0.4591 -0.8821 -0.1055
vn -0.6249 -0.7139 -0.3160
vn -0.1579 -0.7759 -0.6107
vn -0.1398 -0.7906 -0.5961
vn -0.2758 -0.8067 -0.5226
vn -0.4339 -0.6168 -0.6567
vn -0.3768 -0.6223 -0.6861
vn -0.1384 -0.9792 -0.1484
vn -0.0992 -0.9789 -0.1785
vn 0.0372 -0.9992 -0.0152
vn -0.2539 -0.9455 0.2040
vn -0.0571 -0.9163 0.3965
vn -0.0257 -0.9282 0.3711
vn -0.4684 -0.8810 -0.0672
vn -0.1691 -0.9364 -0.3076
vn -0.2369 -0.9068 -0.3486
vn -0.1850 -0.9064 -0.3797
vn -0.2941 -0.8442 -0.4482
vn -0.2564 -0.8442 -0.4708
vn -0.4404 -0.7100 -0.5495
vn -0.3824 -0.7195 -0.5798
vn -0.4628 -0.8318 -0.3065
vn -0.3096 -0.9279 -0.2080
vn -0.2259 -0.9689 -0.1009
vn -0.2819 -0.9528 0.1127
vn -0.0364 -0.8829 0.4682
vn -0.2203 -0.9136 0.3418
vn -0.0980 -0.9858 -0.1364
vn -0.3152 -0.9265 -0.2054
vn -0.3273 -0.9340 0.1430
vn -0.1883 -0.9743 -0.1238
vn -0.2056 -0.9700 0.1297
vn -0.2672 -0.9478 0.1738
vn -0.2378 -0.8430 0.4824
vn -0.0966 -0.9951 -0.0186
vn -0.1484 -0.9079 0.3921
vn 0.0348 -0.9688 0.2454
vn 0.0205 -0.8176 0.5755
vn 0.0450 -0.8323 0.5525
vn 0.0724 -0.6419 0.7633
vn 0.0787 -0.9319 0.3540
vn 0.0758 -0.9167 0.3923
vn 0.0109 -0.8855 0.4645
vn 0.0133 -0.8244 0.5658
vn 0.0074 -0.8199 0.5724
vn 0.0237 -0.6681 0.7437
vn 0.0082 -0.6498 0.7601
vn 0.0310 -0.5213 0.8528
vn -0.2236 -0.9113 0.3458
vn -0.1488 -0.7452 0.6500
vn 0.1235 -0.9008 0.4163
vn 0.1380 -0.6245 0.7687
vn 0.2845 -0.7152 0.6384
vn 0.2830 -0.5659 0.7744
vn 0.2944 -0.5786 0.7606
vn 0.2872 -0.6250 0.7259
vn 0.2227 -0.4812 0.8478
vn 0.1862 -0.6230 0.7598
vn -0.3316 -0.9109 0.2456
vn -0.3663 -0.9302 -0.0248
vn -0.5539 -0.7446 0.3725
vn -0.5722 -0.7653 0.2946
vn -0.6157 -0.6781 0.4015
vn -0.5746 -0.6166 0.5381
vn -0.5392 -0.7136 0.4473
vn -0.4998 -0.6305 0.5938
vn -0.4429 -0.7655 0.4668
vn -0.4124 -0.6892 0.5958
vn -0.4245 -0.6586 0.6213
vn -0.4146 -0.6330 0.6537
vn 0.2207 -0.9698 0.1039
vn 0.2201 -0.9730 0.0693
vn 0.0598 -0.9439 0.3248
vn 0.0387 -0.9863 0.1603
vn -0.2157 -0.7728 0.5969
vn -0.2821 -0.9089 0.3071
vn -0.4206 -0.6072 0.6740
vn -0.5107 -0.8346 0.2066
vn -0.6097 -0.6252 0.4872
vn -0.6171 -0.6607 0.4274
vn -0.6206 -0.6526 0.4346
vn -0.6037 -0.4606 0.6507
vn -0.5509 -0.6093 0.5702
vn -0.5278 -0.3320 0.7818
vn 0.2434 -0.5238 -0.8163
vn 0.2761 -0.7607 -0.5875
vn 0.1959 -0.7398 -0.6437
vn 0.1880 -0.9698 -0.1556
vn 0.0306 -0.8832 0.4680
vn -0.0137 -0.7950 0.6065
vn 0.0390 -0.7439 0.6672
vn 0.2353 -0.7305 -0.6411
vn 0.2373 -0.7286 -0.6425
vn 0.2699 -0.7902 -0.5502
vn 0.2631 -0.7947 -0.5470
vn 0.2318 -0.7692 -0.5955
vn 0.2631 -0.7480 -0.6093
vn 0.1120 -0.9400 -0.3223
vn 0.2835 -0.8808 -0.3793
vn 0.2465 -0.8568 -0.4529
vn 0.3262 -0.8163 -0.4766
vn 0.2611 -0.7626 -0.5918
vn 0.2717 -0.7569 -0.5943
vn -0.0097 -0.9351 0.3543
vn 0.2258 -0.8965 0.3811
vn 0.1510 -0.9807 0.1241
vn 0.4148 -0.9047 0.0975
vn 0.2927 -0.9157 -0.2752
vn 0.3266 -0.9028 -0.2799
vn 0.2505 -0.8540 -0.4561
vn 0.4027 -0.7853 -0.4703
vn -0.0277 -0.8263 0.5625
vn 0.2364 -0.7189 0.6537
vn 0.1891 -0.8696 0.4560
vn 0.4734 -0.7374 0.4818
vn 0.4085 -0.9051 0.1183
vn 0.5244 -0.8433 0.1178
vn 0.3471 -0.8492 -0.3981
vn 0.3465 -0.8494 -0.3981
vn 0.3802 -0.8681 -0.3191
vn 0.3486 -0.8812 -0.3193
vn 0.0167 -0.8274 0.5613
vn 0.3564 -0.5748 0.7366
vn 0.3337 -0.7997 0.4991
vn 0.5970 -0.5808 0.5534
vn 0.5805 -0.7818 0.2278
vn 0.6806 -0.6928 0.2384
vn 0.5848 -0.7919 -0.1759
vn 0.4218 -0.8843 -0.2001
vn 0.3444 -0.8550 -0.3878
vn 0.2032 -0.8947 -0.3977
vn 0.3080 -0.9412 -0.1386
vn 0.2912 -0.9465 -0.1391
vn 0.1097 -0.8250 0.5544
vn 0.5067 -0.2676 0.8195
vn 0.5483 -0.7349 0.3991
vn 0.6941 -0.5457 0.4695
vn 0.6945 -0.6346 0.3390
vn 0.7429 -0.5720 0.3477
vn 0.7181 -0.6906 0.0867
vn 0.4445 -0.8949 0.0394
vn 0.3992 -0.9101 -0.1113
vn 0.0131 -0.9889 -0.1477
vn 0.0665 -0.9975 0.0258
vn 0.2221 -0.9744 0.0354
vn 0.2321 -0.9706 0.0640
vn -0.0591 -0.9967 0.0554
vn -0.2046 -0.2920 0.9343
vn -0.1678 -0.4130 0.8952
vn -0.1132 -0.6389 0.7610
vn -0.0587 -0.8367 0.5446
vn -0.0822 -0.8911 0.4463
vn 0.0148 -0.9893 0.1452
vn -0.0023 -0.9974 -0.0724
vn -0.1659 -0.4027 0.9002
vn -0.3660 -0.4742 0.8007
vn -0.0984 -0.5546 0.8263
vn -0.2959 -0.6160 0.7300
vn -0.2982 -0.6285 0.7183
vn -0.0206 -0.5109 0.8594
vn -0.0414 -0.7394 0.6720
vn -0.2385 -0.7856 0.5709
vn -0.2277 -0.7407 0.6321
vn 0.1005 -0.6121 0.7844
vn 0.0904 -0.6884 0.7197
vn 0.1724 -0.6412 0.7478
vn -0.0631 -0.8318 0.5514
vn -0.1106 -0.8430 0.5265
vn -0.1353 -0.9077 0.3972
vn 0.1456 -0.8344 0.5316
vn 0.1715 -0.7051 0.6881
vn -0.0011 -0.7841 0.6206
vn 0.0482 -0.4740 0.8792
vn 0.2723 -0.3063 0.9121
vn 0.0317 -0.9707 0.2382
vn 0.1041 -0.9555 0.2759
vn 0.0791 -0.9856 0.1497
vn 0.1173 -0.9789 0.1673
vn 0.1686 -0.8536 0.4930
vn 0.0598 -0.8922 0.4477
vn 0.0709 -0.8575 0.5095
vn 0.5784 -0.5002 0.6444
vn 0.5594 -0.6559 0.5069
vn 0.6664 -0.5235 0.5310
vn 0.0249 -0.9918 0.1251
vn 0.1309 -0.9750 0.1794
vn 0.1354 -0.9689 0.2071
vn -0.0683 -0.9910 0.1153
vn -0.0237 -0.9004 0.4343
vn 0.1905 -0.8371 0.5128
vn 0.1457 -0.9498 0.2770
vn 0.7350 -0.5270 0.4266
vn 0.7160 -0.6392 0.2806
vn 0.7455 -0.5999 0.2903
vn 0.7388 -0.6190 0.2664
vn 0.8507 -0.4209 0.3150
vn -0.1219 -0.9706 0.2076
vn 0.1148 -0.9374 0.3287
vn 0.1013 -0.9626 0.2513
vn -0.1083 -0.9810 0.1612
vn -0.1031 -0.9761 0.1914
vn 0.3379 -0.8823 0.3278
vn 0.3199 -0.9180 0.2346
vn 0.7557 -0.5780 0.3080
vn 0.7582 -0.5452 0.3575
vn 0.7361 -0.5759 0.3557
vn 0.7340 -0.5879 0.3401
vn 0.7773 -0.5220 0.3512
vn 0.7840 -0.3178 0.5333
vn 0.5218 -0.7341 0.4345
s 0
f 1//1 20//1 19//1
f 2//2 26//2 40//2
f 1//3 19//3 54//3
f 1//4 54//4 68//4
f 1//5 68//5 41//5
f 2//6 40//6 89//6
f 3//7 33//7 103//7
f 4//8 61//8 117//8
f 5//9 75//9 131//9
f 6//10 82//10 145//10
f 2//11 89//11 104//11
f 3//12 103//12 118//12
f 4//13 117//13 132//13
f 5//14 131//14 146//14
f 6//15 145//15 90//15
f 7//16 159//16 194//16
f 8//17 166//17 208//17
f 9//18 173//18 215//18
f 10//19 180//19 222//19
f 11//20 187//20 195//20
f 201//21 216//21 12//21
f 200//22 223//22 201//22
f 199//23 224//23 200//23
f 198//24 226//24 199//24
f 197//25 229//25 198//25
f 196//26 233//26 197//26
f 195//27 238//27 196//27
f 201//28 223//28 216//28
f 223//29 217//29 216//29
f 200//30 224//30 223//30
f 224//31 225//31 223//31
f 223//32 225//32 217//32
f 225//33 218//33 217//33
f 199//34 226//34 224//34
f 226//35 227//35 224//35
f 224//36 227//36 225//36
f 227//37 228//37 225//37
f 225//38 228//38 218//38
f 228//39 219//39 218//39
f 198//40 229//40 226//40
f 229//41 230//41 226//41
f 226//42 230//42 227//42
f 230//43 231//43 227//43
f 227//44 231//44 228//44
f 231//45 232//45 228//45
f 228//46 232//46 219//46
f 232//47 220//47 219//47
f 197//48 233//48 229//48
f 233//49 234//49 229//49
f 229//50 234//50 230//50
f 234//51 235//51 230//51
f 230//52 235//52 231//52
f 235//53 236//53 231//53
f 231//54 236//54 232//54
f 236//55 237//55 232//55
f 232//56 237//56 220//56
f 237//57 221//57 220//57
f 196//58 238//58 233//58
f 238//59 239//59 233//59
f 233//60 239//60 234//60
f 239//61 240//61 234//61
f 234//62 240//62 235//62
f 240//63 241//63 235//63
f 235//64 241//64 236//64
f 241//65 242//65 236//65
f 236//66 242//66 237//66
f 242//67 243//67 237//67
f 237//68 243//68 221//68
f 243//69 222//69 221//69
f 195//70 187//70 238//70
f 187//71 186//71 238//71
f 238//72 186//72 239//72
f 186//73 185//73 239//73
f 239//74 185//74 240//74
f 185//75 184//75 240//75
f 240//76 184//76 241//76
f 184//77 183//77 241//77
f 241//78 183//78 242//78
f 183//79 182//79 242//79
f 242//80 182//80 243//80
f 182//81 181//81 243//81
f 243//82 181//82 222//82
f 181//83 10//83 222//83
f 216//84 209//84 12//84
f 217//85 244//85 216//85
f 218//86 245//86 217//86
f 219//87 247//87 218//87
f 220//88 250//88 219//88
f 221//89 254//89 220//89
f 222//90 259//90 221//90
f 216//91 244//91 209//91
f 244//92 210//92 209//92
f 217//93 245//93 244//93
f 245//94 246//94 244//94
f 244//95 246//95 210//95
f 246//96 211//96 210//96
f 218//97 247//97 245//97
f 247//98 248//98 245//98
f 245//99 248//99 246//99
f 248//100 249//100 246//100
f 246//101 249//101 211//101
f 249//102 212//102 211//102
f 219//103 250//103 247//103
f 250//104 251//104 247//104
f 247//105 251//105 248//105
f 251//106 252//106 248//106
f 248//107 252//107 249//107
f 252//108 253//108 249//108
f 249//109 253//109 212//109
f 253//110 213//110 212//110
f 220//111 254//111 250//111
f 254//112 255//112 250//112
f 250//113 255//113 251//113
f 255//114 256//114 251//114
f 251//115 256//115 252//115
f 256//116 257//116 252//116
f 252//117 257//117 253//117
f 257//118 258//118 253//118
f 253//119 258//119 213//119
f 258//120 214//120 213//120
f 221//121 259//121 254//121
f 259//122 260//122 254//122
f 254//123 260//123 255//123
f 260//124 261//124 255//124
f 255//125 261//125 256//125
f 261//126 262//126 256//126
f 256//127 262//127 257//127
f 262//128 263//128 257//128
f 257//129 263//129 258//129
f 263//130 264//130 258//130
f 258//131 264//131 214//131
f 264//132 215//132 214//132
f 222//133 180//133 259//133
f 180//134 179//134 259//134
f 259//135 179//135 260//135
f 179//136 178//136 260//136
f 260//137 178//137 261//137
f 178//138 177//138 261//138
f 261//139 177//139 262//139
f 177//140 176//140 262//140
f 262//141 176//141 263//141
f 176//142 175//142 263//142
f 263//143 175//143 264//143
f 175//144 174//144 264//144
f 264//145 174//145 215//145
f 174//146 9//146 215//146
f 209//147 202//147 12//147
f 210//148 265//148 209//148
f 211//149 266//149 210//149
f 212//150 268//150 211//150
f 213//151 271//151 212//151
f 214//152 275//152 213//152
f 215//153 280//153 214//153
f 209//154 265//154 202//154
f 265//155 203//155 202//155
f 210//156 266//156 265//156
f 266//157 267//157 265//157
f 265//158 267//158 203//158
f 267//159 204//159 203//159
f 211//160 268//160 266//160
f 268//161 269//161 266//161
f 266//162 269//162 267//162
f 269//163 270//163 267//163
f 267//164 270//164 204//164
f 270//165 205//165 204//165
f 212//166 271//166 268//166
f 271//167 272//167 268//167
f 268//168 272//168 269//168
f 272//169 273//169 269//169
f 269//170 273//170 270//170
f 273//171 274//171 270//171
f 270//172 274//172 205//172
f 274//173 206//173 205//173
f 213//174 275//174 271//174
f 275//175 276//175 271//175
f 271//176 276//176 272//176
f 276//177 277//177 272//177
f 272//178 277//178 273//178
f 277//179 278//179 273//179
f 273//180 278//180 274//180
f 278//181 279//181 274//181
f 274//182 279//182 206//182
f 279//183 207//183 206//183
f 214//184 280//184 275//184
f 280//185 281//185 275//185
f 275//186 281//186 276//186
f 281//187 282//187 276//187
f 276//188 282//188 277//188
f 282//189 283//189 277//189
f 277//190 283//190 278//190
f 283//191 284//191 278//191
f 278//192 284//192 279//192
f 284//193 285//193 279//193
f 279//194 285//194 207//194
f 285//195 208//195 207//195
f 215//196 173//196 280//196
f 173//197 172//197 280//197
f 280//198 172//198 281//198
f 172//199 171//199 281//199
f 281//200 171//200 282//200
f 171//201 170//201 282//201
f 282//202 170//202 283//202
f 170//203 169//203 283//203
f 283//204 169//204 284//204
f 169//205 168//205 284//205
f 284//206 168//206 285//206
f 168//207 167//207 285//207
f 285//208 167//208 208//208
f 167//209 8//209 208//209
f 202//210 188//210 12//210
f 203//211 286//211 202//211
f 204//212 287//212 203//212
f 205//213 289//213 204//213
f 206//214 292//214 205//214
f 207//215 296//215 206//215
f 208//216 301//216 207//216
f 202//217 286//217 188//217
f 286//218 189//218 188//218
f 203//219 287//219 286//219
f 287//220 288//220 286//220
f 286//221 288//221 189//221
f 288//222 190//222 189//222
f 204//223 289//223 287//223
f 289//224 290//224 287//224
f 287//225 290//225 288//225
f 290//226 291//226 288//226
f 288//227 291//227 190//227
f 291//228 191//228 190//228
f 205//229 292//229 289//229
f 292//230 293//230 289//230
f 289//231 293//231 290//231
f 293//232 294//232 290//232
f 290//233 294//233 291//233
f 294//234 295//234 291//234
f 291//235 295//235 191//235
f 295//236 192//236 191//236
f 206//237 296//237 292//237
f 296//238 297//238 292//238
f 292//239 297//239 293//239
f 297//240 298//240 293//240
f 293//241 298//241 294//241
f 298//242 299//242 294//242
f 294//243 299//243 295//243
f 299//244 300//244 295//244
f 295//245 300//245 192//245
f 300//246 193//246 192//246
f 207//247 301//247 296//247
f 301//248 302//248 296//248
f 296//249 302//249 297//249
f 302//250 303//250 297//250
f 297//251 303//251 298//251
f 303//252 304//252 298//252
f 298//253 304//253 299//253
f 304//254 305//254 299//254
f 299//255 305//255 300//255
f 305//256 306//256 300//256
f 300//257 306//257 193//257
f 306//258 194//258 193//258
f 208//259 166//259 301//259
f 166//260 165//260 301//260
f 301//261 165//261 302//261
f 165//262 164//262 302//262
f 302//263 164//263 303//263
f 164//264 163//264 303//264
f 303//265 163//265 304//265
f 163//266 162//266 304//266
f 304//267 162//267 305//267
f 162//268 161//268 305//268
f 305//269 161//269 306//269
f 161//270 160//270 306//270
f 306//271 160//271 194//271
f 160//272 7//272 194//272
f 188//273 201//273 12//273
f 189//274 307//274 188//274
f 190//275 308//275 189//275
f 191//276 310//276 190//276
f 192//277 313//277 191//277
f 193//278 317//278 192//278
f 194//279 322//279 193//279
f 188//280 307//280 201//280
f 307//281 200//281 201//281
f 189//282 308//282 307//282
f 308//283 309//283 307//283
f 307//284 309//284 200//284
f 309//285 199//285 200//285
f 190//286 310//286 308//286
f 310//287 311//287 308//287
f 308//288 311//288 309//288
f 311//289 312//289 309//289
f 309//290 312//290 199//290
f 312//291 198//291 199//291
f 191//292 313//292 310//292
f 313//293 314//293 310//293
f 310//294 314//294 311//294
f 314//295 315//295 311//295
f 311//296 315//296 312//296
f 315//297 316//297 312//297
f 312//298 316//298 198//298
f 316//299 197//299 198//299
f 192//300 317//300 313//300
f 317//301 318//301 313//301
f 313//302 318//302 314//302
f 318//303 319//303 314//303
f 314//304 319//304 315//304
f 319//305 320//305 315//305
f 315//306 320//306 316//306
f 320//307 321//307 316//307
f 316//308 321//308 197//308
f 321//309 196//309 197//309
f 193//310 322//310 317//310
f 322//311 323//311 317//311
f 317//312 323//312 318//312
f 323//313 324//313 318//313
f 318//314 324//314 319//314
f 324//315 325//315 319//315
f 319//316 325//316 320//316
f 325//317 326//317 320//317
f 320//318 326//318 321//318
f 326//319 327//319 321//319
f 321//320 327//320 196//320
f 327//321 195//321 196//321
f 194//322 159//322 322//322
f 159//323 158//323 322//323
f 322//324 158//324 323//324
f 158//325 157//325 323//325
f 323//326 157//326 324//326
f 157//327 156//327 324//327
f 324//328 156//328 325//328
f 156//329 155//329 325//329
f 325//330 155//330 326//330
f 155//331 154//331 326//331
f 326//332 154//332 327//332
f 154//333 153//333 327//333
f 327//334 153//334 195//334
f 153//335 11//335 195//335
f 96//336 187//336 11//336
f 95//337 328//337 96//337
f 94//338 329//338 95//338
f 93//339 331//339 94//339
f 92//340 334//340 93//340
f 91//341 338//341 92//341
f 90//342 343//342 91//342
f 96//343 328//343 187//343
f 328//344 186//344 187//344
f 95//345 329//345 328//345
f 329//346 330//346 328//346
f 328//347 330//347 186//347
f 330//348 185//348 186//348
f 94//349 331//349 329//349
f 331//350 332//350 329//350
f 329//351 332//351 330//351
f 332//352 333//352 330//352
f 330//353 333//353 185//353
f 333//354 184//354 185//354
f 93//355 334//355 331//355
f 334//356 335//356 331//356
f 331//357 335//357 332//357
f 335//358 336//358 332//358
f 332//359 336//359 333//359
f 336//360 337//360 333//360
f 333//361 337//361 184//361
f 337//362 183//362 184//362
f 92//363 338//363 334//363
f 338//364 339//364 334//364
f 334//365 339//365 335//365
f 339//366 340//366 335//366
f 335//367 340//367 336//367
f 340//368 341//368 336//368
f 336//369 341//369 337//369
f 341//370 342//370 337//370
f 337//371 342//371 183//371
f 342//372 182//372 183//372
f 91//373 343//373 338//373
f 343//374 344//374 338//374
f 338//375 344//375 339//375
f 344//376 345//376 339//376
f 339//377 345//377 340//377
f 345//378 346//378 340//378
f 340//379 346//379 341//379
f 346//380 347//380 341//380
f 341//381 347//381 342//381
f 347//382 348//382 342//382
f 342//383 348//383 182//383
f 348//384 181//384 182//384
f 90//385 145//385 343//385
f 145//386 144//386 343//386
f 343//387 144//387 344//387
f 144//388 143//388 344//388
f 344//389 143//389 345//389
f 143//390 142//390 345//390
f 345//391 142//391 346//391
f 142//392 141//392 346//392
f 346//393 141//393 347//393
f 141//394 140//394 347//394
f 347//395 140//395 348//395
f 140//396 139//396 348//396
f 348//397 139//397 181//397
f 139//398 10//398 181//398
f 152//399 180//399 10//399
f 151//400 349//400 152//400
f 150//401 350//401 151//401
f 149//402 352//402 150//402
f 148//403 355//403 149//403
f 147//404 359//404 148//404
f 146//405 364//405 147//405
f 152//406 349//406 180//406
f 349//407 179//407 180//407
f 151//408 350//408 349//408
f 350//409 351//409 349//409
f 349//410 351//410 179//410
f 351//411 178//411 179//411
f 150//412 352//412 350//412
f 352//413 353//413 350//413
f 350//414 353//414 351//414
f 353//415 354//415 351//415
f 351//416 354//416 178//416
f 354//417 177//417 178//417
f 149//418 355//418 352//418
f 355//419 356//419 352//419
f 352//420 356//420 353//420
f 356//421 357//421 353//421
f 353//422 357//422 354//422
f 357//423 358//423 354//423
f 354//424 358//424 177//424
f 358//425 176//425 177//425
f 148//426 359//426 355//426
f 359//427 360//427 355//427
f 355//428 360//428 356//428
f 360//429 361//429 356//429
f 356//430 361//430 357//430
f 361//431 362//431 357//431
f 357//432 362//432 358//432
f 362//433 363//433 358//433
f 358//434 363//434 176//434
f 363//435 175//435 176//435
f 147//436 364//436 359//436
f 364//437 365//437 359//437
f 359//438 365//438 360//438
f 365//439 366//439 360//439
f 360//440 366//440 361//440
f 366//441 367//441 361//441
f 361//442 367//442 362//442
f 367//443 368//443 362//443
f 362//444 368//444 363//444
f 368//445 369//445 363//445
f 363//446 369//446 175//446
f 369//447 174//447 175//447
f 146//448 131//448 364//448
f 131//449 130//449 364//449
f 364//450 130//450 365//450
f 130//451 129//451 365//451
f 365//452 129//452 366//452
f 129//453 128//453 366//453
f 366//454 128//454 367//454
f 128//455 127//455 367//455
f 367//456 127//456 368//456
f 127//457 126//457 368//457
f 368//458 126//458 369//458
f 126//459 125//459 369//459
f 369//460 125//460 174//460
f 125//461 9//461 174//461
f 138//462 173//462 9//462
f 137//463 370//463 138//463
f 136//464 371//464 137//464
f 135//465 373//465 136//465
f 134//466 376//466 135//466
f 133//467 380//467 134//467
f 132//468 385//468 133//468
f 138//469 370//469 173//469
f 370//470 172//470 173//470
f 137//471 371//471 370//471
f 371//472 372//472 370//472
f 370//473 372//473 172//473
f 372//474 171//474 172//474
f 136//475 373//475 371//475
f 373//476 374//476 371//476
f 371//477 374//477 372//477
f 374//478 375//478 372//478
f 372//479 375//479 171//479
f 375//480 170//480 171//480
f 135//481 376//481 373//481
f 376//482 377//482 373//482
f 373//483 377//483 374//483
f 377//484 378//484 374//484
f 374//485 378//485 375//485
f 378//486 379//486 375//486
f 375//487 379//487 170//487
f 379//488 169//488 170//488
f 134//489 380//489 376//489
f 380//490 381//490 376//490
f 376//491 381//491 377//491
f 381//492 382//492 377//492
f 377//493 382//493 378//493
f 382//494 383//494 378//494
f 378//495 383//495 379//495
f 383//496 384//496 379//496
f 379//497 384//497 169//497
f 384//498 168//498 169//498
f 133//499 385//499 380//499
f 385//500 386//500 380//500
f 380//501 386//501 381//501
f 386//502 387//502 381//502
f 381//503 387//503 382//503
f 387//504 388//504 382//504
f 382//505 388//505 383//505
f 388//506 389//506 383//506
f 383//507 389//507 384//507
f 389//508 390//508 384//508
f 384//509 390//509 168//509
f 390//510 167//510 168//510
f 132//511 117//511 385//511
f 117//512 116//512 385//512
f 385//513 116//513 386//513
f 116//514 115//514 386//514
f 386//515 115//515 387//515
f 115//516 114//516 387//516
f 387//517 114//517 388//517
f 114//518 113//518 388//518
f 388//519 113//519 389//519
f 113//520 112//520 389//520
f 389//521 112//521 390//521
f 112//522 111//522 390//522
f 390//523 111//523 167//523
f 111//524 8//524 167//524
f 124//525 166//525 8//525
f 123//526 391//526 124//526
f 122//527 392//527 123//527
f 121//528 394//528 122//528
f 120//529 397//529 121//529
f 119//530 401//530 120//530
f 118//531 406//531 119//531
f 124//532 391//532 166//532
f 391//533 165//533 166//533
f 123//534 392//534 391//534
f 392//535 393//535 391//535
f 391//536 393//536 165//536
f 393//537 164//537 165//537
f 122//538 394//538 392//538
f 394//539 395//539 392//539
f 392//540 395//540 393//540
f 395//541 396//541 393//541
f 393//542 396//542 164//542
f 396//543 163//543 164//543
f 121//544 397//544 394//544
f 397//545 398//545 394//545
f 394//546 398//546 395//546
f 398//547 399//547 395//547
f 395//548 399//548 396//548
f 399//549 400//549 396//549
f 396//550 400//550 163//550
f 400//551 162//551 163//551
f 120//552 401//552 397//552
f 401//553 402//553 397//553
f 397//554 402//554 398//554
f 402//555 403//555 398//555
f 398//556 403//556 399//556
f 403//557 404//557 399//557
f 399//558 404//558 400//558
f 404//559 405//559 400//559
f 400//560 405//560 162//560
f 405//561 161//561 162//561
f 119//562 406//562 401//562
f 406//563 407//563 401//563
f 401//564 407//564 402//564
f 407//565 408//565 402//565
f 402//566 408//566 403//566
f 408//567 409//567 403//567
f 403//568 409//568 404//568
f 409//569 410//569 404//569
f 404//570 410//570 405//570
f 410//571 411//571 405//571
f 405//572 411//572 161//572
f 411//573 160//573 161//573
f 118//574 103//574 406//574
f 103//575 102//575 406//575
f 406//576 102//576 407//576
f 102//577 101//577 407//577
f 407//578 101//578 408//578
f 101//579 100//579 408//579
f 408//580 100//580 409//580
f 100//581 99//581 409//581
f 409//582 99//582 410//582
f 99//583 98//583 410//583
f 410//584 98//584 411//584
f 98//585 97//585 411//585
f 411//586 97//586 160//586
f 97//587 7//587 160//587
f 110//588 159//588 7//588
f 109//589 412//589 110//589
f 108//590 413//590 109//590
f 107//591 415//591 108//591
f 106//592 418//592 107//592
f 105//593 422//593 106//593
f 104//594 427//594 105//594
f 110//595 412//595 159//595
f 412//596 158//596 159//596
f 109//597 413//597 412//597
f 413//598 414//598 412//598
f 412//599 414//599 158//599
f 414//600 157//600 158//600
f 108//601 415//601 413//601
f 415//602 416//602 413//602
f 413//603 416//603 414//603
f 416//604 417//604 414//604
f 414//605 417//605 157//605
f 417//606 156//606 157//606
f 107//607 418//607 415//607
f 418//608 419//608 415//608
f 415//609 419//609 416//609
f 419//610 420//610 416//610
f 416//611 420//611 417//611
f 420//612 421//612 417//612
f 417//613 421//613 156//613
f 421//614 155//614 156//614
f 106//615 422//615 418//615
f 422//616 423//616 418//616
f 418//617 423//617 419//617
f 423//618 424//618 419//618
f 419//619 424//619 420//619
f 424//620 425//620 420//620
f 420//621 425//621 421//621
f 425//622 426//622 421//622
f 421//623 426//623 155//623
f 426//624 154//624 155//624
f 105//625 427//625 422//625
f 427//626 428//626 422//626
f 422//627 428//627 423//627
f 428//628 429//628 423//628
f 423//629 429//629 424//629
f 429//630 430//630 424//630
f 424//631 430//631 425//631
f 430//632 431//632 425//632
f 425//633 431//633 426//633
f 431//634 432//634 426//634
f 426//635 432//635 154//635
f 432//636 153//636 154//636
f 104//637 89//637 427//637
f 89//638 88//638 427//638
f 427//639 88//639 428//639
f 88//640 87//640 428//640
f 428//641 87//641 429//641
f 87//642 86//642 429//642
f 429//643 86//643 430//643
f 86//644 85//644 430//644
f 430//645 85//645 431//645
f 85//646 84//646 431//646
f 431//647 84//647 432//647
f 84//648 83//648 432//648
f 432//649 83//649 153//649
f 83//650 11//650 153//650
f 139//651 152//651 10//651
f 140//652 433//652 139//652
f 141//653 434//653 140//653
f 142//654 436//654 141//654
f 143//655 439//655 142//655
f 144//656 443//656 143//656
f 145//657 448//657 144//657
f 139//658 433//658 152//658
f 433//659 151//659 152//659
f 140//660 434//660 433//660
f 434//661 435//661 433//661
f 433//662 435//662 151//662
f 435//663 150//663 151//663
f 141//664 436//664 434//664
f 436//665 437//665 434//665
f 434//666 437//666 435//666
f 437//667 438//667 435//667
f 435//668 438//668 150//668
f 438//669 149//669 150//669
f 142//670 439//670 436//670
f 439//671 440//671 436//671
f 436//672 440//672 437//672
f 440//673 441//673 437//673
f 437//674 441//674 438//674
f 441//675 442//675 438//675
f 438//676 442//676 149//676
f 442//677 148//677 149//677
f 143//678 443//678 439//678
f 443//679 444//679 439//679
f 439//680 444//680 440//680
f 444//681 445//681 440//681
f 440//682 445//682 441//682
f 445//683 446//683 441//683
f 441//684 446//684 442//684
f 446//685 447//685 442//685
f 442//686 447//686 148//686
f 447//687 147//687 148//687
f 144//688 448//688 443//688
f 448//689 449//689 443//689
f 443//690 449//690 444//690
f 449//691 450//691 444//691
f 444//692 450//692 445//692
f 450//693 451//693 445//693
f 445//694 451//694 446//694
f 451//695 452//695 446//695
f 446//696 452//696 447//696
f 452//697 453//697 447//697
f 447//698 453//698 147//698
f 453//699 146//699 147//699
f 145//700 82//700 448//700
f 82//701 81//701 448//701
f 448//702 81//702 449//702
f 81//703 80//703 449//703
f 449//704 80//704 450//704
f 80//705 79//705 450//705
f 450//706 79//706 451//706
f 79//707 78//707 451//707
f 451//708 78//708 452//708
f 78//709 77//709 452//709
f 452//710 77//710 453//710
f 77//711 76//711 453//711
f 453//712 76//712 146//712
f 76//713 5//713 146//713
f 125//714 138//714 9//714
f 126//715 454//715 125//715
f 127//716 455//716 126//716
f 128//717 457//717 127//717
f 129//718 460//718 128//718
f 130//719 464//719 129//719
f 131//720 469//720 130//720
f 125//721 454//721 138//721
f 454//722 137//722 138//722
f 126//723 455//723 454//723
f 455//724 456//724 454//724
f 454//725 456//725 137//725
f 456//726 136//726 137//726
f 127//727 457//727 455//727
f 457//728 458//728 455//728
f 455//729 458//729 456//729
f 458//730 459//730 456//730
f 456//731 459//731 136//731
f 459//732 135//732 136//732
f 128//733 460//733 457//733
f 460//734 461//734 457//734
f 457//735 461//735 458//735
f 461//736 462//736 458//736
f 458//737 462//737 459//737
f 462//738 463//738 459//738
f 459//739 463//739 135//739
f 463//740 134//740 135//740
f 129//741 464//741 460//741
f 464//742 465//742 460//742
f 460//743 465//743 461//743
f 465//744 466//744 461//744
f 461//745 466//745 462//745
f 466//746 467//746 462//746
f 462//747 467//747 463//747
f 467//748 468//748 463//748
f 463//749 468//749 134//749
f 468//750 133//750 134//750
f 130//751 469//751 464//751
f 469//752 470//752 464//752
f 464//753 470//753 465//753
f 470//754 471//754 465//754
f 465//755 471//755 466//755
f 471//756 472//756 466//756
f 466//757 472//757 467//757
f 472//758 473//758 467//758
f 467//759 473//759 468//759
f 473//760 474//760 468//760
f 468//761 474//761 133//761
f 474//762 132//762 133//762
f 131//763 75//763 469//763
f 75//764 74//764 469//764
f 469//765 74//765 470//765
f 74//766 73//766 470//766
f 470//767 73//767 471//767
f 73//768 72//768 471//768
f 471//769 72//769 472//769
f 72//770 71//770 472//770
f 472//771 71//771 473//771
f 71//772 70//772 473//772
f 473//773 70//773 474//773
f 70//774 69//774 474//774
f 474//775 69//775 132//775
f 69//776 4//776 132//776
f 111//777 124//777 8//777
f 112//778 475//778 111//778
f 113//779 476//779 112//779
f 114//780 478//780 113//780
f 115//781 481//781 114//781
f 116//782 485//782 115//782
f 117//783 490//783 116//783
f 111//784 475//784 124//784
f 475//785 123//785 124//785
f 112//786 476//786 475//786
f 476//787 477//787 475//787
f 475//788 477//788 123//788
f 477//789 122//789 123//789
f 113//790 478//790 476//790
f 478//791 479//791 476//791
f 476//792 479//792 477//792
f 479//793 480//793 477//793
f 477//794 480//794 122//794
f 480//795 121//795 122//795
f 114//796 481//796 478//796
f 481//797 482//797 478//797
f 478//798 482//798 479//798
f 482//799 483//799 479//799
f 479//800 483//800 480//800
f 483//801 484//801 480//801
f 480//802 484//802 121//802
f 484//803 120//803 121//803
f 115//804 485//804 481//804
f 485//805 486//805 481//805
f 481//806 486//806 482//806
f 486//807 487//807 482//807
f 482//808 487//808 483//808
f 487//809 488//809 483//809
f 483//810 488//810 484//810
f 488//811 489//811 484//811
f 484//812 489//812 120//812
f 489//813 119//813 120//813
f 116//814 490//814 485//814
f 490//815 491//815 485//815
f 485//816 491//816 486//816
f 491//817 492//817 486//817
f 486//818 492//818 487//818
f 492//819 493//819 487//819
f 487//820 493//820 488//820
f 493//821 494//821 488//821
f 488//822 494//822 489//822
f 494//823 495//823 489//823
f 489//824 495//824 119//824
f 495//825 118//825 119//825
f 117//826 61//826 490//826
f 61//827 60//827 490//827
f 490//828 60//828 491//828
f 60//829 59//829 491//829
f 491//830 59//830 492//830
f 59//831 58//831 492//831
f 492//832 58//832 493//832
f 58//833 57//833 493//833
f 493//834 57//834 494//834
f 57//835 56//835 494//835
f 494//836 56//836 495//836
f 56//837 55//837 495//837
f 495//838 55//838 118//838
f 55//839 3//839 118//839
f 97//840 110//840 7//840
f 98//841 496//841 97//841
f 99//842 497//842 98//842
f 100//843 499//843 99//843
f 101//844 502//844 100//844
f 102//845 506//845 101//845
f 103//846 511//846 102//846
f 97//847 496//847 110//847
f 496//848 109//848 110//848
f 98//849 497//849 496//849
f 497//850 498//850 496//850
f 496//851 498//851 109//851
f 498//852 108//852 109//852
f 99//853 499//853 497//853
f 499//854 500//854 497//854
f 497//855 500//855 498//855
f 500//856 501//856 498//856
f 498//857 501//857 108//857
f 501//858 107//858 108//858
f 100//859 502//859 499//859
f 502//860 503//860 499//860
f 499//861 503//861 500//861
f 503//862 504//862 500//862
f 500//863 504//863 501//863
f 504//864 505//864 501//864
f 501//865 505//865 107//865
f 505//866 106//866 107//866
f 101//867 506//867 502//867
f 506//868 507//868 502//868
f 502//869 507//869 503//869
f 507//870 508//870 503//870
f 503//871 508//871 504//871
f 508//872 509//872 504//872
f 504//873 509//873 505//873
f 509//874 510//874 505//874
f 505//875 510//875 106//875
f 510//876 105//876 106//876
f 102//877 511//877 506//877
f 511//878 512//878 506//878
f 506//879 512//879 507//879
f 512//880 513//880 507//880
f 507//881 513//881 508//881
f 513//882 514//882 508//882
f 508//883 514//883 509//883
f 514//884 515//884 509//884
f 509//885 515//885 510//885
f 515//886 516//886 510//886
f 510//887 516//887 105//887
f 516//888 104//888 105//888
f 103//889 33//889 511//889
f 33//890 32//890 511//890
f 511//891 32//891 512//891
f 32//892 31//892 512//892
f 512//893 31//893 513//893
f 31//894 30//894 513//894
f 513//895 30//895 514//895
f 30//896 29//896 514//896
f 514//897 29//897 515//897
f 29//898 28//898 515//898
f 515//899 28//899 516//899
f 28//900 27//900 516//900
f 516//901 27//901 104//901
f 27//902 2//902 104//902
f 83//903 96//903 11//903
f 84//904 517//904 83//904
f 85//905 518//905 84//905
f 86//906 520//906 85//906
f 87//907 523//907 86//907
f 88//908 527//908 87//908
f 89//909 532//909 88//909
f 83//910 517//910 96//910
f 517//911 95//911 96//911
f 84//912 518//912 517//912
f 518//913 519//913 517//913
f 517//914 519//914 95//914
f 519//915 94//915 95//915
f 85//916 520//916 518//916
f 520//917 521//917 518//917
f 518//918 521//918 519//918
f 521//919 522//919 519//919
f 519//920 522//920 94//920
f 522//921 93//921 94//921
f 86//922 523//922 520//922
f 523//923 524//923 520//923
f 520//924 524//924 521//924
f 524//925 525//925 521//925
f 521//926 525//926 522//926
f 525//927 526//927 522//927
f 522//928 526//928 93//928
f 526//929 92//929 93//929
f 87//930 527//930 523//930
f 527//931 528//931 523//931
f 523//932 528//932 524//932
f 528//933 529//933 524//933
f 524//934 529//934 525//934
f 529//935 530//935 525//935
f 525//936 530//936 526//936
f 530//937 531//937 526//937
f 526//938 531//938 92//938
f 531//939 91//939 92//939
f 88//940 532//940 527//940
f 532//941 533//941 527//941
f 527//942 533//942 528//942
f 533//943 534//943 528//943
f 528//944 534//944 529//944
f 534//945 535//945 529//945
f 529//946 535//946 530//946
f 535//947 536//947 530//947
f 530//947 536//947 531//947
f 536//948 537//948 531//948
f 531//949 537//949 91//949
f 537//950 90//950 91//950
f 89//951 40//951 532//951
f 40//952 39//952 532//952
f 532//953 39//953 533//953
f 39//954 38//954 533//954
f 533//955 38//955 534//955
f 38//956 37//956 534//956
f 534//957 37//957 535//957
f 37//958 36//958 535//958
f 535//959 36//959 536//959
f 36//960 35//960 536//960
f 536//961 35//961 537//961
f 35//962 34//962 537//962
f 537//963 34//963 90//963
f 34//964 6//964 90//964
f 47//965 82//965 6//965
f 46//966 538//966 47//966
f 45//967 539//967 46//967
f 44//968 541//968 45//968
f 43//969 544//969 44//969
f 42//970 548//970 43//970
f 41//971 553//971 42//971
f 47//972 538//972 82//972
f 538//973 81//973 82//973
f 46//974 539//974 538//974
f 539//975 540//975 538//975
f 538//976 540//976 81//976
f 540//977 80//977 81//977
f 45//978 541//978 539//978
f 541//979 542//979 539//979
f 539//980 542//980 540//980
f 542//981 543//981 540//981
f 540//982 543//982 80//982
f 543//983 79//983 80//983
f 44//984 544//984 541//984
f 544//985 545//985 541//985
f 541//986 545//986 542//986
f 545//987 546//987 542//987
f 542//988 546//988 543//988
f 546//989 547//989 543//989
f 543//990 547//990 79//990
f 547//991 78//991 79//991
f 43//992 548//992 544//992
f 548//993 549//993 544//993
f 544//994 549//994 545//994
f 549//995 550//995 545//995
f 545//996 550//996 546//996
f 550//997 551//997 546//997
f 546//998 551//998 547//998
f 551//999 552//999 547//999
f 547//1000 552//1000 78//1000
f 552//1001 77//1001 78//1001
f 42//1002 553//1002 548//1002
f 553//1003 554//1003 548//1003
f 548//1004 554//1004 549//1004
f 554//1005 555//1005 549//1005
f 549//1006 555//1006 550//1006
f 555//1007 556//1007 550//1007
f 550//1008 556//1008 551//1008
f 556//1009 557//1009 551//1009
f 551//1010 557//1010 552//1010
f 557//1011 558//1011 552//1011
f 552//1012 558//1012 77//1012
f 558//1013 76//1013 77//1013
f 41//1014 68//1014 553//1014
f 68//1015 67//1015 553//1015
f 553//1016 67//1016 554//1016
f 67//1017 66//1017 554//1017
f 554//1018 66//1018 555//1018
f 66//1019 65//1019 555//1019
f 555//1020 65//1020 556//1020
f 65//1021 64//1021 556//1021
f 556//1022 64//1022 557//1022
f 64//1023 63//1023 557//1023
f 557//1024 63//1024 558//1024
f 63//1025 62//1025 558//1025
f 558//1026 62//1026 76//1026
f 62//1027 5//1027 76//1027
f 62//1028 75//1028 5//1028
f 63//1029 559//1029 62//1029
f 64//1030 560//1030 63//1030
f 65//1031 562//1031 64//1031
f 66//1032 565//1032 65//1032
f 67//1033 569//1033 66//1033
f 68//1034 574//1034 67//1034
f 62//1035 559//1035 75//1035
f 559//1036 74//1036 75//1036
f 63//1037 560//1037 559//1037
f 560//1038 561//1038 559//1038
f 559//1039 561//1039 74//1039
f 561//1040 73//1040 74//1040
f 64//1041 562//1041 560//1041
f 562//1042 563//1042 560//1042
f 560//1043 563//1043 561//1043
f 563//1044 564//1044 561//1044
f 561//1045 564//1045 73//1045
f 564//1046 72//1046 73//1046
f 65//1047 565//1047 562//1047
f 565//1048 566//1048 562//1048
f 562//1049 566//1049 563//1049
f 566//1050 567//1050 563//1050
f 563//1051 567//1051 564//1051
f 567//1052 568//1052 564//1052
f 564//1053 568//1053 72//1053
f 568//1054 71//1054 72//1054
f 66//1055 569//1055 565//1055
f 569//1056 570//1056 565//1056
f 565//1057 570//1057 566//1057
f 570//1058 571//1058 566//1058
f 566//1059 571//1059 567//1059
f 571//1060 572//1060 567//1060
f 567//1061 572//1061 568//1061
f 572//1062 573//1062 568//1062
f 568//1063 573//1063 71//1063
f 573//1064 70//1064 71//1064
f 67//1065 574//1065 569//1065
f 574//1066 575//1066 569//1066
f 569//1067 575//1067 570//1067
f 575//1068 576//1068 570//1068
f 570//1069 576//1069 571//1069
f 576//1070 577//1070 571//1070
f 571//1071 577//1071 572//1071
f 577//1072 578//1072 572//1072
f 572//1073 578//1073 573//1073
f 578//1074 579//1074 573//1074
f 573//1075 579//1075 70//1075
f 579//1076 69//1076 70//1076
f 68//1077 54//1077 574//1077
f 54//1078 53//1078 574//1078
f 574//1079 53//1079 575//1079
f 53//1080 52//1080 575//1080
f 575//1081 52//1081 576//1081
f 52//1082 51//1082 576//1082
f 576//1083 51//1083 577//1083
f 51//1084 50//1084 577//1084
f 577//1085 50//1085 578//1085
f 50//1086 49//1086 578//1086
f 578//1087 49//1087 579//1087
f 49//1088 48//1088 579//1088
f 579//1089 48//1089 69//1089
f 48//1090 4//1090 69//1090
f 48//1091 61//1091 4//1091
f 49//1092 580//1092 48//1092
f 50//1093 581//1093 49//1093
f 51//1094 583//1094 50//1094
f 52//1095 586//1095 51//1095
f 53//1096 590//1096 52//1096
f 54//1097 595//1097 53//1097
f 48//1098 580//1098 61//1098
f 580//1099 60//1099 61//1099
f 49//1100 581//1100 580//1100
f 581//1101 582//1101 580//1101
f 580//1102 582//1102 60//1102
f 582//1103 59//1103 60//1103
f 50//1104 583//1104 581//1104
f 583//1105 584//1105 581//1105
f 581//1106 584//1106 582//1106
f 584//1107 585//1107 582//1107
f 582//1108 585//1108 59//1108
f 585//1109 58//1109 59//1109
f 51//1110 586//1110 583//1110
f 586//1111 587//1111 583//1111
f 583//1112 587//1112 584//1112
f 587//1113 588//1113 584//1113
f 584//1114 588//1114 585//1114
f 588//1115 589//1115 585//1115
f 585//1116 589//1116 58//1116
f 589//1117 57//1117 58//1117
f 52//1118 590//1118 586//1118
f 590//1119 591//1119 586//1119
f 586//1120 591//1120 587//1120
f 591//1121 592//1121 587//1121
f 587//1122 592//1122 588//1122
f 592//1123 593//1123 588//1123
f 588//1124 593//1124 589//1124
f 593//1125 594//1125 589//1125
f 589//1126 594//1126 57//1126
f 594//1127 56//1127 57//1127
f 53//1128 595//1128 590//1128
f 595//1129 596//1129 590//1129
f 590//1130 596//1130 591//1130
f 596//1131 597//1131 591//1131
f 591//1132 597//1132 592//1132
f 597//1133 598//1133 592//1133
f 592//1134 598//1134 593//1134
f 598//1135 599//1135 593//1135
f 593//1136 599//1136 594//1136
f 599//1137 600//1137 594//1137
f 594//1138 600//1138 56//1138
f 600//1139 55//1139 56//1139
f 54//1140 19//1140 595//1140
f 19//1141 18//1141 595//1141
f 595//1142 18//1142 596//1142
f 18//1143 17//1143 596//1143
f 596//1144 17//1144 597//1144
f 17//1145 16//1145 597//1145
f 597//1146 16//1146 598//1146
f 16//1147 15//1147 598//1147
f 598//1148 15//1148 599//1148
f 15//1149 14//1149 599//1149
f 599//1150 14//1150 600//1150
f 14//1151 13//1151 600//1151
f 600//1152 13//1152 55//1152
f 13//1153 3//1153 55//1153
f 34//1154 47//1154 6//1154
f 35//1155 601//1155 34//1155
f 36//1156 602//1156 35//1156
f 37//1157 604//1157 36//1157
f 38//1158 607//1158 37//1158
f 39//1159 611//1159 38//1159
f 40//1160 616//1160 39//1160
f 34//1161 601//1161 47//1161
f 601//1162 46//1162 47//1162
f 35//1163 602//1163 601//1163
f 602//1164 603//1164 601//1164
f 601//1165 603//1165 46//1165
f 603//1166 45//1166 46//1166
f 36//1167 604//1167 602//1167
f 604//1168 605//1168 602//1168
f 602//1169 605//1169 603//1169
f 605//1170 606//1170 603//1170
f 603//1171 606//1171 45//1171
f 606//1172 44//1172 45//1172
f 37//1173 607//1173 604//1173
f 607//1174 608//1174 604//1174
f 604//1175 608//1175 605//1175
f 608//1176 609//1176 605//1176
f 605//1177 609//1177 606//1177
f 609//1178 610//1178 606//1178
f 606//1179 610//1179 44//1179
f 610//1180 43//1180 44//1180
f 38//1181 611//1181 607//1181
f 611//1182 612//1182 607//1182
f 607//1183 612//1183 608//1183
f 612//1184 613//1184 608//1184
f 608//1185 613//1185 609//1185
f 613//1186 614//1186 609//1186
f 609//1187 614//1187 610//1187
f 614//1188 615//1188 610//1188
f 610//1189 615//1189 43//1189
f 615//1190 42//1190 43//1190
f 39//1191 616//1191 611//1191
f 616//1192 617//1192 611//1192
f 611//1193 617//1193 612//1193
f 617//1194 618//1194 612//1194
f 612//1195 618//1195 613//1195
f 618//1196 619//1196 613//1196
f 613//1197 619//1197 614//1197
f 619//1198 620//1198 614//1198
f 614//1199 620//1199 615//1199
f 620//1200 621//1200 615//1200
f 615//1201 621//1201 42//1201
f 621//1202 41//1202 42//1202
f 40//1203 26//1203 616//1203
f 26//1204 25//1204 616//1204
f 616//1205 25//1205 617//1205
f 25//1206 24//1206 617//1206
f 617//1207 24//1207 618//1207
f 24//1208 23//1208 618//1208
f 618//1209 23//1209 619//1209
f 23//1210 22//1210 619//1210
f 619//1211 22//1211 620//1211
f 22//1212 21//1212 620//1212
f 620//1213 21//1213 621//1213
f 21//1214 20//1214 621//1214
f 621//1215 20//1215 41//1215
f 20//1216 1//1216 41//1216
f 13//1217 33//1217 3//1217
f 14//1218 622//1218 13//1218
f 15//1219 623//1219 14//1219
f 16//1220 625//1220 15//1220
f 17//1221 628//1221 16//1221
f 18//1222 632//1222 17//1222
f 19//1223 637//1223 18//1223
f 13//1224 622//1224 33//1224
f 622//1225 32//1225 33//1225
f 14//1226 623//1226 622//1226
f 623//1227 624//1227 622//1227
f 622//1228 624//1228 32//1228
f 624//1229 31//1229 32//1229
f 15//1230 625//1230 623//1230
f 625//1231 626//1231 623//1231
f 623//1232 626//1232 624//1232
f 626//1233 627//1233 624//1233
f 624//1234 627//1234 31//1234
f 627//1235 30//1235 31//1235
f 16//1236 628//1236 625//1236
f 628//1237 629//1237 625//1237
f 625//1238 629//1238 626//1238
f 629//1239 630//1239 626//1239
f 626//1240 630//1240 627//1240
f 630//1241 631//1241 627//1241
f 627//1242 631//1242 30//1242
f 631//1243 29//1243 30//1243
f 17//1244 632//1244 628//1244
f 632//1245 633//1245 628//1245
f 628//1246 633//1246 629//1246
f 633//1247 634//1247 629//1247
f 629//1248 634//1248 630//1248
f 634//1249 635//1249 630//1249
f 630//1250 635//1250 631//1250
f 635//1251 636//1251 631//1251
f 631//1252 636//1252 29//1252
f 636//1253 28//1253 29//1253
f 18//1254 637//1254 632//1254
f 637//1255 638//1255 632//1255
f 632//1256 638//1256 633//1256
f 638//1257 639//1257 633//1257
f 633//1258 639//1258 634//1258
f 639//1259 640//1259 634//1259
f 634//1260 640//1260 635//1260
f 640//1261 641//1261 635//1261
f 635//1262 641//1262 636//1262
f 641//1263 642//1263 636//1263
f 636//1264 642//1264 28//1264
f 642//1265 27//1265 28//1265
f 19//1266 20//1266 637//1266
f 20//1267 21//1267 637//1267
f 637//1268 21//1268 638//1268
f 21//1269 22//1269 638//1269
f 638//1270 22//1270 639//1270
f 22//1271 23//1271 639//1271
f 639//1272 23//1272 640//1272
f 23//1273 24//1273 640//1273
f 640//1274 24//1274 641//1274
f 24//1275 25//1275 641//1275
f 641//1276 25//1276 642//1276
f 25//1277 26//1277 642//1277
f 642//1278 26//1278 27//1278
f 26//1279 2//1279 27//1279
