# https://github.com/mikedh/trimesh
v -0.21183992 0.42310686 0.01032258
v 0.22287695 0.44515109 -0.01086040
v -0.20270442 -0.40486058 0.00987742
v 0.15780009 -0.31517337 -0.00768932
v 0.00218175 -0.20613284 0.16974731
v 0.00236358 0.20347652 0.18389472
v -0.00254002 -0.21866561 -0.19762207
v -0.00294941 0.27866164 -0.22947368
v 0.26150039 0.00576065 -0.11961922
v 0.35269820 -0.00768894 0.12546573
v -0.30217483 0.00658751 -0.10749299
v -0.35387395 -0.00779557 0.16187404
v 0.00000000 0.37070194 0.00000000
v 0.00000000 -0.45662735 0.00000000
v -0.09171673 -0.30584376 0.10344741
v 0.11115613 -0.36066842 0.11130432
v -0.13629838 0.43865201 0.15373111
v 0.10346296 0.32399473 0.10360090
v 0.00325232 -0.01364745 0.25304124
v -0.09758116 -0.30557585 -0.09771126
v 0.09643790 -0.31036816 -0.10877242
v -0.12821538 0.41602059 -0.12838631
v 0.10802309 0.36021987 -0.12183937
v -0.00263685 0.01106479 -0.20515542
v 0.35336428 0.27525550 -0.10629795
v 0.37367974 -0.28092557 -0.11240918
v 0.18864323 -0.13493777 -0.21277092
v 0.14693550 0.12219765 -0.16572872
v 0.30583569 0.22844224 0.06169881
v 0.32306006 -0.25003060 0.06517363
v 0.16947280 -0.13713862 0.16969875
v 0.15551971 0.10824339 0.15572705
v 0.35241100 0.00000000 -0.01717236
v -0.31860710 0.24658426 -0.06427530
v -0.27432840 -0.20490805 -0.05534258
v -0.15759348 -0.10968675 -0.15780358
v -0.18555949 0.15015608 -0.18580687
v -0.34999059 0.26311650 0.10528308
v -0.25128172 -0.19573760 0.07558979
v -0.16436889 -0.13669599 0.18539187
v -0.19535119 0.13973601 0.22033683
v -0.33913199 0.00000000 0.01652530
v -0.10508231 0.45660959 0.00512047
v 0.10100304 0.43888413 -0.00492170
v -0.11468846 -0.49835079 0.00558856
v 0.11506800 -0.50000000 -0.00560706
v -0.19119538 -0.47571145 0.08503830
v -0.04652509 -0.26506114 0.14117152
v -0.04803946 -0.35475308 0.05418376
v 0.18029180 -0.44406433 0.06189894
v 0.06323203 -0.33458134 0.17225510
v 0.05955148 -0.42790195 0.05963087
v 0.00192041 -0.46198043 0.14941413
v -0.17539038 0.42889914 0.07800868
v -0.05326184 0.28629944 0.16161291
v -0.05304525 0.38554799 0.05982980
v 0.15170544 0.36724363 0.05208449
v 0.07110613 0.35499082 0.19370552
v 0.05002298 0.35377334 0.05008967
v 0.00136845 0.31771418 0.10646977
v 0.00259084 -0.11838954 0.20157619
v 0.00266406 0.09937726 0.20727275
v -0.16113779 -0.39007717 -0.05532287
v -0.06791832 -0.33907595 -0.18502135
v -0.05758483 -0.40725237 -0.05766160
v 0.13385592 -0.32733089 -0.05953533
v 0.04931179 -0.26506662 -0.14962722
v 0.04378804 -0.31826394 -0.04938858
v -0.00193749 -0.44982920 -0.15074307
v -0.15077471 0.37136280 -0.05176494
v -0.05477729 0.28984454 -0.14922291
v -0.06622843 0.47587862 -0.06631673
v 0.16273624 0.40490252 -0.07238048
v 0.06139118 0.34975568 -0.18627983
v 0.05802060 0.42846002 -0.06544150
v -0.00185235 0.44560883 -0.14411921
v -0.00300837 -0.11222116 -0.23406147
v -0.00306275 0.13995335 -0.23829185
v 0.29375934 0.37007128 -0.05914242
v 0.30622506 0.11984971 -0.11667529
v 0.19028830 0.28161967 -0.10041114
v 0.24877725 -0.30931139 -0.05008620
v 0.36666076 -0.13036907 -0.13970200
v 0.23374279 -0.33386238 -0.12334117
v 0.09281357 -0.18555264 -0.21304017
v 0.31120055 -0.07763262 -0.21917968
v 0.15270749 -0.25523121 -0.17223896
v 0.09579852 -0.06271204 -0.23986988
v 0.20862557 -0.15395316 -0.12823814
v 0.09787561 0.21937679 -0.22465935
v 0.27268728 0.08729611 -0.19205464
v 0.18773593 0.33561703 -0.21174758
v 0.08489034 0.07803897 -0.21255688
v 0.29971922 0.23946058 -0.18423167
v 0.20200473 0.01175009 -0.22784138
v 0.23773701 0.29443051 0.02455280
v 0.24966238 0.08801804 0.07009089
v 0.23762043 0.33527566 0.10084638
v 0.24884338 0.18984234 -0.01212569
v 0.26473829 -0.33220887 0.02734142
v 0.24221321 -0.09399452 0.06799959
v 0.22441281 -0.32808588 0.09524105
v 0.29210520 -0.22284674 -0.01423376
v 0.07965951 -0.16880490 0.16531818
v 0.26429003 -0.08320655 0.15751399
v 0.13008866 -0.22628703 0.13026209
v 0.10895740 -0.09422086 0.24632833
v 0.23690609 -0.18656356 0.12061217
v 0.07628584 0.14418857 0.15831677
v 0.27121028 0.06653601 0.16163839
v 0.18897225 0.30732304 0.18922419
v 0.11522083 0.07095127 0.26048855
v 0.27875802 0.20275876 0.14191957
v 0.19198914 -0.01086625 0.19224509
v 0.31193875 0.00314967 -0.07363574
v 0.32947288 -0.00331078 0.04536996
v 0.36381842 0.12651336 -0.05867091
v 0.32838682 -0.11020867 -0.05295706
v 0.33268470 0.11132921 0.02111997
v 0.43912173 -0.15225897 0.02787696
v -0.24299457 0.30492360 -0.02509579
v -0.34191913 0.13268692 -0.09599130
v -0.16727458 0.24455122 -0.07099152
v -0.20457656 -0.25336224 -0.02112808
v -0.31111663 -0.10968363 -0.08734372
v -0.18699663 -0.26384693 -0.07936158
v -0.07459527 -0.14099320 -0.15480831
v -0.25224299 -0.06188276 -0.15033409
v -0.16788199 -0.27302423 -0.16810581
v -0.10730865 -0.06607906 -0.24260086
v -0.22033927 -0.16026702 -0.11217777
v -0.07692303 0.16300608 -0.15963913
v -0.22317239 0.07026146 -0.13300832
v -0.15699615 0.27309216 -0.15720546
v -0.09626172 0.08324228 -0.21762624
v -0.23515648 0.18518575 -0.11972142
v -0.16715501 0.00946068 -0.16737786
v -0.28943802 0.35986601 0.05827241
v -0.35539935 0.12636499 0.13541127
v -0.21877901 0.31248913 0.11544509
v -0.27735021 0.21159017 0.01351478
v -0.25366657 -0.31956333 0.05107056
v -0.27772069 -0.10869372 0.10581480
v -0.19210810 -0.28431290 0.10137141
v -0.27920815 -0.21300759 0.01360531
v -0.09518859 -0.21335415 0.21849169
v -0.28170952 -0.09018442 0.19840904
v -0.19292747 -0.34489799 0.21760313
v -0.10489675 -0.09643070 0.26265094
v -0.29861088 -0.23857507 0.18355039
v -0.09876935 0.19745943 0.22671081
v -0.29956333 0.07472958 0.21098354
v -0.15262836 0.25509896 0.17214971
v -0.07862031 0.05146677 0.19685738
v -0.29038085 0.21428366 0.17849155
v -0.21457856 -0.01248147 0.24202341
v -0.34714405 0.00348836 -0.04780337
v -0.41008560 -0.00414067 0.09680412
v -0.35227584 0.12214644 -0.02236368
v -0.34486154 -0.11540405 -0.02189300
v -0.39919631 0.13397278 0.06437610
v -0.38535883 -0.13400377 0.06214461
f 1 138 54
f 138 38 140
f 54 140 17
f 138 140 54
f 38 139 155
f 139 12 152
f 155 152 41
f 139 152 155
f 17 153 55
f 153 41 151
f 55 151 6
f 153 151 55
f 38 155 140
f 155 41 153
f 140 153 17
f 155 153 140
f 1 54 43
f 54 17 56
f 43 56 13
f 54 56 43
f 17 55 60
f 55 6 58
f 60 58 18
f 55 58 60
f 13 59 44
f 59 18 57
f 44 57 2
f 59 57 44
f 17 60 56
f 60 18 59
f 56 59 13
f 60 59 56
f 1 43 70
f 43 13 72
f 70 72 22
f 43 72 70
f 13 44 75
f 44 2 73
f 75 73 23
f 44 73 75
f 22 76 71
f 76 23 74
f 71 74 8
f 76 74 71
f 13 75 72
f 75 23 76
f 72 76 22
f 75 76 72
f 1 70 121
f 70 22 123
f 121 123 34
f 70 123 121
f 22 71 134
f 71 8 132
f 134 132 37
f 71 132 134
f 34 136 122
f 136 37 133
f 122 133 11
f 136 133 122
f 22 134 123
f 134 37 136
f 123 136 34
f 134 136 123
f 1 121 138
f 121 34 141
f 138 141 38
f 121 141 138
f 34 122 159
f 122 11 157
f 159 157 42
f 122 157 159
f 38 161 139
f 161 42 158
f 139 158 12
f 161 158 139
f 34 159 141
f 159 42 161
f 141 161 38
f 159 161 141
f 2 57 96
f 57 18 98
f 96 98 29
f 57 98 96
f 18 58 111
f 58 6 109
f 111 109 32
f 58 109 111
f 29 113 97
f 113 32 110
f 97 110 10
f 113 110 97
f 18 111 98
f 111 32 113
f 98 113 29
f 111 113 98
f 6 151 62
f 151 41 154
f 62 154 19
f 151 154 62
f 41 152 156
f 152 12 147
f 156 147 40
f 152 147 156
f 19 149 61
f 149 40 146
f 61 146 5
f 149 146 61
f 41 156 154
f 156 40 149
f 154 149 19
f 156 149 154
f 12 158 143
f 158 42 162
f 143 162 39
f 158 162 143
f 42 157 160
f 157 11 125
f 160 125 35
f 157 125 160
f 39 145 142
f 145 35 124
f 142 124 3
f 145 124 142
f 42 160 162
f 160 35 145
f 162 145 39
f 160 145 162
f 11 133 128
f 133 37 137
f 128 137 36
f 133 137 128
f 37 132 135
f 132 8 78
f 135 78 24
f 132 78 135
f 36 130 127
f 130 24 77
f 127 77 7
f 130 77 127
f 37 135 137
f 135 24 130
f 137 130 36
f 135 130 137
f 8 74 90
f 74 23 92
f 90 92 28
f 74 92 90
f 23 73 81
f 73 2 79
f 81 79 25
f 73 79 81
f 28 94 91
f 94 25 80
f 91 80 9
f 94 80 91
f 23 81 92
f 81 25 94
f 92 94 28
f 81 94 92
f 4 100 50
f 100 30 102
f 50 102 16
f 100 102 50
f 30 101 108
f 101 10 105
f 108 105 31
f 101 105 108
f 16 106 51
f 106 31 104
f 51 104 5
f 106 104 51
f 30 108 102
f 108 31 106
f 102 106 16
f 108 106 102
f 4 50 46
f 50 16 52
f 46 52 14
f 50 52 46
f 16 51 53
f 51 5 48
f 53 48 15
f 51 48 53
f 14 49 45
f 49 15 47
f 45 47 3
f 49 47 45
f 16 53 52
f 53 15 49
f 52 49 14
f 53 49 52
f 4 46 66
f 46 14 68
f 66 68 21
f 46 68 66
f 14 45 65
f 45 3 63
f 65 63 20
f 45 63 65
f 21 69 67
f 69 20 64
f 67 64 7
f 69 64 67
f 14 65 68
f 65 20 69
f 68 69 21
f 65 69 68
f 4 66 82
f 66 21 84
f 82 84 26
f 66 84 82
f 21 67 87
f 67 7 85
f 87 85 27
f 67 85 87
f 26 89 83
f 89 27 86
f 83 86 9
f 89 86 83
f 21 87 84
f 87 27 89
f 84 89 26
f 87 89 84
f 4 82 100
f 82 26 103
f 100 103 30
f 82 103 100
f 26 83 118
f 83 9 115
f 118 115 33
f 83 115 118
f 30 120 101
f 120 33 116
f 101 116 10
f 120 116 101
f 26 118 103
f 118 33 120
f 103 120 30
f 118 120 103
f 5 104 61
f 104 31 107
f 61 107 19
f 104 107 61
f 31 105 114
f 105 10 110
f 114 110 32
f 105 110 114
f 19 112 62
f 112 32 109
f 62 109 6
f 112 109 62
f 31 114 107
f 114 32 112
f 107 112 19
f 114 112 107
f 3 47 142
f 47 15 144
f 142 144 39
f 47 144 142
f 15 48 148
f 48 5 146
f 148 146 40
f 48 146 148
f 39 150 143
f 150 40 147
f 143 147 12
f 150 147 143
f 15 148 144
f 148 40 150
f 144 150 39
f 148 150 144
f 7 64 127
f 64 20 129
f 127 129 36
f 64 129 127
f 20 63 126
f 63 3 124
f 126 124 35
f 63 124 126
f 36 131 128
f 131 35 125
f 128 125 11
f 131 125 128
f 20 126 129
f 126 35 131
f 129 131 36
f 126 131 129
f 9 86 91
f 86 27 95
f 91 95 28
f 86 95 91
f 27 85 88
f 85 7 77
f 88 77 24
f 85 77 88
f 28 93 90
f 93 24 78
f 90 78 8
f 93 78 90
f 27 88 95
f 88 24 93
f 95 93 28
f 88 93 95
f 10 116 97
f 116 33 119
f 97 119 29
f 116 119 97
f 33 115 117
f 115 9 80
f 117 80 25
f 115 80 117
f 29 99 96
f 99 25 79
f 96 79 2
f 99 79 96
f 33 117 119
f 117 25 99
f 119 99 29
f 117 99 119

