# https://github.com/mikedh/trimesh
v -0.19968290 0.32618125 -0.01638067
v 0.19187307 0.31342391 0.01574000
v -0.24959800 -0.40771736 -0.02047538
v 0.19872044 -0.32460908 0.01630172
v 0.01639100 -0.25220671 0.17794153
v 0.01669136 0.24767804 0.18120232
v -0.01373136 -0.20375545 -0.14906836
v -0.01674501 0.25765379 -0.18178465
v 0.30759615 0.00220766 -0.06154174
v 0.30117071 -0.00205399 0.10544041
v -0.32037284 0.00218494 -0.11216311
v -0.43056938 -0.00309026 0.08614538
v 0.00000000 0.47094742 0.00000000
v 0.00000000 -0.45479174 0.00000000
v -0.10812678 -0.30836371 0.07452162
v 0.16947530 -0.42279216 0.12823946
v -0.13956865 0.39255488 0.09619155
v 0.13733917 0.33790717 0.10392252
v 0.02082395 -0.00570795 0.22606589
v -0.15157245 -0.37292651 -0.11469264
v 0.12072045 -0.33954187 -0.08320126
v -0.10091866 0.25176306 -0.07636366
v 0.13385803 0.38174594 -0.09225575
v -0.01555811 0.00426455 -0.16889962
v 0.33972459 0.21685599 -0.03077618
v 0.34056926 -0.21440374 -0.03085270
v 0.19084231 -0.12385329 -0.13152966
v 0.17188253 0.11829385 -0.11846247
v 0.37452613 0.22846019 0.09336878
v 0.33256005 -0.20569134 0.08290670
v 0.27808210 -0.16741484 0.21042062
v 0.20022967 0.11367156 0.15151084
v 0.50000000 0.00000000 0.04101671
v -0.34813386 0.21532388 -0.08678923
v -0.26828431 -0.16365289 -0.06688286
v -0.22462258 -0.12751955 -0.16996859
v -0.18461588 0.11114502 -0.13969612
v -0.24342594 0.15324763 0.02205234
v -0.37356015 -0.23845419 0.03384140
v -0.20674439 -0.14228665 0.14248947
v -0.17258714 0.11200601 0.11894809
v -0.43250294 0.00000000 -0.03547969
v -0.12317352 0.43773232 -0.01010434
v 0.12493653 0.44399768 0.01024897
v -0.09690333 -0.34437369 -0.00794931
v 0.09186637 -0.32647342 0.00753611
v -0.18184340 -0.37551971 0.03476059
v -0.05932473 -0.31923213 0.13586675
v -0.06117124 -0.38860415 0.04215959
v 0.19024035 -0.37389858 0.06506943
v 0.08272805 -0.30906569 0.14303796
v 0.08295402 -0.46098633 0.06277008
v 0.01003272 -0.39970289 0.10891575
v -0.14360564 0.29455978 0.02745119
v -0.06331735 0.33307402 0.14501075
v -0.06526050 0.41202106 0.04497792
v 0.20090654 0.39220399 0.06871768
v 0.07381237 0.26957173 0.12762263
v 0.08799361 0.48597138 0.06658347
v 0.00874529 0.34361746 0.09493932
v 0.01881084 -0.13582734 0.20421144
v 0.01755587 0.11714131 0.19058744
v -0.20561693 -0.40139947 -0.07032881
v -0.09003655 -0.32882439 -0.15567446
v -0.05679670 -0.31367701 -0.04297723
v 0.20938412 -0.42948270 -0.04002519
v 0.05999279 -0.31558549 -0.13739675
v 0.06683067 -0.42193436 -0.04606010
v -0.00927712 -0.36451401 -0.10071291
v -0.20789337 0.40859384 -0.07110744
v -0.08339696 0.31156470 -0.14419452
v -0.08904233 0.49481989 -0.06737702
v 0.14518142 0.29981008 -0.02775241
v 0.06137503 0.33026497 -0.14056238
v 0.06889981 0.43770164 -0.04748616
v -0.01045794 0.41664340 -0.11353190
v -0.01694721 -0.11308001 -0.18397977
v -0.01727455 0.12473427 -0.18753341
v 0.31051524 0.32110024 -0.00681326
v 0.37105317 0.11740345 -0.05433455
v 0.20989263 0.25750660 -0.05241999
v 0.25785131 -0.26527691 -0.00565772
v 0.34391286 -0.10481811 -0.05036031
v 0.21480692 -0.25990936 -0.05364732
v 0.07461364 -0.14248042 -0.12153913
v 0.23448229 -0.05373001 -0.08822107
v 0.16905150 -0.24942229 -0.11651131
v 0.07466626 -0.05117416 -0.13513944
v 0.21532592 -0.13710378 -0.06713148
v 0.06990539 0.13957543 -0.11386980
v 0.21356203 0.05391611 -0.08035008
v 0.18391947 0.27857630 -0.12675840
v 0.10130200 0.07918160 -0.18334782
v 0.23657491 0.15537397 -0.07375622
v 0.21577302 0.00423375 -0.14871205
v 0.33744484 0.34058882 0.06210328
v 0.30824892 0.09012611 0.09284610
v 0.22483840 0.25626409 0.08871338
v 0.35227299 0.21979721 0.02889816
v 0.26436468 -0.26819991 0.04865362
v 0.30052456 -0.09121911 0.09051948
v 0.23373703 -0.27012347 0.09222446
v 0.31514187 -0.19662962 0.02585216
v 0.15139783 -0.22942060 0.20901380
v 0.33116896 -0.07705246 0.16703366
v 0.19103231 -0.25311262 0.14455133
v 0.13069119 -0.07560164 0.19371376
v 0.26874828 -0.16448047 0.12066992
v 0.13674048 0.19817482 0.18877844
v 0.22346572 0.04719110 0.11271073
v 0.21378628 0.27592215 0.16176892
v 0.11545578 0.05856264 0.17113145
v 0.29247616 0.17354123 0.13132391
v 0.20584894 -0.00353319 0.15576286
v 0.46779303 0.00152171 -0.02143788
v 0.34010006 -0.00108068 0.07037694
v 0.46133699 0.13054135 0.00254240
v 0.30753135 -0.08582261 0.00169478
v 0.47200723 0.12987789 0.07433364
v 0.33662576 -0.09391856 0.05301321
v -0.26564275 0.26949652 -0.04888883
v -0.32812963 0.09959816 -0.09883427
v -0.20954095 0.24216072 -0.08267754
v -0.25339272 -0.25575358 -0.04663434
v -0.39411818 -0.11523265 -0.11871035
v -0.18815745 -0.21445623 -0.07424035
v -0.11078625 -0.16055996 -0.15294707
v -0.25014948 -0.05282613 -0.12616938
v -0.17658518 -0.22790874 -0.13361940
v -0.10040950 -0.05093072 -0.14882948
v -0.23908026 -0.14185868 -0.10734876
v -0.09470177 0.14350625 -0.13074147
v -0.30923151 0.07194832 -0.15596894
v -0.17784314 0.23563733 -0.13457129
v -0.12652240 0.07319009 -0.18753467
v -0.29054622 0.17782134 -0.13045735
v -0.18363835 0.00315197 -0.13895643
v -0.28273205 0.29087416 0.00620365
v -0.36471415 0.11115795 0.05340631
v -0.28659396 0.34676933 0.07157590
v -0.36945018 0.23051475 -0.03030726
v -0.35496251 -0.36706265 0.00778851
v -0.41417559 -0.13104764 0.06064911
v -0.27893091 -0.34220615 0.06966208
v -0.33309191 -0.20782937 -0.02732467
v -0.10242647 -0.20450810 0.16684381
v -0.25020229 -0.06316635 0.09413553
v -0.18900465 -0.28627865 0.13026314
v -0.10400563 -0.08129486 0.18824115
v -0.28430260 -0.18671982 0.08863613
v -0.08828711 0.16859094 0.14381202
v -0.22686912 0.05198550 0.08535671
v -0.15416702 0.22746140 0.10625283
v -0.08562129 0.05868244 0.15496710
v -0.31519178 0.20069105 0.09826635
v -0.19801709 -0.00388536 0.13647457
v -0.41589088 0.00132151 -0.08606034
v -0.44793496 -0.00145711 0.02052783
v -0.46449214 0.12959327 -0.07315013
v -0.40023186 -0.11012812 -0.06303016
v -0.48005462 0.13396859 -0.00264555
v -0.40838165 -0.11555695 -0.00225056
f 1 138 54
f 138 38 140
f 54 140 17
f 138 140 54
f 38 139 155
f 139 12 152
f 155 152 41
f 139 152 155
f 17 153 55
f 153 41 151
f 55 151 6
f 153 151 55
f 38 155 140
f 155 41 153
f 140 153 17
f 155 153 140
f 1 54 43
f 54 17 56
f 43 56 13
f 54 56 43
f 17 55 60
f 55 6 58
f 60 58 18
f 55 58 60
f 13 59 44
f 59 18 57
f 44 57 2
f 59 57 44
f 17 60 56
f 60 18 59
f 56 59 13
f 60 59 56
f 1 43 70
f 43 13 72
f 70 72 22
f 43 72 70
f 13 44 75
f 44 2 73
f 75 73 23
f 44 73 75
f 22 76 71
f 76 23 74
f 71 74 8
f 76 74 71
f 13 75 72
f 75 23 76
f 72 76 22
f 75 76 72
f 1 70 121
f 70 22 123
f 121 123 34
f 70 123 121
f 22 71 134
f 71 8 132
f 134 132 37
f 71 132 134
f 34 136 122
f 136 37 133
f 122 133 11
f 136 133 122
f 22 134 123
f 134 37 136
f 123 136 34
f 134 136 123
f 1 121 138
f 121 34 141
f 138 141 38
f 121 141 138
f 34 122 159
f 122 11 157
f 159 157 42
f 122 157 159
f 38 161 139
f 161 42 158
f 139 158 12
f 161 158 139
f 34 159 141
f 159 42 161
f 141 161 38
f 159 161 141
f 2 57 96
f 57 18 98
f 96 98 29
f 57 98 96
f 18 58 111
f 58 6 109
f 111 109 32
f 58 109 111
f 29 113 97
f 113 32 110
f 97 110 10
f 113 110 97
f 18 111 98
f 111 32 113
f 98 113 29
f 111 113 98
f 6 151 62
f 151 41 154
f 62 154 19
f 151 154 62
f 41 152 156
f 152 12 147
f 156 147 40
f 152 147 156
f 19 149 61
f 149 40 146
f 61 146 5
f 149 146 61
f 41 156 154
f 156 40 149
f 154 149 19
f 156 149 154
f 12 158 143
f 158 42 162
f 143 162 39
f 158 162 143
f 42 157 160
f 157 11 125
f 160 125 35
f 157 125 160
f 39 145 142
f 145 35 124
f 142 124 3
f 145 124 142
f 42 160 162
f 160 35 145
f 162 145 39
f 160 145 162
f 11 133 128
f 133 37 137
f 128 137 36
f 133 137 128
f 37 132 135
f 132 8 78
f 135 78 24
f 132 78 135
f 36 130 127
f 130 24 77
f 127 77 7
f 130 77 127
f 37 135 137
f 135 24 130
f 137 130 36
f 135 130 137
f 8 74 90
f 74 23 92
f 90 92 28
f 74 92 90
f 23 73 81
f 73 2 79
f 81 79 25
f 73 79 81
f 28 94 91
f 94 25 80
f 91 80 9
f 94 80 91
f 23 81 92
f 81 25 94
f 92 94 28
f 81 94 92
f 4 100 50
f 100 30 102
f 50 102 16
f 100 102 50
f 30 101 108
f 101 10 105
f 108 105 31
f 101 105 108
f 16 106 51
f 106 31 104
f 51 104 5
f 106 104 51
f 30 108 102
f 108 31 106
f 102 106 16
f 108 106 102
f 4 50 46
f 50 16 52
f 46 52 14
f 50 52 46
f 16 51 53
f 51 5 48
f 53 48 15
f 51 48 53
f 14 49 45
f 49 15 47
f 45 47 3
f 49 47 45
f 16 53 52
f 53 15 49
f 52 49 14
f 53 49 52
f 4 46 66
f 46 14 68
f 66 68 21
f 46 68 66
f 14 45 65
f 45 3 63
f 65 63 20
f 45 63 65
f 21 69 67
f 69 20 64
f 67 64 7
f 69 64 67
f 14 65 68
f 65 20 69
f 68 69 21
f 65 69 68
f 4 66 82
f 66 21 84
f 82 84 26
f 66 84 82
f 21 67 87
f 67 7 85
f 87 85 27
f 67 85 87
f 26 89 83
f 89 27 86
f 83 86 9
f 89 86 83
f 21 87 84
f 87 27 89
f 84 89 26
f 87 89 84
f 4 82 100
f 82 26 103
f 100 103 30
f 82 103 100
f 26 83 118
f 83 9 115
f 118 115 33
f 83 115 118
f 30 120 101
f 120 33 116
f 101 116 10
f 120 116 101
f 26 118 103
f 118 33 120
f 103 120 30
f 118 120 103
f 5 104 61
f 104 31 107
f 61 107 19
f 104 107 61
f 31 105 114
f 105 10 110
f 114 110 32
f 105 110 114
f 19 112 62
f 112 32 109
f 62 109 6
f 112 109 62
f 31 114 107
f 114 32 112
f 107 112 19
f 114 112 107
f 3 47 142
f 47 15 144
f 142 144 39
f 47 144 142
f 15 48 148
f 48 5 146
f 148 146 40
f 48 146 148
f 39 150 143
f 150 40 147
f 143 147 12
f 150 147 143
f 15 148 144
f 148 40 150
f 144 150 39
f 148 150 144
f 7 64 127
f 64 20 129
f 127 129 36
f 64 129 127
f 20 63 126
f 63 3 124
f 126 124 35
f 63 124 126
f 36 131 128
f 131 35 125
f 128 125 11
f 131 125 128
f 20 126 129
f 126 35 131
f 129 131 36
f 126 131 129
f 9 86 91
f 86 27 95
f 91 95 28
f 86 95 91
f 27 85 88
f 85 7 77
f 88 77 24
f 85 77 88
f 28 93 90
f 93 24 78
f 90 78 8
f 93 78 90
f 27 88 95
f 88 24 93
f 95 93 28
f 88 93 95
f 10 116 97
f 116 33 119
f 97 119 29
f 116 119 97
f 33 115 117
f 115 9 80
f 117 80 25
f 115 80 117
f 29 99 96
f 99 25 79
f 96 79 2
f 99 79 96
f 33 117 119
f 117 25 99
f 119 99 29
f 117 99 119

