# Blender 4.0.2
# www.blender.org
o rock_47
v -0.010906 -0.288605 0.009290
v 0.286427 -0.115848 0.225674
v -0.092929 -0.187085 0.426998
v -0.437932 -0.162269 0.014868
v -0.127180 -0.152230 -0.435335
v 0.278763 -0.110294 -0.220778
v 0.110568 0.096065 0.361944
v -0.328804 0.160951 0.237590
v -0.331700 0.162051 -0.266721
v 0.112316 0.136460 -0.385159
v 0.342225 0.105398 -0.003998
v -0.000848 0.263496 -0.001473
v -0.084572 -0.221057 0.384338
v -0.081966 -0.245225 0.315099
v -0.078011 -0.241279 0.258873
v -0.064542 -0.243140 0.217360
v -0.054674 -0.248252 0.164469
v -0.049939 -0.252580 0.112836
v -0.034198 -0.270548 0.062939
v 0.028028 -0.272449 0.034766
v 0.074248 -0.273708 0.067366
v 0.124279 -0.252370 0.103667
v 0.168878 -0.228042 0.137139
v 0.206474 -0.195290 0.166315
v 0.237301 -0.165953 0.190186
v 0.264496 -0.140942 0.209976
v 0.250603 -0.126334 0.262457
v 0.210139 -0.133630 0.300073
v 0.164256 -0.141356 0.340108
v 0.106209 -0.145918 0.371605
v 0.048883 -0.150042 0.391436
v -0.004218 -0.165028 0.405857
v -0.047923 -0.174361 0.409355
v 0.293924 -0.113382 -0.175783
v 0.306073 -0.111385 -0.121688
v 0.317553 -0.114941 -0.060916
v 0.323455 -0.122067 -0.001395
v 0.315717 -0.118488 0.061472
v 0.308337 -0.118043 0.121373
v 0.293445 -0.111992 0.174467
v 0.033027 -0.280623 -0.025248
v 0.078443 -0.273629 -0.065901
v 0.124456 -0.246670 -0.100778
v 0.169136 -0.224020 -0.133424
v 0.204560 -0.190203 -0.161644
v 0.239010 -0.166931 -0.189314
v 0.264703 -0.141174 -0.209505
v -0.404745 -0.222040 0.021608
v -0.344395 -0.263174 0.019932
v -0.280652 -0.283789 0.026856
v -0.221673 -0.287436 0.032466
v -0.161854 -0.290454 0.027395
v -0.105415 -0.288386 0.023718
v -0.061633 -0.279196 0.017563
v -0.149867 -0.219584 0.406736
v -0.230249 -0.239851 0.379370
v -0.301298 -0.244822 0.311011
v -0.339120 -0.234315 0.227872
v -0.362958 -0.220704 0.163772
v -0.379564 -0.200226 0.113762
v -0.409512 -0.182750 0.077648
v -0.120369 -0.194344 -0.413173
v -0.112681 -0.243981 -0.361532
v -0.094764 -0.279454 -0.289488
v -0.069407 -0.285525 -0.217082
v -0.056030 -0.287718 -0.163351
v -0.041171 -0.286841 -0.104137
v -0.026131 -0.291414 -0.045369
v -0.439038 -0.193045 -0.051223
v -0.408819 -0.214104 -0.117586
v -0.381080 -0.225178 -0.190819
v -0.345884 -0.210031 -0.270564
v -0.303423 -0.184104 -0.330906
v -0.255077 -0.175152 -0.375739
v -0.186577 -0.166699 -0.416799
v -0.079915 -0.161363 -0.433104
v -0.028080 -0.172898 -0.423432
v 0.049080 -0.186184 -0.413626
v 0.119550 -0.173072 -0.377692
v 0.170749 -0.154350 -0.337854
v 0.215150 -0.137430 -0.298939
v 0.253512 -0.125350 -0.259877
v 0.358059 0.082709 0.026653
v 0.368592 0.059977 0.057856
v 0.364156 0.030468 0.089720
v 0.352633 -0.000715 0.122746
v 0.342467 -0.030123 0.155390
v 0.327773 -0.059278 0.183873
v 0.305581 -0.086472 0.205348
v 0.302094 -0.084092 -0.203491
v 0.325266 -0.059414 -0.180901
v 0.340071 -0.032328 -0.151625
v 0.353891 -0.000521 -0.120663
v 0.367464 0.031647 -0.090727
v 0.369023 0.061528 -0.061848
v 0.354620 0.084236 -0.031658
v 0.097115 0.082872 0.380514
v 0.081366 0.069929 0.411951
v 0.057108 0.041807 0.449650
v 0.026600 -0.013228 0.476383
v -0.011719 -0.074066 0.475421
v -0.048153 -0.119350 0.460358
v -0.072105 -0.153532 0.444069
v 0.282205 -0.093280 0.261419
v 0.273358 -0.065878 0.298400
v 0.251559 -0.031441 0.329135
v 0.217761 0.006900 0.343657
v 0.186003 0.035171 0.345982
v 0.160912 0.053194 0.353030
v 0.134219 0.072799 0.359338
v -0.365852 0.124813 0.232612
v -0.399113 0.086864 0.213405
v -0.421030 0.046186 0.187237
v -0.440548 0.004832 0.157204
v -0.452627 -0.044814 0.114223
v -0.448943 -0.095644 0.076717
v -0.445817 -0.134349 0.044460
v -0.146884 -0.164810 0.457854
v -0.204831 -0.125092 0.472018
v -0.260086 -0.084791 0.472095
v -0.323484 -0.008055 0.455400
v -0.356281 0.072482 0.390871
v -0.353311 0.114111 0.323076
v -0.343817 0.140157 0.278813
v -0.329315 0.132502 -0.309959
v -0.320775 0.094683 -0.348744
v -0.301998 0.036030 -0.385234
v -0.267626 -0.017291 -0.401800
v -0.241902 -0.025320 -0.411916
v -0.217073 -0.050171 -0.434858
v -0.172347 -0.114321 -0.447490
v -0.454736 -0.129043 -0.021410
v -0.466644 -0.104685 -0.059439
v -0.479274 -0.061644 -0.111178
v -0.475251 -0.012988 -0.171222
v -0.445429 0.049207 -0.224500
v -0.398643 0.101008 -0.248664
v -0.368045 0.132788 -0.258311
v 0.147263 0.103983 -0.388812
v 0.177351 0.070962 -0.383130
v 0.211787 0.037324 -0.375700
v 0.237302 0.000017 -0.352151
v 0.254755 -0.033390 -0.321859
v 0.269801 -0.064165 -0.290415
v 0.278019 -0.090263 -0.255981
v -0.109270 -0.119124 -0.454353
v -0.081999 -0.076064 -0.474329
v -0.051065 -0.032916 -0.477846
v -0.015693 0.007188 -0.480953
v 0.025676 0.047039 -0.470439
v 0.060807 0.087033 -0.444226
v 0.087569 0.110858 -0.414037
v 0.326853 0.104505 0.042698
v 0.309930 0.108894 0.093960
v 0.280006 0.107017 0.146446
v 0.245926 0.104659 0.197529
v 0.211568 0.103783 0.243509
v 0.184406 0.112731 0.293722
v 0.144399 0.105024 0.334630
v 0.074037 0.113522 0.372495
v 0.017110 0.139072 0.381709
v -0.039470 0.154859 0.377117
v -0.106708 0.171277 0.366945
v -0.168089 0.183178 0.348805
v -0.236931 0.187393 0.315727
v -0.291829 0.176942 0.275067
v -0.339552 0.165243 0.197732
v -0.350356 0.170572 0.134330
v -0.362687 0.166852 0.082827
v -0.377296 0.179768 0.018529
v -0.381721 0.198120 -0.071689
v -0.362300 0.190836 -0.165193
v -0.344974 0.173831 -0.220298
v -0.269608 0.172957 -0.306783
v -0.218839 0.168384 -0.319726
v -0.178237 0.173935 -0.335185
v -0.113264 0.167618 -0.363870
v -0.062340 0.156413 -0.386669
v 0.006833 0.150528 -0.395020
v 0.058437 0.144738 -0.389815
v 0.151805 0.135326 -0.351106
v 0.196244 0.141342 -0.316839
v 0.236400 0.138837 -0.267827
v 0.265146 0.127312 -0.211338
v 0.288673 0.116459 -0.150998
v 0.319851 0.118750 -0.095480
v 0.339452 0.118998 -0.049430
v 0.011719 0.254530 0.047159
v 0.025758 0.249390 0.103904
v 0.041253 0.225789 0.159312
v 0.057569 0.212092 0.209886
v 0.075935 0.193376 0.262127
v 0.093985 0.167259 0.309843
v 0.104834 0.128843 0.342026
v 0.318963 0.130739 -0.004607
v 0.292877 0.159836 -0.003046
v 0.248417 0.177331 -0.001832
v 0.199539 0.198007 -0.000186
v 0.146248 0.213331 -0.000376
v 0.095657 0.235000 -0.001681
v 0.045060 0.252557 -0.001506
v -0.039046 0.262701 0.030369
v -0.079890 0.262281 0.070645
v -0.121207 0.250392 0.111147
v -0.170489 0.238225 0.139259
v -0.216149 0.227884 0.162144
v -0.258689 0.207904 0.191878
v -0.294891 0.187261 0.218807
v -0.038002 0.265818 -0.035793
v -0.073006 0.266711 -0.070320
v -0.122024 0.272742 -0.104159
v -0.176084 0.266896 -0.142420
v -0.222701 0.247679 -0.186972
v -0.258262 0.226924 -0.220475
v -0.300286 0.196308 -0.248516
v 0.011105 0.253148 -0.054046
v 0.022081 0.245803 -0.103332
v 0.039839 0.240855 -0.157138
v 0.061752 0.229353 -0.213150
v 0.076982 0.213324 -0.263057
v 0.090966 0.189369 -0.317624
v 0.100999 0.161629 -0.352075
v 0.061558 0.248343 -0.052101
v 0.116428 0.226837 -0.052347
v 0.080465 0.241212 -0.107934
v 0.170376 0.207394 -0.053577
v 0.136491 0.215903 -0.109225
v 0.099302 0.226019 -0.166149
v 0.228080 0.194620 -0.054857
v 0.194281 0.197814 -0.111383
v 0.156167 0.204882 -0.168492
v 0.114231 0.202333 -0.216734
v 0.272773 0.166032 -0.052782
v 0.245868 0.173936 -0.109527
v 0.214228 0.183032 -0.169067
v 0.173279 0.186278 -0.222673
v 0.132483 0.196944 -0.275094
v 0.312784 0.143552 -0.050707
v 0.285828 0.143831 -0.102911
v 0.255355 0.147581 -0.161397
v 0.225402 0.157538 -0.220092
v 0.189947 0.170936 -0.276472
v 0.142779 0.163332 -0.318999
v -0.024328 0.251523 -0.089912
v -0.012302 0.245649 -0.137924
v -0.059605 0.256363 -0.122382
v 0.003040 0.243132 -0.198498
v -0.052111 0.255954 -0.182702
v -0.111567 0.263530 -0.168079
v 0.018890 0.230907 -0.256379
v -0.043916 0.237874 -0.246525
v -0.108819 0.242252 -0.237529
v -0.167237 0.241669 -0.221237
v 0.038208 0.211788 -0.318750
v -0.034092 0.219883 -0.305192
v -0.099354 0.215500 -0.290958
v -0.156685 0.209921 -0.271673
v -0.197812 0.213264 -0.253205
v 0.051013 0.170778 -0.359604
v -0.012684 0.187999 -0.364047
v -0.083170 0.187132 -0.341461
v -0.139671 0.191429 -0.318593
v -0.191260 0.192263 -0.297383
v -0.229002 0.198533 -0.281447
v -0.077746 0.268701 -0.000683
v -0.127561 0.275473 -0.038238
v -0.126623 0.272180 0.039294
v -0.181698 0.263165 -0.073908
v -0.188327 0.270019 -0.000053
v -0.186177 0.256463 0.083428
v -0.231944 0.254324 -0.110397
v -0.237589 0.255596 -0.036626
v -0.241093 0.242311 0.048252
v -0.227661 0.224866 0.110335
v -0.272384 0.233626 -0.149805
v -0.276891 0.242205 -0.075190
v -0.279756 0.232916 0.010441
v -0.273050 0.218129 0.084272
v -0.265441 0.213171 0.134029
v -0.311805 0.208412 -0.189140
v -0.320843 0.226411 -0.120738
v -0.327292 0.224038 -0.028576
v -0.321643 0.206468 0.052976
v -0.308873 0.194939 0.109531
v -0.302752 0.194473 0.165020
v -0.029378 0.255688 0.087453
v -0.070131 0.237722 0.127867
v -0.015864 0.233737 0.146091
v -0.108937 0.232156 0.161878
v -0.055321 0.223513 0.182291
v -0.000468 0.211064 0.196197
v -0.150912 0.228273 0.193771
v -0.094289 0.215932 0.214442
v -0.039131 0.205612 0.229530
v 0.017035 0.201489 0.247621
v -0.203178 0.219859 0.225838
v -0.137640 0.213922 0.249062
v -0.082114 0.206526 0.269234
v -0.022170 0.197959 0.292313
v 0.037749 0.184796 0.306116
v -0.251550 0.200396 0.252237
v -0.187039 0.205846 0.286384
v -0.126193 0.198035 0.312088
v -0.063925 0.184990 0.335505
v -0.002634 0.166933 0.345144
v 0.056312 0.150333 0.350209
v 0.061481 0.248067 0.048643
v 0.082985 0.240724 0.109536
v 0.119313 0.235995 0.052266
v 0.099678 0.214249 0.163295
v 0.139545 0.213945 0.110546
v 0.171022 0.205809 0.053957
v 0.119251 0.201057 0.219745
v 0.157790 0.194003 0.166219
v 0.187852 0.179501 0.108402
v 0.220274 0.179875 0.052145
v 0.135768 0.172538 0.269881
v 0.172341 0.164242 0.217551
v 0.201409 0.154385 0.160801
v 0.232891 0.151684 0.104325
v 0.264260 0.154046 0.048240
v 0.143594 0.136433 0.305896
v 0.177740 0.129859 0.255161
v 0.206399 0.123104 0.204921
v 0.243105 0.128803 0.154360
v 0.273357 0.126968 0.098990
v 0.301188 0.131606 0.045178
v 0.349956 0.093643 -0.079766
v 0.349590 0.062424 -0.111608
v 0.321416 0.090244 -0.131705
v 0.340907 0.030954 -0.146888
v 0.316187 0.059552 -0.170940
v 0.294231 0.094292 -0.195238
v 0.327441 0.000993 -0.180395
v 0.315585 0.033130 -0.211163
v 0.298275 0.069160 -0.237696
v 0.269273 0.104156 -0.255439
v 0.313185 -0.031053 -0.209933
v 0.304904 0.001521 -0.242316
v 0.289280 0.035959 -0.270838
v 0.263483 0.071594 -0.292972
v 0.235137 0.110256 -0.311492
v 0.299879 -0.062367 -0.237326
v 0.287866 -0.032235 -0.267923
v 0.271556 0.000393 -0.297693
v 0.250571 0.035061 -0.324528
v 0.223526 0.072231 -0.345210
v 0.187105 0.104422 -0.351951
v 0.030633 0.120082 -0.416982
v -0.005057 0.091511 -0.446258
v -0.032333 0.125508 -0.420701
v -0.044650 0.051937 -0.464543
v -0.070709 0.091969 -0.437974
v -0.091559 0.127752 -0.407782
v -0.078508 0.007737 -0.472697
v -0.105108 0.052988 -0.456568
v -0.125244 0.094815 -0.432242
v -0.156952 0.146889 -0.395663
v -0.116608 -0.031616 -0.471523
v -0.148772 0.001258 -0.458603
v -0.178337 0.043631 -0.445815
v -0.210231 0.097964 -0.411037
v -0.220788 0.148122 -0.351322
v -0.147990 -0.065586 -0.459255
v -0.184933 -0.025700 -0.442464
v -0.216059 -0.012700 -0.426934
v -0.245717 0.033293 -0.413474
v -0.261486 0.103761 -0.379021
v -0.260782 0.146172 -0.339589
v -0.384061 0.146754 -0.212474
v -0.439452 0.107536 -0.182459
v -0.418487 0.159261 -0.127183
v -0.478947 0.042922 -0.127263
v -0.459033 0.104107 -0.074479
v -0.418959 0.147838 -0.022800
v -0.480826 -0.015197 -0.070189
v -0.467991 0.038913 -0.025381
v -0.436828 0.098422 0.018403
v -0.396508 0.132121 0.054503
v -0.470818 -0.060595 -0.024554
v -0.462394 -0.010741 0.012380
v -0.451129 0.043164 0.050871
v -0.417862 0.099514 0.085986
v -0.389317 0.130477 0.111477
v -0.456452 -0.095400 0.008482
v -0.457915 -0.052282 0.043865
v -0.453585 -0.006062 0.083132
v -0.437649 0.048502 0.124420
v -0.411136 0.089907 0.152250
v -0.383197 0.129796 0.178272
v -0.291736 0.159870 0.324221
v -0.289123 0.136769 0.389427
v -0.222120 0.167514 0.371927
v -0.269192 0.076764 0.462426
v -0.200638 0.132479 0.432378
v -0.149101 0.154431 0.395855
v -0.229015 -0.010288 0.498678
v -0.175780 0.073592 0.483309
v -0.128301 0.117150 0.446192
v -0.081226 0.145578 0.412232
v -0.177222 -0.083809 0.490290
v -0.145878 -0.005052 0.510006
v -0.099824 0.068182 0.484681
v -0.050138 0.106763 0.451901
v -0.010462 0.124362 0.408303
v -0.122808 -0.126042 0.473261
v -0.097185 -0.083758 0.492470
v -0.059271 -0.006925 0.511102
v -0.012675 0.056631 0.480478
v 0.022869 0.090243 0.435483
v 0.051820 0.105976 0.403645
v 0.176126 0.080495 0.333372
v 0.198941 0.055325 0.318709
v 0.211791 0.083916 0.285850
v 0.233702 0.037192 0.314214
v 0.246084 0.062401 0.278572
v 0.244503 0.080881 0.235563
v 0.274572 0.004968 0.303433
v 0.275887 0.033550 0.260671
v 0.272794 0.053462 0.219513
v 0.280790 0.082038 0.184823
v 0.294592 -0.031136 0.274140
v 0.301502 0.002045 0.240085
v 0.304233 0.028012 0.202969
v 0.310961 0.055622 0.166868
v 0.312756 0.083095 0.129677
v 0.305206 -0.063291 0.241403
v 0.324237 -0.031501 0.216515
v 0.332155 -0.000878 0.182891
v 0.337288 0.028202 0.146542
v 0.344639 0.058461 0.111137
v 0.342103 0.084597 0.076575
v 0.125659 0.078140 -0.419177
v 0.158612 0.042618 -0.415292
v 0.099457 0.044833 -0.452440
v 0.194347 0.002246 -0.406558
v 0.132312 0.003691 -0.445062
v 0.064431 0.004523 -0.473145
v 0.221218 -0.040439 -0.377017
v 0.167969 -0.043505 -0.430119
v 0.100257 -0.038655 -0.463578
v 0.020349 -0.038568 -0.488898
v 0.234128 -0.072244 -0.335903
v 0.192736 -0.085355 -0.388502
v 0.134816 -0.093315 -0.439259
v 0.060555 -0.094256 -0.474362
v -0.025034 -0.083467 -0.476377
v 0.244478 -0.099483 -0.296809
v 0.207430 -0.115675 -0.344083
v 0.158263 -0.132705 -0.389839
v 0.095227 -0.144149 -0.431116
v 0.010210 -0.144295 -0.456382
v -0.057167 -0.132099 -0.455234
v -0.367855 0.091151 -0.296676
v -0.358485 0.040747 -0.332996
v -0.399018 0.053475 -0.287557
v -0.329783 -0.014697 -0.363332
v -0.378763 -0.001232 -0.318906
v -0.433411 -0.000475 -0.259562
v -0.294965 -0.039057 -0.381705
v -0.348524 -0.040449 -0.344361
v -0.410408 -0.038568 -0.293870
v -0.463512 -0.052462 -0.208163
v -0.274836 -0.059819 -0.397172
v -0.319713 -0.074498 -0.361392
v -0.376714 -0.090533 -0.322157
v -0.441185 -0.107176 -0.244024
v -0.471861 -0.111257 -0.142660
v -0.241485 -0.117661 -0.412366
v -0.294647 -0.118148 -0.368042
v -0.337757 -0.139105 -0.331732
v -0.392782 -0.170525 -0.265360
v -0.435130 -0.180199 -0.171605
v -0.454075 -0.155674 -0.089873
v -0.377882 0.094720 0.265093
v -0.408344 0.051722 0.250444
v -0.388771 0.060640 0.297850
v -0.424624 0.004026 0.221836
v -0.409971 0.003965 0.277723
v -0.397342 0.003317 0.355665
v -0.442198 -0.035718 0.187026
v -0.419131 -0.033319 0.253462
v -0.408067 -0.055755 0.313569
v -0.355271 -0.082795 0.414815
v -0.443527 -0.104648 0.134317
v -0.435622 -0.103724 0.217523
v -0.413561 -0.106041 0.281990
v -0.366373 -0.138994 0.361393
v -0.287236 -0.145148 0.433519
v -0.419546 -0.150218 0.099457
v -0.410363 -0.170688 0.150473
v -0.392082 -0.180501 0.226549
v -0.367171 -0.191598 0.304943
v -0.301917 -0.190610 0.377425
v -0.225766 -0.186242 0.437034
v 0.119673 0.062756 0.380189
v 0.105277 0.037734 0.411414
v 0.147620 0.036643 0.380577
v 0.081712 -0.006527 0.439388
v 0.127502 0.003839 0.406127
v 0.171303 0.007042 0.369910
v 0.048451 -0.056128 0.447354
v 0.101396 -0.041192 0.423065
v 0.151266 -0.031193 0.393254
v 0.196260 -0.028139 0.360113
v 0.013283 -0.103880 0.443362
v 0.067017 -0.085913 0.427797
v 0.120240 -0.071210 0.398475
v 0.172012 -0.065556 0.369515
v 0.222161 -0.067439 0.338007
v -0.022665 -0.142092 0.430425
v 0.031364 -0.124769 0.417390
v 0.086431 -0.111110 0.402082
v 0.143042 -0.101289 0.377125
v 0.193489 -0.099703 0.339905
v 0.242311 -0.101512 0.303403
v 0.370968 0.059366 -0.001320
v 0.380449 0.032913 0.030132
v 0.379653 0.032129 -0.033670
v 0.376071 0.000365 0.062794
v 0.383828 0.001316 -0.001787
v 0.381113 0.000288 -0.066007
v 0.363953 -0.032555 0.096665
v 0.378140 -0.032522 0.032235
v 0.376515 -0.032030 -0.036048
v 0.368726 -0.035014 -0.097434
v 0.348055 -0.063009 0.128482
v 0.361159 -0.064171 0.065795
v 0.364750 -0.064450 -0.002431
v 0.366753 -0.066923 -0.068843
v 0.352328 -0.064003 -0.127894
v 0.318411 -0.086856 0.152850
v 0.336878 -0.092389 0.095824
v 0.342600 -0.092416 0.030839
v 0.350785 -0.096483 -0.034685
v 0.338939 -0.088977 -0.095922
v 0.319553 -0.085225 -0.152636
v 0.232037 -0.159075 -0.247512
v 0.197692 -0.185643 -0.223476
v 0.185030 -0.171868 -0.283821
v 0.158257 -0.210382 -0.194329
v 0.148290 -0.202718 -0.257184
v 0.137308 -0.190960 -0.322161
v 0.115131 -0.242099 -0.162158
v 0.106124 -0.234963 -0.224301
v 0.096217 -0.235837 -0.297058
v 0.075556 -0.211197 -0.361094
v 0.069004 -0.263030 -0.125801
v 0.055509 -0.261903 -0.186421
v 0.041111 -0.266224 -0.251114
v 0.024092 -0.251436 -0.328911
v -0.000889 -0.211885 -0.390964
v 0.019349 -0.289403 -0.086404
v 0.005011 -0.283802 -0.148685
v -0.011614 -0.273701 -0.204257
v -0.029268 -0.277347 -0.269399
v -0.050406 -0.254711 -0.352993
v -0.065762 -0.199519 -0.406182
v -0.180643 -0.225136 -0.378015
v -0.161146 -0.268967 -0.311992
v -0.240769 -0.239081 -0.326657
v -0.134399 -0.296674 -0.236602
v -0.212166 -0.286020 -0.257507
v -0.293381 -0.248947 -0.270444
v -0.109338 -0.294076 -0.170470
v -0.173209 -0.302964 -0.183382
v -0.264264 -0.293516 -0.200046
v -0.336696 -0.252523 -0.198842
v -0.089971 -0.298625 -0.111677
v -0.145831 -0.311122 -0.118657
v -0.227127 -0.318474 -0.122653
v -0.317148 -0.288749 -0.123696
v -0.371053 -0.249151 -0.123125
v -0.073850 -0.298755 -0.044831
v -0.127587 -0.305417 -0.042516
v -0.192682 -0.315124 -0.035950
v -0.271090 -0.302080 -0.035288
v -0.335122 -0.275132 -0.046598
v -0.382346 -0.245818 -0.057515
v -0.364767 -0.223179 0.085446
v -0.310475 -0.260797 0.083109
v -0.335508 -0.229987 0.120077
v -0.238138 -0.272165 0.077976
v -0.272287 -0.266654 0.121567
v -0.304725 -0.255908 0.166607
v -0.187615 -0.278275 0.076805
v -0.207793 -0.268581 0.116694
v -0.233890 -0.273609 0.163618
v -0.268235 -0.272907 0.226181
v -0.120030 -0.274971 0.073464
v -0.143561 -0.275779 0.116571
v -0.163637 -0.283598 0.171769
v -0.170710 -0.286461 0.233633
v -0.195595 -0.281208 0.304659
v -0.075362 -0.261585 0.069881
v -0.082850 -0.261148 0.114564
v -0.091392 -0.267597 0.174536
v -0.098588 -0.257439 0.235058
v -0.108105 -0.254385 0.274266
v -0.130113 -0.252574 0.340836
v 0.273128 -0.136615 -0.157074
v 0.280529 -0.132490 -0.095415
v 0.242349 -0.159241 -0.130245
v 0.293711 -0.145637 -0.030992
v 0.247691 -0.157765 -0.064552
v 0.210843 -0.193776 -0.100705
v 0.292501 -0.148917 0.032687
v 0.259869 -0.175847 0.002042
v 0.215616 -0.197249 -0.033223
v 0.175211 -0.231060 -0.068992
v 0.287290 -0.147905 0.097000
v 0.262491 -0.185435 0.068858
v 0.222770 -0.210661 0.035456
v 0.179072 -0.239218 -0.000012
v 0.129794 -0.264247 -0.034763
v 0.278432 -0.144470 0.157239
v 0.253247 -0.177290 0.133208
v 0.219713 -0.211157 0.103984
v 0.175929 -0.235387 0.069994
v 0.128223 -0.259567 0.035455
v 0.074812 -0.268138 0.001878
v -0.043443 -0.201679 0.374034
v -0.041104 -0.231040 0.317351
v 0.004559 -0.195115 0.363860
v -0.033095 -0.239415 0.255680
v 0.016511 -0.221146 0.303398
v 0.063101 -0.189527 0.348108
v -0.023403 -0.239172 0.206112
v 0.024741 -0.225396 0.247610
v 0.076399 -0.209179 0.286685
v 0.125015 -0.180462 0.318539
v -0.012665 -0.250683 0.151559
v 0.038290 -0.244960 0.194966
v 0.093605 -0.227486 0.233467
v 0.142705 -0.195873 0.260794
v 0.181888 -0.166930 0.282788
v 0.006197 -0.268401 0.092636
v 0.058353 -0.262492 0.132193
v 0.110845 -0.241595 0.167971
v 0.158420 -0.212563 0.201119
v 0.193968 -0.177127 0.224492
v 0.223687 -0.150549 0.244535
vn 0.1393 -0.9187 0.3697
vn 0.7363 -0.6748 0.0501
vn -0.1343 -0.9553 0.2633
vn -0.1663 -0.9813 0.0967
vn 0.1792 -0.9838 0.0006
vn 0.8593 -0.5051 0.0797
vn 0.4328 -0.6075 0.6660
vn -0.8474 -0.4800 0.2270
vn -0.1578 -0.4670 -0.8701
vn 0.7946 -0.5203 -0.3128
vn 0.8793 -0.3490 0.3242
vn 0.2309 -0.5512 0.8017
vn -0.9266 -0.3636 0.0962
vn -0.1302 -0.4400 -0.8885
vn 0.8024 -0.5113 -0.3079
vn 0.4489 0.5201 0.7266
vn -0.5387 0.8230 0.1803
vn -0.5886 0.7273 -0.3529
vn 0.1729 0.8115 -0.5582
vn 0.7257 0.6700 0.1563
vn 0.2295 0.9636 -0.1375
vn 0.3278 0.9443 0.0282
vn 0.3934 0.9193 0.0132
vn 0.2763 0.9609 0.0181
vn 0.3895 0.9092 0.1470
vn 0.3652 0.9304 -0.0317
vn 0.7442 0.6626 0.0844
vn 0.0966 0.9940 -0.0513
vn 0.0988 0.9872 -0.1251
vn 0.3649 0.9310 -0.0004
vn 0.3649 0.9310 0.0047
vn 0.0699 0.9922 -0.1031
vn 0.0729 0.9951 -0.0674
vn 0.3396 0.9393 0.0492
vn 0.3372 0.9394 -0.0617
vn 0.4109 0.9112 -0.0302
vn 0.4074 0.9072 -0.1049
vn 0.2120 0.9602 -0.1820
vn 0.2247 0.9681 -0.1109
vn 0.2170 0.9747 0.0529
vn 0.2140 0.9741 -0.0729
vn 0.2973 0.9541 -0.0352
vn 0.2951 0.9522 -0.0791
vn 0.3457 0.9365 -0.0594
vn 0.3179 0.8912 -0.3235
vn 0.4246 0.8616 -0.2781
vn 0.4447 0.8834 -0.1480
vn 0.5353 0.8418 0.0692
vn 0.5382 0.8312 -0.1394
vn 0.4175 0.8865 -0.1996
vn 0.4210 0.9030 -0.0858
vn 0.3487 0.9298 -0.1177
vn 0.3428 0.9164 -0.2064
vn 0.2305 0.9404 -0.2501
vn 0.2617 0.9651 -0.0073
vn 0.2831 0.9591 -0.0000
vn 0.1938 0.9156 -0.3523
vn 0.4914 0.8662 -0.0907
vn 0.4845 0.8396 -0.2457
vn 0.6107 0.7706 -0.1822
vn 0.6076 0.7474 -0.2686
vn 0.6590 0.7123 -0.2414
vn 0.6603 0.7196 -0.2149
vn 0.4708 0.8261 -0.3096
vn 0.4842 0.8694 -0.0979
vn 0.4061 0.9042 -0.1320
vn 0.3420 0.7831 -0.5194
vn 0.3766 0.7761 -0.5058
vn 0.3746 0.7724 -0.5129
vn 0.6700 0.7336 0.1141
vn 0.6569 0.6987 -0.2834
vn 0.6071 0.7318 -0.3096
vn 0.6025 0.7084 -0.3676
vn 0.6979 0.6394 -0.3227
vn 0.6993 0.6996 -0.1468
vn 0.6204 0.7615 -0.1874
vn 0.6196 0.7688 -0.1584
vn 0.5816 0.7940 -0.1771
vn 0.5663 0.7043 -0.4280
vn 0.3428 0.7823 -0.5201
vn 0.3333 0.7549 -0.5648
vn 0.3956 0.7443 -0.5380
vn 0.4160 0.7867 -0.4562
vn 0.1958 0.9697 -0.1463
vn 0.0847 0.9881 -0.1284
vn 0.0658 0.9954 -0.0698
vn 0.1977 0.9726 -0.1224
vn 0.2588 0.9399 -0.2229
vn 0.3797 0.8790 -0.2886
vn 0.2302 0.7896 -0.5688
vn 0.1698 0.9625 -0.2113
vn 0.2188 0.9556 -0.1971
vn 0.0939 0.9908 -0.0977
vn 0.1985 0.9776 -0.0699
vn 0.2485 0.9603 -0.1269
vn 0.2137 0.9672 -0.1372
vn 0.0842 0.9962 -0.0201
vn 0.2313 0.9727 0.0182
vn 0.2276 0.9735 0.0217
vn 0.1286 0.9916 0.0093
vn 0.2242 0.9691 -0.1030
vn -0.0054 0.9896 -0.1435
vn 0.1895 0.9699 -0.1530
vn 0.0796 0.9795 -0.1851
vn 0.1502 0.9561 -0.2516
vn 0.0276 0.9627 -0.2692
vn 0.0502 0.9555 -0.2907
vn -0.0918 0.9511 -0.2950
vn -0.0745 0.9473 -0.3116
vn -0.0908 0.9455 -0.3128
vn 0.2614 0.9426 -0.2080
vn 0.0555 0.9593 -0.2769
vn 0.0617 0.9571 -0.2832
vn -0.1310 0.9415 -0.3106
vn -0.0018 0.8940 -0.4480
vn -0.2403 0.8503 -0.4683
vn -0.1615 0.8196 -0.5497
vn -0.1811 0.8148 -0.5508
vn -0.2287 0.8260 -0.5152
vn -0.0609 0.8762 -0.4781
vn 0.3180 0.7171 -0.6202
vn 0.2404 0.7217 -0.6491
vn 0.0098 0.8807 -0.4735
vn -0.1762 0.8373 -0.5177
vn -0.1703 0.8348 -0.5235
vn -0.1463 0.8417 -0.5197
vn -0.2290 0.8745 -0.4277
vn -0.1541 0.8989 -0.4101
vn -0.1258 0.8886 -0.4411
vn -0.0332 0.9007 -0.4331
vn -0.0318 0.9002 -0.4344
vn -0.2600 0.8216 -0.5073
vn 0.2306 0.7644 -0.6022
vn 0.1490 0.7668 -0.6243
vn 0.2341 0.6889 -0.6860
vn -0.0412 0.6237 -0.7806
vn -0.2058 0.7627 -0.6131
vn -0.0854 0.8054 -0.5866
vn -0.1498 0.8364 -0.5272
vn -0.1519 0.8356 -0.5280
vn -0.1832 0.8583 -0.4793
vn -0.3008 0.8133 -0.4980
vn -0.1423 0.7589 -0.6355
vn -0.0915 0.7703 -0.6310
vn -0.2429 0.8495 -0.4683
vn -0.4661 0.7088 -0.5295
vn 0.0187 0.9987 0.0474
vn 0.0502 0.9984 -0.0251
vn 0.1418 0.9895 -0.0291
vn -0.1372 0.9896 0.0426
vn -0.2812 0.9525 -0.1166
vn -0.3790 0.9111 -0.1621
vn -0.4484 0.8548 -0.2612
vn 0.1149 0.9922 0.0486
vn 0.0803 0.9925 0.0917
vn 0.1481 0.9888 -0.0182
vn 0.1042 0.9937 0.0409
vn 0.1462 0.9849 0.0930
vn 0.0085 0.9571 0.2896
vn -0.1859 0.9809 -0.0563
vn -0.1542 0.9825 -0.1050
vn -0.0624 0.9971 0.0431
vn -0.1377 0.9771 0.1622
vn -0.0355 0.9556 0.2924
vn -0.0493 0.9452 0.3227
vn -0.1992 0.9793 0.0370
vn -0.1529 0.9878 -0.0287
vn -0.2042 0.9729 -0.1086
vn -0.3658 0.9217 0.1292
vn -0.3408 0.9266 0.1592
vn -0.4278 0.8419 0.3291
vn -0.3895 0.8376 0.3831
vn -0.2242 0.9745 -0.0069
vn -0.3544 0.9270 -0.1232
vn -0.3503 0.9279 -0.1278
vn -0.2882 0.9568 -0.0385
vn -0.3958 0.9143 0.0859
vn -0.3527 0.9266 0.1305
vn -0.4238 0.8799 0.2147
vn -0.3160 0.8934 0.3194
vn -0.2181 0.9673 0.1297
vn -0.2906 0.9568 0.0089
vn -0.3487 0.9288 0.1253
vn -0.4079 0.8977 -0.1666
vn -0.3034 0.9109 -0.2798
vn -0.2188 0.9678 -0.1245
vn -0.3387 0.9409 0.0005
vn -0.2581 0.9614 0.0957
vn -0.3509 0.9101 0.2204
vn -0.3564 0.9094 0.2145
vn -0.3840 0.8839 0.2669
vn -0.4563 0.8759 0.1571
vn -0.4118 0.9097 0.0531
vn -0.3588 0.9249 0.1261
vn -0.3844 0.9059 0.1777
vn -0.5628 0.7818 -0.2685
vn -0.4624 0.7958 -0.3910
vn -0.4321 0.8565 -0.2825
vn -0.5270 0.8318 -0.1743
vn -0.4257 0.9048 -0.0065
vn -0.5422 0.8178 0.1929
vn -0.5269 0.8226 0.2137
vn -0.5516 0.7847 0.2829
vn -0.5507 0.7848 0.2843
vn -0.4824 0.8744 0.0523
vn -0.4786 0.8760 0.0601
vn -0.5232 0.8372 0.1595
vn -0.5039 0.8433 0.1867
vn -0.5149 0.8264 0.2279
vn 0.1074 0.9823 0.1533
vn 0.0941 0.9899 0.1057
vn 0.1048 0.9202 0.3771
vn -0.0345 0.9378 0.3455
vn -0.1109 0.9699 0.2169
vn -0.3116 0.9328 0.1810
vn -0.3969 0.9039 0.1594
vn 0.1258 0.9870 0.0999
vn 0.0935 0.9934 0.0668
vn -0.0120 0.9181 0.3961
vn -0.0528 0.9312 0.3607
vn 0.0025 0.9367 0.3501
vn 0.0400 0.9233 0.3821
vn 0.1335 0.9425 0.3065
vn 0.0669 0.9697 0.2350
vn -0.0152 0.9664 0.2564
vn 0.1117 0.9178 0.3810
vn 0.0339 0.9144 0.4034
vn -0.0843 0.9546 0.2857
vn 0.0358 0.9853 0.1670
vn 0.1123 0.9579 0.2644
vn 0.0468 0.9581 0.2827
vn 0.0866 0.9411 0.3269
vn 0.1349 0.9410 0.3104
vn 0.0148 0.9839 0.1781
vn -0.0654 0.9768 0.2041
vn 0.0513 0.9458 0.3208
vn -0.0735 0.9875 0.1394
vn -0.0015 0.9678 0.2516
vn 0.1305 0.9668 0.2196
vn 0.0759 0.9854 0.1523
vn 0.1462 0.9799 0.1357
vn 0.1061 0.9901 0.0920
vn 0.0371 0.9931 0.1110
vn 0.1613 0.9626 0.2176
vn 0.0714 0.9655 0.2503
vn 0.2504 0.8860 0.3902
vn -0.2963 0.9429 0.1523
vn -0.2252 0.9343 0.2763
vn 0.0092 0.9747 0.2231
vn 0.0230 0.9704 0.2404
vn 0.0432 0.9706 0.2368
vn 0.0929 0.9541 0.2846
vn 0.0190 0.9524 0.3043
vn 0.1880 0.8757 0.4447
vn 0.0805 0.8722 0.4825
vn 0.1803 0.8104 0.5575
vn 0.2171 0.8113 0.5428
vn 0.3978 0.6526 0.6449
vn -0.4136 0.8913 0.1860
vn -0.3674 0.8909 0.2671
vn -0.2082 0.9477 0.2420
vn -0.1221 0.9204 0.3713
vn -0.0269 0.9370 0.3484
vn 0.0503 0.9046 0.4234
vn 0.0271 0.9022 0.4304
vn 0.1237 0.8368 0.5333
vn 0.1678 0.8427 0.5116
vn 0.1880 0.8275 0.5290
vn 0.1876 0.8275 0.5292
vn 0.3848 0.6065 0.6957
vn 0.3859 0.6066 0.6951
vn 0.4567 0.5190 0.7226
vn 0.2302 0.9659 0.1186
vn 0.1269 0.9902 0.0583
vn 0.1042 0.9252 0.3650
vn 0.1763 0.9630 0.2039
vn 0.1221 0.9472 0.2964
vn 0.2582 0.8853 0.3869
vn 0.4498 0.6448 0.6180
vn 0.1273 0.9908 0.0470
vn 0.3277 0.9445 -0.0227
vn 0.1428 0.9874 0.0686
vn 0.2013 0.9784 0.0469
vn 0.2097 0.9716 -0.1099
vn 0.3908 0.9011 -0.1880
vn 0.1515 0.9046 0.3985
vn 0.4038 0.8642 0.3002
vn 0.4172 0.8884 0.1913
vn 0.4946 0.8557 0.1521
vn 0.5037 0.8567 -0.1111
vn 0.2763 0.9610 0.0070
vn 0.1459 0.9734 0.1769
vn 0.3222 0.9405 0.1081
vn 0.3100 0.9228 0.2290
vn 0.5806 0.8081 0.0992
vn 0.5742 0.7925 0.2054
vn 0.4565 0.8482 0.2687
vn 0.4660 0.8767 0.1191
vn 0.3891 0.9072 0.1601
vn 0.2508 0.8746 0.4149
vn 0.5569 0.7874 0.2644
vn 0.5527 0.7794 0.2952
vn 0.6707 0.7082 0.2205
vn 0.6740 0.7188 0.1702
vn 0.5248 0.8125 0.2537
vn 0.5203 0.7976 0.3051
vn 0.5013 0.8062 0.3143
vn 0.5081 0.8312 0.2258
vn 0.3565 0.8852 0.2989
vn 0.4644 0.6739 0.5746
vn 0.7171 0.5640 0.4095
vn 0.7167 0.5629 0.4117
vn 0.7686 0.5233 0.3681
vn 0.7777 0.5510 0.3027
vn 0.5155 0.7254 0.4560
vn 0.5339 0.8049 0.2591
vn 0.5280 0.8079 0.2617
vn 0.5237 0.7870 0.3261
vn 0.5098 0.7936 0.3321
vn 0.5047 0.7801 0.3697
vn 0.7278 0.6391 0.2487
vn 0.4803 0.5987 0.6410
vn 0.5237 0.5823 0.6218
vn 0.5419 0.7989 0.2612
vn 0.6417 0.7359 0.2160
vn 0.6445 0.7148 0.2715
vn 0.4491 0.8216 0.3512
vn 0.4474 0.7927 0.4141
vn 0.5289 0.7550 0.3877
vn 0.5317 0.8048 0.2638
vn 0.4558 0.8416 0.2899
vn 0.4552 0.8356 0.3075
vn 0.7223 0.6674 0.1813
vn 0.7152 0.6550 0.2439
vn 0.7109 0.6586 0.2466
vn 0.8996 0.4303 0.0739
vn 0.8552 0.5180 0.0184
vn 0.8943 0.2859 -0.3441
vn 0.9038 0.0166 -0.4276
vn 0.9143 -0.0031 -0.4049
vn 0.9069 -0.0427 -0.4191
vn 0.8210 -0.4545 -0.3456
vn 0.9187 0.3948 -0.0119
vn 0.6985 0.6493 -0.3008
vn 0.8800 0.3341 -0.3377
vn 0.7689 0.4521 -0.4521
vn 0.7004 0.5753 -0.4225
vn 0.7050 0.5718 -0.4195
vn 0.8794 0.2267 -0.4186
vn 0.8223 0.3089 -0.4779
vn 0.7687 0.4501 -0.4545
vn 0.8819 0.3071 -0.3578
vn 0.6910 0.6773 -0.2525
vn 0.7814 0.5916 -0.1983
vn 0.9140 0.0407 -0.4037
vn 0.9303 -0.0079 -0.3668
vn 0.8328 0.4569 -0.3126
vn 0.9326 0.2951 -0.2078
vn 0.8829 0.4362 -0.1741
vn 0.8039 0.5423 -0.2444
vn 0.7832 0.5777 -0.2300
vn 0.7456 0.6161 -0.2537
vn 0.9078 -0.0177 -0.4190
vn 0.9346 -0.1014 -0.3410
vn 0.9396 0.0194 -0.3418
vn 0.9133 0.0842 -0.3986
vn 0.9077 0.1466 -0.3932
vn 0.8180 0.2800 -0.5025
vn 0.7810 0.4071 -0.4736
vn 0.8088 0.3767 -0.4516
vn 0.7343 0.5580 -0.3865
vn 0.5939 0.6652 -0.4526
vn 0.9121 -0.0300 -0.4088
vn 0.9160 -0.0401 -0.3991
vn 0.9059 -0.1597 -0.3923
vn 0.8563 -0.0417 -0.5148
vn 0.8564 -0.0380 -0.5149
vn 0.8103 0.0378 -0.5848
vn 0.7903 0.2160 -0.5734
vn 0.7734 0.2351 -0.5887
vn 0.7638 0.2818 -0.5808
vn 0.5382 0.4612 -0.7054
vn 0.5113 0.5224 -0.6824
vn 0.4630 0.5480 -0.6967
vn 0.8374 -0.4334 -0.3331
vn 0.8229 -0.3408 -0.4547
vn 0.8627 -0.1473 -0.4838
vn 0.8477 -0.1148 -0.5179
vn 0.8516 -0.0503 -0.5217
vn 0.8459 -0.0403 -0.5318
vn 0.8420 0.0992 -0.5303
vn 0.7893 0.1669 -0.5909
vn 0.7780 0.2440 -0.5789
vn 0.5674 0.4251 -0.7052
vn 0.5495 0.4782 -0.6851
vn 0.6074 0.4396 -0.6617
vn 0.5290 0.6202 -0.5792
vn 0.5200 0.6250 -0.5822
vn 0.1650 0.6636 -0.7297
vn 0.1503 0.7069 -0.6911
vn 0.0611 0.5090 -0.8586
vn -0.0579 0.3105 -0.9488
vn -0.1299 0.0378 -0.9908
vn -0.0963 -0.0121 -0.9953
vn -0.2549 -0.2694 -0.9287
vn 0.1444 0.6547 -0.7420
vn 0.1481 0.6521 -0.7435
vn 0.0684 0.6710 -0.7383
vn 0.1004 0.6481 -0.7549
vn 0.0999 0.6323 -0.7683
vn -0.0201 0.7313 -0.6818
vn -0.0430 0.4542 -0.8899
vn -0.1048 0.5016 -0.8587
vn -0.1012 0.5446 -0.8325
vn -0.1518 0.5843 -0.7973
vn -0.1334 0.6723 -0.7281
vn -0.1648 0.6884 -0.7064
vn -0.1231 0.2705 -0.9548
vn -0.1213 0.2692 -0.9554
vn -0.1045 0.5018 -0.8586
vn -0.0672 0.4772 -0.8762
vn -0.0490 0.6273 -0.7772
vn 0.0200 0.5828 -0.8124
vn 0.1043 0.7615 -0.6398
vn -0.1060 0.8933 -0.4368
vn -0.0946 0.0620 -0.9936
vn -0.2090 0.1737 -0.9624
vn -0.2111 0.2157 -0.9534
vn -0.1652 0.1776 -0.9702
vn -0.1845 0.4262 -0.8856
vn -0.2018 0.4412 -0.8744
vn -0.1954 0.4813 -0.8545
vn -0.4219 0.6561 -0.6257
vn -0.3160 0.8197 -0.4778
vn -0.3018 0.8109 -0.5014
vn -0.2399 -0.1260 -0.9626
vn -0.3892 0.0271 -0.9207
vn -0.3930 -0.0232 -0.9193
vn -0.4324 0.0408 -0.9008
vn -0.4222 -0.0211 -0.9063
vn -0.4309 -0.0139 -0.9023
vn -0.4500 0.2789 -0.8484
vn -0.4819 0.2955 -0.8249
vn -0.3221 0.6961 -0.6416
vn -0.2403 0.6631 -0.7089
vn -0.1934 0.8313 -0.5211
vn -0.0961 0.7582 -0.6449
vn -0.1197 -0.1761 -0.9771
vn -0.3433 -0.0548 -0.9376
vn -0.3087 0.1118 -0.9446
vn -0.4452 0.3254 -0.8342
vn -0.4715 -0.0796 -0.8783
vn -0.4135 -0.2081 -0.8864
vn -0.4367 -0.0184 -0.8994
vn -0.4489 -0.0118 -0.8935
vn -0.4116 0.3243 -0.8517
vn -0.4678 0.3541 -0.8098
vn -0.4304 0.6184 -0.6575
vn -0.4147 0.6042 -0.6804
vn -0.4069 0.6509 -0.6409
vn -0.4608 0.7207 -0.5180
vn -0.6347 0.6861 -0.3556
vn -0.7141 0.5600 -0.4201
vn -0.7451 0.4386 -0.5025
vn -0.9332 0.1820 -0.3099
vn -0.9984 0.0150 -0.0548
vn -0.9805 -0.1702 0.0978
vn -0.9640 -0.2023 0.1723
vn -0.5727 0.7067 -0.4154
vn -0.5746 0.7136 -0.4009
vn -0.6654 0.5820 -0.4675
vn -0.6614 0.6562 -0.3632
vn -0.6289 0.6915 -0.3553
vn -0.5721 0.7999 -0.1811
vn -0.9066 0.3040 -0.2928
vn -0.8952 0.4199 -0.1490
vn -0.8568 0.4964 -0.1396
vn -0.7731 0.6309 0.0655
vn -0.7701 0.6345 0.0659
vn -0.7023 0.6901 0.1748
vn -0.9982 -0.0223 -0.0556
vn -0.9837 0.1412 0.1113
vn -0.9694 0.2182 0.1128
vn -0.9213 0.3066 0.2390
vn -0.8377 0.4951 0.2306
vn -0.7624 0.5542 0.3341
vn -0.7593 0.5584 0.3341
vn -0.7928 0.5371 0.2880
vn -0.9880 -0.1194 0.0979
vn -0.9760 0.0036 0.2177
vn -0.9752 0.0534 0.2148
vn -0.9757 0.0519 0.2129
vn -0.9199 0.3463 0.1841
vn -0.8940 0.3752 0.2448
vn -0.7251 0.6611 0.1928
vn -0.7760 0.6200 0.1158
vn -0.7566 0.6438 0.1141
vn -0.7474 0.6511 0.1319
vn -0.9575 -0.2291 0.1750
vn -0.9579 -0.2008 0.2050
vn -0.9829 0.0316 0.1815
vn -0.9922 -0.0127 0.1244
vn -0.9856 0.1242 0.1145
vn -0.9732 0.1579 0.1669
vn -0.8872 0.4425 0.1305
vn -0.8760 0.4567 0.1551
vn -0.7893 0.5912 0.1658
vn -0.8408 0.5351 0.0825
vn -0.7360 0.6729 0.0743
vn -0.6665 0.7248 0.1745
vn -0.9803 -0.1567 0.1201
vn -0.9799 -0.1685 0.1072
vn -0.9866 -0.1222 0.1081
vn -0.9866 -0.1369 0.0887
vn -0.9969 0.0327 0.0715
vn -0.9822 0.1023 0.1578
vn -0.9739 0.1741 0.1458
vn -0.9326 0.2542 0.2561
vn -0.8829 0.3985 0.2483
vn -0.9104 0.3637 0.1971
vn -0.8583 0.4757 0.1924
vn -0.7875 0.5380 0.3007
vn -0.6773 0.6809 0.2786
vn -0.6920 0.6738 0.2592
vn -0.5556 0.8060 0.2042
vn -0.5683 0.7566 0.3233
vn -0.6341 0.6710 0.3843
vn -0.6089 0.3300 0.7213
vn -0.4148 -0.1474 0.8979
vn -0.2027 -0.2798 0.9384
vn -0.0183 -0.3594 0.9330
vn -0.5417 0.7937 0.2767
vn -0.3898 0.8697 0.3028
vn -0.5737 0.7646 0.2939
vn -0.3220 0.8883 0.3276
vn -0.3629 0.8443 0.3943
vn -0.1154 0.9265 0.3581
vn -0.5364 0.5742 0.6185
vn -0.2834 0.7014 0.6540
vn -0.2267 0.8056 0.5474
vn -0.0105 0.8635 0.5042
vn -0.0206 0.8494 0.5273
vn 0.0129 0.8556 0.5175
vn -0.4056 0.1855 0.8950
vn -0.1987 0.2972 0.9339
vn -0.1534 0.6086 0.7785
vn -0.0064 0.6526 0.7577
vn 0.0623 0.8142 0.5773
vn -0.0426 0.7944 0.6059
vn -0.0065 0.8681 0.4963
vn 0.1547 0.8941 0.4203
vn -0.2047 -0.2521 0.9458
vn -0.1203 -0.1958 0.9732
vn -0.1466 0.2675 0.9523
vn 0.0059 0.3235 0.9462
vn 0.0307 0.6287 0.7771
vn 0.0265 0.6272 0.7784
vn 0.0477 0.7324 0.6792
vn 0.2664 0.7850 0.5593
vn 0.2700 0.8019 0.5330
vn 0.1681 0.7784 0.6048
vn -0.0185 -0.3943 0.9188
vn -0.0247 -0.4010 0.9157
vn -0.0263 -0.2329 0.9721
vn -0.0172 -0.2276 0.9736
vn -0.0048 0.3295 0.9441
vn 0.0942 0.3752 0.9221
vn 0.1133 0.5546 0.8244
vn 0.3034 0.6328 0.7124
vn 0.3017 0.7567 0.5800
vn 0.2659 0.7461 0.6105
vn 0.2580 0.7070 0.6585
vn 0.4221 0.7650 0.4864
vn 0.2285 -0.4788 0.8477
vn 0.1904 -0.5279 0.8277
vn 0.1908 -0.4995 0.8450
vn 0.2236 -0.4649 0.8567
vn 0.2206 -0.3313 0.9174
vn 0.3495 -0.2345 0.9071
vn 0.3801 0.1603 0.9110
vn 0.4302 0.1902 0.8825
vn 0.4350 0.5221 0.7336
vn 0.4686 0.5365 0.7018
vn 0.4689 0.5445 0.6954
vn 0.5847 0.6040 0.5416
vn 0.5851 0.5870 0.5595
vn 0.4597 0.5321 0.7110
vn 0.4990 0.4225 0.7566
vn 0.4479 0.3445 0.8250
vn 0.5559 0.5204 0.6482
vn 0.4747 0.4722 0.7428
vn 0.5706 0.2014 0.7962
vn 0.7867 -0.0512 0.6153
vn 0.8284 -0.3366 0.4476
vn 0.3986 0.4754 0.7843
vn 0.5012 0.6172 0.6065
vn 0.6557 0.1651 0.7368
vn 0.7421 0.3342 0.5810
vn 0.6774 0.4952 0.5440
vn 0.7324 0.6179 0.2861
vn 0.4128 0.6279 0.6598
vn 0.4254 0.6626 0.6164
vn 0.4902 0.5535 0.6733
vn 0.5516 0.7735 0.3121
vn 0.5908 0.7316 0.3402
vn 0.5809 0.6803 0.4470
vn 0.5314 0.4298 0.7300
vn 0.6235 0.6410 0.4476
vn 0.7285 0.4139 0.5458
vn 0.7462 0.6196 0.2437
vn 0.7425 0.6249 0.2412
vn 0.7259 0.4393 0.5292
vn 0.5961 0.6706 0.4416
vn 0.5965 0.6782 0.4293
vn 0.7862 -0.0629 0.6148
vn 0.9055 0.1972 0.3758
vn 0.8264 0.4561 0.3303
vn 0.8248 0.4330 0.3636
vn 0.6880 0.6722 0.2735
vn 0.6861 0.5106 0.5183
vn 0.7137 0.4509 0.5359
vn 0.7258 0.5361 0.4310
vn 0.6652 0.6319 0.3977
vn 0.6653 0.6292 0.4018
vn 0.8598 -0.1962 0.4715
vn 0.8757 -0.1707 0.4516
vn 0.8564 0.2721 0.4388
vn 0.8550 0.2671 0.4446
vn 0.7823 0.4818 0.3947
vn 0.7769 0.4336 0.4566
vn 0.7856 0.4121 0.4616
vn 0.7809 0.3854 0.4915
vn 0.6950 0.5619 0.4486
vn 0.6946 0.5974 0.4008
vn 0.6799 0.6189 0.3933
vn 0.6460 0.7487 0.1491
vn 0.8431 -0.4484 0.2970
vn 0.8412 -0.4507 0.2985
vn 0.9007 -0.2778 0.3339
vn 0.9393 -0.2042 0.2755
vn 0.9557 0.0675 0.2865
vn 0.9462 0.0306 0.3222
vn 0.9210 0.2302 0.3142
vn 0.8953 0.1227 0.4282
vn 0.8632 0.2810 0.4194
vn 0.8669 0.2997 0.3983
vn 0.7587 0.5452 0.3566
vn 0.7417 0.6360 0.2130
vn 0.6215 0.7649 0.1697
vn 0.6325 0.7419 0.2224
vn 0.3851 0.5015 -0.7747
vn 0.5629 0.3873 -0.7301
vn 0.7791 0.1484 -0.6090
vn 0.8555 -0.0221 -0.5173
vn 0.7873 -0.2081 -0.5804
vn 0.7404 -0.4387 -0.5092
vn 0.3771 0.5555 -0.7411
vn 0.3661 0.5447 -0.7545
vn 0.5545 0.4370 -0.7082
vn 0.5019 0.3807 -0.7766
vn 0.3715 0.4933 -0.7866
vn 0.2296 0.3843 -0.8942
vn 0.5807 0.3556 -0.7324
vn 0.5114 0.2767 -0.8136
vn 0.5194 0.2693 -0.8110
vn 0.3800 0.1395 -0.9144
vn 0.2356 0.2741 -0.9324
vn 0.1009 0.1545 -0.9828
vn 0.7844 0.0671 -0.6166
vn 0.7067 -0.0438 -0.7061
vn 0.5250 0.1304 -0.8410
vn 0.4454 0.0536 -0.8937
vn 0.3810 0.1128 -0.9177
vn 0.3019 0.0394 -0.9525
vn 0.1021 0.2477 -0.9634
vn -0.1485 0.0545 -0.9874
vn 0.8371 -0.2730 -0.4741
vn 0.7750 -0.3583 -0.5205
vn 0.6887 -0.2640 -0.6753
vn 0.6509 -0.3057 -0.6948
vn 0.4324 -0.1239 -0.8931
vn 0.4251 -0.1298 -0.8958
vn 0.3019 -0.0308 -0.9528
vn -0.0099 -0.2593 -0.9658
vn -0.1606 -0.1112 -0.9807
vn -0.0425 -0.0509 -0.9978
vn 0.7425 -0.4412 -0.5040
vn 0.7845 -0.3917 -0.4807
vn 0.7711 -0.3775 -0.5127
vn 0.6809 -0.4801 -0.5530
vn 0.6259 -0.4375 -0.6456
vn 0.5318 -0.5211 -0.6676
vn 0.3896 -0.4336 -0.8126
vn 0.2417 -0.5342 -0.8101
vn -0.0183 -0.3218 -0.9466
vn -0.0797 -0.3527 -0.9323
vn -0.0794 -0.3529 -0.9323
vn -0.1059 -0.3625 -0.9259
vn 0.7349 -0.4578 -0.5004
vn 0.6892 -0.5034 -0.5211
vn 0.7388 -0.5490 -0.3909
vn 0.6222 -0.6583 -0.4237
vn 0.6222 -0.6584 -0.4236
vn 0.5848 -0.6894 -0.4275
vn 0.4957 -0.6490 -0.5771
vn 0.4227 -0.7024 -0.5727
vn 0.2329 -0.5804 -0.7803
vn -0.0394 -0.7314 -0.6808
vn -0.1332 -0.6666 -0.7334
vn 0.0124 -0.6092 -0.7929
vn -0.1444 -0.5230 -0.8400
vn -0.0507 -0.4767 -0.8776
vn -0.6177 0.6330 -0.4667
vn -0.6790 0.4453 -0.5837
vn -0.6478 0.2420 -0.7223
vn -0.5270 -0.0768 -0.8464
vn -0.4237 -0.2670 -0.8656
vn -0.5585 0.1879 -0.8079
vn -0.4436 -0.1348 -0.8860
vn -0.6994 0.4826 -0.5272
vn -0.6826 0.4935 -0.5390
vn -0.7141 0.3170 -0.6242
vn -0.6408 0.3668 -0.6744
vn -0.7059 0.4519 -0.5454
vn -0.7413 0.4285 -0.5166
vn -0.6756 0.0526 -0.7353
vn -0.6600 0.0677 -0.7482
vn -0.7236 0.1215 -0.6795
vn -0.7299 0.1158 -0.6737
vn -0.7941 0.2103 -0.5702
vn -0.9053 0.0760 -0.4180
vn -0.5262 -0.1168 -0.8423
vn -0.5584 -0.1888 -0.8078
vn -0.6781 -0.0468 -0.7335
vn -0.6318 0.0159 -0.7750
vn -0.7244 0.1653 -0.6692
vn -0.8471 -0.0339 -0.5303
vn -0.9039 0.1164 -0.4116
vn -0.9766 -0.1303 -0.1711
vn -0.5158 0.1306 -0.8467
vn -0.6200 -0.0167 -0.7844
vn -0.5692 -0.0720 -0.8190
vn -0.5556 -0.0551 -0.8297
vn -0.6319 0.0121 -0.7749
vn -0.7502 -0.1339 -0.6475
vn -0.8499 -0.0015 -0.5269
vn -0.9372 -0.1915 -0.2914
vn -0.9855 -0.0430 -0.1642
vn -0.9778 -0.1948 0.0767
vn -0.5341 -0.0871 -0.8409
vn -0.6308 -0.1645 -0.7583
vn -0.5683 -0.2049 -0.7969
vn -0.5699 -0.2060 -0.7955
vn -0.5036 -0.2403 -0.8298
vn -0.6246 -0.3648 -0.6905
vn -0.6975 -0.3164 -0.6429
vn -0.7875 -0.4657 -0.4037
vn -0.8906 -0.3553 -0.2838
vn -0.8926 -0.4447 -0.0735
vn -0.9551 -0.2846 0.0823
vn -0.9488 -0.2975 0.1066
vn -0.4048 -0.3779 -0.8327
vn -0.4312 -0.4101 -0.8037
vn -0.6047 -0.3213 -0.7288
vn -0.6098 -0.3257 -0.7226
vn -0.4803 -0.3809 -0.7901
vn -0.6094 -0.4766 -0.6336
vn -0.5168 -0.5244 -0.6767
vn -0.6159 -0.6783 -0.4007
vn -0.6685 -0.6459 -0.3686
vn -0.6622 -0.7362 -0.1395
vn -0.7905 -0.6125 0.0006
vn -0.8184 -0.5381 -0.2019
vn -0.9546 -0.2807 0.1000
vn -0.9397 -0.3037 0.1571
vn -0.7016 0.7055 0.1003
vn -0.7869 0.5699 0.2366
vn -0.9072 0.3939 0.1476
vn -0.9338 0.2712 0.2334
vn -0.9835 0.1315 0.1244
vn -0.9893 -0.1258 0.0733
vn -0.8828 -0.3408 0.3234
vn -0.8118 0.5465 0.2057
vn -0.8123 0.5618 0.1564
vn -0.8271 0.4959 0.2644
vn -0.8284 0.5025 0.2475
vn -0.8575 0.4716 0.2056
vn -0.8573 0.4546 0.2416
vn -0.9592 0.2237 0.1729
vn -0.9523 0.1752 0.2499
vn -0.9151 0.2230 0.3359
vn -0.9421 0.2973 0.1551
vn -0.8827 0.3925 0.2583
vn -0.7843 0.1607 0.5992
vn -0.9482 0.2123 0.2363
vn -0.9377 0.1337 0.3207
vn -0.9647 0.0724 0.2530
vn -0.9715 0.0984 0.2156
vn -0.9850 0.0647 0.1601
vn -0.8927 -0.1425 0.4275
vn -0.8026 0.0175 0.5963
vn -0.5046 -0.2363 0.8304
vn -0.9833 -0.0981 0.1531
vn -0.9940 -0.0535 0.0950
vn -0.9439 0.0548 0.3257
vn -0.9441 0.0552 0.3250
vn -0.9838 -0.0051 0.1792
vn -0.8766 -0.1836 0.4448
vn -0.8887 -0.2113 0.4070
vn -0.6116 -0.4783 0.6302
vn -0.4968 -0.2976 0.8152
vn -0.3007 -0.4139 0.8592
vn -0.8820 -0.4712 0.0093
vn -0.8913 -0.4528 -0.0212
vn -0.8987 -0.4292 0.0902
vn -0.8677 -0.4748 0.1473
vn -0.8499 -0.4497 0.2747
vn -0.8810 -0.4185 0.2207
vn -0.8581 -0.3696 0.3565
vn -0.6013 -0.5803 0.5493
vn -0.5867 -0.5472 0.5970
vn -0.4565 -0.6290 0.6293
vn -0.3102 -0.3898 0.8671
vn -0.1051 -0.4665 0.8783
vn -0.8502 -0.4478 0.2769
vn -0.7693 -0.5021 0.3950
vn -0.7582 -0.6407 -0.1206
vn -0.7190 -0.6935 -0.0452
vn -0.7347 -0.6724 0.0898
vn -0.7093 -0.6952 0.1162
vn -0.7085 -0.6942 0.1269
vn -0.6276 -0.7550 0.1901
vn -0.5659 -0.6413 0.5182
vn -0.4826 -0.6807 0.5511
vn -0.4533 -0.6350 0.6256
vn -0.0482 -0.7297 0.6821
vn -0.0077 -0.6821 0.7313
vn 0.1316 -0.6802 0.7211
vn 0.5310 0.4601 0.7116
vn 0.5645 0.6244 0.5399
vn 0.5850 0.4230 0.6920
vn 0.5460 0.1013 0.8317
vn 0.4765 -0.3132 0.8215
vn 0.3478 -0.5357 0.7694
vn 0.3388 -0.5876 0.7349
vn 0.5184 0.5710 0.6366
vn 0.5470 0.5385 0.6409
vn 0.6187 0.4487 0.6449
vn 0.5019 0.5471 0.6699
vn 0.5367 0.5834 0.6095
vn 0.5688 0.5543 0.6076
vn 0.6223 0.1538 0.7675
vn 0.5384 0.2264 0.8117
vn 0.5736 0.2547 0.7786
vn 0.6127 0.2163 0.7601
vn 0.6512 0.2647 0.7113
vn 0.4441 0.4345 0.7836
vn 0.5605 -0.2490 0.7898
vn 0.4484 -0.1595 0.8795
vn 0.5933 -0.0416 0.8039
vn 0.5086 0.0288 0.8605
vn 0.6246 0.1415 0.7680
vn 0.5745 0.1856 0.7972
vn 0.4894 0.1062 0.8655
vn 0.4908 0.1051 0.8649
vn 0.4835 -0.4203 0.7679
vn 0.3650 -0.3412 0.8662
vn 0.4630 -0.2665 0.8454
vn 0.5234 -0.3188 0.7902
vn 0.5328 -0.3104 0.7872
vn 0.4921 -0.2738 0.8264
vn 0.5909 -0.1857 0.7851
vn 0.5242 -0.1281 0.8419
vn 0.4734 -0.1738 0.8635
vn 0.5900 -0.2967 0.7509
vn 0.3496 -0.5784 0.7371
vn 0.3628 -0.5864 0.7242
vn 0.3977 -0.5597 0.7270
vn 0.3464 -0.5259 0.7768
vn 0.5247 -0.3755 0.7640
vn 0.4276 -0.2848 0.8579
vn 0.4944 -0.2218 0.8405
vn 0.5722 -0.3015 0.7627
vn 0.4815 -0.3814 0.7891
vn 0.5308 -0.4286 0.7311
vn 0.5696 -0.3951 0.7207
vn 0.6715 -0.5095 0.5381
vn 0.3368 -0.6853 0.6458
vn 0.1960 -0.6391 0.7438
vn 0.3563 -0.5344 0.7665
vn 0.3588 -0.5360 0.7642
vn 0.3473 -0.5438 0.7640
vn 0.3126 -0.5190 0.7956
vn 0.4246 -0.4477 0.7869
vn 0.4501 -0.4657 0.7620
vn 0.5555 -0.3862 0.7364
vn 0.6313 -0.4400 0.6386
vn 0.4846 -0.5555 0.6757
vn 0.5835 -0.6367 0.5042
vn 0.6379 -0.5945 0.4896
vn 0.6492 -0.6062 0.4594
vn 0.8414 0.5392 -0.0355
vn 0.8900 0.4550 0.0310
vn 0.9529 0.1445 0.2665
vn 0.9303 0.0423 0.3644
vn 0.9385 0.0542 0.3411
vn 0.9286 -0.1274 0.3486
vn 0.8317 -0.5152 0.2070
vn 0.8551 0.5171 -0.0369
vn 0.8398 0.5428 -0.0076
vn 0.9276 0.3722 0.0334
vn 0.9470 0.3207 -0.0158
vn 0.9459 0.3240 -0.0188
vn 0.9666 0.1504 -0.2078
vn 0.9537 0.1392 0.2665
vn 0.9928 -0.0141 0.1190
vn 0.9927 0.1201 -0.0139
vn 0.9950 0.0898 -0.0435
vn 0.9462 0.2508 -0.2043
vn 0.8943 0.0377 -0.4460
vn 0.9307 0.0323 0.3644
vn 0.9674 -0.1370 0.2129
vn 0.9918 -0.0477 0.1184
vn 0.9815 -0.1898 -0.0247
vn 0.9836 -0.1759 -0.0388
vn 0.9645 -0.2399 -0.1107
vn 0.8915 0.0836 -0.4453
vn 0.8834 0.0676 -0.4638
vn 0.9301 -0.1246 0.3455
vn 0.9387 -0.2796 0.2014
vn 0.9364 -0.2839 0.2061
vn 0.9009 -0.4312 0.0492
vn 0.9312 -0.3636 -0.0248
vn 0.9519 -0.3039 0.0400
vn 0.9795 -0.1647 -0.1163
vn 0.9312 -0.2735 -0.2410
vn 0.8838 -0.0084 -0.4678
vn 0.8908 0.0043 -0.4544
vn 0.7376 -0.5996 0.3105
vn 0.7348 -0.6098 0.2971
vn 0.8333 -0.5214 0.1839
vn 0.7917 -0.6068 0.0700
vn 0.8084 -0.5869 0.0450
vn 0.8496 -0.5091 0.1377
vn 0.8991 -0.4356 0.0433
vn 0.7287 -0.6484 -0.2204
vn 0.7246 -0.6566 -0.2095
vn 0.6591 -0.7012 -0.2717
vn 0.6924 -0.5970 -0.4052
vn 0.8159 -0.4995 -0.2912
vn 0.7743 -0.6025 0.1936
vn 0.7912 -0.5419 0.2837
vn 0.7729 -0.5568 0.3043
vn 0.7102 -0.6979 0.0927
vn 0.7318 -0.6785 0.0647
vn 0.7626 -0.6337 0.1299
vn 0.7595 -0.6365 0.1344
vn 0.5695 -0.8076 -0.1532
vn 0.5963 -0.7747 -0.2103
vn 0.6406 -0.7500 -0.1649
vn 0.6801 -0.6786 -0.2774
vn 0.7909 -0.5918 -0.1558
vn 0.8144 -0.5022 -0.2908
vn 0.8023 -0.5128 -0.3055
vn 0.8065 -0.4887 -0.3327
vn 0.6237 -0.7613 -0.1775
vn 0.4890 -0.8643 -0.1181
vn 0.5404 -0.7953 -0.2746
vn 0.3743 -0.9188 -0.1253
vn 0.3653 -0.9051 -0.2177
vn 0.2282 -0.9696 0.0882
vn 0.7281 -0.5910 -0.3474
vn 0.6596 -0.5905 -0.4651
vn 0.5227 -0.8343 -0.1753
vn 0.4520 -0.8444 -0.2876
vn 0.5512 -0.6888 -0.4709
vn 0.6039 -0.6975 -0.3858
vn 0.4647 -0.8778 -0.1164
vn 0.4266 -0.8872 -0.1758
vn 0.4833 -0.8260 -0.2900
vn 0.5186 -0.8217 -0.2363
vn 0.5928 -0.7069 -0.3859
vn 0.5780 -0.7045 -0.4118
vn 0.4317 -0.8607 -0.2699
vn 0.4985 -0.8501 -0.1699
vn 0.5033 -0.8446 -0.1828
vn 0.5720 -0.8174 -0.0681
vn 0.6452 -0.7252 -0.2403
vn 0.5205 -0.7271 -0.4477
vn 0.5058 -0.7607 -0.4068
vn 0.4164 -0.7214 -0.5534
vn 0.3303 -0.9362 -0.1199
vn 0.3484 -0.9325 -0.0949
vn 0.3688 -0.9159 -0.1586
vn 0.4462 -0.8940 -0.0396
vn 0.4496 -0.8918 -0.0505
vn 0.3060 -0.9208 -0.2420
vn 0.3697 -0.8209 -0.4352
vn 0.2368 -0.7733 -0.5882
vn 0.2040 -0.8400 -0.5028
vn -0.0141 -0.6457 -0.7635
vn 0.3205 -0.9228 -0.2138
vn 0.3574 -0.9193 -0.1650
vn 0.3372 -0.9369 -0.0925
vn 0.2296 -0.9432 -0.2401
vn 0.1656 -0.9858 0.0290
vn 0.1525 -0.9882 0.0140
vn 0.2092 -0.9513 -0.2266
vn 0.1356 -0.9471 -0.2908
vn 0.2238 -0.7786 -0.5863
vn 0.0390 -0.6878 -0.7249
vn 0.0691 -0.6095 -0.7898
vn 0.0265 -0.5697 -0.8214
vn 0.1422 -0.9838 0.1094
vn -0.0211 -0.9972 -0.0722
vn -0.0171 -0.9962 -0.0857
vn 0.0643 -0.9979 -0.0014
vn 0.1128 -0.9711 -0.2103
vn 0.2196 -0.9710 -0.0943
vn 0.2003 -0.9797 0.0005
vn 0.0644 -0.9923 -0.1057
vn 0.1187 -0.9504 -0.2874
vn -0.0979 -0.9023 -0.4199
vn -0.0218 -0.6969 -0.7168
vn 0.0207 -0.7193 -0.6944
vn 0.0523 -0.5627 -0.8250
vn -0.0495 -0.4714 -0.8805
vn -0.1529 -0.4795 -0.8641
vn -0.0331 -0.7230 -0.6900
vn 0.0087 -0.8962 -0.4435
vn 0.2121 -0.9648 -0.1552
vn 0.1276 -0.9892 -0.0721
vn 0.2412 -0.9694 -0.0462
vn 0.1498 -0.9820 -0.1148
vn -0.1880 -0.5563 -0.8094
vn -0.3838 -0.5374 -0.7509
vn -0.1055 -0.8426 -0.5282
vn -0.2251 -0.8411 -0.4919
vn -0.4291 -0.6085 -0.6675
vn -0.4821 -0.5989 -0.6395
vn -0.0358 -0.9421 -0.3335
vn -0.0398 -0.9424 -0.3322
vn -0.2295 -0.8468 -0.4799
vn -0.3136 -0.8409 -0.4411
vn -0.5106 -0.6273 -0.5880
vn -0.4723 -0.6391 -0.6070
vn 0.1773 -0.9837 -0.0285
vn 0.1407 -0.9900 -0.0144
vn -0.0862 -0.9801 -0.1787
vn -0.0671 -0.9797 -0.1887
vn -0.3251 -0.8540 -0.4062
vn -0.4698 -0.8207 -0.3252
vn -0.5523 -0.7463 -0.3714
vn -0.5341 -0.7556 -0.3792
vn 0.1334 -0.9838 -0.1201
vn 0.2338 -0.9604 -0.1513
vn 0.1738 -0.9653 -0.1952
vn 0.0969 -0.9816 -0.1647
vn -0.0469 -0.9570 -0.2861
vn -0.3082 -0.9387 -0.1548
vn -0.4766 -0.8340 -0.2781
vn -0.5781 -0.7837 -0.2274
vn -0.5401 -0.8153 -0.2087
vn -0.6842 -0.7134 -0.1513
vn 0.2431 -0.9681 -0.0605
vn 0.1216 -0.9921 -0.0313
vn 0.2157 -0.9762 0.0215
vn 0.1511 -0.9878 0.0378
vn 0.0899 -0.9959 0.0028
vn -0.1624 -0.9814 0.1024
vn -0.3137 -0.9493 0.0203
vn -0.3973 -0.9151 0.0690
vn -0.5920 -0.8059 0.0043
vn -0.5191 -0.8534 -0.0460
vn -0.6843 -0.7246 -0.0810
vn -0.6839 -0.7250 -0.0814
vn 0.1494 -0.9515 0.2690
vn 0.2324 -0.9402 0.2492
vn 0.1291 -0.9700 0.2062
vn 0.0508 -0.9712 0.2327
vn 0.1694 -0.9434 0.2850
vn -0.0156 -0.9291 0.3694
vn -0.1532 -0.9369 0.3142
vn -0.0849 -0.9593 0.2693
vn -0.4098 -0.8902 0.1990
vn -0.3175 -0.9400 0.1247
vn -0.5385 -0.8392 0.0758
vn -0.5593 -0.8242 0.0894
vn -0.6794 -0.7332 0.0280
vn -0.8623 -0.4534 0.2255
vn -0.8596 -0.4499 0.2423
vn -0.5282 -0.7878 0.3167
vn -0.3213 -0.9240 0.2073
vn -0.0864 -0.9535 0.2887
vn -0.0301 -0.9740 0.2244
vn 0.0531 -0.9601 0.2745
vn 0.2402 -0.8992 0.3657
vn -0.6524 -0.6455 0.3971
vn -0.6749 -0.7048 0.2186
vn -0.5314 -0.7865 0.3149
vn -0.5352 -0.7909 0.2967
vn -0.5610 -0.7617 0.3243
vn -0.5365 -0.8284 -0.1611
vn -0.1252 -0.9399 0.3178
vn -0.1550 -0.9879 0.0035
vn -0.4761 -0.8067 0.3499
vn -0.4933 -0.8567 -0.1509
vn -0.5075 -0.8505 -0.1381
vn -0.5177 -0.8555 0.0109
vn -0.1088 -0.9536 0.2806
vn -0.1140 -0.9771 0.1798
vn -0.0215 -0.9938 0.1088
vn -0.0393 -0.9910 -0.1280
vn -0.2397 -0.9691 0.0586
vn -0.2455 -0.9614 -0.1240
vn -0.4770 -0.8779 0.0416
vn -0.4736 -0.8745 0.1049
vn 0.0603 -0.9614 0.2684
vn 0.0492 -0.9988 0.0081
vn -0.1092 -0.9772 0.1823
vn -0.1099 -0.9778 -0.1785
vn -0.1192 -0.9780 -0.1711
vn -0.1336 -0.9892 -0.0610
vn -0.1328 -0.9892 -0.0618
vn -0.1394 -0.9899 0.0244
vn -0.3096 -0.9321 0.1879
vn -0.2842 -0.8886 0.3600
vn 0.2952 -0.8971 0.3287
vn 0.2908 -0.9550 0.0581
vn 0.2363 -0.9653 0.1109
vn 0.2315 -0.9702 -0.0714
vn 0.2180 -0.9742 -0.0587
vn 0.2057 -0.9608 0.1857
vn 0.3733 -0.9277 -0.0003
vn 0.3658 -0.9168 0.1602
vn 0.3474 -0.9183 0.1896
vn 0.3331 -0.9331 0.1355
vn 0.0893 -0.8533 0.5138
vn 0.0656 -0.8843 0.4623
vn -0.1596 -0.9475 0.2771
vn -0.1565 -0.9440 0.2905
vn 0.2541 -0.9658 0.0520
vn 0.2557 -0.9612 0.1040
vn 0.4595 -0.8877 -0.0300
vn 0.4960 -0.8505 0.1747
vn 0.4660 -0.8619 0.2001
vn 0.4621 -0.8665 0.1888
vn 0.4691 -0.8643 0.1812
vn 0.3827 -0.9231 -0.0379
vn 0.1981 -0.9758 0.0921
vn 0.3095 -0.8941 0.3237
vn 0.1441 -0.8669 0.4772
vn 0.2006 -0.7468 0.6340
vn 0.8180 -0.4852 -0.3089
vn 0.6858 -0.7166 -0.1276
vn 0.5338 -0.8323 -0.1496
vn 0.7027 -0.6949 -0.1529
vn 0.7265 -0.6752 0.1279
vn 0.7731 -0.6264 0.0999
vn 0.8036 -0.5226 0.2849
vn 0.7212 -0.6905 -0.0558
vn 0.6883 -0.7239 -0.0476
vn 0.6230 -0.7819 -0.0225
vn 0.5833 -0.8121 -0.0157
vn 0.6275 -0.7759 0.0655
vn 0.5966 -0.7995 0.0704
vn 0.6096 -0.7429 -0.2764
vn 0.4208 -0.8681 -0.2633
vn 0.5918 -0.8055 -0.0300
vn 0.7195 -0.6931 -0.0429
vn 0.6841 -0.7206 -0.1128
vn 0.6388 -0.7614 -0.1105
vn 0.6375 -0.7699 -0.0275
vn 0.6511 -0.7585 -0.0267
vn 0.4470 -0.8393 -0.3096
vn 0.6026 -0.7354 -0.3099
vn 0.7385 -0.6687 -0.0867
vn 0.6829 -0.7255 -0.0856
vn 0.6520 -0.7446 -0.1428
vn 0.3676 -0.9201 -0.1352
vn 0.7591 -0.6470 0.0717
vn 0.8054 -0.5880 0.0745
vn 0.7001 -0.7024 -0.1283
vn 0.6101 -0.7806 -0.1360
vn 0.5586 -0.8012 -0.2146
vn 0.6487 -0.7314 -0.2104
vn 0.6984 -0.7051 -0.1225
vn 0.5199 -0.8445 -0.1290
vn 0.4310 -0.8627 -0.2646
vn 0.3279 -0.9060 -0.2677
vn 0.7481 -0.6471 0.1469
vn 0.7306 -0.6672 0.1455
vn 0.7487 -0.6357 0.1880
vn 0.6137 -0.7675 0.1853
vn 0.5256 -0.8505 0.0173
vn 0.4753 -0.8797 0.0148
vn 0.5054 -0.8600 0.0698
vn 0.4113 -0.9089 0.0682
vn 0.4122 -0.9084 0.0698
vn 0.1159 -0.9909 0.0686
vn 0.1278 -0.9880 0.0869
vn 0.2305 -0.9688 0.0908
vn 0.8210 -0.5127 0.2512
vn 0.5773 -0.7903 0.2054
vn 0.6260 -0.7125 0.3170
vn 0.5222 -0.7966 0.3046
vn 0.5259 -0.7908 0.3130
vn 0.4759 -0.8229 0.3105
vn 0.3935 -0.9085 0.1407
vn 0.3907 -0.9097 0.1405
vn 0.3792 -0.9177 0.1187
vn 0.3162 -0.9414 0.1176
vn 0.2074 -0.9749 -0.0811
vn 0.0324 -0.9959 -0.0844
vn 0.1936 -0.9698 0.1482
vn 0.2917 -0.9442 0.1529
vn 0.4280 -0.6643 0.6128
vn 0.4675 -0.8290 0.3070
vn 0.3298 -0.9431 -0.0430
vn 0.0456 -0.9972 0.0595
vn 0.1275 -0.9847 0.1190
vn -0.0329 -0.9962 0.0805
vn -0.1621 -0.9436 0.2887
vn 0.4617 -0.6724 0.5786
vn 0.2115 -0.7600 0.6146
vn 0.2703 -0.8503 0.4516
vn 0.2148 -0.8636 0.4562
vn 0.2317 -0.7672 0.5981
vn 0.3637 -0.7196 0.5915
vn 0.0510 -0.9887 0.1409
vn 0.2041 -0.9662 0.1577
vn 0.2521 -0.8697 0.4243
vn 0.1976 -0.8856 0.4203
vn 0.2514 -0.6729 0.6957
vn 0.2878 -0.6589 0.6950
vn 0.1000 -0.9949 0.0147
vn 0.2409 -0.9696 0.0423
vn 0.2486 -0.9623 0.1100
vn 0.2234 -0.9689 0.1068
vn 0.2759 -0.8965 0.3466
vn 0.2967 -0.8890 0.3487
vn 0.3874 -0.7038 0.5955
vn 0.3788 -0.7085 0.5954
vn 0.0073 -0.9781 0.2078
vn -0.0566 -0.9791 0.1955
vn -0.0263 -0.9392 0.3423
vn 0.0453 -0.9325 0.3582
vn 0.0406 -0.9407 0.3368
vn 0.3281 -0.8556 0.4004
vn 0.3086 -0.8912 0.3324
vn 0.4202 -0.8364 0.3519
vn 0.4754 -0.7397 0.4763
vn 0.5331 -0.6994 0.4760
vn -0.1875 -0.9556 0.2273
vn -0.0888 -0.9613 0.2607
vn -0.0954 -0.9662 0.2394
vn 0.1597 -0.9364 0.3126
vn 0.1348 -0.9608 0.2424
vn 0.3475 -0.8937 0.2840
vn 0.3685 -0.8655 0.3391
vn 0.5324 -0.7684 0.3551
vn 0.4822 -0.8405 0.2469
vn 0.5447 -0.7997 0.2527
vn 0.6089 -0.7052 0.3634
vn 0.4795 -0.8000 0.3607
vn 0.0013 -0.9975 0.0703
vn -0.0603 -0.9971 0.0470
vn -0.0149 -0.9859 0.1669
vn 0.2413 -0.9446 0.2226
vn 0.2359 -0.9492 0.2083
vn 0.3325 -0.9164 0.2230
vn 0.3545 -0.8940 0.2742
vn 0.4978 -0.8209 0.2800
vn 0.5329 -0.7684 0.3544
vn 0.4862 -0.7989 0.3540
vn 0.4831 -0.8031 0.3487
vn 0.4842 -0.8024 0.3487
vn 0.4860 -0.8002 0.3514
vn 0.5810 -0.7313 0.3574
s 0
f 1//1 20//1 19//1
f 2//2 26//2 40//2
f 1//3 19//3 54//3
f 1//4 54//4 68//4
f 1//5 68//5 41//5
f 2//6 40//6 89//6
f 3//7 33//7 103//7
f 4//8 61//8 117//8
f 5//9 75//9 131//9
f 6//10 82//10 145//10
f 2//11 89//11 104//11
f 3//12 103//12 118//12
f 4//13 117//13 132//13
f 5//14 131//14 146//14
f 6//15 145//15 90//15
f 7//16 159//16 194//16
f 8//17 166//17 208//17
f 9//18 173//18 215//18
f 10//19 180//19 222//19
f 11//20 187//20 195//20
f 201//21 216//21 12//21
f 200//22 223//22 201//22
f 199//23 224//23 200//23
f 198//24 226//24 199//24
f 197//25 229//25 198//25
f 196//26 233//26 197//26
f 195//27 238//27 196//27
f 201//28 223//28 216//28
f 223//29 217//29 216//29
f 200//30 224//30 223//30
f 224//31 225//31 223//31
f 223//32 225//32 217//32
f 225//33 218//33 217//33
f 199//34 226//34 224//34
f 226//35 227//35 224//35
f 224//36 227//36 225//36
f 227//37 228//37 225//37
f 225//38 228//38 218//38
f 228//39 219//39 218//39
f 198//40 229//40 226//40
f 229//41 230//41 226//41
f 226//42 230//42 227//42
f 230//43 231//43 227//43
f 227//44 231//44 228//44
f 231//45 232//45 228//45
f 228//46 232//46 219//46
f 232//47 220//47 219//47
f 197//48 233//48 229//48
f 233//49 234//49 229//49
f 229//50 234//50 230//50
f 234//51 235//51 230//51
f 230//52 235//52 231//52
f 235//53 236//53 231//53
f 231//54 236//54 232//54
f 236//55 237//55 232//55
f 232//56 237//56 220//56
f 237//57 221//57 220//57
f 196//58 238//58 233//58
f 238//59 239//59 233//59
f 233//60 239//60 234//60
f 239//61 240//61 234//61
f 234//62 240//62 235//62
f 240//63 241//63 235//63
f 235//64 241//64 236//64
f 241//65 242//65 236//65
f 236//66 242//66 237//66
f 242//67 243//67 237//67
f 237//68 243//68 221//68
f 243//69 222//69 221//69
f 195//70 187//70 238//70
f 187//71 186//71 238//71
f 238//72 186//72 239//72
f 186//73 185//73 239//73
f 239//74 185//74 240//74
f 185//75 184//75 240//75
f 240//76 184//76 241//76
f 184//77 183//77 241//77
f 241//78 183//78 242//78
f 183//79 182//79 242//79
f 242//80 182//80 243//80
f 182//81 181//81 243//81
f 243//82 181//82 222//82
f 181//83 10//83 222//83
f 216//84 209//84 12//84
f 217//85 244//85 216//85
f 218//86 245//86 217//86
f 219//87 247//87 218//87
f 220//88 250//88 219//88
f 221//89 254//89 220//89
f 222//90 259//90 221//90
f 216//91 244//91 209//91
f 244//92 210//92 209//92
f 217//93 245//93 244//93
f 245//94 246//94 244//94
f 244//95 246//95 210//95
f 246//96 211//96 210//96
f 218//97 247//97 245//97
f 247//98 248//98 245//98
f 245//99 248//99 246//99
f 248//100 249//100 246//100
f 246//101 249//101 211//101
f 249//102 212//102 211//102
f 219//103 250//103 247//103
f 250//104 251//104 247//104
f 247//105 251//105 248//105
f 251//106 252//106 248//106
f 248//107 252//107 249//107
f 252//108 253//108 249//108
f 249//109 253//109 212//109
f 253//110 213//110 212//110
f 220//111 254//111 250//111
f 254//112 255//112 250//112
f 250//113 255//113 251//113
f 255//114 256//114 251//114
f 251//115 256//115 252//115
f 256//116 257//116 252//116
f 252//117 257//117 253//117
f 257//118 258//118 253//118
f 253//119 258//119 213//119
f 258//120 214//120 213//120
f 221//121 259//121 254//121
f 259//122 260//122 254//122
f 254//123 260//123 255//123
f 260//124 261//124 255//124
f 255//125 261//125 256//125
f 261//126 262//126 256//126
f 256//127 262//127 257//127
f 262//128 263//128 257//128
f 257//129 263//129 258//129
f 263//130 264//130 258//130
f 258//131 264//131 214//131
f 264//132 215//132 214//132
f 222//133 180//133 259//133
f 180//134 179//134 259//134
f 259//135 179//135 260//135
f 179//136 178//136 260//136
f 260//137 178//137 261//137
f 178//138 177//138 261//138
f 261//139 177//139 262//139
f 177//140 176//140 262//140
f 262//141 176//141 263//141
f 176//142 175//142 263//142
f 263//143 175//143 264//143
f 175//144 174//144 264//144
f 264//145 174//145 215//145
f 174//146 9//146 215//146
f 209//147 202//147 12//147
f 210//148 265//148 209//148
f 211//149 266//149 210//149
f 212//150 268//150 211//150
f 213//151 271//151 212//151
f 214//152 275//152 213//152
f 215//153 280//153 214//153
f 209//154 265//154 202//154
f 265//155 203//155 202//155
f 210//156 266//156 265//156
f 266//157 267//157 265//157
f 265//158 267//158 203//158
f 267//159 204//159 203//159
f 211//160 268//160 266//160
f 268//161 269//161 266//161
f 266//162 269//162 267//162
f 269//163 270//163 267//163
f 267//164 270//164 204//164
f 270//165 205//165 204//165
f 212//166 271//166 268//166
f 271//167 272//167 268//167
f 268//168 272//168 269//168
f 272//169 273//169 269//169
f 269//170 273//170 270//170
f 273//171 274//171 270//171
f 270//172 274//172 205//172
f 274//173 206//173 205//173
f 213//174 275//174 271//174
f 275//175 276//175 271//175
f 271//176 276//176 272//176
f 276//177 277//177 272//177
f 272//178 277//178 273//178
f 277//179 278//179 273//179
f 273//180 278//180 274//180
f 278//181 279//181 274//181
f 274//182 279//182 206//182
f 279//183 207//183 206//183
f 214//184 280//184 275//184
f 280//185 281//185 275//185
f 275//186 281//186 276//186
f 281//187 282//187 276//187
f 276//188 282//188 277//188
f 282//189 283//189 277//189
f 277//190 283//190 278//190
f 283//191 284//191 278//191
f 278//192 284//192 279//192
f 284//193 285//193 279//193
f 279//194 285//194 207//194
f 285//195 208//195 207//195
f 215//196 173//196 280//196
f 173//197 172//197 280//197
f 280//198 172//198 281//198
f 172//199 171//199 281//199
f 281//200 171//200 282//200
f 171//201 170//201 282//201
f 282//202 170//202 283//202
f 170//203 169//203 283//203
f 283//204 169//204 284//204
f 169//205 168//205 284//205
f 284//206 168//206 285//206
f 168//207 167//207 285//207
f 285//208 167//208 208//208
f 167//209 8//209 208//209
f 202//210 188//210 12//210
f 203//211 286//211 202//211
f 204//212 287//212 203//212
f 205//213 289//213 204//213
f 206//214 292//214 205//214
f 207//215 296//215 206//215
f 208//216 301//216 207//216
f 202//217 286//217 188//217
f 286//218 189//218 188//218
f 203//219 287//219 286//219
f 287//220 288//220 286//220
f 286//221 288//221 189//221
f 288//222 190//222 189//222
f 204//223 289//223 287//223
f 289//224 290//224 287//224
f 287//225 290//225 288//225
f 290//226 291//226 288//226
f 288//227 291//227 190//227
f 291//228 191//228 190//228
f 205//229 292//229 289//229
f 292//230 293//230 289//230
f 289//231 293//231 290//231
f 293//232 294//232 290//232
f 290//233 294//233 291//233
f 294//234 295//234 291//234
f 291//235 295//235 191//235
f 295//236 192//236 191//236
f 206//237 296//237 292//237
f 296//238 297//238 292//238
f 292//239 297//239 293//239
f 297//240 298//240 293//240
f 293//241 298//241 294//241
f 298//242 299//242 294//242
f 294//243 299//243 295//243
f 299//244 300//244 295//244
f 295//245 300//245 192//245
f 300//246 193//246 192//246
f 207//247 301//247 296//247
f 301//248 302//248 296//248
f 296//249 302//249 297//249
f 302//250 303//250 297//250
f 297//251 303//251 298//251
f 303//252 304//252 298//252
f 298//253 304//253 299//253
f 304//254 305//254 299//254
f 299//255 305//255 300//255
f 305//256 306//256 300//256
f 300//257 306//257 193//257
f 306//258 194//258 193//258
f 208//259 166//259 301//259
f 166//260 165//260 301//260
f 301//261 165//261 302//261
f 165//262 164//262 302//262
f 302//263 164//263 303//263
f 164//264 163//264 303//264
f 303//265 163//265 304//265
f 163//266 162//266 304//266
f 304//267 162//267 305//267
f 162//268 161//268 305//268
f 305//269 161//269 306//269
f 161//270 160//270 306//270
f 306//271 160//271 194//271
f 160//272 7//272 194//272
f 188//273 201//273 12//273
f 189//274 307//274 188//274
f 190//275 308//275 189//275
f 191//276 310//276 190//276
f 192//277 313//277 191//277
f 193//278 317//278 192//278
f 194//279 322//279 193//279
f 188//280 307//280 201//280
f 307//281 200//281 201//281
f 189//282 308//282 307//282
f 308//283 309//283 307//283
f 307//284 309//284 200//284
f 309//285 199//285 200//285
f 190//286 310//286 308//286
f 310//287 311//287 308//287
f 308//288 311//288 309//288
f 311//289 312//289 309//289
f 309//290 312//290 199//290
f 312//291 198//291 199//291
f 191//292 313//292 310//292
f 313//293 314//293 310//293
f 310//294 314//294 311//294
f 314//295 315//295 311//295
f 311//296 315//296 312//296
f 315//297 316//297 312//297
f 312//298 316//298 198//298
f 316//299 197//299 198//299
f 192//300 317//300 313//300
f 317//301 318//301 313//301
f 313//302 318//302 314//302
f 318//303 319//303 314//303
f 314//304 319//304 315//304
f 319//305 320//305 315//305
f 315//306 320//306 316//306
f 320//307 321//307 316//307
f 316//308 321//308 197//308
f 321//309 196//309 197//309
f 193//310 322//310 317//310
f 322//311 323//311 317//311
f 317//312 323//312 318//312
f 323//313 324//313 318//313
f 318//314 324//314 319//314
f 324//315 325//315 319//315
f 319//316 325//316 320//316
f 325//317 326//317 320//317
f 320//318 326//318 321//318
f 326//319 327//319 321//319
f 321//320 327//320 196//320
f 327//321 195//321 196//321
f 194//322 159//322 322//322
f 159//323 158//323 322//323
f 322//324 158//324 323//324
f 158//325 157//325 323//325
f 323//326 157//326 324//326
f 157//327 156//327 324//327
f 324//328 156//328 325//328
f 156//329 155//329 325//329
f 325//330 155//330 326//330
f 155//331 154//331 326//331
f 326//332 154//332 327//332
f 154//333 153//333 327//333
f 327//334 153//334 195//334
f 153//335 11//335 195//335
f 96//336 187//336 11//336
f 95//337 328//337 96//337
f 94//338 329//338 95//338
f 93//339 331//339 94//339
f 92//340 334//340 93//340
f 91//341 338//341 92//341
f 90//342 343//342 91//342
f 96//343 328//343 187//343
f 328//344 186//344 187//344
f 95//345 329//345 328//345
f 329//346 330//346 328//346
f 328//347 330//347 186//347
f 330//348 185//348 186//348
f 94//349 331//349 329//349
f 331//350 332//350 329//350
f 329//351 332//351 330//351
f 332//352 333//352 330//352
f 330//353 333//353 185//353
f 333//354 184//354 185//354
f 93//355 334//355 331//355
f 334//356 335//356 331//356
f 331//357 335//357 332//357
f 335//358 336//358 332//358
f 332//359 336//359 333//359
f 336//360 337//360 333//360
f 333//361 337//361 184//361
f 337//362 183//362 184//362
f 92//363 338//363 334//363
f 338//364 339//364 334//364
f 334//365 339//365 335//365
f 339//366 340//366 335//366
f 335//367 340//367 336//367
f 340//368 341//368 336//368
f 336//369 341//369 337//369
f 341//370 342//370 337//370
f 337//371 342//371 183//371
f 342//372 182//372 183//372
f 91//373 343//373 338//373
f 343//374 344//374 338//374
f 338//375 344//375 339//375
f 344//376 345//376 339//376
f 339//377 345//377 340//377
f 345//378 346//378 340//378
f 340//379 346//379 341//379
f 346//380 347//380 341//380
f 341//381 347//381 342//381
f 347//382 348//382 342//382
f 342//383 348//383 182//383
f 348//384 181//384 182//384
f 90//385 145//385 343//385
f 145//386 144//386 343//386
f 343//387 144//387 344//387
f 144//388 143//388 344//388
f 344//389 143//389 345//389
f 143//390 142//390 345//390
f 345//391 142//391 346//391
f 142//392 141//392 346//392
f 346//393 141//393 347//393
f 141//394 140//394 347//394
f 347//395 140//395 348//395
f 140//396 139//396 348//396
f 348//397 139//397 181//397
f 139//398 10//398 181//398
f 152//399 180//399 10//399
f 151//400 349//400 152//400
f 150//401 350//401 151//401
f 149//402 352//402 150//402
f 148//403 355//403 149//403
f 147//404 359//404 148//404
f 146//405 364//405 147//405
f 152//406 349//406 180//406
f 349//407 179//407 180//407
f 151//408 350//408 349//408
f 350//409 351//409 349//409
f 349//410 351//410 179//410
f 351//411 178//411 179//411
f 150//412 352//412 350//412
f 352//413 353//413 350//413
f 350//414 353//414 351//414
f 353//415 354//415 351//415
f 351//416 354//416 178//416
f 354//417 177//417 178//417
f 149//418 355//418 352//418
f 355//419 356//419 352//419
f 352//420 356//420 353//420
f 356//421 357//421 353//421
f 353//422 357//422 354//422
f 357//423 358//423 354//423
f 354//424 358//424 177//424
f 358//425 176//425 177//425
f 148//426 359//426 355//426
f 359//427 360//427 355//427
f 355//428 360//428 356//428
f 360//429 361//429 356//429
f 356//430 361//430 357//430
f 361//431 362//431 357//431
f 357//432 362//432 358//432
f 362//433 363//433 358//433
f 358//434 363//434 176//434
f 363//435 175//435 176//435
f 147//436 364//436 359//436
f 364//437 365//437 359//437
f 359//438 365//438 360//438
f 365//439 366//439 360//439
f 360//440 366//440 361//440
f 366//441 367//441 361//441
f 361//442 367//442 362//442
f 367//443 368//443 362//443
f 362//444 368//444 363//444
f 368//445 369//445 363//445
f 363//446 369//446 175//446
f 369//447 174//447 175//447
f 146//448 131//448 364//448
f 131//449 130//449 364//449
f 364//450 130//450 365//450
f 130//451 129//451 365//451
f 365//452 129//452 366//452
f 129//453 128//453 366//453
f 366//454 128//454 367//454
f 128//455 127//455 367//455
f 367//456 127//456 368//456
f 127//457 126//457 368//457
f 368//458 126//458 369//458
f 126//459 125//459 369//459
f 369//460 125//460 174//460
f 125//461 9//461 174//461
f 138//462 173//462 9//462
f 137//463 370//463 138//463
f 136//464 371//464 137//464
f 135//465 373//465 136//465
f 134//466 376//466 135//466
f 133//467 380//467 134//467
f 132//468 385//468 133//468
f 138//469 370//469 173//469
f 370//470 172//470 173//470
f 137//471 371//471 370//471
f 371//472 372//472 370//472
f 370//473 372//473 172//473
f 372//474 171//474 172//474
f 136//475 373//475 371//475
f 373//476 374//476 371//476
f 371//477 374//477 372//477
f 374//478 375//478 372//478
f 372//479 375//479 171//479
f 375//480 170//480 171//480
f 135//481 376//481 373//481
f 376//482 377//482 373//482
f 373//483 377//483 374//483
f 377//484 378//484 374//484
f 374//485 378//485 375//485
f 378//486 379//486 375//486
f 375//487 379//487 170//487
f 379//488 169//488 170//488
f 134//489 380//489 376//489
f 380//490 381//490 376//490
f 376//491 381//491 377//491
f 381//492 382//492 377//492
f 377//493 382//493 378//493
f 382//494 383//494 378//494
f 378//495 383//495 379//495
f 383//496 384//496 379//496
f 379//497 384//497 169//497
f 384//498 168//498 169//498
f 133//499 385//499 380//499
f 385//500 386//500 380//500
f 380//501 386//501 381//501
f 386//502 387//502 381//502
f 381//503 387//503 382//503
f 387//504 388//504 382//504
f 382//505 388//505 383//505
f 388//506 389//506 383//506
f 383//507 389//507 384//507
f 389//508 390//508 384//508
f 384//509 390//509 168//509
f 390//510 167//510 168//510
f 132//511 117//511 385//511
f 117//512 116//512 385//512
f 385//513 116//513 386//513
f 116//514 115//514 386//514
f 386//515 115//515 387//515
f 115//516 114//516 387//516
f 387//517 114//517 388//517
f 114//518 113//518 388//518
f 388//519 113//519 389//519
f 113//520 112//520 389//520
f 389//521 112//521 390//521
f 112//522 111//522 390//522
f 390//523 111//523 167//523
f 111//524 8//524 167//524
f 124//525 166//525 8//525
f 123//526 391//526 124//526
f 122//527 392//527 123//527
f 121//528 394//528 122//528
f 120//529 397//529 121//529
f 119//530 401//530 120//530
f 118//531 406//531 119//531
f 124//532 391//532 166//532
f 391//533 165//533 166//533
f 123//534 392//534 391//534
f 392//535 393//535 391//535
f 391//536 393//536 165//536
f 393//537 164//537 165//537
f 122//538 394//538 392//538
f 394//539 395//539 392//539
f 392//540 395//540 393//540
f 395//541 396//541 393//541
f 393//542 396//542 164//542
f 396//543 163//543 164//543
f 121//544 397//544 394//544
f 397//545 398//545 394//545
f 394//546 398//546 395//546
f 398//547 399//547 395//547
f 395//548 399//548 396//548
f 399//549 400//549 396//549
f 396//550 400//550 163//550
f 400//551 162//551 163//551
f 120//552 401//552 397//552
f 401//553 402//553 397//553
f 397//554 402//554 398//554
f 402//555 403//555 398//555
f 398//556 403//556 399//556
f 403//557 404//557 399//557
f 399//558 404//558 400//558
f 404//559 405//559 400//559
f 400//560 405//560 162//560
f 405//561 161//561 162//561
f 119//562 406//562 401//562
f 406//563 407//563 401//563
f 401//564 407//564 402//564
f 407//565 408//565 402//565
f 402//566 408//566 403//566
f 408//567 409//567 403//567
f 403//568 409//568 404//568
f 409//569 410//569 404//569
f 404//570 410//570 405//570
f 410//571 411//571 405//571
f 405//572 411//572 161//572
f 411//573 160//573 161//573
f 118//574 103//574 406//574
f 103//575 102//575 406//575
f 406//576 102//576 407//576
f 102//577 101//577 407//577
f 407//578 101//578 408//578
f 101//579 100//579 408//579
f 408//580 100//580 409//580
f 100//581 99//581 409//581
f 409//582 99//582 410//582
f 99//583 98//583 410//583
f 410//584 98//584 411//584
f 98//585 97//585 411//585
f 411//586 97//586 160//586
f 97//587 7//587 160//587
f 110//588 159//588 7//588
f 109//589 412//589 110//589
f 108//590 413//590 109//590
f 107//591 415//591 108//591
f 106//592 418//592 107//592
f 105//593 422//593 106//593
f 104//594 427//594 105//594
f 110//595 412//595 159//595
f 412//596 158//596 159//596
f 109//597 413//597 412//597
f 413//598 414//598 412//598
f 412//599 414//599 158//599
f 414//600 157//600 158//600
f 108//601 415//601 413//601
f 415//602 416//602 413//602
f 413//603 416//603 414//603
f 416//604 417//604 414//604
f 414//605 417//605 157//605
f 417//606 156//606 157//606
f 107//607 418//607 415//607
f 418//608 419//608 415//608
f 415//609 419//609 416//609
f 419//610 420//610 416//610
f 416//611 420//611 417//611
f 420//612 421//612 417//612
f 417//613 421//613 156//613
f 421//614 155//614 156//614
f 106//615 422//615 418//615
f 422//616 423//616 418//616
f 418//617 423//617 419//617
f 423//618 424//618 419//618
f 419//619 424//619 420//619
f 424//620 425//620 420//620
f 420//621 425//621 421//621
f 425//622 426//622 421//622
f 421//623 426//623 155//623
f 426//624 154//624 155//624
f 105//625 427//625 422//625
f 427//626 428//626 422//626
f 422//627 428//627 423//627
f 428//628 429//628 423//628
f 423//629 429//629 424//629
f 429//630 430//630 424//630
f 424//631 430//631 425//631
f 430//632 431//632 425//632
f 425//633 431//633 426//633
f 431//634 432//634 426//634
f 426//635 432//635 154//635
f 432//636 153//636 154//636
f 104//637 89//637 427//637
f 89//638 88//638 427//638
f 427//639 88//639 428//639
f 88//640 87//640 428//640
f 428//641 87//641 429//641
f 87//642 86//642 429//642
f 429//643 86//643 430//643
f 86//644 85//644 430//644
f 430//645 85//645 431//645
f 85//646 84//646 431//646
f 431//647 84//647 432//647
f 84//648 83//648 432//648
f 432//649 83//649 153//649
f 83//650 11//650 153//650
f 139//651 152//651 10//651
f 140//652 433//652 139//652
f 141//394 434//394 140//394
f 142//653 436//653 141//653
f 143//654 439//654 142//654
f 144//655 443//655 143//655
f 145//656 448//656 144//656
f 139//657 433//657 152//657
f 433//658 151//658 152//658
f 140//659 434//659 433//659
f 434//660 435//660 433//660
f 433//661 435//661 151//661
f 435//662 150//662 151//662
f 141//663 436//663 434//663
f 436//664 437//664 434//664
f 434//665 437//665 435//665
f 437//666 438//666 435//666
f 435//667 438//667 150//667
f 438//668 149//668 150//668
f 142//669 439//669 436//669
f 439//670 440//670 436//670
f 436//671 440//671 437//671
f 440//672 441//672 437//672
f 437//673 441//673 438//673
f 441//674 442//674 438//674
f 438//675 442//675 149//675
f 442//676 148//676 149//676
f 143//677 443//677 439//677
f 443//678 444//678 439//678
f 439//679 444//679 440//679
f 444//680 445//680 440//680
f 440//681 445//681 441//681
f 445//682 446//682 441//682
f 441//683 446//683 442//683
f 446//684 447//684 442//684
f 442//685 447//685 148//685
f 447//686 147//686 148//686
f 144//687 448//687 443//687
f 448//688 449//688 443//688
f 443//689 449//689 444//689
f 449//690 450//690 444//690
f 444//691 450//691 445//691
f 450//692 451//692 445//692
f 445//693 451//693 446//693
f 451//694 452//694 446//694
f 446//695 452//695 447//695
f 452//696 453//696 447//696
f 447//697 453//697 147//697
f 453//698 146//698 147//698
f 145//699 82//699 448//699
f 82//700 81//700 448//700
f 448//701 81//701 449//701
f 81//702 80//702 449//702
f 449//703 80//703 450//703
f 80//704 79//704 450//704
f 450//705 79//705 451//705
f 79//706 78//706 451//706
f 451//707 78//707 452//707
f 78//708 77//708 452//708
f 452//709 77//709 453//709
f 77//710 76//710 453//710
f 453//711 76//711 146//711
f 76//712 5//712 146//712
f 125//713 138//713 9//713
f 126//714 454//714 125//714
f 127//715 455//715 126//715
f 128//716 457//716 127//716
f 129//717 460//717 128//717
f 130//718 464//718 129//718
f 131//719 469//719 130//719
f 125//720 454//720 138//720
f 454//721 137//721 138//721
f 126//722 455//722 454//722
f 455//723 456//723 454//723
f 454//724 456//724 137//724
f 456//725 136//725 137//725
f 127//726 457//726 455//726
f 457//727 458//727 455//727
f 455//728 458//728 456//728
f 458//729 459//729 456//729
f 456//730 459//730 136//730
f 459//731 135//731 136//731
f 128//732 460//732 457//732
f 460//733 461//733 457//733
f 457//734 461//734 458//734
f 461//735 462//735 458//735
f 458//736 462//736 459//736
f 462//737 463//737 459//737
f 459//738 463//738 135//738
f 463//739 134//739 135//739
f 129//740 464//740 460//740
f 464//741 465//741 460//741
f 460//742 465//742 461//742
f 465//743 466//743 461//743
f 461//744 466//744 462//744
f 466//745 467//745 462//745
f 462//746 467//746 463//746
f 467//747 468//747 463//747
f 463//748 468//748 134//748
f 468//749 133//749 134//749
f 130//750 469//750 464//750
f 469//751 470//751 464//751
f 464//752 470//752 465//752
f 470//753 471//753 465//753
f 465//754 471//754 466//754
f 471//755 472//755 466//755
f 466//756 472//756 467//756
f 472//757 473//757 467//757
f 467//758 473//758 468//758
f 473//759 474//759 468//759
f 468//760 474//760 133//760
f 474//761 132//761 133//761
f 131//762 75//762 469//762
f 75//763 74//763 469//763
f 469//764 74//764 470//764
f 74//765 73//765 470//765
f 470//766 73//766 471//766
f 73//767 72//767 471//767
f 471//768 72//768 472//768
f 72//769 71//769 472//769
f 472//770 71//770 473//770
f 71//771 70//771 473//771
f 473//772 70//772 474//772
f 70//773 69//773 474//773
f 474//774 69//774 132//774
f 69//775 4//775 132//775
f 111//776 124//776 8//776
f 112//777 475//777 111//777
f 113//778 476//778 112//778
f 114//779 478//779 113//779
f 115//780 481//780 114//780
f 116//781 485//781 115//781
f 117//782 490//782 116//782
f 111//783 475//783 124//783
f 475//784 123//784 124//784
f 112//785 476//785 475//785
f 476//786 477//786 475//786
f 475//787 477//787 123//787
f 477//788 122//788 123//788
f 113//789 478//789 476//789
f 478//790 479//790 476//790
f 476//791 479//791 477//791
f 479//792 480//792 477//792
f 477//793 480//793 122//793
f 480//794 121//794 122//794
f 114//795 481//795 478//795
f 481//796 482//796 478//796
f 478//797 482//797 479//797
f 482//798 483//798 479//798
f 479//799 483//799 480//799
f 483//800 484//800 480//800
f 480//801 484//801 121//801
f 484//802 120//802 121//802
f 115//803 485//803 481//803
f 485//804 486//804 481//804
f 481//805 486//805 482//805
f 486//806 487//806 482//806
f 482//807 487//807 483//807
f 487//808 488//808 483//808
f 483//809 488//809 484//809
f 488//810 489//810 484//810
f 484//811 489//811 120//811
f 489//812 119//812 120//812
f 116//813 490//813 485//813
f 490//814 491//814 485//814
f 485//815 491//815 486//815
f 491//816 492//816 486//816
f 486//817 492//817 487//817
f 492//818 493//818 487//818
f 487//819 493//819 488//819
f 493//820 494//820 488//820
f 488//821 494//821 489//821
f 494//822 495//822 489//822
f 489//823 495//823 119//823
f 495//824 118//824 119//824
f 117//825 61//825 490//825
f 61//826 60//826 490//826
f 490//827 60//827 491//827
f 60//828 59//828 491//828
f 491//829 59//829 492//829
f 59//830 58//830 492//830
f 492//831 58//831 493//831
f 58//832 57//832 493//832
f 493//833 57//833 494//833
f 57//834 56//834 494//834
f 494//835 56//835 495//835
f 56//836 55//836 495//836
f 495//837 55//837 118//837
f 55//838 3//838 118//838
f 97//839 110//839 7//839
f 98//840 496//840 97//840
f 99//841 497//841 98//841
f 100//842 499//842 99//842
f 101//843 502//843 100//843
f 102//844 506//844 101//844
f 103//845 511//845 102//845
f 97//846 496//846 110//846
f 496//847 109//847 110//847
f 98//848 497//848 496//848
f 497//849 498//849 496//849
f 496//850 498//850 109//850
f 498//851 108//851 109//851
f 99//852 499//852 497//852
f 499//853 500//853 497//853
f 497//854 500//854 498//854
f 500//855 501//855 498//855
f 498//856 501//856 108//856
f 501//857 107//857 108//857
f 100//858 502//858 499//858
f 502//859 503//859 499//859
f 499//860 503//860 500//860
f 503//861 504//861 500//861
f 500//862 504//862 501//862
f 504//863 505//863 501//863
f 501//864 505//864 107//864
f 505//865 106//865 107//865
f 101//866 506//866 502//866
f 506//867 507//867 502//867
f 502//868 507//868 503//868
f 507//869 508//869 503//869
f 503//870 508//870 504//870
f 508//871 509//871 504//871
f 504//872 509//872 505//872
f 509//873 510//873 505//873
f 505//874 510//874 106//874
f 510//875 105//875 106//875
f 102//876 511//876 506//876
f 511//877 512//877 506//877
f 506//878 512//878 507//878
f 512//879 513//879 507//879
f 507//880 513//880 508//880
f 513//881 514//881 508//881
f 508//882 514//882 509//882
f 514//883 515//883 509//883
f 509//884 515//884 510//884
f 515//885 516//885 510//885
f 510//886 516//886 105//886
f 516//887 104//887 105//887
f 103//888 33//888 511//888
f 33//889 32//889 511//889
f 511//890 32//890 512//890
f 32//891 31//891 512//891
f 512//892 31//892 513//892
f 31//893 30//893 513//893
f 513//894 30//894 514//894
f 30//895 29//895 514//895
f 514//896 29//896 515//896
f 29//897 28//897 515//897
f 515//898 28//898 516//898
f 28//899 27//899 516//899
f 516//900 27//900 104//900
f 27//901 2//901 104//901
f 83//902 96//902 11//902
f 84//903 517//903 83//903
f 85//904 518//904 84//904
f 86//905 520//905 85//905
f 87//906 523//906 86//906
f 88//907 527//907 87//907
f 89//908 532//908 88//908
f 83//909 517//909 96//909
f 517//910 95//910 96//910
f 84//911 518//911 517//911
f 518//912 519//912 517//912
f 517//913 519//913 95//913
f 519//914 94//914 95//914
f 85//915 520//915 518//915
f 520//916 521//916 518//916
f 518//917 521//917 519//917
f 521//918 522//918 519//918
f 519//919 522//919 94//919
f 522//920 93//920 94//920
f 86//921 523//921 520//921
f 523//922 524//922 520//922
f 520//923 524//923 521//923
f 524//924 525//924 521//924
f 521//925 525//925 522//925
f 525//926 526//926 522//926
f 522//927 526//927 93//927
f 526//928 92//928 93//928
f 87//929 527//929 523//929
f 527//930 528//930 523//930
f 523//931 528//931 524//931
f 528//932 529//932 524//932
f 524//933 529//933 525//933
f 529//934 530//934 525//934
f 525//935 530//935 526//935
f 530//936 531//936 526//936
f 526//937 531//937 92//937
f 531//938 91//938 92//938
f 88//939 532//939 527//939
f 532//940 533//940 527//940
f 527//941 533//941 528//941
f 533//942 534//942 528//942
f 528//943 534//943 529//943
f 534//944 535//944 529//944
f 529//945 535//945 530//945
f 535//946 536//946 530//946
f 530//947 536//947 531//947
f 536//948 537//948 531//948
f 531//949 537//949 91//949
f 537//950 90//950 91//950
f 89//951 40//951 532//951
f 40//952 39//952 532//952
f 532//953 39//953 533//953
f 39//954 38//954 533//954
f 533//955 38//955 534//955
f 38//956 37//956 534//956
f 534//957 37//957 535//957
f 37//958 36//958 535//958
f 535//959 36//959 536//959
f 36//960 35//960 536//960
f 536//961 35//961 537//961
f 35//962 34//962 537//962
f 537//963 34//963 90//963
f 34//964 6//964 90//964
f 47//965 82//965 6//965
f 46//966 538//966 47//966
f 45//967 539//967 46//967
f 44//968 541//968 45//968
f 43//969 544//969 44//969
f 42//970 548//970 43//970
f 41//971 553//971 42//971
f 47//972 538//972 82//972
f 538//973 81//973 82//973
f 46//974 539//974 538//974
f 539//975 540//975 538//975
f 538//976 540//976 81//976
f 540//977 80//977 81//977
f 45//978 541//978 539//978
f 541//979 542//979 539//979
f 539//980 542//980 540//980
f 542//981 543//981 540//981
f 540//982 543//982 80//982
f 543//983 79//983 80//983
f 44//984 544//984 541//984
f 544//985 545//985 541//985
f 541//986 545//986 542//986
f 545//987 546//987 542//987
f 542//988 546//988 543//988
f 546//989 547//989 543//989
f 543//990 547//990 79//990
f 547//991 78//991 79//991
f 43//992 548//992 544//992
f 548//993 549//993 544//993
f 544//994 549//994 545//994
f 549//995 550//995 545//995
f 545//996 550//996 546//996
f 550//997 551//997 546//997
f 546//998 551//998 547//998
f 551//999 552//999 547//999
f 547//1000 552//1000 78//1000
f 552//1001 77//1001 78//1001
f 42//1002 553//1002 548//1002
f 553//1003 554//1003 548//1003
f 548//1004 554//1004 549//1004
f 554//1005 555//1005 549//1005
f 549//1006 555//1006 550//1006
f 555//1007 556//1007 550//1007
f 550//1008 556//1008 551//1008
f 556//1009 557//1009 551//1009
f 551//1010 557//1010 552//1010
f 557//1011 558//1011 552//1011
f 552//1012 558//1012 77//1012
f 558//1013 76//1013 77//1013
f 41//1014 68//1014 553//1014
f 68//1015 67//1015 553//1015
f 553//1016 67//1016 554//1016
f 67//1017 66//1017 554//1017
f 554//1018 66//1018 555//1018
f 66//1019 65//1019 555//1019
f 555//1020 65//1020 556//1020
f 65//1021 64//1021 556//1021
f 556//1022 64//1022 557//1022
f 64//1023 63//1023 557//1023
f 557//1024 63//1024 558//1024
f 63//1025 62//1025 558//1025
f 558//1026 62//1026 76//1026
f 62//1027 5//1027 76//1027
f 62//1028 75//1028 5//1028
f 63//1029 559//1029 62//1029
f 64//1030 560//1030 63//1030
f 65//1031 562//1031 64//1031
f 66//1032 565//1032 65//1032
f 67//1033 569//1033 66//1033
f 68//1034 574//1034 67//1034
f 62//1035 559//1035 75//1035
f 559//1036 74//1036 75//1036
f 63//1037 560//1037 559//1037
f 560//1038 561//1038 559//1038
f 559//1039 561//1039 74//1039
f 561//1040 73//1040 74//1040
f 64//1041 562//1041 560//1041
f 562//1042 563//1042 560//1042
f 560//1043 563//1043 561//1043
f 563//1044 564//1044 561//1044
f 561//1045 564//1045 73//1045
f 564//1046 72//1046 73//1046
f 65//1047 565//1047 562//1047
f 565//1048 566//1048 562//1048
f 562//1049 566//1049 563//1049
f 566//1050 567//1050 563//1050
f 563//1051 567//1051 564//1051
f 567//1052 568//1052 564//1052
f 564//1053 568//1053 72//1053
f 568//1054 71//1054 72//1054
f 66//1055 569//1055 565//1055
f 569//1056 570//1056 565//1056
f 565//1057 570//1057 566//1057
f 570//1058 571//1058 566//1058
f 566//1059 571//1059 567//1059
f 571//1060 572//1060 567//1060
f 567//1061 572//1061 568//1061
f 572//1062 573//1062 568//1062
f 568//1063 573//1063 71//1063
f 573//1064 70//1064 71//1064
f 67//1065 574//1065 569//1065
f 574//1066 575//1066 569//1066
f 569//1067 575//1067 570//1067
f 575//1068 576//1068 570//1068
f 570//1069 576//1069 571//1069
f 576//1070 577//1070 571//1070
f 571//1071 577//1071 572//1071
f 577//1072 578//1072 572//1072
f 572//1073 578//1073 573//1073
f 578//1074 579//1074 573//1074
f 573//1075 579//1075 70//1075
f 579//1076 69//1076 70//1076
f 68//1077 54//1077 574//1077
f 54//1078 53//1078 574//1078
f 574//1079 53//1079 575//1079
f 53//1080 52//1080 575//1080
f 575//1081 52//1081 576//1081
f 52//1082 51//1082 576//1082
f 576//1083 51//1083 577//1083
f 51//1084 50//1084 577//1084
f 577//1085 50//1085 578//1085
f 50//1086 49//1086 578//1086
f 578//1087 49//1087 579//1087
f 49//1088 48//1088 579//1088
f 579//1089 48//1089 69//1089
f 48//1090 4//1090 69//1090
f 48//1091 61//1091 4//1091
f 49//1092 580//1092 48//1092
f 50//1093 581//1093 49//1093
f 51//1094 583//1094 50//1094
f 52//1095 586//1095 51//1095
f 53//1096 590//1096 52//1096
f 54//1097 595//1097 53//1097
f 48//1098 580//1098 61//1098
f 580//1099 60//1099 61//1099
f 49//1100 581//1100 580//1100
f 581//1101 582//1101 580//1101
f 580//1102 582//1102 60//1102
f 582//1103 59//1103 60//1103
f 50//1104 583//1104 581//1104
f 583//1105 584//1105 581//1105
f 581//1106 584//1106 582//1106
f 584//1107 585//1107 582//1107
f 582//1108 585//1108 59//1108
f 585//1109 58//1109 59//1109
f 51//1110 586//1110 583//1110
f 586//1111 587//1111 583//1111
f 583//1112 587//1112 584//1112
f 587//1113 588//1113 584//1113
f 584//1114 588//1114 585//1114
f 588//1115 589//1115 585//1115
f 585//1116 589//1116 58//1116
f 589//1117 57//1117 58//1117
f 52//1118 590//1118 586//1118
f 590//1119 591//1119 586//1119
f 586//1120 591//1120 587//1120
f 591//1121 592//1121 587//1121
f 587//1122 592//1122 588//1122
f 592//1123 593//1123 588//1123
f 588//1124 593//1124 589//1124
f 593//1125 594//1125 589//1125
f 589//1126 594//1126 57//1126
f 594//1127 56//1127 57//1127
f 53//1128 595//1128 590//1128
f 595//1129 596//1129 590//1129
f 590//1130 596//1130 591//1130
f 596//1131 597//1131 591//1131
f 591//1132 597//1132 592//1132
f 597//1133 598//1133 592//1133
f 592//1134 598//1134 593//1134
f 598//1135 599//1135 593//1135
f 593//1136 599//1136 594//1136
f 599//1137 600//1137 594//1137
f 594//1138 600//1138 56//1138
f 600//1139 55//1139 56//1139
f 54//1140 19//1140 595//1140
f 19//1141 18//1141 595//1141
f 595//1142 18//1142 596//1142
f 18//1143 17//1143 596//1143
f 596//1144 17//1144 597//1144
f 17//1145 16//1145 597//1145
f 597//1146 16//1146 598//1146
f 16//1147 15//1147 598//1147
f 598//1148 15//1148 599//1148
f 15//1149 14//1149 599//1149
f 599//1150 14//1150 600//1150
f 14//1151 13//1151 600//1151
f 600//1152 13//1152 55//1152
f 13//1153 3//1153 55//1153
f 34//1154 47//1154 6//1154
f 35//1155 601//1155 34//1155
f 36//1156 602//1156 35//1156
f 37//1157 604//1157 36//1157
f 38//1158 607//1158 37//1158
f 39//1159 611//1159 38//1159
f 40//1160 616//1160 39//1160
f 34//1161 601//1161 47//1161
f 601//1162 46//1162 47//1162
f 35//1163 602//1163 601//1163
f 602//1164 603//1164 601//1164
f 601//1165 603//1165 46//1165
f 603//1166 45//1166 46//1166
f 36//1167 604//1167 602//1167
f 604//1168 605//1168 602//1168
f 602//1169 605//1169 603//1169
f 605//1170 606//1170 603//1170
f 603//1171 606//1171 45//1171
f 606//1172 44//1172 45//1172
f 37//1173 607//1173 604//1173
f 607//1174 608//1174 604//1174
f 604//1175 608//1175 605//1175
f 608//1176 609//1176 605//1176
f 605//1177 609//1177 606//1177
f 609//1178 610//1178 606//1178
f 606//1179 610//1179 44//1179
f 610//1180 43//1180 44//1180
f 38//1181 611//1181 607//1181
f 611//1182 612//1182 607//1182
f 607//1183 612//1183 608//1183
f 612//1184 613//1184 608//1184
f 608//1185 613//1185 609//1185
f 613//1186 614//1186 609//1186
f 609//1187 614//1187 610//1187
f 614//1188 615//1188 610//1188
f 610//1189 615//1189 43//1189
f 615//1190 42//1190 43//1190
f 39//1191 616//1191 611//1191
f 616//1192 617//1192 611//1192
f 611//1193 617//1193 612//1193
f 617//1194 618//1194 612//1194
f 612//1195 618//1195 613//1195
f 618//1196 619//1196 613//1196
f 613//1197 619//1197 614//1197
f 619//1198 620//1198 614//1198
f 614//1199 620//1199 615//1199
f 620//1200 621//1200 615//1200
f 615//1201 621//1201 42//1201
f 621//1202 41//1202 42//1202
f 40//1203 26//1203 616//1203
f 26//1204 25//1204 616//1204
f 616//1205 25//1205 617//1205
f 25//1206 24//1206 617//1206
f 617//1207 24//1207 618//1207
f 24//1208 23//1208 618//1208
f 618//1209 23//1209 619//1209
f 23//1210 22//1210 619//1210
f 619//1211 22//1211 620//1211
f 22//1212 21//1212 620//1212
f 620//1213 21//1213 621//1213
f 21//1214 20//1214 621//1214
f 621//1215 20//1215 41//1215
f 20//1216 1//1216 41//1216
f 13//1217 33//1217 3//1217
f 14//1218 622//1218 13//1218
f 15//1219 623//1219 14//1219
f 16//1220 625//1220 15//1220
f 17//1221 628//1221 16//1221
f 18//1222 632//1222 17//1222
f 19//1223 637//1223 18//1223
f 13//1224 622//1224 33//1224
f 622//1225 32//1225 33//1225
f 14//1226 623//1226 622//1226
f 623//1227 624//1227 622//1227
f 622//1228 624//1228 32//1228
f 624//1229 31//1229 32//1229
f 15//1230 625//1230 623//1230
f 625//1231 626//1231 623//1231
f 623//1232 626//1232 624//1232
f 626//1233 627//1233 624//1233
f 624//1234 627//1234 31//1234
f 627//1235 30//1235 31//1235
f 16//1236 628//1236 625//1236
f 628//1237 629//1237 625//1237
f 625//1238 629//1238 626//1238
f 629//1239 630//1239 626//1239
f 626//1240 630//1240 627//1240
f 630//1241 631//1241 627//1241
f 627//1242 631//1242 30//1242
f 631//1243 29//1243 30//1243
f 17//1244 632//1244 628//1244
f 632//1245 633//1245 628//1245
f 628//1246 633//1246 629//1246
f 633//1247 634//1247 629//1247
f 629//1248 634//1248 630//1248
f 634//1249 635//1249 630//1249
f 630//1250 635//1250 631//1250
f 635//1251 636//1251 631//1251
f 631//1252 636//1252 29//1252
f 636//1253 28//1253 29//1253
f 18//1254 637//1254 632//1254
f 637//1255 638//1255 632//1255
f 632//1256 638//1256 633//1256
f 638//1257 639//1257 633//1257
f 633//1258 639//1258 634//1258
f 639//1259 640//1259 634//1259
f 634//1260 640//1260 635//1260
f 640//1261 641//1261 635//1261
f 635//1262 641//1262 636//1262
f 641//1263 642//1263 636//1263
f 636//1264 642//1264 28//1264
f 642//1265 27//1265 28//1265
f 19//1266 20//1266 637//1266
f 20//1267 21//1267 637//1267
f 637//1268 21//1268 638//1268
f 21//1269 22//1269 638//1269
f 638//1270 22//1270 639//1270
f 22//1271 23//1271 639//1271
f 639//1272 23//1272 640//1272
f 23//1273 24//1273 640//1273
f 640//1274 24//1274 641//1274
f 24//1275 25//1275 641//1275
f 641//1276 25//1276 642//1276
f 25//1277 26//1277 642//1277
f 642//1278 26//1278 27//1278
f 26//1279 2//1279 27//1279
