# Blender 4.0.2
# www.blender.org
o rock_44
v -0.003110 -0.409196 -0.000744
v 0.297680 -0.158801 0.239937
v -0.129570 -0.204704 0.456144
v -0.461034 -0.218523 -0.017123
v -0.129609 -0.178299 -0.438803
v 0.304866 -0.161409 -0.251995
v 0.108743 0.145724 0.386044
v -0.322049 0.173467 0.265306
v -0.318808 0.165290 -0.259537
v 0.118284 0.163003 -0.408023
v 0.361282 0.152238 0.003482
v -0.005422 0.364295 0.004427
v -0.131904 -0.246546 0.418323
v -0.136510 -0.274233 0.390534
v -0.124876 -0.317058 0.348981
v -0.101000 -0.376694 0.283069
v -0.063316 -0.415645 0.200513
v -0.030565 -0.410861 0.122756
v -0.017840 -0.410284 0.062476
v 0.046043 -0.393733 0.038344
v 0.088140 -0.362545 0.074360
v 0.135111 -0.342887 0.111891
v 0.184569 -0.316520 0.151718
v 0.222437 -0.267209 0.182465
v 0.254355 -0.223450 0.206405
v 0.274541 -0.184257 0.223508
v 0.283208 -0.185807 0.289920
v 0.240036 -0.204206 0.344548
v 0.188641 -0.208464 0.388269
v 0.123879 -0.203830 0.423779
v 0.055906 -0.200005 0.449562
v -0.023634 -0.190288 0.460795
v -0.071512 -0.196163 0.461238
v 0.310166 -0.161994 -0.195796
v 0.320424 -0.164963 -0.135128
v 0.329504 -0.167547 -0.068687
v 0.346261 -0.177862 0.001185
v 0.348106 -0.181607 0.071040
v 0.318770 -0.165248 0.135417
v 0.302980 -0.158411 0.193092
v 0.046691 -0.389391 -0.039121
v 0.088834 -0.348946 -0.074424
v 0.125047 -0.303948 -0.104892
v 0.170679 -0.286833 -0.142621
v 0.216801 -0.266301 -0.180275
v 0.255191 -0.235183 -0.211330
v 0.284316 -0.198606 -0.235066
v -0.434866 -0.249837 -0.016943
v -0.401766 -0.293811 -0.003200
v -0.331337 -0.339921 0.007654
v -0.260407 -0.373924 0.014680
v -0.189690 -0.395746 0.018519
v -0.118806 -0.414631 0.010303
v -0.057211 -0.413069 0.001890
v -0.177101 -0.230841 0.418805
v -0.226329 -0.248760 0.375407
v -0.301444 -0.238635 0.317563
v -0.335474 -0.227024 0.269944
v -0.367617 -0.242086 0.233071
v -0.430546 -0.243328 0.160934
v -0.460632 -0.229111 0.057472
v -0.117304 -0.223920 -0.413019
v -0.112438 -0.263142 -0.376868
v -0.105739 -0.307881 -0.336387
v -0.082297 -0.372706 -0.278345
v -0.050457 -0.397985 -0.193902
v -0.029671 -0.406765 -0.123347
v -0.014006 -0.406880 -0.058533
v -0.443370 -0.218990 -0.083786
v -0.405747 -0.217870 -0.139469
v -0.364026 -0.220585 -0.189427
v -0.323297 -0.218096 -0.257142
v -0.270106 -0.204866 -0.320721
v -0.229620 -0.195625 -0.363729
v -0.182029 -0.188811 -0.412020
v -0.075860 -0.189051 -0.435921
v -0.024127 -0.195235 -0.441141
v 0.045885 -0.205322 -0.436636
v 0.120501 -0.217485 -0.424583
v 0.189313 -0.220403 -0.396173
v 0.245322 -0.209178 -0.351665
v 0.291512 -0.192092 -0.305755
v 0.383127 0.125553 0.034869
v 0.398938 0.089524 0.070441
v 0.405979 0.046366 0.109769
v 0.383277 -0.001383 0.143598
v 0.366898 -0.045090 0.176722
v 0.343228 -0.085997 0.204320
v 0.320145 -0.123507 0.225742
v 0.323034 -0.123400 -0.230488
v 0.337499 -0.084818 -0.203468
v 0.342327 -0.044165 -0.167026
v 0.349851 -0.004606 -0.130528
v 0.352293 0.034337 -0.094304
v 0.354879 0.072499 -0.059062
v 0.348110 0.109874 -0.024522
v 0.086519 0.113991 0.409743
v 0.061534 0.077963 0.428620
v 0.033686 0.041535 0.449669
v 0.005261 -0.000320 0.461406
v -0.025749 -0.051458 0.480928
v -0.056389 -0.104096 0.474603
v -0.085917 -0.150024 0.477760
v 0.316904 -0.139158 0.290344
v 0.312289 -0.098549 0.344128
v 0.282908 -0.046500 0.382323
v 0.240983 0.001010 0.396955
v 0.201284 0.044237 0.397642
v 0.171635 0.077683 0.396622
v 0.141227 0.117793 0.397215
v -0.366932 0.149072 0.255383
v -0.412545 0.104063 0.230014
v -0.434915 0.043881 0.195436
v -0.445929 -0.007048 0.168108
v -0.464976 -0.065215 0.129515
v -0.475907 -0.115011 0.080300
v -0.479524 -0.165803 0.030674
v -0.163934 -0.166302 0.462753
v -0.212169 -0.112360 0.469374
v -0.256118 -0.037721 0.441797
v -0.268170 0.002181 0.405255
v -0.284466 0.041009 0.384924
v -0.299262 0.091081 0.347400
v -0.312270 0.132750 0.307921
v -0.321658 0.142681 -0.298061
v -0.310093 0.090936 -0.346906
v -0.279502 0.042028 -0.374109
v -0.256574 0.000273 -0.391140
v -0.232056 -0.046700 -0.410791
v -0.197838 -0.096037 -0.424534
v -0.167290 -0.134430 -0.434181
v -0.471900 -0.159554 -0.060262
v -0.465588 -0.097784 -0.097780
v -0.450632 -0.031834 -0.126155
v -0.439867 -0.000246 -0.147721
v -0.436316 0.045286 -0.186570
v -0.400168 0.104887 -0.229687
v -0.351274 0.142855 -0.248786
v 0.151700 0.131099 -0.417044
v 0.186441 0.091161 -0.417058
v 0.215924 0.044560 -0.400820
v 0.246608 0.003630 -0.385677
v 0.283422 -0.043824 -0.371877
v 0.306810 -0.094332 -0.340636
v 0.314209 -0.136137 -0.298219
v -0.105499 -0.147154 -0.464636
v -0.074501 -0.106702 -0.489064
v -0.038502 -0.057269 -0.511149
v 0.000813 -0.002531 -0.509103
v 0.035696 0.045465 -0.491984
v 0.069081 0.091920 -0.470715
v 0.097801 0.133740 -0.446404
v 0.362453 0.167764 0.053947
v 0.339628 0.174086 0.111969
v 0.316463 0.181995 0.174774
v 0.280295 0.181689 0.235463
v 0.234878 0.173195 0.285264
v 0.195177 0.170445 0.333014
v 0.146704 0.154660 0.359704
v 0.063987 0.153384 0.389946
v 0.012833 0.167724 0.397712
v -0.046957 0.182146 0.399754
v -0.109474 0.184505 0.383667
v -0.168824 0.182436 0.361169
v -0.232975 0.188714 0.340203
v -0.285053 0.181295 0.303448
v -0.342775 0.186118 0.205584
v -0.347110 0.184163 0.134122
v -0.340273 0.172915 0.065112
v -0.341959 0.168312 -0.000455
v -0.349907 0.171398 -0.070133
v -0.347995 0.176093 -0.138082
v -0.336819 0.175973 -0.208445
v -0.285629 0.171258 -0.290818
v -0.247091 0.186881 -0.340099
v -0.185968 0.198134 -0.380975
v -0.115612 0.197194 -0.401307
v -0.051343 0.193065 -0.412352
v 0.011743 0.193836 -0.427963
v 0.072016 0.182299 -0.426136
v 0.153889 0.163928 -0.368792
v 0.186619 0.160097 -0.320942
v 0.233315 0.171433 -0.280039
v 0.274043 0.179762 -0.229889
v 0.285099 0.163439 -0.165746
v 0.301414 0.150820 -0.100920
v 0.331040 0.151127 -0.045202
v 0.014540 0.341883 0.054870
v 0.031773 0.324513 0.108988
v 0.047532 0.298733 0.167448
v 0.063855 0.276022 0.226257
v 0.078676 0.247411 0.279764
v 0.092612 0.218426 0.328170
v 0.101953 0.178733 0.360470
v 0.330439 0.179889 0.001591
v 0.297325 0.216816 0.000284
v 0.263374 0.260371 -0.000057
v 0.220106 0.304789 0.001516
v 0.163613 0.335109 0.004437
v 0.107978 0.363719 0.007613
v 0.046493 0.372019 0.008636
v -0.044169 0.344733 0.033215
v -0.083286 0.323426 0.064389
v -0.128973 0.310699 0.101879
v -0.174228 0.290975 0.137600
v -0.217621 0.270127 0.172959
v -0.261984 0.248730 0.211096
v -0.301159 0.215068 0.243799
v -0.049609 0.360851 -0.027553
v -0.085094 0.365913 -0.057993
v -0.141904 0.382543 -0.108239
v -0.203149 0.345002 -0.153745
v -0.247808 0.299492 -0.189692
v -0.277152 0.246093 -0.218378
v -0.303667 0.199854 -0.244062
v 0.005501 0.385832 -0.049469
v 0.022582 0.409661 -0.116486
v 0.048244 0.411228 -0.194193
v 0.079764 0.366580 -0.274171
v 0.096545 0.298236 -0.315716
v 0.104591 0.243360 -0.347441
v 0.111113 0.199485 -0.379334
v 0.069715 0.396772 -0.053737
v 0.135171 0.368430 -0.055490
v 0.094545 0.409431 -0.125874
v 0.198301 0.340362 -0.060071
v 0.168547 0.377106 -0.132223
v 0.124407 0.392146 -0.215181
v 0.251120 0.292638 -0.062163
v 0.230614 0.324666 -0.133839
v 0.192392 0.337106 -0.213382
v 0.142508 0.317260 -0.275885
v 0.280747 0.234793 -0.058472
v 0.267248 0.259827 -0.125664
v 0.241928 0.278595 -0.198672
v 0.191026 0.264465 -0.260643
v 0.145509 0.247059 -0.304523
v 0.307318 0.187084 -0.051916
v 0.280324 0.194392 -0.112512
v 0.275197 0.222051 -0.183975
v 0.241484 0.224801 -0.247043
v 0.186236 0.202286 -0.289930
v 0.148633 0.199829 -0.335716
v -0.035796 0.389884 -0.087181
v -0.015780 0.409180 -0.160199
v -0.077968 0.394614 -0.129970
v 0.009838 0.399082 -0.253767
v -0.069036 0.402548 -0.222125
v -0.141746 0.382446 -0.187284
v 0.029837 0.332055 -0.317907
v -0.046473 0.349800 -0.305152
v -0.123352 0.352241 -0.274773
v -0.197556 0.338723 -0.233761
v 0.045108 0.273601 -0.357503
v -0.024039 0.283752 -0.348868
v -0.095491 0.295953 -0.334465
v -0.172177 0.297890 -0.307253
v -0.237809 0.274938 -0.262665
v 0.059146 0.223922 -0.392899
v -0.005747 0.233351 -0.387749
v -0.071131 0.241213 -0.377836
v -0.143180 0.249816 -0.361876
v -0.214284 0.241900 -0.327170
v -0.268638 0.217884 -0.282581
v -0.085132 0.333019 0.004185
v -0.130439 0.356539 -0.025175
v -0.128909 0.324688 0.039168
v -0.205072 0.358091 -0.074885
v -0.191810 0.334942 0.013298
v -0.179432 0.299613 0.074613
v -0.254394 0.310140 -0.118480
v -0.253840 0.313644 -0.033338
v -0.233178 0.293929 0.047670
v -0.219774 0.274321 0.106059
v -0.288998 0.261593 -0.153708
v -0.293238 0.268412 -0.078388
v -0.293804 0.275713 0.003945
v -0.275356 0.262571 0.076717
v -0.268767 0.258173 0.142630
v -0.317102 0.212848 -0.182908
v -0.326309 0.220488 -0.113350
v -0.330400 0.222718 -0.037953
v -0.326402 0.221174 0.038255
v -0.318177 0.222746 0.105454
v -0.316933 0.227579 0.179616
v -0.025528 0.328250 0.088013
v -0.070853 0.320937 0.130064
v -0.010263 0.323281 0.154215
v -0.117277 0.301164 0.170146
v -0.056214 0.307193 0.198366
v 0.006352 0.301158 0.217991
v -0.169520 0.291494 0.213870
v -0.106375 0.296112 0.245834
v -0.038266 0.272564 0.258571
v 0.023282 0.262641 0.273074
v -0.217815 0.265808 0.252842
v -0.155948 0.271349 0.287535
v -0.086066 0.259002 0.306184
v -0.020481 0.243994 0.317358
v 0.038672 0.224641 0.320097
v -0.256675 0.227469 0.283039
v -0.199445 0.233894 0.319396
v -0.133639 0.230906 0.344469
v -0.066314 0.220216 0.357507
v -0.003262 0.213624 0.370092
v 0.053446 0.193047 0.364494
v 0.066213 0.337485 0.059566
v 0.085742 0.321130 0.117093
v 0.123973 0.328989 0.061748
v 0.104892 0.299435 0.180683
v 0.148021 0.312622 0.123590
v 0.184871 0.311311 0.062959
v 0.120409 0.264731 0.238202
v 0.168523 0.286068 0.188849
v 0.206181 0.283905 0.125880
v 0.245799 0.286089 0.062584
v 0.134176 0.230795 0.289566
v 0.179866 0.246409 0.245076
v 0.222955 0.253038 0.187200
v 0.264775 0.256657 0.125727
v 0.288755 0.240948 0.059242
v 0.143337 0.193153 0.331613
v 0.187807 0.205585 0.291782
v 0.237364 0.220625 0.246223
v 0.279164 0.223878 0.185522
v 0.304361 0.211606 0.118323
v 0.323390 0.198748 0.055947
v 0.321472 0.109379 -0.077974
v 0.322705 0.071605 -0.115599
v 0.301801 0.116126 -0.141315
v 0.324505 0.035214 -0.153746
v 0.303811 0.080157 -0.181261
v 0.289046 0.128381 -0.207454
v 0.320472 -0.005157 -0.190623
v 0.300355 0.040708 -0.217719
v 0.288206 0.087504 -0.246858
v 0.262204 0.130727 -0.264894
v 0.326429 -0.048181 -0.233719
v 0.296221 -0.003486 -0.254973
v 0.279273 0.042648 -0.283430
v 0.252613 0.085773 -0.303714
v 0.223168 0.126984 -0.318613
v 0.328382 -0.091808 -0.272183
v 0.311440 -0.046561 -0.304031
v 0.280227 0.000591 -0.325277
v 0.251201 0.044964 -0.345885
v 0.225945 0.091671 -0.368378
v 0.188555 0.130386 -0.371221
v 0.041753 0.147138 -0.460267
v 0.007354 0.100522 -0.484196
v -0.024684 0.153620 -0.453797
v -0.031596 0.048200 -0.500416
v -0.067616 0.108055 -0.481156
v -0.091841 0.149516 -0.430742
v -0.073503 -0.001760 -0.512871
v -0.111286 0.053589 -0.481597
v -0.135053 0.098252 -0.437911
v -0.158463 0.144441 -0.412579
v -0.112584 -0.060909 -0.499444
v -0.151534 0.003503 -0.480305
v -0.173759 0.054264 -0.437661
v -0.192921 0.090279 -0.406079
v -0.220131 0.136554 -0.380202
v -0.144784 -0.107040 -0.463769
v -0.182604 -0.055256 -0.457120
v -0.208964 0.005217 -0.431263
v -0.226437 0.048569 -0.402709
v -0.249389 0.088527 -0.379964
v -0.278386 0.141274 -0.342302
v -0.377663 0.151825 -0.183413
v -0.412300 0.104372 -0.144359
v -0.368964 0.136416 -0.101487
v -0.429717 0.049461 -0.117840
v -0.384088 0.103448 -0.076352
v -0.357587 0.132983 -0.038357
v -0.433286 0.002011 -0.097077
v -0.418917 0.057736 -0.053220
v -0.389352 0.105394 -0.006534
v -0.355128 0.137989 0.031687
v -0.458185 -0.048495 -0.061943
v -0.446815 0.001621 -0.014192
v -0.432119 0.059543 0.033920
v -0.400878 0.109027 0.073337
v -0.367874 0.145775 0.103057
v -0.474657 -0.108953 -0.015174
v -0.465190 -0.061066 0.031170
v -0.464963 -0.001647 0.082085
v -0.440492 0.058034 0.122802
v -0.409462 0.108137 0.149636
v -0.378522 0.152221 0.178723
v -0.267364 0.135307 0.342418
v -0.249804 0.094123 0.382635
v -0.205641 0.137202 0.371874
v -0.233886 0.048140 0.415772
v -0.187867 0.097244 0.404483
v -0.147402 0.137902 0.391769
v -0.217436 0.006713 0.445584
v -0.173332 0.055179 0.446461
v -0.127969 0.101277 0.438699
v -0.085350 0.144068 0.421911
v -0.181542 -0.053856 0.480604
v -0.141988 0.000873 0.486083
v -0.093668 0.052077 0.467054
v -0.054017 0.093311 0.444473
v -0.019384 0.134190 0.424012
v -0.130635 -0.113741 0.486842
v -0.094394 -0.059756 0.487129
v -0.057506 -0.000282 0.482326
v -0.022631 0.044576 0.455996
v 0.008054 0.084356 0.435707
v 0.037932 0.122821 0.416990
v 0.186470 0.126825 0.370138
v 0.217899 0.089065 0.364810
v 0.230086 0.132475 0.327415
v 0.265710 0.051631 0.369579
v 0.271088 0.096889 0.322829
v 0.277005 0.140228 0.279844
v 0.301087 0.000579 0.346614
v 0.310419 0.049578 0.306690
v 0.316608 0.097113 0.265494
v 0.322585 0.144591 0.222581
v 0.328574 -0.050061 0.314559
v 0.333830 -0.000450 0.277400
v 0.347403 0.047890 0.242486
v 0.364660 0.100726 0.205498
v 0.353935 0.141342 0.157086
v 0.329599 -0.093934 0.266434
v 0.350864 -0.049643 0.244113
v 0.365446 -0.002090 0.211658
v 0.392201 0.048745 0.179795
v 0.393834 0.097889 0.137316
v 0.388361 0.141228 0.095154
v 0.127637 0.090886 -0.443832
v 0.166376 0.047577 -0.450117
v 0.103486 0.048890 -0.481309
v 0.198676 0.002787 -0.434390
v 0.135837 -0.000718 -0.471023
v 0.068647 -0.002323 -0.496063
v 0.235666 -0.045805 -0.424498
v 0.176266 -0.049371 -0.473096
v 0.101049 -0.051076 -0.492152
v 0.030388 -0.054422 -0.507649
v 0.267982 -0.102833 -0.400805
v 0.208033 -0.109822 -0.447324
v 0.136267 -0.113171 -0.480694
v 0.059061 -0.110033 -0.491069
v -0.012570 -0.111065 -0.496817
v 0.288334 -0.155648 -0.358619
v 0.235057 -0.167750 -0.411325
v 0.164628 -0.167015 -0.442352
v 0.089973 -0.166572 -0.465228
v 0.015747 -0.157302 -0.465943
v -0.048551 -0.154440 -0.467285
v -0.357606 0.105847 -0.291272
v -0.343166 0.047697 -0.336073
v -0.406529 0.057835 -0.278528
v -0.308729 -0.004348 -0.359112
v -0.377208 -0.009127 -0.314747
v -0.440888 -0.006781 -0.234901
v -0.276650 -0.047373 -0.368750
v -0.335484 -0.055493 -0.333706
v -0.399987 -0.057802 -0.276287
v -0.452765 -0.043222 -0.189544
v -0.250039 -0.094831 -0.389724
v -0.296139 -0.095885 -0.345364
v -0.359805 -0.102216 -0.299818
v -0.426666 -0.109825 -0.233896
v -0.461429 -0.103560 -0.151187
v -0.215484 -0.143531 -0.404691
v -0.262989 -0.149637 -0.358020
v -0.316269 -0.158807 -0.315106
v -0.375388 -0.175703 -0.247928
v -0.419972 -0.185733 -0.174948
v -0.450844 -0.172210 -0.118308
v -0.356816 0.101592 0.305266
v -0.410490 0.042425 0.284366
v -0.343632 0.045136 0.349655
v -0.428469 -0.020530 0.242973
v -0.377899 -0.026812 0.320608
v -0.319873 -0.013803 0.376189
v -0.443878 -0.072286 0.210529
v -0.399044 -0.081154 0.283942
v -0.350273 -0.072864 0.342577
v -0.307823 -0.046683 0.389424
v -0.455149 -0.128673 0.171549
v -0.412856 -0.133983 0.246637
v -0.369849 -0.131966 0.308051
v -0.340163 -0.111556 0.351206
v -0.289984 -0.109056 0.425470
v -0.470123 -0.179918 0.121855
v -0.426066 -0.183637 0.211597
v -0.374236 -0.189449 0.271979
v -0.343649 -0.180373 0.306238
v -0.307423 -0.190376 0.376287
v -0.223906 -0.187730 0.438087
v 0.117695 0.077803 0.417609
v 0.093695 0.039915 0.433464
v 0.144973 0.037579 0.412394
v 0.065656 -0.000605 0.458424
v 0.122705 0.003692 0.430293
v 0.178206 0.005223 0.418778
v 0.032447 -0.047131 0.466270
v 0.094944 -0.041949 0.455156
v 0.159605 -0.039419 0.443269
v 0.217946 -0.044708 0.417801
v -0.004604 -0.100012 0.471592
v 0.059154 -0.093636 0.464869
v 0.128423 -0.097359 0.460026
v 0.194498 -0.094310 0.429846
v 0.258285 -0.100810 0.403333
v -0.038464 -0.141636 0.466332
v 0.019490 -0.144800 0.467996
v 0.089574 -0.149730 0.453832
v 0.163597 -0.160423 0.439238
v 0.227955 -0.162778 0.406430
v 0.284478 -0.159124 0.354226
v 0.381800 0.082822 0.003938
v 0.412642 0.047453 0.037748
v 0.377847 0.040746 -0.030810
v 0.410645 -0.000302 0.076325
v 0.402902 -0.000370 0.001092
v 0.374787 -0.003184 -0.068157
v 0.388466 -0.046148 0.113103
v 0.411845 -0.049826 0.039164
v 0.397428 -0.049209 -0.037087
v 0.368808 -0.046278 -0.104398
v 0.366727 -0.089732 0.147236
v 0.413707 -0.104045 0.081356
v 0.398605 -0.099389 0.000598
v 0.382264 -0.094397 -0.073443
v 0.346368 -0.085301 -0.137488
v 0.337725 -0.128806 0.174592
v 0.364283 -0.139559 0.111536
v 0.386222 -0.148951 0.038653
v 0.361906 -0.135304 -0.035205
v 0.348389 -0.130764 -0.105400
v 0.330484 -0.125501 -0.170184
v 0.254090 -0.227334 -0.280836
v 0.212608 -0.259171 -0.250761
v 0.204997 -0.248199 -0.324177
v 0.167375 -0.288730 -0.214570
v 0.158183 -0.276426 -0.287410
v 0.144479 -0.257897 -0.362109
v 0.118098 -0.305681 -0.171172
v 0.110830 -0.307050 -0.247349
v 0.098214 -0.295086 -0.326746
v 0.073807 -0.256513 -0.394047
v 0.076870 -0.332691 -0.134117
v 0.064583 -0.333197 -0.203649
v 0.047490 -0.326572 -0.282584
v 0.021752 -0.297978 -0.358939
v -0.005113 -0.244452 -0.409572
v 0.035643 -0.375949 -0.100772
v 0.022076 -0.369262 -0.164799
v 0.000716 -0.363840 -0.240680
v -0.030045 -0.333361 -0.319593
v -0.057627 -0.274396 -0.372075
v -0.069264 -0.225782 -0.407643
v -0.177822 -0.242037 -0.379451
v -0.167857 -0.282674 -0.340688
v -0.227338 -0.241975 -0.332165
v -0.162161 -0.334995 -0.289295
v -0.224279 -0.300008 -0.288706
v -0.279072 -0.249894 -0.275612
v -0.139273 -0.395767 -0.216354
v -0.209690 -0.339511 -0.219284
v -0.274324 -0.301812 -0.217044
v -0.326775 -0.245872 -0.203861
v -0.098578 -0.407640 -0.132388
v -0.185921 -0.394996 -0.149771
v -0.254543 -0.341082 -0.151768
v -0.317838 -0.294337 -0.153415
v -0.372539 -0.242536 -0.152644
v -0.072703 -0.418835 -0.058557
v -0.147722 -0.422880 -0.062181
v -0.231909 -0.390442 -0.067355
v -0.297880 -0.346680 -0.075020
v -0.371115 -0.305058 -0.080259
v -0.420121 -0.245169 -0.082953
v -0.427974 -0.280726 0.070977
v -0.358378 -0.323637 0.090015
v -0.360541 -0.289786 0.172909
v -0.288347 -0.353217 0.090838
v -0.308038 -0.307462 0.171647
v -0.321156 -0.274043 0.224818
v -0.218711 -0.373875 0.079782
v -0.261278 -0.344279 0.155207
v -0.283656 -0.300591 0.218263
v -0.296730 -0.272837 0.276937
v -0.157612 -0.401599 0.069312
v -0.193172 -0.386707 0.142233
v -0.223896 -0.347409 0.224290
v -0.236142 -0.301916 0.292640
v -0.228034 -0.269804 0.341166
v -0.081746 -0.416538 0.062689
v -0.113105 -0.416294 0.133982
v -0.148264 -0.385423 0.217158
v -0.170947 -0.340248 0.296404
v -0.181106 -0.286471 0.353210
v -0.177095 -0.260244 0.381312
v 0.288435 -0.197813 -0.173730
v 0.294841 -0.197221 -0.107848
v 0.258163 -0.232186 -0.146331
v 0.301780 -0.199545 -0.035562
v 0.255690 -0.222103 -0.073094
v 0.210923 -0.250571 -0.109052
v 0.305702 -0.205042 0.035764
v 0.262812 -0.231668 0.001068
v 0.212703 -0.251015 -0.035604
v 0.170873 -0.284273 -0.072208
v 0.289034 -0.194081 0.104375
v 0.265414 -0.240141 0.074012
v 0.221847 -0.267800 0.038663
v 0.174242 -0.291109 0.000509
v 0.134421 -0.331071 -0.037718
v 0.279710 -0.188371 0.169106
v 0.254961 -0.226563 0.142849
v 0.230123 -0.282647 0.114126
v 0.185364 -0.315903 0.075999
v 0.138373 -0.344834 0.037135
v 0.091304 -0.366603 -0.001143
v -0.083834 -0.242800 0.434672
v -0.071476 -0.295866 0.396221
v -0.003578 -0.257589 0.433759
v -0.037620 -0.355282 0.340376
v 0.028226 -0.307767 0.372691
v 0.082491 -0.258460 0.404365
v -0.004110 -0.392096 0.254860
v 0.054316 -0.338944 0.298378
v 0.099873 -0.295909 0.333773
v 0.153103 -0.253956 0.373980
v 0.019349 -0.390691 0.164921
v 0.068792 -0.363513 0.216354
v 0.116545 -0.319499 0.259550
v 0.168449 -0.286657 0.300473
v 0.210717 -0.234738 0.325931
v 0.032273 -0.384055 0.102641
v 0.076197 -0.358275 0.138351
v 0.126835 -0.335972 0.183706
v 0.175772 -0.298143 0.222003
v 0.222285 -0.258710 0.254077
v 0.256549 -0.217357 0.275439
vn 0.2666 -0.9627 0.0456
vn 0.7134 -0.6968 0.0749
vn 0.0714 -0.9974 -0.0005
vn 0.0687 -0.9962 -0.0529
vn 0.3036 -0.9480 -0.0952
vn 0.8564 -0.5079 0.0927
vn -0.0314 -0.3456 0.9378
vn -0.9531 -0.3003 -0.0375
vn -0.4001 -0.2508 -0.8815
vn 0.9273 -0.3739 -0.0170
vn 0.8221 -0.5614 -0.0948
vn -0.1256 -0.2764 0.9528
vn -0.9635 -0.2492 -0.0979
vn -0.4710 -0.3179 -0.8229
vn 0.9103 -0.4118 -0.0412
vn 0.3446 0.6182 0.7064
vn -0.6405 0.5812 0.5020
vn -0.7733 0.5084 -0.3789
vn 0.4958 0.5950 -0.6326
vn 0.6245 0.6690 -0.4032
vn -0.1652 0.9269 0.3369
vn 0.1288 0.9044 0.4069
vn 0.4534 0.8529 0.2590
vn 0.4614 0.8292 0.3156
vn 0.7036 0.6778 0.2133
vn 0.7884 0.6143 -0.0345
vn 0.7289 0.6455 -0.2281
vn -0.1384 0.9371 0.3204
vn -0.1408 0.9436 0.2996
vn 0.3915 0.8896 0.2351
vn 0.3871 0.8762 0.2870
vn 0.0268 0.9830 0.1817
vn 0.0061 0.9997 0.0222
vn 0.4064 0.8668 0.2891
vn 0.4072 0.8708 0.2756
vn 0.4046 0.8723 0.2746
vn 0.3967 0.9169 -0.0448
vn 0.2108 0.9705 -0.1173
vn 0.0960 0.8847 -0.4561
vn 0.6629 0.7256 0.1844
vn 0.6671 0.7324 0.1364
vn 0.6425 0.7568 0.1204
vn 0.6313 0.7530 -0.1856
vn 0.6205 0.7602 -0.1923
vn 0.5116 0.6123 -0.6028
vn 0.4713 0.6213 -0.6260
vn 0.4086 0.5453 -0.7319
vn 0.8866 0.4581 0.0631
vn 0.8902 0.4554 -0.0092
vn 0.8719 0.4887 -0.0311
vn 0.8659 0.4665 -0.1804
vn 0.7665 0.5791 -0.2777
vn 0.6613 0.4003 -0.6344
vn 0.6462 0.4076 -0.6452
vn 0.5881 0.3269 -0.7398
vn 0.5319 0.3392 -0.7759
vn 0.6234 0.4578 -0.6338
vn 0.8750 0.4733 -0.1021
vn 0.8445 0.4257 -0.3249
vn 0.9766 0.1683 -0.1335
vn 0.9804 0.1971 0.0060
vn 0.8674 0.4631 -0.1818
vn 0.8243 0.3747 -0.4243
vn 0.5866 0.5388 -0.6046
vn 0.4855 0.3416 -0.8047
vn 0.5988 0.3031 -0.7414
vn 0.6853 0.4324 -0.5860
vn 0.6227 0.4595 -0.6333
vn 0.6514 0.5071 -0.5644
vn 0.8229 0.4887 -0.2899
vn 0.7907 0.4427 -0.4229
vn 0.8762 0.3309 -0.3504
vn 0.9050 0.3981 -0.1503
vn 0.9864 0.1644 -0.0071
vn 0.9827 0.1231 -0.1381
vn 0.8057 0.4255 -0.4121
vn 0.7217 0.2807 -0.6327
vn 0.4426 0.4216 -0.7914
vn 0.4880 0.5198 -0.7012
vn 0.6838 0.4362 -0.5850
vn 0.7226 0.5226 -0.4524
vn 0.6146 0.5813 -0.5333
vn 0.6059 0.5619 -0.5631
vn -0.2905 0.9074 0.3037
vn -0.1730 0.9411 0.2905
vn -0.0258 0.9996 0.0116
vn 0.2997 0.8784 -0.3723
vn 0.3035 0.5482 -0.7793
vn 0.3866 0.5034 -0.7727
vn 0.4475 0.5684 -0.6904
vn -0.2549 0.8913 0.3749
vn -0.2060 0.8977 0.3894
vn -0.2282 0.9549 0.1898
vn -0.1181 0.9676 0.2233
vn -0.2416 0.9093 0.3387
vn -0.0512 0.9294 0.3655
vn -0.1030 0.9855 -0.1346
vn 0.0007 0.9942 -0.1071
vn -0.1975 0.9781 0.0651
vn -0.2391 0.9691 0.0603
vn -0.1860 0.9825 -0.0016
vn -0.5215 0.8533 -0.0021
vn 0.1240 0.7051 -0.6982
vn 0.0426 0.6973 -0.7155
vn -0.1904 0.8044 -0.5628
vn -0.1971 0.8024 -0.5633
vn -0.4091 0.8326 -0.3734
vn -0.3610 0.8555 -0.3712
vn -0.5585 0.8230 -0.1036
vn -0.6673 0.7374 -0.1045
vn 0.3221 0.5872 -0.7426
vn -0.0220 0.5568 -0.8304
vn -0.0120 0.5491 -0.8357
vn -0.0793 0.5313 -0.8434
vn -0.2659 0.6363 -0.7242
vn -0.2402 0.6478 -0.7230
vn -0.4330 0.7161 -0.5474
vn -0.5800 0.6104 -0.5394
vn -0.7374 0.6031 -0.3040
vn -0.7596 0.5778 -0.2985
vn 0.4209 0.6023 -0.6783
vn 0.0204 0.5840 -0.8115
vn -0.0098 0.6086 -0.7935
vn -0.0492 0.5988 -0.7994
vn -0.0570 0.6043 -0.7947
vn -0.1075 0.5876 -0.8020
vn -0.2350 0.6644 -0.7095
vn -0.4120 0.5643 -0.7154
vn -0.5770 0.6222 -0.5291
vn -0.6636 0.5395 -0.5183
vn -0.7736 0.5360 -0.3381
vn -0.7086 0.6066 -0.3605
vn 0.4608 0.6364 -0.6186
vn 0.1461 0.6445 -0.7505
vn 0.0504 0.7232 -0.6887
vn -0.1884 0.6583 -0.7288
vn -0.0566 0.5662 -0.8223
vn -0.1070 0.5499 -0.8284
vn -0.1159 0.5560 -0.8231
vn -0.2340 0.5015 -0.8329
vn -0.4056 0.5929 -0.6957
vn -0.5459 0.4859 -0.6825
vn -0.6668 0.5225 -0.5314
vn -0.7845 0.3733 -0.4951
vn -0.7668 0.3718 -0.5232
vn -0.6302 0.5301 -0.5673
vn -0.2670 0.9253 0.2693
vn -0.2651 0.8524 0.4508
vn 0.0172 0.9549 0.2966
vn -0.4280 0.8899 -0.1581
vn -0.6321 0.7557 -0.1715
vn -0.7707 0.5731 -0.2785
vn -0.7513 0.5924 -0.2909
vn -0.4351 0.8599 0.2670
vn -0.3729 0.9145 0.1572
vn 0.1539 0.8734 0.4621
vn 0.1780 0.8836 0.4331
vn -0.0606 0.9854 0.1589
vn -0.0929 0.9718 0.2167
vn -0.1920 0.9287 0.3172
vn -0.1623 0.9481 0.2733
vn -0.0367 0.8953 0.4440
vn -0.0692 0.8583 0.5085
vn -0.3150 0.9264 0.2063
vn -0.2905 0.9445 0.1535
vn -0.6221 0.7698 -0.1429
vn -0.6852 0.7279 -0.0255
vn -0.4982 0.8173 0.2895
vn -0.5162 0.7926 0.3246
vn -0.3434 0.7821 0.5200
vn -0.2758 0.8903 0.3623
vn -0.4335 0.8873 0.1575
vn -0.3850 0.9202 0.0701
vn -0.7422 0.6493 -0.1657
vn -0.7744 0.6247 -0.1001
vn -0.7426 0.6694 -0.0227
vn -0.7188 0.6921 -0.0663
vn -0.4772 0.8181 0.3208
vn -0.4492 0.8523 0.2678
vn -0.3756 0.8491 0.3714
vn -0.2510 0.9639 0.0894
vn -0.2656 0.9616 0.0688
vn -0.3137 0.9359 0.1602
vn -0.7489 0.6001 -0.2810
vn -0.8067 0.5663 -0.1690
vn -0.7835 0.6134 -0.0996
vn -0.8001 0.5967 -0.0611
vn -0.7992 0.5982 -0.0585
vn -0.8414 0.5376 0.0550
vn -0.7262 0.6204 0.2961
vn -0.6568 0.7515 0.0628
vn -0.6343 0.7646 0.1144
vn -0.5598 0.8275 -0.0445
vn -0.4353 0.8850 0.1652
vn -0.4804 0.8311 0.2801
vn -0.7451 0.6001 -0.2912
vn -0.8327 0.5375 -0.1332
vn -0.8458 0.5065 -0.1676
vn -0.8996 0.4367 0.0049
vn -0.9196 0.3880 -0.0614
vn -0.9507 0.2854 0.1211
vn -0.9681 0.2441 0.0557
vn -0.9603 0.2789 0.0051
vn -0.9381 0.3293 0.1071
vn -0.8443 0.5093 -0.1667
vn -0.8085 0.5879 -0.0248
vn -0.8379 0.5447 0.0359
vn -0.7145 0.6326 0.2989
vn -0.7362 0.5635 0.3748
vn -0.1200 0.8888 0.4424
vn -0.2187 0.9114 0.3485
vn -0.2088 0.9750 0.0765
vn -0.2713 0.9458 0.1786
vn -0.4199 0.9074 0.0197
vn -0.3998 0.9153 0.0485
vn -0.4796 0.8312 0.2810
vn -0.0677 0.9488 0.3084
vn -0.0559 0.9453 0.3212
vn -0.1065 0.9926 0.0578
vn -0.0750 0.9929 0.0918
vn 0.0411 0.9970 0.0654
vn 0.3099 0.8980 0.3125
vn -0.2530 0.9513 0.1762
vn -0.2023 0.9508 0.2347
vn -0.1257 0.9670 0.2215
vn -0.0127 0.9437 0.3306
vn 0.3355 0.9136 0.2295
vn 0.3578 0.9002 0.2483
vn -0.1785 0.9839 0.0043
vn -0.1142 0.9900 0.0825
vn -0.1370 0.9869 0.0856
vn 0.2201 0.8725 0.4362
vn -0.0791 0.8537 0.5146
vn -0.0031 0.8191 0.5737
vn 0.2901 0.8239 0.4869
vn 0.1929 0.8865 0.4206
vn -0.4389 0.8973 0.0475
vn -0.2496 0.9214 0.2980
vn -0.2171 0.9307 0.2945
vn 0.0118 0.8535 0.5209
vn 0.2124 0.8627 0.4590
vn 0.1396 0.9066 0.3983
vn 0.0454 0.9038 0.4255
vn 0.2331 0.7922 0.5639
vn 0.1463 0.7923 0.5924
vn 0.0230 0.8606 0.5087
vn -0.5601 0.7823 0.2725
vn -0.3949 0.7812 0.4836
vn -0.3422 0.8069 0.4814
vn -0.2011 0.7597 0.6184
vn -0.0117 0.8130 0.5821
vn 0.0107 0.7997 0.6002
vn 0.0868 0.8106 0.5792
vn -0.0096 0.8652 0.5014
vn 0.2656 0.8704 0.4146
vn 0.3420 0.8157 0.4666
vn 0.0075 0.8159 0.5781
vn 0.2504 0.6458 0.7212
vn -0.6157 0.6027 0.5075
vn -0.5194 0.5917 0.6165
vn -0.4652 0.6311 0.6207
vn -0.2146 0.5354 0.8169
vn -0.2901 0.4932 0.8201
vn -0.3207 0.5082 0.7993
vn -0.0503 0.6291 0.7757
vn -0.1536 0.6980 0.6994
vn -0.0603 0.7276 0.6833
vn 0.1606 0.5496 0.8198
vn 0.2817 0.5653 0.7753
vn 0.2772 0.5700 0.7735
vn 0.2332 0.5683 0.7891
vn 0.1733 0.6252 0.7610
vn -0.1670 0.8748 0.4548
vn 0.0550 0.9557 0.2892
vn -0.0034 0.9146 0.4043
vn -0.0995 0.9186 0.3824
vn 0.0818 0.8881 0.4522
vn 0.1767 0.8660 0.4677
vn 0.2729 0.6450 0.7137
vn 0.0202 0.8311 0.5557
vn 0.1225 0.8428 0.5241
vn 0.0203 0.9635 0.2670
vn 0.1332 0.9643 0.2289
vn 0.1057 0.8509 0.5146
vn 0.4386 0.8097 0.3899
vn -0.0913 0.9338 0.3461
vn 0.0991 0.9505 0.2944
vn 0.1103 0.9706 0.2140
vn 0.2731 0.9509 0.1455
vn 0.2625 0.9234 0.2802
vn 0.4724 0.8629 0.1793
vn 0.0660 0.8621 0.5024
vn 0.1187 0.8640 0.4893
vn 0.1532 0.9312 0.3308
vn 0.4244 0.8774 0.2237
vn 0.4225 0.8746 0.2379
vn 0.3704 0.8910 0.2626
vn 0.3803 0.9169 0.1208
vn 0.7121 0.6967 -0.0863
vn 0.1616 0.8427 0.5135
vn 0.2012 0.8412 0.5019
vn 0.1902 0.8199 0.5399
vn 0.4753 0.7613 0.4411
vn 0.5050 0.8185 0.2739
vn 0.3998 0.8580 0.3225
vn 0.4050 0.8693 0.2835
vn 0.7245 0.6820 0.1002
vn 0.7190 0.6902 -0.0817
vn 0.7819 0.6085 -0.1354
vn 0.3278 0.7383 0.5895
vn 0.3230 0.7390 0.5912
vn 0.3230 0.7391 0.5911
vn 0.3199 0.7396 0.5921
vn 0.3731 0.8486 0.3750
vn 0.4400 0.8281 0.3474
vn 0.4399 0.8279 0.3480
vn 0.7541 0.6352 0.1668
vn 0.7555 0.6440 0.1203
vn 0.7727 0.6258 0.1067
vn 0.7586 0.6342 -0.1493
vn 0.7402 0.6591 -0.1327
vn 0.3228 0.5762 0.7509
vn 0.2358 0.5862 0.7750
vn 0.3127 0.7498 0.5831
vn 0.5396 0.6860 0.4881
vn 0.4714 0.5456 0.6929
vn 0.6016 0.4886 0.6319
vn 0.6522 0.5863 0.4805
vn 0.7250 0.5341 0.4348
vn 0.7572 0.6310 0.1687
vn 0.7314 0.6558 0.1872
vn 0.7331 0.6748 0.0845
vn 0.6185 0.7695 0.1595
vn 0.6041 0.7739 -0.1901
vn 0.6567 0.7164 -0.2356
vn 0.8455 0.0856 -0.5271
vn 0.7731 0.5003 -0.3899
vn 0.8037 0.3734 -0.4633
vn 0.8612 0.3162 -0.3979
vn 0.8735 0.2298 -0.4292
vn 0.9668 0.0970 -0.2363
vn 0.9524 -0.2892 -0.0969
vn 0.8851 0.1445 -0.4424
vn 0.8705 0.1645 -0.4638
vn 0.7656 0.4663 -0.4431
vn 0.9235 0.2855 -0.2564
vn 0.9184 0.3045 -0.2527
vn 0.9522 0.2361 -0.1937
vn 0.8183 0.4347 -0.3761
vn 0.9298 0.2872 -0.2301
vn 0.9254 0.3035 -0.2268
vn 0.9654 0.2162 -0.1461
vn 0.9542 0.2674 -0.1345
vn 0.9660 0.2355 -0.1066
vn 0.8561 0.2993 -0.4213
vn 0.9207 0.2091 -0.3296
vn 0.9183 0.2223 -0.3276
vn 0.9691 0.1161 -0.2175
vn 0.9611 0.1811 -0.2084
vn 0.8531 0.3529 -0.3843
vn 0.9043 0.0810 -0.4192
vn 0.7227 0.2774 -0.6330
vn 0.9016 0.3620 -0.2367
vn 0.8496 0.4273 -0.3091
vn 0.9183 0.2014 -0.3408
vn 0.9409 0.1624 -0.2971
vn 0.9511 0.0580 -0.3034
vn 0.8149 0.2601 -0.5180
vn 0.8117 0.2728 -0.5164
vn 0.7521 0.3314 -0.5696
vn 0.7547 0.3232 -0.5709
vn 0.4985 0.5005 -0.7078
vn 0.9739 0.1731 -0.1468
vn 0.9555 0.2179 -0.1987
vn 0.8521 0.4949 -0.1702
vn 0.8551 0.4912 -0.1660
vn 0.9530 0.2244 -0.2038
vn 0.8474 0.3840 -0.3666
vn 0.8575 0.3550 -0.3723
vn 0.8866 0.3172 -0.3367
vn 0.8246 0.4821 -0.2961
vn 0.6730 0.6204 -0.4027
vn 0.6355 0.6752 -0.3745
vn 0.6303 0.6787 -0.3768
vn 0.9618 -0.2630 -0.0759
vn 0.9470 -0.1303 -0.2936
vn 0.9428 0.1403 -0.3023
vn 0.9095 0.1937 -0.3678
vn 0.8483 0.4112 -0.3337
vn 0.7752 0.4830 -0.4072
vn 0.8300 0.3362 -0.4451
vn 0.7720 0.3942 -0.4986
vn 0.8254 0.1904 -0.5314
vn 0.7483 0.2609 -0.6099
vn 0.6332 0.5734 -0.5199
vn 0.6479 0.5638 -0.5123
vn 0.5967 0.6506 -0.4697
vn 0.5267 0.6915 -0.4944
vn 0.4928 0.5449 -0.6784
vn 0.2986 0.3180 -0.8998
vn 0.2402 0.2561 -0.9363
vn 0.1304 0.2477 -0.9600
vn 0.0506 0.0010 -0.9987
vn -0.1322 -0.3225 -0.9373
vn -0.3222 -0.2961 -0.8992
vn 0.3190 0.5043 -0.8024
vn 0.1426 0.6235 -0.7687
vn 0.2429 0.2951 -0.9241
vn -0.0387 0.4788 -0.8771
vn -0.0265 0.5571 -0.8300
vn -0.1906 0.6469 -0.7383
vn 0.1299 0.2041 -0.9703
vn -0.0083 0.3017 -0.9534
vn 0.0156 0.5039 -0.8636
vn -0.2767 0.6727 -0.6862
vn -0.2940 0.5907 -0.7514
vn -0.1189 0.4780 -0.8703
vn 0.0517 0.2006 -0.9783
vn -0.1877 0.3829 -0.9045
vn -0.2145 0.1798 -0.9600
vn -0.5306 0.4313 -0.7297
vn -0.5119 0.5264 -0.6789
vn -0.2710 0.3537 -0.8953
vn -0.2691 0.4053 -0.8737
vn -0.2505 0.3926 -0.8850
vn -0.1489 -0.1243 -0.9810
vn -0.3823 0.0431 -0.9230
vn -0.3564 0.2633 -0.8965
vn -0.5239 0.4016 -0.7511
vn -0.5116 0.4460 -0.7344
vn -0.4813 0.4191 -0.7699
vn -0.4933 0.2126 -0.8435
vn -0.4754 0.1996 -0.8568
vn -0.4749 0.2529 -0.8429
vn -0.5676 0.3053 -0.7646
vn -0.3018 -0.4424 -0.8445
vn -0.5139 -0.2708 -0.8140
vn -0.5200 -0.0613 -0.8520
vn -0.6481 0.0426 -0.7604
vn -0.6048 0.3402 -0.7201
vn -0.5504 0.2931 -0.7818
vn -0.5406 0.3735 -0.7539
vn -0.4119 0.2604 -0.8732
vn -0.4130 0.2473 -0.8765
vn -0.5025 0.3021 -0.8100
vn -0.4851 0.3711 -0.7918
vn -0.7418 0.5289 -0.4124
vn -0.4682 -0.4419 -0.7652
vn -0.6068 -0.2976 -0.7370
vn -0.6030 -0.3482 -0.7177
vn -0.6812 -0.2845 -0.6746
vn -0.6822 0.0152 -0.7310
vn -0.6434 -0.0156 -0.7654
vn -0.6415 0.2246 -0.7335
vn -0.4811 0.0914 -0.8719
vn -0.4838 0.2062 -0.8505
vn -0.4636 0.1913 -0.8652
vn -0.4370 0.3510 -0.8281
vn -0.6296 0.4542 -0.6303
vn -0.4785 0.7278 -0.4912
vn -0.5170 0.7544 -0.4045
vn -0.6081 0.7065 -0.3621
vn -0.6559 0.6655 -0.3561
vn -0.8855 0.4479 -0.1232
vn -0.9850 0.1498 0.0855
vn -0.9182 0.3827 0.1023
vn -0.9788 0.1941 -0.0648
vn -0.9938 0.0384 -0.1039
vn -0.6260 0.6976 -0.3484
vn -0.5465 0.8328 -0.0882
vn -0.8456 0.5208 -0.1171
vn -0.7039 0.6807 0.2028
vn -0.7818 0.5925 0.1945
vn -0.8811 0.4729 0.0079
vn -0.9406 0.3322 0.0701
vn -0.8306 0.4327 0.3505
vn -0.7465 0.5846 0.3176
vn -0.8355 0.5196 0.1788
vn -0.9231 0.3373 0.1847
vn -0.9493 0.2900 0.1211
vn -0.9843 0.1275 0.1222
vn -0.9796 0.1376 0.1461
vn -0.7818 0.6215 0.0511
vn -0.8115 0.5792 -0.0773
vn -0.6943 0.7160 -0.0723
vn -0.6720 0.7400 -0.0293
vn -0.9159 0.4014 0.0035
vn -0.9188 0.3947 -0.0041
vn -0.8938 0.4484 0.0112
vn -0.9241 0.3518 -0.1492
vn -0.9228 0.3552 -0.1490
vn -0.9227 0.3564 -0.1472
vn -0.7799 0.6120 -0.1309
vn -0.7828 0.6062 -0.1405
vn -0.6086 0.7838 -0.1235
vn -0.6456 0.7382 -0.1958
vn -0.8148 0.5424 -0.2047
vn -0.8011 0.5731 -0.1728
vn -0.9757 0.2043 -0.0795
vn -0.9717 0.2325 -0.0417
vn -0.9660 0.2555 -0.0382
vn -0.9716 0.1561 -0.1778
vn -0.9168 0.3658 -0.1604
vn -0.9027 0.4232 -0.0779
vn -0.8185 0.5705 -0.0674
vn -0.8256 0.5576 -0.0864
vn -0.7124 0.6981 -0.0720
vn -0.7550 0.6358 -0.1604
vn -0.8072 0.5677 -0.1620
vn -0.6968 0.7169 0.0227
vn -0.9964 0.0190 -0.0822
vn -0.9969 0.0788 -0.0080
vn -0.9809 0.1944 -0.0005
vn -0.9789 0.2043 0.0107
vn -1.0000 0.0019 0.0023
vn -0.9605 0.1666 0.2230
vn -0.9458 0.2350 0.2240
vn -0.9821 0.1557 0.1057
vn -0.8750 0.4581 0.1565
vn -0.9338 0.3573 -0.0177
vn -0.8178 0.5754 -0.0022
vn -0.7335 0.6655 0.1382
vn -0.7342 0.6647 0.1383
vn -0.5060 0.7913 0.3432
vn -0.6883 0.4391 0.5775
vn -0.5527 0.4757 0.6842
vn -0.5499 0.3907 0.7382
vn -0.5305 0.2077 0.8218
vn -0.5806 0.4475 0.6802
vn -0.4497 0.0644 0.8909
vn -0.2048 -0.2976 0.9325
vn -0.5751 0.3888 0.7198
vn -0.5666 0.3949 0.7232
vn -0.5328 0.4640 0.7077
vn -0.3698 0.5636 0.7386
vn -0.4178 0.3045 0.8560
vn -0.2471 0.4090 0.8785
vn -0.5209 0.3730 0.7678
vn -0.3130 0.4816 0.8186
vn -0.3080 0.5155 0.7996
vn -0.2800 0.5291 0.8010
vn -0.2949 0.4407 0.8478
vn -0.3346 0.4190 0.8441
vn -0.6116 0.2876 0.7371
vn -0.4513 0.3962 0.7996
vn -0.4251 0.5616 0.7099
vn -0.4410 0.5530 0.7069
vn -0.4190 0.6235 0.6601
vn -0.3853 0.6433 0.6616
vn -0.4219 0.4773 0.7708
vn -0.1735 0.6201 0.7651
vn -0.3975 0.2713 0.8766
vn -0.4454 0.2355 0.8638
vn -0.4181 0.3654 0.8316
vn -0.1984 0.5004 0.8428
vn -0.2193 0.3679 0.9036
vn -0.0151 0.4914 0.8708
vn -0.0298 0.3906 0.9201
vn 0.0346 0.4237 0.9051
vn 0.0423 0.4703 0.8815
vn 0.1530 0.5147 0.8436
vn -0.2101 -0.0771 0.9746
vn -0.0717 0.0428 0.9965
vn -0.0775 -0.0437 0.9960
vn 0.0451 0.0526 0.9976
vn 0.0465 0.3091 0.9499
vn 0.1817 0.3889 0.9032
vn 0.1793 0.3343 0.9253
vn 0.1789 0.3340 0.9254
vn 0.1772 0.3163 0.9320
vn 0.1769 0.3161 0.9321
vn 0.1997 0.4787 0.8550
vn 0.2657 0.5019 0.8231
vn -0.1034 -0.3595 0.9274
vn 0.1676 -0.0400 0.9850
vn 0.1771 -0.1240 0.9764
vn 0.1102 -0.1816 0.9772
vn 0.0867 0.0266 0.9959
vn 0.3118 0.1679 0.9352
vn 0.3021 0.2969 0.9059
vn 0.1198 0.1918 0.9741
vn 0.1235 0.3736 0.9193
vn 0.1669 0.3945 0.9036
vn 0.1625 0.3269 0.9310
vn 0.1992 0.3428 0.9180
vn 0.2190 0.5352 0.8158
vn 0.1616 0.5154 0.8416
vn 0.3234 0.6508 0.6869
vn 0.4386 0.3201 0.8397
vn 0.4431 0.4170 0.7936
vn 0.3501 0.3075 0.8848
vn 0.6107 0.3152 0.7264
vn 0.8292 0.0603 0.5556
vn 0.9651 -0.1623 0.2054
vn 0.2824 0.6632 0.6931
vn 0.2234 0.6055 0.7638
vn 0.4916 0.2935 0.8199
vn 0.6098 0.4120 0.6770
vn 0.5950 0.4487 0.6668
vn 0.6464 0.5107 0.5669
vn 0.3007 0.4885 0.8191
vn 0.4246 0.6256 0.6545
vn 0.4984 0.4813 0.7211
vn 0.5480 0.5501 0.6301
vn 0.5319 0.5780 0.6188
vn 0.5414 0.5940 0.5950
vn 0.6393 0.1000 0.7624
vn 0.7829 0.2965 0.5469
vn 0.7387 0.4398 0.5108
vn 0.7166 0.4011 0.5705
vn 0.6965 0.4551 0.5548
vn 0.6869 0.4378 0.5801
vn 0.6392 0.5378 0.5498
vn 0.6699 0.6239 0.4024
vn 0.8276 0.0995 0.5525
vn 0.8836 0.2171 0.4148
vn 0.8915 0.1718 0.4192
vn 0.8621 0.1144 0.4936
vn 0.8301 0.2995 0.4703
vn 0.7614 0.1861 0.6210
vn 0.6894 0.4360 0.5784
vn 0.7424 0.5850 0.3264
vn 0.7608 0.5548 0.3367
vn 0.7625 0.6141 0.2039
vn 0.9590 -0.1990 0.2018
vn 0.9120 -0.2933 0.2868
vn 0.9458 0.1245 0.3000
vn 0.9012 0.0191 0.4329
vn 0.9002 0.0589 0.4315
vn 0.8124 -0.0642 0.5796
vn 0.8046 0.1410 0.5769
vn 0.8848 0.2875 0.3666
vn 0.7666 0.5654 0.3045
vn 0.7557 0.5032 0.4191
vn 0.6035 0.7240 0.3341
vn 0.5869 0.7967 0.1441
vn 0.9599 -0.2798 -0.0196
vn 0.8762 -0.4632 0.1331
vn 0.9188 -0.3629 0.1552
vn 0.8997 -0.3942 0.1874
vn 0.9646 -0.1459 0.2196
vn 0.9538 -0.1694 0.2481
vn 0.9131 -0.3328 0.2357
vn 0.9321 -0.3059 0.1938
vn 0.9738 0.1294 0.1872
vn 0.9777 0.2042 0.0491
vn 0.9830 0.1757 0.0530
vn 0.9515 0.2674 -0.1521
vn 0.8397 0.5034 -0.2038
vn 0.8517 0.4949 -0.1720
vn 0.4010 0.6126 -0.6811
vn 0.3886 0.3384 -0.8570
vn 0.6970 0.2012 -0.6883
vn 0.6855 0.2627 -0.6790
vn 0.6876 0.3482 -0.6372
vn 0.8360 0.0491 -0.5465
vn 0.9239 -0.1793 -0.3379
vn 0.4701 0.2770 -0.8380
vn 0.4092 0.2320 -0.8825
vn 0.3687 0.4480 -0.8145
vn 0.3997 0.4716 -0.7860
vn 0.3707 0.4906 -0.7886
vn 0.1301 0.3339 -0.9336
vn 0.6891 0.2593 -0.6767
vn 0.5004 0.0575 -0.8639
vn 0.4436 0.1048 -0.8901
vn 0.3483 0.0329 -0.9368
vn 0.1440 0.1823 -0.9726
vn 0.1840 0.2089 -0.9605
vn 0.6594 0.3686 -0.6552
vn 0.5933 0.2995 -0.7472
vn 0.4440 0.4031 -0.8002
vn 0.2337 0.2344 -0.9436
vn 0.3419 0.1528 -0.9272
vn 0.2110 0.0620 -0.9755
vn 0.1879 0.0797 -0.9789
vn 0.0507 0.0009 -0.9987
vn 0.7310 0.1365 -0.6686
vn 0.6116 0.0180 -0.7909
vn 0.6331 0.0027 -0.7740
vn 0.4224 -0.1585 -0.8924
vn 0.2462 -0.0390 -0.9684
vn 0.1280 -0.1093 -0.9857
vn 0.2188 -0.1735 -0.9602
vn 0.0810 -0.2462 -0.9658
vn 0.0589 -0.2304 -0.9713
vn -0.1398 -0.3173 -0.9380
vn 0.8424 -0.0985 -0.5297
vn 0.7089 -0.2528 -0.6585
vn 0.6157 -0.1883 -0.7652
vn 0.3733 -0.3577 -0.8559
vn 0.4046 -0.3794 -0.8321
vn 0.2565 -0.4674 -0.8460
vn 0.1096 -0.3630 -0.9253
vn -0.0458 -0.4359 -0.8989
vn 0.0757 -0.5212 -0.8500
vn -0.0075 -0.5585 -0.8295
vn -0.1422 -0.4738 -0.8691
vn -0.0996 -0.4573 -0.8837
vn 0.9020 -0.3281 -0.2804
vn 0.6668 -0.5942 -0.4497
vn 0.6366 -0.5778 -0.5108
vn 0.5542 -0.6360 -0.5370
vn 0.3397 -0.5205 -0.7834
vn 0.3015 -0.5402 -0.7857
vn 0.2495 -0.5083 -0.8242
vn 0.0275 -0.6135 -0.7892
vn -0.0603 -0.5473 -0.8348
vn -0.0220 -0.5308 -0.8472
vn -0.0066 -0.5424 -0.8401
vn -0.1508 -0.5958 -0.7888
vn -0.1150 -0.6157 -0.7796
vn -0.0774 -0.6003 -0.7960
vn -0.6080 0.7035 -0.3679
vn -0.6043 0.4713 -0.6424
vn -0.4950 0.1649 -0.8531
vn -0.5261 0.0572 -0.8485
vn -0.6846 -0.0532 -0.7270
vn -0.5507 -0.1534 -0.8205
vn -0.4896 -0.1750 -0.8542
vn -0.6880 0.5949 -0.4156
vn -0.6516 0.6174 -0.4407
vn -0.6665 0.3441 -0.6614
vn -0.5794 0.4023 -0.7089
vn -0.6798 0.5704 -0.4609
vn -0.8973 0.3705 -0.2401
vn -0.5096 0.0432 -0.8593
vn -0.5442 0.0112 -0.8389
vn -0.6578 0.1147 -0.7445
vn -0.7819 -0.0052 -0.6234
vn -0.9146 0.3154 -0.2532
vn -0.9966 0.0824 0.0055
vn -0.5023 -0.1853 -0.8446
vn -0.4867 -0.1710 -0.8567
vn -0.5319 -0.1369 -0.8357
vn -0.6338 -0.2747 -0.7231
vn -0.7776 -0.1233 -0.6165
vn -0.8368 -0.2985 -0.4590
vn -0.9547 0.2973 -0.0111
vn -0.9511 0.3082 -0.0234
vn -0.6841 -0.0625 -0.7267
vn -0.6909 -0.0694 -0.7196
vn -0.4769 -0.2188 -0.8513
vn -0.5365 -0.2943 -0.7909
vn -0.6480 -0.1964 -0.7359
vn -0.6695 -0.2318 -0.7058
vn -0.8533 0.0128 -0.5213
vn -0.9194 -0.1084 -0.3782
vn -0.9892 0.1465 0.0070
vn -0.9789 0.1808 -0.0958
vn -0.5517 -0.1387 -0.8225
vn -0.6614 -0.2523 -0.7063
vn -0.6689 -0.2475 -0.7010
vn -0.5971 -0.1844 -0.7807
vn -0.5550 -0.2095 -0.8050
vn -0.6654 -0.3312 -0.6689
vn -0.6373 -0.3498 -0.6867
vn -0.7287 -0.4590 -0.5083
vn -0.8751 -0.3426 -0.3418
vn -0.8617 -0.3211 -0.3930
vn -0.9822 -0.1788 -0.0571
vn -0.9422 -0.0983 -0.3203
vn -0.4795 -0.2166 -0.8504
vn -0.6381 -0.3614 -0.6799
vn -0.6266 -0.3695 -0.6862
vn -0.6332 -0.3755 -0.6768
vn -0.5198 -0.4311 -0.7375
vn -0.5966 -0.5238 -0.6081
vn -0.5557 -0.5466 -0.6265
vn -0.6204 -0.6758 -0.3980
vn -0.5544 -0.7088 -0.4361
vn -0.5553 -0.7149 -0.4249
vn -0.7445 -0.6154 -0.2589
vn -0.7214 -0.4821 -0.4971
vn -0.9071 -0.3340 -0.2562
vn -0.9090 -0.3419 -0.2384
vn -0.4647 0.5845 0.6651
vn -0.7217 0.4224 0.5484
vn -0.9440 0.2000 0.2625
vn -0.9674 0.0804 0.2401
vn -0.9552 0.1397 0.2609
vn -0.9752 -0.0045 0.2212
vn -0.9948 -0.0255 0.0986
vn -0.4565 0.5964 0.6602
vn -0.4265 0.5484 0.7193
vn -0.7094 0.4527 0.5402
vn -0.6582 0.3643 0.6589
vn -0.4593 0.4803 0.7472
vn -0.4322 0.4555 0.7783
vn -0.9591 0.0996 0.2650
vn -0.8367 -0.1134 0.5358
vn -0.6989 0.0447 0.7138
vn -0.6960 0.0421 0.7168
vn -0.4939 0.1836 0.8500
vn -0.5276 0.2096 0.8232
vn -0.9600 0.1307 0.2474
vn -0.8551 -0.0677 0.5140
vn -0.8387 -0.0401 0.5431
vn -0.7509 -0.1429 0.6448
vn -0.6830 -0.0626 0.7277
vn -0.7407 -0.0011 0.6718
vn -0.5191 0.1486 0.8417
vn -0.6938 0.3611 0.6231
vn -0.9672 0.0181 0.2535
vn -0.8653 -0.1563 0.4763
vn -0.8529 -0.1334 0.5048
vn -0.8011 -0.1911 0.5672
vn -0.7537 -0.1271 0.6448
vn -0.8036 -0.0784 0.5899
vn -0.7297 -0.0384 0.6827
vn -0.8269 0.0847 0.5559
vn -0.7150 0.1851 0.6742
vn -0.4901 0.0333 0.8711
vn -0.9713 0.0607 0.2300
vn -0.8891 -0.1572 0.4300
vn -0.8694 -0.1088 0.4820
vn -0.7482 -0.2380 0.6193
vn -0.7797 -0.2891 0.5555
vn -0.6412 -0.3722 0.6711
vn -0.6657 -0.3843 0.6397
vn -0.8774 -0.2305 0.4208
vn -0.8152 -0.1616 0.5562
vn -0.5520 -0.3417 0.7606
vn -0.4817 -0.2709 0.8334
vn -0.2525 -0.3372 0.9069
vn -0.9631 -0.2626 0.0587
vn -0.8817 -0.4286 0.1975
vn -0.8649 -0.2854 0.4128
vn -0.6685 -0.4514 0.5910
vn -0.6855 -0.4865 0.5416
vn -0.5022 -0.5540 0.6640
vn -0.5270 -0.5775 0.6235
vn -0.7677 -0.4719 0.4336
vn -0.7923 -0.5084 0.3372
vn -0.4950 -0.6954 0.5210
vn -0.4480 -0.6318 0.6325
vn -0.3413 -0.6668 0.6625
vn -0.1506 -0.5353 0.8312
vn -0.3709 -0.4698 0.8011
vn 0.1565 0.5183 0.8408
vn 0.1808 0.3551 0.9172
vn 0.2543 0.3307 0.9088
vn 0.0490 0.2387 0.9699
vn 0.2219 0.2274 0.9482
vn 0.0698 -0.1590 0.9848
vn 0.2487 -0.0937 0.9640
vn 0.1847 0.3581 0.9152
vn 0.3513 0.2530 0.9014
vn 0.1856 0.2770 0.9428
vn 0.3818 0.1405 0.9135
vn 0.3600 0.1243 0.9246
vn 0.2218 0.2256 0.9486
vn 0.2510 0.3758 0.8921
vn 0.4124 0.2536 0.8750
vn 0.3791 0.2250 0.8976
vn 0.1795 0.3646 0.9137
vn 0.1928 0.3768 0.9060
vn 0.3315 0.2902 0.8977
vn 0.0495 0.1316 0.9901
vn 0.1714 0.0436 0.9842
vn 0.4171 0.2259 0.8804
vn 0.1505 0.4008 0.9037
vn 0.1736 0.4171 0.8921
vn 0.4041 0.3048 0.8624
vn 0.3329 0.2472 0.9100
vn 0.4769 0.1543 0.8653
vn 0.2489 -0.0772 0.9654
vn 0.1020 0.0286 0.9944
vn 0.1692 0.0676 0.9833
vn 0.0762 0.1329 0.9882
vn 0.1705 0.1880 0.9673
vn 0.4136 0.0405 0.9096
vn 0.4023 0.0320 0.9149
vn 0.3870 0.0407 0.9212
vn 0.4784 0.1196 0.8699
vn 0.7381 -0.0753 0.6704
vn 0.0714 -0.1820 0.9807
vn -0.0339 -0.0981 0.9946
vn 0.1070 -0.0222 0.9940
vn 0.1913 -0.0886 0.9775
vn 0.0602 -0.1612 0.9851
vn 0.1562 -0.2295 0.9607
vn 0.4171 -0.0662 0.9065
vn 0.4501 -0.0841 0.8890
vn 0.3686 -0.1345 0.9198
vn 0.6597 -0.2882 0.6941
vn 0.7243 -0.2238 0.6521
vn 0.8758 -0.3460 0.3364
vn 0.2682 -0.2495 0.9305
vn 0.0222 -0.1063 0.9941
vn -0.0352 -0.1236 0.9917
vn 0.1051 -0.2519 0.9620
vn 0.1803 -0.2025 0.9625
vn 0.3245 -0.2937 0.8991
vn 0.1155 -0.4254 0.8976
vn 0.3570 -0.5858 0.7276
vn 0.3495 -0.5900 0.7278
vn 0.5172 -0.6611 0.5436
vn 0.5393 -0.6473 0.5386
vn 0.6532 -0.7038 0.2792
vn 0.7895 -0.5723 0.2219
vn 0.8083 -0.5831 -0.0810
vn 0.8491 0.0811 -0.5220
vn 0.9519 0.1597 -0.2614
vn 0.9657 0.2423 0.0930
vn 0.9133 -0.1730 0.3688
vn 0.9408 -0.1095 0.3208
vn 0.8879 -0.2559 0.3823
vn 0.8755 -0.3464 0.3368
vn 0.7547 0.3692 -0.5424
vn 0.7558 0.5130 -0.4070
vn 0.8377 0.4781 -0.2641
vn 0.8395 0.2970 -0.4551
vn 0.8715 0.2610 -0.4152
vn 0.8762 0.2936 -0.3823
vn 0.9952 0.0332 0.0926
vn 0.9872 -0.1233 -0.1015
vn 0.8710 0.1745 -0.4591
vn 0.8924 0.2546 -0.3726
vn 0.8853 0.2639 -0.3829
vn 0.8890 0.2808 -0.3618
vn 0.9171 -0.1463 0.3708
vn 0.9301 -0.2058 0.3043
vn 0.9897 0.1005 -0.1020
vn 0.9820 0.0349 -0.1854
vn 0.9065 0.1922 -0.3759
vn 0.9062 0.1913 -0.3770
vn 0.9113 0.1835 -0.3685
vn 0.9088 0.1762 -0.3783
vn 0.9243 -0.2128 0.3169
vn 0.8177 0.0417 0.5741
vn 0.9267 0.2502 0.2806
vn 0.9754 -0.1135 -0.1890
vn 0.9757 -0.1164 -0.1854
vn 0.9642 -0.1445 -0.2225
vn 0.9203 0.0058 -0.3911
vn 0.8650 -0.0770 -0.4958
vn 0.9020 -0.1899 -0.3878
vn 0.9911 0.0017 -0.1332
vn 0.8506 -0.3693 0.3743
vn 0.8454 -0.3379 0.4137
vn 0.6781 -0.4497 0.5813
vn 0.6688 -0.6847 0.2896
vn 0.9076 -0.3736 -0.1913
vn 0.8073 -0.4728 -0.3532
vn 0.7813 -0.5870 -0.2120
vn 0.7962 -0.5743 -0.1905
vn 0.8080 -0.3153 -0.4977
vn 0.9495 -0.1517 -0.2747
vn 0.9537 -0.2710 -0.1302
vn 0.9547 -0.2688 -0.1273
vn 0.7068 -0.6365 0.3089
vn 0.7038 -0.6569 0.2705
vn 0.5967 -0.7108 0.3725
vn 0.6057 -0.6605 0.4438
vn 0.7552 -0.5817 0.3023
vn 0.6205 -0.7821 -0.0583
vn 0.7419 -0.5719 -0.3499
vn 0.8051 -0.5276 -0.2710
vn 0.7839 -0.5913 -0.1892
vn 0.8210 -0.5550 -0.1338
vn 0.8471 -0.4569 -0.2713
vn 0.9071 -0.3842 -0.1722
vn 0.9017 -0.4137 -0.1258
vn 0.9175 -0.3873 -0.0906
vn 0.8832 -0.4666 0.0469
vn 0.7515 -0.6541 -0.0858
vn 0.5670 -0.8155 -0.1162
vn 0.4102 -0.9120 0.0052
vn 0.3429 -0.9393 -0.0114
vn 0.6209 -0.7159 -0.3194
vn 0.5390 -0.7977 -0.2705
vn 0.6866 -0.7270 0.0029
vn 0.5586 -0.7842 -0.2702
vn 0.5582 -0.8235 -0.1018
vn 0.5143 -0.8388 -0.1787
vn 0.5684 -0.7773 -0.2696
vn 0.4781 -0.7794 -0.4050
vn 0.4763 -0.8715 -0.1165
vn 0.4172 -0.8860 -0.2023
vn 0.4032 -0.8980 -0.1760
vn 0.3222 -0.9033 -0.2832
vn 0.3862 -0.8291 -0.4042
vn 0.2089 -0.7826 -0.5864
vn 0.3328 -0.9429 0.0096
vn 0.3150 -0.9490 -0.0130
vn 0.4058 -0.8914 -0.2018
vn 0.4078 -0.8911 -0.1991
vn 0.4536 -0.8420 -0.2921
vn 0.2307 -0.8057 -0.5455
vn 0.2525 -0.7654 -0.5920
vn 0.0220 -0.6323 -0.7744
vn 0.5268 -0.8494 -0.0330
vn 0.4942 -0.8656 -0.0810
vn 0.4710 -0.8817 -0.0291
vn 0.3696 -0.9159 -0.1569
vn 0.3873 -0.9006 -0.1972
vn 0.2033 -0.8924 -0.4027
vn 0.2614 -0.7935 -0.5496
vn 0.0416 -0.6755 -0.7362
vn 0.0594 -0.6191 -0.7831
vn -0.0249 -0.5465 -0.8371
vn 0.5501 -0.7712 -0.3203
vn 0.6215 -0.7546 -0.2105
vn 0.5900 -0.8014 -0.0984
vn 0.5175 -0.8308 -0.2050
vn 0.5087 -0.8417 -0.1808
vn 0.2846 -0.8518 -0.4399
vn 0.2749 -0.8663 -0.4171
vn -0.0833 -0.6840 -0.7247
vn -0.0949 -0.7088 -0.6990
vn -0.2004 -0.6093 -0.7672
vn -0.1930 -0.5815 -0.7903
vn -0.1518 -0.6199 -0.7698
vn 0.3429 -0.9032 -0.2584
vn 0.4553 -0.8833 -0.1116
vn 0.4719 -0.8610 -0.1899
vn 0.4384 -0.8669 -0.2370
vn 0.4245 -0.8868 -0.1829
vn 0.2614 -0.8932 -0.3660
vn 0.2909 -0.8489 -0.4413
vn -0.0662 -0.6788 -0.7314
vn -0.0673 -0.6807 -0.7294
vn -0.0745 -0.6752 -0.7339
vn -0.0528 -0.5979 -0.7999
vn 0.0565 -0.6729 -0.7376
vn 0.0658 -0.6013 -0.7963
vn -0.0542 -0.5024 -0.8630
vn -0.2994 -0.5294 -0.7938
vn -0.1908 -0.6780 -0.7099
vn -0.2239 -0.6721 -0.7058
vn -0.2345 -0.6941 -0.6806
vn 0.0533 -0.9509 -0.3048
vn 0.0299 -0.9908 -0.1321
vn 0.1993 -0.9787 -0.0499
vn -0.2922 -0.5158 -0.8053
vn -0.6033 -0.4504 -0.6581
vn -0.1994 -0.7015 -0.6842
vn -0.5244 -0.6515 -0.5482
vn -0.6115 -0.4657 -0.6397
vn -0.5875 -0.4751 -0.6551
vn -0.3825 -0.6683 -0.6380
vn -0.4718 -0.5443 -0.6936
vn -0.6040 -0.4979 -0.6223
vn -0.6019 -0.5022 -0.6209
vn -0.6130 -0.4949 -0.6159
vn -0.2910 -0.7780 -0.5569
vn -0.5548 -0.7165 -0.4229
vn -0.4596 -0.8099 -0.3643
vn -0.4801 -0.8020 -0.3555
vn -0.6539 -0.5917 -0.4715
vn -0.7051 -0.5580 -0.4375
vn -0.6394 -0.6639 -0.3878
vn -0.6158 -0.6814 -0.3954
vn 0.0121 -0.9892 -0.1458
vn -0.1276 -0.9888 -0.0780
vn -0.5654 -0.7280 -0.3877
vn -0.5618 -0.7295 -0.3902
vn -0.4827 -0.8074 -0.3394
vn -0.5628 -0.7725 -0.2942
vn -0.7096 -0.5667 -0.4187
vn -0.6008 -0.6270 -0.4960
vn -0.6101 -0.6102 -0.5054
vn -0.6356 -0.5893 -0.4988
vn 0.0337 -0.9863 -0.1614
vn 0.0613 -0.9834 -0.1706
vn -0.0855 -0.9596 -0.2682
vn -0.3482 -0.9264 -0.1431
vn -0.5869 -0.7576 -0.2856
vn -0.4930 -0.8022 -0.3369
vn -0.5472 -0.7537 -0.3639
vn -0.4239 -0.7994 -0.4258
vn -0.5909 -0.6162 -0.5206
vn -0.6690 -0.5689 -0.4783
vn -0.6398 -0.6156 -0.4601
vn -0.6579 -0.5989 -0.4566
vn 0.1994 -0.9790 0.0423
vn 0.0369 -0.9957 0.0855
vn 0.0491 -0.9944 0.0936
vn -0.2305 -0.9522 0.2003
vn -0.3634 -0.9237 0.1216
vn -0.2981 -0.9505 0.0878
vn -0.5508 -0.8343 -0.0233
vn -0.4224 -0.9012 -0.0973
vn -0.4835 -0.8664 -0.1248
vn -0.5357 -0.8395 -0.0905
vn -0.7524 -0.6250 -0.2080
vn -0.7480 -0.6291 -0.2116
vn -0.7279 -0.6531 -0.2088
vn -0.7521 -0.6296 -0.1949
vn -0.7642 -0.6391 -0.0866
vn -0.7641 -0.6250 -0.1597
vn -0.5462 -0.8375 -0.0137
vn -0.4375 -0.8954 0.0830
vn -0.2989 -0.9348 0.1921
vn -0.2520 -0.9666 0.0477
vn 0.0186 -0.9986 -0.0495
vn -0.8221 -0.5542 -0.1303
vn -0.8518 -0.4919 0.1801
vn -0.5181 -0.8547 -0.0323
vn -0.5588 -0.7728 0.3010
vn -0.5624 -0.7691 0.3037
vn -0.5400 -0.6893 0.4830
vn -0.3891 -0.9196 0.0541
vn -0.3620 -0.8462 0.3909
vn -0.2906 -0.8885 0.3552
vn -0.2728 -0.8434 0.4628
vn -0.4117 -0.7370 0.5360
vn -0.3725 -0.6991 0.6103
vn -0.2564 -0.9524 0.1649
vn -0.2425 -0.9418 0.2327
vn -0.5116 -0.7951 0.3256
vn -0.4898 -0.7883 0.3724
vn -0.4917 -0.7867 0.3732
vn -0.5258 -0.8082 0.2651
vn -0.7389 -0.5700 0.3595
vn -0.7324 -0.5603 0.3868
vn -0.3890 -0.9104 0.1407
vn -0.4156 -0.9094 -0.0169
vn -0.5230 -0.8514 0.0389
vn -0.4843 -0.8458 0.2237
vn -0.6075 -0.7374 0.2953
vn -0.5961 -0.7135 0.3681
vn -0.4740 -0.8321 0.2880
vn -0.4738 -0.6959 0.5397
vn -0.4701 -0.7013 0.5359
vn -0.4691 -0.7418 0.4793
vn -0.1843 -0.9783 0.0948
vn -0.1996 -0.9762 -0.0845
vn -0.3444 -0.9385 0.0237
vn -0.3201 -0.9243 0.2077
vn -0.4134 -0.8718 0.2627
vn -0.3892 -0.8437 0.3696
vn -0.4766 -0.7688 0.4263
vn -0.4391 -0.6903 0.5750
vn -0.4013 -0.7316 0.5512
vn -0.3965 -0.6423 0.6560
vn -0.2528 -0.8186 0.5157
vn -0.2494 -0.7620 0.5976
vn 0.0973 -0.9951 -0.0175
vn 0.0974 -0.9952 0.0110
vn 0.0703 -0.9969 0.0343
vn 0.0608 -0.9975 -0.0358
vn -0.2874 -0.9312 0.2241
vn -0.2641 -0.9132 0.3103
vn -0.3702 -0.8487 0.3778
vn -0.2845 -0.7599 0.5845
vn -0.3413 -0.7123 0.6133
vn -0.3343 -0.7015 0.6294
vn -0.3744 -0.6507 0.6607
vn -0.3716 -0.6262 0.6855
vn -0.2578 -0.7603 0.5962
vn -0.2173 -0.6478 0.7301
vn 0.8550 -0.5115 -0.0860
vn 0.7958 -0.5832 -0.1631
vn 0.7230 -0.6794 -0.1252
vn 0.5852 -0.7700 -0.2540
vn 0.5203 -0.8519 -0.0594
vn 0.3963 -0.8304 0.3916
vn 0.6490 -0.7141 0.2623
vn 0.8401 -0.5401 -0.0494
vn 0.7677 -0.6394 -0.0433
vn 0.7532 -0.6543 -0.0674
vn 0.7230 -0.6879 -0.0641
vn 0.7490 -0.6626 -0.0037
vn 0.6330 -0.7741 0.0068
vn 0.7046 -0.7039 -0.0903
vn 0.4868 -0.8703 -0.0747
vn 0.6105 -0.7815 0.1282
vn 0.4511 -0.8820 0.1367
vn 0.5029 -0.8343 0.2258
vn 0.5429 -0.8095 0.2236
vn 0.4978 -0.8622 -0.0938
vn 0.5790 -0.8099 -0.0942
vn 0.5351 -0.8298 -0.1584
vn 0.4535 -0.8774 -0.1567
vn 0.5470 -0.8370 -0.0183
vn 0.6329 -0.7740 -0.0200
vn 0.6573 -0.7532 0.0256
vn 0.3745 -0.9266 0.0327
vn 0.3212 -0.9199 0.2250
vn 0.7675 -0.5773 0.2787
vn 0.5889 -0.8001 -0.1140
vn 0.5966 -0.7945 -0.1136
vn 0.5020 -0.8282 -0.2490
vn 0.5785 -0.7774 -0.2469
vn 0.6714 -0.7343 -0.1001
vn 0.7496 -0.6548 -0.0963
vn 0.5780 -0.7255 -0.3736
vn 0.5832 -0.7217 -0.3728
vn 0.5991 -0.7854 0.1556
vn 0.7719 -0.6139 0.1653
vn 0.7953 -0.5603 0.2313
vn 0.8433 -0.4884 0.2244
vn 0.6419 -0.7360 -0.2152
vn 0.6926 -0.6896 -0.2116
vn 0.6137 -0.7189 -0.3265
vn 0.6738 -0.6669 -0.3183
vn 0.7698 -0.6193 -0.1545
vn 0.5299 -0.8287 -0.1803
vn 0.5036 -0.8359 -0.2184
vn 0.5802 -0.7872 -0.2092
vn 0.7351 -0.6672 0.1203
vn 0.8605 -0.4952 0.1192
vn 0.8274 -0.5605 0.0353
vn 0.7976 -0.6021 0.0371
vn 0.8519 -0.4821 0.2047
vn 0.6963 -0.6793 0.2318
vn 0.5966 -0.8026 -0.0003
vn 0.4718 -0.8817 -0.0022
vn 0.4970 -0.8666 0.0443
vn 0.3585 -0.9327 0.0399
vn 0.3746 -0.9249 0.0654
vn 0.5558 -0.8285 0.0678
vn 0.4845 -0.8736 -0.0449
vn 0.3356 -0.9407 -0.0499
vn 0.0338 -0.6712 0.7405
vn -0.1880 -0.6800 0.7087
vn -0.2912 -0.7058 0.6458
vn -0.2751 -0.7604 0.5883
vn -0.0226 -0.9081 0.4181
vn 0.3179 -0.9451 0.0758
vn 0.4123 -0.9077 0.0783
vn -0.2617 -0.4246 0.8667
vn 0.0702 -0.5077 0.8587
vn -0.2670 -0.6054 0.7498
vn -0.1014 -0.5991 0.7942
vn -0.0610 -0.3877 0.9198
vn 0.0892 -0.3483 0.9331
vn -0.2607 -0.7359 0.6249
vn 0.1000 -0.6506 0.7528
vn 0.0641 -0.7544 0.6533
vn 0.2273 -0.6910 0.6862
vn 0.2739 -0.5072 0.8171
vn 0.2815 -0.5035 0.8168
vn -0.0350 -0.9229 0.3836
vn 0.3629 -0.7958 0.4848
vn 0.3565 -0.8103 0.4651
vn 0.3862 -0.7944 0.4688
vn 0.4006 -0.7649 0.5044
vn 0.2685 -0.8220 0.5022
vn 0.3609 -0.5429 0.7583
vn 0.3773 -0.5327 0.7576
vn 0.3148 -0.9468 0.0673
vn 0.4050 -0.9097 0.0914
vn 0.4900 -0.8075 0.3283
vn 0.4622 -0.8237 0.3283
vn 0.4761 -0.8015 0.3617
vn 0.2895 -0.8915 0.3484
vn 0.3266 -0.8364 0.4403
vn 0.5865 -0.6875 0.4283
vn 0.6110 -0.6285 0.4813
vn 0.4689 -0.7422 0.4789
vn 0.3875 -0.9217 -0.0178
vn 0.4993 -0.8664 0.0113
vn 0.4911 -0.8710 -0.0119
vn 0.4188 -0.9078 -0.0212
vn 0.5256 -0.8137 0.2481
vn 0.4637 -0.8506 0.2477
vn 0.4278 -0.8878 0.1699
vn 0.5660 -0.8065 0.1709
vn 0.6445 -0.6881 0.3333
vn 0.6334 -0.6977 0.3347
vn 0.5984 -0.7487 0.2854
vn 0.6614 -0.6918 0.2897
vn 0.3180 -0.9251 0.2074
vn 0.4476 -0.8652 0.2261
vn 0.4158 -0.8990 0.1376
vn 0.3007 -0.9462 0.1193
vn 0.3033 -0.9446 0.1259
vn 0.3814 -0.9149 0.1320
vn 0.4416 -0.8530 0.2783
vn 0.6783 -0.6856 0.2642
vn 0.6048 -0.7907 0.0951
vn 0.7858 -0.6140 0.0745
vn 0.7612 -0.6477 0.0330
vn 0.8867 -0.4622 0.0126
vn 0.7844 -0.6093 -0.1166
vn 0.7709 -0.6264 -0.1152
s 0
f 1//1 20//1 19//1
f 2//2 26//2 40//2
f 1//3 19//3 54//3
f 1//4 54//4 68//4
f 1//5 68//5 41//5
f 2//6 40//6 89//6
f 3//7 33//7 103//7
f 4//8 61//8 117//8
f 5//9 75//9 131//9
f 6//10 82//10 145//10
f 2//11 89//11 104//11
f 3//12 103//12 118//12
f 4//13 117//13 132//13
f 5//14 131//14 146//14
f 6//15 145//15 90//15
f 7//16 159//16 194//16
f 8//17 166//17 208//17
f 9//18 173//18 215//18
f 10//19 180//19 222//19
f 11//20 187//20 195//20
f 201//21 216//21 12//21
f 200//22 223//22 201//22
f 199//23 224//23 200//23
f 198//24 226//24 199//24
f 197//25 229//25 198//25
f 196//26 233//26 197//26
f 195//27 238//27 196//27
f 201//28 223//28 216//28
f 223//29 217//29 216//29
f 200//30 224//30 223//30
f 224//31 225//31 223//31
f 223//32 225//32 217//32
f 225//33 218//33 217//33
f 199//34 226//34 224//34
f 226//35 227//35 224//35
f 224//36 227//36 225//36
f 227//37 228//37 225//37
f 225//38 228//38 218//38
f 228//39 219//39 218//39
f 198//40 229//40 226//40
f 229//41 230//41 226//41
f 226//42 230//42 227//42
f 230//43 231//43 227//43
f 227//44 231//44 228//44
f 231//45 232//45 228//45
f 228//46 232//46 219//46
f 232//47 220//47 219//47
f 197//48 233//48 229//48
f 233//49 234//49 229//49
f 229//50 234//50 230//50
f 234//51 235//51 230//51
f 230//52 235//52 231//52
f 235//53 236//53 231//53
f 231//54 236//54 232//54
f 236//55 237//55 232//55
f 232//56 237//56 220//56
f 237//57 221//57 220//57
f 196//58 238//58 233//58
f 238//59 239//59 233//59
f 233//60 239//60 234//60
f 239//61 240//61 234//61
f 234//62 240//62 235//62
f 240//63 241//63 235//63
f 235//64 241//64 236//64
f 241//65 242//65 236//65
f 236//66 242//66 237//66
f 242//67 243//67 237//67
f 237//68 243//68 221//68
f 243//69 222//69 221//69
f 195//70 187//70 238//70
f 187//71 186//71 238//71
f 238//72 186//72 239//72
f 186//73 185//73 239//73
f 239//74 185//74 240//74
f 185//75 184//75 240//75
f 240//76 184//76 241//76
f 184//77 183//77 241//77
f 241//78 183//78 242//78
f 183//79 182//79 242//79
f 242//80 182//80 243//80
f 182//81 181//81 243//81
f 243//82 181//82 222//82
f 181//83 10//83 222//83
f 216//84 209//84 12//84
f 217//85 244//85 216//85
f 218//86 245//86 217//86
f 219//87 247//87 218//87
f 220//88 250//88 219//88
f 221//89 254//89 220//89
f 222//90 259//90 221//90
f 216//91 244//91 209//91
f 244//92 210//92 209//92
f 217//93 245//93 244//93
f 245//94 246//94 244//94
f 244//95 246//95 210//95
f 246//96 211//96 210//96
f 218//97 247//97 245//97
f 247//98 248//98 245//98
f 245//99 248//99 246//99
f 248//100 249//100 246//100
f 246//101 249//101 211//101
f 249//102 212//102 211//102
f 219//103 250//103 247//103
f 250//104 251//104 247//104
f 247//105 251//105 248//105
f 251//106 252//106 248//106
f 248//107 252//107 249//107
f 252//108 253//108 249//108
f 249//109 253//109 212//109
f 253//110 213//110 212//110
f 220//111 254//111 250//111
f 254//112 255//112 250//112
f 250//113 255//113 251//113
f 255//114 256//114 251//114
f 251//115 256//115 252//115
f 256//116 257//116 252//116
f 252//117 257//117 253//117
f 257//118 258//118 253//118
f 253//119 258//119 213//119
f 258//120 214//120 213//120
f 221//121 259//121 254//121
f 259//122 260//122 254//122
f 254//123 260//123 255//123
f 260//124 261//124 255//124
f 255//125 261//125 256//125
f 261//126 262//126 256//126
f 256//127 262//127 257//127
f 262//128 263//128 257//128
f 257//129 263//129 258//129
f 263//130 264//130 258//130
f 258//131 264//131 214//131
f 264//132 215//132 214//132
f 222//133 180//133 259//133
f 180//134 179//134 259//134
f 259//135 179//135 260//135
f 179//136 178//136 260//136
f 260//137 178//137 261//137
f 178//138 177//138 261//138
f 261//139 177//139 262//139
f 177//140 176//140 262//140
f 262//141 176//141 263//141
f 176//142 175//142 263//142
f 263//143 175//143 264//143
f 175//144 174//144 264//144
f 264//145 174//145 215//145
f 174//146 9//146 215//146
f 209//147 202//147 12//147
f 210//148 265//148 209//148
f 211//149 266//149 210//149
f 212//150 268//150 211//150
f 213//151 271//151 212//151
f 214//152 275//152 213//152
f 215//153 280//153 214//153
f 209//154 265//154 202//154
f 265//155 203//155 202//155
f 210//156 266//156 265//156
f 266//157 267//157 265//157
f 265//158 267//158 203//158
f 267//159 204//159 203//159
f 211//160 268//160 266//160
f 268//161 269//161 266//161
f 266//162 269//162 267//162
f 269//163 270//163 267//163
f 267//164 270//164 204//164
f 270//165 205//165 204//165
f 212//166 271//166 268//166
f 271//167 272//167 268//167
f 268//168 272//168 269//168
f 272//169 273//169 269//169
f 269//170 273//170 270//170
f 273//171 274//171 270//171
f 270//172 274//172 205//172
f 274//173 206//173 205//173
f 213//174 275//174 271//174
f 275//175 276//175 271//175
f 271//176 276//176 272//176
f 276//177 277//177 272//177
f 272//178 277//178 273//178
f 277//179 278//179 273//179
f 273//180 278//180 274//180
f 278//181 279//181 274//181
f 274//182 279//182 206//182
f 279//183 207//183 206//183
f 214//184 280//184 275//184
f 280//185 281//185 275//185
f 275//186 281//186 276//186
f 281//187 282//187 276//187
f 276//188 282//188 277//188
f 282//189 283//189 277//189
f 277//190 283//190 278//190
f 283//191 284//191 278//191
f 278//192 284//192 279//192
f 284//193 285//193 279//193
f 279//194 285//194 207//194
f 285//195 208//195 207//195
f 215//196 173//196 280//196
f 173//197 172//197 280//197
f 280//198 172//198 281//198
f 172//199 171//199 281//199
f 281//200 171//200 282//200
f 171//201 170//201 282//201
f 282//202 170//202 283//202
f 170//203 169//203 283//203
f 283//204 169//204 284//204
f 169//205 168//205 284//205
f 284//206 168//206 285//206
f 168//207 167//207 285//207
f 285//208 167//208 208//208
f 167//209 8//209 208//209
f 202//210 188//210 12//210
f 203//211 286//211 202//211
f 204//212 287//212 203//212
f 205//213 289//213 204//213
f 206//214 292//214 205//214
f 207//215 296//215 206//215
f 208//216 301//216 207//216
f 202//217 286//217 188//217
f 286//218 189//218 188//218
f 203//219 287//219 286//219
f 287//220 288//220 286//220
f 286//221 288//221 189//221
f 288//222 190//222 189//222
f 204//223 289//223 287//223
f 289//224 290//224 287//224
f 287//225 290//225 288//225
f 290//226 291//226 288//226
f 288//227 291//227 190//227
f 291//228 191//228 190//228
f 205//229 292//229 289//229
f 292//230 293//230 289//230
f 289//231 293//231 290//231
f 293//232 294//232 290//232
f 290//233 294//233 291//233
f 294//234 295//234 291//234
f 291//235 295//235 191//235
f 295//236 192//236 191//236
f 206//237 296//237 292//237
f 296//238 297//238 292//238
f 292//239 297//239 293//239
f 297//240 298//240 293//240
f 293//241 298//241 294//241
f 298//242 299//242 294//242
f 294//243 299//243 295//243
f 299//244 300//244 295//244
f 295//245 300//245 192//245
f 300//246 193//246 192//246
f 207//247 301//247 296//247
f 301//248 302//248 296//248
f 296//249 302//249 297//249
f 302//250 303//250 297//250
f 297//251 303//251 298//251
f 303//252 304//252 298//252
f 298//253 304//253 299//253
f 304//254 305//254 299//254
f 299//255 305//255 300//255
f 305//256 306//256 300//256
f 300//257 306//257 193//257
f 306//258 194//258 193//258
f 208//259 166//259 301//259
f 166//260 165//260 301//260
f 301//261 165//261 302//261
f 165//262 164//262 302//262
f 302//263 164//263 303//263
f 164//264 163//264 303//264
f 303//265 163//265 304//265
f 163//266 162//266 304//266
f 304//267 162//267 305//267
f 162//268 161//268 305//268
f 305//269 161//269 306//269
f 161//270 160//270 306//270
f 306//271 160//271 194//271
f 160//272 7//272 194//272
f 188//273 201//273 12//273
f 189//274 307//274 188//274
f 190//275 308//275 189//275
f 191//276 310//276 190//276
f 192//277 313//277 191//277
f 193//278 317//278 192//278
f 194//279 322//279 193//279
f 188//280 307//280 201//280
f 307//281 200//281 201//281
f 189//282 308//282 307//282
f 308//283 309//283 307//283
f 307//284 309//284 200//284
f 309//285 199//285 200//285
f 190//286 310//286 308//286
f 310//287 311//287 308//287
f 308//288 311//288 309//288
f 311//289 312//289 309//289
f 309//290 312//290 199//290
f 312//291 198//291 199//291
f 191//292 313//292 310//292
f 313//293 314//293 310//293
f 310//294 314//294 311//294
f 314//295 315//295 311//295
f 311//296 315//296 312//296
f 315//297 316//297 312//297
f 312//298 316//298 198//298
f 316//299 197//299 198//299
f 192//300 317//300 313//300
f 317//301 318//301 313//301
f 313//302 318//302 314//302
f 318//303 319//303 314//303
f 314//304 319//304 315//304
f 319//305 320//305 315//305
f 315//306 320//306 316//306
f 320//307 321//307 316//307
f 316//308 321//308 197//308
f 321//309 196//309 197//309
f 193//310 322//310 317//310
f 322//311 323//311 317//311
f 317//312 323//312 318//312
f 323//313 324//313 318//313
f 318//314 324//314 319//314
f 324//315 325//315 319//315
f 319//316 325//316 320//316
f 325//317 326//317 320//317
f 320//318 326//318 321//318
f 326//319 327//319 321//319
f 321//320 327//320 196//320
f 327//321 195//321 196//321
f 194//322 159//322 322//322
f 159//323 158//323 322//323
f 322//324 158//324 323//324
f 158//325 157//325 323//325
f 323//326 157//326 324//326
f 157//327 156//327 324//327
f 324//328 156//328 325//328
f 156//329 155//329 325//329
f 325//330 155//330 326//330
f 155//331 154//331 326//331
f 326//332 154//332 327//332
f 154//333 153//333 327//333
f 327//334 153//334 195//334
f 153//335 11//335 195//335
f 96//336 187//336 11//336
f 95//337 328//337 96//337
f 94//338 329//338 95//338
f 93//339 331//339 94//339
f 92//340 334//340 93//340
f 91//341 338//341 92//341
f 90//342 343//342 91//342
f 96//343 328//343 187//343
f 328//344 186//344 187//344
f 95//345 329//345 328//345
f 329//346 330//346 328//346
f 328//347 330//347 186//347
f 330//348 185//348 186//348
f 94//349 331//349 329//349
f 331//350 332//350 329//350
f 329//351 332//351 330//351
f 332//352 333//352 330//352
f 330//353 333//353 185//353
f 333//354 184//354 185//354
f 93//355 334//355 331//355
f 334//356 335//356 331//356
f 331//357 335//357 332//357
f 335//358 336//358 332//358
f 332//359 336//359 333//359
f 336//360 337//360 333//360
f 333//361 337//361 184//361
f 337//362 183//362 184//362
f 92//363 338//363 334//363
f 338//364 339//364 334//364
f 334//365 339//365 335//365
f 339//366 340//366 335//366
f 335//367 340//367 336//367
f 340//368 341//368 336//368
f 336//369 341//369 337//369
f 341//370 342//370 337//370
f 337//371 342//371 183//371
f 342//372 182//372 183//372
f 91//373 343//373 338//373
f 343//374 344//374 338//374
f 338//375 344//375 339//375
f 344//376 345//376 339//376
f 339//377 345//377 340//377
f 345//378 346//378 340//378
f 340//379 346//379 341//379
f 346//380 347//380 341//380
f 341//381 347//381 342//381
f 347//382 348//382 342//382
f 342//383 348//383 182//383
f 348//384 181//384 182//384
f 90//385 145//385 343//385
f 145//386 144//386 343//386
f 343//387 144//387 344//387
f 144//388 143//388 344//388
f 344//389 143//389 345//389
f 143//390 142//390 345//390
f 345//391 142//391 346//391
f 142//392 141//392 346//392
f 346//393 141//393 347//393
f 141//394 140//394 347//394
f 347//395 140//395 348//395
f 140//396 139//396 348//396
f 348//397 139//397 181//397
f 139//398 10//398 181//398
f 152//399 180//399 10//399
f 151//400 349//400 152//400
f 150//401 350//401 151//401
f 149//402 352//402 150//402
f 148//403 355//403 149//403
f 147//404 359//404 148//404
f 146//405 364//405 147//405
f 152//406 349//406 180//406
f 349//407 179//407 180//407
f 151//408 350//408 349//408
f 350//409 351//409 349//409
f 349//410 351//410 179//410
f 351//411 178//411 179//411
f 150//412 352//412 350//412
f 352//413 353//413 350//413
f 350//414 353//414 351//414
f 353//415 354//415 351//415
f 351//416 354//416 178//416
f 354//417 177//417 178//417
f 149//418 355//418 352//418
f 355//419 356//419 352//419
f 352//420 356//420 353//420
f 356//421 357//421 353//421
f 353//422 357//422 354//422
f 357//423 358//423 354//423
f 354//424 358//424 177//424
f 358//425 176//425 177//425
f 148//426 359//426 355//426
f 359//427 360//427 355//427
f 355//428 360//428 356//428
f 360//429 361//429 356//429
f 356//430 361//430 357//430
f 361//431 362//431 357//431
f 357//432 362//432 358//432
f 362//433 363//433 358//433
f 358//434 363//434 176//434
f 363//435 175//435 176//435
f 147//436 364//436 359//436
f 364//437 365//437 359//437
f 359//438 365//438 360//438
f 365//439 366//439 360//439
f 360//440 366//440 361//440
f 366//441 367//441 361//441
f 361//442 367//442 362//442
f 367//443 368//443 362//443
f 362//444 368//444 363//444
f 368//445 369//445 363//445
f 363//446 369//446 175//446
f 369//447 174//447 175//447
f 146//448 131//448 364//448
f 131//449 130//449 364//449
f 364//450 130//450 365//450
f 130//451 129//451 365//451
f 365//452 129//452 366//452
f 129//453 128//453 366//453
f 366//454 128//454 367//454
f 128//455 127//455 367//455
f 367//456 127//456 368//456
f 127//457 126//457 368//457
f 368//458 126//458 369//458
f 126//459 125//459 369//459
f 369//460 125//460 174//460
f 125//461 9//461 174//461
f 138//462 173//462 9//462
f 137//463 370//463 138//463
f 136//464 371//464 137//464
f 135//465 373//465 136//465
f 134//466 376//466 135//466
f 133//467 380//467 134//467
f 132//468 385//468 133//468
f 138//469 370//469 173//469
f 370//470 172//470 173//470
f 137//471 371//471 370//471
f 371//472 372//472 370//472
f 370//473 372//473 172//473
f 372//474 171//474 172//474
f 136//475 373//475 371//475
f 373//476 374//476 371//476
f 371//477 374//477 372//477
f 374//478 375//478 372//478
f 372//479 375//479 171//479
f 375//480 170//480 171//480
f 135//481 376//481 373//481
f 376//482 377//482 373//482
f 373//483 377//483 374//483
f 377//484 378//484 374//484
f 374//485 378//485 375//485
f 378//486 379//486 375//486
f 375//487 379//487 170//487
f 379//488 169//488 170//488
f 134//489 380//489 376//489
f 380//490 381//490 376//490
f 376//491 381//491 377//491
f 381//492 382//492 377//492
f 377//493 382//493 378//493
f 382//494 383//494 378//494
f 378//495 383//495 379//495
f 383//496 384//496 379//496
f 379//497 384//497 169//497
f 384//498 168//498 169//498
f 133//499 385//499 380//499
f 385//500 386//500 380//500
f 380//501 386//501 381//501
f 386//502 387//502 381//502
f 381//503 387//503 382//503
f 387//504 388//504 382//504
f 382//505 388//505 383//505
f 388//506 389//506 383//506
f 383//507 389//507 384//507
f 389//508 390//508 384//508
f 384//509 390//509 168//509
f 390//510 167//510 168//510
f 132//511 117//511 385//511
f 117//512 116//512 385//512
f 385//513 116//513 386//513
f 116//514 115//514 386//514
f 386//515 115//515 387//515
f 115//516 114//516 387//516
f 387//517 114//517 388//517
f 114//518 113//518 388//518
f 388//519 113//519 389//519
f 113//520 112//520 389//520
f 389//521 112//521 390//521
f 112//522 111//522 390//522
f 390//523 111//523 167//523
f 111//524 8//524 167//524
f 124//525 166//525 8//525
f 123//526 391//526 124//526
f 122//527 392//527 123//527
f 121//528 394//528 122//528
f 120//529 397//529 121//529
f 119//530 401//530 120//530
f 118//531 406//531 119//531
f 124//532 391//532 166//532
f 391//533 165//533 166//533
f 123//534 392//534 391//534
f 392//535 393//535 391//535
f 391//536 393//536 165//536
f 393//537 164//537 165//537
f 122//538 394//538 392//538
f 394//539 395//539 392//539
f 392//540 395//540 393//540
f 395//541 396//541 393//541
f 393//542 396//542 164//542
f 396//543 163//543 164//543
f 121//544 397//544 394//544
f 397//545 398//545 394//545
f 394//546 398//546 395//546
f 398//547 399//547 395//547
f 395//548 399//548 396//548
f 399//549 400//549 396//549
f 396//550 400//550 163//550
f 400//551 162//551 163//551
f 120//552 401//552 397//552
f 401//553 402//553 397//553
f 397//554 402//554 398//554
f 402//555 403//555 398//555
f 398//556 403//556 399//556
f 403//557 404//557 399//557
f 399//558 404//558 400//558
f 404//559 405//559 400//559
f 400//560 405//560 162//560
f 405//561 161//561 162//561
f 119//562 406//562 401//562
f 406//563 407//563 401//563
f 401//564 407//564 402//564
f 407//565 408//565 402//565
f 402//566 408//566 403//566
f 408//567 409//567 403//567
f 403//568 409//568 404//568
f 409//569 410//569 404//569
f 404//570 410//570 405//570
f 410//571 411//571 405//571
f 405//572 411//572 161//572
f 411//573 160//573 161//573
f 118//574 103//574 406//574
f 103//575 102//575 406//575
f 406//576 102//576 407//576
f 102//577 101//577 407//577
f 407//578 101//578 408//578
f 101//579 100//579 408//579
f 408//580 100//580 409//580
f 100//581 99//581 409//581
f 409//582 99//582 410//582
f 99//583 98//583 410//583
f 410//584 98//584 411//584
f 98//585 97//585 411//585
f 411//586 97//586 160//586
f 97//587 7//587 160//587
f 110//588 159//588 7//588
f 109//589 412//589 110//589
f 108//590 413//590 109//590
f 107//591 415//591 108//591
f 106//592 418//592 107//592
f 105//593 422//593 106//593
f 104//594 427//594 105//594
f 110//595 412//595 159//595
f 412//596 158//596 159//596
f 109//597 413//597 412//597
f 413//598 414//598 412//598
f 412//599 414//599 158//599
f 414//600 157//600 158//600
f 108//601 415//601 413//601
f 415//602 416//602 413//602
f 413//603 416//603 414//603
f 416//604 417//604 414//604
f 414//605 417//605 157//605
f 417//606 156//606 157//606
f 107//607 418//607 415//607
f 418//608 419//608 415//608
f 415//609 419//609 416//609
f 419//610 420//610 416//610
f 416//611 420//611 417//611
f 420//612 421//612 417//612
f 417//613 421//613 156//613
f 421//614 155//614 156//614
f 106//615 422//615 418//615
f 422//616 423//616 418//616
f 418//617 423//617 419//617
f 423//618 424//618 419//618
f 419//619 424//619 420//619
f 424//620 425//620 420//620
f 420//621 425//621 421//621
f 425//622 426//622 421//622
f 421//623 426//623 155//623
f 426//624 154//624 155//624
f 105//625 427//625 422//625
f 427//626 428//626 422//626
f 422//627 428//627 423//627
f 428//628 429//628 423//628
f 423//629 429//629 424//629
f 429//630 430//630 424//630
f 424//631 430//631 425//631
f 430//632 431//632 425//632
f 425//633 431//633 426//633
f 431//634 432//634 426//634
f 426//635 432//635 154//635
f 432//636 153//636 154//636
f 104//637 89//637 427//637
f 89//638 88//638 427//638
f 427//639 88//639 428//639
f 88//640 87//640 428//640
f 428//641 87//641 429//641
f 87//642 86//642 429//642
f 429//643 86//643 430//643
f 86//644 85//644 430//644
f 430//645 85//645 431//645
f 85//646 84//646 431//646
f 431//647 84//647 432//647
f 84//648 83//648 432//648
f 432//649 83//649 153//649
f 83//650 11//650 153//650
f 139//651 152//651 10//651
f 140//652 433//652 139//652
f 141//653 434//653 140//653
f 142//654 436//654 141//654
f 143//655 439//655 142//655
f 144//656 443//656 143//656
f 145//657 448//657 144//657
f 139//658 433//658 152//658
f 433//659 151//659 152//659
f 140//660 434//660 433//660
f 434//661 435//661 433//661
f 433//662 435//662 151//662
f 435//663 150//663 151//663
f 141//664 436//664 434//664
f 436//665 437//665 434//665
f 434//666 437//666 435//666
f 437//667 438//667 435//667
f 435//668 438//668 150//668
f 438//669 149//669 150//669
f 142//670 439//670 436//670
f 439//671 440//671 436//671
f 436//672 440//672 437//672
f 440//673 441//673 437//673
f 437//674 441//674 438//674
f 441//675 442//675 438//675
f 438//676 442//676 149//676
f 442//677 148//677 149//677
f 143//678 443//678 439//678
f 443//679 444//679 439//679
f 439//680 444//680 440//680
f 444//681 445//681 440//681
f 440//682 445//682 441//682
f 445//683 446//683 441//683
f 441//684 446//684 442//684
f 446//685 447//685 442//685
f 442//686 447//686 148//686
f 447//687 147//687 148//687
f 144//688 448//688 443//688
f 448//689 449//689 443//689
f 443//690 449//690 444//690
f 449//691 450//691 444//691
f 444//692 450//692 445//692
f 450//693 451//693 445//693
f 445//694 451//694 446//694
f 451//695 452//695 446//695
f 446//696 452//696 447//696
f 452//697 453//697 447//697
f 447//698 453//698 147//698
f 453//699 146//699 147//699
f 145//700 82//700 448//700
f 82//701 81//701 448//701
f 448//702 81//702 449//702
f 81//703 80//703 449//703
f 449//704 80//704 450//704
f 80//705 79//705 450//705
f 450//706 79//706 451//706
f 79//707 78//707 451//707
f 451//708 78//708 452//708
f 78//709 77//709 452//709
f 452//710 77//710 453//710
f 77//711 76//711 453//711
f 453//712 76//712 146//712
f 76//713 5//713 146//713
f 125//714 138//714 9//714
f 126//715 454//715 125//715
f 127//716 455//716 126//716
f 128//717 457//717 127//717
f 129//718 460//718 128//718
f 130//719 464//719 129//719
f 131//720 469//720 130//720
f 125//721 454//721 138//721
f 454//722 137//722 138//722
f 126//723 455//723 454//723
f 455//724 456//724 454//724
f 454//725 456//725 137//725
f 456//726 136//726 137//726
f 127//727 457//727 455//727
f 457//728 458//728 455//728
f 455//729 458//729 456//729
f 458//730 459//730 456//730
f 456//731 459//731 136//731
f 459//732 135//732 136//732
f 128//733 460//733 457//733
f 460//734 461//734 457//734
f 457//735 461//735 458//735
f 461//736 462//736 458//736
f 458//737 462//737 459//737
f 462//738 463//738 459//738
f 459//739 463//739 135//739
f 463//740 134//740 135//740
f 129//741 464//741 460//741
f 464//742 465//742 460//742
f 460//743 465//743 461//743
f 465//744 466//744 461//744
f 461//745 466//745 462//745
f 466//746 467//746 462//746
f 462//747 467//747 463//747
f 467//748 468//748 463//748
f 463//749 468//749 134//749
f 468//750 133//750 134//750
f 130//751 469//751 464//751
f 469//752 470//752 464//752
f 464//753 470//753 465//753
f 470//754 471//754 465//754
f 465//755 471//755 466//755
f 471//756 472//756 466//756
f 466//757 472//757 467//757
f 472//758 473//758 467//758
f 467//759 473//759 468//759
f 473//760 474//760 468//760
f 468//761 474//761 133//761
f 474//762 132//762 133//762
f 131//763 75//763 469//763
f 75//764 74//764 469//764
f 469//765 74//765 470//765
f 74//766 73//766 470//766
f 470//767 73//767 471//767
f 73//768 72//768 471//768
f 471//769 72//769 472//769
f 72//770 71//770 472//770
f 472//771 71//771 473//771
f 71//772 70//772 473//772
f 473//773 70//773 474//773
f 70//774 69//774 474//774
f 474//775 69//775 132//775
f 69//776 4//776 132//776
f 111//777 124//777 8//777
f 112//778 475//778 111//778
f 113//779 476//779 112//779
f 114//780 478//780 113//780
f 115//781 481//781 114//781
f 116//782 485//782 115//782
f 117//783 490//783 116//783
f 111//784 475//784 124//784
f 475//785 123//785 124//785
f 112//786 476//786 475//786
f 476//787 477//787 475//787
f 475//788 477//788 123//788
f 477//789 122//789 123//789
f 113//790 478//790 476//790
f 478//791 479//791 476//791
f 476//792 479//792 477//792
f 479//793 480//793 477//793
f 477//794 480//794 122//794
f 480//795 121//795 122//795
f 114//796 481//796 478//796
f 481//797 482//797 478//797
f 478//798 482//798 479//798
f 482//799 483//799 479//799
f 479//800 483//800 480//800
f 483//801 484//801 480//801
f 480//802 484//802 121//802
f 484//803 120//803 121//803
f 115//804 485//804 481//804
f 485//805 486//805 481//805
f 481//806 486//806 482//806
f 486//807 487//807 482//807
f 482//808 487//808 483//808
f 487//809 488//809 483//809
f 483//810 488//810 484//810
f 488//811 489//811 484//811
f 484//812 489//812 120//812
f 489//813 119//813 120//813
f 116//814 490//814 485//814
f 490//815 491//815 485//815
f 485//816 491//816 486//816
f 491//817 492//817 486//817
f 486//818 492//818 487//818
f 492//819 493//819 487//819
f 487//820 493//820 488//820
f 493//821 494//821 488//821
f 488//822 494//822 489//822
f 494//823 495//823 489//823
f 489//824 495//824 119//824
f 495//825 118//825 119//825
f 117//826 61//826 490//826
f 61//827 60//827 490//827
f 490//828 60//828 491//828
f 60//829 59//829 491//829
f 491//830 59//830 492//830
f 59//831 58//831 492//831
f 492//832 58//832 493//832
f 58//833 57//833 493//833
f 493//834 57//834 494//834
f 57//835 56//835 494//835
f 494//836 56//836 495//836
f 56//837 55//837 495//837
f 495//838 55//838 118//838
f 55//839 3//839 118//839
f 97//840 110//840 7//840
f 98//841 496//841 97//841
f 99//842 497//842 98//842
f 100//843 499//843 99//843
f 101//844 502//844 100//844
f 102//845 506//845 101//845
f 103//846 511//846 102//846
f 97//847 496//847 110//847
f 496//848 109//848 110//848
f 98//849 497//849 496//849
f 497//850 498//850 496//850
f 496//851 498//851 109//851
f 498//852 108//852 109//852
f 99//853 499//853 497//853
f 499//854 500//854 497//854
f 497//855 500//855 498//855
f 500//856 501//856 498//856
f 498//857 501//857 108//857
f 501//858 107//858 108//858
f 100//859 502//859 499//859
f 502//860 503//860 499//860
f 499//861 503//861 500//861
f 503//862 504//862 500//862
f 500//863 504//863 501//863
f 504//864 505//864 501//864
f 501//865 505//865 107//865
f 505//866 106//866 107//866
f 101//867 506//867 502//867
f 506//868 507//868 502//868
f 502//869 507//869 503//869
f 507//870 508//870 503//870
f 503//871 508//871 504//871
f 508//872 509//872 504//872
f 504//873 509//873 505//873
f 509//874 510//874 505//874
f 505//875 510//875 106//875
f 510//876 105//876 106//876
f 102//877 511//877 506//877
f 511//878 512//878 506//878
f 506//879 512//879 507//879
f 512//880 513//880 507//880
f 507//881 513//881 508//881
f 513//882 514//882 508//882
f 508//883 514//883 509//883
f 514//884 515//884 509//884
f 509//885 515//885 510//885
f 515//886 516//886 510//886
f 510//887 516//887 105//887
f 516//888 104//888 105//888
f 103//889 33//889 511//889
f 33//890 32//890 511//890
f 511//891 32//891 512//891
f 32//892 31//892 512//892
f 512//893 31//893 513//893
f 31//894 30//894 513//894
f 513//895 30//895 514//895
f 30//896 29//896 514//896
f 514//897 29//897 515//897
f 29//898 28//898 515//898
f 515//899 28//899 516//899
f 28//900 27//900 516//900
f 516//901 27//901 104//901
f 27//902 2//902 104//902
f 83//903 96//903 11//903
f 84//904 517//904 83//904
f 85//905 518//905 84//905
f 86//906 520//906 85//906
f 87//907 523//907 86//907
f 88//908 527//908 87//908
f 89//909 532//909 88//909
f 83//910 517//910 96//910
f 517//911 95//911 96//911
f 84//912 518//912 517//912
f 518//913 519//913 517//913
f 517//914 519//914 95//914
f 519//915 94//915 95//915
f 85//916 520//916 518//916
f 520//917 521//917 518//917
f 518//918 521//918 519//918
f 521//919 522//919 519//919
f 519//920 522//920 94//920
f 522//921 93//921 94//921
f 86//922 523//922 520//922
f 523//923 524//923 520//923
f 520//924 524//924 521//924
f 524//925 525//925 521//925
f 521//926 525//926 522//926
f 525//927 526//927 522//927
f 522//928 526//928 93//928
f 526//929 92//929 93//929
f 87//930 527//930 523//930
f 527//931 528//931 523//931
f 523//932 528//932 524//932
f 528//933 529//933 524//933
f 524//934 529//934 525//934
f 529//935 530//935 525//935
f 525//936 530//936 526//936
f 530//937 531//937 526//937
f 526//938 531//938 92//938
f 531//939 91//939 92//939
f 88//940 532//940 527//940
f 532//941 533//941 527//941
f 527//942 533//942 528//942
f 533//943 534//943 528//943
f 528//944 534//944 529//944
f 534//945 535//945 529//945
f 529//946 535//946 530//946
f 535//947 536//947 530//947
f 530//948 536//948 531//948
f 536//949 537//949 531//949
f 531//950 537//950 91//950
f 537//951 90//951 91//951
f 89//952 40//952 532//952
f 40//953 39//953 532//953
f 532//954 39//954 533//954
f 39//955 38//955 533//955
f 533//956 38//956 534//956
f 38//957 37//957 534//957
f 534//958 37//958 535//958
f 37//959 36//959 535//959
f 535//960 36//960 536//960
f 36//961 35//961 536//961
f 536//962 35//962 537//962
f 35//963 34//963 537//963
f 537//964 34//964 90//964
f 34//965 6//965 90//965
f 47//966 82//966 6//966
f 46//967 538//967 47//967
f 45//968 539//968 46//968
f 44//969 541//969 45//969
f 43//970 544//970 44//970
f 42//971 548//971 43//971
f 41//972 553//972 42//972
f 47//973 538//973 82//973
f 538//974 81//974 82//974
f 46//975 539//975 538//975
f 539//976 540//976 538//976
f 538//977 540//977 81//977
f 540//978 80//978 81//978
f 45//979 541//979 539//979
f 541//980 542//980 539//980
f 539//981 542//981 540//981
f 542//982 543//982 540//982
f 540//983 543//983 80//983
f 543//984 79//984 80//984
f 44//985 544//985 541//985
f 544//986 545//986 541//986
f 541//987 545//987 542//987
f 545//988 546//988 542//988
f 542//989 546//989 543//989
f 546//990 547//990 543//990
f 543//991 547//991 79//991
f 547//992 78//992 79//992
f 43//993 548//993 544//993
f 548//994 549//994 544//994
f 544//995 549//995 545//995
f 549//996 550//996 545//996
f 545//997 550//997 546//997
f 550//998 551//998 546//998
f 546//999 551//999 547//999
f 551//1000 552//1000 547//1000
f 547//1001 552//1001 78//1001
f 552//1002 77//1002 78//1002
f 42//1003 553//1003 548//1003
f 553//1004 554//1004 548//1004
f 548//1005 554//1005 549//1005
f 554//1006 555//1006 549//1006
f 549//1007 555//1007 550//1007
f 555//1008 556//1008 550//1008
f 550//1009 556//1009 551//1009
f 556//1010 557//1010 551//1010
f 551//1011 557//1011 552//1011
f 557//1012 558//1012 552//1012
f 552//1013 558//1013 77//1013
f 558//1014 76//1014 77//1014
f 41//1015 68//1015 553//1015
f 68//1016 67//1016 553//1016
f 553//1017 67//1017 554//1017
f 67//1018 66//1018 554//1018
f 554//1019 66//1019 555//1019
f 66//1020 65//1020 555//1020
f 555//1021 65//1021 556//1021
f 65//1022 64//1022 556//1022
f 556//1023 64//1023 557//1023
f 64//1024 63//1024 557//1024
f 557//1025 63//1025 558//1025
f 63//1026 62//1026 558//1026
f 558//1027 62//1027 76//1027
f 62//1028 5//1028 76//1028
f 62//1029 75//1029 5//1029
f 63//1030 559//1030 62//1030
f 64//1031 560//1031 63//1031
f 65//1032 562//1032 64//1032
f 66//1033 565//1033 65//1033
f 67//1034 569//1034 66//1034
f 68//1035 574//1035 67//1035
f 62//1036 559//1036 75//1036
f 559//1037 74//1037 75//1037
f 63//1038 560//1038 559//1038
f 560//1039 561//1039 559//1039
f 559//1040 561//1040 74//1040
f 561//1041 73//1041 74//1041
f 64//1032 562//1032 560//1032
f 562//1042 563//1042 560//1042
f 560//1043 563//1043 561//1043
f 563//1044 564//1044 561//1044
f 561//1045 564//1045 73//1045
f 564//1046 72//1046 73//1046
f 65//1047 565//1047 562//1047
f 565//1048 566//1048 562//1048
f 562//1049 566//1049 563//1049
f 566//1050 567//1050 563//1050
f 563//1051 567//1051 564//1051
f 567//1052 568//1052 564//1052
f 564//1053 568//1053 72//1053
f 568//1054 71//1054 72//1054
f 66//1055 569//1055 565//1055
f 569//1056 570//1056 565//1056
f 565//1057 570//1057 566//1057
f 570//1058 571//1058 566//1058
f 566//1059 571//1059 567//1059
f 571//1060 572//1060 567//1060
f 567//1061 572//1061 568//1061
f 572//1062 573//1062 568//1062
f 568//1063 573//1063 71//1063
f 573//1064 70//1064 71//1064
f 67//1065 574//1065 569//1065
f 574//1066 575//1066 569//1066
f 569//1067 575//1067 570//1067
f 575//1068 576//1068 570//1068
f 570//1069 576//1069 571//1069
f 576//1070 577//1070 571//1070
f 571//1071 577//1071 572//1071
f 577//1072 578//1072 572//1072
f 572//1073 578//1073 573//1073
f 578//1074 579//1074 573//1074
f 573//1075 579//1075 70//1075
f 579//1076 69//1076 70//1076
f 68//1077 54//1077 574//1077
f 54//1078 53//1078 574//1078
f 574//1079 53//1079 575//1079
f 53//1080 52//1080 575//1080
f 575//1081 52//1081 576//1081
f 52//1082 51//1082 576//1082
f 576//1083 51//1083 577//1083
f 51//1084 50//1084 577//1084
f 577//1085 50//1085 578//1085
f 50//1086 49//1086 578//1086
f 578//1087 49//1087 579//1087
f 49//1088 48//1088 579//1088
f 579//1089 48//1089 69//1089
f 48//1090 4//1090 69//1090
f 48//1091 61//1091 4//1091
f 49//1092 580//1092 48//1092
f 50//1093 581//1093 49//1093
f 51//1094 583//1094 50//1094
f 52//1095 586//1095 51//1095
f 53//1096 590//1096 52//1096
f 54//1097 595//1097 53//1097
f 48//1098 580//1098 61//1098
f 580//1099 60//1099 61//1099
f 49//1100 581//1100 580//1100
f 581//1101 582//1101 580//1101
f 580//1102 582//1102 60//1102
f 582//1103 59//1103 60//1103
f 50//1104 583//1104 581//1104
f 583//1105 584//1105 581//1105
f 581//1106 584//1106 582//1106
f 584//1107 585//1107 582//1107
f 582//1108 585//1108 59//1108
f 585//1109 58//1109 59//1109
f 51//1110 586//1110 583//1110
f 586//1111 587//1111 583//1111
f 583//1112 587//1112 584//1112
f 587//1113 588//1113 584//1113
f 584//1114 588//1114 585//1114
f 588//1115 589//1115 585//1115
f 585//1116 589//1116 58//1116
f 589//1117 57//1117 58//1117
f 52//1118 590//1118 586//1118
f 590//1119 591//1119 586//1119
f 586//1120 591//1120 587//1120
f 591//1121 592//1121 587//1121
f 587//1122 592//1122 588//1122
f 592//1123 593//1123 588//1123
f 588//1124 593//1124 589//1124
f 593//1125 594//1125 589//1125
f 589//1126 594//1126 57//1126
f 594//1127 56//1127 57//1127
f 53//1128 595//1128 590//1128
f 595//1129 596//1129 590//1129
f 590//1130 596//1130 591//1130
f 596//1131 597//1131 591//1131
f 591//1132 597//1132 592//1132
f 597//1133 598//1133 592//1133
f 592//1134 598//1134 593//1134
f 598//1135 599//1135 593//1135
f 593//1136 599//1136 594//1136
f 599//1137 600//1137 594//1137
f 594//1138 600//1138 56//1138
f 600//1139 55//1139 56//1139
f 54//1140 19//1140 595//1140
f 19//1141 18//1141 595//1141
f 595//1142 18//1142 596//1142
f 18//1143 17//1143 596//1143
f 596//1144 17//1144 597//1144
f 17//1145 16//1145 597//1145
f 597//1146 16//1146 598//1146
f 16//1147 15//1147 598//1147
f 598//1148 15//1148 599//1148
f 15//1149 14//1149 599//1149
f 599//1150 14//1150 600//1150
f 14//1151 13//1151 600//1151
f 600//1152 13//1152 55//1152
f 13//1153 3//1153 55//1153
f 34//1154 47//1154 6//1154
f 35//1155 601//1155 34//1155
f 36//1156 602//1156 35//1156
f 37//1157 604//1157 36//1157
f 38//1158 607//1158 37//1158
f 39//1159 611//1159 38//1159
f 40//1160 616//1160 39//1160
f 34//1161 601//1161 47//1161
f 601//1162 46//1162 47//1162
f 35//1163 602//1163 601//1163
f 602//1164 603//1164 601//1164
f 601//1165 603//1165 46//1165
f 603//1166 45//1166 46//1166
f 36//1167 604//1167 602//1167
f 604//1168 605//1168 602//1168
f 602//1169 605//1169 603//1169
f 605//1170 606//1170 603//1170
f 603//1171 606//1171 45//1171
f 606//1172 44//1172 45//1172
f 37//1173 607//1173 604//1173
f 607//1174 608//1174 604//1174
f 604//1175 608//1175 605//1175
f 608//1176 609//1176 605//1176
f 605//1177 609//1177 606//1177
f 609//1178 610//1178 606//1178
f 606//1179 610//1179 44//1179
f 610//1180 43//1180 44//1180
f 38//1181 611//1181 607//1181
f 611//1182 612//1182 607//1182
f 607//1183 612//1183 608//1183
f 612//1184 613//1184 608//1184
f 608//1185 613//1185 609//1185
f 613//1186 614//1186 609//1186
f 609//1187 614//1187 610//1187
f 614//1188 615//1188 610//1188
f 610//1189 615//1189 43//1189
f 615//1190 42//1190 43//1190
f 39//1191 616//1191 611//1191
f 616//1192 617//1192 611//1192
f 611//1193 617//1193 612//1193
f 617//1194 618//1194 612//1194
f 612//1195 618//1195 613//1195
f 618//1196 619//1196 613//1196
f 613//1197 619//1197 614//1197
f 619//1198 620//1198 614//1198
f 614//1199 620//1199 615//1199
f 620//1200 621//1200 615//1200
f 615//1201 621//1201 42//1201
f 621//1202 41//1202 42//1202
f 40//1203 26//1203 616//1203
f 26//1204 25//1204 616//1204
f 616//1205 25//1205 617//1205
f 25//1206 24//1206 617//1206
f 617//1207 24//1207 618//1207
f 24//1208 23//1208 618//1208
f 618//1209 23//1209 619//1209
f 23//1210 22//1210 619//1210
f 619//1211 22//1211 620//1211
f 22//1212 21//1212 620//1212
f 620//1213 21//1213 621//1213
f 21//1214 20//1214 621//1214
f 621//1215 20//1215 41//1215
f 20//1216 1//1216 41//1216
f 13//1217 33//1217 3//1217
f 14//1218 622//1218 13//1218
f 15//1219 623//1219 14//1219
f 16//1220 625//1220 15//1220
f 17//1221 628//1221 16//1221
f 18//1222 632//1222 17//1222
f 19//1223 637//1223 18//1223
f 13//1224 622//1224 33//1224
f 622//1225 32//1225 33//1225
f 14//1226 623//1226 622//1226
f 623//1227 624//1227 622//1227
f 622//1228 624//1228 32//1228
f 624//1229 31//1229 32//1229
f 15//1230 625//1230 623//1230
f 625//1231 626//1231 623//1231
f 623//1232 626//1232 624//1232
f 626//1233 627//1233 624//1233
f 624//1234 627//1234 31//1234
f 627//1235 30//1235 31//1235
f 16//1236 628//1236 625//1236
f 628//1237 629//1237 625//1237
f 625//1238 629//1238 626//1238
f 629//1239 630//1239 626//1239
f 626//1240 630//1240 627//1240
f 630//1241 631//1241 627//1241
f 627//1242 631//1242 30//1242
f 631//1243 29//1243 30//1243
f 17//1244 632//1244 628//1244
f 632//1245 633//1245 628//1245
f 628//1246 633//1246 629//1246
f 633//1247 634//1247 629//1247
f 629//1248 634//1248 630//1248
f 634//1249 635//1249 630//1249
f 630//1250 635//1250 631//1250
f 635//1251 636//1251 631//1251
f 631//1252 636//1252 29//1252
f 636//1253 28//1253 29//1253
f 18//1254 637//1254 632//1254
f 637//1255 638//1255 632//1255
f 632//1256 638//1256 633//1256
f 638//1257 639//1257 633//1257
f 633//1258 639//1258 634//1258
f 639//1259 640//1259 634//1259
f 634//1260 640//1260 635//1260
f 640//1261 641//1261 635//1261
f 635//1262 641//1262 636//1262
f 641//1263 642//1263 636//1263
f 636//1264 642//1264 28//1264
f 642//1265 27//1265 28//1265
f 19//1266 20//1266 637//1266
f 20//1267 21//1267 637//1267
f 637//1268 21//1268 638//1268
f 21//1269 22//1269 638//1269
f 638//1270 22//1270 639//1270
f 22//1271 23//1271 639//1271
f 639//1272 23//1272 640//1272
f 23//1273 24//1273 640//1273
f 640//1274 24//1274 641//1274
f 24//1275 25//1275 641//1275
f 641//1276 25//1276 642//1276
f 25//1277 26//1277 642//1277
f 642//1278 26//1278 27//1278
f 26//1279 2//1279 27//1279
