# https://github.com/mikedh/trimesh
v -0.22466575 0.26790415 0.01427825
v 0.27296941 0.32550416 -0.01734811
v -0.23372942 -0.27871218 0.01485428
v 0.21258328 -0.25349632 -0.01351037
v 0.00266473 -0.18409357 0.27127982
v 0.00250027 0.19304396 0.25453715
v -0.00200823 -0.15505363 -0.20444519
v -0.00195983 0.13539521 -0.19951803
v 0.39066696 -0.00613059 -0.17857218
v 0.36603373 0.00569999 0.11968265
v -0.43249047 -0.00673487 -0.14141211
v -0.31159186 0.00488969 0.14242729
v 0.00000000 0.23673196 0.00000000
v 0.00000000 -0.34549141 0.00000000
v -0.14943333 -0.28507852 0.16442769
v 0.12408532 -0.23199886 0.11819764
v -0.10527123 0.20953343 0.11583430
v 0.12451608 0.24289438 0.11860796
v 0.00277607 0.01127637 0.28261445
v -0.15326147 -0.29896822 -0.14598942
v 0.12609562 -0.25098261 -0.13874825
v -0.14520959 0.27149432 -0.13831960
v 0.12176686 0.23229834 -0.13398512
v -0.00212006 -0.00861167 -0.21583026
v 0.28872502 0.12902530 -0.08847040
v 0.37372966 -0.17425073 -0.11451730
v 0.23064560 -0.11565859 -0.25378892
v 0.20230731 0.08472052 -0.22260713
v 0.29827100 0.13840831 0.05313946
v 0.34137336 -0.15182880 0.06081850
v 0.23998818 -0.09849525 0.22860107
v 0.21941733 0.10783309 0.20900628
v 0.35674765 0.00000000 -0.02267250
v -0.31749964 0.14121075 -0.05656520
v -0.34857750 -0.16175231 -0.06210198
v -0.17514656 -0.08607614 -0.16683610
v -0.18719845 0.07682945 -0.17831615
v -0.36526877 0.17030586 0.11192474
v -0.38770333 -0.17325667 0.11879908
v -0.21126307 -0.08847093 0.23246152
v -0.16487711 0.08267859 0.18142112
v -0.36731961 0.00000000 0.02334438
v -0.10716594 0.27801773 0.00681075
v 0.10880511 0.28227020 -0.00691493
v -0.12321499 -0.31965335 0.00783072
v 0.10602536 -0.27505877 -0.00673826
v -0.18763871 -0.27311914 0.08348409
v -0.05096333 -0.16097649 0.14848576
v -0.08472911 -0.36576852 0.09323095
v 0.19132300 -0.27641221 0.06026262
v 0.08568440 -0.25630718 0.22581691
v 0.07459513 -0.31559679 0.07105569
v 0.00116485 -0.21833856 0.11858573
v -0.21022125 0.31238306 0.09353150
v -0.05596506 0.18949570 0.16305871
v -0.06641868 0.29221569 0.07308322
v 0.21730941 0.32051601 0.06844778
v 0.07488229 0.24011308 0.19734849
v 0.07360795 0.31738506 0.07011536
v 0.00137059 0.26803795 0.13953131
v 0.00225417 -0.06663362 0.22948361
v 0.00244954 0.09230864 0.24937249
v -0.14579336 -0.21503490 -0.04592176
v -0.06830666 -0.21902808 -0.18001877
v -0.08181250 -0.35276167 -0.07793061
v 0.17366446 -0.25806067 -0.07726668
v 0.05811125 -0.19676264 -0.16931182
v 0.07036240 -0.30956651 -0.07742267
v -0.00114641 -0.22419665 -0.11670904
v -0.19571191 0.28275305 -0.06164503
v -0.07123381 0.21308124 -0.18773312
v -0.06084609 0.25742742 -0.05795903
v 0.18189875 0.26476430 -0.08093027
v 0.05668631 0.17905354 -0.16516014
v 0.07461503 0.32210686 -0.08210201
v -0.00132304 0.24799123 -0.13469091
v -0.00260988 -0.09835104 -0.26569606
v -0.00277698 0.08208780 -0.28270718
v 0.30501042 0.22600408 -0.06424128
v 0.40708245 0.08547181 -0.15615316
v 0.20313132 0.17233454 -0.10656777
v 0.29229196 -0.22000824 -0.06156252
v 0.39650122 -0.09337013 -0.15209430
v 0.28301983 -0.25051799 -0.14847928
v 0.10372109 -0.13920202 -0.22958589
v 0.32955224 -0.06419963 -0.22880167
v 0.14329713 -0.15335481 -0.15767578
v 0.13639712 -0.07632751 -0.32891066
v 0.33520967 -0.16077726 -0.20388097
v 0.12446781 0.14570466 -0.27550860
v 0.28519230 0.04121251 -0.19800344
v 0.18532739 0.18301138 -0.20392341
v 0.09499503 0.03537178 -0.22907287
v 0.28123557 0.12267341 -0.17105288
v 0.18336482 -0.00758071 -0.20176392
v 0.31534076 0.23667371 0.02620163
v 0.32370694 0.07575218 0.08237888
v 0.27402321 0.24037853 0.10779580
v 0.34720494 0.15814417 -0.02206603
v 0.34809921 -0.25718904 0.02892353
v 0.28438555 -0.05933729 0.07237214
v 0.20726249 -0.17426189 0.08153334
v 0.36227683 -0.16500908 -0.02302389
v 0.11554859 -0.12978532 0.23101763
v 0.29304548 -0.04182937 0.16394689
v 0.20931707 -0.20257767 0.19938527
v 0.11741769 -0.04179437 0.25607077
v 0.26763443 -0.11550550 0.12721996
v 0.10365059 0.13347341 0.20722982
v 0.30408402 0.05851361 0.17012250
v 0.20786245 0.21801401 0.19799967
v 0.12391271 0.06628573 0.27023546
v 0.30425656 0.14438714 0.14462828
v 0.17563552 0.00711631 0.16730185
v 0.42177013 -0.00303593 -0.10294061
v 0.44984802 0.00322661 0.05232808
v 0.44703478 0.08922258 -0.07690005
v 0.41509798 -0.08643919 -0.07140620
v 0.35965165 0.07473400 0.01607117
v 0.43170634 -0.08598011 0.01929096
v -0.30137398 0.22266665 -0.02504113
v -0.42435715 0.08854249 -0.10799295
v -0.23511734 0.19768167 -0.09249094
v -0.29124047 -0.21858564 -0.02419914
v -0.41561431 -0.09725985 -0.10576802
v -0.21324627 -0.18706381 -0.08388725
v -0.12845403 -0.16541342 -0.25681963
v -0.23004017 -0.04426566 -0.12869801
v -0.17764132 -0.18631694 -0.16921249
v -0.12454913 -0.06662617 -0.27162341
v -0.26967323 -0.12797537 -0.12818910
v -0.09298405 0.10444060 -0.18590408
v -0.23812625 0.03399019 -0.13322184
v -0.13349380 0.12919569 -0.12715971
v -0.09043929 0.03219152 -0.19723485
v -0.31062927 0.13406118 -0.14765755
v -0.20775368 -0.00841765 -0.19789606
v -0.31000696 0.23334233 0.06529365
v -0.38684851 0.09109706 0.14839161
v -0.20479267 0.18127439 0.10743936
v -0.32664111 0.14877780 0.02075913
v -0.26112528 -0.19348643 0.05499819
v -0.34547391 -0.07253636 0.13252069
v -0.22046226 -0.18703794 0.11566002
v -0.31861346 -0.14512138 0.02024894
v -0.09595952 -0.11233225 0.21240572
v -0.36396664 -0.05259602 0.25269491
v -0.20681132 -0.20422683 0.22756308
v -0.11928970 -0.04441800 0.28765751
v -0.24797841 -0.10816682 0.15082524
v -0.11401015 0.15301075 0.25236064
v -0.28426326 0.05537694 0.19735842
v -0.18071567 0.19339967 0.19884894
v -0.09229818 0.05164985 0.22256962
v -0.26654961 0.12784571 0.16212060
v -0.20301619 0.00839314 0.22338714
v -0.37025528 -0.00265571 -0.04306955
v -0.42158994 0.00303464 0.10289664
v -0.50000000 0.09958171 -0.02234269
v -0.38715047 -0.08044813 -0.01729997
v -0.42838434 0.08920591 0.07369176
v -0.44431708 -0.08868016 0.07643255
f 1 138 54
f 138 38 140
f 54 140 17
f 138 140 54
f 38 139 155
f 139 12 152
f 155 152 41
f 139 152 155
f 17 153 55
f 153 41 151
f 55 151 6
f 153 151 55
f 38 155 140
f 155 41 153
f 140 153 17
f 155 153 140
f 1 54 43
f 54 17 56
f 43 56 13
f 54 56 43
f 17 55 60
f 55 6 58
f 60 58 18
f 55 58 60
f 13 59 44
f 59 18 57
f 44 57 2
f 59 57 44
f 17 60 56
f 60 18 59
f 56 59 13
f 60 59 56
f 1 43 70
f 43 13 72
f 70 72 22
f 43 72 70
f 13 44 75
f 44 2 73
f 75 73 23
f 44 73 75
f 22 76 71
f 76 23 74
f 71 74 8
f 76 74 71
f 13 75 72
f 75 23 76
f 72 76 22
f 75 76 72
f 1 70 121
f 70 22 123
f 121 123 34
f 70 123 121
f 22 71 134
f 71 8 132
f 134 132 37
f 71 132 134
f 34 136 122
f 136 37 133
f 122 133 11
f 136 133 122
f 22 134 123
f 134 37 136
f 123 136 34
f 134 136 123
f 1 121 138
f 121 34 141
f 138 141 38
f 121 141 138
f 34 122 159
f 122 11 157
f 159 157 42
f 122 157 159
f 38 161 139
f 161 42 158
f 139 158 12
f 161 158 139
f 34 159 141
f 159 42 161
f 141 161 38
f 159 161 141
f 2 57 96
f 57 18 98
f 96 98 29
f 57 98 96
f 18 58 111
f 58 6 109
f 111 109 32
f 58 109 111
f 29 113 97
f 113 32 110
f 97 110 10
f 113 110 97
f 18 111 98
f 111 32 113
f 98 113 29
f 111 113 98
f 6 151 62
f 151 41 154
f 62 154 19
f 151 154 62
f 41 152 156
f 152 12 147
f 156 147 40
f 152 147 156
f 19 149 61
f 149 40 146
f 61 146 5
f 149 146 61
f 41 156 154
f 156 40 149
f 154 149 19
f 156 149 154
f 12 158 143
f 158 42 162
f 143 162 39
f 158 162 143
f 42 157 160
f 157 11 125
f 160 125 35
f 157 125 160
f 39 145 142
f 145 35 124
f 142 124 3
f 145 124 142
f 42 160 162
f 160 35 145
f 162 145 39
f 160 145 162
f 11 133 128
f 133 37 137
f 128 137 36
f 133 137 128
f 37 132 135
f 132 8 78
f 135 78 24
f 132 78 135
f 36 130 127
f 130 24 77
f 127 77 7
f 130 77 127
f 37 135 137
f 135 24 130
f 137 130 36
f 135 130 137
f 8 74 90
f 74 23 92
f 90 92 28
f 74 92 90
f 23 73 81
f 73 2 79
f 81 79 25
f 73 79 81
f 28 94 91
f 94 25 80
f 91 80 9
f 94 80 91
f 23 81 92
f 81 25 94
f 92 94 28
f 81 94 92
f 4 100 50
f 100 30 102
f 50 102 16
f 100 102 50
f 30 101 108
f 101 10 105
f 108 105 31
f 101 105 108
f 16 106 51
f 106 31 104
f 51 104 5
f 106 104 51
f 30 108 102
f 108 31 106
f 102 106 16
f 108 106 102
f 4 50 46
f 50 16 52
f 46 52 14
f 50 52 46
f 16 51 53
f 51 5 48
f 53 48 15
f 51 48 53
f 14 49 45
f 49 15 47
f 45 47 3
f 49 47 45
f 16 53 52
f 53 15 49
f 52 49 14
f 53 49 52
f 4 46 66
f 46 14 68
f 66 68 21
f 46 68 66
f 14 45 65
f 45 3 63
f 65 63 20
f 45 63 65
f 21 69 67
f 69 20 64
f 67 64 7
f 69 64 67
f 14 65 68
f 65 20 69
f 68 69 21
f 65 69 68
f 4 66 82
f 66 21 84
f 82 84 26
f 66 84 82
f 21 67 87
f 67 7 85
f 87 85 27
f 67 85 87
f 26 89 83
f 89 27 86
f 83 86 9
f 89 86 83
f 21 87 84
f 87 27 89
f 84 89 26
f 87 89 84
f 4 82 100
f 82 26 103
f 100 103 30
f 82 103 100
f 26 83 118
f 83 9 115
f 118 115 33
f 83 115 118
f 30 120 101
f 120 33 116
f 101 116 10
f 120 116 101
f 26 118 103
f 118 33 120
f 103 120 30
f 118 120 103
f 5 104 61
f 104 31 107
f 61 107 19
f 104 107 61
f 31 105 114
f 105 10 110
f 114 110 32
f 105 110 114
f 19 112 62
f 112 32 109
f 62 109 6
f 112 109 62
f 31 114 107
f 114 32 112
f 107 112 19
f 114 112 107
f 3 47 142
f 47 15 144
f 142 144 39
f 47 144 142
f 15 48 148
f 48 5 146
f 148 146 40
f 48 146 148
f 39 150 143
f 150 40 147
f 143 147 12
f 150 147 143
f 15 148 144
f 148 40 150
f 144 150 39
f 148 150 144
f 7 64 127
f 64 20 129
f 127 129 36
f 64 129 127
f 20 63 126
f 63 3 124
f 126 124 35
f 63 124 126
f 36 131 128
f 131 35 125
f 128 125 11
f 131 125 128
f 20 126 129
f 126 35 131
f 129 131 36
f 126 131 129
f 9 86 91
f 86 27 95
f 91 95 28
f 86 95 91
f 27 85 88
f 85 7 77
f 88 77 24
f 85 77 88
f 28 93 90
f 93 24 78
f 90 78 8
f 93 78 90
f 27 88 95
f 88 24 93
f 95 93 28
f 88 93 95
f 10 116 97
f 116 33 119
f 97 119 29
f 116 119 97
f 33 115 117
f 115 9 80
f 117 80 25
f 115 80 117
f 29 99 96
f 99 25 79
f 96 79 2
f 99 79 96
f 33 117 119
f 117 25 99
f 119 99 29
f 117 99 119

