# https://github.com/mikedh/trimesh
v -0.21883265 0.43117015 -0.01606740
v 0.21021566 0.41419192 0.01543472
v -0.18601214 -0.36650328 -0.01365762
v 0.21608367 -0.42575378 0.01586556
v -0.03594174 -0.26794576 0.26410229
v -0.04185577 0.25455669 0.30755896
v 0.02970659 -0.18066833 -0.21828601
v 0.04042940 0.30140124 -0.29707788
v 0.27631755 0.01219974 -0.11157522
v 0.31184933 -0.01580052 0.19368011
v -0.28244612 0.01431074 -0.17541867
v -0.33275151 -0.01469137 0.13436289
v 0.00000000 0.42029458 0.00000000
v 0.00000000 -0.47978769 0.00000000
v -0.12077926 -0.33898216 0.12780960
v 0.08816509 -0.35601788 0.15001978
v -0.12879298 0.33450537 0.13628979
v 0.09883828 0.36934032 0.16818103
v -0.03722078 -0.02555659 0.27350075
v -0.09115429 -0.34062668 -0.15510612
v 0.14928163 -0.38771915 -0.15797104
v -0.11670729 0.47127361 -0.19858655
v 0.14222242 0.39916507 -0.15050093
v 0.03865304 0.02654001 -0.28402506
v 0.29248950 0.21933995 -0.06696234
v 0.32826125 -0.22779988 -0.07515190
v 0.24652075 -0.13143072 -0.26087028
v 0.18658658 0.13854712 -0.19744745
v 0.26052584 0.19683280 0.10489000
v 0.30757704 -0.25111587 0.12383323
v 0.17414164 -0.18604175 0.29631558
v 0.14074583 0.10796168 0.23949001
v 0.35895699 0.00000000 0.02635579
v -0.27862233 0.22747631 -0.11217580
v -0.25313977 -0.19125247 -0.10191630
v -0.15058279 -0.11550730 -0.25622835
v -0.11223427 0.11990389 -0.19097536
v -0.35278010 0.24481496 0.08076523
v -0.36174403 -0.27127441 0.08281742
v -0.18479165 -0.13721432 0.19554804
v -0.23669367 0.12619149 0.25047118
v -0.30268499 0.00000000 -0.02222411
v -0.11245555 0.48204836 -0.00825685
v 0.10261398 0.43986181 0.00753425
v -0.08682383 -0.37217628 -0.00637489
v 0.11398040 -0.48858475 0.00836881
v -0.20726020 -0.47935198 0.08083186
v -0.08384569 -0.31560365 0.19735574
v -0.06994889 -0.42993344 0.07402049
v 0.14067992 -0.37179776 0.08482770
v 0.03283577 -0.35732663 0.23282726
v 0.05154983 -0.45586715 0.08771606
v -0.01736821 -0.31968747 0.12762276
v -0.14164209 0.31544436 0.05524067
v -0.07566771 0.25083676 0.17810642
v -0.07866252 0.46701948 0.08324132
v 0.16382185 0.41690617 0.09878191
v 0.03333891 0.31951335 0.23639490
v 0.05001004 0.42718403 0.08509598
v -0.01716925 0.29244768 0.12616075
v -0.03099813 -0.11772173 0.22777627
v -0.04902318 0.11885480 0.36022558
v -0.17617959 -0.44835506 -0.10623342
v -0.03388738 -0.32476974 -0.24028389
v -0.04952837 -0.42306965 -0.08427639
v 0.13915076 -0.30989604 -0.05426905
v 0.10249541 -0.33976999 -0.24125338
v 0.08064795 -0.47880697 -0.08534232
v 0.02048364 -0.34890248 -0.15051512
v -0.14447303 0.38182242 -0.08711488
v -0.03445635 0.37496222 -0.24431827
v -0.05330590 0.47139647 -0.09070414
v 0.18002643 0.41636564 -0.07021064
v 0.08332382 0.31363927 -0.19612735
v 0.08134851 0.50000000 -0.08608366
v 0.01805020 0.33224046 -0.13263405
v 0.03402105 -0.08248272 -0.24998892
v 0.04011730 0.15235364 -0.29478454
v 0.30363255 0.36998824 -0.03425993
v 0.30078385 0.11543893 -0.09614421
v 0.20154434 0.27625598 -0.09658837
v 0.27496908 -0.32558407 -0.03102573
v 0.33498780 -0.10420189 -0.10707735
v 0.22811096 -0.28934345 -0.10932019
v 0.13802764 -0.17941087 -0.26602129
v 0.33795023 -0.06185933 -0.22349942
v 0.22071346 -0.29168497 -0.23356079
v 0.12547159 -0.04262328 -0.25793117
v 0.25947434 -0.16288954 -0.14796896
v 0.10852789 0.18124432 -0.20916629
v 0.32598805 0.10399023 -0.21558838
v 0.15827995 0.24231832 -0.16749314
v 0.14980903 0.10991011 -0.30796150
v 0.31693294 0.23670862 -0.18073554
v 0.18683971 0.01956143 -0.19771531
v 0.26233718 0.32704249 0.07070591
v 0.26820740 0.09331350 0.13760694
v 0.22106861 0.32948262 0.15978932
v 0.29568129 0.22252824 0.02170988
v 0.22063122 -0.28305551 0.05946520
v 0.36654123 -0.15734311 0.18805826
v 0.19838396 -0.31951082 0.14339276
v 0.26788398 -0.20160813 0.01966891
v 0.06070131 -0.21997928 0.26799700
v 0.24834276 -0.09878090 0.24575881
v 0.10530772 -0.23195899 0.17918929
v 0.05685931 -0.09787192 0.28820073
v 0.23858768 -0.21559263 0.20332500
v 0.05663803 0.15975391 0.25005757
v 0.20398172 0.04655586 0.20185934
v 0.14300271 0.27190686 0.24333026
v 0.05447770 0.04341873 0.27612913
v 0.24082977 0.18291451 0.20523571
v 0.16090287 -0.02423739 0.27378877
v 0.36242882 0.00761991 -0.05575065
v 0.29325714 -0.00656782 0.09252154
v 0.33378110 0.11451883 -0.02166670
v 0.30070664 -0.09547389 -0.01951974
v 0.33567460 0.11070316 0.07288041
v 0.32125869 -0.11449065 0.06975048
v -0.21586871 0.27694551 -0.05818159
v -0.27982707 0.12011981 -0.14356855
v -0.18400028 0.29634493 -0.13299618
v -0.25183149 -0.31394558 -0.06787439
v -0.23501723 -0.08176612 -0.12057833
v -0.17523372 -0.26116989 -0.12665966
v -0.05116191 -0.14430790 -0.22588043
v -0.20943878 -0.04780135 -0.20725963
v -0.11810162 -0.22455966 -0.20095911
v -0.06550660 -0.05220876 -0.33203093
v -0.21731949 -0.16505804 -0.18520020
v -0.05184636 0.18788928 -0.22890230
v -0.25046625 0.09962554 -0.24786021
v -0.12375696 0.27259673 -0.21058212
v -0.04222458 0.07268116 -0.21402220
v -0.25563076 0.23099310 -0.21784915
v -0.14616671 0.02201763 -0.24871406
v -0.24608974 0.29138876 0.02776717
v -0.30356728 0.09442817 0.09703392
v -0.29055977 0.36855557 0.13924824
v -0.28973577 0.21805367 -0.02127334
v -0.28114211 -0.34258275 0.03172226
v -0.33002672 -0.12666216 0.10549157
v -0.23495948 -0.32205798 0.11260229
v -0.25650119 -0.19304150 -0.01883315
v -0.12338589 -0.20605755 0.23780218
v -0.30272704 -0.09656997 0.20020498
v -0.15800884 -0.24190326 0.16720625
v -0.14306401 -0.10496151 0.29409581
v -0.25657041 -0.19162548 0.14631295
v -0.10990293 0.14285386 0.21181642
v -0.30837483 0.05644577 0.20394008
v -0.17145966 0.22659336 0.18144002
v -0.13305381 0.04519900 0.27351790
v -0.30442274 0.19110668 0.17360142
v -0.26602766 -0.02785212 0.28151265
v -0.37479883 0.00839404 -0.11824764
v -0.37820048 -0.00795150 0.05817672
v -0.36575759 0.13034923 -0.07941192
v -0.32247914 -0.10635139 -0.07001547
v -0.33787172 0.10727374 0.02193224
v -0.38152046 -0.13089800 0.02476560
f 1 138 54
f 138 38 140
f 54 140 17
f 138 140 54
f 38 139 155
f 139 12 152
f 155 152 41
f 139 152 155
f 17 153 55
f 153 41 151
f 55 151 6
f 153 151 55
f 38 155 140
f 155 41 153
f 140 153 17
f 155 153 140
f 1 54 43
f 54 17 56
f 43 56 13
f 54 56 43
f 17 55 60
f 55 6 58
f 60 58 18
f 55 58 60
f 13 59 44
f 59 18 57
f 44 57 2
f 59 57 44
f 17 60 56
f 60 18 59
f 56 59 13
f 60 59 56
f 1 43 70
f 43 13 72
f 70 72 22
f 43 72 70
f 13 44 75
f 44 2 73
f 75 73 23
f 44 73 75
f 22 76 71
f 76 23 74
f 71 74 8
f 76 74 71
f 13 75 72
f 75 23 76
f 72 76 22
f 75 76 72
f 1 70 121
f 70 22 123
f 121 123 34
f 70 123 121
f 22 71 134
f 71 8 132
f 134 132 37
f 71 132 134
f 34 136 122
f 136 37 133
f 122 133 11
f 136 133 122
f 22 134 123
f 134 37 136
f 123 136 34
f 134 136 123
f 1 121 138
f 121 34 141
f 138 141 38
f 121 141 138
f 34 122 159
f 122 11 157
f 159 157 42
f 122 157 159
f 38 161 139
f 161 42 158
f 139 158 12
f 161 158 139
f 34 159 141
f 159 42 161
f 141 161 38
f 159 161 141
f 2 57 96
f 57 18 98
f 96 98 29
f 57 98 96
f 18 58 111
f 58 6 109
f 111 109 32
f 58 109 111
f 29 113 97
f 113 32 110
f 97 110 10
f 113 110 97
f 18 111 98
f 111 32 113
f 98 113 29
f 111 113 98
f 6 151 62
f 151 41 154
f 62 154 19
f 151 154 62
f 41 152 156
f 152 12 147
f 156 147 40
f 152 147 156
f 19 149 61
f 149 40 146
f 61 146 5
f 149 146 61
f 41 156 154
f 156 40 149
f 154 149 19
f 156 149 154
f 12 158 143
f 158 42 162
f 143 162 39
f 158 162 143
f 42 157 160
f 157 11 125
f 160 125 35
f 157 125 160
f 39 145 142
f 145 35 124
f 142 124 3
f 145 124 142
f 42 160 162
f 160 35 145
f 162 145 39
f 160 145 162
f 11 133 128
f 133 37 137
f 128 137 36
f 133 137 128
f 37 132 135
f 132 8 78
f 135 78 24
f 132 78 135
f 36 130 127
f 130 24 77
f 127 77 7
f 130 77 127
f 37 135 137
f 135 24 130
f 137 130 36
f 135 130 137
f 8 74 90
f 74 23 92
f 90 92 28
f 74 92 90
f 23 73 81
f 73 2 79
f 81 79 25
f 73 79 81
f 28 94 91
f 94 25 80
f 91 80 9
f 94 80 91
f 23 81 92
f 81 25 94
f 92 94 28
f 81 94 92
f 4 100 50
f 100 30 102
f 50 102 16
f 100 102 50
f 30 101 108
f 101 10 105
f 108 105 31
f 101 105 108
f 16 106 51
f 106 31 104
f 51 104 5
f 106 104 51
f 30 108 102
f 108 31 106
f 102 106 16
f 108 106 102
f 4 50 46
f 50 16 52
f 46 52 14
f 50 52 46
f 16 51 53
f 51 5 48
f 53 48 15
f 51 48 53
f 14 49 45
f 49 15 47
f 45 47 3
f 49 47 45
f 16 53 52
f 53 15 49
f 52 49 14
f 53 49 52
f 4 46 66
f 46 14 68
f 66 68 21
f 46 68 66
f 14 45 65
f 45 3 63
f 65 63 20
f 45 63 65
f 21 69 67
f 69 20 64
f 67 64 7
f 69 64 67
f 14 65 68
f 65 20 69
f 68 69 21
f 65 69 68
f 4 66 82
f 66 21 84
f 82 84 26
f 66 84 82
f 21 67 87
f 67 7 85
f 87 85 27
f 67 85 87
f 26 89 83
f 89 27 86
f 83 86 9
f 89 86 83
f 21 87 84
f 87 27 89
f 84 89 26
f 87 89 84
f 4 82 100
f 82 26 103
f 100 103 30
f 82 103 100
f 26 83 118
f 83 9 115
f 118 115 33
f 83 115 118
f 30 120 101
f 120 33 116
f 101 116 10
f 120 116 101
f 26 118 103
f 118 33 120
f 103 120 30
f 118 120 103
f 5 104 61
f 104 31 107
f 61 107 19
f 104 107 61
f 31 105 114
f 105 10 110
f 114 110 32
f 105 110 114
f 19 112 62
f 112 32 109
f 62 109 6
f 112 109 62
f 31 114 107
f 114 32 112
f 107 112 19
f 114 112 107
f 3 47 142
f 47 15 144
f 142 144 39
f 47 144 142
f 15 48 148
f 48 5 146
f 148 146 40
f 48 146 148
f 39 150 143
f 150 40 147
f 143 147 12
f 150 147 143
f 15 148 144
f 148 40 150
f 144 150 39
f 148 150 144
f 7 64 127
f 64 20 129
f 127 129 36
f 64 129 127
f 20 63 126
f 63 3 124
f 126 124 35
f 63 124 126
f 36 131 128
f 131 35 125
f 128 125 11
f 131 125 128
f 20 126 129
f 126 35 131
f 129 131 36
f 126 131 129
f 9 86 91
f 86 27 95
f 91 95 28
f 86 95 91
f 27 85 88
f 85 7 77
f 88 77 24
f 85 77 88
f 28 93 90
f 93 24 78
f 90 78 8
f 93 78 90
f 27 88 95
f 88 24 93
f 95 93 28
f 88 93 95
f 10 116 97
f 116 33 119
f 97 119 29
f 116 119 97
f 33 115 117
f 115 9 80
f 117 80 25
f 115 80 117
f 29 99 96
f 99 25 79
f 96 79 2
f 99 79 96
f 33 117 119
f 117 25 99
f 119 99 29
f 117 99 119

