# https://github.com/mikedh/trimesh
v -0.25816533 0.40034418 0.02241098
v 0.26568357 0.41200292 -0.02306362
v -0.23454744 -0.36371925 0.02036074
v 0.24959088 -0.38704753 -0.02166664
v -0.03270993 -0.30119667 0.30512654
v -0.03030835 0.19799540 0.28272406
v 0.02895241 -0.18913745 -0.27007551
v 0.03256999 0.29990812 -0.30382118
v 0.29014103 0.01725046 -0.14436031
v 0.31130221 -0.02031438 0.11331676
v -0.30046077 0.01960691 -0.10937038
v -0.36757301 -0.02185421 0.18288677
v 0.00000000 0.33369246 0.00000000
v 0.00000000 -0.37381298 0.00000000
v -0.13653245 -0.32521588 0.14882101
v 0.12830939 -0.39038439 0.15327700
v -0.17590347 0.36790931 0.19173560
v 0.09624787 0.25713171 0.11497665
v -0.02693586 -0.03603226 0.25126459
v -0.13895063 -0.37121458 -0.16598890
v 0.15574808 -0.32575348 -0.16976613
v -0.10428746 0.31729710 -0.12458067
v 0.16964356 0.40408546 -0.18491227
v 0.03604197 0.04821355 -0.33620867
v 0.34635604 0.21236953 -0.11950882
v 0.40650419 -0.21885929 -0.14026271
v 0.23875384 -0.09139801 -0.26024279
v 0.25669396 0.17281648 -0.27979761
v 0.28700904 0.16367090 0.05358898
v 0.37519480 -0.24367007 0.07005461
v 0.22076395 -0.18984354 0.26372221
v 0.17118781 0.08370615 0.20449909
v 0.42982799 0.00000000 -0.03731278
v -0.34826632 0.22618138 -0.06502665
v -0.26988869 -0.15390779 -0.05039235
v -0.16451053 -0.08044114 -0.19652248
v -0.18480408 0.15892024 -0.22076494
v -0.39686630 0.21367031 0.13693720
v -0.39047022 -0.23941831 0.13473025
v -0.25792432 -0.17364481 0.28113871
v -0.23864669 0.09135700 0.26012600
v -0.47302728 0.00000000 0.04106285
v -0.13394738 0.45190068 0.01162779
v 0.11642954 0.39280043 -0.01010709
v -0.09794209 -0.33042898 0.00850222
v 0.11595613 -0.39120325 -0.01006599
v -0.18304177 -0.34430671 0.08885528
v -0.10228069 -0.35247067 0.24284353
v -0.09714873 -0.50000000 0.10589256
v 0.17067240 -0.35135050 0.05964256
v 0.04577622 -0.31240547 0.20339625
v 0.05227922 -0.34368466 0.06245219
v -0.01840575 -0.40387177 0.17169352
v -0.16172895 0.28555262 0.07850925
v -0.10150960 0.28259096 0.24101276
v -0.06541830 0.31769229 0.07130625
v 0.16118954 0.31147072 0.05632872
v 0.04310037 0.23761917 0.19150671
v 0.05790550 0.35919094 0.06917328
v -0.01746036 0.33641380 0.16287472
v -0.03028093 -0.15005215 0.28246827
v -0.03566503 0.08131353 0.33269253
v -0.15697623 -0.30332922 -0.05485635
v -0.04566587 -0.25176320 -0.20290594
v -0.05565054 -0.34520333 -0.06647953
v 0.21634708 -0.38198772 -0.10502292
v 0.07904875 -0.22006256 -0.18768430
v 0.09701002 -0.47111183 -0.10574137
v 0.01675360 -0.32279633 -0.15628183
v -0.19123434 0.39367983 -0.06682807
v -0.05135527 0.35048037 -0.22818548
v -0.05719442 0.37599725 -0.06832382
v 0.22842888 0.42968114 -0.11088787
v 0.08443525 0.29097330 -0.20047337
v 0.09466418 0.48721269 -0.10318440
v 0.02028651 0.44514067 -0.18923771
v 0.03428256 -0.07816161 -0.31979651
v 0.03457170 0.17131433 -0.32249362
v 0.33514556 0.32714280 -0.08213526
v 0.41173378 0.13463347 -0.17451925
v 0.31011878 0.35144258 -0.17493551
v 0.32694836 -0.30416125 -0.08012634
v 0.39479470 -0.09057122 -0.16733938
v 0.29598833 -0.29453127 -0.16696463
v 0.16153834 -0.16361424 -0.31241344
v 0.36357616 -0.04053578 -0.26415602
v 0.21249469 -0.22003588 -0.23162020
v 0.15245216 -0.02732939 -0.31475848
v 0.27941811 -0.13293506 -0.18021534
v 0.15942238 0.24672402 -0.30832119
v 0.41512782 0.12316746 -0.30161083
v 0.19453051 0.25793102 -0.21203916
v 0.15972005 0.12008546 -0.32976404
v 0.34335290 0.21883400 -0.22145114
v 0.21508000 0.03123248 -0.23443820
v 0.31825054 0.30656999 0.02452729
v 0.40602015 0.10047562 0.11237335
v 0.19437932 0.21570281 0.08658686
v 0.35289408 0.20902811 -0.03063425
v 0.31543885 -0.31882681 0.02431060
v 0.38477798 -0.13571909 0.10649420
v 0.26476991 -0.33461380 0.11794255
v 0.39104862 -0.23162801 -0.03394639
v 0.06989695 -0.18021688 0.20903349
v 0.30286481 -0.10429960 0.19859993
v 0.18354467 -0.31085350 0.21926046
v 0.10291579 -0.13528299 0.34694388
v 0.34674508 -0.25135874 0.19002842
v 0.08690606 0.14664615 0.25990087
v 0.32444384 0.04198579 0.21275012
v 0.14471164 0.19140225 0.17287094
v 0.10212152 0.03200692 0.34426629
v 0.32686879 0.17687565 0.17913552
v 0.18669460 -0.03462871 0.22302333
v 0.41103695 0.01150950 -0.11519415
v 0.35059539 -0.01024601 0.04034917
v 0.42617824 0.11869611 -0.08698633
v 0.45374633 -0.11096573 -0.09261319
v 0.40805499 0.10239095 0.01368856
v 0.35714609 -0.10206063 0.01198077
v -0.26604461 0.26890205 -0.02050383
v -0.35610804 0.12560662 -0.09855928
v -0.24019629 0.30355788 -0.10699616
v -0.24176764 -0.23289420 -0.01863282
v -0.31675134 -0.07838475 -0.08766661
v -0.18868266 -0.20938123 -0.08404926
v -0.08550635 -0.14428427 -0.25571491
v -0.32290673 -0.04178688 -0.21174218
v -0.17141988 -0.22672779 -0.20477631
v -0.07689683 -0.02410100 -0.25923024
v -0.27226979 -0.14733097 -0.14921336
v -0.08373324 0.21589130 -0.25041223
v -0.26202199 0.09023428 -0.17181775
v -0.17855293 0.30239943 -0.21329739
v -0.07652604 0.10059362 -0.25798025
v -0.22761910 0.16500321 -0.12474322
v -0.15170287 0.02813833 -0.18122259
v -0.29133046 0.27102580 0.07139734
v -0.33151230 0.07605339 0.14051623
v -0.26329821 0.26200209 0.14852440
v -0.36798526 0.21796700 0.03194429
v -0.26559300 -0.25925105 0.06508977
v -0.49007547 -0.16025054 0.20772550
v -0.21039920 -0.23843522 0.11868450
v -0.45505921 -0.26954310 0.03950306
v -0.15108663 -0.23382351 0.29219993
v -0.35167781 -0.10434199 0.25551127
v -0.22886890 -0.30346081 0.24946816
v -0.18281500 -0.13744939 0.37744675
v -0.27748856 -0.17685574 0.17897085
v -0.14512095 0.14698587 0.28066237
v -0.34736121 0.03872795 0.25237505
v -0.20893206 0.21634682 0.22773692
v -0.12519203 0.02244259 0.25847618
v -0.27885660 0.13266792 0.17985319
v -0.26143172 -0.03796337 0.28496179
v -0.45843840 0.01339768 -0.05276056
v -0.44855278 -0.01255999 0.12570806
v -0.46859868 0.13391012 -0.01571955
v -0.40663120 -0.10203368 -0.01364080
v -0.38584950 0.09436125 0.07875491
v -0.47505246 -0.13230821 0.09696194
f 1 138 54
f 138 38 140
f 54 140 17
f 138 140 54
f 38 139 155
f 139 12 152
f 155 152 41
f 139 152 155
f 17 153 55
f 153 41 151
f 55 151 6
f 153 151 55
f 38 155 140
f 155 41 153
f 140 153 17
f 155 153 140
f 1 54 43
f 54 17 56
f 43 56 13
f 54 56 43
f 17 55 60
f 55 6 58
f 60 58 18
f 55 58 60
f 13 59 44
f 59 18 57
f 44 57 2
f 59 57 44
f 17 60 56
f 60 18 59
f 56 59 13
f 60 59 56
f 1 43 70
f 43 13 72
f 70 72 22
f 43 72 70
f 13 44 75
f 44 2 73
f 75 73 23
f 44 73 75
f 22 76 71
f 76 23 74
f 71 74 8
f 76 74 71
f 13 75 72
f 75 23 76
f 72 76 22
f 75 76 72
f 1 70 121
f 70 22 123
f 121 123 34
f 70 123 121
f 22 71 134
f 71 8 132
f 134 132 37
f 71 132 134
f 34 136 122
f 136 37 133
f 122 133 11
f 136 133 122
f 22 134 123
f 134 37 136
f 123 136 34
f 134 136 123
f 1 121 138
f 121 34 141
f 138 141 38
f 121 141 138
f 34 122 159
f 122 11 157
f 159 157 42
f 122 157 159
f 38 161 139
f 161 42 158
f 139 158 12
f 161 158 139
f 34 159 141
f 159 42 161
f 141 161 38
f 159 161 141
f 2 57 96
f 57 18 98
f 96 98 29
f 57 98 96
f 18 58 111
f 58 6 109
f 111 109 32
f 58 109 111
f 29 113 97
f 113 32 110
f 97 110 10
f 113 110 97
f 18 111 98
f 111 32 113
f 98 113 29
f 111 113 98
f 6 151 62
f 151 41 154
f 62 154 19
f 151 154 62
f 41 152 156
f 152 12 147
f 156 147 40
f 152 147 156
f 19 149 61
f 149 40 146
f 61 146 5
f 149 146 61
f 41 156 154
f 156 40 149
f 154 149 19
f 156 149 154
f 12 158 143
f 158 42 162
f 143 162 39
f 158 162 143
f 42 157 160
f 157 11 125
f 160 125 35
f 157 125 160
f 39 145 142
f 145 35 124
f 142 124 3
f 145 124 142
f 42 160 162
f 160 35 145
f 162 145 39
f 160 145 162
f 11 133 128
f 133 37 137
f 128 137 36
f 133 137 128
f 37 132 135
f 132 8 78
f 135 78 24
f 132 78 135
f 36 130 127
f 130 24 77
f 127 77 7
f 130 77 127
f 37 135 137
f 135 24 130
f 137 130 36
f 135 130 137
f 8 74 90
f 74 23 92
f 90 92 28
f 74 92 90
f 23 73 81
f 73 2 79
f 81 79 25
f 73 79 81
f 28 94 91
f 94 25 80
f 91 80 9
f 94 80 91
f 23 81 92
f 81 25 94
f 92 94 28
f 81 94 92
f 4 100 50
f 100 30 102
f 50 102 16
f 100 102 50
f 30 101 108
f 101 10 105
f 108 105 31
f 101 105 108
f 16 106 51
f 106 31 104
f 51 104 5
f 106 104 51
f 30 108 102
f 108 31 106
f 102 106 16
f 108 106 102
f 4 50 46
f 50 16 52
f 46 52 14
f 50 52 46
f 16 51 53
f 51 5 48
f 53 48 15
f 51 48 53
f 14 49 45
f 49 15 47
f 45 47 3
f 49 47 45
f 16 53 52
f 53 15 49
f 52 49 14
f 53 49 52
f 4 46 66
f 46 14 68
f 66 68 21
f 46 68 66
f 14 45 65
f 45 3 63
f 65 63 20
f 45 63 65
f 21 69 67
f 69 20 64
f 67 64 7
f 69 64 67
f 14 65 68
f 65 20 69
f 68 69 21
f 65 69 68
f 4 66 82
f 66 21 84
f 82 84 26
f 66 84 82
f 21 67 87
f 67 7 85
f 87 85 27
f 67 85 87
f 26 89 83
f 89 27 86
f 83 86 9
f 89 86 83
f 21 87 84
f 87 27 89
f 84 89 26
f 87 89 84
f 4 82 100
f 82 26 103
f 100 103 30
f 82 103 100
f 26 83 118
f 83 9 115
f 118 115 33
f 83 115 118
f 30 120 101
f 120 33 116
f 101 116 10
f 120 116 101
f 26 118 103
f 118 33 120
f 103 120 30
f 118 120 103
f 5 104 61
f 104 31 107
f 61 107 19
f 104 107 61
f 31 105 114
f 105 10 110
f 114 110 32
f 105 110 114
f 19 112 62
f 112 32 109
f 62 109 6
f 112 109 62
f 31 114 107
f 114 32 112
f 107 112 19
f 114 112 107
f 3 47 142
f 47 15 144
f 142 144 39
f 47 144 142
f 15 48 148
f 48 5 146
f 148 146 40
f 48 146 148
f 39 150 143
f 150 40 147
f 143 147 12
f 150 147 143
f 15 148 144
f 148 40 150
f 144 150 39
f 148 150 144
f 7 64 127
f 64 20 129
f 127 129 36
f 64 129 127
f 20 63 126
f 63 3 124
f 126 124 35
f 63 124 126
f 36 131 128
f 131 35 125
f 128 125 11
f 131 125 128
f 20 126 129
f 126 35 131
f 129 131 36
f 126 131 129
f 9 86 91
f 86 27 95
f 91 95 28
f 86 95 91
f 27 85 88
f 85 7 77
f 88 77 24
f 85 77 88
f 28 93 90
f 93 24 78
f 90 78 8
f 93 78 90
f 27 88 95
f 88 24 93
f 95 93 28
f 88 93 95
f 10 116 97
f 116 33 119
f 97 119 29
f 116 119 97
f 33 115 117
f 115 9 80
f 117 80 25
f 115 80 117
f 29 99 96
f 99 25 79
f 96 79 2
f 99 79 96
f 33 117 119
f 117 25 99
f 119 99 29
f 117 99 119

