# https://github.com/mikedh/trimesh
v -0.25100071 0.19165352 0.00114085
v 0.20308575 0.15506768 -0.00092307
v -0.19489927 -0.14881684 0.00088586
v 0.22996113 -0.17558859 -0.00104522
v 0.00639167 -0.10668017 0.09039117
v 0.00512394 0.09971665 0.07246288
v -0.00439505 -0.08553179 -0.06215492
v -0.00703847 0.11747550 -0.09953816
v 0.35384833 -0.00493709 -0.05202848
v 0.42563760 0.00582146 0.05751722
v -0.44841864 -0.00613304 -0.06059566
v -0.26317532 0.00367197 0.03869627
v 0.00000000 0.20473108 0.00000000
v 0.00000000 -0.17730953 0.00000000
v -0.11854759 -0.14598517 0.04549521
v 0.13026784 -0.15225505 0.04629511
v -0.10277224 0.13419123 0.03944108
v 0.12779224 0.15836941 0.04541532
v 0.00638895 0.00885009 0.09035269
v -0.11211538 -0.13894151 -0.03984402
v 0.10529803 -0.13748919 -0.04041040
v -0.11053565 0.12919237 -0.03928261
v 0.13829448 0.17030243 -0.05307351
v -0.00538994 -0.00746623 -0.07622458
v 0.32981630 0.09395529 -0.03043278
v 0.26086443 -0.07879457 -0.02407046
v 0.22852397 -0.07692229 -0.08770103
v 0.21793092 0.05717155 -0.08363572
v 0.39322169 0.11731828 0.03228617
v 0.29741152 -0.08368617 0.02441950
v 0.16799298 -0.04182835 0.05970203
v 0.22441198 0.07169435 0.07975244
v 0.50000000 0.00000000 -0.00227261
v -0.31717291 0.08924667 -0.02604205
v -0.36081634 -0.10765009 -0.02962547
v -0.25146076 -0.08033581 -0.08936515
v -0.23782723 0.05921629 -0.08452001
v -0.36552443 0.11040732 0.03372764
v -0.31541803 -0.08985364 0.02910423
v -0.21347174 -0.05600174 0.08192441
v -0.22420402 0.07546817 0.08604316
v -0.41816074 0.00000000 0.00190063
v -0.12604261 0.20937866 0.00057289
v 0.10850338 0.18024294 -0.00049317
v -0.10385937 -0.17252844 0.00047206
v 0.10326980 -0.17154906 -0.00046938
v -0.21878138 -0.20431797 0.03119844
v -0.05888183 -0.12293747 0.06346889
v -0.07090563 -0.19850034 0.02721157
v 0.22712102 -0.20804567 0.02972277
v 0.06734469 -0.12208119 0.06245495
v 0.05785580 -0.15372550 0.02056103
v 0.00415794 -0.19100593 0.05880171
v -0.17285178 0.16609805 0.02464883
v -0.05614360 0.12902202 0.06051734
v -0.07379878 0.21208054 0.02832188
v 0.21099344 0.19886794 0.02761220
v 0.07800737 0.15564733 0.07234344
v 0.08297221 0.22630950 0.02948700
v 0.00355753 0.17328035 0.05031067
v 0.00717278 -0.04965915 0.10143765
v 0.00682965 0.06620465 0.09658506
v -0.18361526 -0.17306314 -0.02402928
v -0.08915035 -0.17788081 -0.08267736
v -0.07263842 -0.19812375 -0.02581454
v 0.14165369 -0.13611894 -0.02019995
v 0.05228829 -0.12016224 -0.05636169
v 0.07195225 -0.20677403 -0.02761324
v -0.00303839 -0.14799420 -0.04296902
v -0.17868424 0.16367698 -0.02338397
v -0.06601990 0.11967963 -0.06122635
v -0.07707284 0.20478608 -0.02739046
v 0.16638697 0.15538730 -0.02372694
v 0.05442877 0.11364005 -0.05866891
v 0.07021456 0.19656570 -0.02694636
v -0.00302932 0.13915970 -0.04284070
v -0.00643094 -0.06233962 -0.09094642
v -0.00730380 0.05056620 -0.10329047
v 0.31797941 0.15076155 -0.01831197
v 0.45049094 0.05946396 -0.05418882
v 0.22093003 0.11989398 -0.03792573
v 0.32090674 -0.15548301 -0.01848055
v 0.38191904 -0.05906952 -0.04594042
v 0.20732650 -0.11929706 -0.03559050
v 0.09089024 -0.08278403 -0.07317376
v 0.33146054 -0.04380662 -0.07748510
v 0.13861617 -0.09797002 -0.05319696
v 0.08624482 -0.03411958 -0.07603190
v 0.32267089 -0.10166875 -0.06525158
v 0.10268939 0.07743174 -0.08267299
v 0.25508904 0.02226206 -0.05963183
v 0.15508611 0.09809273 -0.05951766
v 0.08240929 0.01844781 -0.07265057
v 0.25156846 0.06952650 -0.05087301
v 0.23425754 -0.00869880 -0.08990142
v 0.31523863 0.15159988 0.01516401
v 0.43185508 0.06571751 0.04721665
v 0.18985231 0.10672083 0.03013264
v 0.40926112 0.11936227 -0.00186018
v 0.29911639 -0.14076255 0.01438848
v 0.30985682 -0.04024202 0.03387803
v 0.27033999 -0.14332148 0.04290735
v 0.38421170 -0.11205653 -0.00174632
v 0.11122659 -0.07534212 0.07948223
v 0.24508262 -0.02071740 0.05330131
v 0.21439056 -0.12870283 0.07619098
v 0.10082446 -0.02008034 0.07821375
v 0.26759794 -0.07194591 0.05024380
v 0.10589901 0.08664769 0.07567516
v 0.33325971 0.04266186 0.07247833
v 0.18852523 0.12646411 0.06699886
v 0.10277857 0.03617510 0.07972963
v 0.29497716 0.09041600 0.05538449
v 0.17864961 0.00629631 0.06348922
v 0.43853101 -0.00279720 -0.03055971
v 0.39308327 0.00248443 0.02358565
v 0.33414214 0.04242376 -0.01458322
v 0.39379506 -0.05301277 -0.01718670
v 0.37225837 0.04983801 0.01278276
v 0.49324119 -0.06227923 0.01693711
v -0.30218761 0.14220785 -0.01453622
v -0.31225284 0.04055320 -0.03414000
v -0.20048586 0.10628812 -0.03182036
v -0.27008996 -0.12988765 -0.01299221
v -0.34026829 -0.05178030 -0.03720306
v -0.23823826 -0.13391981 -0.03781228
v -0.12808537 -0.10480080 -0.09152947
v -0.26379284 -0.03376914 -0.05737046
v -0.19056952 -0.12783542 -0.06772537
v -0.12424179 -0.04372953 -0.09637954
v -0.27254796 -0.08354103 -0.05117321
v -0.11374362 0.07704710 -0.08128090
v -0.25665861 0.02169594 -0.05581889
v -0.20296604 0.12184447 -0.07213089
v -0.10736895 0.02138374 -0.08329057
v -0.33421699 0.08985700 -0.06275210
v -0.23031906 -0.00811735 -0.08185172
v -0.26836001 0.13002351 0.01545446
v -0.32576637 0.05038466 0.03918590
v -0.27072742 0.15577837 0.04647415
v -0.38786144 0.11312099 0.00176291
v -0.25961014 -0.12308730 0.01495057
v -0.33067802 -0.04364888 0.03977672
v -0.26610587 -0.14440993 0.04568080
v -0.26281918 -0.07665202 0.00119457
v -0.08329249 -0.06280573 0.06705697
v -0.31037632 -0.02708708 0.07255627
v -0.17621619 -0.11145762 0.06762679
v -0.11311865 -0.02532228 0.09972339
v -0.27581017 -0.07622623 0.05577525
v -0.12093046 0.11014506 0.09735849
v -0.31797422 0.04202424 0.07433242
v -0.17937265 0.12677555 0.06883815
v -0.11209258 0.04434530 0.09881883
v -0.24748426 0.07797857 0.05004709
v -0.18428547 0.00684316 0.07072355
v -0.42689618 -0.00269814 -0.02561449
v -0.43298058 0.00276180 0.03017292
v -0.35893362 0.04532085 -0.01232520
v -0.41821487 -0.05599068 -0.01436083
v -0.43202277 0.05815899 0.01885510
v -0.39488577 -0.05013597 0.01723430
f 1 138 54
f 138 38 140
f 54 140 17
f 138 140 54
f 38 139 155
f 139 12 152
f 155 152 41
f 139 152 155
f 17 153 55
f 153 41 151
f 55 151 6
f 153 151 55
f 38 155 140
f 155 41 153
f 140 153 17
f 155 153 140
f 1 54 43
f 54 17 56
f 43 56 13
f 54 56 43
f 17 55 60
f 55 6 58
f 60 58 18
f 55 58 60
f 13 59 44
f 59 18 57
f 44 57 2
f 59 57 44
f 17 60 56
f 60 18 59
f 56 59 13
f 60 59 56
f 1 43 70
f 43 13 72
f 70 72 22
f 43 72 70
f 13 44 75
f 44 2 73
f 75 73 23
f 44 73 75
f 22 76 71
f 76 23 74
f 71 74 8
f 76 74 71
f 13 75 72
f 75 23 76
f 72 76 22
f 75 76 72
f 1 70 121
f 70 22 123
f 121 123 34
f 70 123 121
f 22 71 134
f 71 8 132
f 134 132 37
f 71 132 134
f 34 136 122
f 136 37 133
f 122 133 11
f 136 133 122
f 22 134 123
f 134 37 136
f 123 136 34
f 134 136 123
f 1 121 138
f 121 34 141
f 138 141 38
f 121 141 138
f 34 122 159
f 122 11 157
f 159 157 42
f 122 157 159
f 38 161 139
f 161 42 158
f 139 158 12
f 161 158 139
f 34 159 141
f 159 42 161
f 141 161 38
f 159 161 141
f 2 57 96
f 57 18 98
f 96 98 29
f 57 98 96
f 18 58 111
f 58 6 109
f 111 109 32
f 58 109 111
f 29 113 97
f 113 32 110
f 97 110 10
f 113 110 97
f 18 111 98
f 111 32 113
f 98 113 29
f 111 113 98
f 6 151 62
f 151 41 154
f 62 154 19
f 151 154 62
f 41 152 156
f 152 12 147
f 156 147 40
f 152 147 156
f 19 149 61
f 149 40 146
f 61 146 5
f 149 146 61
f 41 156 154
f 156 40 149
f 154 149 19
f 156 149 154
f 12 158 143
f 158 42 162
f 143 162 39
f 158 162 143
f 42 157 160
f 157 11 125
f 160 125 35
f 157 125 160
f 39 145 142
f 145 35 124
f 142 124 3
f 145 124 142
f 42 160 162
f 160 35 145
f 162 145 39
f 160 145 162
f 11 133 128
f 133 37 137
f 128 137 36
f 133 137 128
f 37 132 135
f 132 8 78
f 135 78 24
f 132 78 135
f 36 130 127
f 130 24 77
f 127 77 7
f 130 77 127
f 37 135 137
f 135 24 130
f 137 130 36
f 135 130 137
f 8 74 90
f 74 23 92
f 90 92 28
f 74 92 90
f 23 73 81
f 73 2 79
f 81 79 25
f 73 79 81
f 28 94 91
f 94 25 80
f 91 80 9
f 94 80 91
f 23 81 92
f 81 25 94
f 92 94 28
f 81 94 92
f 4 100 50
f 100 30 102
f 50 102 16
f 100 102 50
f 30 101 108
f 101 10 105
f 108 105 31
f 101 105 108
f 16 106 51
f 106 31 104
f 51 104 5
f 106 104 51
f 30 108 102
f 108 31 106
f 102 106 16
f 108 106 102
f 4 50 46
f 50 16 52
f 46 52 14
f 50 52 46
f 16 51 53
f 51 5 48
f 53 48 15
f 51 48 53
f 14 49 45
f 49 15 47
f 45 47 3
f 49 47 45
f 16 53 52
f 53 15 49
f 52 49 14
f 53 49 52
f 4 46 66
f 46 14 68
f 66 68 21
f 46 68 66
f 14 45 65
f 45 3 63
f 65 63 20
f 45 63 65
f 21 69 67
f 69 20 64
f 67 64 7
f 69 64 67
f 14 65 68
f 65 20 69
f 68 69 21
f 65 69 68
f 4 66 82
f 66 21 84
f 82 84 26
f 66 84 82
f 21 67 87
f 67 7 85
f 87 85 27
f 67 85 87
f 26 89 83
f 89 27 86
f 83 86 9
f 89 86 83
f 21 87 84
f 87 27 89
f 84 89 26
f 87 89 84
f 4 82 100
f 82 26 103
f 100 103 30
f 82 103 100
f 26 83 118
f 83 9 115
f 118 115 33
f 83 115 118
f 30 120 101
f 120 33 116
f 101 116 10
f 120 116 101
f 26 118 103
f 118 33 120
f 103 120 30
f 118 120 103
f 5 104 61
f 104 31 107
f 61 107 19
f 104 107 61
f 31 105 114
f 105 10 110
f 114 110 32
f 105 110 114
f 19 112 62
f 112 32 109
f 62 109 6
f 112 109 62
f 31 114 107
f 114 32 112
f 107 112 19
f 114 112 107
f 3 47 142
f 47 15 144
f 142 144 39
f 47 144 142
f 15 48 148
f 48 5 146
f 148 146 40
f 48 146 148
f 39 150 143
f 150 40 147
f 143 147 12
f 150 147 143
f 15 148 144
f 148 40 150
f 144 150 39
f 148 150 144
f 7 64 127
f 64 20 129
f 127 129 36
f 64 129 127
f 20 63 126
f 63 3 124
f 126 124 35
f 63 124 126
f 36 131 128
f 131 35 125
f 128 125 11
f 131 125 128
f 20 126 129
f 126 35 131
f 129 131 36
f 126 131 129
f 9 86 91
f 86 27 95
f 91 95 28
f 86 95 91
f 27 85 88
f 85 7 77
f 88 77 24
f 85 77 88
f 28 93 90
f 93 24 78
f 90 78 8
f 93 78 90
f 27 88 95
f 88 24 93
f 95 93 28
f 88 93 95
f 10 116 97
f 116 33 119
f 97 119 29
f 116 119 97
f 33 115 117
f 115 9 80
f 117 80 25
f 115 80 117
f 29 99 96
f 99 25 79
f 96 79 2
f 99 79 96
f 33 117 119
f 117 25 99
f 119 99 29
f 117 99 119

