# https://github.com/mikedh/trimesh
v -0.25100073 0.16678080 0.01403415
v 0.19184590 0.12747457 -0.01072664
v -0.24962583 -0.16586722 0.01395727
v 0.26045031 -0.17305970 -0.01456250
v 0.01130922 -0.08236520 0.11491738
v 0.00927912 0.09077468 0.09428875
v -0.01123309 -0.10988971 -0.11414377
v -0.00890655 0.06486649 -0.09050288
v 0.31755951 -0.00743275 -0.07851782
v 0.39144427 0.00883131 0.05030861
v -0.33088230 -0.00746498 -0.04252516
v -0.35356108 0.00827540 0.08741935
v 0.00000000 0.17556180 0.00000000
v 0.00000000 -0.19604077 0.00000000
v -0.14813642 -0.15795653 0.08480863
v 0.16542410 -0.16019153 0.06835939
v -0.12749054 0.15205480 0.07298879
v 0.11774767 0.12753798 0.04865772
v 0.01282422 0.01602814 0.13031188
v -0.12049374 -0.13051237 -0.04979250
v 0.10612161 -0.12656861 -0.06075500
v -0.16379814 0.15861700 -0.06768749
v 0.12272836 0.13086414 -0.07026243
v -0.01157250 -0.01446370 -0.11759264
v 0.27294066 0.06614886 -0.04730831
v 0.32025776 -0.08681610 -0.05550970
v 0.22142096 -0.07303058 -0.12676430
v 0.19072202 0.03880100 -0.10918904
v 0.36041743 0.09550755 0.02121584
v 0.39287272 -0.09307592 0.02312631
v 0.20933944 -0.03867748 0.08650685
v 0.20695160 0.06198974 0.08552010
v 0.37885109 0.00000000 -0.02118262
v -0.37050231 0.08777612 -0.02180948
v -0.37238253 -0.09867819 -0.02192016
v -0.24873448 -0.07450528 -0.10278634
v -0.19429558 0.03589798 -0.08029017
v -0.35620417 0.09656052 0.06174022
v -0.32207683 -0.07805732 0.05582500
v -0.21131374 -0.04299024 0.12097788
v -0.23264089 0.07673122 0.13318775
v -0.44003448 0.00000000 0.02460355
v -0.12253306 0.17713219 0.00685116
v 0.11741989 0.16974066 -0.00656527
v -0.10220199 -0.14774186 0.00571440
v 0.12662196 -0.18304305 -0.00707979
v -0.14725313 -0.11907272 0.03552464
v -0.05910244 -0.10946231 0.09354223
v -0.06470345 -0.15932634 0.03704296
v 0.20240955 -0.15794362 0.02488319
v 0.06239727 -0.08897346 0.06985841
v 0.07323795 -0.16378018 0.03026464
v 0.00621651 -0.13110266 0.06316832
v -0.17913176 0.15297291 0.04321532
v -0.05579541 0.12417883 0.08830815
v -0.05725220 0.14821409 0.03277709
v 0.14389876 0.11858297 0.01769017
v 0.07635106 0.13082776 0.08548073
v 0.07150784 0.16811869 0.02954970
v 0.00552539 0.13033906 0.05614563
v 0.01265171 -0.03380898 0.12855894
v 0.01281627 0.06628515 0.13023110
v -0.17156622 -0.14138296 -0.02109147
v -0.06994808 -0.11985623 -0.07831211
v -0.08006315 -0.18823268 -0.03308507
v 0.19913756 -0.17005723 -0.04804170
v 0.05309348 -0.11816538 -0.08403176
v 0.05216451 -0.13504311 -0.02986437
v -0.00650658 -0.15348433 -0.06611582
v -0.15561577 0.12142964 -0.01913060
v -0.07917725 0.11290036 -0.08864486
v -0.07476702 0.16719960 -0.03089651
v 0.15369126 0.12427876 -0.03707783
v 0.05401072 0.10003205 -0.08548350
v 0.06900960 0.16992984 -0.03950824
v -0.00570073 0.12022521 -0.05792731
v -0.01151848 -0.05957304 -0.11704376
v -0.01422121 0.03800313 -0.14450722
v 0.24989948 0.10240101 -0.03167723
v 0.29177335 0.03110744 -0.06158945
v 0.26239216 0.12172225 -0.07364241
v 0.28602876 -0.12216333 -0.03625697
v 0.41122307 -0.05945399 -0.08680369
v 0.21211163 -0.11006014 -0.05953078
v 0.09766094 -0.08766208 -0.11476942
v 0.25336767 -0.03411623 -0.09256404
v 0.14931523 -0.09845930 -0.08548351
v 0.09535453 -0.04149167 -0.12282128
v 0.29487011 -0.08639616 -0.09502036
v 0.09359227 0.05838162 -0.10998798
v 0.27932406 0.01646639 -0.10204681
v 0.17307291 0.09225156 -0.09908486
v 0.11235472 0.01502047 -0.14471836
v 0.29357336 0.06688750 -0.09460249
v 0.21229491 -0.01341536 -0.12153960
v 0.33340737 0.14045103 0.00465612
v 0.41730520 0.05855475 0.03951323
v 0.20680803 0.10278632 0.03295727
v 0.32293870 0.08196263 -0.01805640
v 0.22143754 -0.08949705 0.00309243
v 0.33190074 -0.03434248 0.03142657
v 0.22401359 -0.09953960 0.03569918
v 0.34897059 -0.08856958 -0.01951192
v 0.11537778 -0.05903662 0.09947917
v 0.33650712 -0.01870448 0.07936130
v 0.17396131 -0.08420975 0.07188729
v 0.09810790 -0.01056719 0.09190705
v 0.29015896 -0.06283381 0.05722585
v 0.14700969 0.10824304 0.12675232
v 0.25147264 0.03192728 0.05930691
v 0.21737432 0.13017449 0.08982716
v 0.11109775 0.03894824 0.10407587
v 0.24181543 0.06734058 0.04769142
v 0.22008567 0.01263047 0.09094759
v 0.39729683 -0.00423149 -0.05680612
v 0.38381464 0.00401939 0.01139811
v 0.33668981 0.03626177 -0.03639317
v 0.32943920 -0.03968631 -0.03560944
v 0.43886969 0.05233446 -0.00187047
v 0.34626069 -0.03691552 -0.00147577
v -0.35221243 0.14235153 -0.00491873
v -0.43306945 0.04481063 -0.04100589
v -0.21399699 0.09508876 -0.03410292
v -0.29926835 -0.12606964 -0.00417936
v -0.33797949 -0.04742405 -0.03200214
v -0.28101967 -0.13967049 -0.04478376
v -0.11907215 -0.08767266 -0.10266446
v -0.35296828 -0.04481330 -0.08324348
v -0.19043540 -0.11404213 -0.07869499
v -0.11475186 -0.04022929 -0.10749903
v -0.26295450 -0.07322737 -0.05186052
v -0.11065045 0.05661773 -0.09540324
v -0.32548125 0.01809162 -0.07676098
v -0.21569232 0.10441054 -0.08913209
v -0.11759293 0.01266591 -0.11016054
v -0.30093080 0.06516645 -0.05935029
v -0.22815763 -0.01309371 -0.09428322
v -0.30093647 0.12853044 0.03814667
v -0.32719621 0.04730552 0.06906674
v -0.25824669 0.13399862 0.07247895
v -0.32683567 0.08295169 0.01827429
v -0.25077806 -0.10276103 0.03178860
v -0.35483617 -0.03783089 0.07490117
v -0.22547498 -0.10459658 0.06328131
v -0.39154558 -0.09937522 0.02189240
v -0.11688000 -0.07290820 0.13735531
v -0.26434051 -0.01558310 0.09657279
v -0.14889281 -0.07936306 0.08524167
v -0.10414587 -0.01392305 0.13414495
v -0.34938798 -0.07960425 0.11258846
v -0.09823178 0.08817447 0.11544025
v -0.25673833 0.03457010 0.09379545
v -0.19386079 0.12783289 0.11098600
v -0.07984841 0.03474448 0.10284864
v -0.24727978 0.07245232 0.07968462
v -0.23460498 0.01482518 0.13431220
v -0.34712691 -0.00363519 -0.01030860
v -0.50000000 0.00532535 0.07149078
v -0.46235753 0.04929282 0.00197058
v -0.34891824 -0.04160791 0.00148710
v -0.42673591 0.05140728 0.04612635
v -0.43198880 -0.04652555 0.04669414
f 1 138 54
f 138 38 140
f 54 140 17
f 138 140 54
f 38 139 155
f 139 12 152
f 155 152 41
f 139 152 155
f 17 153 55
f 153 41 151
f 55 151 6
f 153 151 55
f 38 155 140
f 155 41 153
f 140 153 17
f 155 153 140
f 1 54 43
f 54 17 56
f 43 56 13
f 54 56 43
f 17 55 60
f 55 6 58
f 60 58 18
f 55 58 60
f 13 59 44
f 59 18 57
f 44 57 2
f 59 57 44
f 17 60 56
f 60 18 59
f 56 59 13
f 60 59 56
f 1 43 70
f 43 13 72
f 70 72 22
f 43 72 70
f 13 44 75
f 44 2 73
f 75 73 23
f 44 73 75
f 22 76 71
f 76 23 74
f 71 74 8
f 76 74 71
f 13 75 72
f 75 23 76
f 72 76 22
f 75 76 72
f 1 70 121
f 70 22 123
f 121 123 34
f 70 123 121
f 22 71 134
f 71 8 132
f 134 132 37
f 71 132 134
f 34 136 122
f 136 37 133
f 122 133 11
f 136 133 122
f 22 134 123
f 134 37 136
f 123 136 34
f 134 136 123
f 1 121 138
f 121 34 141
f 138 141 38
f 121 141 138
f 34 122 159
f 122 11 157
f 159 157 42
f 122 157 159
f 38 161 139
f 161 42 158
f 139 158 12
f 161 158 139
f 34 159 141
f 159 42 161
f 141 161 38
f 159 161 141
f 2 57 96
f 57 18 98
f 96 98 29
f 57 98 96
f 18 58 111
f 58 6 109
f 111 109 32
f 58 109 111
f 29 113 97
f 113 32 110
f 97 110 10
f 113 110 97
f 18 111 98
f 111 32 113
f 98 113 29
f 111 113 98
f 6 151 62
f 151 41 154
f 62 154 19
f 151 154 62
f 41 152 156
f 152 12 147
f 156 147 40
f 152 147 156
f 19 149 61
f 149 40 146
f 61 146 5
f 149 146 61
f 41 156 154
f 156 40 149
f 154 149 19
f 156 149 154
f 12 158 143
f 158 42 162
f 143 162 39
f 158 162 143
f 42 157 160
f 157 11 125
f 160 125 35
f 157 125 160
f 39 145 142
f 145 35 124
f 142 124 3
f 145 124 142
f 42 160 162
f 160 35 145
f 162 145 39
f 160 145 162
f 11 133 128
f 133 37 137
f 128 137 36
f 133 137 128
f 37 132 135
f 132 8 78
f 135 78 24
f 132 78 135
f 36 130 127
f 130 24 77
f 127 77 7
f 130 77 127
f 37 135 137
f 135 24 130
f 137 130 36
f 135 130 137
f 8 74 90
f 74 23 92
f 90 92 28
f 74 92 90
f 23 73 81
f 73 2 79
f 81 79 25
f 73 79 81
f 28 94 91
f 94 25 80
f 91 80 9
f 94 80 91
f 23 81 92
f 81 25 94
f 92 94 28
f 81 94 92
f 4 100 50
f 100 30 102
f 50 102 16
f 100 102 50
f 30 101 108
f 101 10 105
f 108 105 31
f 101 105 108
f 16 106 51
f 106 31 104
f 51 104 5
f 106 104 51
f 30 108 102
f 108 31 106
f 102 106 16
f 108 106 102
f 4 50 46
f 50 16 52
f 46 52 14
f 50 52 46
f 16 51 53
f 51 5 48
f 53 48 15
f 51 48 53
f 14 49 45
f 49 15 47
f 45 47 3
f 49 47 45
f 16 53 52
f 53 15 49
f 52 49 14
f 53 49 52
f 4 46 66
f 46 14 68
f 66 68 21
f 46 68 66
f 14 45 65
f 45 3 63
f 65 63 20
f 45 63 65
f 21 69 67
f 69 20 64
f 67 64 7
f 69 64 67
f 14 65 68
f 65 20 69
f 68 69 21
f 65 69 68
f 4 66 82
f 66 21 84
f 82 84 26
f 66 84 82
f 21 67 87
f 67 7 85
f 87 85 27
f 67 85 87
f 26 89 83
f 89 27 86
f 83 86 9
f 89 86 83
f 21 87 84
f 87 27 89
f 84 89 26
f 87 89 84
f 4 82 100
f 82 26 103
f 100 103 30
f 82 103 100
f 26 83 118
f 83 9 115
f 118 115 33
f 83 115 118
f 30 120 101
f 120 33 116
f 101 116 10
f 120 116 101
f 26 118 103
f 118 33 120
f 103 120 30
f 118 120 103
f 5 104 61
f 104 31 107
f 61 107 19
f 104 107 61
f 31 105 114
f 105 10 110
f 114 110 32
f 105 110 114
f 19 112 62
f 112 32 109
f 62 109 6
f 112 109 62
f 31 114 107
f 114 32 112
f 107 112 19
f 114 112 107
f 3 47 142
f 47 15 144
f 142 144 39
f 47 144 142
f 15 48 148
f 48 5 146
f 148 146 40
f 48 146 148
f 39 150 143
f 150 40 147
f 143 147 12
f 150 147 143
f 15 148 144
f 148 40 150
f 144 150 39
f 148 150 144
f 7 64 127
f 64 20 129
f 127 129 36
f 64 129 127
f 20 63 126
f 63 3 124
f 126 124 35
f 63 124 126
f 36 131 128
f 131 35 125
f 128 125 11
f 131 125 128
f 20 126 129
f 126 35 131
f 129 131 36
f 126 131 129
f 9 86 91
f 86 27 95
f 91 95 28
f 86 95 91
f 27 85 88
f 85 7 77
f 88 77 24
f 85 77 88
f 28 93 90
f 93 24 78
f 90 78 8
f 93 78 90
f 27 88 95
f 88 24 93
f 95 93 28
f 88 93 95
f 10 116 97
f 116 33 119
f 97 119 29
f 116 119 97
f 33 115 117
f 115 9 80
f 117 80 25
f 115 80 117
f 29 99 96
f 99 25 79
f 96 79 2
f 99 79 96
f 33 117 119
f 117 25 99
f 119 99 29
f 117 99 119

