# Blender 4.0.2
# www.blender.org
o rock_46
v -0.001256 -0.236549 -0.004976
v 0.356513 -0.106875 0.179565
v -0.143759 -0.147836 0.316502
v -0.451711 -0.126614 -0.014009
v -0.140897 -0.096752 -0.265161
v 0.321938 -0.059070 -0.136569
v 0.133690 0.096465 0.270896
v -0.365349 0.119347 0.180022
v -0.357308 0.116366 -0.172710
v 0.129182 0.079882 -0.246665
v 0.416630 0.079907 -0.003993
v -0.001071 0.237265 -0.001188
v -0.135133 -0.175923 0.289253
v -0.127811 -0.196581 0.267578
v -0.117240 -0.225391 0.232655
v -0.095371 -0.250035 0.180296
v -0.065133 -0.262103 0.124896
v -0.039275 -0.253652 0.074026
v -0.019660 -0.245541 0.033827
v 0.047031 -0.217335 0.019901
v 0.097803 -0.203308 0.044563
v 0.151677 -0.193119 0.071165
v 0.202236 -0.166994 0.093570
v 0.250513 -0.153648 0.117411
v 0.293386 -0.142180 0.140863
v 0.329559 -0.126161 0.164052
v 0.310023 -0.103614 0.193673
v 0.267242 -0.121340 0.223026
v 0.209034 -0.144474 0.262335
v 0.134424 -0.143317 0.292668
v 0.060368 -0.135639 0.307268
v -0.014942 -0.139134 0.320732
v -0.084765 -0.147071 0.323201
v 0.346849 -0.066390 -0.110459
v 0.373990 -0.082400 -0.083721
v 0.400238 -0.105009 -0.050080
v 0.418105 -0.123316 -0.003423
v 0.420461 -0.131868 0.052103
v 0.408437 -0.130807 0.104519
v 0.386953 -0.120335 0.149105
v 0.047750 -0.211306 -0.026003
v 0.095132 -0.174918 -0.043374
v 0.144181 -0.146797 -0.063392
v 0.194413 -0.132156 -0.086070
v 0.239260 -0.116464 -0.105322
v 0.276263 -0.099338 -0.121541
v 0.302352 -0.076925 -0.130281
v -0.419962 -0.157857 -0.016600
v -0.373677 -0.188473 -0.023317
v -0.328744 -0.219248 -0.028880
v -0.274657 -0.236835 -0.016984
v -0.198428 -0.245699 -0.002361
v -0.129439 -0.246827 -0.003791
v -0.063273 -0.247706 -0.007900
v -0.200482 -0.154936 0.293959
v -0.252626 -0.165195 0.260297
v -0.301514 -0.180256 0.238607
v -0.359153 -0.189692 0.204312
v -0.406065 -0.184158 0.145057
v -0.438818 -0.171616 0.083694
v -0.449088 -0.146263 0.026453
v -0.133002 -0.119791 -0.253056
v -0.122058 -0.145284 -0.236014
v -0.108752 -0.174251 -0.210243
v -0.086522 -0.204120 -0.169236
v -0.059282 -0.218780 -0.123615
v -0.036638 -0.225535 -0.080630
v -0.018779 -0.231670 -0.044694
v -0.436177 -0.128874 -0.048394
v -0.413432 -0.144750 -0.080545
v -0.374396 -0.154958 -0.122038
v -0.325585 -0.146414 -0.165477
v -0.279861 -0.130960 -0.199414
v -0.230482 -0.110940 -0.231328
v -0.180561 -0.099062 -0.246420
v -0.089010 -0.111353 -0.277125
v -0.022743 -0.119661 -0.286376
v 0.053882 -0.123803 -0.281069
v 0.129693 -0.127002 -0.268060
v 0.197702 -0.114819 -0.237709
v 0.248279 -0.089793 -0.198546
v 0.288241 -0.071330 -0.164852
v 0.441074 0.073071 0.017450
v 0.461677 0.056488 0.043506
v 0.475838 0.033565 0.073012
v 0.480154 0.002630 0.106320
v 0.466178 -0.034467 0.137279
v 0.437148 -0.066932 0.162314
v 0.397893 -0.088586 0.174466
v 0.352334 -0.045910 -0.124951
v 0.381877 -0.032219 -0.113172
v 0.401888 -0.013225 -0.095990
v 0.417953 0.002515 -0.080172
v 0.432353 0.019970 -0.064830
v 0.434544 0.040847 -0.045458
v 0.429375 0.062577 -0.024769
v 0.107318 0.075085 0.285868
v 0.077220 0.053264 0.302961
v 0.041305 0.028310 0.319062
v 0.002974 -0.000832 0.330295
v -0.035882 -0.035041 0.344451
v -0.076947 -0.074918 0.349930
v -0.114096 -0.113098 0.338869
v 0.350691 -0.085740 0.201166
v 0.340430 -0.060679 0.223273
v 0.320655 -0.029138 0.247407
v 0.287327 0.003422 0.258817
v 0.251622 0.029274 0.268803
v 0.213355 0.056646 0.280393
v 0.170986 0.077472 0.275940
v -0.405605 0.100867 0.173007
v -0.444510 0.072724 0.160355
v -0.479970 0.041954 0.142098
v -0.506691 0.002127 0.115139
v -0.513664 -0.040085 0.082399
v -0.506732 -0.080214 0.048450
v -0.481538 -0.109962 0.013291
v -0.189854 -0.113206 0.327315
v -0.227170 -0.075302 0.321596
v -0.261360 -0.041164 0.314512
v -0.299687 -0.003710 0.301481
v -0.334066 0.037582 0.280571
v -0.355024 0.073166 0.249391
v -0.365884 0.101041 0.216676
v -0.356675 0.102687 -0.210266
v -0.343071 0.079604 -0.243578
v -0.318398 0.041416 -0.276371
v -0.276185 -0.002772 -0.283827
v -0.238207 -0.032330 -0.275793
v -0.205320 -0.052267 -0.267183
v -0.173338 -0.076774 -0.263956
v -0.466988 -0.096153 -0.036476
v -0.474568 -0.066468 -0.054070
v -0.488185 -0.038075 -0.077109
v -0.487420 0.004787 -0.109668
v -0.458597 0.041970 -0.132937
v -0.428554 0.070181 -0.148329
v -0.397368 0.097038 -0.163920
v 0.164402 0.061822 -0.248012
v 0.198841 0.039236 -0.238916
v 0.232678 0.018269 -0.228059
v 0.262070 -0.001240 -0.212991
v 0.284310 -0.018634 -0.192077
v 0.303796 -0.034300 -0.175303
v 0.315729 -0.047745 -0.156424
v -0.115115 -0.080334 -0.286850
v -0.084260 -0.061224 -0.305572
v -0.045836 -0.034267 -0.328655
v -0.001648 -0.000007 -0.327839
v 0.038127 0.026387 -0.315138
v 0.075438 0.053009 -0.302423
v 0.106505 0.072583 -0.277219
v 0.415422 0.094253 0.030140
v 0.406146 0.110595 0.073086
v 0.378945 0.120572 0.118693
v 0.339191 0.122610 0.163814
v 0.286305 0.112134 0.197846
v 0.233175 0.105111 0.224604
v 0.182652 0.102867 0.252075
v 0.078452 0.100098 0.270675
v 0.014760 0.107862 0.272732
v -0.055572 0.118296 0.275192
v -0.129253 0.121193 0.266530
v -0.199570 0.122465 0.251470
v -0.264677 0.126327 0.233791
v -0.324099 0.128195 0.211094
v -0.382506 0.118734 0.139419
v -0.397352 0.116592 0.094629
v -0.401529 0.106539 0.045963
v -0.398154 0.096762 -0.000611
v -0.398945 0.104852 -0.046626
v -0.391061 0.108661 -0.095266
v -0.376945 0.112532 -0.137145
v -0.313590 0.119549 -0.205122
v -0.254128 0.115659 -0.225125
v -0.197015 0.109585 -0.238212
v -0.132416 0.109711 -0.255905
v -0.057943 0.110603 -0.265418
v 0.014179 0.108620 -0.271668
v 0.077963 0.096002 -0.263122
v 0.172091 0.074805 -0.220128
v 0.217117 0.074398 -0.191467
v 0.257495 0.066519 -0.156960
v 0.295507 0.057423 -0.121786
v 0.331681 0.053191 -0.086524
v 0.368594 0.063274 -0.060539
v 0.396864 0.071914 -0.033756
v 0.016786 0.235849 0.035548
v 0.037889 0.225269 0.077493
v 0.059223 0.213626 0.121268
v 0.079719 0.195234 0.163736
v 0.097539 0.168054 0.198996
v 0.112950 0.143229 0.228994
v 0.124833 0.118290 0.251796
v 0.391356 0.097868 -0.003065
v 0.353399 0.119781 -0.001464
v 0.303732 0.137821 0.000439
v 0.248005 0.163838 0.000715
v 0.188238 0.197425 -0.000166
v 0.123681 0.227004 -0.001562
v 0.057342 0.242461 -0.002056
v -0.049450 0.232289 0.022183
v -0.102621 0.221599 0.045237
v -0.155358 0.211727 0.068987
v -0.208905 0.199804 0.096977
v -0.259632 0.180366 0.123423
v -0.299265 0.151822 0.141651
v -0.335548 0.136380 0.161760
v -0.049142 0.244873 -0.021670
v -0.106638 0.245139 -0.047339
v -0.162457 0.222237 -0.077013
v -0.210502 0.187207 -0.102441
v -0.253127 0.156482 -0.121030
v -0.295585 0.145287 -0.140610
v -0.331328 0.127869 -0.159997
v 0.017479 0.249380 -0.038010
v 0.037979 0.253603 -0.082405
v 0.060954 0.243314 -0.134919
v 0.082679 0.199111 -0.171547
v 0.098510 0.156985 -0.194592
v 0.110204 0.120830 -0.211891
v 0.120314 0.096212 -0.228868
v 0.081712 0.239488 -0.041910
v 0.150437 0.211162 -0.041371
v 0.108223 0.230588 -0.086314
v 0.212739 0.172649 -0.038351
v 0.173793 0.185626 -0.081780
v 0.130675 0.199891 -0.129470
v 0.269906 0.135352 -0.034441
v 0.230466 0.137693 -0.073334
v 0.191802 0.154729 -0.118332
v 0.144959 0.155139 -0.157531
v 0.321654 0.107532 -0.032714
v 0.283261 0.099042 -0.065779
v 0.243520 0.105470 -0.106703
v 0.205821 0.126230 -0.150198
v 0.157065 0.121242 -0.181351
v 0.366672 0.091934 -0.033999
v 0.331293 0.078627 -0.062162
v 0.292759 0.075717 -0.096783
v 0.254640 0.087674 -0.137059
v 0.213633 0.097228 -0.172759
v 0.165837 0.093764 -0.201195
v -0.031549 0.255158 -0.067766
v -0.014174 0.252763 -0.122066
v -0.091832 0.248616 -0.103038
v 0.005862 0.228138 -0.170064
v -0.071663 0.227152 -0.154525
v -0.150060 0.214722 -0.129178
v 0.029501 0.190820 -0.203323
v -0.050267 0.198238 -0.193302
v -0.131137 0.194902 -0.177313
v -0.198323 0.171899 -0.149212
v 0.048893 0.150581 -0.227060
v -0.027192 0.163503 -0.225887
v -0.107633 0.166062 -0.215380
v -0.181085 0.152813 -0.191779
v -0.238580 0.148198 -0.166851
v 0.064806 0.119630 -0.245772
v -0.005514 0.130739 -0.247754
v -0.081665 0.135376 -0.243050
v -0.158974 0.132844 -0.226681
v -0.218696 0.130035 -0.207148
v -0.278992 0.135155 -0.188076
v -0.105622 0.231795 0.002450
v -0.162462 0.225701 -0.024535
v -0.158654 0.218249 0.024873
v -0.217062 0.195509 -0.053939
v -0.220991 0.207424 -0.001675
v -0.216668 0.204110 0.049793
v -0.266515 0.163541 -0.076213
v -0.272658 0.165679 -0.026195
v -0.271951 0.165205 0.023994
v -0.268244 0.173622 0.073521
v -0.308530 0.140561 -0.094894
v -0.315411 0.133049 -0.048079
v -0.318190 0.132224 -0.000604
v -0.316656 0.137606 0.047589
v -0.310542 0.146148 0.095662
v -0.347261 0.128652 -0.118947
v -0.357626 0.125084 -0.071495
v -0.360421 0.113781 -0.023577
v -0.362092 0.115772 0.023041
v -0.359749 0.126013 0.071165
v -0.350394 0.134007 0.118708
v -0.031832 0.222999 0.062018
v -0.086276 0.215638 0.089767
v -0.012470 0.218015 0.108128
v -0.143352 0.209519 0.118629
v -0.067768 0.206552 0.138572
v 0.007828 0.202802 0.152730
v -0.197594 0.192875 0.147244
v -0.125562 0.198864 0.171091
v -0.047443 0.191359 0.185122
v 0.028490 0.175697 0.191453
v -0.246935 0.172054 0.172996
v -0.179539 0.176981 0.196830
v -0.103126 0.172445 0.213204
v -0.025448 0.165631 0.224064
v 0.047711 0.150197 0.225184
v -0.289140 0.150529 0.193503
v -0.225837 0.150353 0.216858
v -0.155908 0.152701 0.238319
v -0.079466 0.146553 0.249420
v -0.004219 0.133498 0.250658
v 0.064504 0.125175 0.252283
v 0.081256 0.235980 0.039012
v 0.106161 0.227708 0.084485
v 0.152520 0.226522 0.040992
v 0.129883 0.211006 0.130104
v 0.180659 0.216104 0.087637
v 0.219720 0.193420 0.040766
v 0.150170 0.188129 0.172920
v 0.204963 0.198242 0.133768
v 0.247547 0.179700 0.084680
v 0.283707 0.168803 0.039961
v 0.165612 0.157627 0.207052
v 0.221251 0.169065 0.174423
v 0.269550 0.163289 0.127101
v 0.308866 0.154114 0.082437
v 0.338352 0.141790 0.037212
v 0.175807 0.126842 0.231316
v 0.228568 0.132486 0.201983
v 0.283324 0.143551 0.168303
v 0.327490 0.140192 0.122840
v 0.365848 0.138524 0.080247
v 0.386068 0.120319 0.034136
v 0.401978 0.049879 -0.052923
v 0.401865 0.030591 -0.070668
v 0.370388 0.041256 -0.078618
v 0.395102 0.013671 -0.087247
v 0.367883 0.024202 -0.097416
v 0.332525 0.035357 -0.107967
v 0.381556 -0.000614 -0.103672
v 0.358824 0.010473 -0.116301
v 0.329704 0.023541 -0.130622
v 0.294878 0.041302 -0.144838
v 0.365393 -0.015764 -0.123387
v 0.345327 -0.003110 -0.136716
v 0.318025 0.010656 -0.149597
v 0.289258 0.028536 -0.168691
v 0.253258 0.048722 -0.180112
v 0.342005 -0.030697 -0.140549
v 0.327640 -0.017317 -0.158085
v 0.303844 -0.002476 -0.171915
v 0.278011 0.015173 -0.191418
v 0.245216 0.033413 -0.204474
v 0.208626 0.054578 -0.213637
v 0.045218 0.080735 -0.288549
v 0.006516 0.054870 -0.305741
v -0.026528 0.086637 -0.292012
v -0.036338 0.029452 -0.319155
v -0.072508 0.056916 -0.303392
v -0.104605 0.083008 -0.278988
v -0.082313 0.000410 -0.322935
v -0.118268 0.029409 -0.301095
v -0.147690 0.052332 -0.280090
v -0.174750 0.080821 -0.264394
v -0.120510 -0.033019 -0.304883
v -0.155423 -0.001389 -0.292084
v -0.184301 0.024739 -0.282946
v -0.212901 0.055664 -0.274709
v -0.238007 0.091488 -0.253304
v -0.150716 -0.055895 -0.284729
v -0.184384 -0.027764 -0.279165
v -0.214544 -0.003870 -0.279947
v -0.246734 0.028526 -0.281544
v -0.276896 0.071330 -0.264490
v -0.298557 0.098111 -0.237226
v -0.413012 0.089450 -0.122813
v -0.445642 0.064823 -0.104116
v -0.428040 0.087210 -0.076570
v -0.474996 0.037126 -0.081053
v -0.457057 0.060901 -0.054044
v -0.432247 0.083369 -0.025626
v -0.490381 0.000342 -0.056790
v -0.483911 0.033679 -0.031999
v -0.466708 0.064244 -0.002783
v -0.434208 0.085014 0.023322
v -0.494058 -0.036308 -0.034828
v -0.505431 -0.000258 -0.006508
v -0.498114 0.037761 0.025049
v -0.469793 0.069667 0.052145
v -0.435053 0.094228 0.074863
v -0.494485 -0.072777 -0.011931
v -0.512582 -0.039112 0.021973
v -0.511311 0.000091 0.055090
v -0.495566 0.040237 0.084544
v -0.463340 0.073425 0.108197
v -0.424729 0.099701 0.126849
v -0.312285 0.103095 0.244998
v -0.291607 0.073043 0.276324
v -0.244070 0.096065 0.260925
v -0.260103 0.035869 0.301258
v -0.218047 0.066199 0.288005
v -0.175750 0.093543 0.278658
v -0.225865 0.001432 0.317068
v -0.191469 0.034887 0.315128
v -0.149211 0.066701 0.305634
v -0.101222 0.095191 0.293407
v -0.196554 -0.030503 0.334744
v -0.161352 0.002796 0.334986
v -0.116973 0.036475 0.333827
v -0.067850 0.065346 0.314649
v -0.024160 0.088208 0.293106
v -0.159406 -0.074602 0.347065
v -0.122367 -0.033211 0.352806
v -0.076623 0.000911 0.345771
v -0.032153 0.031884 0.326157
v 0.008439 0.058527 0.308046
v 0.046107 0.081966 0.290753
v 0.225390 0.081289 0.251498
v 0.264551 0.052636 0.239687
v 0.276169 0.078176 0.217631
v 0.303297 0.028595 0.231514
v 0.318932 0.053890 0.210776
v 0.333517 0.086892 0.192523
v 0.342303 0.001270 0.225018
v 0.362560 0.029134 0.205794
v 0.381038 0.061807 0.185966
v 0.389231 0.097870 0.156257
v 0.369690 -0.029685 0.208333
v 0.395548 -0.000539 0.193456
v 0.417573 0.032000 0.171511
v 0.428067 0.064698 0.141302
v 0.422660 0.094288 0.106344
v 0.387067 -0.059406 0.193011
v 0.422064 -0.033310 0.183121
v 0.449198 0.002296 0.159054
v 0.456402 0.036498 0.124550
v 0.454034 0.064026 0.091013
v 0.437952 0.084550 0.057769
v 0.142517 0.048786 -0.275655
v 0.178806 0.025138 -0.268015
v 0.112493 0.027679 -0.302828
v 0.213480 0.001138 -0.256482
v 0.150649 0.002643 -0.299298
v 0.073586 0.000736 -0.317326
v 0.245069 -0.023542 -0.242604
v 0.186732 -0.026565 -0.287944
v 0.110841 -0.029832 -0.318381
v 0.032380 -0.030531 -0.324957
v 0.267725 -0.045665 -0.219715
v 0.216733 -0.056658 -0.266309
v 0.146972 -0.065183 -0.304336
v 0.065959 -0.064670 -0.315212
v -0.012538 -0.066166 -0.321947
v 0.280575 -0.060298 -0.191060
v 0.237598 -0.079225 -0.234365
v 0.176458 -0.093607 -0.274886
v 0.099544 -0.096031 -0.297262
v 0.021684 -0.092574 -0.302494
v -0.055813 -0.089094 -0.302183
v -0.399753 0.077766 -0.200337
v -0.388268 0.048803 -0.236718
v -0.433565 0.046887 -0.182701
v -0.359228 0.001584 -0.267702
v -0.423396 0.008451 -0.220619
v -0.458538 0.009596 -0.163400
v -0.308059 -0.043150 -0.273305
v -0.384556 -0.046565 -0.243993
v -0.444184 -0.037727 -0.196123
v -0.481126 -0.038579 -0.135665
v -0.258028 -0.069560 -0.260599
v -0.324669 -0.086258 -0.240113
v -0.392669 -0.089683 -0.209516
v -0.451486 -0.090455 -0.158488
v -0.470977 -0.078847 -0.092404
v -0.217718 -0.081162 -0.253263
v -0.273210 -0.101975 -0.232253
v -0.329736 -0.117541 -0.205385
v -0.389277 -0.128616 -0.167173
v -0.436129 -0.124160 -0.110595
v -0.453165 -0.101937 -0.066588
v -0.408091 0.075523 0.210197
v -0.443500 0.041079 0.194993
v -0.396652 0.039830 0.243225
v -0.478946 0.004761 0.177649
v -0.427313 0.001433 0.226799
v -0.369470 -0.004523 0.269638
v -0.503209 -0.046368 0.146637
v -0.458442 -0.047991 0.211582
v -0.395819 -0.048967 0.253394
v -0.328609 -0.049875 0.286376
v -0.500703 -0.093825 0.106686
v -0.468518 -0.104837 0.172859
v -0.411725 -0.104040 0.229648
v -0.349791 -0.099402 0.269152
v -0.285066 -0.089241 0.294783
v -0.479208 -0.127618 0.065278
v -0.457392 -0.143135 0.128020
v -0.415007 -0.151657 0.189774
v -0.358628 -0.147415 0.239796
v -0.299508 -0.136184 0.271896
v -0.245922 -0.121416 0.297660
v 0.143292 0.052992 0.291491
v 0.113089 0.027935 0.305525
v 0.183554 0.029077 0.298885
v 0.077852 -0.001153 0.321327
v 0.149005 0.000941 0.311036
v 0.224661 0.002204 0.294011
v 0.037465 -0.033625 0.328228
v 0.112012 -0.031043 0.319858
v 0.188136 -0.030680 0.313351
v 0.263360 -0.031082 0.284943
v -0.002556 -0.068284 0.332522
v 0.071314 -0.063559 0.324912
v 0.145609 -0.064352 0.319705
v 0.227071 -0.070202 0.301605
v 0.291527 -0.067778 0.256970
v -0.043447 -0.108491 0.335176
v 0.028472 -0.100196 0.325237
v 0.103252 -0.101421 0.317443
v 0.182109 -0.111787 0.307549
v 0.256052 -0.106179 0.266580
v 0.302886 -0.088211 0.218866
v 0.458039 0.051489 -0.004363
v 0.476170 0.029147 0.020903
v 0.460966 0.024832 -0.028235
v 0.486336 0.001522 0.048757
v 0.477620 0.002090 -0.004812
v 0.453952 0.003163 -0.050302
v 0.485817 -0.032899 0.080960
v 0.484786 -0.027876 0.022765
v 0.471575 -0.022097 -0.029855
v 0.440045 -0.015957 -0.071468
v 0.467741 -0.070587 0.113918
v 0.479474 -0.067181 0.053996
v 0.473489 -0.060142 -0.003310
v 0.455141 -0.052293 -0.054930
v 0.417000 -0.038824 -0.089386
v 0.430214 -0.102324 0.136909
v 0.452763 -0.107346 0.084642
v 0.455358 -0.100117 0.024805
v 0.444217 -0.090719 -0.029598
v 0.418224 -0.075017 -0.073747
v 0.383606 -0.056557 -0.101467
v 0.263772 -0.093180 -0.159139
v 0.228019 -0.111856 -0.145379
v 0.214323 -0.113878 -0.189556
v 0.184554 -0.134228 -0.128461
v 0.169979 -0.134271 -0.172540
v 0.152472 -0.139406 -0.220562
v 0.133886 -0.150444 -0.105847
v 0.118587 -0.149770 -0.149661
v 0.100270 -0.152588 -0.195328
v 0.077902 -0.147691 -0.241842
v 0.081667 -0.168204 -0.082639
v 0.065864 -0.167300 -0.125273
v 0.047485 -0.168189 -0.171071
v 0.024657 -0.159283 -0.214947
v -0.000687 -0.145253 -0.254345
v 0.032152 -0.201515 -0.064996
v 0.015044 -0.198984 -0.104563
v -0.005284 -0.193221 -0.147332
v -0.030072 -0.184993 -0.197370
v -0.056113 -0.157297 -0.235094
v -0.075222 -0.133883 -0.256558
v -0.176479 -0.122988 -0.232289
v -0.171071 -0.153271 -0.207595
v -0.228034 -0.141467 -0.200952
v -0.161861 -0.183497 -0.175765
v -0.222249 -0.164726 -0.165090
v -0.273950 -0.155942 -0.161623
v -0.141746 -0.211618 -0.134594
v -0.210916 -0.187023 -0.137082
v -0.269091 -0.173393 -0.135024
v -0.315348 -0.168889 -0.123843
v -0.111785 -0.233281 -0.089683
v -0.187800 -0.211995 -0.102575
v -0.261088 -0.197809 -0.110268
v -0.309531 -0.183892 -0.096801
v -0.356212 -0.169410 -0.085712
v -0.084556 -0.242370 -0.044088
v -0.157133 -0.240025 -0.051433
v -0.235766 -0.230669 -0.060972
v -0.302859 -0.209017 -0.069005
v -0.343377 -0.187433 -0.063505
v -0.393490 -0.164351 -0.053066
v -0.410628 -0.184084 0.025528
v -0.358917 -0.218084 0.024255
v -0.387983 -0.209989 0.087048
v -0.298698 -0.244122 0.030629
v -0.323889 -0.242069 0.089143
v -0.347519 -0.224245 0.153480
v -0.229524 -0.246660 0.042592
v -0.251677 -0.245674 0.096884
v -0.270085 -0.235970 0.152078
v -0.286806 -0.211631 0.199785
v -0.160409 -0.246880 0.039038
v -0.191723 -0.242454 0.089943
v -0.214233 -0.229025 0.139956
v -0.230279 -0.213472 0.182336
v -0.242989 -0.193227 0.220796
v -0.088829 -0.255323 0.032216
v -0.119072 -0.258874 0.078623
v -0.150572 -0.250509 0.134494
v -0.172998 -0.232284 0.182723
v -0.185119 -0.210861 0.228219
v -0.192042 -0.185012 0.264276
v 0.324213 -0.083286 -0.098642
v 0.348752 -0.104081 -0.066745
v 0.292400 -0.102288 -0.083429
v 0.367399 -0.126621 -0.026940
v 0.310642 -0.122084 -0.044708
v 0.251906 -0.122220 -0.064305
v 0.377693 -0.146007 0.024490
v 0.323292 -0.146027 -0.000522
v 0.263866 -0.140410 -0.021194
v 0.202104 -0.136170 -0.042508
v 0.370391 -0.146576 0.078346
v 0.322931 -0.155173 0.051089
v 0.267523 -0.154793 0.025089
v 0.207440 -0.150673 0.002410
v 0.148454 -0.157856 -0.020196
v 0.354468 -0.142084 0.126176
v 0.310839 -0.150430 0.099291
v 0.261904 -0.157230 0.072988
v 0.207580 -0.165181 0.048270
v 0.151110 -0.174267 0.024669
v 0.097331 -0.188344 -0.000442
v -0.076878 -0.179181 0.301973
v -0.062013 -0.208296 0.272611
v 0.003704 -0.174302 0.296756
v -0.037003 -0.240985 0.222918
v 0.027392 -0.204402 0.253116
v 0.085821 -0.169848 0.277314
v -0.010120 -0.247512 0.158663
v 0.049557 -0.220107 0.196314
v 0.110368 -0.195139 0.229126
v 0.163960 -0.166570 0.248429
v 0.010623 -0.237491 0.104289
v 0.068200 -0.223244 0.141051
v 0.129414 -0.201958 0.172260
v 0.184640 -0.174031 0.194275
v 0.228245 -0.147460 0.209167
v 0.029476 -0.227685 0.059895
v 0.084729 -0.217207 0.089548
v 0.142870 -0.200127 0.119187
v 0.194842 -0.168661 0.140434
v 0.239830 -0.146563 0.160872
v 0.281170 -0.129421 0.181667
vn 0.3837 -0.9229 -0.0319
vn 0.2297 -0.7844 0.5761
vn 0.1817 -0.9734 -0.1394
vn 0.1826 -0.9629 -0.1988
vn 0.3495 -0.8988 -0.2646
vn 0.3704 -0.6543 0.6593
vn -0.0927 -0.4819 0.8713
vn -0.6570 -0.6940 -0.2944
vn -0.3431 -0.5096 -0.7890
vn 0.6421 -0.5621 -0.5214
vn 0.3590 -0.6170 0.7004
vn -0.1338 -0.4532 0.8813
vn -0.6889 -0.6211 -0.3737
vn -0.3420 -0.5076 -0.7908
vn 0.4997 -0.6759 -0.5418
vn 0.1802 0.6882 0.7028
vn -0.3698 0.8989 0.2350
vn -0.3616 0.9270 -0.0997
vn 0.4023 0.7656 -0.5020
vn 0.4849 0.7088 -0.5124
vn -0.0812 0.9582 0.2744
vn 0.2260 0.9719 0.0657
vn 0.4166 0.9055 -0.0803
vn 0.4781 0.8445 -0.2412
vn 0.3807 0.8200 -0.4273
vn 0.2610 0.7788 -0.5704
vn 0.4221 0.7666 -0.4839
vn 0.1534 0.9880 0.0201
vn 0.1600 0.9730 0.1664
vn 0.3795 0.9186 -0.1105
vn 0.3804 0.9238 0.0420
vn 0.3111 0.9504 -0.0047
vn 0.3084 0.9499 -0.0512
vn 0.5220 0.8285 -0.2027
vn 0.5206 0.8249 -0.2204
vn 0.5646 0.8050 -0.1824
vn 0.5573 0.7856 -0.2689
vn 0.5214 0.7998 -0.2976
vn 0.4718 0.6884 -0.5509
vn 0.5349 0.7879 -0.3052
vn 0.5050 0.7249 -0.4685
vn 0.6327 0.6841 -0.3630
vn 0.6435 0.7109 -0.2838
vn 0.5997 0.7320 -0.3233
vn 0.5324 0.5651 -0.6303
vn 0.5391 0.5642 -0.6254
vn 0.5336 0.5514 -0.6413
vn 0.4298 0.7702 -0.4713
vn 0.3863 0.6800 -0.6232
vn 0.5517 0.6519 -0.5202
vn 0.5697 0.6912 -0.4446
vn 0.6864 0.6385 -0.3480
vn 0.6938 0.6610 -0.2859
vn 0.4208 0.7603 -0.4949
vn 0.3770 0.6189 -0.6891
vn 0.5093 0.6091 -0.6080
vn 0.4697 0.5000 -0.7275
vn 0.2553 0.7835 -0.5665
vn 0.2350 0.7310 -0.6406
vn 0.3521 0.7230 -0.5944
vn 0.3732 0.7927 -0.4820
vn 0.5318 0.7470 -0.3991
vn 0.5372 0.7986 -0.2714
vn 0.6399 0.7419 -0.2005
vn 0.6063 0.5836 -0.5402
vn 0.3712 0.6304 -0.6818
vn 0.3681 0.6187 -0.6941
vn 0.4267 0.6150 -0.6631
vn 0.4296 0.6255 -0.6513
vn 0.4761 0.7118 -0.5165
vn 0.4234 0.6307 -0.6504
vn 0.3011 0.6587 -0.6895
vn 0.3022 0.6618 -0.6861
vn 0.5095 0.5992 -0.6175
vn 0.5324 0.7100 -0.4610
vn 0.6367 0.6540 -0.4085
vn 0.6243 0.5783 -0.5252
vn 0.6049 0.5874 -0.5376
vn 0.5986 0.5604 -0.5724
vn 0.3663 0.6226 -0.6915
vn 0.3810 0.7132 -0.5884
vn 0.3925 0.7115 -0.5828
vn 0.4014 0.7657 -0.5025
vn 0.0141 0.9477 0.3189
vn 0.0466 0.9922 0.1159
vn 0.0981 0.9838 -0.1498
vn 0.2465 0.6873 -0.6832
vn 0.3642 0.5486 -0.7526
vn 0.4285 0.4990 -0.7532
vn 0.4565 0.6245 -0.6337
vn -0.0139 0.9770 0.2127
vn -0.0795 0.9789 0.1881
vn 0.0140 0.9991 -0.0396
vn -0.0694 0.9954 -0.0661
vn -0.1245 0.9918 0.0288
vn -0.3619 0.9314 -0.0381
vn 0.0366 0.8953 -0.4440
vn -0.1091 0.8652 -0.4894
vn -0.1530 0.8894 -0.4307
vn -0.2825 0.8411 -0.4613
vn -0.4127 0.8826 -0.2252
vn -0.4874 0.8404 -0.2369
vn 0.2635 0.7295 -0.6312
vn -0.0344 0.6527 -0.7568
vn -0.1379 0.7561 -0.6398
vn -0.1583 0.7477 -0.6449
vn -0.2817 0.8432 -0.4579
vn -0.4582 0.7439 -0.4864
vn -0.5180 0.7639 -0.3849
vn -0.4262 0.8211 -0.3797
vn 0.3828 0.5992 -0.7031
vn 0.0777 0.5341 -0.8419
vn -0.0302 0.6731 -0.7389
vn -0.0775 0.6543 -0.7523
vn -0.1603 0.7366 -0.6571
vn -0.3374 0.6383 -0.6919
vn -0.4621 0.7242 -0.5118
vn -0.2766 0.8301 -0.4842
vn -0.3917 0.8756 -0.2826
vn -0.1515 0.9632 -0.2222
vn 0.4585 0.6204 -0.6363
vn 0.1110 0.5553 -0.8242
vn 0.0883 0.5927 -0.8005
vn -0.0184 0.5466 -0.8372
vn -0.0810 0.6288 -0.7734
vn -0.1886 0.5648 -0.8034
vn -0.3273 0.7158 -0.6169
vn -0.2290 0.7753 -0.5886
vn -0.2852 0.8132 -0.5073
vn -0.0614 0.8983 -0.4352
vn -0.1691 0.9502 -0.2619
vn -0.2849 0.9122 -0.2943
vn 0.4605 0.6775 -0.5735
vn 0.2262 0.6552 -0.7208
vn 0.1406 0.7819 -0.6074
vn -0.0406 0.7166 -0.6963
vn -0.0054 0.6673 -0.7447
vn -0.1078 0.6074 -0.7870
vn -0.1714 0.6908 -0.7025
vn -0.1963 0.6741 -0.7120
vn -0.2455 0.7221 -0.6467
vn -0.0435 0.8203 -0.5703
vn -0.0886 0.8557 -0.5098
vn -0.1214 0.8425 -0.5248
vn -0.2775 0.9194 -0.2786
vn -0.2724 0.9214 -0.2770
vn 0.0345 0.9606 0.2759
vn -0.1114 0.9593 0.2594
vn -0.3506 0.9345 -0.0617
vn -0.5003 0.8396 -0.2114
vn -0.4805 0.8328 -0.2747
vn -0.2654 0.9638 0.0245
vn -0.3620 0.9187 -0.1580
vn -0.1045 0.9561 0.2737
vn -0.0917 0.9672 0.2369
vn -0.2227 0.9405 0.2566
vn -0.1801 0.9705 0.1603
vn -0.1442 0.9603 0.2389
vn -0.1145 0.9815 0.1537
vn -0.4587 0.8866 -0.0586
vn -0.3716 0.8987 -0.2328
vn -0.2357 0.9581 0.1627
vn -0.2035 0.9758 0.0799
vn -0.1699 0.9730 0.1565
vn -0.1580 0.9807 0.1155
vn -0.4623 0.8615 -0.2100
vn -0.5084 0.8554 -0.0990
vn -0.5455 0.8073 -0.2251
vn -0.6330 0.7740 0.0162
vn -0.6038 0.7906 0.1016
vn -0.5404 0.8352 -0.1015
vn -0.4492 0.8800 0.1542
vn -0.3836 0.9217 -0.0584
vn -0.3754 0.8918 -0.2526
vn -0.5009 0.8631 0.0649
vn -0.5689 0.8157 -0.1047
vn -0.5997 0.7999 -0.0212
vn -0.5862 0.8100 0.0159
vn -0.5522 0.8303 -0.0752
vn -0.5597 0.8229 -0.0979
vn -0.5698 0.8185 -0.0730
vn -0.5511 0.8343 -0.0176
vn -0.5720 0.8193 0.0392
vn -0.3014 0.9534 0.0132
vn -0.2977 0.9546 0.0068
vn -0.2469 0.9618 0.1181
vn -0.2895 0.9353 0.2037
vn -0.3969 0.9178 -0.0073
vn -0.3753 0.9254 -0.0530
vn -0.3916 0.9158 -0.0898
vn -0.3458 0.9210 -0.1792
vn -0.3214 0.9385 -0.1259
vn -0.3380 0.9367 -0.0910
vn -0.3125 0.9490 -0.0404
vn -0.3567 0.9315 0.0717
vn -0.3888 0.9058 -0.1682
vn -0.4441 0.8935 -0.0671
vn -0.4263 0.9042 -0.0251
vn -0.4403 0.8979 -0.0011
vn -0.3323 0.9221 0.1981
vn -0.3176 0.9329 0.1695
vn -0.4377 0.8975 -0.0540
vn -0.3402 0.9150 -0.2167
vn -0.3232 0.9287 -0.1819
vn -0.3343 0.9282 -0.1631
vn -0.3003 0.9485 -0.1004
vn -0.3838 0.9197 0.0832
vn -0.3845 0.9195 0.0819
vn -0.4134 0.8961 0.1612
vn -0.0679 0.9951 0.0714
vn -0.0807 0.9622 0.2601
vn -0.1067 0.9796 0.1703
vn -0.1737 0.9811 0.0857
vn -0.2635 0.9458 0.1897
vn -0.4811 0.8362 0.2634
vn -0.3468 0.9335 0.0910
vn -0.1059 0.9570 0.2700
vn -0.0950 0.9529 0.2881
vn -0.0557 0.9867 0.1525
vn -0.0652 0.9888 0.1343
vn -0.0617 0.9892 0.1328
vn 0.0133 0.9679 0.2510
vn -0.0751 0.9952 0.0624
vn -0.0108 0.9823 0.1870
vn -0.0844 0.9734 0.2132
vn -0.0147 0.9443 0.3288
vn -0.0013 0.9463 0.3234
vn 0.0389 0.9237 0.3813
vn -0.2016 0.9631 0.1781
vn -0.1618 0.9550 0.2488
vn -0.0154 0.9788 0.2040
vn 0.0388 0.9548 0.2947
vn -0.0119 0.9490 0.3149
vn 0.1306 0.8436 0.5208
vn -0.0017 0.8188 0.5740
vn 0.0224 0.7972 0.6033
vn -0.2756 0.9340 0.2272
vn -0.1950 0.9111 0.3631
vn -0.1960 0.9108 0.3633
vn -0.0701 0.8278 0.5567
vn -0.0155 0.8433 0.5373
vn -0.0042 0.8332 0.5529
vn 0.1365 0.8602 0.4913
vn 0.1669 0.8299 0.5323
vn 0.0241 0.8040 0.5941
vn 0.0471 0.7813 0.6224
vn -0.4118 0.9055 0.1030
vn -0.1842 0.8429 0.5056
vn -0.2443 0.8173 0.5219
vn -0.2040 0.7898 0.5784
vn -0.0636 0.8451 0.5308
vn -0.0208 0.8068 0.5904
vn -0.0109 0.8101 0.5863
vn 0.1050 0.6743 0.7310
vn 0.1330 0.6826 0.7186
vn 0.0761 0.7556 0.6506
vn 0.0410 0.7466 0.6640
vn 0.0850 0.6941 0.7149
vn -0.4318 0.8683 0.2443
vn -0.2013 0.7809 0.5913
vn -0.2179 0.7726 0.5964
vn -0.1435 0.7146 0.6847
vn -0.2410 0.6582 0.7132
vn -0.1606 0.5795 0.7990
vn -0.0604 0.6370 0.7685
vn -0.0645 0.6421 0.7639
vn 0.1137 0.7203 0.6843
vn 0.1284 0.7000 0.7025
vn 0.0648 0.6783 0.7320
vn 0.1011 0.6244 0.7746
vn 0.0767 0.6171 0.7831
vn 0.0409 0.6674 0.7436
vn -0.0871 0.9929 0.0806
vn -0.0155 0.9676 0.2519
vn -0.0634 0.9564 0.2852
vn -0.0166 0.9146 0.4041
vn 0.0003 0.7921 0.6104
vn 0.0459 0.7811 0.6228
vn 0.1587 0.7063 0.6899
vn -0.0107 0.9867 0.1619
vn 0.2267 0.9737 0.0216
vn -0.0562 0.9764 0.2084
vn 0.1278 0.9858 0.1093
vn 0.1333 0.9879 -0.0791
vn 0.4063 0.8743 -0.2655
vn -0.0087 0.9375 0.3478
vn 0.1364 0.9511 0.2773
vn 0.1472 0.9805 0.1302
vn 0.4407 0.8952 -0.0659
vn 0.4279 0.8703 -0.2439
vn 0.4731 0.8345 -0.2823
vn 0.0295 0.8874 0.4601
vn 0.1325 0.8989 0.4175
vn 0.1467 0.9460 0.2890
vn 0.4792 0.8735 0.0858
vn 0.4769 0.8785 -0.0277
vn 0.3590 0.9312 0.0634
vn 0.3242 0.8558 -0.4032
vn 0.3769 0.8120 -0.4456
vn 0.0377 0.7535 0.6563
vn 0.1947 0.7735 0.6032
vn 0.2124 0.8322 0.5122
vn 0.4700 0.7955 0.3826
vn 0.4811 0.8722 0.0879
vn 0.3853 0.9101 0.1522
vn 0.3863 0.9181 0.0887
vn 0.4445 0.8946 0.0460
vn 0.3789 0.8118 -0.4444
vn 0.3030 0.8742 -0.3796
vn 0.1392 0.6410 0.7548
vn 0.3151 0.6497 0.6918
vn 0.3030 0.6114 0.7310
vn 0.3221 0.6099 0.7240
vn 0.3882 0.8750 0.2894
vn 0.3724 0.8794 0.2968
vn 0.3756 0.9158 0.1425
vn 0.2657 0.9426 0.2023
vn 0.2594 0.9613 -0.0928
vn 0.3936 0.9009 -0.1831
vn 0.3658 0.8629 -0.3487
vn 0.4412 0.7947 -0.4169
vn 0.1759 0.6726 0.7188
vn 0.3315 0.6699 0.6644
vn 0.3226 0.6346 0.7023
vn 0.2768 0.6394 0.7174
vn 0.2855 0.6708 0.6845
vn 0.3048 0.6676 0.6792
vn 0.3566 0.8911 0.2806
vn 0.3617 0.8897 0.2785
vn 0.3613 0.8860 0.2906
vn 0.5816 0.7948 0.1730
vn 0.5579 0.8259 -0.0814
vn 0.6457 0.7495 -0.1457
vn 0.5943 0.7232 -0.3520
vn 0.5434 0.7806 -0.3089
vn 0.3600 0.8131 -0.4574
vn 0.3381 0.6899 -0.6401
vn 0.3500 0.6172 -0.7047
vn 0.4336 0.3660 -0.8234
vn 0.4973 0.3077 -0.8112
vn 0.5931 0.0980 -0.7991
vn 0.4994 -0.4313 -0.7514
vn 0.3702 0.6571 -0.6566
vn 0.4074 0.6514 -0.6401
vn 0.3357 0.6367 -0.6942
vn 0.3834 0.6241 -0.6808
vn 0.3991 0.6011 -0.6924
vn 0.3353 0.6140 -0.7145
vn 0.3441 0.5833 -0.7357
vn 0.4677 0.5161 -0.7175
vn 0.3861 0.6570 -0.6475
vn 0.3983 0.6523 -0.6449
vn 0.3454 0.7282 -0.5920
vn 0.5728 0.6412 -0.5107
vn 0.4570 0.4493 -0.7676
vn 0.5747 0.3207 -0.7529
vn 0.4728 0.5893 -0.6552
vn 0.5535 0.5246 -0.6469
vn 0.3894 0.7959 -0.4636
vn 0.5440 0.7143 -0.4403
vn 0.5744 0.6634 -0.4796
vn 0.5930 0.6522 -0.4722
vn 0.5314 0.4028 -0.7452
vn 0.6417 0.2561 -0.7229
vn 0.5901 0.4354 -0.6799
vn 0.5592 0.4703 -0.6827
vn 0.5519 0.4917 -0.6736
vn 0.6616 0.3649 -0.6551
vn 0.5465 0.6780 -0.4916
vn 0.5393 0.6830 -0.4926
vn 0.5803 0.5909 -0.5604
vn 0.5901 0.5843 -0.5571
vn 0.5666 0.0573 -0.8220
vn 0.6648 -0.2213 -0.7135
vn 0.6453 0.2710 -0.7143
vn 0.6165 0.3168 -0.7208
vn 0.5631 0.5044 -0.6546
vn 0.7009 0.3234 -0.6357
vn 0.6706 0.4450 -0.5935
vn 0.5568 0.5658 -0.6082
vn 0.5320 0.6267 -0.5694
vn 0.5134 0.6400 -0.5717
vn 0.5616 0.4983 -0.6606
vn 0.4419 0.5780 -0.6860
vn 0.6296 -0.3051 -0.7145
vn 0.6442 -0.3690 -0.6700
vn 0.6680 -0.2160 -0.7121
vn 0.6170 -0.0717 -0.7837
vn 0.5949 0.2386 -0.7676
vn 0.7012 0.0406 -0.7119
vn 0.6842 0.2405 -0.6885
vn 0.6022 0.3550 -0.7151
vn 0.5524 0.5364 -0.6381
vn 0.5428 0.5453 -0.6387
vn 0.5115 0.6324 -0.5818
vn 0.5486 0.6035 -0.5786
vn 0.4893 0.7312 -0.4754
vn 0.3871 0.7904 -0.4748
vn 0.4003 0.7787 -0.4831
vn 0.2216 0.6187 -0.7537
vn 0.0546 0.3670 -0.9286
vn 0.0648 0.3517 -0.9339
vn -0.0599 0.1008 -0.9931
vn -0.2894 -0.3502 -0.8908
vn -0.3050 -0.3681 -0.8784
vn 0.2195 0.6854 -0.6943
vn 0.2277 0.6771 -0.6998
vn 0.0551 0.4942 -0.8676
vn 0.0808 0.4651 -0.8816
vn 0.0870 0.5850 -0.8063
vn -0.0405 0.7180 -0.6949
vn 0.0654 0.3773 -0.9238
vn -0.0135 0.4843 -0.8748
vn -0.0176 0.3812 -0.9243
vn -0.1615 0.5608 -0.8120
vn -0.1557 0.6353 -0.7564
vn -0.1099 0.5820 -0.8057
vn -0.0581 0.2187 -0.9741
vn -0.1952 0.4240 -0.8844
vn -0.2076 0.2667 -0.9411
vn -0.2924 0.4144 -0.8618
vn -0.2904 0.4384 -0.8506
vn -0.2026 0.3179 -0.9262
vn -0.1893 0.5218 -0.8318
vn -0.2203 0.5579 -0.8002
vn -0.3018 -0.1625 -0.9394
vn -0.3870 -0.0548 -0.9204
vn -0.3850 0.2010 -0.9008
vn -0.2675 0.0411 -0.9627
vn -0.2666 0.4424 -0.8563
vn -0.0708 0.1951 -0.9782
vn -0.0511 0.4443 -0.8944
vn -0.0742 0.4726 -0.8781
vn -0.0187 0.6651 -0.7466
vn -0.0763 0.7348 -0.6739
vn -0.3049 -0.3704 -0.8774
vn -0.3784 -0.2782 -0.8829
vn -0.3761 -0.0405 -0.9257
vn -0.1835 -0.2626 -0.9473
vn -0.2044 0.1142 -0.9722
vn -0.0270 -0.0759 -0.9967
vn -0.0065 0.2518 -0.9678
vn -0.0708 0.3257 -0.9428
vn -0.0140 0.5056 -0.8626
vn -0.1259 0.6559 -0.7443
vn -0.1013 0.7258 -0.6805
vn -0.1490 0.7887 -0.5964
vn -0.3517 -0.4406 -0.8259
vn -0.2956 -0.4935 -0.8180
vn -0.3118 -0.1890 -0.9312
vn -0.0207 -0.4249 -0.9050
vn -0.0537 -0.1003 -0.9935
vn 0.0582 -0.1914 -0.9798
vn 0.0630 0.0135 -0.9979
vn -0.0501 0.1195 -0.9916
vn -0.0006 0.3698 -0.9291
vn -0.1818 0.5704 -0.8010
vn -0.1581 0.6387 -0.7530
vn -0.2261 0.7550 -0.6155
vn -0.2240 0.7588 -0.6116
vn -0.3096 0.8918 -0.3300
vn -0.4570 0.8753 -0.1580
vn -0.6830 0.7193 -0.1271
vn -0.7231 0.6613 -0.1993
vn -0.8325 0.5105 -0.2155
vn -0.9980 -0.0263 -0.0581
vn -0.8634 -0.4946 -0.0993
vn -0.7762 -0.4561 -0.4352
vn -0.5543 0.8303 -0.0577
vn -0.5677 0.8150 -0.1160
vn -0.6520 0.7407 -0.1622
vn -0.6556 0.7339 -0.1775
vn -0.5483 0.8248 -0.1382
vn -0.5073 0.8617 -0.0148
vn -0.7450 0.6436 -0.1754
vn -0.7273 0.6769 -0.1128
vn -0.7125 0.6933 -0.1081
vn -0.6715 0.7410 0.0004
vn -0.5332 0.8458 0.0197
vn -0.4611 0.8725 0.1613
vn -0.9271 0.3743 -0.0204
vn -0.9435 0.2952 -0.1507
vn -0.7441 0.6622 -0.0887
vn -0.7704 0.6102 -0.1848
vn -0.5572 0.8152 -0.1581
vn -0.5094 0.8591 -0.0493
vn -0.3364 0.9406 -0.0451
vn -0.4288 0.8774 -0.2153
vn -0.9903 0.0165 -0.1382
vn -0.9550 -0.0760 -0.2867
vn -0.8919 0.3683 -0.2625
vn -0.8916 0.3783 -0.2490
vn -0.7382 0.6345 -0.2292
vn -0.6956 0.7101 -0.1092
vn -0.4691 0.8759 -0.1128
vn -0.4976 0.8524 -0.1605
vn -0.4612 0.8721 -0.1635
vn -0.4480 0.8824 -0.1438
vn -0.8546 -0.2689 -0.4442
vn -0.9315 -0.1856 -0.3129
vn -0.9485 -0.0541 -0.3120
vn -0.9891 0.1124 -0.0951
vn -0.9605 0.2622 -0.0932
vn -0.9369 0.3486 0.0256
vn -0.7498 0.6617 0.0046
vn -0.7304 0.6819 0.0384
vn -0.5827 0.8126 0.0126
vn -0.5713 0.8203 0.0271
vn -0.5148 0.8572 0.0120
vn -0.4337 0.8954 0.1009
vn -0.7709 -0.5189 -0.3694
vn -0.8598 -0.4557 -0.2305
vn -0.9345 -0.2771 -0.2237
vn -0.9879 -0.1536 -0.0202
vn -0.9988 0.0469 -0.0171
vn -0.9916 0.1075 0.0726
vn -0.9437 0.3249 0.0616
vn -0.8727 0.4342 0.2235
vn -0.7686 0.6109 0.1901
vn -0.7061 0.6572 0.2637
vn -0.6218 0.7472 0.2345
vn -0.6189 0.7487 0.2375
vn -0.4452 0.8806 0.1622
vn -0.4355 0.8839 0.1707
vn -0.4645 0.7950 0.3902
vn -0.3784 0.6388 0.6699
vn -0.3377 0.4999 0.7975
vn -0.2545 0.2598 0.9315
vn -0.2131 0.1194 0.9697
vn -0.2839 -0.0862 0.9550
vn -0.3430 -0.1991 0.9180
vn -0.3607 0.6851 0.6329
vn -0.2166 0.7470 0.6285
vn -0.3205 0.5689 0.7573
vn -0.0979 0.6851 0.7218
vn -0.1180 0.6172 0.7779
vn -0.1798 0.5860 0.7901
vn -0.2393 0.3928 0.8880
vn -0.0901 0.5010 0.8607
vn -0.0620 0.6402 0.7657
vn -0.1877 0.5650 0.8035
vn -0.1825 0.5894 0.7869
vn -0.1562 0.6051 0.7806
vn -0.2162 0.2216 0.9509
vn -0.1884 0.2488 0.9500
vn -0.1552 0.5683 0.8081
vn -0.2141 0.5294 0.8209
vn -0.2051 0.5854 0.7843
vn -0.1665 0.6122 0.7730
vn -0.1659 0.6166 0.7696
vn -0.0582 0.6865 0.7248
vn -0.3230 0.2138 0.9219
vn -0.2629 0.2712 0.9259
vn -0.2598 0.3199 0.9111
vn -0.2356 0.3418 0.9098
vn -0.2168 0.5322 0.8184
vn -0.0745 0.6366 0.7676
vn -0.0862 0.5120 0.8547
vn 0.0594 0.6221 0.7807
vn 0.0532 0.5513 0.8326
vn 0.1161 0.5948 0.7955
vn -0.3513 -0.0345 0.9356
vn -0.2333 0.0743 0.9695
vn -0.2224 0.2282 0.9479
vn -0.1112 0.3415 0.9333
vn -0.1197 0.1913 0.9742
vn 0.1043 0.4209 0.9011
vn 0.1043 0.4211 0.9010
vn 0.1160 0.4314 0.8947
vn 0.1207 0.5489 0.8272
vn 0.0741 0.5121 0.8557
vn 0.0821 0.6343 0.7687
vn 0.1035 0.6495 0.7533
vn -0.1401 -0.3612 0.9219
vn -0.0346 -0.2469 0.9684
vn -0.0349 -0.1066 0.9937
vn 0.0969 0.0369 0.9946
vn 0.0975 0.0740 0.9925
vn 0.1915 0.1816 0.9645
vn 0.1876 0.3189 0.9290
vn 0.1048 0.2347 0.9664
vn 0.1075 0.4417 0.8907
vn 0.0994 0.4345 0.8952
vn 0.1012 0.4802 0.8713
vn 0.1246 0.4996 0.8572
vn 0.1315 0.6210 0.7727
vn 0.0326 0.5460 0.8371
vn 0.2111 0.6161 0.7588
vn 0.2611 0.6781 0.6870
vn 0.5606 0.5063 0.6552
vn 0.5268 0.4487 0.7219
vn 0.5153 0.2391 0.8230
vn 0.6086 -0.2050 0.7666
vn 0.4941 -0.4525 0.7424
vn 0.3011 0.5759 0.7600
vn 0.3390 0.6534 0.6769
vn 0.5633 0.4980 0.6593
vn 0.5238 0.4076 0.7480
vn 0.4740 0.5865 0.6567
vn 0.3754 0.3804 0.8452
vn 0.4891 0.5613 0.6676
vn 0.4220 0.4044 0.8114
vn 0.4011 0.4874 0.7756
vn 0.3336 0.3391 0.8796
vn 0.3140 0.4063 0.8581
vn 0.3753 0.5437 0.7507
vn 0.4689 0.4955 0.7311
vn 0.3737 0.3271 0.8679
vn 0.3512 0.4542 0.8188
vn 0.3058 0.3616 0.8808
vn 0.3080 0.3526 0.8836
vn 0.3853 0.5330 0.7533
vn 0.3810 0.5417 0.7493
vn 0.4563 0.8113 0.3654
vn 0.6188 0.1299 0.7747
vn 0.5095 -0.0129 0.8603
vn 0.5037 0.2117 0.8376
vn 0.5079 0.2182 0.8333
vn 0.5079 0.2184 0.8333
vn 0.6102 0.4231 0.6699
vn 0.6131 0.4147 0.6724
vn 0.6784 0.6091 0.4107
vn 0.5528 0.7715 0.3149
vn 0.5389 0.8307 0.1397
vn 0.5431 -0.1115 0.8322
vn 0.4113 -0.2160 0.8855
vn 0.4366 0.0704 0.8969
vn 0.5265 0.1628 0.8345
vn 0.5204 0.2066 0.8286
vn 0.6632 0.4577 0.5922
vn 0.7073 0.3437 0.6177
vn 0.7555 0.5316 0.3830
vn 0.7322 0.5715 0.3705
vn 0.7129 0.6961 0.0849
vn 0.6474 0.7604 0.0514
vn 0.5689 0.8019 -0.1823
vn 0.4433 -0.3578 0.8218
vn 0.4494 -0.3544 0.8200
vn 0.4635 -0.3065 0.8314
vn 0.7151 -0.1067 0.6908
vn 0.7173 -0.0787 0.6923
vn 0.8580 0.0976 0.5043
vn 0.8179 0.3141 0.4821
vn 0.8496 0.4368 0.2956
vn 0.8508 0.4340 0.2962
vn 0.8243 0.5646 0.0430
vn 0.7690 0.6388 0.0224
vn 0.7208 0.6794 -0.1376
vn 0.5702 0.8007 -0.1838
vn 0.5045 0.8022 -0.3193
vn 0.3869 0.7899 -0.4758
vn 0.5242 0.5313 -0.6656
vn 0.5430 0.5457 -0.6382
vn 0.6179 0.4153 -0.6676
vn 0.7568 0.2337 -0.6104
vn 0.7306 0.2146 -0.6483
vn 0.7233 -0.2577 -0.6407
vn 0.4410 0.6251 -0.6440
vn 0.3512 0.4787 -0.8047
vn 0.5116 0.5804 -0.6335
vn 0.4361 0.4105 -0.8008
vn 0.3451 0.5173 -0.7831
vn 0.1544 0.2412 -0.9581
vn 0.5597 0.4862 -0.6711
vn 0.5240 0.3942 -0.7550
vn 0.4119 0.5226 -0.7465
vn 0.2186 0.1985 -0.9554
vn 0.1514 0.2899 -0.9450
vn 0.1310 0.2626 -0.9560
vn 0.6179 0.4154 -0.6676
vn 0.5739 0.3078 -0.7589
vn 0.5316 0.3583 -0.7675
vn 0.3671 0.0938 -0.9254
vn 0.2112 0.2896 -0.9335
vn 0.0816 0.1335 -0.9877
vn 0.1376 0.0600 -0.9887
vn 0.0491 -0.0395 -0.9980
vn 0.7729 0.1549 -0.6153
vn 0.6803 -0.0592 -0.7305
vn 0.6118 0.0420 -0.7899
vn 0.4869 -0.1350 -0.8630
vn 0.3718 0.0112 -0.9282
vn 0.1272 -0.2512 -0.9595
vn 0.0836 -0.1966 -0.9769
vn 0.0875 -0.1929 -0.9773
vn 0.0539 -0.1513 -0.9870
vn -0.2293 -0.4236 -0.8764
vn 0.7664 -0.3637 -0.5294
vn 0.7294 -0.4187 -0.5409
vn 0.6761 -0.3166 -0.6653
vn 0.5639 -0.4546 -0.6895
vn 0.4820 -0.3377 -0.8085
vn 0.2474 -0.5615 -0.7896
vn 0.1199 -0.3933 -0.9115
vn 0.0388 -0.4647 -0.8846
vn 0.0829 -0.5192 -0.8506
vn -0.0309 -0.6185 -0.7852
vn -0.2314 -0.3467 -0.9090
vn -0.2843 -0.3963 -0.8730
vn 0.6574 -0.6063 -0.4475
vn 0.6692 -0.6346 -0.3867
vn 0.6318 -0.6718 -0.3866
vn 0.5466 -0.5536 -0.6282
vn 0.3966 -0.6812 -0.6153
vn 0.2535 -0.5215 -0.8148
vn 0.1063 -0.6254 -0.7730
vn 0.0323 -0.5426 -0.8394
vn 0.0285 -0.5453 -0.8377
vn -0.0251 -0.4805 -0.8766
vn -0.1839 -0.6011 -0.7777
vn -0.2853 -0.4970 -0.8195
vn -0.3285 -0.5230 -0.7864
vn -0.4674 0.8281 -0.3095
vn -0.4945 0.6068 -0.6224
vn -0.4122 0.4255 -0.8056
vn -0.1915 -0.0173 -0.9813
vn 0.0052 -0.2560 -0.9667
vn 0.0101 -0.3824 -0.9239
vn -0.1845 -0.3611 -0.9141
vn -0.5276 0.7646 -0.3701
vn -0.7039 0.6458 -0.2957
vn -0.5002 0.5936 -0.6305
vn -0.6965 0.4379 -0.5685
vn -0.7243 0.6152 -0.3114
vn -0.7303 0.6102 -0.3071
vn -0.4516 0.2784 -0.8476
vn -0.5700 0.1760 -0.8026
vn -0.7131 0.3877 -0.5842
vn -0.8146 0.2836 -0.5060
vn -0.8457 0.3648 -0.3894
vn -0.8270 0.3844 -0.4102
vn -0.1947 -0.1005 -0.9757
vn -0.3341 -0.2690 -0.9033
vn -0.5952 -0.0806 -0.7995
vn -0.6323 -0.1213 -0.7652
vn -0.8466 0.1042 -0.5220
vn -0.8496 0.1003 -0.5177
vn -0.8766 0.1474 -0.4580
vn -0.9903 -0.0725 -0.1188
vn 0.0277 -0.3903 -0.9203
vn -0.1022 -0.5818 -0.8068
vn -0.2872 -0.5124 -0.8093
vn -0.3180 -0.5549 -0.7688
vn -0.6041 -0.4252 -0.6740
vn -0.5943 -0.4111 -0.6912
vn -0.8251 -0.2481 -0.5077
vn -0.8861 -0.4241 -0.1869
vn -0.9298 -0.3515 -0.1091
vn -0.9143 -0.4025 0.0443
vn 0.0345 -0.4457 -0.8945
vn -0.0469 -0.6450 -0.7627
vn -0.0768 -0.6357 -0.7681
vn -0.1197 -0.7289 -0.6741
vn -0.2648 -0.6970 -0.6664
vn -0.2761 -0.7184 -0.6384
vn -0.4859 -0.6624 -0.5701
vn -0.5225 -0.7671 -0.3723
vn -0.8112 -0.5678 -0.1395
vn -0.7925 -0.6099 0.0012
vn -0.8370 -0.5388 0.0956
vn -0.8576 -0.4061 -0.3157
vn -0.1348 -0.5854 -0.7995
vn -0.1164 -0.5562 -0.8228
vn -0.1001 -0.5619 -0.8211
vn -0.1383 -0.7285 -0.6710
vn -0.1169 -0.7327 -0.6704
vn -0.1493 -0.8084 -0.5693
vn -0.2094 -0.8025 -0.5588
vn -0.2320 -0.8715 -0.4321
vn -0.4697 -0.8211 -0.3243
vn -0.4683 -0.8529 -0.2307
vn -0.7196 -0.6908 0.0703
vn -0.7497 -0.6232 -0.2227
vn -0.7489 -0.6236 -0.2240
vn -0.7467 -0.5945 -0.2983
vn -0.4392 0.8063 0.3963
vn -0.6181 0.6682 0.4141
vn -0.7011 0.5161 0.4920
vn -0.8676 0.3309 0.3711
vn -0.9858 0.0357 0.1639
vn -0.9759 -0.2121 0.0515
vn -0.8326 -0.5347 -0.1443
vn -0.5099 0.7263 0.4609
vn -0.4605 0.5943 0.6593
vn -0.7072 0.5116 0.4880
vn -0.6559 0.3886 0.6471
vn -0.5017 0.4954 0.7091
vn -0.4536 0.4211 0.7855
vn -0.7251 0.4653 0.5076
vn -0.6481 0.2977 0.7010
vn -0.6891 0.2610 0.6761
vn -0.5826 0.1215 0.8036
vn -0.4969 0.1985 0.8448
vn -0.4136 0.1132 0.9034
vn -0.9004 0.1897 0.3916
vn -0.8220 0.0457 0.5677
vn -0.6686 0.2007 0.7160
vn -0.5519 0.0924 0.8288
vn -0.5905 0.0558 0.8051
vn -0.4403 -0.0662 0.8954
vn -0.4145 -0.0378 0.9093
vn -0.3779 -0.0654 0.9235
vn -0.9750 -0.1710 0.1420
vn -0.8639 -0.3503 0.3619
vn -0.8038 -0.2310 0.5483
vn -0.6632 -0.3375 0.6680
vn -0.5469 -0.1933 0.8146
vn -0.5146 -0.2098 0.8314
vn -0.4386 -0.1221 0.8904
vn -0.3383 -0.1768 0.9243
vn -0.3562 -0.1990 0.9130
vn -0.3753 -0.1875 0.9078
vn -0.8597 -0.5099 -0.0302
vn -0.7702 -0.6278 0.1125
vn -0.7779 -0.5599 0.2852
vn -0.6747 -0.6355 0.3754
vn -0.6170 -0.4798 0.6238
vn -0.5469 -0.5150 0.6600
vn -0.4729 -0.3946 0.7878
vn -0.3640 -0.4362 0.8230
vn -0.2990 -0.3423 0.8907
vn -0.3344 -0.3279 0.8835
vn -0.3320 -0.3247 0.8856
vn -0.4166 -0.2796 0.8650
vn -0.6919 -0.6925 -0.2042
vn -0.6822 -0.7059 -0.1903
vn -0.7537 -0.6494 0.1014
vn -0.6512 -0.7326 0.1979
vn -0.6527 -0.6689 0.3557
vn -0.5850 -0.7072 0.3971
vn -0.5361 -0.5388 0.6499
vn -0.3322 -0.6039 0.7245
vn -0.3086 -0.5643 0.7657
vn -0.1691 -0.5891 0.7902
vn -0.1950 -0.6193 0.7606
vn -0.3623 -0.5724 0.7356
vn -0.3321 -0.5359 0.7762
vn -0.2418 -0.5675 0.7870
vn 0.1191 0.4667 0.8764
vn 0.1528 0.4701 0.8693
vn 0.1758 0.3424 0.9229
vn 0.1169 0.2195 0.9686
vn 0.2102 0.1603 0.9644
vn 0.2358 -0.1101 0.9655
vn 0.0712 -0.3409 0.9374
vn 0.1235 0.4288 0.8949
vn 0.1189 0.4330 0.8935
vn 0.1630 0.3252 0.9315
vn 0.0788 0.4132 0.9072
vn 0.1148 0.4648 0.8780
vn 0.3976 0.1744 0.9008
vn 0.1786 0.2938 0.9390
vn 0.1237 0.3538 0.9271
vn 0.0844 0.3059 0.9483
vn 0.2145 0.1532 0.9646
vn 0.3675 0.4109 0.8343
vn 0.4601 0.3148 0.8302
vn 0.1189 0.0627 0.9909
vn 0.1087 0.0755 0.9912
vn 0.1391 0.1106 0.9841
vn 0.0830 0.1746 0.9811
vn 0.2030 0.3190 0.9258
vn 0.3498 0.1549 0.9239
vn 0.4611 0.3095 0.8317
vn 0.5244 0.2517 0.8134
vn 0.2165 -0.1301 0.9676
vn 0.1021 0.0053 0.9948
vn 0.1110 0.0155 0.9937
vn 0.0705 0.0665 0.9953
vn 0.0845 0.0807 0.9932
vn 0.2105 -0.0821 0.9741
vn 0.3528 0.0702 0.9331
vn 0.5645 -0.1806 0.8054
vn 0.5411 -0.2061 0.8153
vn 0.5742 -0.2391 0.7830
vn 0.2393 -0.1804 0.9540
vn 0.1458 -0.0832 0.9858
vn 0.1093 -0.1190 0.9869
vn 0.1013 -0.1097 0.9888
vn 0.0678 -0.1378 0.9881
vn 0.1000 -0.1741 0.9796
vn 0.2100 -0.0879 0.9737
vn 0.4683 -0.3932 0.7913
vn 0.5487 -0.3128 0.7753
vn 0.6984 -0.5229 0.4886
vn 0.4637 -0.7158 0.5221
vn 0.3144 -0.5523 0.7721
vn 0.0723 -0.3655 0.9280
vn 0.0746 -0.3676 0.9270
vn 0.1639 -0.2917 0.9424
vn 0.1812 -0.3100 0.9333
vn 0.0894 -0.3852 0.9185
vn 0.1315 -0.4303 0.8931
vn 0.0463 -0.4827 0.8745
vn 0.2583 -0.7033 0.6623
vn 0.4234 -0.5955 0.6827
vn 0.5578 -0.7289 0.3970
vn 0.6501 -0.6501 0.3933
vn 0.6089 -0.5883 0.5322
vn 0.2467 -0.7941 0.5554
vn 0.1683 -0.6815 0.7122
vn 0.5170 0.7862 -0.3387
vn 0.7139 0.6888 -0.1262
vn 0.8703 0.4912 -0.0361
vn 0.9654 0.2413 0.0990
vn 0.9417 -0.0827 0.3261
vn 0.7943 -0.3053 0.5252
vn 0.5119 -0.5649 0.6472
vn 0.5403 0.7693 -0.3409
vn 0.5993 0.6222 -0.5037
vn 0.8328 0.5404 -0.1197
vn 0.8783 0.3688 -0.3042
vn 0.6643 0.5378 -0.5191
vn 0.6640 0.4700 -0.5816
vn 0.9451 0.3260 -0.0216
vn 0.9675 0.1994 -0.1553
vn 0.8904 0.3377 -0.3052
vn 0.8749 0.1762 -0.4511
vn 0.7021 0.3837 -0.5999
vn 0.6297 0.1504 -0.7622
vn 0.9910 0.0831 0.1048
vn 0.9992 -0.0344 -0.0207
vn 0.9833 0.0888 -0.1590
vn 0.9701 0.0087 -0.2426
vn 0.8628 0.2432 -0.4432
vn 0.8001 0.0766 -0.5949
vn 0.5901 0.3669 -0.7191
vn 0.5350 0.2613 -0.8034
vn 0.9324 -0.1669 0.3205
vn 0.9379 -0.3044 0.1663
vn 0.9869 -0.1581 -0.0311
vn 0.9638 -0.2330 -0.1293
vn 0.9583 -0.1296 -0.2548
vn 0.9128 -0.2019 -0.3551
vn 0.7999 0.0605 -0.5971
vn 0.6549 -0.0704 -0.7525
vn 0.5430 0.1056 -0.8331
vn 0.5726 0.1291 -0.8096
vn 0.7180 -0.4932 0.4911
vn 0.7215 -0.5868 0.3676
vn 0.8711 -0.4695 0.1439
vn 0.8203 -0.5710 -0.0334
vn 0.8564 -0.4940 -0.1501
vn 0.7990 -0.5435 -0.2575
vn 0.8088 -0.4662 -0.3584
vn 0.6221 -0.5465 -0.5606
vn 0.5756 -0.3079 -0.7575
vn 0.4730 -0.3359 -0.8145
vn 0.4783 -0.3528 -0.8042
vn 0.4827 -0.3515 -0.8021
vn 0.4442 -0.6476 0.6191
vn 0.4463 -0.7992 0.4027
vn 0.5499 -0.7749 0.3117
vn 0.5099 -0.8497 0.1342
vn 0.6436 -0.7626 -0.0642
vn 0.6006 -0.7860 -0.1465
vn 0.6434 -0.7213 -0.2564
vn 0.4634 -0.7501 -0.4718
vn 0.4750 -0.7028 -0.5296
vn 0.2668 -0.6905 -0.6723
vn 0.2698 -0.6113 -0.7440
vn 0.3387 -0.6150 -0.7121
vn 0.3380 -0.6023 -0.7232
vn 0.4980 -0.5858 -0.6394
vn 0.5664 -0.7452 -0.3518
vn 0.5572 -0.7699 -0.3112
vn 0.3377 -0.9196 -0.2006
vn 0.3194 -0.9472 -0.0280
vn 0.2853 -0.9584 0.0132
vn 0.3875 -0.8774 -0.2829
vn 0.4683 -0.7944 -0.3868
vn 0.5755 -0.7371 -0.3542
vn 0.5960 -0.7455 -0.2984
vn 0.3635 -0.8925 -0.2669
vn 0.4326 -0.8968 -0.0931
vn 0.5084 -0.8176 -0.2702
vn 0.5397 -0.8244 -0.1702
vn 0.3813 -0.9001 -0.2106
vn 0.4114 -0.9014 -0.1351
vn 0.3912 -0.9169 -0.0793
vn 0.4018 -0.9144 -0.0487
vn 0.4342 -0.8911 -0.1324
vn 0.3254 -0.8650 -0.3819
vn 0.2958 -0.9550 -0.0221
vn 0.2601 -0.9598 -0.1056
vn 0.2537 -0.9637 -0.0830
vn 0.2686 -0.9620 -0.0484
vn 0.2504 -0.9681 0.0122
vn 0.1589 -0.9710 -0.1786
vn 0.1981 -0.9210 -0.3355
vn 0.0582 -0.8364 -0.5450
vn 0.3232 -0.9463 0.0029
vn 0.2711 -0.9549 -0.1207
vn 0.2682 -0.9573 -0.1084
vn 0.2756 -0.9569 -0.0920
vn 0.2635 -0.9635 -0.0462
vn 0.1550 -0.9494 -0.2733
vn 0.1294 -0.9777 -0.1652
vn 0.0267 -0.9362 -0.3506
vn 0.0610 -0.8355 -0.5461
vn 0.0010 -0.7809 -0.6246
vn 0.4567 -0.8376 -0.2998
vn 0.4740 -0.8416 -0.2588
vn 0.4626 -0.8660 -0.1898
vn 0.4088 -0.8584 -0.3100
vn 0.3754 -0.9173 -0.1328
vn 0.2972 -0.9076 -0.2965
vn 0.3080 -0.8884 -0.3405
vn 0.1433 -0.7480 -0.6481
vn 0.0707 -0.9244 -0.3747
vn -0.0878 -0.7111 -0.6976
vn -0.1067 -0.8113 -0.5748
vn -0.1836 -0.7217 -0.6674
vn 0.3642 -0.8584 -0.3612
vn 0.3776 -0.8633 -0.3350
vn 0.3652 -0.9055 -0.2159
vn 0.3178 -0.8966 -0.3083
vn 0.3120 -0.9106 -0.2710
vn 0.2310 -0.8777 -0.4200
vn 0.1952 -0.9477 -0.2525
vn -0.0155 -0.8122 -0.5832
vn -0.0150 -0.8109 -0.5850
vn -0.1156 -0.6893 -0.7152
vn -0.1222 -0.7230 -0.6799
vn -0.1936 -0.6013 -0.7752
vn -0.2168 -0.7272 -0.6513
vn -0.3288 -0.5251 -0.7850
vn -0.3381 -0.5259 -0.7804
vn -0.3022 -0.6160 -0.7275
vn -0.2656 -0.7060 -0.6565
vn -0.1855 -0.8394 -0.5109
vn -0.0459 -0.9587 -0.2807
vn 0.1261 -0.9677 -0.2185
vn 0.1537 -0.9585 -0.2400
vn -0.3365 -0.5208 -0.7846
vn -0.1312 -0.5206 -0.8436
vn -0.3082 -0.6337 -0.7096
vn -0.2185 -0.6398 -0.7368
vn -0.1689 -0.7020 -0.6919
vn -0.1630 -0.7025 -0.6928
vn -0.2740 -0.7357 -0.6194
vn -0.3325 -0.7300 -0.5971
vn -0.2312 -0.8329 -0.5029
vn -0.1770 -0.8385 -0.5153
vn -0.1843 -0.8329 -0.5218
vn -0.1145 -0.8369 -0.5353
vn -0.1908 -0.8515 -0.4884
vn -0.2866 -0.8506 -0.4409
vn -0.3364 -0.7984 -0.4994
vn -0.2082 -0.8045 -0.5562
vn -0.1770 -0.8374 -0.5171
vn -0.2047 -0.8351 -0.5105
vn -0.1301 -0.8855 -0.4460
vn -0.2205 -0.8799 -0.4208
vn -0.0225 -0.9063 -0.4221
vn -0.2074 -0.9281 -0.3093
vn -0.2894 -0.8570 -0.4263
vn -0.1060 -0.8379 -0.5354
vn -0.1940 -0.7291 -0.6563
vn -0.3701 -0.7184 -0.5889
vn -0.1925 -0.8751 -0.4441
vn -0.3564 -0.8474 -0.3935
vn -0.2293 -0.9384 -0.2586
vn -0.4028 -0.9017 -0.1571
vn 0.1307 -0.9544 -0.2683
vn -0.0127 -0.9821 -0.1882
vn -0.1883 -0.9044 -0.3828
vn -0.0503 -0.8882 -0.4567
vn -0.1113 -0.8524 -0.5110
vn -0.2226 -0.8601 -0.4590
vn -0.3695 -0.7317 -0.5728
vn -0.4525 -0.7129 -0.5358
vn -0.3606 -0.8152 -0.4532
vn -0.4510 -0.8025 -0.3907
vn -0.3990 -0.8583 -0.3227
vn -0.6423 -0.7625 -0.0778
vn 0.1541 -0.9604 -0.2322
vn -0.0214 -0.9908 -0.1335
vn -0.0188 -0.9913 -0.1306
vn -0.0189 -0.9913 -0.1305
vn -0.0931 -0.9771 -0.1913
vn -0.0746 -0.9764 -0.2028
vn -0.2500 -0.9037 -0.3477
vn -0.2132 -0.9049 -0.3683
vn -0.4613 -0.7419 -0.4867
vn -0.5458 -0.7191 -0.4301
vn -0.4511 -0.8161 -0.3612
vn -0.5584 -0.7860 -0.2654
vn -0.6249 -0.7088 -0.3274
vn -0.6871 -0.6762 -0.2660
vn -0.6845 -0.6722 -0.2821
vn -0.5517 -0.7574 -0.3493
vn -0.5637 -0.7683 -0.3033
vn -0.2446 -0.9324 -0.2662
vn -0.0982 -0.9912 -0.0891
vn -0.0166 -0.9998 -0.0132
vn -0.0256 -0.9790 -0.2022
vn -0.6775 -0.6823 -0.2746
vn -0.6913 -0.6984 -0.1853
vn -0.5249 -0.7861 -0.3264
vn -0.5460 -0.8249 -0.1464
vn -0.5934 -0.7964 -0.1169
vn -0.6014 -0.7826 0.1610
vn -0.3724 -0.9081 -0.1916
vn -0.3816 -0.9148 -0.1322
vn -0.4434 -0.8918 -0.0903
vn -0.4482 -0.8902 0.0820
vn -0.5732 -0.7999 0.1775
vn -0.5600 -0.7392 0.3743
vn -0.0093 -0.9877 -0.1559
vn -0.0372 -0.9993 0.0030
vn -0.0512 -0.9986 0.0130
vn -0.0655 -0.9863 0.1516
vn -0.1424 -0.9661 0.2154
vn -0.1289 -0.9009 0.4144
vn -0.2194 -0.8295 0.5136
vn -0.2065 -0.7978 0.5665
vn -0.0044 -0.9997 -0.0244
vn 0.0013 -0.9962 0.0874
vn 0.0584 -0.9974 0.0420
vn 0.0852 -0.9520 0.2939
vn 0.1681 -0.9598 0.2248
vn 0.1986 -0.8934 0.4031
vn 0.1214 -0.8663 0.4845
vn 0.1245 -0.8605 0.4941
vn 0.0213 -0.7736 0.6333
vn -0.0050 -0.8161 0.5779
vn -0.1253 -0.9879 -0.0918
vn -0.1307 -0.9784 -0.1600
vn -0.2284 -0.9720 -0.0560
vn -0.2168 -0.9759 0.0239
vn -0.3088 -0.9442 0.1145
vn -0.2958 -0.9309 0.2142
vn -0.3055 -0.9255 0.2240
vn -0.2953 -0.8923 0.3415
vn -0.3139 -0.8790 0.3590
vn -0.3097 -0.7999 0.5140
vn -0.2984 -0.8112 0.5029
vn -0.2757 -0.7133 0.6444
vn 0.1416 -0.9852 -0.0969
vn 0.1418 -0.9815 -0.1289
vn 0.0632 -0.9974 -0.0351
vn 0.0569 -0.9892 -0.1354
vn -0.1255 -0.9891 0.0773
vn -0.1163 -0.9818 0.1504
vn -0.2075 -0.9431 0.2599
vn -0.1986 -0.9161 0.3482
vn -0.2176 -0.9041 0.3678
vn -0.2062 -0.7845 0.5848
vn -0.1753 -0.8158 0.5512
vn -0.1669 -0.7413 0.6501
vn -0.1814 -0.7161 0.6740
vn -0.1801 -0.7129 0.6778
vn 0.4269 -0.6787 -0.5976
vn 0.2076 -0.7319 -0.6490
vn 0.1965 -0.7360 -0.6479
vn 0.2589 -0.8614 -0.4371
vn 0.3994 -0.9034 -0.1561
vn 0.3255 -0.9409 0.0937
vn 0.3279 -0.8723 0.3629
vn 0.3850 -0.8166 -0.4302
vn 0.4753 -0.7393 -0.4770
vn 0.2051 -0.7402 -0.6404
vn 0.1599 -0.7661 -0.6225
vn 0.4098 -0.8796 -0.2416
vn 0.3325 -0.9190 -0.2119
vn 0.1607 -0.8247 -0.5423
vn 0.0965 -0.8461 -0.5243
vn 0.1195 -0.8601 -0.4960
vn 0.1727 -0.8417 -0.5117
vn 0.3390 -0.9116 -0.2324
vn 0.2424 -0.9477 -0.2077
vn 0.2362 -0.8927 -0.3838
vn 0.1740 -0.9095 -0.3776
vn 0.0853 -0.8656 -0.4935
vn 0.0902 -0.8646 -0.4943
vn 0.1415 -0.8974 -0.4179
vn 0.0775 -0.9107 -0.4057
vn 0.2155 -0.9682 -0.1273
vn 0.2236 -0.9662 -0.1285
vn 0.2962 -0.9547 0.0301
vn 0.1711 -0.9852 0.0128
vn 0.0801 -0.9816 -0.1734
vn 0.0747 -0.9820 -0.1735
vn 0.0133 -0.9546 -0.2977
vn 0.0479 -0.9528 -0.2999
vn 0.0423 -0.9493 -0.3115
vn 0.2357 -0.9163 -0.3239
vn 0.2652 -0.9274 -0.2637
vn 0.3962 -0.8793 -0.2643
vn 0.2694 -0.9463 0.1786
vn 0.1091 -0.9856 0.1289
vn 0.1075 -0.9864 0.1240
vn 0.0751 -0.9904 0.1163
vn 0.0161 -0.9987 -0.0489
vn 0.1588 -0.9868 -0.0316
vn 0.0485 -0.9523 -0.3014
vn 0.2694 -0.9179 -0.2912
vn 0.2429 -0.9063 -0.3459
vn 0.3826 -0.8601 -0.3373
vn 0.4042 -0.8669 -0.2918
vn 0.5183 -0.8083 -0.2793
vn 0.2144 -0.8420 0.4950
vn 0.1084 -0.8889 0.4450
vn 0.0535 -0.9750 0.2159
vn 0.1243 -0.9620 0.2431
vn 0.0833 -0.9914 0.1013
vn 0.2038 -0.9703 0.1305
vn 0.1543 -0.9878 -0.0213
vn 0.4528 -0.8914 0.0177
vn 0.2937 -0.8846 -0.3623
vn 0.3407 -0.8698 -0.3568
vn 0.3691 -0.8808 -0.2967
vn 0.3848 -0.8746 -0.2948
vn 0.4632 -0.8796 -0.1083
vn 0.4167 -0.9021 -0.1120
vn -0.0709 -0.7057 0.7049
vn -0.1824 -0.7418 0.6454
vn -0.1850 -0.7848 0.5915
vn -0.1326 -0.9170 0.3762
vn 0.0946 -0.9607 0.2609
vn 0.3087 -0.9512 -0.0011
vn 0.3500 -0.9366 -0.0182
vn -0.2052 -0.5743 0.7925
vn 0.0904 -0.5337 0.8408
vn -0.1815 -0.7427 0.6446
vn 0.0883 -0.6846 0.7236
vn 0.0867 -0.5294 0.8439
vn 0.1754 -0.4894 0.8542
vn -0.1042 -0.8542 0.5094
vn 0.1647 -0.7840 0.5986
vn 0.1686 -0.7663 0.6200
vn 0.1891 -0.7574 0.6250
vn 0.2211 -0.5441 0.8093
vn 0.0901 -0.6173 0.7815
vn 0.0613 -0.9901 0.1262
vn 0.2913 -0.9318 0.2165
vn 0.3232 -0.8721 0.3673
vn 0.1991 -0.9218 0.3325
vn 0.2472 -0.8004 0.5461
vn 0.2345 -0.8065 0.5427
vn 0.2450 -0.7812 0.5742
vn 0.2168 -0.7970 0.5637
vn 0.2925 -0.9541 -0.0643
vn 0.2810 -0.9572 -0.0692
vn 0.3252 -0.9316 0.1626
vn 0.2598 -0.9552 0.1419
vn 0.2752 -0.9393 0.2048
vn 0.3645 -0.9023 0.2303
vn 0.3770 -0.8871 0.2662
vn 0.4273 -0.8591 0.2816
vn 0.3844 -0.9035 0.1896
vn 0.4865 -0.8447 0.2232
vn 0.3414 -0.9378 -0.0622
vn 0.2419 -0.9640 -0.1102
vn 0.2583 -0.9656 -0.0303
vn 0.2906 -0.9566 -0.0189
vn 0.3075 -0.9505 0.0452
vn 0.4874 -0.8682 0.0936
vn 0.4523 -0.8919 -0.0032
vn 0.4429 -0.8966 -0.0055
vn 0.4920 -0.8646 0.1020
vn 0.3531 -0.9332 0.0674
vn 0.4486 -0.8366 0.3145
vn 0.5473 -0.7673 0.3342
vn 0.3752 -0.9239 -0.0744
vn 0.3127 -0.9438 -0.1070
vn 0.2876 -0.9354 -0.2054
vn 0.2800 -0.9371 -0.2082
vn 0.3181 -0.9447 -0.0795
vn 0.4732 -0.8800 -0.0416
vn 0.5027 -0.8631 0.0486
vn 0.2631 -0.9647 0.0072
vn 0.3417 -0.9106 0.2324
vn 0.1523 -0.9688 0.1954
vn 0.2047 -0.9151 0.3474
vn 0.1871 -0.9202 0.3438
vn 0.2970 -0.6552 0.6946
vn 0.1483 -0.7373 0.6590
s 0
f 1//1 20//1 19//1
f 2//2 26//2 40//2
f 1//3 19//3 54//3
f 1//4 54//4 68//4
f 1//5 68//5 41//5
f 2//6 40//6 89//6
f 3//7 33//7 103//7
f 4//8 61//8 117//8
f 5//9 75//9 131//9
f 6//10 82//10 145//10
f 2//11 89//11 104//11
f 3//12 103//12 118//12
f 4//13 117//13 132//13
f 5//14 131//14 146//14
f 6//15 145//15 90//15
f 7//16 159//16 194//16
f 8//17 166//17 208//17
f 9//18 173//18 215//18
f 10//19 180//19 222//19
f 11//20 187//20 195//20
f 201//21 216//21 12//21
f 200//22 223//22 201//22
f 199//23 224//23 200//23
f 198//24 226//24 199//24
f 197//25 229//25 198//25
f 196//26 233//26 197//26
f 195//27 238//27 196//27
f 201//28 223//28 216//28
f 223//29 217//29 216//29
f 200//30 224//30 223//30
f 224//31 225//31 223//31
f 223//32 225//32 217//32
f 225//33 218//33 217//33
f 199//34 226//34 224//34
f 226//35 227//35 224//35
f 224//36 227//36 225//36
f 227//37 228//37 225//37
f 225//38 228//38 218//38
f 228//39 219//39 218//39
f 198//40 229//40 226//40
f 229//41 230//41 226//41
f 226//42 230//42 227//42
f 230//43 231//43 227//43
f 227//44 231//44 228//44
f 231//45 232//45 228//45
f 228//46 232//46 219//46
f 232//47 220//47 219//47
f 197//48 233//48 229//48
f 233//49 234//49 229//49
f 229//50 234//50 230//50
f 234//51 235//51 230//51
f 230//52 235//52 231//52
f 235//53 236//53 231//53
f 231//54 236//54 232//54
f 236//55 237//55 232//55
f 232//56 237//56 220//56
f 237//57 221//57 220//57
f 196//58 238//58 233//58
f 238//59 239//59 233//59
f 233//60 239//60 234//60
f 239//61 240//61 234//61
f 234//62 240//62 235//62
f 240//63 241//63 235//63
f 235//64 241//64 236//64
f 241//65 242//65 236//65
f 236//66 242//66 237//66
f 242//67 243//67 237//67
f 237//68 243//68 221//68
f 243//69 222//69 221//69
f 195//70 187//70 238//70
f 187//71 186//71 238//71
f 238//72 186//72 239//72
f 186//73 185//73 239//73
f 239//74 185//74 240//74
f 185//75 184//75 240//75
f 240//76 184//76 241//76
f 184//77 183//77 241//77
f 241//78 183//78 242//78
f 183//79 182//79 242//79
f 242//80 182//80 243//80
f 182//81 181//81 243//81
f 243//82 181//82 222//82
f 181//83 10//83 222//83
f 216//84 209//84 12//84
f 217//85 244//85 216//85
f 218//86 245//86 217//86
f 219//87 247//87 218//87
f 220//88 250//88 219//88
f 221//89 254//89 220//89
f 222//90 259//90 221//90
f 216//91 244//91 209//91
f 244//92 210//92 209//92
f 217//93 245//93 244//93
f 245//94 246//94 244//94
f 244//95 246//95 210//95
f 246//96 211//96 210//96
f 218//97 247//97 245//97
f 247//98 248//98 245//98
f 245//99 248//99 246//99
f 248//100 249//100 246//100
f 246//101 249//101 211//101
f 249//102 212//102 211//102
f 219//103 250//103 247//103
f 250//104 251//104 247//104
f 247//105 251//105 248//105
f 251//106 252//106 248//106
f 248//107 252//107 249//107
f 252//108 253//108 249//108
f 249//109 253//109 212//109
f 253//110 213//110 212//110
f 220//111 254//111 250//111
f 254//112 255//112 250//112
f 250//113 255//113 251//113
f 255//114 256//114 251//114
f 251//115 256//115 252//115
f 256//116 257//116 252//116
f 252//117 257//117 253//117
f 257//118 258//118 253//118
f 253//119 258//119 213//119
f 258//120 214//120 213//120
f 221//121 259//121 254//121
f 259//122 260//122 254//122
f 254//123 260//123 255//123
f 260//124 261//124 255//124
f 255//125 261//125 256//125
f 261//126 262//126 256//126
f 256//127 262//127 257//127
f 262//128 263//128 257//128
f 257//129 263//129 258//129
f 263//130 264//130 258//130
f 258//131 264//131 214//131
f 264//132 215//132 214//132
f 222//133 180//133 259//133
f 180//134 179//134 259//134
f 259//135 179//135 260//135
f 179//136 178//136 260//136
f 260//137 178//137 261//137
f 178//138 177//138 261//138
f 261//139 177//139 262//139
f 177//140 176//140 262//140
f 262//141 176//141 263//141
f 176//142 175//142 263//142
f 263//143 175//143 264//143
f 175//144 174//144 264//144
f 264//145 174//145 215//145
f 174//146 9//146 215//146
f 209//147 202//147 12//147
f 210//148 265//148 209//148
f 211//149 266//149 210//149
f 212//150 268//150 211//150
f 213//151 271//151 212//151
f 214//152 275//152 213//152
f 215//153 280//153 214//153
f 209//154 265//154 202//154
f 265//155 203//155 202//155
f 210//156 266//156 265//156
f 266//157 267//157 265//157
f 265//158 267//158 203//158
f 267//159 204//159 203//159
f 211//160 268//160 266//160
f 268//161 269//161 266//161
f 266//162 269//162 267//162
f 269//163 270//163 267//163
f 267//164 270//164 204//164
f 270//165 205//165 204//165
f 212//166 271//166 268//166
f 271//167 272//167 268//167
f 268//168 272//168 269//168
f 272//169 273//169 269//169
f 269//170 273//170 270//170
f 273//171 274//171 270//171
f 270//172 274//172 205//172
f 274//173 206//173 205//173
f 213//174 275//174 271//174
f 275//175 276//175 271//175
f 271//176 276//176 272//176
f 276//177 277//177 272//177
f 272//178 277//178 273//178
f 277//179 278//179 273//179
f 273//180 278//180 274//180
f 278//181 279//181 274//181
f 274//182 279//182 206//182
f 279//183 207//183 206//183
f 214//184 280//184 275//184
f 280//185 281//185 275//185
f 275//186 281//186 276//186
f 281//187 282//187 276//187
f 276//188 282//188 277//188
f 282//189 283//189 277//189
f 277//190 283//190 278//190
f 283//191 284//191 278//191
f 278//192 284//192 279//192
f 284//193 285//193 279//193
f 279//194 285//194 207//194
f 285//195 208//195 207//195
f 215//196 173//196 280//196
f 173//197 172//197 280//197
f 280//198 172//198 281//198
f 172//199 171//199 281//199
f 281//200 171//200 282//200
f 171//201 170//201 282//201
f 282//202 170//202 283//202
f 170//203 169//203 283//203
f 283//204 169//204 284//204
f 169//205 168//205 284//205
f 284//206 168//206 285//206
f 168//207 167//207 285//207
f 285//208 167//208 208//208
f 167//209 8//209 208//209
f 202//210 188//210 12//210
f 203//211 286//211 202//211
f 204//212 287//212 203//212
f 205//213 289//213 204//213
f 206//214 292//214 205//214
f 207//215 296//215 206//215
f 208//216 301//216 207//216
f 202//217 286//217 188//217
f 286//218 189//218 188//218
f 203//219 287//219 286//219
f 287//220 288//220 286//220
f 286//221 288//221 189//221
f 288//222 190//222 189//222
f 204//223 289//223 287//223
f 289//224 290//224 287//224
f 287//225 290//225 288//225
f 290//226 291//226 288//226
f 288//227 291//227 190//227
f 291//228 191//228 190//228
f 205//229 292//229 289//229
f 292//230 293//230 289//230
f 289//231 293//231 290//231
f 293//232 294//232 290//232
f 290//233 294//233 291//233
f 294//234 295//234 291//234
f 291//235 295//235 191//235
f 295//236 192//236 191//236
f 206//237 296//237 292//237
f 296//238 297//238 292//238
f 292//239 297//239 293//239
f 297//240 298//240 293//240
f 293//241 298//241 294//241
f 298//242 299//242 294//242
f 294//243 299//243 295//243
f 299//244 300//244 295//244
f 295//245 300//245 192//245
f 300//246 193//246 192//246
f 207//247 301//247 296//247
f 301//248 302//248 296//248
f 296//249 302//249 297//249
f 302//250 303//250 297//250
f 297//251 303//251 298//251
f 303//252 304//252 298//252
f 298//253 304//253 299//253
f 304//254 305//254 299//254
f 299//255 305//255 300//255
f 305//256 306//256 300//256
f 300//257 306//257 193//257
f 306//258 194//258 193//258
f 208//259 166//259 301//259
f 166//260 165//260 301//260
f 301//261 165//261 302//261
f 165//262 164//262 302//262
f 302//263 164//263 303//263
f 164//264 163//264 303//264
f 303//265 163//265 304//265
f 163//266 162//266 304//266
f 304//267 162//267 305//267
f 162//268 161//268 305//268
f 305//269 161//269 306//269
f 161//270 160//270 306//270
f 306//271 160//271 194//271
f 160//272 7//272 194//272
f 188//273 201//273 12//273
f 189//274 307//274 188//274
f 190//275 308//275 189//275
f 191//276 310//276 190//276
f 192//277 313//277 191//277
f 193//278 317//278 192//278
f 194//279 322//279 193//279
f 188//280 307//280 201//280
f 307//281 200//281 201//281
f 189//282 308//282 307//282
f 308//283 309//283 307//283
f 307//284 309//284 200//284
f 309//285 199//285 200//285
f 190//286 310//286 308//286
f 310//287 311//287 308//287
f 308//288 311//288 309//288
f 311//289 312//289 309//289
f 309//290 312//290 199//290
f 312//291 198//291 199//291
f 191//292 313//292 310//292
f 313//293 314//293 310//293
f 310//294 314//294 311//294
f 314//295 315//295 311//295
f 311//296 315//296 312//296
f 315//297 316//297 312//297
f 312//298 316//298 198//298
f 316//299 197//299 198//299
f 192//300 317//300 313//300
f 317//301 318//301 313//301
f 313//302 318//302 314//302
f 318//303 319//303 314//303
f 314//304 319//304 315//304
f 319//305 320//305 315//305
f 315//306 320//306 316//306
f 320//307 321//307 316//307
f 316//308 321//308 197//308
f 321//309 196//309 197//309
f 193//310 322//310 317//310
f 322//311 323//311 317//311
f 317//312 323//312 318//312
f 323//313 324//313 318//313
f 318//314 324//314 319//314
f 324//315 325//315 319//315
f 319//316 325//316 320//316
f 325//317 326//317 320//317
f 320//318 326//318 321//318
f 326//319 327//319 321//319
f 321//320 327//320 196//320
f 327//321 195//321 196//321
f 194//322 159//322 322//322
f 159//323 158//323 322//323
f 322//324 158//324 323//324
f 158//325 157//325 323//325
f 323//326 157//326 324//326
f 157//327 156//327 324//327
f 324//328 156//328 325//328
f 156//329 155//329 325//329
f 325//330 155//330 326//330
f 155//331 154//331 326//331
f 326//332 154//332 327//332
f 154//333 153//333 327//333
f 327//334 153//334 195//334
f 153//335 11//335 195//335
f 96//336 187//336 11//336
f 95//337 328//337 96//337
f 94//338 329//338 95//338
f 93//339 331//339 94//339
f 92//340 334//340 93//340
f 91//341 338//341 92//341
f 90//342 343//342 91//342
f 96//343 328//343 187//343
f 328//344 186//344 187//344
f 95//345 329//345 328//345
f 329//346 330//346 328//346
f 328//347 330//347 186//347
f 330//348 185//348 186//348
f 94//349 331//349 329//349
f 331//350 332//350 329//350
f 329//351 332//351 330//351
f 332//352 333//352 330//352
f 330//353 333//353 185//353
f 333//354 184//354 185//354
f 93//355 334//355 331//355
f 334//356 335//356 331//356
f 331//357 335//357 332//357
f 335//358 336//358 332//358
f 332//359 336//359 333//359
f 336//360 337//360 333//360
f 333//361 337//361 184//361
f 337//362 183//362 184//362
f 92//363 338//363 334//363
f 338//364 339//364 334//364
f 334//365 339//365 335//365
f 339//366 340//366 335//366
f 335//367 340//367 336//367
f 340//368 341//368 336//368
f 336//369 341//369 337//369
f 341//370 342//370 337//370
f 337//371 342//371 183//371
f 342//372 182//372 183//372
f 91//373 343//373 338//373
f 343//374 344//374 338//374
f 338//375 344//375 339//375
f 344//376 345//376 339//376
f 339//377 345//377 340//377
f 345//378 346//378 340//378
f 340//379 346//379 341//379
f 346//380 347//380 341//380
f 341//381 347//381 342//381
f 347//382 348//382 342//382
f 342//383 348//383 182//383
f 348//384 181//384 182//384
f 90//385 145//385 343//385
f 145//386 144//386 343//386
f 343//387 144//387 344//387
f 144//388 143//388 344//388
f 344//389 143//389 345//389
f 143//390 142//390 345//390
f 345//391 142//391 346//391
f 142//392 141//392 346//392
f 346//393 141//393 347//393
f 141//394 140//394 347//394
f 347//395 140//395 348//395
f 140//396 139//396 348//396
f 348//397 139//397 181//397
f 139//398 10//398 181//398
f 152//399 180//399 10//399
f 151//400 349//400 152//400
f 150//401 350//401 151//401
f 149//402 352//402 150//402
f 148//403 355//403 149//403
f 147//404 359//404 148//404
f 146//405 364//405 147//405
f 152//406 349//406 180//406
f 349//407 179//407 180//407
f 151//408 350//408 349//408
f 350//409 351//409 349//409
f 349//410 351//410 179//410
f 351//411 178//411 179//411
f 150//412 352//412 350//412
f 352//413 353//413 350//413
f 350//414 353//414 351//414
f 353//415 354//415 351//415
f 351//416 354//416 178//416
f 354//417 177//417 178//417
f 149//418 355//418 352//418
f 355//419 356//419 352//419
f 352//420 356//420 353//420
f 356//421 357//421 353//421
f 353//422 357//422 354//422
f 357//423 358//423 354//423
f 354//424 358//424 177//424
f 358//425 176//425 177//425
f 148//426 359//426 355//426
f 359//427 360//427 355//427
f 355//428 360//428 356//428
f 360//429 361//429 356//429
f 356//430 361//430 357//430
f 361//431 362//431 357//431
f 357//432 362//432 358//432
f 362//433 363//433 358//433
f 358//434 363//434 176//434
f 363//435 175//435 176//435
f 147//436 364//436 359//436
f 364//437 365//437 359//437
f 359//438 365//438 360//438
f 365//439 366//439 360//439
f 360//440 366//440 361//440
f 366//441 367//441 361//441
f 361//442 367//442 362//442
f 367//443 368//443 362//443
f 362//444 368//444 363//444
f 368//445 369//445 363//445
f 363//446 369//446 175//446
f 369//447 174//447 175//447
f 146//448 131//448 364//448
f 131//449 130//449 364//449
f 364//450 130//450 365//450
f 130//451 129//451 365//451
f 365//452 129//452 366//452
f 129//453 128//453 366//453
f 366//454 128//454 367//454
f 128//455 127//455 367//455
f 367//456 127//456 368//456
f 127//457 126//457 368//457
f 368//458 126//458 369//458
f 126//459 125//459 369//459
f 369//460 125//460 174//460
f 125//461 9//461 174//461
f 138//462 173//462 9//462
f 137//463 370//463 138//463
f 136//464 371//464 137//464
f 135//465 373//465 136//465
f 134//466 376//466 135//466
f 133//467 380//467 134//467
f 132//468 385//468 133//468
f 138//469 370//469 173//469
f 370//470 172//470 173//470
f 137//471 371//471 370//471
f 371//472 372//472 370//472
f 370//473 372//473 172//473
f 372//474 171//474 172//474
f 136//475 373//475 371//475
f 373//476 374//476 371//476
f 371//477 374//477 372//477
f 374//478 375//478 372//478
f 372//479 375//479 171//479
f 375//480 170//480 171//480
f 135//481 376//481 373//481
f 376//482 377//482 373//482
f 373//483 377//483 374//483
f 377//484 378//484 374//484
f 374//485 378//485 375//485
f 378//486 379//486 375//486
f 375//487 379//487 170//487
f 379//488 169//488 170//488
f 134//489 380//489 376//489
f 380//490 381//490 376//490
f 376//491 381//491 377//491
f 381//492 382//492 377//492
f 377//493 382//493 378//493
f 382//494 383//494 378//494
f 378//495 383//495 379//495
f 383//496 384//496 379//496
f 379//497 384//497 169//497
f 384//498 168//498 169//498
f 133//499 385//499 380//499
f 385//500 386//500 380//500
f 380//501 386//501 381//501
f 386//502 387//502 381//502
f 381//503 387//503 382//503
f 387//504 388//504 382//504
f 382//505 388//505 383//505
f 388//506 389//506 383//506
f 383//507 389//507 384//507
f 389//508 390//508 384//508
f 384//509 390//509 168//509
f 390//510 167//510 168//510
f 132//511 117//511 385//511
f 117//512 116//512 385//512
f 385//513 116//513 386//513
f 116//514 115//514 386//514
f 386//515 115//515 387//515
f 115//516 114//516 387//516
f 387//517 114//517 388//517
f 114//518 113//518 388//518
f 388//519 113//519 389//519
f 113//520 112//520 389//520
f 389//521 112//521 390//521
f 112//522 111//522 390//522
f 390//523 111//523 167//523
f 111//524 8//524 167//524
f 124//525 166//525 8//525
f 123//526 391//526 124//526
f 122//527 392//527 123//527
f 121//528 394//528 122//528
f 120//529 397//529 121//529
f 119//530 401//530 120//530
f 118//531 406//531 119//531
f 124//532 391//532 166//532
f 391//533 165//533 166//533
f 123//534 392//534 391//534
f 392//535 393//535 391//535
f 391//536 393//536 165//536
f 393//537 164//537 165//537
f 122//538 394//538 392//538
f 394//539 395//539 392//539
f 392//540 395//540 393//540
f 395//541 396//541 393//541
f 393//542 396//542 164//542
f 396//543 163//543 164//543
f 121//544 397//544 394//544
f 397//545 398//545 394//545
f 394//546 398//546 395//546
f 398//547 399//547 395//547
f 395//548 399//548 396//548
f 399//549 400//549 396//549
f 396//550 400//550 163//550
f 400//551 162//551 163//551
f 120//552 401//552 397//552
f 401//553 402//553 397//553
f 397//554 402//554 398//554
f 402//555 403//555 398//555
f 398//556 403//556 399//556
f 403//557 404//557 399//557
f 399//558 404//558 400//558
f 404//559 405//559 400//559
f 400//560 405//560 162//560
f 405//561 161//561 162//561
f 119//562 406//562 401//562
f 406//563 407//563 401//563
f 401//564 407//564 402//564
f 407//565 408//565 402//565
f 402//566 408//566 403//566
f 408//567 409//567 403//567
f 403//568 409//568 404//568
f 409//569 410//569 404//569
f 404//570 410//570 405//570
f 410//571 411//571 405//571
f 405//572 411//572 161//572
f 411//573 160//573 161//573
f 118//574 103//574 406//574
f 103//575 102//575 406//575
f 406//576 102//576 407//576
f 102//577 101//577 407//577
f 407//578 101//578 408//578
f 101//579 100//579 408//579
f 408//580 100//580 409//580
f 100//581 99//581 409//581
f 409//582 99//582 410//582
f 99//583 98//583 410//583
f 410//584 98//584 411//584
f 98//585 97//585 411//585
f 411//586 97//586 160//586
f 97//587 7//587 160//587
f 110//588 159//588 7//588
f 109//589 412//589 110//589
f 108//590 413//590 109//590
f 107//591 415//591 108//591
f 106//592 418//592 107//592
f 105//593 422//593 106//593
f 104//594 427//594 105//594
f 110//595 412//595 159//595
f 412//596 158//596 159//596
f 109//597 413//597 412//597
f 413//598 414//598 412//598
f 412//599 414//599 158//599
f 414//600 157//600 158//600
f 108//601 415//601 413//601
f 415//602 416//602 413//602
f 413//603 416//603 414//603
f 416//604 417//604 414//604
f 414//605 417//605 157//605
f 417//606 156//606 157//606
f 107//607 418//607 415//607
f 418//608 419//608 415//608
f 415//609 419//609 416//609
f 419//610 420//610 416//610
f 416//611 420//611 417//611
f 420//612 421//612 417//612
f 417//613 421//613 156//613
f 421//614 155//614 156//614
f 106//615 422//615 418//615
f 422//616 423//616 418//616
f 418//617 423//617 419//617
f 423//618 424//618 419//618
f 419//619 424//619 420//619
f 424//620 425//620 420//620
f 420//621 425//621 421//621
f 425//622 426//622 421//622
f 421//623 426//623 155//623
f 426//624 154//624 155//624
f 105//625 427//625 422//625
f 427//626 428//626 422//626
f 422//627 428//627 423//627
f 428//628 429//628 423//628
f 423//629 429//629 424//629
f 429//630 430//630 424//630
f 424//631 430//631 425//631
f 430//632 431//632 425//632
f 425//633 431//633 426//633
f 431//634 432//634 426//634
f 426//635 432//635 154//635
f 432//636 153//636 154//636
f 104//637 89//637 427//637
f 89//638 88//638 427//638
f 427//639 88//639 428//639
f 88//640 87//640 428//640
f 428//641 87//641 429//641
f 87//642 86//642 429//642
f 429//643 86//643 430//643
f 86//644 85//644 430//644
f 430//645 85//645 431//645
f 85//646 84//646 431//646
f 431//647 84//647 432//647
f 84//648 83//648 432//648
f 432//649 83//649 153//649
f 83//650 11//650 153//650
f 139//651 152//651 10//651
f 140//652 433//652 139//652
f 141//653 434//653 140//653
f 142//654 436//654 141//654
f 143//655 439//655 142//655
f 144//656 443//656 143//656
f 145//657 448//657 144//657
f 139//658 433//658 152//658
f 433//659 151//659 152//659
f 140//660 434//660 433//660
f 434//661 435//661 433//661
f 433//662 435//662 151//662
f 435//663 150//663 151//663
f 141//664 436//664 434//664
f 436//665 437//665 434//665
f 434//666 437//666 435//666
f 437//667 438//667 435//667
f 435//668 438//668 150//668
f 438//669 149//669 150//669
f 142//670 439//670 436//670
f 439//671 440//671 436//671
f 436//672 440//672 437//672
f 440//673 441//673 437//673
f 437//674 441//674 438//674
f 441//675 442//675 438//675
f 438//676 442//676 149//676
f 442//677 148//677 149//677
f 143//678 443//678 439//678
f 443//679 444//679 439//679
f 439//680 444//680 440//680
f 444//681 445//681 440//681
f 440//682 445//682 441//682
f 445//683 446//683 441//683
f 441//684 446//684 442//684
f 446//685 447//685 442//685
f 442//686 447//686 148//686
f 447//687 147//687 148//687
f 144//688 448//688 443//688
f 448//689 449//689 443//689
f 443//690 449//690 444//690
f 449//691 450//691 444//691
f 444//692 450//692 445//692
f 450//693 451//693 445//693
f 445//694 451//694 446//694
f 451//695 452//695 446//695
f 446//696 452//696 447//696
f 452//697 453//697 447//697
f 447//698 453//698 147//698
f 453//699 146//699 147//699
f 145//700 82//700 448//700
f 82//700 81//700 448//700
f 448//701 81//701 449//701
f 81//702 80//702 449//702
f 449//703 80//703 450//703
f 80//704 79//704 450//704
f 450//705 79//705 451//705
f 79//706 78//706 451//706
f 451//707 78//707 452//707
f 78//708 77//708 452//708
f 452//709 77//709 453//709
f 77//710 76//710 453//710
f 453//711 76//711 146//711
f 76//712 5//712 146//712
f 125//713 138//713 9//713
f 126//714 454//714 125//714
f 127//715 455//715 126//715
f 128//716 457//716 127//716
f 129//717 460//717 128//717
f 130//718 464//718 129//718
f 131//719 469//719 130//719
f 125//720 454//720 138//720
f 454//721 137//721 138//721
f 126//722 455//722 454//722
f 455//723 456//723 454//723
f 454//724 456//724 137//724
f 456//725 136//725 137//725
f 127//726 457//726 455//726
f 457//727 458//727 455//727
f 455//728 458//728 456//728
f 458//729 459//729 456//729
f 456//730 459//730 136//730
f 459//731 135//731 136//731
f 128//732 460//732 457//732
f 460//733 461//733 457//733
f 457//734 461//734 458//734
f 461//735 462//735 458//735
f 458//736 462//736 459//736
f 462//737 463//737 459//737
f 459//738 463//738 135//738
f 463//739 134//739 135//739
f 129//740 464//740 460//740
f 464//741 465//741 460//741
f 460//742 465//742 461//742
f 465//743 466//743 461//743
f 461//744 466//744 462//744
f 466//745 467//745 462//745
f 462//746 467//746 463//746
f 467//747 468//747 463//747
f 463//748 468//748 134//748
f 468//749 133//749 134//749
f 130//750 469//750 464//750
f 469//751 470//751 464//751
f 464//752 470//752 465//752
f 470//753 471//753 465//753
f 465//754 471//754 466//754
f 471//755 472//755 466//755
f 466//756 472//756 467//756
f 472//757 473//757 467//757
f 467//758 473//758 468//758
f 473//759 474//759 468//759
f 468//760 474//760 133//760
f 474//761 132//761 133//761
f 131//762 75//762 469//762
f 75//763 74//763 469//763
f 469//764 74//764 470//764
f 74//765 73//765 470//765
f 470//766 73//766 471//766
f 73//767 72//767 471//767
f 471//768 72//768 472//768
f 72//769 71//769 472//769
f 472//770 71//770 473//770
f 71//771 70//771 473//771
f 473//772 70//772 474//772
f 70//773 69//773 474//773
f 474//774 69//774 132//774
f 69//775 4//775 132//775
f 111//776 124//776 8//776
f 112//777 475//777 111//777
f 113//778 476//778 112//778
f 114//779 478//779 113//779
f 115//780 481//780 114//780
f 116//781 485//781 115//781
f 117//782 490//782 116//782
f 111//783 475//783 124//783
f 475//784 123//784 124//784
f 112//785 476//785 475//785
f 476//786 477//786 475//786
f 475//787 477//787 123//787
f 477//788 122//788 123//788
f 113//789 478//789 476//789
f 478//790 479//790 476//790
f 476//791 479//791 477//791
f 479//792 480//792 477//792
f 477//793 480//793 122//793
f 480//794 121//794 122//794
f 114//795 481//795 478//795
f 481//796 482//796 478//796
f 478//797 482//797 479//797
f 482//798 483//798 479//798
f 479//799 483//799 480//799
f 483//800 484//800 480//800
f 480//801 484//801 121//801
f 484//802 120//802 121//802
f 115//803 485//803 481//803
f 485//804 486//804 481//804
f 481//805 486//805 482//805
f 486//806 487//806 482//806
f 482//807 487//807 483//807
f 487//808 488//808 483//808
f 483//809 488//809 484//809
f 488//810 489//810 484//810
f 484//811 489//811 120//811
f 489//812 119//812 120//812
f 116//813 490//813 485//813
f 490//814 491//814 485//814
f 485//815 491//815 486//815
f 491//816 492//816 486//816
f 486//817 492//817 487//817
f 492//818 493//818 487//818
f 487//819 493//819 488//819
f 493//820 494//820 488//820
f 488//821 494//821 489//821
f 494//822 495//822 489//822
f 489//823 495//823 119//823
f 495//824 118//824 119//824
f 117//825 61//825 490//825
f 61//826 60//826 490//826
f 490//827 60//827 491//827
f 60//828 59//828 491//828
f 491//829 59//829 492//829
f 59//830 58//830 492//830
f 492//831 58//831 493//831
f 58//832 57//832 493//832
f 493//833 57//833 494//833
f 57//834 56//834 494//834
f 494//835 56//835 495//835
f 56//836 55//836 495//836
f 495//837 55//837 118//837
f 55//838 3//838 118//838
f 97//839 110//839 7//839
f 98//840 496//840 97//840
f 99//841 497//841 98//841
f 100//842 499//842 99//842
f 101//843 502//843 100//843
f 102//844 506//844 101//844
f 103//845 511//845 102//845
f 97//846 496//846 110//846
f 496//847 109//847 110//847
f 98//848 497//848 496//848
f 497//849 498//849 496//849
f 496//850 498//850 109//850
f 498//851 108//851 109//851
f 99//852 499//852 497//852
f 499//853 500//853 497//853
f 497//854 500//854 498//854
f 500//855 501//855 498//855
f 498//856 501//856 108//856
f 501//857 107//857 108//857
f 100//858 502//858 499//858
f 502//859 503//859 499//859
f 499//860 503//860 500//860
f 503//861 504//861 500//861
f 500//862 504//862 501//862
f 504//863 505//863 501//863
f 501//864 505//864 107//864
f 505//865 106//865 107//865
f 101//866 506//866 502//866
f 506//867 507//867 502//867
f 502//868 507//868 503//868
f 507//869 508//869 503//869
f 503//870 508//870 504//870
f 508//871 509//871 504//871
f 504//872 509//872 505//872
f 509//873 510//873 505//873
f 505//874 510//874 106//874
f 510//875 105//875 106//875
f 102//876 511//876 506//876
f 511//877 512//877 506//877
f 506//878 512//878 507//878
f 512//879 513//879 507//879
f 507//880 513//880 508//880
f 513//881 514//881 508//881
f 508//882 514//882 509//882
f 514//883 515//883 509//883
f 509//884 515//884 510//884
f 515//885 516//885 510//885
f 510//886 516//886 105//886
f 516//887 104//887 105//887
f 103//888 33//888 511//888
f 33//889 32//889 511//889
f 511//890 32//890 512//890
f 32//891 31//891 512//891
f 512//892 31//892 513//892
f 31//893 30//893 513//893
f 513//894 30//894 514//894
f 30//895 29//895 514//895
f 514//896 29//896 515//896
f 29//897 28//897 515//897
f 515//898 28//898 516//898
f 28//899 27//899 516//899
f 516//900 27//900 104//900
f 27//901 2//901 104//901
f 83//902 96//902 11//902
f 84//903 517//903 83//903
f 85//904 518//904 84//904
f 86//905 520//905 85//905
f 87//906 523//906 86//906
f 88//907 527//907 87//907
f 89//908 532//908 88//908
f 83//909 517//909 96//909
f 517//910 95//910 96//910
f 84//911 518//911 517//911
f 518//912 519//912 517//912
f 517//913 519//913 95//913
f 519//914 94//914 95//914
f 85//915 520//915 518//915
f 520//916 521//916 518//916
f 518//917 521//917 519//917
f 521//918 522//918 519//918
f 519//919 522//919 94//919
f 522//920 93//920 94//920
f 86//921 523//921 520//921
f 523//922 524//922 520//922
f 520//923 524//923 521//923
f 524//924 525//924 521//924
f 521//925 525//925 522//925
f 525//926 526//926 522//926
f 522//927 526//927 93//927
f 526//928 92//928 93//928
f 87//929 527//929 523//929
f 527//930 528//930 523//930
f 523//931 528//931 524//931
f 528//932 529//932 524//932
f 524//933 529//933 525//933
f 529//934 530//934 525//934
f 525//935 530//935 526//935
f 530//936 531//936 526//936
f 526//937 531//937 92//937
f 531//938 91//938 92//938
f 88//939 532//939 527//939
f 532//940 533//940 527//940
f 527//941 533//941 528//941
f 533//942 534//942 528//942
f 528//943 534//943 529//943
f 534//944 535//944 529//944
f 529//945 535//945 530//945
f 535//946 536//946 530//946
f 530//947 536//947 531//947
f 536//948 537//948 531//948
f 531//949 537//949 91//949
f 537//950 90//950 91//950
f 89//951 40//951 532//951
f 40//952 39//952 532//952
f 532//953 39//953 533//953
f 39//954 38//954 533//954
f 533//955 38//955 534//955
f 38//956 37//956 534//956
f 534//957 37//957 535//957
f 37//958 36//958 535//958
f 535//959 36//959 536//959
f 36//960 35//960 536//960
f 536//961 35//961 537//961
f 35//962 34//962 537//962
f 537//963 34//963 90//963
f 34//964 6//964 90//964
f 47//965 82//965 6//965
f 46//966 538//966 47//966
f 45//967 539//967 46//967
f 44//968 541//968 45//968
f 43//969 544//969 44//969
f 42//970 548//970 43//970
f 41//971 553//971 42//971
f 47//972 538//972 82//972
f 538//973 81//973 82//973
f 46//974 539//974 538//974
f 539//975 540//975 538//975
f 538//976 540//976 81//976
f 540//977 80//977 81//977
f 45//978 541//978 539//978
f 541//979 542//979 539//979
f 539//980 542//980 540//980
f 542//981 543//981 540//981
f 540//982 543//982 80//982
f 543//983 79//983 80//983
f 44//984 544//984 541//984
f 544//985 545//985 541//985
f 541//986 545//986 542//986
f 545//987 546//987 542//987
f 542//988 546//988 543//988
f 546//989 547//989 543//989
f 543//990 547//990 79//990
f 547//991 78//991 79//991
f 43//992 548//992 544//992
f 548//993 549//993 544//993
f 544//994 549//994 545//994
f 549//995 550//995 545//995
f 545//996 550//996 546//996
f 550//997 551//997 546//997
f 546//998 551//998 547//998
f 551//999 552//999 547//999
f 547//1000 552//1000 78//1000
f 552//1001 77//1001 78//1001
f 42//1002 553//1002 548//1002
f 553//1003 554//1003 548//1003
f 548//1004 554//1004 549//1004
f 554//1005 555//1005 549//1005
f 549//1006 555//1006 550//1006
f 555//1007 556//1007 550//1007
f 550//1008 556//1008 551//1008
f 556//1009 557//1009 551//1009
f 551//1010 557//1010 552//1010
f 557//1011 558//1011 552//1011
f 552//1012 558//1012 77//1012
f 558//1013 76//1013 77//1013
f 41//1014 68//1014 553//1014
f 68//1015 67//1015 553//1015
f 553//1016 67//1016 554//1016
f 67//1017 66//1017 554//1017
f 554//1018 66//1018 555//1018
f 66//1019 65//1019 555//1019
f 555//1020 65//1020 556//1020
f 65//1021 64//1021 556//1021
f 556//1022 64//1022 557//1022
f 64//1023 63//1023 557//1023
f 557//1024 63//1024 558//1024
f 63//1025 62//1025 558//1025
f 558//1026 62//1026 76//1026
f 62//1027 5//1027 76//1027
f 62//1028 75//1028 5//1028
f 63//1029 559//1029 62//1029
f 64//1030 560//1030 63//1030
f 65//1031 562//1031 64//1031
f 66//1032 565//1032 65//1032
f 67//1033 569//1033 66//1033
f 68//1034 574//1034 67//1034
f 62//1035 559//1035 75//1035
f 559//1036 74//1036 75//1036
f 63//1037 560//1037 559//1037
f 560//1038 561//1038 559//1038
f 559//1039 561//1039 74//1039
f 561//1040 73//1040 74//1040
f 64//1041 562//1041 560//1041
f 562//1042 563//1042 560//1042
f 560//1043 563//1043 561//1043
f 563//1044 564//1044 561//1044
f 561//1045 564//1045 73//1045
f 564//1046 72//1046 73//1046
f 65//1047 565//1047 562//1047
f 565//1048 566//1048 562//1048
f 562//1049 566//1049 563//1049
f 566//1050 567//1050 563//1050
f 563//1051 567//1051 564//1051
f 567//1052 568//1052 564//1052
f 564//1053 568//1053 72//1053
f 568//1054 71//1054 72//1054
f 66//1055 569//1055 565//1055
f 569//1056 570//1056 565//1056
f 565//1057 570//1057 566//1057
f 570//1058 571//1058 566//1058
f 566//1059 571//1059 567//1059
f 571//1060 572//1060 567//1060
f 567//1061 572//1061 568//1061
f 572//1062 573//1062 568//1062
f 568//1063 573//1063 71//1063
f 573//1064 70//1064 71//1064
f 67//1065 574//1065 569//1065
f 574//1066 575//1066 569//1066
f 569//1067 575//1067 570//1067
f 575//1068 576//1068 570//1068
f 570//1069 576//1069 571//1069
f 576//1070 577//1070 571//1070
f 571//1071 577//1071 572//1071
f 577//1072 578//1072 572//1072
f 572//1073 578//1073 573//1073
f 578//1074 579//1074 573//1074
f 573//1075 579//1075 70//1075
f 579//1076 69//1076 70//1076
f 68//1077 54//1077 574//1077
f 54//1078 53//1078 574//1078
f 574//1079 53//1079 575//1079
f 53//1080 52//1080 575//1080
f 575//1081 52//1081 576//1081
f 52//1082 51//1082 576//1082
f 576//1083 51//1083 577//1083
f 51//1084 50//1084 577//1084
f 577//1085 50//1085 578//1085
f 50//1086 49//1086 578//1086
f 578//1087 49//1087 579//1087
f 49//1088 48//1088 579//1088
f 579//1089 48//1089 69//1089
f 48//1090 4//1090 69//1090
f 48//1091 61//1091 4//1091
f 49//1092 580//1092 48//1092
f 50//1093 581//1093 49//1093
f 51//1094 583//1094 50//1094
f 52//1095 586//1095 51//1095
f 53//1096 590//1096 52//1096
f 54//1097 595//1097 53//1097
f 48//1098 580//1098 61//1098
f 580//1099 60//1099 61//1099
f 49//1100 581//1100 580//1100
f 581//1101 582//1101 580//1101
f 580//1102 582//1102 60//1102
f 582//1103 59//1103 60//1103
f 50//1104 583//1104 581//1104
f 583//1105 584//1105 581//1105
f 581//1106 584//1106 582//1106
f 584//1107 585//1107 582//1107
f 582//1108 585//1108 59//1108
f 585//1109 58//1109 59//1109
f 51//1110 586//1110 583//1110
f 586//1111 587//1111 583//1111
f 583//1112 587//1112 584//1112
f 587//1113 588//1113 584//1113
f 584//1114 588//1114 585//1114
f 588//1115 589//1115 585//1115
f 585//1116 589//1116 58//1116
f 589//1117 57//1117 58//1117
f 52//1118 590//1118 586//1118
f 590//1119 591//1119 586//1119
f 586//1120 591//1120 587//1120
f 591//1121 592//1121 587//1121
f 587//1122 592//1122 588//1122
f 592//1123 593//1123 588//1123
f 588//1124 593//1124 589//1124
f 593//1125 594//1125 589//1125
f 589//1126 594//1126 57//1126
f 594//1127 56//1127 57//1127
f 53//1128 595//1128 590//1128
f 595//1129 596//1129 590//1129
f 590//1130 596//1130 591//1130
f 596//1131 597//1131 591//1131
f 591//1132 597//1132 592//1132
f 597//1133 598//1133 592//1133
f 592//1134 598//1134 593//1134
f 598//1135 599//1135 593//1135
f 593//1136 599//1136 594//1136
f 599//1137 600//1137 594//1137
f 594//1138 600//1138 56//1138
f 600//1139 55//1139 56//1139
f 54//1140 19//1140 595//1140
f 19//1141 18//1141 595//1141
f 595//1142 18//1142 596//1142
f 18//1143 17//1143 596//1143
f 596//1144 17//1144 597//1144
f 17//1145 16//1145 597//1145
f 597//1146 16//1146 598//1146
f 16//1147 15//1147 598//1147
f 598//1148 15//1148 599//1148
f 15//1149 14//1149 599//1149
f 599//1150 14//1150 600//1150
f 14//1151 13//1151 600//1151
f 600//1152 13//1152 55//1152
f 13//1153 3//1153 55//1153
f 34//1154 47//1154 6//1154
f 35//1155 601//1155 34//1155
f 36//1156 602//1156 35//1156
f 37//1157 604//1157 36//1157
f 38//1158 607//1158 37//1158
f 39//1159 611//1159 38//1159
f 40//1160 616//1160 39//1160
f 34//1161 601//1161 47//1161
f 601//1162 46//1162 47//1162
f 35//1163 602//1163 601//1163
f 602//1164 603//1164 601//1164
f 601//1165 603//1165 46//1165
f 603//1166 45//1166 46//1166
f 36//1167 604//1167 602//1167
f 604//1168 605//1168 602//1168
f 602//1169 605//1169 603//1169
f 605//1170 606//1170 603//1170
f 603//1171 606//1171 45//1171
f 606//1172 44//1172 45//1172
f 37//1173 607//1173 604//1173
f 607//1174 608//1174 604//1174
f 604//1175 608//1175 605//1175
f 608//1176 609//1176 605//1176
f 605//1177 609//1177 606//1177
f 609//1178 610//1178 606//1178
f 606//1179 610//1179 44//1179
f 610//1180 43//1180 44//1180
f 38//1181 611//1181 607//1181
f 611//1182 612//1182 607//1182
f 607//1183 612//1183 608//1183
f 612//1184 613//1184 608//1184
f 608//1185 613//1185 609//1185
f 613//1186 614//1186 609//1186
f 609//1187 614//1187 610//1187
f 614//1188 615//1188 610//1188
f 610//1189 615//1189 43//1189
f 615//1190 42//1190 43//1190
f 39//1191 616//1191 611//1191
f 616//1192 617//1192 611//1192
f 611//1193 617//1193 612//1193
f 617//1194 618//1194 612//1194
f 612//1195 618//1195 613//1195
f 618//1196 619//1196 613//1196
f 613//1197 619//1197 614//1197
f 619//1198 620//1198 614//1198
f 614//1199 620//1199 615//1199
f 620//1200 621//1200 615//1200
f 615//1201 621//1201 42//1201
f 621//1202 41//1202 42//1202
f 40//1203 26//1203 616//1203
f 26//1204 25//1204 616//1204
f 616//1205 25//1205 617//1205
f 25//1206 24//1206 617//1206
f 617//1207 24//1207 618//1207
f 24//1208 23//1208 618//1208
f 618//1209 23//1209 619//1209
f 23//1210 22//1210 619//1210
f 619//1211 22//1211 620//1211
f 22//1212 21//1212 620//1212
f 620//1213 21//1213 621//1213
f 21//1214 20//1214 621//1214
f 621//1215 20//1215 41//1215
f 20//1216 1//1216 41//1216
f 13//1217 33//1217 3//1217
f 14//1218 622//1218 13//1218
f 15//1219 623//1219 14//1219
f 16//1220 625//1220 15//1220
f 17//1221 628//1221 16//1221
f 18//1222 632//1222 17//1222
f 19//1223 637//1223 18//1223
f 13//1224 622//1224 33//1224
f 622//1225 32//1225 33//1225
f 14//1226 623//1226 622//1226
f 623//1227 624//1227 622//1227
f 622//1228 624//1228 32//1228
f 624//1229 31//1229 32//1229
f 15//1230 625//1230 623//1230
f 625//1231 626//1231 623//1231
f 623//1232 626//1232 624//1232
f 626//1233 627//1233 624//1233
f 624//1234 627//1234 31//1234
f 627//1235 30//1235 31//1235
f 16//1236 628//1236 625//1236
f 628//1237 629//1237 625//1237
f 625//1238 629//1238 626//1238
f 629//1239 630//1239 626//1239
f 626//1240 630//1240 627//1240
f 630//1241 631//1241 627//1241
f 627//1242 631//1242 30//1242
f 631//1243 29//1243 30//1243
f 17//1244 632//1244 628//1244
f 632//1245 633//1245 628//1245
f 628//1246 633//1246 629//1246
f 633//1247 634//1247 629//1247
f 629//1248 634//1248 630//1248
f 634//1249 635//1249 630//1249
f 630//1250 635//1250 631//1250
f 635//1251 636//1251 631//1251
f 631//1252 636//1252 29//1252
f 636//1253 28//1253 29//1253
f 18//1254 637//1254 632//1254
f 637//1255 638//1255 632//1255
f 632//1256 638//1256 633//1256
f 638//1257 639//1257 633//1257
f 633//1258 639//1258 634//1258
f 639//1259 640//1259 634//1259
f 634//1260 640//1260 635//1260
f 640//1261 641//1261 635//1261
f 635//1262 641//1262 636//1262
f 641//1263 642//1263 636//1263
f 636//1264 642//1264 28//1264
f 642//1265 27//1265 28//1265
f 19//1266 20//1266 637//1266
f 20//1267 21//1267 637//1267
f 637//1268 21//1268 638//1268
f 21//1269 22//1269 638//1269
f 638//1270 22//1270 639//1270
f 22//1271 23//1271 639//1271
f 639//1272 23//1272 640//1272
f 23//1273 24//1273 640//1273
f 640//1274 24//1274 641//1274
f 24//1275 25//1275 641//1275
f 641//1276 25//1276 642//1276
f 25//1277 26//1277 642//1277
f 642//1278 26//1278 27//1278
f 26//1279 2//1279 27//1279
