# https://github.com/mikedh/trimesh
v -0.19775368 0.40539769 -0.01156189
v 0.15638445 0.32059022 0.00914319
v -0.22083045 -0.45270539 -0.01291110
v 0.16703043 -0.34241463 0.00976562
v 0.00703764 -0.23262194 0.17985569
v 0.00790425 0.27826916 0.20200297
v -0.00649342 -0.22860101 -0.16594755
v -0.00616894 0.20390788 -0.15765492
v 0.25605947 -0.00396119 -0.07893868
v 0.26657663 0.00400857 0.11061853
v -0.27022248 -0.00406339 -0.11213142
v -0.32029829 0.00495495 0.09874239
v 0.00000000 0.50000000 0.00000000
v 0.00000000 -0.36682257 0.00000000
v -0.09978061 -0.33959423 0.09225445
v 0.10244150 -0.32369119 0.09948417
v -0.11145159 0.38855810 0.10304512
v 0.11622181 0.37618215 0.11286667
v 0.00802569 0.00863179 0.20510663
v -0.10050735 -0.32531822 -0.09760586
v 0.11988196 -0.41794924 -0.11083961
v -0.11503061 0.36346984 -0.11170985
v 0.12038637 0.40972405 -0.11130598
v -0.00740033 -0.00795920 -0.18912478
v 0.26671068 0.20815425 -0.04452963
v 0.29406042 -0.23509156 -0.04909591
v 0.18563832 -0.15866322 -0.17163616
v 0.20367552 0.15718842 -0.18831286
v 0.29443913 0.23130442 0.08243535
v 0.25822679 -0.19803143 0.07229683
v 0.17598129 -0.12609244 0.17090099
v 0.15626028 0.12399326 0.15174929
v 0.31625641 0.00000000 0.01849029
v -0.26198283 0.20091190 -0.07334842
v -0.27979612 -0.21980122 -0.07833569
v -0.19320394 -0.15330822 -0.18762645
v -0.15118532 0.10832587 -0.14682084
v -0.35010195 0.27989491 0.05845252
v -0.32430254 -0.25310179 0.05414509
v -0.18667208 -0.14406587 0.17259195
v -0.17651580 0.15086629 0.16320173
v -0.34022063 0.00000000 -0.01989139
v -0.08757707 0.39058925 -0.00512029
v 0.09883185 0.44078500 0.00577832
v -0.10703583 -0.47737431 -0.00625797
v 0.08839763 -0.39424888 0.00516827
v -0.11942038 -0.30322655 0.03544636
v -0.04748932 -0.28315863 0.13218290
v -0.04636551 -0.35522973 0.04286830
v 0.17235467 -0.42576942 0.06965191
v 0.06031891 -0.29409790 0.14369991
v 0.06359989 -0.45238839 0.06176386
v 0.00389955 -0.34423930 0.09965791
v -0.13312578 0.34201676 0.03951440
v -0.04394338 0.27255097 0.12231303
v -0.06143997 0.47581804 0.05680573
v 0.18546300 0.46355917 0.07494925
v 0.07054053 0.35776477 0.16805123
v 0.06706294 0.48218462 0.06512694
v 0.00370488 0.33502415 0.09468297
v 0.00811958 -0.11864399 0.20750602
v 0.00735971 0.12337184 0.18808676
v -0.13297547 -0.33236817 -0.05373800
v -0.04889149 -0.24796598 -0.11647595
v -0.06274585 -0.45114465 -0.06093448
v 0.16020156 -0.41157785 -0.04755104
v 0.05306153 -0.32910465 -0.14769270
v 0.05027556 -0.38935601 -0.04648342
v -0.00490961 -0.44396453 -0.12547119
v -0.17028271 0.42065104 -0.06881459
v -0.06852442 0.33410561 -0.16324818
v -0.05912037 0.42052540 -0.05741366
v 0.12962447 0.32913628 -0.03847514
v 0.04670657 0.27849140 -0.13000416
v 0.04077744 0.31241663 -0.03770171
v -0.00424692 0.37490387 -0.10853536
v -0.00582608 -0.09766334 -0.14889282
v -0.00787822 0.11511722 -0.20133778
v 0.22799341 0.29255573 -0.01771373
v 0.36922878 0.13794255 -0.08831942
v 0.22742950 0.33893580 -0.08460114
v 0.21420754 -0.27732657 -0.01664265
v 0.34750696 -0.13855383 -0.08312357
v 0.20543322 -0.31361507 -0.07641878
v 0.08194598 -0.19488708 -0.16744898
v 0.27874343 -0.08962968 -0.14858563
v 0.12607811 -0.23449152 -0.11656841
v 0.09314374 -0.08860554 -0.20954274
v 0.22496267 -0.18451059 -0.10149598
v 0.09744161 0.21446126 -0.19911287
v 0.22402516 0.06085582 -0.11941777
v 0.16270892 0.28912721 -0.15043625
v 0.09014084 0.06819685 -0.20278722
v 0.22752764 0.17683208 -0.10265322
v 0.18491287 -0.00766750 -0.17096543
v 0.28600337 0.36636514 0.05525227
v 0.26163125 0.10193448 0.09139841
v 0.17665580 0.26087515 0.08388703
v 0.35679359 0.27938203 0.02086034
v 0.27464779 -0.34869738 0.05305851
v 0.31926466 -0.11655478 0.11153209
v 0.21419684 -0.30878934 0.10171383
v 0.25139045 -0.19684764 0.01469783
v 0.08187878 -0.15470323 0.15252829
v 0.19874316 -0.05159417 0.12396785
v 0.13604990 -0.22444849 0.13212236
v 0.07865893 -0.05038763 0.15832327
v 0.25220989 -0.18848041 0.13833989
v 0.10197909 0.20820454 0.18997226
v 0.28601080 0.08788865 0.17840183
v 0.15854894 0.27377363 0.15397188
v 0.11165893 0.08993606 0.22474509
v 0.21345135 0.16833985 0.11708041
v 0.16040084 0.00617496 0.15577032
v 0.34316333 -0.00242131 -0.03733949
v 0.33910348 0.00236167 0.07581526
v 0.37883029 0.13157921 -0.01585653
v 0.40126406 -0.14276719 -0.01679553
v 0.34239825 0.12087196 0.05410082
v 0.27821565 -0.09587822 0.04395962
v -0.22997631 0.29198173 -0.04442854
v -0.37049530 0.13525768 -0.12942903
v -0.22333203 0.32195876 -0.10605178
v -0.21304448 -0.27290613 -0.04115753
v -0.25229800 -0.09829815 -0.08813792
v -0.18003409 -0.26586402 -0.08549126
v -0.11420160 -0.23315849 -0.21274102
v -0.29357180 -0.09021208 -0.18311807
v -0.15644916 -0.27014785 -0.15193272
v -0.09709785 -0.07820779 -0.19543681
v -0.27977282 -0.22064472 -0.15345846
v -0.11306123 0.21361991 -0.21061667
v -0.20788719 0.05396798 -0.12967152
v -0.17432757 0.28759711 -0.16929501
v -0.12010271 0.07693584 -0.24174057
v -0.28376402 0.21206130 -0.15564768
v -0.22225890 -0.00855631 -0.21584264
v -0.27806883 0.36000542 0.02160429
v -0.35585434 0.14188199 0.08512026
v -0.22465480 0.34295880 0.08356898
v -0.29117779 0.22800253 -0.01702404
v -0.25808728 -0.33117146 0.02005184
v -0.27878980 -0.10415487 0.06668644
v -0.24784862 -0.36936621 0.09219681
v -0.29154830 -0.22829266 -0.01704570
v -0.09102372 -0.20033599 0.18599850
v -0.21385476 -0.05809306 0.11399639
v -0.13362670 -0.23744928 0.12354763
v -0.08642483 -0.06538547 0.19442741
v -0.24230427 -0.18831632 0.10931996
v -0.07931763 0.18863625 0.16207821
v -0.21177499 0.06809605 0.11288776
v -0.14510911 0.26988710 0.13416395
v -0.07236232 0.06883665 0.16279140
v -0.17309768 0.14197180 0.07809615
v -0.20818304 0.00863241 0.19248040
v -0.32401329 -0.00225658 -0.07244146
v -0.34159885 0.00241027 0.03716926
v -0.39985835 0.13779854 -0.06317984
v -0.36629544 -0.12930804 -0.05787671
v -0.29060937 0.10339696 0.01216391
v -0.36379063 -0.12635548 0.01522702
f 1 138 54
f 138 38 140
f 54 140 17
f 138 140 54
f 38 139 155
f 139 12 152
f 155 152 41
f 139 152 155
f 17 153 55
f 153 41 151
f 55 151 6
f 153 151 55
f 38 155 140
f 155 41 153
f 140 153 17
f 155 153 140
f 1 54 43
f 54 17 56
f 43 56 13
f 54 56 43
f 17 55 60
f 55 6 58
f 60 58 18
f 55 58 60
f 13 59 44
f 59 18 57
f 44 57 2
f 59 57 44
f 17 60 56
f 60 18 59
f 56 59 13
f 60 59 56
f 1 43 70
f 43 13 72
f 70 72 22
f 43 72 70
f 13 44 75
f 44 2 73
f 75 73 23
f 44 73 75
f 22 76 71
f 76 23 74
f 71 74 8
f 76 74 71
f 13 75 72
f 75 23 76
f 72 76 22
f 75 76 72
f 1 70 121
f 70 22 123
f 121 123 34
f 70 123 121
f 22 71 134
f 71 8 132
f 134 132 37
f 71 132 134
f 34 136 122
f 136 37 133
f 122 133 11
f 136 133 122
f 22 134 123
f 134 37 136
f 123 136 34
f 134 136 123
f 1 121 138
f 121 34 141
f 138 141 38
f 121 141 138
f 34 122 159
f 122 11 157
f 159 157 42
f 122 157 159
f 38 161 139
f 161 42 158
f 139 158 12
f 161 158 139
f 34 159 141
f 159 42 161
f 141 161 38
f 159 161 141
f 2 57 96
f 57 18 98
f 96 98 29
f 57 98 96
f 18 58 111
f 58 6 109
f 111 109 32
f 58 109 111
f 29 113 97
f 113 32 110
f 97 110 10
f 113 110 97
f 18 111 98
f 111 32 113
f 98 113 29
f 111 113 98
f 6 151 62
f 151 41 154
f 62 154 19
f 151 154 62
f 41 152 156
f 152 12 147
f 156 147 40
f 152 147 156
f 19 149 61
f 149 40 146
f 61 146 5
f 149 146 61
f 41 156 154
f 156 40 149
f 154 149 19
f 156 149 154
f 12 158 143
f 158 42 162
f 143 162 39
f 158 162 143
f 42 157 160
f 157 11 125
f 160 125 35
f 157 125 160
f 39 145 142
f 145 35 124
f 142 124 3
f 145 124 142
f 42 160 162
f 160 35 145
f 162 145 39
f 160 145 162
f 11 133 128
f 133 37 137
f 128 137 36
f 133 137 128
f 37 132 135
f 132 8 78
f 135 78 24
f 132 78 135
f 36 130 127
f 130 24 77
f 127 77 7
f 130 77 127
f 37 135 137
f 135 24 130
f 137 130 36
f 135 130 137
f 8 74 90
f 74 23 92
f 90 92 28
f 74 92 90
f 23 73 81
f 73 2 79
f 81 79 25
f 73 79 81
f 28 94 91
f 94 25 80
f 91 80 9
f 94 80 91
f 23 81 92
f 81 25 94
f 92 94 28
f 81 94 92
f 4 100 50
f 100 30 102
f 50 102 16
f 100 102 50
f 30 101 108
f 101 10 105
f 108 105 31
f 101 105 108
f 16 106 51
f 106 31 104
f 51 104 5
f 106 104 51
f 30 108 102
f 108 31 106
f 102 106 16
f 108 106 102
f 4 50 46
f 50 16 52
f 46 52 14
f 50 52 46
f 16 51 53
f 51 5 48
f 53 48 15
f 51 48 53
f 14 49 45
f 49 15 47
f 45 47 3
f 49 47 45
f 16 53 52
f 53 15 49
f 52 49 14
f 53 49 52
f 4 46 66
f 46 14 68
f 66 68 21
f 46 68 66
f 14 45 65
f 45 3 63
f 65 63 20
f 45 63 65
f 21 69 67
f 69 20 64
f 67 64 7
f 69 64 67
f 14 65 68
f 65 20 69
f 68 69 21
f 65 69 68
f 4 66 82
f 66 21 84
f 82 84 26
f 66 84 82
f 21 67 87
f 67 7 85
f 87 85 27
f 67 85 87
f 26 89 83
f 89 27 86
f 83 86 9
f 89 86 83
f 21 87 84
f 87 27 89
f 84 89 26
f 87 89 84
f 4 82 100
f 82 26 103
f 100 103 30
f 82 103 100
f 26 83 118
f 83 9 115
f 118 115 33
f 83 115 118
f 30 120 101
f 120 33 116
f 101 116 10
f 120 116 101
f 26 118 103
f 118 33 120
f 103 120 30
f 118 120 103
f 5 104 61
f 104 31 107
f 61 107 19
f 104 107 61
f 31 105 114
f 105 10 110
f 114 110 32
f 105 110 114
f 19 112 62
f 112 32 109
f 62 109 6
f 112 109 62
f 31 114 107
f 114 32 112
f 107 112 19
f 114 112 107
f 3 47 142
f 47 15 144
f 142 144 39
f 47 144 142
f 15 48 148
f 48 5 146
f 148 146 40
f 48 146 148
f 39 150 143
f 150 40 147
f 143 147 12
f 150 147 143
f 15 148 144
f 148 40 150
f 144 150 39
f 148 150 144
f 7 64 127
f 64 20 129
f 127 129 36
f 64 129 127
f 20 63 126
f 63 3 124
f 126 124 35
f 63 124 126
f 36 131 128
f 131 35 125
f 128 125 11
f 131 125 128
f 20 126 129
f 126 35 131
f 129 131 36
f 126 131 129
f 9 86 91
f 86 27 95
f 91 95 28
f 86 95 91
f 27 85 88
f 85 7 77
f 88 77 24
f 85 77 88
f 28 93 90
f 93 24 78
f 90 78 8
f 93 78 90
f 27 88 95
f 88 24 93
f 95 93 28
f 88 93 95
f 10 116 97
f 116 33 119
f 97 119 29
f 116 119 97
f 33 115 117
f 115 9 80
f 117 80 25
f 115 80 117
f 29 99 96
f 99 25 79
f 96 79 2
f 99 79 96
f 33 117 119
f 117 25 99
f 119 99 29
f 117 99 119

